M48
;GenerationSoftware,Autodesk,EAGLE,9.4.2*%
;CreationDate,2021-05-13T18:29:56Z*%
FMAT,2
ICI,OFF
METRIC,TZ,000.000
T5C0.350
T4C0.400
T3C0.550
T2C0.800
T1C1.016
%
G90
M71
T1
X73000Y29730
X10400Y11300
X12940Y11300
X30161Y29651
X45350Y5090
X42810Y5090
X40270Y5090
X37730Y5090
X35190Y5090
X32650Y5090
X31080Y11500
X20920Y11500
X28540Y11500
X26000Y11500
X7630Y34700
X10170Y34700
X40230Y35000
X42770Y35000
X57850Y35000
X60390Y35000
X73000Y21730
X73000Y24270
X23460Y11500
X73000Y32270
X78000Y21730
X78000Y24270
X78000Y29730
X78000Y32270
X6639Y22449
X11161Y22449
X6639Y28951
X11161Y28951
X39239Y22749
X43761Y22749
X39239Y29251
X43761Y29251
X56779Y22749
X61301Y22749
X56779Y29251
X61301Y29251
X47310Y11500
X49850Y11500
X52390Y11500
X60850Y11500
X63390Y11500
X65930Y11500
X68470Y11500
X7860Y11300
X25639Y23149
X30161Y23149
X25639Y29651
T2
X24800Y49000
X25800Y47000
X26800Y49000
X27800Y47000
X28800Y49000
X29800Y47000
X30800Y49000
X31800Y47000
X32800Y49000
X33800Y47000
X34800Y49000
X48300Y47000
X49300Y49000
X50300Y47000
X51300Y49000
X52300Y47000
X53300Y49000
X54300Y47000
X55300Y49000
X56300Y47000
X57300Y49000
X59300Y49000
X60300Y47000
X61300Y49000
X62300Y47000
X35800Y47000
X21800Y47000
X22800Y49000
X23800Y47000
X58300Y47000
T3
X42300Y45563
T4
X15635Y46400
X61550Y44650
T5
X20378Y36400
X15030Y35580
X13080Y34180
X52450Y40860
X44900Y44686
X47200Y44687
X42375Y11875
X31865Y33825
X52600Y42300
X46100Y44600
X16285Y27705
M30