G04 EAGLE Gerber RS-274X export*
G75*
%MOMM*%
%FSLAX34Y34*%
%LPD*%
%INTop Copper*%
%IPPOS*%
%AMOC8*
5,1,8,0,0,1.08239X$1,22.5*%
G01*
%ADD10C,1.524000*%
%ADD11R,1.100000X1.000000*%
%ADD12R,0.889000X0.787400*%
%ADD13R,1.000000X1.100000*%
%ADD14R,0.800000X0.800000*%
%ADD15P,1.415766X8X22.500000*%
%ADD16C,0.300000*%
%ADD17C,0.756400*%
%ADD18C,0.600000*%
%ADD19C,1.000000*%
%ADD20C,0.800000*%
%ADD21C,0.400000*%
%ADD22C,0.500000*%
%ADD23C,0.956400*%
%ADD24C,0.806400*%

G36*
X834429Y4645D02*
X834429Y4645D01*
X834493Y4644D01*
X834568Y4665D01*
X834644Y4676D01*
X834703Y4702D01*
X834765Y4719D01*
X834831Y4760D01*
X834901Y4792D01*
X834950Y4834D01*
X835005Y4867D01*
X835057Y4925D01*
X835115Y4975D01*
X835151Y5029D01*
X835194Y5077D01*
X835227Y5146D01*
X835270Y5211D01*
X835289Y5273D01*
X835317Y5330D01*
X835328Y5400D01*
X835352Y5481D01*
X835353Y5566D01*
X835364Y5635D01*
X835364Y534365D01*
X835355Y534429D01*
X835356Y534493D01*
X835335Y534568D01*
X835324Y534644D01*
X835298Y534703D01*
X835281Y534765D01*
X835240Y534831D01*
X835208Y534901D01*
X835166Y534950D01*
X835133Y535005D01*
X835075Y535057D01*
X835025Y535115D01*
X834971Y535151D01*
X834923Y535194D01*
X834854Y535227D01*
X834789Y535270D01*
X834727Y535289D01*
X834670Y535317D01*
X834600Y535328D01*
X834519Y535352D01*
X834434Y535353D01*
X834365Y535364D01*
X5635Y535364D01*
X5571Y535355D01*
X5507Y535356D01*
X5432Y535335D01*
X5356Y535324D01*
X5297Y535298D01*
X5235Y535281D01*
X5169Y535240D01*
X5099Y535208D01*
X5050Y535166D01*
X4995Y535133D01*
X4943Y535075D01*
X4885Y535025D01*
X4849Y534971D01*
X4806Y534923D01*
X4773Y534854D01*
X4730Y534789D01*
X4711Y534727D01*
X4683Y534670D01*
X4672Y534600D01*
X4648Y534519D01*
X4647Y534434D01*
X4636Y534365D01*
X4636Y5635D01*
X4645Y5571D01*
X4644Y5507D01*
X4665Y5432D01*
X4676Y5356D01*
X4702Y5297D01*
X4719Y5235D01*
X4760Y5169D01*
X4792Y5099D01*
X4834Y5050D01*
X4867Y4995D01*
X4925Y4943D01*
X4975Y4885D01*
X5029Y4849D01*
X5077Y4806D01*
X5146Y4773D01*
X5211Y4730D01*
X5273Y4711D01*
X5330Y4683D01*
X5400Y4672D01*
X5481Y4648D01*
X5566Y4647D01*
X5635Y4636D01*
X834365Y4636D01*
X834429Y4645D01*
G37*
%LPC*%
G36*
X500300Y84749D02*
X500300Y84749D01*
X497957Y87093D01*
X483124Y101925D01*
X483123Y101926D01*
X483006Y102014D01*
X482899Y102094D01*
X482898Y102095D01*
X482897Y102095D01*
X482767Y102144D01*
X482635Y102194D01*
X482634Y102194D01*
X482633Y102194D01*
X482491Y102205D01*
X482354Y102216D01*
X482353Y102215D01*
X482351Y102215D01*
X482210Y102185D01*
X482078Y102158D01*
X482077Y102157D01*
X482076Y102157D01*
X481954Y102092D01*
X481829Y102025D01*
X481828Y102025D01*
X481827Y102024D01*
X481813Y102010D01*
X481627Y101829D01*
X481619Y101815D01*
X481609Y101806D01*
X480850Y100761D01*
X479719Y99630D01*
X478425Y98690D01*
X477000Y97964D01*
X475479Y97469D01*
X475099Y97409D01*
X475099Y114000D01*
X475090Y114063D01*
X475091Y114128D01*
X475070Y114202D01*
X475059Y114279D01*
X475033Y114338D01*
X475016Y114400D01*
X474975Y114466D01*
X474943Y114536D01*
X474901Y114585D01*
X474868Y114640D01*
X474810Y114691D01*
X474760Y114750D01*
X474706Y114786D01*
X474658Y114829D01*
X474589Y114862D01*
X474524Y114905D01*
X474462Y114924D01*
X474405Y114952D01*
X474335Y114962D01*
X474254Y114987D01*
X474169Y114988D01*
X474100Y114999D01*
X473099Y114999D01*
X473099Y115001D01*
X474100Y115001D01*
X474164Y115010D01*
X474228Y115009D01*
X474303Y115030D01*
X474379Y115041D01*
X474438Y115067D01*
X474500Y115084D01*
X474566Y115125D01*
X474636Y115157D01*
X474685Y115199D01*
X474740Y115232D01*
X474792Y115290D01*
X474850Y115340D01*
X474886Y115394D01*
X474929Y115442D01*
X474962Y115511D01*
X475005Y115576D01*
X475024Y115638D01*
X475052Y115696D01*
X475062Y115765D01*
X475087Y115846D01*
X475088Y115931D01*
X475099Y116000D01*
X475099Y132591D01*
X475479Y132531D01*
X477000Y132036D01*
X478425Y131310D01*
X479719Y130370D01*
X480293Y129796D01*
X480319Y129777D01*
X480340Y129752D01*
X480432Y129692D01*
X480519Y129627D01*
X480549Y129615D01*
X480576Y129598D01*
X480681Y129566D01*
X480783Y129527D01*
X480815Y129525D01*
X480846Y129515D01*
X480955Y129514D01*
X481064Y129505D01*
X481096Y129512D01*
X481128Y129512D01*
X481233Y129541D01*
X481340Y129563D01*
X481369Y129578D01*
X481400Y129587D01*
X481493Y129644D01*
X481589Y129695D01*
X481612Y129718D01*
X481640Y129735D01*
X481713Y129816D01*
X481791Y129892D01*
X481807Y129920D01*
X481829Y129944D01*
X481876Y130042D01*
X481930Y130138D01*
X481938Y130169D01*
X481952Y130198D01*
X481966Y130287D01*
X481995Y130412D01*
X481993Y130460D01*
X481999Y130503D01*
X481999Y141886D01*
X481986Y141981D01*
X481981Y142077D01*
X481966Y142120D01*
X481959Y142165D01*
X481920Y142253D01*
X481888Y142344D01*
X481863Y142378D01*
X481843Y142422D01*
X481760Y142520D01*
X481707Y142593D01*
X458093Y166207D01*
X458016Y166264D01*
X457944Y166329D01*
X457903Y166349D01*
X457867Y166376D01*
X457777Y166410D01*
X457691Y166452D01*
X457649Y166458D01*
X457603Y166475D01*
X457476Y166485D01*
X457386Y166499D01*
X432000Y166499D01*
X431936Y166490D01*
X431872Y166491D01*
X431797Y166470D01*
X431721Y166459D01*
X431662Y166433D01*
X431600Y166416D01*
X431534Y166375D01*
X431464Y166343D01*
X431415Y166301D01*
X431360Y166268D01*
X431308Y166210D01*
X431250Y166160D01*
X431214Y166106D01*
X431171Y166058D01*
X431138Y165989D01*
X431095Y165924D01*
X431076Y165862D01*
X431048Y165805D01*
X431037Y165735D01*
X431013Y165654D01*
X431012Y165569D01*
X431001Y165500D01*
X431001Y164171D01*
X429829Y162999D01*
X417171Y162999D01*
X415941Y164229D01*
X415898Y164261D01*
X415862Y164301D01*
X415823Y164324D01*
X415799Y164345D01*
X415764Y164362D01*
X415716Y164399D01*
X415666Y164417D01*
X415619Y164445D01*
X415564Y164459D01*
X415545Y164468D01*
X415521Y164472D01*
X415452Y164498D01*
X415398Y164502D01*
X415346Y164516D01*
X415258Y164513D01*
X415257Y164513D01*
X415241Y164516D01*
X415231Y164516D01*
X415229Y164515D01*
X415171Y164520D01*
X415118Y164509D01*
X415065Y164507D01*
X414981Y164480D01*
X414977Y164480D01*
X414952Y164476D01*
X414945Y164473D01*
X414895Y164462D01*
X414847Y164437D01*
X414796Y164421D01*
X414729Y164375D01*
X414695Y164360D01*
X414684Y164350D01*
X414646Y164330D01*
X414607Y164292D01*
X414563Y164262D01*
X414522Y164212D01*
X414481Y164176D01*
X414468Y164157D01*
X414444Y164133D01*
X414408Y164070D01*
X414369Y164022D01*
X414033Y163440D01*
X413560Y162967D01*
X412981Y162632D01*
X412335Y162459D01*
X408499Y162459D01*
X408499Y169000D01*
X408490Y169064D01*
X408491Y169128D01*
X408470Y169202D01*
X408459Y169279D01*
X408433Y169338D01*
X408416Y169400D01*
X408375Y169466D01*
X408343Y169536D01*
X408301Y169585D01*
X408268Y169640D01*
X408210Y169691D01*
X408160Y169750D01*
X408106Y169786D01*
X408058Y169829D01*
X407989Y169862D01*
X407924Y169905D01*
X407862Y169924D01*
X407805Y169952D01*
X407735Y169962D01*
X407654Y169987D01*
X407569Y169988D01*
X407500Y169999D01*
X406499Y169999D01*
X406499Y170001D01*
X407500Y170001D01*
X407564Y170010D01*
X407628Y170009D01*
X407703Y170030D01*
X407779Y170041D01*
X407838Y170067D01*
X407900Y170084D01*
X407966Y170125D01*
X408036Y170157D01*
X408085Y170199D01*
X408140Y170232D01*
X408192Y170290D01*
X408250Y170340D01*
X408286Y170394D01*
X408329Y170442D01*
X408362Y170511D01*
X408405Y170576D01*
X408424Y170638D01*
X408452Y170696D01*
X408462Y170765D01*
X408487Y170846D01*
X408488Y170931D01*
X408499Y171000D01*
X408499Y177541D01*
X412335Y177541D01*
X412981Y177368D01*
X413560Y177033D01*
X414033Y176560D01*
X414369Y175978D01*
X414402Y175935D01*
X414428Y175888D01*
X414489Y175825D01*
X414543Y175756D01*
X414587Y175725D01*
X414624Y175686D01*
X414701Y175643D01*
X414773Y175591D01*
X414823Y175574D01*
X414870Y175547D01*
X414956Y175527D01*
X415038Y175498D01*
X415092Y175495D01*
X415144Y175482D01*
X415232Y175487D01*
X415320Y175482D01*
X415372Y175494D01*
X415426Y175497D01*
X415509Y175525D01*
X415595Y175545D01*
X415642Y175571D01*
X415692Y175589D01*
X415756Y175635D01*
X415841Y175683D01*
X415892Y175735D01*
X415941Y175771D01*
X417171Y177001D01*
X429829Y177001D01*
X431001Y175829D01*
X431001Y174500D01*
X431010Y174437D01*
X431009Y174380D01*
X431009Y174372D01*
X431030Y174297D01*
X431041Y174221D01*
X431067Y174162D01*
X431084Y174100D01*
X431125Y174034D01*
X431157Y173964D01*
X431199Y173915D01*
X431232Y173860D01*
X431290Y173808D01*
X431340Y173750D01*
X431394Y173714D01*
X431442Y173671D01*
X431511Y173638D01*
X431576Y173595D01*
X431638Y173576D01*
X431695Y173548D01*
X431765Y173537D01*
X431846Y173513D01*
X431931Y173512D01*
X432000Y173501D01*
X460700Y173501D01*
X489001Y145200D01*
X489001Y129139D01*
X489005Y129107D01*
X489003Y129075D01*
X489025Y128968D01*
X489041Y128860D01*
X489054Y128830D01*
X489060Y128799D01*
X489112Y128702D01*
X489157Y128603D01*
X489178Y128578D01*
X489193Y128550D01*
X489269Y128472D01*
X489340Y128388D01*
X489367Y128371D01*
X489390Y128348D01*
X489485Y128294D01*
X489576Y128234D01*
X489607Y128225D01*
X489635Y128209D01*
X489741Y128183D01*
X489846Y128152D01*
X489878Y128151D01*
X489909Y128144D01*
X490019Y128149D01*
X490128Y128148D01*
X490159Y128156D01*
X490191Y128158D01*
X490294Y128194D01*
X490400Y128223D01*
X490427Y128240D01*
X490458Y128251D01*
X490531Y128304D01*
X490640Y128371D01*
X490672Y128407D01*
X490707Y128432D01*
X493050Y130776D01*
X494632Y131431D01*
X494641Y131436D01*
X494650Y131439D01*
X494762Y131508D01*
X494875Y131575D01*
X494882Y131582D01*
X494890Y131587D01*
X494978Y131685D01*
X495068Y131781D01*
X495072Y131789D01*
X495079Y131796D01*
X495136Y131914D01*
X495196Y132032D01*
X495198Y132042D01*
X495202Y132050D01*
X495214Y132126D01*
X495248Y132309D01*
X495246Y132333D01*
X495249Y132355D01*
X495249Y340200D01*
X596550Y441501D01*
X609546Y441501D01*
X609578Y441505D01*
X609611Y441503D01*
X609718Y441525D01*
X609825Y441541D01*
X609855Y441554D01*
X609887Y441561D01*
X609983Y441612D01*
X610082Y441657D01*
X610107Y441678D01*
X610136Y441694D01*
X610214Y441770D01*
X610296Y441840D01*
X610314Y441868D01*
X610338Y441891D01*
X610391Y441985D01*
X610451Y442076D01*
X610460Y442108D01*
X610477Y442136D01*
X610501Y442242D01*
X610533Y442346D01*
X610534Y442379D01*
X610541Y442411D01*
X610535Y442519D01*
X610537Y442628D01*
X610528Y442660D01*
X610526Y442692D01*
X610491Y442795D01*
X610462Y442900D01*
X610444Y442928D01*
X610434Y442959D01*
X610426Y442969D01*
X609463Y445295D01*
X609463Y447695D01*
X610381Y449913D01*
X612078Y451610D01*
X614295Y452528D01*
X614749Y452528D01*
X614844Y452542D01*
X614940Y452546D01*
X614983Y452561D01*
X615028Y452568D01*
X615116Y452607D01*
X615207Y452639D01*
X615241Y452664D01*
X615285Y452684D01*
X615383Y452767D01*
X615456Y452821D01*
X618207Y455572D01*
X618264Y455648D01*
X618329Y455720D01*
X618349Y455761D01*
X618376Y455797D01*
X618404Y455871D01*
X618405Y455873D01*
X618407Y455880D01*
X618410Y455887D01*
X618452Y455974D01*
X618458Y456016D01*
X618475Y456061D01*
X618480Y456118D01*
X618487Y456143D01*
X618488Y456207D01*
X618499Y456278D01*
X618499Y462008D01*
X618486Y462103D01*
X618481Y462200D01*
X618466Y462243D01*
X618459Y462288D01*
X618420Y462375D01*
X618388Y462466D01*
X618363Y462500D01*
X618343Y462545D01*
X618260Y462642D01*
X618207Y462715D01*
X614459Y466462D01*
X614459Y473538D01*
X617707Y476785D01*
X617764Y476862D01*
X617829Y476933D01*
X617849Y476974D01*
X617876Y477011D01*
X617910Y477101D01*
X617952Y477187D01*
X617958Y477229D01*
X617975Y477274D01*
X617983Y477373D01*
X617995Y477424D01*
X617994Y477455D01*
X617999Y477492D01*
X617999Y477515D01*
X617996Y477538D01*
X617997Y477556D01*
X617986Y477611D01*
X617981Y477706D01*
X617966Y477749D01*
X617959Y477794D01*
X617920Y477881D01*
X617888Y477972D01*
X617863Y478007D01*
X617843Y478051D01*
X617760Y478148D01*
X617707Y478221D01*
X614761Y481167D01*
X614684Y481224D01*
X614613Y481289D01*
X614572Y481309D01*
X614536Y481336D01*
X614446Y481370D01*
X614359Y481412D01*
X614317Y481418D01*
X614272Y481435D01*
X614144Y481445D01*
X614055Y481459D01*
X609462Y481459D01*
X604459Y486462D01*
X604459Y493538D01*
X609462Y498541D01*
X616538Y498541D01*
X621541Y493538D01*
X621541Y488945D01*
X621554Y488850D01*
X621559Y488754D01*
X621574Y488711D01*
X621581Y488666D01*
X621620Y488579D01*
X621652Y488488D01*
X621677Y488453D01*
X621697Y488409D01*
X621780Y488312D01*
X621833Y488239D01*
X624779Y485293D01*
X628001Y482071D01*
X628001Y477492D01*
X628014Y477397D01*
X628019Y477300D01*
X628034Y477257D01*
X628041Y477212D01*
X628080Y477125D01*
X628112Y477034D01*
X628137Y477000D01*
X628157Y476955D01*
X628240Y476858D01*
X628293Y476785D01*
X631541Y473538D01*
X631541Y466462D01*
X627793Y462715D01*
X627736Y462638D01*
X627671Y462567D01*
X627651Y462526D01*
X627624Y462489D01*
X627590Y462399D01*
X627548Y462313D01*
X627542Y462271D01*
X627525Y462226D01*
X627515Y462098D01*
X627501Y462008D01*
X627501Y452864D01*
X627505Y452832D01*
X627503Y452800D01*
X627525Y452693D01*
X627541Y452585D01*
X627554Y452555D01*
X627560Y452524D01*
X627612Y452427D01*
X627657Y452328D01*
X627678Y452303D01*
X627693Y452275D01*
X627769Y452197D01*
X627840Y452113D01*
X627867Y452096D01*
X627890Y452073D01*
X627985Y452019D01*
X628076Y451959D01*
X628107Y451950D01*
X628135Y451934D01*
X628242Y451908D01*
X628346Y451877D01*
X628378Y451876D01*
X628409Y451869D01*
X628519Y451874D01*
X628628Y451873D01*
X628659Y451881D01*
X628691Y451883D01*
X628794Y451919D01*
X628900Y451948D01*
X628927Y451965D01*
X628958Y451976D01*
X629031Y452029D01*
X629140Y452096D01*
X629172Y452132D01*
X629207Y452157D01*
X634207Y457157D01*
X634264Y457234D01*
X634329Y457306D01*
X634349Y457347D01*
X634376Y457383D01*
X634410Y457473D01*
X634452Y457559D01*
X634458Y457601D01*
X634475Y457647D01*
X634485Y457774D01*
X634499Y457864D01*
X634499Y491136D01*
X634486Y491231D01*
X634481Y491327D01*
X634466Y491370D01*
X634459Y491415D01*
X634420Y491503D01*
X634388Y491594D01*
X634363Y491628D01*
X634343Y491672D01*
X634260Y491770D01*
X634207Y491843D01*
X622843Y503207D01*
X622766Y503264D01*
X622694Y503329D01*
X622653Y503349D01*
X622617Y503376D01*
X622527Y503410D01*
X622441Y503452D01*
X622399Y503458D01*
X622353Y503475D01*
X622226Y503485D01*
X622136Y503499D01*
X606864Y503499D01*
X606769Y503486D01*
X606673Y503481D01*
X606630Y503466D01*
X606585Y503459D01*
X606497Y503420D01*
X606406Y503388D01*
X606372Y503363D01*
X606328Y503343D01*
X606230Y503260D01*
X606157Y503207D01*
X599721Y496770D01*
X599683Y496719D01*
X599637Y496674D01*
X599598Y496607D01*
X599552Y496545D01*
X599529Y496485D01*
X599498Y496429D01*
X599480Y496353D01*
X599452Y496281D01*
X599447Y496217D01*
X599433Y496154D01*
X599437Y496077D01*
X599431Y496000D01*
X599444Y495937D01*
X599447Y495873D01*
X599472Y495799D01*
X599488Y495724D01*
X599518Y495667D01*
X599539Y495606D01*
X599581Y495550D01*
X599621Y495475D01*
X599680Y495414D01*
X599721Y495357D01*
X601541Y493538D01*
X601541Y486462D01*
X596538Y481459D01*
X589462Y481459D01*
X584459Y486462D01*
X584459Y493538D01*
X589462Y498541D01*
X591176Y498541D01*
X591271Y498554D01*
X591367Y498559D01*
X591410Y498574D01*
X591455Y498581D01*
X591543Y498620D01*
X591634Y498652D01*
X591668Y498677D01*
X591712Y498697D01*
X591810Y498780D01*
X591883Y498833D01*
X603550Y510501D01*
X625450Y510501D01*
X641501Y494450D01*
X641501Y454550D01*
X621450Y434499D01*
X599864Y434499D01*
X599769Y434486D01*
X599673Y434481D01*
X599630Y434466D01*
X599585Y434459D01*
X599497Y434420D01*
X599406Y434388D01*
X599372Y434363D01*
X599328Y434343D01*
X599230Y434260D01*
X599157Y434207D01*
X502543Y337593D01*
X502486Y337516D01*
X502421Y337444D01*
X502401Y337403D01*
X502374Y337367D01*
X502340Y337277D01*
X502298Y337191D01*
X502292Y337149D01*
X502275Y337103D01*
X502265Y336976D01*
X502251Y336886D01*
X502251Y132147D01*
X502252Y132138D01*
X502251Y132129D01*
X502272Y131999D01*
X502291Y131868D01*
X502294Y131860D01*
X502296Y131850D01*
X502353Y131731D01*
X502407Y131611D01*
X502413Y131604D01*
X502417Y131596D01*
X502505Y131497D01*
X502590Y131397D01*
X502598Y131392D01*
X502604Y131385D01*
X502670Y131345D01*
X502826Y131243D01*
X502849Y131236D01*
X502868Y131224D01*
X503950Y130776D01*
X506656Y128070D01*
X508121Y124534D01*
X508121Y105466D01*
X506656Y101930D01*
X503950Y99224D01*
X500414Y97759D01*
X499604Y97759D01*
X499572Y97755D01*
X499540Y97757D01*
X499433Y97735D01*
X499325Y97719D01*
X499295Y97706D01*
X499264Y97700D01*
X499167Y97648D01*
X499068Y97603D01*
X499043Y97582D01*
X499015Y97567D01*
X498937Y97491D01*
X498853Y97420D01*
X498836Y97393D01*
X498813Y97370D01*
X498759Y97275D01*
X498699Y97184D01*
X498690Y97153D01*
X498674Y97125D01*
X498648Y97019D01*
X498617Y96914D01*
X498616Y96882D01*
X498609Y96851D01*
X498614Y96741D01*
X498613Y96632D01*
X498621Y96601D01*
X498623Y96569D01*
X498659Y96466D01*
X498688Y96360D01*
X498705Y96333D01*
X498716Y96302D01*
X498769Y96229D01*
X498836Y96120D01*
X498872Y96088D01*
X498897Y96053D01*
X502907Y92043D01*
X502984Y91986D01*
X503056Y91921D01*
X503097Y91901D01*
X503133Y91874D01*
X503223Y91840D01*
X503309Y91798D01*
X503351Y91792D01*
X503397Y91775D01*
X503524Y91765D01*
X503614Y91751D01*
X671136Y91751D01*
X671231Y91764D01*
X671327Y91769D01*
X671370Y91784D01*
X671415Y91791D01*
X671503Y91830D01*
X671594Y91862D01*
X671628Y91887D01*
X671672Y91907D01*
X671770Y91990D01*
X671843Y92043D01*
X678430Y98631D01*
X678469Y98682D01*
X678515Y98727D01*
X678553Y98795D01*
X678599Y98856D01*
X678622Y98917D01*
X678654Y98973D01*
X678672Y99048D01*
X678699Y99120D01*
X678704Y99184D01*
X678719Y99247D01*
X678715Y99324D01*
X678721Y99402D01*
X678708Y99464D01*
X678704Y99529D01*
X678679Y99602D01*
X678663Y99678D01*
X678633Y99734D01*
X678612Y99795D01*
X678571Y99852D01*
X678531Y99927D01*
X678471Y99987D01*
X678430Y100044D01*
X676544Y101930D01*
X675079Y105466D01*
X675079Y124534D01*
X676562Y128114D01*
X676565Y128124D01*
X676569Y128132D01*
X676600Y128261D01*
X676633Y128388D01*
X676632Y128397D01*
X676634Y128406D01*
X676628Y128539D01*
X676623Y128669D01*
X676621Y128678D01*
X676620Y128688D01*
X676577Y128812D01*
X676536Y128938D01*
X676531Y128946D01*
X676528Y128954D01*
X676482Y129016D01*
X676377Y129171D01*
X676359Y129186D01*
X676346Y129203D01*
X610249Y195300D01*
X610249Y209929D01*
X610248Y209938D01*
X610249Y209948D01*
X610228Y210078D01*
X610209Y210208D01*
X610206Y210217D01*
X610204Y210226D01*
X610147Y210345D01*
X610093Y210465D01*
X610087Y210472D01*
X610083Y210481D01*
X609995Y210579D01*
X609910Y210679D01*
X609902Y210684D01*
X609896Y210691D01*
X609830Y210731D01*
X609674Y210834D01*
X609651Y210841D01*
X609632Y210852D01*
X607556Y211712D01*
X604850Y214418D01*
X603385Y217954D01*
X603385Y237022D01*
X604850Y240558D01*
X607556Y243264D01*
X609632Y244124D01*
X609641Y244129D01*
X609650Y244131D01*
X609762Y244201D01*
X609875Y244268D01*
X609882Y244275D01*
X609890Y244280D01*
X609978Y244378D01*
X610068Y244473D01*
X610072Y244482D01*
X610079Y244489D01*
X610136Y244607D01*
X610196Y244725D01*
X610198Y244734D01*
X610202Y244743D01*
X610214Y244818D01*
X610248Y245002D01*
X610246Y245026D01*
X610249Y245047D01*
X610249Y274953D01*
X610248Y274962D01*
X610249Y274972D01*
X610228Y275102D01*
X610209Y275232D01*
X610206Y275241D01*
X610204Y275250D01*
X610147Y275369D01*
X610093Y275489D01*
X610087Y275496D01*
X610083Y275505D01*
X609996Y275603D01*
X609910Y275703D01*
X609902Y275708D01*
X609896Y275715D01*
X609830Y275755D01*
X609674Y275858D01*
X609651Y275865D01*
X609632Y275876D01*
X607556Y276736D01*
X604850Y279442D01*
X603385Y282978D01*
X603385Y302046D01*
X604850Y305582D01*
X607556Y308288D01*
X611092Y309753D01*
X614920Y309753D01*
X618456Y308288D01*
X621162Y305582D01*
X622627Y302046D01*
X622627Y282978D01*
X621162Y279442D01*
X618456Y276736D01*
X617868Y276492D01*
X617860Y276488D01*
X617850Y276485D01*
X617737Y276415D01*
X617625Y276349D01*
X617618Y276342D01*
X617610Y276337D01*
X617522Y276239D01*
X617432Y276143D01*
X617428Y276135D01*
X617421Y276128D01*
X617364Y276009D01*
X617304Y275892D01*
X617302Y275882D01*
X617298Y275874D01*
X617286Y275798D01*
X617252Y275614D01*
X617254Y275591D01*
X617251Y275569D01*
X617251Y244431D01*
X617252Y244421D01*
X617251Y244412D01*
X617259Y244360D01*
X617259Y244328D01*
X617272Y244280D01*
X617291Y244152D01*
X617294Y244143D01*
X617296Y244134D01*
X617353Y244014D01*
X617407Y243895D01*
X617413Y243887D01*
X617417Y243879D01*
X617505Y243780D01*
X617590Y243680D01*
X617598Y243675D01*
X617604Y243668D01*
X617670Y243628D01*
X617826Y243526D01*
X617849Y243519D01*
X617868Y243508D01*
X618456Y243264D01*
X621162Y240558D01*
X622627Y237022D01*
X622627Y217954D01*
X621162Y214418D01*
X618456Y211712D01*
X617868Y211468D01*
X617860Y211464D01*
X617850Y211461D01*
X617737Y211391D01*
X617625Y211325D01*
X617618Y211318D01*
X617610Y211313D01*
X617522Y211215D01*
X617432Y211119D01*
X617428Y211111D01*
X617421Y211104D01*
X617364Y210985D01*
X617304Y210868D01*
X617302Y210858D01*
X617298Y210850D01*
X617286Y210774D01*
X617252Y210590D01*
X617254Y210567D01*
X617251Y210545D01*
X617251Y198614D01*
X617264Y198519D01*
X617269Y198423D01*
X617284Y198380D01*
X617291Y198335D01*
X617330Y198247D01*
X617362Y198156D01*
X617387Y198122D01*
X617407Y198078D01*
X617490Y197980D01*
X617543Y197907D01*
X682917Y132533D01*
X682994Y132476D01*
X683066Y132411D01*
X683107Y132391D01*
X683143Y132364D01*
X683233Y132330D01*
X683319Y132288D01*
X683361Y132282D01*
X683407Y132265D01*
X683534Y132255D01*
X683624Y132241D01*
X686614Y132241D01*
X690150Y130776D01*
X692856Y128070D01*
X694321Y124534D01*
X694321Y105466D01*
X692856Y101930D01*
X690150Y99224D01*
X688242Y98434D01*
X688206Y98413D01*
X688167Y98399D01*
X688097Y98348D01*
X687999Y98290D01*
X687959Y98247D01*
X687918Y98217D01*
X676793Y87093D01*
X674450Y84749D01*
X500300Y84749D01*
G37*
%LPD*%
%LPC*%
G36*
X102086Y95759D02*
X102086Y95759D01*
X98550Y97224D01*
X95844Y99930D01*
X94379Y103466D01*
X94379Y122534D01*
X95844Y126070D01*
X98550Y128776D01*
X98882Y128914D01*
X98891Y128918D01*
X98900Y128921D01*
X99012Y128991D01*
X99125Y129057D01*
X99132Y129064D01*
X99140Y129069D01*
X99228Y129167D01*
X99318Y129263D01*
X99322Y129271D01*
X99329Y129278D01*
X99386Y129397D01*
X99446Y129514D01*
X99448Y129524D01*
X99452Y129532D01*
X99464Y129608D01*
X99498Y129792D01*
X99496Y129815D01*
X99499Y129837D01*
X99499Y142822D01*
X99486Y142917D01*
X99481Y143013D01*
X99466Y143057D01*
X99459Y143102D01*
X99420Y143189D01*
X99388Y143280D01*
X99363Y143314D01*
X99343Y143358D01*
X99260Y143456D01*
X99207Y143529D01*
X37499Y205236D01*
X37499Y351517D01*
X150022Y464040D01*
X150080Y464116D01*
X150144Y464188D01*
X150164Y464229D01*
X150191Y464265D01*
X150225Y464355D01*
X150267Y464442D01*
X150274Y464484D01*
X150291Y464529D01*
X150301Y464657D01*
X150315Y464746D01*
X150315Y465200D01*
X151233Y467417D01*
X152930Y469114D01*
X155147Y470033D01*
X157547Y470033D01*
X159765Y469114D01*
X161462Y467417D01*
X162380Y465200D01*
X162380Y462800D01*
X161424Y460491D01*
X161417Y460482D01*
X161405Y460451D01*
X161387Y460424D01*
X161355Y460320D01*
X161317Y460218D01*
X161314Y460185D01*
X161305Y460154D01*
X161303Y460045D01*
X161295Y459937D01*
X161301Y459905D01*
X161301Y459872D01*
X161330Y459767D01*
X161352Y459661D01*
X161367Y459632D01*
X161376Y459600D01*
X161433Y459508D01*
X161484Y459412D01*
X161507Y459388D01*
X161524Y459360D01*
X161605Y459287D01*
X161681Y459209D01*
X161709Y459193D01*
X161734Y459171D01*
X161831Y459124D01*
X161926Y459070D01*
X161958Y459063D01*
X161987Y459048D01*
X162077Y459034D01*
X162201Y459005D01*
X162249Y459007D01*
X162292Y459001D01*
X240586Y459001D01*
X240681Y459014D01*
X240777Y459019D01*
X240820Y459034D01*
X240865Y459041D01*
X240952Y459080D01*
X241043Y459112D01*
X241078Y459137D01*
X241122Y459157D01*
X241219Y459240D01*
X241292Y459293D01*
X241752Y459753D01*
X241772Y459779D01*
X241796Y459800D01*
X241856Y459892D01*
X241922Y459979D01*
X241933Y460009D01*
X241951Y460036D01*
X241983Y460141D01*
X242021Y460243D01*
X242024Y460275D01*
X242033Y460306D01*
X242035Y460415D01*
X242043Y460524D01*
X242036Y460556D01*
X242037Y460588D01*
X242008Y460693D01*
X241985Y460800D01*
X241970Y460829D01*
X241962Y460860D01*
X241904Y460953D01*
X241853Y461049D01*
X241830Y461072D01*
X241814Y461100D01*
X241732Y461173D01*
X241656Y461251D01*
X241628Y461267D01*
X241604Y461289D01*
X241506Y461336D01*
X241411Y461390D01*
X241379Y461398D01*
X241350Y461412D01*
X241261Y461426D01*
X241136Y461455D01*
X241088Y461453D01*
X241046Y461459D01*
X234462Y461459D01*
X229459Y466462D01*
X229459Y473538D01*
X234462Y478541D01*
X241538Y478541D01*
X246541Y473538D01*
X246541Y466954D01*
X246545Y466922D01*
X246543Y466890D01*
X246565Y466783D01*
X246581Y466675D01*
X246594Y466646D01*
X246600Y466614D01*
X246652Y466518D01*
X246697Y466418D01*
X246718Y466394D01*
X246733Y466365D01*
X246809Y466287D01*
X246880Y466204D01*
X246907Y466186D01*
X246930Y466163D01*
X247025Y466109D01*
X247116Y466049D01*
X247147Y466040D01*
X247175Y466024D01*
X247281Y465999D01*
X247386Y465967D01*
X247418Y465966D01*
X247449Y465959D01*
X247559Y465965D01*
X247668Y465963D01*
X247699Y465972D01*
X247731Y465973D01*
X247834Y466009D01*
X247940Y466038D01*
X247967Y466055D01*
X247998Y466066D01*
X248071Y466119D01*
X248180Y466186D01*
X248212Y466222D01*
X248247Y466248D01*
X249167Y467168D01*
X249224Y467245D01*
X249289Y467316D01*
X249309Y467357D01*
X249336Y467393D01*
X249370Y467483D01*
X249412Y467570D01*
X249418Y467612D01*
X249435Y467657D01*
X249445Y467785D01*
X249459Y467874D01*
X249459Y473538D01*
X254462Y478541D01*
X261538Y478541D01*
X266541Y473538D01*
X266541Y466462D01*
X261538Y461459D01*
X256602Y461459D01*
X256507Y461446D01*
X256411Y461441D01*
X256368Y461426D01*
X256323Y461419D01*
X256235Y461380D01*
X256145Y461348D01*
X256110Y461323D01*
X256066Y461303D01*
X255969Y461220D01*
X255896Y461167D01*
X244728Y449999D01*
X160025Y449999D01*
X159930Y449986D01*
X159834Y449981D01*
X159791Y449966D01*
X159746Y449959D01*
X159658Y449920D01*
X159567Y449888D01*
X159533Y449863D01*
X159489Y449843D01*
X159391Y449760D01*
X159318Y449707D01*
X74593Y364982D01*
X74536Y364905D01*
X74471Y364833D01*
X74451Y364792D01*
X74424Y364756D01*
X74390Y364666D01*
X74348Y364580D01*
X74342Y364538D01*
X74325Y364492D01*
X74315Y364365D01*
X74301Y364275D01*
X74301Y348999D01*
X66139Y348999D01*
X66139Y354115D01*
X66135Y354147D01*
X66137Y354179D01*
X66115Y354286D01*
X66099Y354394D01*
X66086Y354424D01*
X66080Y354455D01*
X66028Y354552D01*
X65983Y354651D01*
X65962Y354676D01*
X65947Y354704D01*
X65871Y354782D01*
X65800Y354866D01*
X65773Y354883D01*
X65750Y354906D01*
X65655Y354960D01*
X65564Y355020D01*
X65533Y355029D01*
X65505Y355045D01*
X65398Y355071D01*
X65294Y355102D01*
X65262Y355103D01*
X65231Y355110D01*
X65121Y355105D01*
X65012Y355106D01*
X64981Y355098D01*
X64949Y355096D01*
X64846Y355060D01*
X64740Y355031D01*
X64713Y355014D01*
X64682Y355003D01*
X64609Y354950D01*
X64500Y354883D01*
X64468Y354847D01*
X64433Y354822D01*
X53793Y344182D01*
X53736Y344105D01*
X53671Y344033D01*
X53651Y343992D01*
X53624Y343956D01*
X53590Y343866D01*
X53548Y343780D01*
X53542Y343738D01*
X53525Y343692D01*
X53515Y343565D01*
X53501Y343475D01*
X53501Y212278D01*
X53514Y212183D01*
X53519Y212087D01*
X53534Y212044D01*
X53541Y211999D01*
X53580Y211911D01*
X53612Y211821D01*
X53637Y211786D01*
X53657Y211742D01*
X53740Y211645D01*
X53793Y211572D01*
X133901Y131464D01*
X133901Y129837D01*
X133902Y129827D01*
X133901Y129818D01*
X133922Y129688D01*
X133941Y129558D01*
X133944Y129549D01*
X133946Y129540D01*
X134003Y129419D01*
X134057Y129301D01*
X134063Y129294D01*
X134067Y129285D01*
X134155Y129186D01*
X134240Y129086D01*
X134248Y129081D01*
X134254Y129074D01*
X134320Y129034D01*
X134476Y128932D01*
X134499Y128925D01*
X134518Y128914D01*
X134850Y128776D01*
X137556Y126070D01*
X139021Y122534D01*
X139021Y103466D01*
X137556Y99930D01*
X134850Y97224D01*
X131314Y95759D01*
X127486Y95759D01*
X123950Y97224D01*
X121244Y99930D01*
X119779Y103466D01*
X119779Y122534D01*
X121244Y126070D01*
X123198Y128024D01*
X123237Y128075D01*
X123283Y128120D01*
X123321Y128188D01*
X123367Y128249D01*
X123390Y128309D01*
X123422Y128365D01*
X123440Y128441D01*
X123467Y128513D01*
X123472Y128577D01*
X123487Y128640D01*
X123483Y128717D01*
X123489Y128794D01*
X123476Y128857D01*
X123472Y128922D01*
X123447Y128995D01*
X123431Y129071D01*
X123401Y129127D01*
X123380Y129188D01*
X123338Y129245D01*
X123299Y129320D01*
X123239Y129380D01*
X123198Y129437D01*
X110207Y142428D01*
X110181Y142448D01*
X110160Y142472D01*
X110068Y142532D01*
X109981Y142598D01*
X109951Y142609D01*
X109924Y142627D01*
X109819Y142659D01*
X109717Y142697D01*
X109685Y142700D01*
X109654Y142709D01*
X109545Y142711D01*
X109436Y142719D01*
X109404Y142712D01*
X109372Y142713D01*
X109267Y142684D01*
X109160Y142661D01*
X109131Y142646D01*
X109100Y142638D01*
X109007Y142580D01*
X108911Y142529D01*
X108888Y142507D01*
X108860Y142490D01*
X108787Y142408D01*
X108709Y142332D01*
X108693Y142304D01*
X108671Y142280D01*
X108624Y142182D01*
X108570Y142087D01*
X108562Y142055D01*
X108548Y142026D01*
X108534Y141937D01*
X108505Y141812D01*
X108507Y141764D01*
X108501Y141722D01*
X108501Y129837D01*
X108502Y129827D01*
X108501Y129818D01*
X108522Y129688D01*
X108541Y129558D01*
X108544Y129549D01*
X108546Y129540D01*
X108603Y129419D01*
X108657Y129301D01*
X108663Y129294D01*
X108667Y129285D01*
X108755Y129186D01*
X108840Y129086D01*
X108848Y129081D01*
X108854Y129074D01*
X108920Y129034D01*
X109076Y128932D01*
X109099Y128925D01*
X109118Y128914D01*
X109450Y128776D01*
X112156Y126070D01*
X113621Y122534D01*
X113621Y103466D01*
X112156Y99930D01*
X109450Y97224D01*
X105914Y95759D01*
X102086Y95759D01*
G37*
%LPD*%
%LPC*%
G36*
X299692Y214247D02*
X299692Y214247D01*
X296156Y215712D01*
X293450Y218418D01*
X291985Y221954D01*
X291985Y241022D01*
X293450Y244558D01*
X296156Y247264D01*
X297488Y247816D01*
X297497Y247821D01*
X297506Y247823D01*
X297618Y247893D01*
X297731Y247959D01*
X297738Y247966D01*
X297746Y247971D01*
X297834Y248069D01*
X297924Y248165D01*
X297928Y248174D01*
X297935Y248181D01*
X297992Y248299D01*
X298052Y248417D01*
X298054Y248426D01*
X298058Y248434D01*
X298070Y248510D01*
X298104Y248694D01*
X298102Y248718D01*
X298105Y248739D01*
X298105Y279261D01*
X298104Y279270D01*
X298105Y279280D01*
X298084Y279410D01*
X298065Y279540D01*
X298062Y279549D01*
X298060Y279558D01*
X298003Y279678D01*
X297949Y279797D01*
X297943Y279804D01*
X297939Y279813D01*
X297851Y279912D01*
X297766Y280011D01*
X297758Y280017D01*
X297752Y280024D01*
X297686Y280064D01*
X297530Y280166D01*
X297507Y280173D01*
X297488Y280184D01*
X296156Y280736D01*
X293450Y283442D01*
X291985Y286978D01*
X291985Y300768D01*
X291972Y300863D01*
X291967Y300959D01*
X291952Y301002D01*
X291945Y301047D01*
X291906Y301135D01*
X291874Y301226D01*
X291849Y301260D01*
X291829Y301304D01*
X291746Y301402D01*
X291693Y301475D01*
X232961Y360207D01*
X232884Y360264D01*
X232812Y360329D01*
X232771Y360349D01*
X232735Y360376D01*
X232645Y360410D01*
X232559Y360452D01*
X232517Y360458D01*
X232471Y360475D01*
X232344Y360485D01*
X232254Y360499D01*
X208873Y360499D01*
X208778Y360486D01*
X208682Y360481D01*
X208639Y360466D01*
X208594Y360459D01*
X208507Y360420D01*
X208416Y360388D01*
X208381Y360363D01*
X208337Y360343D01*
X208240Y360260D01*
X208167Y360207D01*
X207058Y359098D01*
X204932Y358217D01*
X202632Y358217D01*
X201382Y358735D01*
X201268Y358764D01*
X201154Y358799D01*
X201131Y358799D01*
X201109Y358805D01*
X200991Y358801D01*
X200872Y358803D01*
X200850Y358797D01*
X200827Y358796D01*
X200715Y358759D01*
X200600Y358727D01*
X200581Y358715D01*
X200559Y358708D01*
X200461Y358642D01*
X200360Y358579D01*
X200345Y358562D01*
X200326Y358549D01*
X200251Y358458D01*
X200171Y358370D01*
X200161Y358349D01*
X200147Y358332D01*
X200100Y358223D01*
X200048Y358116D01*
X200045Y358095D01*
X200035Y358073D01*
X200013Y357888D01*
X200001Y357812D01*
X200001Y322991D01*
X200010Y322927D01*
X200009Y322863D01*
X200030Y322788D01*
X200041Y322712D01*
X200067Y322653D01*
X200084Y322591D01*
X200125Y322525D01*
X200157Y322455D01*
X200199Y322406D01*
X200232Y322351D01*
X200290Y322299D01*
X200340Y322241D01*
X200394Y322205D01*
X200442Y322162D01*
X200511Y322129D01*
X200576Y322086D01*
X200638Y322067D01*
X200695Y322039D01*
X200765Y322028D01*
X200846Y322004D01*
X200931Y322003D01*
X201000Y321992D01*
X201634Y321992D01*
X202806Y320820D01*
X202806Y311288D01*
X201634Y310116D01*
X191086Y310116D01*
X189914Y311288D01*
X189914Y320820D01*
X191086Y321992D01*
X192000Y321992D01*
X192064Y322001D01*
X192128Y322000D01*
X192203Y322021D01*
X192279Y322032D01*
X192338Y322058D01*
X192400Y322075D01*
X192466Y322116D01*
X192536Y322148D01*
X192585Y322190D01*
X192640Y322223D01*
X192692Y322281D01*
X192750Y322331D01*
X192786Y322385D01*
X192829Y322433D01*
X192862Y322502D01*
X192905Y322567D01*
X192924Y322629D01*
X192952Y322686D01*
X192963Y322756D01*
X192987Y322837D01*
X192988Y322922D01*
X192999Y322991D01*
X192999Y389950D01*
X269167Y466117D01*
X269224Y466194D01*
X269289Y466266D01*
X269309Y466307D01*
X269336Y466343D01*
X269370Y466433D01*
X269412Y466519D01*
X269418Y466561D01*
X269435Y466607D01*
X269445Y466734D01*
X269459Y466824D01*
X269459Y473538D01*
X274462Y478541D01*
X281538Y478541D01*
X286541Y473538D01*
X286541Y466462D01*
X281538Y461459D01*
X274824Y461459D01*
X274729Y461446D01*
X274633Y461441D01*
X274590Y461426D01*
X274545Y461419D01*
X274457Y461380D01*
X274366Y461348D01*
X274332Y461323D01*
X274288Y461303D01*
X274190Y461220D01*
X274117Y461167D01*
X200293Y387343D01*
X200236Y387266D01*
X200171Y387194D01*
X200151Y387153D01*
X200124Y387117D01*
X200090Y387027D01*
X200048Y386941D01*
X200042Y386899D01*
X200025Y386853D01*
X200015Y386726D01*
X200001Y386636D01*
X200001Y376000D01*
X200010Y375936D01*
X200009Y375872D01*
X200030Y375797D01*
X200041Y375721D01*
X200067Y375662D01*
X200084Y375600D01*
X200125Y375534D01*
X200157Y375464D01*
X200199Y375415D01*
X200232Y375360D01*
X200290Y375308D01*
X200340Y375250D01*
X200394Y375214D01*
X200442Y375171D01*
X200511Y375138D01*
X200576Y375095D01*
X200638Y375076D01*
X200695Y375048D01*
X200765Y375037D01*
X200846Y375013D01*
X200931Y375012D01*
X201000Y375001D01*
X412650Y375001D01*
X421513Y366138D01*
X421520Y366133D01*
X421526Y366125D01*
X421633Y366048D01*
X421738Y365969D01*
X421747Y365965D01*
X421755Y365960D01*
X421878Y365916D01*
X422002Y365869D01*
X422012Y365869D01*
X422020Y365865D01*
X422152Y365858D01*
X422283Y365848D01*
X422292Y365849D01*
X422302Y365849D01*
X422377Y365867D01*
X422559Y365905D01*
X422581Y365916D01*
X422602Y365922D01*
X425786Y367241D01*
X429614Y367241D01*
X433150Y365776D01*
X435856Y363070D01*
X437321Y359534D01*
X437321Y340466D01*
X435856Y336930D01*
X433150Y334224D01*
X429614Y332759D01*
X425786Y332759D01*
X422250Y334224D01*
X419544Y336930D01*
X418079Y340466D01*
X418079Y359256D01*
X418066Y359351D01*
X418061Y359447D01*
X418046Y359490D01*
X418039Y359535D01*
X418000Y359623D01*
X417968Y359714D01*
X417943Y359748D01*
X417923Y359792D01*
X417840Y359890D01*
X417787Y359963D01*
X410043Y367707D01*
X409966Y367764D01*
X409894Y367829D01*
X409853Y367849D01*
X409817Y367876D01*
X409727Y367910D01*
X409641Y367952D01*
X409599Y367958D01*
X409553Y367975D01*
X409426Y367985D01*
X409336Y367999D01*
X408376Y367999D01*
X408267Y367984D01*
X408157Y367975D01*
X408128Y367964D01*
X408097Y367959D01*
X407996Y367914D01*
X407893Y367875D01*
X407868Y367856D01*
X407840Y367843D01*
X407756Y367771D01*
X407668Y367705D01*
X407649Y367680D01*
X407626Y367660D01*
X407565Y367567D01*
X407499Y367479D01*
X407488Y367450D01*
X407471Y367424D01*
X407439Y367318D01*
X407400Y367215D01*
X407398Y367184D01*
X407389Y367154D01*
X407387Y367044D01*
X407379Y366934D01*
X407385Y366903D01*
X407385Y366872D01*
X407414Y366766D01*
X407437Y366658D01*
X407452Y366630D01*
X407460Y366600D01*
X407518Y366506D01*
X407570Y366409D01*
X407591Y366388D01*
X407608Y366360D01*
X407725Y366255D01*
X407789Y366192D01*
X408919Y365370D01*
X410050Y364239D01*
X410990Y362945D01*
X411716Y361520D01*
X412211Y359999D01*
X412461Y358420D01*
X412461Y351999D01*
X403300Y351999D01*
X403237Y351990D01*
X403172Y351991D01*
X403098Y351970D01*
X403021Y351959D01*
X402962Y351933D01*
X402900Y351916D01*
X402834Y351875D01*
X402764Y351843D01*
X402715Y351801D01*
X402660Y351768D01*
X402609Y351710D01*
X402550Y351660D01*
X402514Y351606D01*
X402471Y351558D01*
X402438Y351489D01*
X402395Y351424D01*
X402376Y351362D01*
X402348Y351305D01*
X402338Y351235D01*
X402313Y351154D01*
X402312Y351069D01*
X402301Y351000D01*
X402301Y349999D01*
X402299Y349999D01*
X402299Y351000D01*
X402290Y351064D01*
X402291Y351128D01*
X402270Y351203D01*
X402259Y351279D01*
X402233Y351338D01*
X402216Y351400D01*
X402175Y351466D01*
X402143Y351536D01*
X402101Y351585D01*
X402068Y351640D01*
X402010Y351692D01*
X401960Y351750D01*
X401906Y351786D01*
X401858Y351829D01*
X401789Y351862D01*
X401724Y351905D01*
X401662Y351924D01*
X401604Y351952D01*
X401535Y351962D01*
X401454Y351987D01*
X401369Y351988D01*
X401300Y351999D01*
X392139Y351999D01*
X392139Y358420D01*
X392265Y359215D01*
X392265Y359216D01*
X392389Y359999D01*
X392884Y361520D01*
X393610Y362945D01*
X394550Y364239D01*
X395681Y365370D01*
X396811Y366192D01*
X396891Y366268D01*
X396974Y366340D01*
X396992Y366366D01*
X397014Y366388D01*
X397068Y366484D01*
X397129Y366576D01*
X397138Y366606D01*
X397153Y366633D01*
X397179Y366740D01*
X397211Y366846D01*
X397212Y366877D01*
X397219Y366907D01*
X397214Y367018D01*
X397215Y367128D01*
X397207Y367158D01*
X397205Y367189D01*
X397169Y367293D01*
X397140Y367400D01*
X397123Y367426D01*
X397113Y367456D01*
X397050Y367546D01*
X396992Y367640D01*
X396969Y367660D01*
X396951Y367686D01*
X396864Y367755D01*
X396782Y367829D01*
X396754Y367842D01*
X396730Y367862D01*
X396628Y367904D01*
X396529Y367952D01*
X396500Y367956D01*
X396469Y367969D01*
X396313Y367985D01*
X396224Y367999D01*
X237482Y367999D01*
X237450Y367995D01*
X237418Y367997D01*
X237311Y367975D01*
X237203Y367959D01*
X237173Y367946D01*
X237142Y367940D01*
X237045Y367888D01*
X236946Y367843D01*
X236921Y367822D01*
X236893Y367807D01*
X236814Y367731D01*
X236731Y367660D01*
X236714Y367633D01*
X236691Y367610D01*
X236637Y367515D01*
X236577Y367424D01*
X236568Y367393D01*
X236552Y367365D01*
X236526Y367259D01*
X236495Y367154D01*
X236494Y367122D01*
X236487Y367091D01*
X236492Y366981D01*
X236491Y366872D01*
X236499Y366841D01*
X236501Y366809D01*
X236537Y366706D01*
X236566Y366600D01*
X236583Y366573D01*
X236594Y366542D01*
X236647Y366469D01*
X236714Y366360D01*
X236750Y366328D01*
X236775Y366293D01*
X237911Y365157D01*
X237912Y365157D01*
X292762Y310307D01*
X292813Y310268D01*
X292858Y310222D01*
X292926Y310184D01*
X292987Y310138D01*
X293048Y310115D01*
X293104Y310083D01*
X293179Y310065D01*
X293251Y310038D01*
X293315Y310033D01*
X293378Y310018D01*
X293455Y310022D01*
X293533Y310016D01*
X293595Y310029D01*
X293660Y310033D01*
X293733Y310058D01*
X293809Y310074D01*
X293865Y310104D01*
X293926Y310125D01*
X293983Y310166D01*
X294058Y310206D01*
X294118Y310266D01*
X294175Y310307D01*
X296156Y312288D01*
X299692Y313753D01*
X303520Y313753D01*
X307056Y312288D01*
X309762Y309582D01*
X311227Y306046D01*
X311227Y286978D01*
X309762Y283442D01*
X307056Y280736D01*
X305724Y280184D01*
X305715Y280179D01*
X305706Y280177D01*
X305594Y280107D01*
X305481Y280041D01*
X305474Y280034D01*
X305466Y280029D01*
X305378Y279931D01*
X305288Y279835D01*
X305284Y279826D01*
X305277Y279819D01*
X305220Y279701D01*
X305160Y279583D01*
X305158Y279574D01*
X305154Y279566D01*
X305142Y279490D01*
X305108Y279306D01*
X305110Y279282D01*
X305107Y279261D01*
X305107Y248739D01*
X305108Y248730D01*
X305107Y248720D01*
X305128Y248590D01*
X305147Y248460D01*
X305150Y248451D01*
X305152Y248442D01*
X305209Y248321D01*
X305263Y248203D01*
X305269Y248196D01*
X305273Y248187D01*
X305361Y248088D01*
X305446Y247989D01*
X305454Y247983D01*
X305460Y247976D01*
X305526Y247936D01*
X305682Y247834D01*
X305705Y247827D01*
X305724Y247816D01*
X307056Y247264D01*
X309762Y244558D01*
X311227Y241022D01*
X311227Y221954D01*
X309762Y218418D01*
X307056Y215712D01*
X303520Y214247D01*
X299692Y214247D01*
G37*
%LPD*%
%LPC*%
G36*
X521986Y97759D02*
X521986Y97759D01*
X518450Y99224D01*
X515744Y101930D01*
X514279Y105466D01*
X514279Y124534D01*
X515744Y128070D01*
X518450Y130776D01*
X519882Y131369D01*
X519891Y131374D01*
X519900Y131377D01*
X520012Y131446D01*
X520125Y131513D01*
X520132Y131520D01*
X520140Y131525D01*
X520228Y131623D01*
X520318Y131719D01*
X520322Y131727D01*
X520329Y131734D01*
X520386Y131852D01*
X520446Y131970D01*
X520448Y131979D01*
X520452Y131988D01*
X520464Y132064D01*
X520498Y132247D01*
X520496Y132271D01*
X520499Y132292D01*
X520499Y337450D01*
X522843Y339793D01*
X602207Y419157D01*
X604550Y421501D01*
X627136Y421501D01*
X627231Y421514D01*
X627327Y421519D01*
X627370Y421534D01*
X627415Y421541D01*
X627503Y421580D01*
X627594Y421612D01*
X627628Y421637D01*
X627672Y421657D01*
X627770Y421740D01*
X627843Y421793D01*
X654207Y448157D01*
X654264Y448234D01*
X654329Y448306D01*
X654349Y448347D01*
X654376Y448383D01*
X654410Y448473D01*
X654452Y448559D01*
X654458Y448601D01*
X654475Y448647D01*
X654485Y448774D01*
X654499Y448864D01*
X654499Y498136D01*
X654486Y498231D01*
X654481Y498327D01*
X654466Y498370D01*
X654459Y498415D01*
X654420Y498503D01*
X654388Y498594D01*
X654363Y498628D01*
X654343Y498672D01*
X654260Y498770D01*
X654207Y498843D01*
X632843Y520207D01*
X632766Y520264D01*
X632694Y520329D01*
X632653Y520349D01*
X632617Y520376D01*
X632527Y520410D01*
X632441Y520452D01*
X632399Y520458D01*
X632353Y520475D01*
X632226Y520485D01*
X632136Y520499D01*
X594864Y520499D01*
X594769Y520486D01*
X594673Y520481D01*
X594630Y520466D01*
X594585Y520459D01*
X594497Y520420D01*
X594406Y520388D01*
X594372Y520363D01*
X594328Y520343D01*
X594230Y520260D01*
X594157Y520207D01*
X576793Y502843D01*
X576736Y502766D01*
X576671Y502694D01*
X576651Y502653D01*
X576624Y502617D01*
X576590Y502527D01*
X576548Y502441D01*
X576542Y502399D01*
X576525Y502353D01*
X576515Y502226D01*
X576501Y502136D01*
X576501Y498992D01*
X576514Y498897D01*
X576519Y498800D01*
X576534Y498757D01*
X576541Y498712D01*
X576580Y498625D01*
X576612Y498534D01*
X576637Y498500D01*
X576657Y498455D01*
X576740Y498358D01*
X576793Y498285D01*
X581541Y493538D01*
X581541Y486462D01*
X576538Y481459D01*
X569462Y481459D01*
X564459Y486462D01*
X564459Y493538D01*
X569207Y498285D01*
X569264Y498362D01*
X569329Y498433D01*
X569349Y498474D01*
X569376Y498511D01*
X569410Y498601D01*
X569452Y498687D01*
X569458Y498729D01*
X569475Y498774D01*
X569485Y498902D01*
X569499Y498992D01*
X569499Y505450D01*
X571843Y507793D01*
X589207Y525157D01*
X591550Y527501D01*
X635450Y527501D01*
X661501Y501450D01*
X661501Y445550D01*
X630450Y414499D01*
X607864Y414499D01*
X607769Y414486D01*
X607673Y414481D01*
X607630Y414466D01*
X607585Y414459D01*
X607497Y414420D01*
X607406Y414388D01*
X607372Y414363D01*
X607328Y414343D01*
X607230Y414260D01*
X607157Y414207D01*
X527793Y334843D01*
X527736Y334766D01*
X527671Y334694D01*
X527651Y334653D01*
X527624Y334617D01*
X527590Y334527D01*
X527548Y334441D01*
X527542Y334399D01*
X527525Y334353D01*
X527515Y334226D01*
X527501Y334136D01*
X527501Y132210D01*
X527502Y132200D01*
X527501Y132191D01*
X527522Y132061D01*
X527541Y131930D01*
X527544Y131922D01*
X527546Y131912D01*
X527603Y131793D01*
X527657Y131673D01*
X527663Y131666D01*
X527667Y131658D01*
X527755Y131559D01*
X527840Y131459D01*
X527848Y131454D01*
X527854Y131447D01*
X527920Y131407D01*
X528076Y131305D01*
X528099Y131298D01*
X528118Y131286D01*
X529350Y130776D01*
X532056Y128070D01*
X533521Y124534D01*
X533521Y105466D01*
X532056Y101930D01*
X529350Y99224D01*
X525814Y97759D01*
X521986Y97759D01*
G37*
%LPD*%
%LPC*%
G36*
X408499Y82459D02*
X408499Y82459D01*
X408499Y89000D01*
X408490Y89064D01*
X408491Y89128D01*
X408470Y89202D01*
X408459Y89279D01*
X408433Y89338D01*
X408416Y89400D01*
X408375Y89466D01*
X408343Y89536D01*
X408301Y89585D01*
X408268Y89640D01*
X408210Y89691D01*
X408160Y89750D01*
X408106Y89786D01*
X408058Y89829D01*
X407989Y89862D01*
X407924Y89905D01*
X407862Y89924D01*
X407805Y89952D01*
X407735Y89962D01*
X407654Y89987D01*
X407569Y89988D01*
X407500Y89999D01*
X406499Y89999D01*
X406499Y90001D01*
X407500Y90001D01*
X407564Y90010D01*
X407628Y90009D01*
X407703Y90030D01*
X407779Y90041D01*
X407838Y90067D01*
X407900Y90084D01*
X407966Y90125D01*
X408036Y90157D01*
X408085Y90199D01*
X408140Y90232D01*
X408192Y90290D01*
X408250Y90340D01*
X408286Y90394D01*
X408329Y90442D01*
X408362Y90511D01*
X408405Y90576D01*
X408424Y90638D01*
X408452Y90696D01*
X408462Y90765D01*
X408487Y90846D01*
X408488Y90931D01*
X408499Y91000D01*
X408499Y97541D01*
X412335Y97541D01*
X412981Y97368D01*
X413560Y97033D01*
X414033Y96560D01*
X414369Y95978D01*
X414402Y95935D01*
X414428Y95888D01*
X414489Y95825D01*
X414543Y95756D01*
X414587Y95725D01*
X414624Y95686D01*
X414701Y95643D01*
X414773Y95591D01*
X414823Y95574D01*
X414870Y95547D01*
X414956Y95527D01*
X415038Y95498D01*
X415092Y95495D01*
X415144Y95482D01*
X415232Y95487D01*
X415320Y95482D01*
X415372Y95494D01*
X415426Y95497D01*
X415509Y95525D01*
X415595Y95545D01*
X415642Y95571D01*
X415692Y95589D01*
X415756Y95635D01*
X415841Y95683D01*
X415892Y95735D01*
X415941Y95771D01*
X417171Y97001D01*
X419250Y97001D01*
X419314Y97010D01*
X419378Y97009D01*
X419453Y97030D01*
X419529Y97041D01*
X419588Y97067D01*
X419650Y97084D01*
X419716Y97125D01*
X419786Y97157D01*
X419835Y97199D01*
X419890Y97232D01*
X419942Y97290D01*
X420000Y97340D01*
X420036Y97394D01*
X420079Y97442D01*
X420112Y97511D01*
X420155Y97576D01*
X420174Y97638D01*
X420202Y97695D01*
X420213Y97765D01*
X420237Y97846D01*
X420238Y97931D01*
X420249Y98000D01*
X420249Y113659D01*
X420236Y113754D01*
X420231Y113850D01*
X420216Y113893D01*
X420209Y113938D01*
X420170Y114025D01*
X420138Y114116D01*
X420113Y114151D01*
X420093Y114195D01*
X420010Y114292D01*
X419957Y114365D01*
X418848Y115474D01*
X417967Y117600D01*
X417967Y119900D01*
X418455Y121078D01*
X418487Y121203D01*
X418522Y121328D01*
X418522Y121340D01*
X418525Y121351D01*
X418521Y121480D01*
X418520Y121610D01*
X418517Y121621D01*
X418516Y121633D01*
X418476Y121756D01*
X418439Y121880D01*
X418433Y121890D01*
X418429Y121901D01*
X418356Y122009D01*
X418286Y122116D01*
X418277Y122124D01*
X418270Y122134D01*
X418170Y122217D01*
X418073Y122301D01*
X418062Y122306D01*
X418052Y122314D01*
X417793Y122425D01*
X417792Y122425D01*
X417791Y122426D01*
X417019Y122632D01*
X416440Y122967D01*
X415967Y123440D01*
X415631Y124022D01*
X415598Y124065D01*
X415572Y124112D01*
X415511Y124175D01*
X415457Y124244D01*
X415413Y124275D01*
X415376Y124314D01*
X415299Y124357D01*
X415227Y124409D01*
X415177Y124426D01*
X415130Y124453D01*
X415044Y124473D01*
X414962Y124502D01*
X414908Y124505D01*
X414856Y124518D01*
X414768Y124513D01*
X414680Y124518D01*
X414628Y124506D01*
X414574Y124503D01*
X414491Y124475D01*
X414405Y124455D01*
X414358Y124429D01*
X414308Y124411D01*
X414244Y124365D01*
X414159Y124317D01*
X414108Y124265D01*
X414059Y124229D01*
X412829Y122999D01*
X400171Y122999D01*
X398999Y124171D01*
X398999Y125500D01*
X398990Y125564D01*
X398991Y125628D01*
X398970Y125703D01*
X398959Y125779D01*
X398933Y125838D01*
X398916Y125900D01*
X398875Y125966D01*
X398843Y126036D01*
X398801Y126085D01*
X398768Y126140D01*
X398710Y126192D01*
X398660Y126250D01*
X398606Y126286D01*
X398558Y126329D01*
X398489Y126362D01*
X398424Y126405D01*
X398362Y126424D01*
X398305Y126452D01*
X398235Y126463D01*
X398154Y126487D01*
X398069Y126488D01*
X398000Y126499D01*
X392550Y126499D01*
X315499Y203550D01*
X315499Y332809D01*
X315486Y332904D01*
X315481Y333000D01*
X315466Y333043D01*
X315459Y333088D01*
X315420Y333175D01*
X315388Y333266D01*
X315363Y333301D01*
X315343Y333345D01*
X315260Y333442D01*
X315207Y333515D01*
X313748Y334974D01*
X312867Y337100D01*
X312867Y339400D01*
X313748Y341526D01*
X315374Y343152D01*
X317500Y344033D01*
X319800Y344033D01*
X321926Y343152D01*
X323552Y341526D01*
X324433Y339400D01*
X324433Y337100D01*
X323552Y334974D01*
X322793Y334215D01*
X322736Y334139D01*
X322671Y334067D01*
X322651Y334026D01*
X322624Y333990D01*
X322590Y333900D01*
X322548Y333813D01*
X322542Y333771D01*
X322525Y333726D01*
X322515Y333598D01*
X322501Y333509D01*
X322501Y206864D01*
X322514Y206769D01*
X322519Y206673D01*
X322534Y206630D01*
X322541Y206585D01*
X322580Y206497D01*
X322612Y206406D01*
X322637Y206372D01*
X322657Y206328D01*
X322740Y206230D01*
X322793Y206157D01*
X395157Y133793D01*
X395234Y133736D01*
X395306Y133671D01*
X395347Y133651D01*
X395383Y133624D01*
X395473Y133590D01*
X395559Y133548D01*
X395601Y133542D01*
X395647Y133525D01*
X395774Y133515D01*
X395864Y133501D01*
X398000Y133501D01*
X398064Y133510D01*
X398128Y133509D01*
X398203Y133530D01*
X398279Y133541D01*
X398338Y133567D01*
X398400Y133584D01*
X398466Y133625D01*
X398536Y133657D01*
X398585Y133699D01*
X398640Y133732D01*
X398692Y133790D01*
X398750Y133840D01*
X398786Y133894D01*
X398829Y133942D01*
X398862Y134011D01*
X398905Y134076D01*
X398924Y134138D01*
X398952Y134195D01*
X398963Y134265D01*
X398987Y134346D01*
X398988Y134431D01*
X398999Y134500D01*
X398999Y135829D01*
X400171Y137001D01*
X412829Y137001D01*
X414059Y135771D01*
X414102Y135739D01*
X414138Y135699D01*
X414214Y135654D01*
X414284Y135601D01*
X414334Y135583D01*
X414381Y135555D01*
X414466Y135533D01*
X414548Y135502D01*
X414602Y135498D01*
X414654Y135484D01*
X414742Y135487D01*
X414829Y135480D01*
X414882Y135491D01*
X414935Y135493D01*
X415019Y135520D01*
X415105Y135538D01*
X415153Y135563D01*
X415204Y135579D01*
X415277Y135629D01*
X415354Y135670D01*
X415393Y135708D01*
X415437Y135738D01*
X415486Y135799D01*
X415556Y135867D01*
X415592Y135930D01*
X415631Y135978D01*
X415967Y136560D01*
X416440Y137033D01*
X417019Y137368D01*
X417665Y137541D01*
X421501Y137541D01*
X421501Y131000D01*
X421510Y130936D01*
X421509Y130872D01*
X421530Y130798D01*
X421541Y130721D01*
X421567Y130662D01*
X421584Y130600D01*
X421625Y130534D01*
X421657Y130464D01*
X421699Y130415D01*
X421732Y130360D01*
X421790Y130309D01*
X421840Y130250D01*
X421894Y130214D01*
X421942Y130171D01*
X422011Y130138D01*
X422076Y130095D01*
X422138Y130076D01*
X422195Y130048D01*
X422265Y130038D01*
X422346Y130013D01*
X422431Y130012D01*
X422500Y130001D01*
X423501Y130001D01*
X423501Y129000D01*
X423510Y128936D01*
X423509Y128872D01*
X423530Y128797D01*
X423541Y128721D01*
X423567Y128662D01*
X423584Y128600D01*
X423625Y128534D01*
X423657Y128464D01*
X423699Y128415D01*
X423732Y128360D01*
X423790Y128308D01*
X423840Y128250D01*
X423894Y128214D01*
X423942Y128171D01*
X424011Y128138D01*
X424076Y128095D01*
X424138Y128076D01*
X424196Y128048D01*
X424265Y128038D01*
X424346Y128013D01*
X424431Y128012D01*
X424500Y128001D01*
X431541Y128001D01*
X431541Y124665D01*
X431368Y124019D01*
X431033Y123440D01*
X430560Y122967D01*
X429981Y122632D01*
X429659Y122546D01*
X429541Y122496D01*
X429421Y122448D01*
X429411Y122440D01*
X429400Y122436D01*
X429300Y122354D01*
X429198Y122274D01*
X429191Y122264D01*
X429182Y122257D01*
X429109Y122150D01*
X429033Y122046D01*
X429029Y122034D01*
X429022Y122024D01*
X428982Y121901D01*
X428939Y121780D01*
X428938Y121768D01*
X428934Y121756D01*
X428930Y121627D01*
X428922Y121498D01*
X428925Y121487D01*
X428925Y121475D01*
X428994Y121201D01*
X428995Y121200D01*
X428995Y121199D01*
X429533Y119900D01*
X429533Y117600D01*
X428652Y115474D01*
X427543Y114365D01*
X427486Y114289D01*
X427421Y114217D01*
X427401Y114176D01*
X427374Y114140D01*
X427340Y114050D01*
X427298Y113963D01*
X427292Y113921D01*
X427275Y113876D01*
X427265Y113748D01*
X427251Y113659D01*
X427251Y98000D01*
X427260Y97936D01*
X427259Y97872D01*
X427280Y97797D01*
X427291Y97721D01*
X427317Y97662D01*
X427334Y97600D01*
X427375Y97534D01*
X427407Y97464D01*
X427449Y97415D01*
X427482Y97360D01*
X427540Y97308D01*
X427590Y97250D01*
X427644Y97214D01*
X427692Y97171D01*
X427761Y97138D01*
X427826Y97095D01*
X427888Y97076D01*
X427945Y97048D01*
X428015Y97037D01*
X428096Y97013D01*
X428181Y97012D01*
X428250Y97001D01*
X429829Y97001D01*
X431001Y95829D01*
X431001Y84171D01*
X429829Y82999D01*
X417171Y82999D01*
X415941Y84229D01*
X415898Y84261D01*
X415862Y84301D01*
X415786Y84346D01*
X415716Y84399D01*
X415666Y84417D01*
X415619Y84445D01*
X415534Y84467D01*
X415452Y84498D01*
X415398Y84502D01*
X415346Y84516D01*
X415258Y84513D01*
X415171Y84520D01*
X415118Y84509D01*
X415065Y84507D01*
X414981Y84480D01*
X414895Y84462D01*
X414847Y84437D01*
X414796Y84421D01*
X414723Y84371D01*
X414646Y84330D01*
X414607Y84292D01*
X414563Y84262D01*
X414514Y84201D01*
X414444Y84133D01*
X414408Y84070D01*
X414369Y84022D01*
X414033Y83440D01*
X413560Y82967D01*
X412981Y82632D01*
X412335Y82459D01*
X408499Y82459D01*
G37*
%LPD*%
%LPC*%
G36*
X109692Y207247D02*
X109692Y207247D01*
X106156Y208712D01*
X103450Y211418D01*
X101985Y214954D01*
X101985Y234022D01*
X103450Y237558D01*
X106156Y240264D01*
X107382Y240772D01*
X107391Y240777D01*
X107400Y240779D01*
X107512Y240849D01*
X107625Y240916D01*
X107632Y240922D01*
X107640Y240927D01*
X107728Y241026D01*
X107818Y241121D01*
X107822Y241130D01*
X107829Y241137D01*
X107886Y241256D01*
X107946Y241373D01*
X107948Y241382D01*
X107952Y241391D01*
X107964Y241467D01*
X107998Y241650D01*
X107996Y241674D01*
X107999Y241695D01*
X107999Y272305D01*
X107998Y272314D01*
X107999Y272324D01*
X107978Y272454D01*
X107959Y272584D01*
X107956Y272593D01*
X107954Y272602D01*
X107897Y272722D01*
X107843Y272841D01*
X107837Y272848D01*
X107833Y272857D01*
X107745Y272955D01*
X107660Y273055D01*
X107652Y273061D01*
X107646Y273068D01*
X107580Y273108D01*
X107424Y273210D01*
X107401Y273217D01*
X107382Y273228D01*
X106156Y273736D01*
X103450Y276442D01*
X101985Y279978D01*
X101985Y294900D01*
X101972Y294995D01*
X101967Y295091D01*
X101952Y295134D01*
X101945Y295179D01*
X101906Y295267D01*
X101874Y295358D01*
X101849Y295392D01*
X101829Y295436D01*
X101746Y295533D01*
X101693Y295607D01*
X99249Y298050D01*
X99249Y329314D01*
X99248Y329323D01*
X99249Y329333D01*
X99228Y329463D01*
X99209Y329593D01*
X99206Y329602D01*
X99204Y329611D01*
X99147Y329731D01*
X99093Y329850D01*
X99087Y329857D01*
X99083Y329866D01*
X98995Y329965D01*
X98910Y330064D01*
X98902Y330070D01*
X98896Y330077D01*
X98830Y330117D01*
X98674Y330219D01*
X98651Y330226D01*
X98632Y330237D01*
X96250Y331224D01*
X93544Y333930D01*
X92079Y337466D01*
X92079Y356534D01*
X93544Y360070D01*
X96250Y362776D01*
X99786Y364241D01*
X103614Y364241D01*
X107150Y362776D01*
X109856Y360070D01*
X111321Y356534D01*
X111321Y337466D01*
X109856Y333930D01*
X107150Y331224D01*
X106868Y331107D01*
X106859Y331102D01*
X106850Y331100D01*
X106738Y331030D01*
X106625Y330963D01*
X106618Y330957D01*
X106610Y330952D01*
X106522Y330854D01*
X106432Y330758D01*
X106428Y330749D01*
X106421Y330742D01*
X106364Y330623D01*
X106304Y330506D01*
X106302Y330497D01*
X106298Y330488D01*
X106286Y330412D01*
X106252Y330229D01*
X106254Y330205D01*
X106251Y330184D01*
X106251Y306823D01*
X106267Y306705D01*
X106279Y306587D01*
X106287Y306566D01*
X106291Y306543D01*
X106339Y306435D01*
X106383Y306325D01*
X106397Y306307D01*
X106407Y306287D01*
X106484Y306196D01*
X106557Y306103D01*
X106575Y306090D01*
X106590Y306072D01*
X106689Y306007D01*
X106786Y305938D01*
X106807Y305930D01*
X106826Y305918D01*
X106940Y305883D01*
X107051Y305843D01*
X107074Y305842D01*
X107096Y305835D01*
X107214Y305834D01*
X107333Y305827D01*
X107354Y305832D01*
X107378Y305832D01*
X107557Y305881D01*
X107632Y305899D01*
X109692Y306753D01*
X113520Y306753D01*
X117056Y305288D01*
X119762Y302582D01*
X121227Y299046D01*
X121227Y279978D01*
X119762Y276442D01*
X117056Y273736D01*
X115618Y273140D01*
X115609Y273135D01*
X115600Y273133D01*
X115488Y273064D01*
X115375Y272997D01*
X115368Y272990D01*
X115360Y272985D01*
X115272Y272887D01*
X115182Y272791D01*
X115178Y272782D01*
X115171Y272775D01*
X115114Y272657D01*
X115054Y272539D01*
X115052Y272530D01*
X115048Y272522D01*
X115036Y272446D01*
X115002Y272262D01*
X115004Y272238D01*
X115001Y272217D01*
X115001Y241783D01*
X115002Y241774D01*
X115001Y241764D01*
X115022Y241634D01*
X115041Y241504D01*
X115044Y241495D01*
X115046Y241486D01*
X115103Y241366D01*
X115157Y241247D01*
X115163Y241240D01*
X115167Y241231D01*
X115255Y241132D01*
X115340Y241033D01*
X115348Y241027D01*
X115354Y241020D01*
X115420Y240980D01*
X115576Y240878D01*
X115599Y240871D01*
X115618Y240860D01*
X117056Y240264D01*
X119762Y237558D01*
X121227Y234022D01*
X121227Y214954D01*
X119762Y211418D01*
X117056Y208712D01*
X113520Y207247D01*
X109692Y207247D01*
G37*
%LPD*%
%LPC*%
G36*
X720466Y233079D02*
X720466Y233079D01*
X716930Y234544D01*
X714151Y237323D01*
X714150Y237325D01*
X714143Y237332D01*
X714138Y237340D01*
X714102Y237372D01*
X714083Y237391D01*
X714071Y237400D01*
X714040Y237428D01*
X713944Y237518D01*
X713936Y237523D01*
X713929Y237529D01*
X713810Y237586D01*
X713692Y237646D01*
X713683Y237648D01*
X713675Y237652D01*
X713599Y237663D01*
X713415Y237698D01*
X713391Y237696D01*
X713370Y237699D01*
X693443Y237699D01*
X693348Y237686D01*
X693251Y237681D01*
X693208Y237666D01*
X693163Y237659D01*
X693076Y237620D01*
X692985Y237588D01*
X692951Y237563D01*
X692906Y237543D01*
X692809Y237460D01*
X692736Y237407D01*
X692329Y236999D01*
X682671Y236999D01*
X681499Y238171D01*
X681499Y247829D01*
X682671Y249001D01*
X692329Y249001D01*
X693336Y247993D01*
X693413Y247936D01*
X693484Y247871D01*
X693525Y247851D01*
X693562Y247824D01*
X693652Y247790D01*
X693738Y247748D01*
X693780Y247742D01*
X693826Y247725D01*
X693953Y247715D01*
X694043Y247701D01*
X713370Y247701D01*
X713379Y247702D01*
X713389Y247701D01*
X713520Y247722D01*
X713649Y247741D01*
X713658Y247744D01*
X713667Y247746D01*
X713787Y247803D01*
X713906Y247857D01*
X713913Y247863D01*
X713922Y247867D01*
X714021Y247955D01*
X714121Y248040D01*
X714126Y248048D01*
X714133Y248054D01*
X714140Y248065D01*
X716930Y250856D01*
X720466Y252321D01*
X739534Y252321D01*
X743070Y250856D01*
X745849Y248077D01*
X745850Y248075D01*
X745857Y248068D01*
X745862Y248060D01*
X745898Y248028D01*
X745917Y248009D01*
X745929Y248000D01*
X745961Y247971D01*
X746056Y247882D01*
X746064Y247877D01*
X746071Y247871D01*
X746190Y247814D01*
X746308Y247754D01*
X746317Y247752D01*
X746325Y247748D01*
X746401Y247737D01*
X746585Y247702D01*
X746609Y247704D01*
X746630Y247701D01*
X763370Y247701D01*
X763380Y247702D01*
X763390Y247701D01*
X763521Y247722D01*
X763650Y247741D01*
X763659Y247745D01*
X763669Y247746D01*
X763788Y247803D01*
X763906Y247857D01*
X763914Y247863D01*
X763923Y247868D01*
X764021Y247955D01*
X764121Y248040D01*
X764126Y248049D01*
X764134Y248055D01*
X764140Y248066D01*
X766930Y250856D01*
X770466Y252321D01*
X789534Y252321D01*
X793070Y250856D01*
X795776Y248150D01*
X797241Y244614D01*
X797241Y240786D01*
X795776Y237250D01*
X793070Y234544D01*
X789534Y233079D01*
X770466Y233079D01*
X766930Y234544D01*
X764152Y237323D01*
X764151Y237324D01*
X764143Y237331D01*
X764138Y237340D01*
X764102Y237372D01*
X764083Y237391D01*
X764071Y237400D01*
X764041Y237428D01*
X763945Y237517D01*
X763936Y237522D01*
X763929Y237529D01*
X763811Y237586D01*
X763694Y237645D01*
X763684Y237647D01*
X763675Y237652D01*
X763597Y237664D01*
X763417Y237698D01*
X763392Y237696D01*
X763370Y237699D01*
X746630Y237699D01*
X746621Y237698D01*
X746611Y237699D01*
X746480Y237678D01*
X746351Y237659D01*
X746342Y237656D01*
X746333Y237654D01*
X746213Y237597D01*
X746094Y237543D01*
X746087Y237537D01*
X746078Y237533D01*
X745979Y237445D01*
X745879Y237360D01*
X745874Y237352D01*
X745867Y237346D01*
X745860Y237335D01*
X743070Y234544D01*
X739534Y233079D01*
X720466Y233079D01*
G37*
%LPD*%
%LPC*%
G36*
X720466Y313079D02*
X720466Y313079D01*
X716930Y314544D01*
X714151Y317323D01*
X714150Y317325D01*
X714143Y317332D01*
X714138Y317340D01*
X714102Y317372D01*
X714083Y317391D01*
X714071Y317400D01*
X714040Y317428D01*
X713944Y317518D01*
X713936Y317523D01*
X713929Y317529D01*
X713810Y317586D01*
X713692Y317646D01*
X713683Y317648D01*
X713675Y317652D01*
X713599Y317663D01*
X713415Y317698D01*
X713391Y317696D01*
X713370Y317699D01*
X693443Y317699D01*
X693348Y317686D01*
X693251Y317681D01*
X693208Y317666D01*
X693163Y317659D01*
X693076Y317620D01*
X692985Y317588D01*
X692951Y317563D01*
X692906Y317543D01*
X692809Y317460D01*
X692736Y317407D01*
X692329Y316999D01*
X682671Y316999D01*
X681499Y318171D01*
X681499Y327829D01*
X682671Y329001D01*
X692329Y329001D01*
X693336Y327993D01*
X693413Y327936D01*
X693484Y327871D01*
X693525Y327851D01*
X693562Y327824D01*
X693652Y327790D01*
X693738Y327748D01*
X693780Y327742D01*
X693826Y327725D01*
X693953Y327715D01*
X694043Y327701D01*
X713370Y327701D01*
X713379Y327702D01*
X713389Y327701D01*
X713520Y327722D01*
X713649Y327741D01*
X713658Y327744D01*
X713667Y327746D01*
X713787Y327803D01*
X713906Y327857D01*
X713913Y327863D01*
X713922Y327867D01*
X714021Y327955D01*
X714121Y328040D01*
X714126Y328048D01*
X714133Y328054D01*
X714140Y328065D01*
X716930Y330856D01*
X720466Y332321D01*
X739534Y332321D01*
X743070Y330856D01*
X745849Y328077D01*
X745850Y328075D01*
X745857Y328068D01*
X745862Y328060D01*
X745898Y328028D01*
X745917Y328009D01*
X745929Y328000D01*
X745960Y327972D01*
X746056Y327882D01*
X746064Y327877D01*
X746071Y327871D01*
X746190Y327814D01*
X746308Y327754D01*
X746317Y327752D01*
X746325Y327748D01*
X746401Y327737D01*
X746585Y327702D01*
X746609Y327704D01*
X746630Y327701D01*
X763370Y327701D01*
X763380Y327702D01*
X763390Y327701D01*
X763521Y327722D01*
X763650Y327741D01*
X763659Y327745D01*
X763669Y327746D01*
X763788Y327803D01*
X763906Y327857D01*
X763914Y327863D01*
X763923Y327868D01*
X764021Y327955D01*
X764121Y328040D01*
X764126Y328049D01*
X764134Y328055D01*
X764140Y328066D01*
X766930Y330856D01*
X770466Y332321D01*
X789534Y332321D01*
X793070Y330856D01*
X795776Y328150D01*
X797241Y324614D01*
X797241Y320786D01*
X795776Y317250D01*
X793070Y314544D01*
X789534Y313079D01*
X770466Y313079D01*
X766930Y314544D01*
X764152Y317323D01*
X764151Y317324D01*
X764143Y317331D01*
X764138Y317340D01*
X764102Y317372D01*
X764083Y317391D01*
X764071Y317400D01*
X764041Y317428D01*
X763945Y317517D01*
X763936Y317522D01*
X763929Y317529D01*
X763811Y317586D01*
X763694Y317645D01*
X763684Y317647D01*
X763675Y317652D01*
X763597Y317664D01*
X763417Y317698D01*
X763392Y317696D01*
X763370Y317699D01*
X746630Y317699D01*
X746621Y317698D01*
X746611Y317699D01*
X746480Y317678D01*
X746351Y317659D01*
X746342Y317656D01*
X746333Y317654D01*
X746213Y317597D01*
X746094Y317543D01*
X746087Y317537D01*
X746078Y317533D01*
X745979Y317445D01*
X745879Y317360D01*
X745874Y317352D01*
X745867Y317346D01*
X745860Y317335D01*
X743070Y314544D01*
X739534Y313079D01*
X720466Y313079D01*
G37*
%LPD*%
%LPC*%
G36*
X447850Y441073D02*
X447850Y441073D01*
X445724Y441954D01*
X444098Y443580D01*
X443217Y445706D01*
X443217Y448006D01*
X444098Y450132D01*
X445207Y451241D01*
X445264Y451318D01*
X445329Y451389D01*
X445349Y451430D01*
X445376Y451466D01*
X445410Y451556D01*
X445452Y451643D01*
X445458Y451685D01*
X445475Y451730D01*
X445485Y451858D01*
X445499Y451947D01*
X445499Y496450D01*
X475550Y526501D01*
X532450Y526501D01*
X556501Y502450D01*
X556501Y498992D01*
X556514Y498897D01*
X556519Y498800D01*
X556534Y498757D01*
X556541Y498712D01*
X556580Y498625D01*
X556612Y498534D01*
X556637Y498500D01*
X556657Y498455D01*
X556740Y498358D01*
X556793Y498285D01*
X561541Y493538D01*
X561541Y486462D01*
X556538Y481459D01*
X549462Y481459D01*
X544459Y486462D01*
X544459Y493538D01*
X549207Y498285D01*
X549264Y498362D01*
X549329Y498433D01*
X549349Y498474D01*
X549376Y498511D01*
X549410Y498601D01*
X549452Y498687D01*
X549458Y498729D01*
X549475Y498774D01*
X549485Y498902D01*
X549499Y498992D01*
X549499Y499136D01*
X549486Y499231D01*
X549481Y499327D01*
X549466Y499370D01*
X549459Y499415D01*
X549420Y499503D01*
X549388Y499594D01*
X549363Y499628D01*
X549343Y499672D01*
X549260Y499770D01*
X549207Y499843D01*
X529843Y519207D01*
X529766Y519264D01*
X529694Y519329D01*
X529653Y519349D01*
X529617Y519376D01*
X529527Y519410D01*
X529441Y519452D01*
X529399Y519458D01*
X529353Y519475D01*
X529226Y519485D01*
X529136Y519499D01*
X478864Y519499D01*
X478769Y519486D01*
X478673Y519481D01*
X478630Y519466D01*
X478585Y519459D01*
X478497Y519420D01*
X478406Y519388D01*
X478372Y519363D01*
X478328Y519343D01*
X478230Y519260D01*
X478157Y519207D01*
X452793Y493843D01*
X452736Y493766D01*
X452671Y493694D01*
X452652Y493654D01*
X452624Y493617D01*
X452590Y493527D01*
X452548Y493441D01*
X452542Y493399D01*
X452525Y493353D01*
X452515Y493226D01*
X452501Y493136D01*
X452501Y451947D01*
X452514Y451852D01*
X452519Y451756D01*
X452534Y451713D01*
X452541Y451668D01*
X452580Y451581D01*
X452612Y451490D01*
X452637Y451455D01*
X452657Y451411D01*
X452740Y451314D01*
X452793Y451241D01*
X453902Y450132D01*
X454783Y448006D01*
X454783Y445706D01*
X453902Y443580D01*
X452276Y441954D01*
X450150Y441073D01*
X447850Y441073D01*
G37*
%LPD*%
%LPC*%
G36*
X421650Y448848D02*
X421650Y448848D01*
X419157Y449881D01*
X418700Y450337D01*
X418624Y450395D01*
X418552Y450459D01*
X418511Y450479D01*
X418475Y450507D01*
X418385Y450540D01*
X418298Y450582D01*
X418256Y450589D01*
X418211Y450606D01*
X418083Y450616D01*
X417994Y450630D01*
X370298Y450630D01*
X359761Y461167D01*
X359685Y461224D01*
X359613Y461289D01*
X359572Y461309D01*
X359536Y461336D01*
X359446Y461370D01*
X359359Y461412D01*
X359317Y461418D01*
X359272Y461435D01*
X359144Y461445D01*
X359055Y461459D01*
X354462Y461459D01*
X349459Y466462D01*
X349459Y471055D01*
X349446Y471150D01*
X349441Y471246D01*
X349426Y471289D01*
X349419Y471334D01*
X349380Y471421D01*
X349348Y471512D01*
X349323Y471547D01*
X349303Y471591D01*
X349220Y471688D01*
X349167Y471761D01*
X348247Y472681D01*
X348221Y472701D01*
X348200Y472725D01*
X348108Y472785D01*
X348021Y472851D01*
X347991Y472862D01*
X347964Y472880D01*
X347859Y472912D01*
X347757Y472950D01*
X347725Y472953D01*
X347694Y472962D01*
X347585Y472963D01*
X347476Y472972D01*
X347444Y472965D01*
X347412Y472966D01*
X347307Y472937D01*
X347200Y472914D01*
X347171Y472899D01*
X347140Y472891D01*
X347047Y472833D01*
X346951Y472782D01*
X346928Y472759D01*
X346900Y472742D01*
X346827Y472661D01*
X346749Y472585D01*
X346733Y472557D01*
X346711Y472533D01*
X346664Y472435D01*
X346610Y472340D01*
X346602Y472308D01*
X346588Y472279D01*
X346574Y472190D01*
X346545Y472065D01*
X346547Y472017D01*
X346541Y471975D01*
X346541Y466462D01*
X341538Y461459D01*
X334462Y461459D01*
X329459Y466462D01*
X329459Y473538D01*
X334462Y478541D01*
X341718Y478541D01*
X341783Y478516D01*
X341815Y478514D01*
X341846Y478504D01*
X341955Y478503D01*
X342064Y478494D01*
X342096Y478501D01*
X342128Y478500D01*
X342233Y478530D01*
X342340Y478552D01*
X342368Y478567D01*
X342400Y478576D01*
X342493Y478633D01*
X342589Y478684D01*
X342612Y478707D01*
X342640Y478724D01*
X342713Y478805D01*
X342791Y478881D01*
X342807Y478909D01*
X342829Y478933D01*
X342876Y479031D01*
X342930Y479126D01*
X342938Y479158D01*
X342952Y479187D01*
X342966Y479276D01*
X342995Y479401D01*
X342993Y479449D01*
X342999Y479492D01*
X342999Y482508D01*
X342986Y482603D01*
X342981Y482700D01*
X342966Y482743D01*
X342959Y482788D01*
X342920Y482875D01*
X342888Y482966D01*
X342863Y483000D01*
X342843Y483045D01*
X342760Y483142D01*
X342707Y483215D01*
X339459Y486462D01*
X339459Y493538D01*
X344462Y498541D01*
X351538Y498541D01*
X356541Y493538D01*
X356541Y486462D01*
X353293Y483215D01*
X353236Y483138D01*
X353171Y483067D01*
X353151Y483026D01*
X353124Y482989D01*
X353090Y482899D01*
X353048Y482813D01*
X353042Y482771D01*
X353025Y482726D01*
X353017Y482627D01*
X353005Y482576D01*
X353006Y482545D01*
X353001Y482508D01*
X353001Y482485D01*
X353004Y482462D01*
X353003Y482444D01*
X353014Y482389D01*
X353019Y482294D01*
X353034Y482251D01*
X353041Y482206D01*
X353080Y482119D01*
X353112Y482028D01*
X353137Y481993D01*
X353157Y481949D01*
X353240Y481852D01*
X353293Y481779D01*
X356239Y478833D01*
X356316Y478776D01*
X356387Y478711D01*
X356428Y478691D01*
X356464Y478664D01*
X356554Y478630D01*
X356641Y478588D01*
X356683Y478582D01*
X356728Y478565D01*
X356856Y478555D01*
X356945Y478541D01*
X361538Y478541D01*
X366541Y473538D01*
X366541Y468945D01*
X366554Y468850D01*
X366559Y468754D01*
X366574Y468711D01*
X366581Y468666D01*
X366620Y468579D01*
X366652Y468488D01*
X366677Y468453D01*
X366697Y468409D01*
X366780Y468312D01*
X366833Y468239D01*
X374148Y460924D01*
X374225Y460866D01*
X374296Y460802D01*
X374337Y460782D01*
X374374Y460755D01*
X374464Y460721D01*
X374550Y460679D01*
X374592Y460672D01*
X374638Y460655D01*
X374765Y460645D01*
X374855Y460631D01*
X417994Y460631D01*
X418089Y460645D01*
X418185Y460650D01*
X418228Y460665D01*
X418273Y460671D01*
X418360Y460711D01*
X418451Y460742D01*
X418486Y460767D01*
X418530Y460787D01*
X418627Y460871D01*
X418700Y460924D01*
X419157Y461381D01*
X421650Y462413D01*
X424348Y462413D01*
X426841Y461381D01*
X428749Y459473D01*
X429782Y456980D01*
X429782Y454281D01*
X428749Y451788D01*
X426841Y449881D01*
X424348Y448848D01*
X421650Y448848D01*
G37*
%LPD*%
%LPC*%
G36*
X435692Y210247D02*
X435692Y210247D01*
X432156Y211712D01*
X429450Y214418D01*
X427985Y217954D01*
X427985Y237022D01*
X429450Y240558D01*
X432156Y243264D01*
X433382Y243772D01*
X433391Y243777D01*
X433400Y243779D01*
X433512Y243849D01*
X433625Y243916D01*
X433632Y243922D01*
X433640Y243927D01*
X433728Y244026D01*
X433818Y244121D01*
X433822Y244130D01*
X433829Y244137D01*
X433886Y244256D01*
X433946Y244373D01*
X433948Y244382D01*
X433952Y244391D01*
X433964Y244467D01*
X433998Y244650D01*
X433996Y244674D01*
X433999Y244695D01*
X433999Y275305D01*
X433998Y275314D01*
X433999Y275324D01*
X433978Y275454D01*
X433959Y275584D01*
X433956Y275593D01*
X433954Y275602D01*
X433898Y275720D01*
X433843Y275841D01*
X433837Y275848D01*
X433833Y275857D01*
X433745Y275955D01*
X433660Y276055D01*
X433652Y276061D01*
X433646Y276068D01*
X433580Y276108D01*
X433424Y276210D01*
X433401Y276217D01*
X433382Y276228D01*
X432156Y276736D01*
X429450Y279442D01*
X427985Y282978D01*
X427985Y302046D01*
X429450Y305582D01*
X432156Y308288D01*
X435692Y309753D01*
X439520Y309753D01*
X443056Y308288D01*
X445762Y305582D01*
X447227Y302046D01*
X447227Y282978D01*
X445762Y279442D01*
X443056Y276736D01*
X441618Y276140D01*
X441609Y276135D01*
X441600Y276133D01*
X441488Y276064D01*
X441375Y275997D01*
X441368Y275990D01*
X441360Y275985D01*
X441272Y275887D01*
X441182Y275791D01*
X441178Y275782D01*
X441171Y275775D01*
X441114Y275657D01*
X441054Y275539D01*
X441052Y275530D01*
X441048Y275522D01*
X441036Y275446D01*
X441002Y275262D01*
X441004Y275238D01*
X441001Y275217D01*
X441001Y244783D01*
X441002Y244774D01*
X441001Y244764D01*
X441022Y244634D01*
X441041Y244504D01*
X441044Y244495D01*
X441046Y244486D01*
X441103Y244366D01*
X441157Y244247D01*
X441163Y244240D01*
X441167Y244231D01*
X441255Y244132D01*
X441340Y244033D01*
X441348Y244027D01*
X441354Y244020D01*
X441420Y243980D01*
X441576Y243878D01*
X441599Y243871D01*
X441618Y243860D01*
X443056Y243264D01*
X445762Y240558D01*
X447227Y237022D01*
X447227Y217954D01*
X445762Y214418D01*
X443056Y211712D01*
X439520Y210247D01*
X435692Y210247D01*
G37*
%LPD*%
%LPC*%
G36*
X470850Y441082D02*
X470850Y441082D01*
X468724Y441963D01*
X467098Y443589D01*
X466217Y445715D01*
X466217Y447283D01*
X466204Y447378D01*
X466199Y447474D01*
X466184Y447517D01*
X466178Y447562D01*
X466138Y447650D01*
X466106Y447741D01*
X466081Y447775D01*
X466061Y447819D01*
X465992Y447901D01*
X465966Y447943D01*
X465946Y447961D01*
X465925Y447990D01*
X463499Y450415D01*
X463499Y491450D01*
X481550Y509501D01*
X523450Y509501D01*
X534117Y498833D01*
X534194Y498776D01*
X534266Y498711D01*
X534307Y498691D01*
X534343Y498664D01*
X534433Y498630D01*
X534519Y498588D01*
X534561Y498582D01*
X534607Y498565D01*
X534734Y498555D01*
X534824Y498541D01*
X536538Y498541D01*
X541541Y493538D01*
X541541Y486462D01*
X536538Y481459D01*
X529462Y481459D01*
X524459Y486462D01*
X524459Y493538D01*
X526279Y495357D01*
X526317Y495409D01*
X526363Y495453D01*
X526402Y495521D01*
X526448Y495583D01*
X526471Y495643D01*
X526502Y495699D01*
X526520Y495774D01*
X526548Y495847D01*
X526553Y495911D01*
X526567Y495973D01*
X526563Y496051D01*
X526569Y496128D01*
X526556Y496191D01*
X526553Y496255D01*
X526528Y496328D01*
X526512Y496404D01*
X526482Y496461D01*
X526461Y496521D01*
X526419Y496578D01*
X526379Y496653D01*
X526320Y496714D01*
X526279Y496770D01*
X520843Y502207D01*
X520766Y502264D01*
X520694Y502329D01*
X520653Y502349D01*
X520617Y502376D01*
X520527Y502410D01*
X520441Y502452D01*
X520399Y502458D01*
X520353Y502475D01*
X520226Y502485D01*
X520136Y502499D01*
X484864Y502499D01*
X484769Y502486D01*
X484673Y502481D01*
X484630Y502466D01*
X484585Y502459D01*
X484497Y502420D01*
X484406Y502388D01*
X484372Y502363D01*
X484328Y502343D01*
X484230Y502260D01*
X484157Y502207D01*
X470793Y488843D01*
X470736Y488766D01*
X470671Y488694D01*
X470651Y488653D01*
X470624Y488617D01*
X470590Y488527D01*
X470548Y488441D01*
X470542Y488399D01*
X470525Y488353D01*
X470515Y488226D01*
X470501Y488136D01*
X470501Y453729D01*
X470514Y453634D01*
X470519Y453538D01*
X470534Y453495D01*
X470541Y453450D01*
X470580Y453363D01*
X470612Y453272D01*
X470637Y453237D01*
X470657Y453193D01*
X470740Y453096D01*
X470793Y453023D01*
X470875Y452941D01*
X470952Y452883D01*
X471024Y452818D01*
X471065Y452799D01*
X471101Y452771D01*
X471191Y452737D01*
X471277Y452695D01*
X471319Y452689D01*
X471365Y452672D01*
X471493Y452662D01*
X471582Y452648D01*
X473150Y452648D01*
X475276Y451768D01*
X476902Y450141D01*
X477783Y448015D01*
X477783Y445715D01*
X476902Y443589D01*
X475276Y441963D01*
X473150Y441082D01*
X470850Y441082D01*
G37*
%LPD*%
%LPC*%
G36*
X165671Y248099D02*
X165671Y248099D01*
X164499Y249271D01*
X164499Y261929D01*
X165671Y263101D01*
X167000Y263101D01*
X167064Y263110D01*
X167128Y263109D01*
X167203Y263130D01*
X167279Y263141D01*
X167338Y263167D01*
X167400Y263184D01*
X167466Y263225D01*
X167536Y263257D01*
X167585Y263299D01*
X167640Y263332D01*
X167692Y263390D01*
X167750Y263440D01*
X167786Y263494D01*
X167829Y263542D01*
X167862Y263611D01*
X167905Y263676D01*
X167924Y263738D01*
X167952Y263795D01*
X167963Y263865D01*
X167987Y263946D01*
X167988Y264031D01*
X167999Y264100D01*
X167999Y266536D01*
X167986Y266631D01*
X167981Y266727D01*
X167966Y266770D01*
X167959Y266815D01*
X167920Y266903D01*
X167888Y266994D01*
X167863Y267028D01*
X167843Y267072D01*
X167760Y267170D01*
X167707Y267243D01*
X163975Y270975D01*
X163898Y271032D01*
X163826Y271097D01*
X163785Y271117D01*
X163749Y271144D01*
X163659Y271178D01*
X163573Y271220D01*
X163531Y271226D01*
X163485Y271243D01*
X163358Y271253D01*
X163268Y271267D01*
X161700Y271267D01*
X159574Y272148D01*
X157948Y273774D01*
X157067Y275900D01*
X157067Y278200D01*
X157948Y280326D01*
X159574Y281952D01*
X161700Y282833D01*
X164000Y282833D01*
X166126Y281952D01*
X167752Y280326D01*
X168633Y278200D01*
X168633Y276632D01*
X168646Y276537D01*
X168651Y276441D01*
X168666Y276398D01*
X168673Y276353D01*
X168712Y276265D01*
X168744Y276174D01*
X168769Y276140D01*
X168789Y276096D01*
X168872Y275999D01*
X168925Y275925D01*
X170833Y274017D01*
X170859Y273998D01*
X170880Y273973D01*
X170972Y273913D01*
X171059Y273848D01*
X171089Y273837D01*
X171116Y273819D01*
X171221Y273787D01*
X171323Y273749D01*
X171355Y273746D01*
X171386Y273737D01*
X171495Y273735D01*
X171604Y273727D01*
X171636Y273733D01*
X171668Y273733D01*
X171773Y273762D01*
X171880Y273784D01*
X171909Y273799D01*
X171940Y273808D01*
X172033Y273866D01*
X172129Y273917D01*
X172152Y273939D01*
X172180Y273956D01*
X172253Y274037D01*
X172331Y274114D01*
X172347Y274142D01*
X172369Y274166D01*
X172416Y274264D01*
X172470Y274359D01*
X172478Y274390D01*
X172492Y274419D01*
X172506Y274509D01*
X172535Y274633D01*
X172533Y274682D01*
X172539Y274724D01*
X172539Y299465D01*
X172531Y299524D01*
X172531Y299542D01*
X172530Y299545D01*
X172531Y299593D01*
X172510Y299668D01*
X172499Y299744D01*
X172473Y299803D01*
X172456Y299865D01*
X172415Y299931D01*
X172383Y300001D01*
X172341Y300050D01*
X172308Y300105D01*
X172250Y300157D01*
X172200Y300215D01*
X172146Y300251D01*
X172098Y300294D01*
X172029Y300327D01*
X171964Y300370D01*
X171902Y300389D01*
X171845Y300417D01*
X171775Y300428D01*
X171694Y300452D01*
X171609Y300453D01*
X171540Y300464D01*
X170766Y300464D01*
X169594Y301636D01*
X169594Y311168D01*
X170766Y312340D01*
X181314Y312340D01*
X182486Y311168D01*
X182486Y301636D01*
X181314Y300464D01*
X180540Y300464D01*
X180476Y300455D01*
X180412Y300456D01*
X180337Y300435D01*
X180261Y300424D01*
X180202Y300398D01*
X180140Y300381D01*
X180074Y300340D01*
X180004Y300308D01*
X179955Y300266D01*
X179900Y300233D01*
X179848Y300175D01*
X179790Y300125D01*
X179754Y300071D01*
X179711Y300023D01*
X179678Y299954D01*
X179635Y299889D01*
X179616Y299827D01*
X179588Y299770D01*
X179577Y299700D01*
X179553Y299619D01*
X179552Y299534D01*
X179541Y299465D01*
X179541Y258690D01*
X178793Y257943D01*
X178736Y257866D01*
X178671Y257794D01*
X178651Y257753D01*
X178624Y257717D01*
X178590Y257627D01*
X178548Y257541D01*
X178542Y257499D01*
X178525Y257453D01*
X178515Y257326D01*
X178501Y257236D01*
X178501Y249271D01*
X177329Y248099D01*
X165671Y248099D01*
G37*
%LPD*%
%LPC*%
G36*
X144786Y319760D02*
X144786Y319760D01*
X143614Y320932D01*
X143614Y330464D01*
X144786Y331636D01*
X145560Y331636D01*
X145624Y331645D01*
X145688Y331644D01*
X145763Y331665D01*
X145839Y331676D01*
X145898Y331702D01*
X145960Y331719D01*
X146026Y331760D01*
X146096Y331792D01*
X146145Y331834D01*
X146200Y331867D01*
X146252Y331925D01*
X146310Y331975D01*
X146346Y332029D01*
X146389Y332077D01*
X146422Y332146D01*
X146465Y332211D01*
X146484Y332273D01*
X146512Y332330D01*
X146523Y332400D01*
X146547Y332481D01*
X146548Y332566D01*
X146559Y332635D01*
X146559Y350949D01*
X146546Y351044D01*
X146541Y351140D01*
X146526Y351183D01*
X146519Y351228D01*
X146480Y351315D01*
X146448Y351406D01*
X146423Y351441D01*
X146403Y351485D01*
X146320Y351582D01*
X146267Y351655D01*
X145398Y352524D01*
X144517Y354650D01*
X144517Y356950D01*
X145398Y359076D01*
X146267Y359945D01*
X146324Y360021D01*
X146389Y360093D01*
X146409Y360134D01*
X146436Y360170D01*
X146470Y360260D01*
X146512Y360347D01*
X146518Y360389D01*
X146535Y360434D01*
X146545Y360562D01*
X146559Y360651D01*
X146559Y374110D01*
X147707Y375257D01*
X147764Y375334D01*
X147829Y375406D01*
X147849Y375447D01*
X147876Y375483D01*
X147910Y375573D01*
X147952Y375659D01*
X147958Y375701D01*
X147975Y375747D01*
X147985Y375874D01*
X147999Y375964D01*
X147999Y383929D01*
X149171Y385101D01*
X160829Y385101D01*
X162001Y383929D01*
X162001Y371271D01*
X160829Y370099D01*
X154560Y370099D01*
X154496Y370090D01*
X154432Y370091D01*
X154357Y370070D01*
X154281Y370059D01*
X154222Y370033D01*
X154160Y370016D01*
X154094Y369975D01*
X154024Y369943D01*
X153975Y369901D01*
X153920Y369868D01*
X153868Y369810D01*
X153810Y369760D01*
X153774Y369706D01*
X153731Y369658D01*
X153698Y369589D01*
X153655Y369524D01*
X153636Y369462D01*
X153608Y369405D01*
X153597Y369335D01*
X153573Y369254D01*
X153572Y369169D01*
X153561Y369100D01*
X153561Y361131D01*
X153574Y361036D01*
X153579Y360940D01*
X153594Y360897D01*
X153601Y360852D01*
X153640Y360765D01*
X153672Y360674D01*
X153697Y360639D01*
X153717Y360595D01*
X153800Y360498D01*
X153853Y360425D01*
X155202Y359076D01*
X156083Y356950D01*
X156083Y354650D01*
X155202Y352524D01*
X153853Y351175D01*
X153796Y351099D01*
X153731Y351027D01*
X153711Y350986D01*
X153684Y350950D01*
X153650Y350860D01*
X153608Y350773D01*
X153602Y350731D01*
X153585Y350686D01*
X153575Y350558D01*
X153561Y350469D01*
X153561Y332635D01*
X153570Y332571D01*
X153569Y332507D01*
X153590Y332432D01*
X153601Y332356D01*
X153627Y332297D01*
X153644Y332235D01*
X153685Y332169D01*
X153717Y332099D01*
X153759Y332050D01*
X153792Y331995D01*
X153850Y331943D01*
X153900Y331885D01*
X153954Y331849D01*
X154002Y331806D01*
X154071Y331773D01*
X154136Y331730D01*
X154198Y331711D01*
X154255Y331683D01*
X154325Y331672D01*
X154406Y331648D01*
X154491Y331647D01*
X154560Y331636D01*
X155334Y331636D01*
X156506Y330464D01*
X156506Y320932D01*
X155334Y319760D01*
X144786Y319760D01*
G37*
%LPD*%
%LPC*%
G36*
X524850Y417217D02*
X524850Y417217D01*
X522724Y418098D01*
X521098Y419724D01*
X520217Y421850D01*
X520217Y424150D01*
X521098Y426276D01*
X522724Y427902D01*
X524850Y428783D01*
X525000Y428783D01*
X525064Y428792D01*
X525128Y428791D01*
X525203Y428812D01*
X525279Y428823D01*
X525338Y428849D01*
X525400Y428866D01*
X525466Y428907D01*
X525536Y428939D01*
X525585Y428981D01*
X525640Y429014D01*
X525692Y429072D01*
X525750Y429122D01*
X525786Y429176D01*
X525829Y429224D01*
X525862Y429293D01*
X525905Y429358D01*
X525924Y429420D01*
X525952Y429477D01*
X525963Y429547D01*
X525987Y429628D01*
X525988Y429713D01*
X525999Y429782D01*
X525999Y460460D01*
X525990Y460524D01*
X525991Y460588D01*
X525970Y460663D01*
X525959Y460739D01*
X525933Y460798D01*
X525916Y460860D01*
X525875Y460926D01*
X525843Y460996D01*
X525801Y461045D01*
X525768Y461100D01*
X525710Y461152D01*
X525660Y461210D01*
X525606Y461246D01*
X525558Y461289D01*
X525489Y461322D01*
X525424Y461365D01*
X525362Y461384D01*
X525305Y461412D01*
X525235Y461423D01*
X525154Y461447D01*
X525069Y461448D01*
X525000Y461459D01*
X519462Y461459D01*
X514459Y466462D01*
X514459Y473538D01*
X519462Y478541D01*
X526538Y478541D01*
X531541Y473538D01*
X531541Y466824D01*
X531554Y466729D01*
X531559Y466633D01*
X531574Y466590D01*
X531581Y466545D01*
X531620Y466457D01*
X531652Y466366D01*
X531677Y466332D01*
X531697Y466288D01*
X531780Y466190D01*
X531833Y466117D01*
X532213Y465737D01*
X532239Y465718D01*
X532260Y465693D01*
X532352Y465634D01*
X532439Y465568D01*
X532469Y465557D01*
X532496Y465539D01*
X532601Y465507D01*
X532703Y465469D01*
X532735Y465466D01*
X532766Y465457D01*
X532875Y465455D01*
X532984Y465447D01*
X533016Y465453D01*
X533048Y465453D01*
X533153Y465482D01*
X533260Y465504D01*
X533289Y465519D01*
X533320Y465528D01*
X533413Y465585D01*
X533509Y465637D01*
X533532Y465659D01*
X533560Y465676D01*
X533633Y465757D01*
X533711Y465834D01*
X533727Y465862D01*
X533749Y465886D01*
X533796Y465984D01*
X533850Y466079D01*
X533858Y466110D01*
X533872Y466139D01*
X533886Y466229D01*
X533915Y466353D01*
X533913Y466402D01*
X533919Y466444D01*
X533919Y468001D01*
X541001Y468001D01*
X541001Y460919D01*
X539239Y460919D01*
X534707Y465451D01*
X534681Y465471D01*
X534660Y465495D01*
X534568Y465555D01*
X534481Y465621D01*
X534451Y465632D01*
X534424Y465650D01*
X534319Y465682D01*
X534217Y465720D01*
X534185Y465723D01*
X534154Y465732D01*
X534045Y465734D01*
X533936Y465742D01*
X533904Y465735D01*
X533872Y465736D01*
X533767Y465707D01*
X533660Y465684D01*
X533631Y465669D01*
X533600Y465661D01*
X533507Y465603D01*
X533411Y465552D01*
X533388Y465529D01*
X533360Y465512D01*
X533287Y465431D01*
X533209Y465355D01*
X533193Y465327D01*
X533171Y465303D01*
X533124Y465205D01*
X533070Y465110D01*
X533062Y465078D01*
X533048Y465049D01*
X533034Y464960D01*
X533005Y464835D01*
X533007Y464787D01*
X533001Y464745D01*
X533001Y425050D01*
X532075Y424125D01*
X532018Y424048D01*
X531953Y423976D01*
X531933Y423935D01*
X531906Y423899D01*
X531872Y423809D01*
X531830Y423723D01*
X531824Y423681D01*
X531807Y423635D01*
X531797Y423508D01*
X531783Y423418D01*
X531783Y421850D01*
X530902Y419724D01*
X529276Y418098D01*
X527150Y417217D01*
X524850Y417217D01*
G37*
%LPD*%
%LPC*%
G36*
X170766Y319768D02*
X170766Y319768D01*
X169594Y320940D01*
X169594Y330472D01*
X170766Y331644D01*
X171540Y331644D01*
X171604Y331653D01*
X171668Y331652D01*
X171743Y331673D01*
X171819Y331684D01*
X171878Y331710D01*
X171940Y331727D01*
X172006Y331768D01*
X172076Y331800D01*
X172125Y331842D01*
X172180Y331875D01*
X172232Y331933D01*
X172290Y331983D01*
X172326Y332037D01*
X172369Y332085D01*
X172402Y332154D01*
X172445Y332219D01*
X172464Y332281D01*
X172492Y332338D01*
X172503Y332408D01*
X172527Y332489D01*
X172528Y332574D01*
X172539Y332643D01*
X172539Y369100D01*
X172530Y369164D01*
X172531Y369228D01*
X172510Y369303D01*
X172499Y369379D01*
X172473Y369438D01*
X172456Y369500D01*
X172415Y369566D01*
X172383Y369636D01*
X172341Y369685D01*
X172308Y369740D01*
X172250Y369792D01*
X172200Y369850D01*
X172146Y369886D01*
X172098Y369929D01*
X172029Y369962D01*
X171964Y370005D01*
X171902Y370024D01*
X171845Y370052D01*
X171775Y370063D01*
X171694Y370087D01*
X171609Y370088D01*
X171540Y370099D01*
X166171Y370099D01*
X164999Y371271D01*
X164999Y383929D01*
X166171Y385101D01*
X177829Y385101D01*
X179001Y383929D01*
X179001Y375964D01*
X179014Y375869D01*
X179019Y375773D01*
X179034Y375730D01*
X179041Y375685D01*
X179080Y375597D01*
X179112Y375506D01*
X179137Y375472D01*
X179157Y375428D01*
X179240Y375331D01*
X179293Y375257D01*
X179541Y375010D01*
X179541Y332643D01*
X179550Y332579D01*
X179549Y332515D01*
X179570Y332440D01*
X179581Y332364D01*
X179607Y332305D01*
X179624Y332243D01*
X179665Y332177D01*
X179697Y332107D01*
X179739Y332058D01*
X179772Y332003D01*
X179830Y331951D01*
X179880Y331893D01*
X179934Y331857D01*
X179982Y331814D01*
X180051Y331781D01*
X180116Y331738D01*
X180178Y331719D01*
X180235Y331691D01*
X180305Y331680D01*
X180386Y331656D01*
X180471Y331655D01*
X180540Y331644D01*
X181314Y331644D01*
X182486Y330472D01*
X182486Y320940D01*
X181314Y319768D01*
X170766Y319768D01*
G37*
%LPD*%
%LPC*%
G36*
X148671Y248099D02*
X148671Y248099D01*
X147499Y249271D01*
X147499Y257236D01*
X147486Y257331D01*
X147481Y257427D01*
X147466Y257470D01*
X147459Y257515D01*
X147420Y257603D01*
X147388Y257694D01*
X147363Y257728D01*
X147343Y257772D01*
X147260Y257869D01*
X147207Y257943D01*
X146559Y258590D01*
X146559Y299457D01*
X146551Y299517D01*
X146551Y299542D01*
X146551Y299544D01*
X146551Y299585D01*
X146530Y299660D01*
X146519Y299736D01*
X146493Y299795D01*
X146476Y299857D01*
X146435Y299923D01*
X146403Y299993D01*
X146361Y300042D01*
X146328Y300097D01*
X146270Y300149D01*
X146220Y300207D01*
X146166Y300243D01*
X146118Y300286D01*
X146049Y300319D01*
X145984Y300362D01*
X145922Y300381D01*
X145865Y300409D01*
X145795Y300420D01*
X145714Y300444D01*
X145629Y300445D01*
X145560Y300456D01*
X144786Y300456D01*
X143614Y301628D01*
X143614Y311160D01*
X144786Y312332D01*
X155334Y312332D01*
X156506Y311160D01*
X156506Y301628D01*
X155334Y300456D01*
X154560Y300456D01*
X154496Y300447D01*
X154432Y300448D01*
X154357Y300427D01*
X154281Y300416D01*
X154222Y300390D01*
X154160Y300373D01*
X154094Y300332D01*
X154024Y300300D01*
X153975Y300258D01*
X153920Y300225D01*
X153868Y300167D01*
X153810Y300117D01*
X153774Y300063D01*
X153731Y300015D01*
X153698Y299946D01*
X153655Y299881D01*
X153636Y299819D01*
X153608Y299762D01*
X153597Y299692D01*
X153573Y299611D01*
X153572Y299526D01*
X153561Y299457D01*
X153561Y264100D01*
X153570Y264036D01*
X153569Y263972D01*
X153590Y263897D01*
X153601Y263821D01*
X153627Y263762D01*
X153644Y263700D01*
X153685Y263634D01*
X153717Y263564D01*
X153759Y263515D01*
X153792Y263460D01*
X153850Y263408D01*
X153900Y263350D01*
X153954Y263314D01*
X154002Y263271D01*
X154071Y263238D01*
X154136Y263195D01*
X154198Y263176D01*
X154255Y263148D01*
X154325Y263137D01*
X154406Y263113D01*
X154491Y263112D01*
X154560Y263101D01*
X160329Y263101D01*
X161501Y261929D01*
X161501Y249271D01*
X160329Y248099D01*
X148671Y248099D01*
G37*
%LPD*%
%LPC*%
G36*
X308886Y97759D02*
X308886Y97759D01*
X305350Y99224D01*
X302644Y101930D01*
X301179Y105466D01*
X301179Y124534D01*
X302644Y128070D01*
X305350Y130776D01*
X308886Y132241D01*
X312714Y132241D01*
X316250Y130776D01*
X318956Y128070D01*
X320421Y124534D01*
X320421Y105466D01*
X318956Y101930D01*
X316250Y99224D01*
X312714Y97759D01*
X308886Y97759D01*
G37*
%LPD*%
%LPC*%
G36*
X631986Y97759D02*
X631986Y97759D01*
X628450Y99224D01*
X625744Y101930D01*
X624279Y105466D01*
X624279Y124534D01*
X625744Y128070D01*
X628450Y130776D01*
X631986Y132241D01*
X635814Y132241D01*
X639350Y130776D01*
X642056Y128070D01*
X643521Y124534D01*
X643521Y105466D01*
X642056Y101930D01*
X639350Y99224D01*
X635814Y97759D01*
X631986Y97759D01*
G37*
%LPD*%
%LPC*%
G36*
X657386Y97759D02*
X657386Y97759D01*
X653850Y99224D01*
X651144Y101930D01*
X649679Y105466D01*
X649679Y124534D01*
X651144Y128070D01*
X653850Y130776D01*
X657386Y132241D01*
X661214Y132241D01*
X664750Y130776D01*
X667456Y128070D01*
X668921Y124534D01*
X668921Y105466D01*
X667456Y101930D01*
X664750Y99224D01*
X661214Y97759D01*
X657386Y97759D01*
G37*
%LPD*%
%LPC*%
G36*
X601986Y332759D02*
X601986Y332759D01*
X598450Y334224D01*
X595744Y336930D01*
X594279Y340466D01*
X594279Y359534D01*
X595744Y363070D01*
X598450Y365776D01*
X601986Y367241D01*
X605814Y367241D01*
X609350Y365776D01*
X612056Y363070D01*
X613521Y359534D01*
X613521Y340466D01*
X612056Y336930D01*
X609350Y334224D01*
X605814Y332759D01*
X601986Y332759D01*
G37*
%LPD*%
%LPC*%
G36*
X232686Y97759D02*
X232686Y97759D01*
X229150Y99224D01*
X226444Y101930D01*
X224979Y105466D01*
X224979Y124534D01*
X226444Y128070D01*
X229150Y130776D01*
X232686Y132241D01*
X236514Y132241D01*
X240050Y130776D01*
X242756Y128070D01*
X244221Y124534D01*
X244221Y105466D01*
X242756Y101930D01*
X240050Y99224D01*
X236514Y97759D01*
X232686Y97759D01*
G37*
%LPD*%
%LPC*%
G36*
X258086Y97759D02*
X258086Y97759D01*
X254550Y99224D01*
X251844Y101930D01*
X250379Y105466D01*
X250379Y124534D01*
X251844Y128070D01*
X254550Y130776D01*
X258086Y132241D01*
X261914Y132241D01*
X265450Y130776D01*
X268156Y128070D01*
X269621Y124534D01*
X269621Y105466D01*
X268156Y101930D01*
X265450Y99224D01*
X261914Y97759D01*
X258086Y97759D01*
G37*
%LPD*%
%LPC*%
G36*
X283486Y97759D02*
X283486Y97759D01*
X279950Y99224D01*
X277244Y101930D01*
X275779Y105466D01*
X275779Y124534D01*
X277244Y128070D01*
X279950Y130776D01*
X283486Y132241D01*
X287314Y132241D01*
X290850Y130776D01*
X293556Y128070D01*
X295021Y124534D01*
X295021Y105466D01*
X293556Y101930D01*
X290850Y99224D01*
X287314Y97759D01*
X283486Y97759D01*
G37*
%LPD*%
%LPC*%
G36*
X665671Y289499D02*
X665671Y289499D01*
X664499Y290671D01*
X664499Y303329D01*
X665699Y304529D01*
X665703Y304530D01*
X665779Y304541D01*
X665838Y304567D01*
X665900Y304584D01*
X665966Y304625D01*
X666036Y304657D01*
X666085Y304699D01*
X666140Y304732D01*
X666192Y304790D01*
X666250Y304840D01*
X666286Y304894D01*
X666329Y304942D01*
X666362Y305011D01*
X666405Y305076D01*
X666424Y305138D01*
X666452Y305195D01*
X666463Y305265D01*
X666487Y305346D01*
X666488Y305431D01*
X666499Y305500D01*
X666499Y327829D01*
X667671Y329001D01*
X677329Y329001D01*
X678501Y327829D01*
X678501Y318171D01*
X677301Y316971D01*
X677297Y316970D01*
X677221Y316959D01*
X677162Y316933D01*
X677100Y316916D01*
X677034Y316875D01*
X676964Y316843D01*
X676915Y316801D01*
X676860Y316768D01*
X676808Y316710D01*
X676750Y316660D01*
X676714Y316606D01*
X676671Y316558D01*
X676638Y316489D01*
X676595Y316424D01*
X676576Y316362D01*
X676548Y316305D01*
X676537Y316235D01*
X676513Y316154D01*
X676512Y316069D01*
X676501Y316000D01*
X676501Y305500D01*
X676510Y305436D01*
X676509Y305372D01*
X676530Y305297D01*
X676541Y305221D01*
X676567Y305162D01*
X676584Y305100D01*
X676625Y305034D01*
X676657Y304964D01*
X676699Y304915D01*
X676732Y304860D01*
X676790Y304808D01*
X676840Y304750D01*
X676894Y304714D01*
X676942Y304671D01*
X677011Y304638D01*
X677076Y304595D01*
X677138Y304576D01*
X677195Y304548D01*
X677265Y304537D01*
X677304Y304525D01*
X678501Y303329D01*
X678501Y290671D01*
X677329Y289499D01*
X665671Y289499D01*
G37*
%LPD*%
%LPC*%
G36*
X665671Y209499D02*
X665671Y209499D01*
X664499Y210671D01*
X664499Y223329D01*
X665671Y224501D01*
X666500Y224501D01*
X666564Y224510D01*
X666628Y224509D01*
X666703Y224530D01*
X666779Y224541D01*
X666838Y224567D01*
X666900Y224584D01*
X666966Y224625D01*
X667036Y224657D01*
X667085Y224699D01*
X667140Y224732D01*
X667192Y224790D01*
X667250Y224840D01*
X667286Y224894D01*
X667329Y224942D01*
X667362Y225011D01*
X667405Y225076D01*
X667424Y225138D01*
X667452Y225195D01*
X667463Y225265D01*
X667487Y225346D01*
X667488Y225431D01*
X667499Y225500D01*
X667499Y236757D01*
X667486Y236852D01*
X667481Y236949D01*
X667466Y236992D01*
X667459Y237037D01*
X667420Y237124D01*
X667388Y237215D01*
X667363Y237249D01*
X667343Y237294D01*
X667260Y237391D01*
X667207Y237464D01*
X666499Y238171D01*
X666499Y247829D01*
X667671Y249001D01*
X677329Y249001D01*
X678501Y247829D01*
X678501Y238171D01*
X677793Y237464D01*
X677736Y237387D01*
X677671Y237316D01*
X677651Y237275D01*
X677624Y237238D01*
X677590Y237148D01*
X677548Y237062D01*
X677542Y237020D01*
X677525Y236974D01*
X677515Y236847D01*
X677501Y236757D01*
X677501Y224743D01*
X677514Y224648D01*
X677519Y224551D01*
X677534Y224508D01*
X677541Y224463D01*
X677580Y224376D01*
X677612Y224285D01*
X677637Y224251D01*
X677657Y224206D01*
X677740Y224109D01*
X677793Y224036D01*
X678501Y223329D01*
X678501Y210671D01*
X677329Y209499D01*
X665671Y209499D01*
G37*
%LPD*%
%LPC*%
G36*
X124466Y310108D02*
X124466Y310108D01*
X123294Y311280D01*
X123294Y320812D01*
X124466Y321984D01*
X125240Y321984D01*
X125304Y321993D01*
X125368Y321992D01*
X125443Y322013D01*
X125519Y322024D01*
X125578Y322050D01*
X125640Y322067D01*
X125706Y322108D01*
X125776Y322140D01*
X125825Y322182D01*
X125880Y322215D01*
X125932Y322273D01*
X125990Y322323D01*
X126026Y322377D01*
X126069Y322425D01*
X126102Y322494D01*
X126145Y322559D01*
X126164Y322621D01*
X126192Y322678D01*
X126203Y322748D01*
X126227Y322829D01*
X126228Y322914D01*
X126239Y322983D01*
X126239Y337769D01*
X126226Y337864D01*
X126221Y337960D01*
X126206Y338003D01*
X126199Y338048D01*
X126160Y338135D01*
X126128Y338226D01*
X126103Y338261D01*
X126083Y338305D01*
X126000Y338402D01*
X125947Y338475D01*
X125898Y338524D01*
X125017Y340650D01*
X125017Y342950D01*
X125898Y345076D01*
X127524Y346702D01*
X129650Y347583D01*
X131950Y347583D01*
X134076Y346702D01*
X135702Y345076D01*
X136583Y342950D01*
X136583Y340650D01*
X135702Y338524D01*
X134076Y336898D01*
X133858Y336807D01*
X133849Y336803D01*
X133840Y336800D01*
X133728Y336731D01*
X133615Y336664D01*
X133608Y336657D01*
X133600Y336652D01*
X133512Y336554D01*
X133422Y336458D01*
X133418Y336450D01*
X133411Y336443D01*
X133354Y336324D01*
X133294Y336207D01*
X133292Y336197D01*
X133288Y336189D01*
X133276Y336112D01*
X133242Y335929D01*
X133244Y335906D01*
X133241Y335884D01*
X133241Y322983D01*
X133250Y322919D01*
X133249Y322855D01*
X133270Y322780D01*
X133281Y322704D01*
X133307Y322645D01*
X133324Y322583D01*
X133365Y322517D01*
X133397Y322447D01*
X133439Y322398D01*
X133472Y322343D01*
X133530Y322291D01*
X133580Y322233D01*
X133634Y322197D01*
X133682Y322154D01*
X133751Y322121D01*
X133816Y322078D01*
X133878Y322059D01*
X133935Y322031D01*
X134005Y322020D01*
X134086Y321996D01*
X134171Y321995D01*
X134240Y321984D01*
X135014Y321984D01*
X136186Y320812D01*
X136186Y311280D01*
X135014Y310108D01*
X124466Y310108D01*
G37*
%LPD*%
%LPC*%
G36*
X224462Y481459D02*
X224462Y481459D01*
X219459Y486462D01*
X219459Y493538D01*
X224462Y498541D01*
X231538Y498541D01*
X236541Y493538D01*
X236541Y486462D01*
X231538Y481459D01*
X224462Y481459D01*
G37*
%LPD*%
%LPC*%
G36*
X489462Y481459D02*
X489462Y481459D01*
X484459Y486462D01*
X484459Y493538D01*
X489462Y498541D01*
X496538Y498541D01*
X501541Y493538D01*
X501541Y486462D01*
X496538Y481459D01*
X489462Y481459D01*
G37*
%LPD*%
%LPC*%
G36*
X509462Y481459D02*
X509462Y481459D01*
X504459Y486462D01*
X504459Y493538D01*
X509462Y498541D01*
X516538Y498541D01*
X521541Y493538D01*
X521541Y486462D01*
X516538Y481459D01*
X509462Y481459D01*
G37*
%LPD*%
%LPC*%
G36*
X284462Y481459D02*
X284462Y481459D01*
X279459Y486462D01*
X279459Y493538D01*
X284462Y498541D01*
X291538Y498541D01*
X296541Y493538D01*
X296541Y486462D01*
X291538Y481459D01*
X284462Y481459D01*
G37*
%LPD*%
%LPC*%
G36*
X264462Y481459D02*
X264462Y481459D01*
X259459Y486462D01*
X259459Y493538D01*
X264462Y498541D01*
X271538Y498541D01*
X276541Y493538D01*
X276541Y486462D01*
X271538Y481459D01*
X264462Y481459D01*
G37*
%LPD*%
%LPC*%
G36*
X214462Y461459D02*
X214462Y461459D01*
X209459Y466462D01*
X209459Y473538D01*
X214462Y478541D01*
X221538Y478541D01*
X226541Y473538D01*
X226541Y466462D01*
X221538Y461459D01*
X214462Y461459D01*
G37*
%LPD*%
%LPC*%
G36*
X479462Y461459D02*
X479462Y461459D01*
X474459Y466462D01*
X474459Y473538D01*
X479462Y478541D01*
X486538Y478541D01*
X491541Y473538D01*
X491541Y466462D01*
X486538Y461459D01*
X479462Y461459D01*
G37*
%LPD*%
%LPC*%
G36*
X324462Y481459D02*
X324462Y481459D01*
X319459Y486462D01*
X319459Y493538D01*
X324462Y498541D01*
X331538Y498541D01*
X336541Y493538D01*
X336541Y486462D01*
X331538Y481459D01*
X324462Y481459D01*
G37*
%LPD*%
%LPC*%
G36*
X244462Y481459D02*
X244462Y481459D01*
X239459Y486462D01*
X239459Y493538D01*
X244462Y498541D01*
X251538Y498541D01*
X256541Y493538D01*
X256541Y486462D01*
X251538Y481459D01*
X244462Y481459D01*
G37*
%LPD*%
%LPC*%
G36*
X304462Y481459D02*
X304462Y481459D01*
X299459Y486462D01*
X299459Y493538D01*
X304462Y498541D01*
X311538Y498541D01*
X316541Y493538D01*
X316541Y486462D01*
X311538Y481459D01*
X304462Y481459D01*
G37*
%LPD*%
%LPC*%
G36*
X499462Y461459D02*
X499462Y461459D01*
X494459Y466462D01*
X494459Y473538D01*
X499462Y478541D01*
X506538Y478541D01*
X511541Y473538D01*
X511541Y466462D01*
X506538Y461459D01*
X499462Y461459D01*
G37*
%LPD*%
%LPC*%
G36*
X328499Y52899D02*
X328499Y52899D01*
X328499Y68491D01*
X328879Y68431D01*
X330400Y67936D01*
X331825Y67210D01*
X333119Y66270D01*
X334250Y65139D01*
X335190Y63845D01*
X335916Y62420D01*
X336411Y60899D01*
X336661Y59320D01*
X336661Y52899D01*
X328499Y52899D01*
G37*
%LPD*%
%LPC*%
G36*
X404699Y52899D02*
X404699Y52899D01*
X404699Y68491D01*
X405079Y68431D01*
X406600Y67936D01*
X408025Y67210D01*
X409319Y66270D01*
X410450Y65139D01*
X411390Y63845D01*
X412116Y62420D01*
X412611Y60899D01*
X412861Y59320D01*
X412861Y52899D01*
X404699Y52899D01*
G37*
%LPD*%
%LPC*%
G36*
X580499Y351999D02*
X580499Y351999D01*
X580499Y367591D01*
X580879Y367531D01*
X582400Y367036D01*
X583825Y366310D01*
X585119Y365370D01*
X586250Y364239D01*
X587190Y362945D01*
X587916Y361520D01*
X588411Y359999D01*
X588661Y358420D01*
X588661Y351999D01*
X580499Y351999D01*
G37*
%LPD*%
%LPC*%
G36*
X379299Y52899D02*
X379299Y52899D01*
X379299Y68491D01*
X379679Y68431D01*
X381200Y67936D01*
X382625Y67210D01*
X383919Y66270D01*
X385050Y65139D01*
X385990Y63845D01*
X386716Y62420D01*
X387211Y60899D01*
X387461Y59320D01*
X387461Y52899D01*
X379299Y52899D01*
G37*
%LPD*%
%LPC*%
G36*
X78299Y348999D02*
X78299Y348999D01*
X78299Y364591D01*
X78679Y364531D01*
X80200Y364036D01*
X81625Y363310D01*
X82919Y362370D01*
X84050Y361239D01*
X84990Y359945D01*
X85716Y358520D01*
X86211Y356999D01*
X86461Y355420D01*
X86461Y348999D01*
X78299Y348999D01*
G37*
%LPD*%
%LPC*%
G36*
X430099Y52899D02*
X430099Y52899D01*
X430099Y68491D01*
X430479Y68431D01*
X432000Y67936D01*
X433425Y67210D01*
X434719Y66270D01*
X435850Y65139D01*
X436790Y63845D01*
X437516Y62420D01*
X438011Y60899D01*
X438261Y59320D01*
X438261Y52899D01*
X430099Y52899D01*
G37*
%LPD*%
%LPC*%
G36*
X455499Y52899D02*
X455499Y52899D01*
X455499Y68491D01*
X455879Y68431D01*
X457400Y67936D01*
X458825Y67210D01*
X460119Y66270D01*
X461250Y65139D01*
X462190Y63845D01*
X462916Y62420D01*
X463411Y60899D01*
X463661Y59320D01*
X463661Y52899D01*
X455499Y52899D01*
G37*
%LPD*%
%LPC*%
G36*
X68393Y291511D02*
X68393Y291511D01*
X68393Y307103D01*
X68773Y307043D01*
X70294Y306548D01*
X71719Y305822D01*
X73013Y304882D01*
X74144Y303751D01*
X75084Y302457D01*
X75810Y301032D01*
X76305Y299511D01*
X76555Y297932D01*
X76555Y291511D01*
X68393Y291511D01*
G37*
%LPD*%
%LPC*%
G36*
X353899Y52899D02*
X353899Y52899D01*
X353899Y68491D01*
X354279Y68431D01*
X355800Y67936D01*
X357225Y67210D01*
X358519Y66270D01*
X359650Y65139D01*
X360590Y63845D01*
X361316Y62420D01*
X361811Y60899D01*
X362061Y59320D01*
X362061Y52899D01*
X353899Y52899D01*
G37*
%LPD*%
%LPC*%
G36*
X258393Y233487D02*
X258393Y233487D01*
X258393Y249079D01*
X258773Y249019D01*
X260294Y248524D01*
X261719Y247798D01*
X263013Y246858D01*
X264144Y245727D01*
X265084Y244433D01*
X265810Y243008D01*
X266305Y241487D01*
X266555Y239908D01*
X266555Y233487D01*
X258393Y233487D01*
G37*
%LPD*%
%LPC*%
G36*
X394393Y229487D02*
X394393Y229487D01*
X394393Y245079D01*
X394773Y245019D01*
X396294Y244524D01*
X397719Y243798D01*
X399013Y242858D01*
X400144Y241727D01*
X401084Y240433D01*
X401810Y239008D01*
X402305Y237487D01*
X402555Y235908D01*
X402555Y229487D01*
X394393Y229487D01*
G37*
%LPD*%
%LPC*%
G36*
X569793Y229487D02*
X569793Y229487D01*
X569793Y245079D01*
X570173Y245019D01*
X571694Y244524D01*
X573119Y243798D01*
X574413Y242858D01*
X575544Y241727D01*
X576484Y240433D01*
X577210Y239008D01*
X577705Y237487D01*
X577955Y235908D01*
X577955Y229487D01*
X569793Y229487D01*
G37*
%LPD*%
%LPC*%
G36*
X68393Y226487D02*
X68393Y226487D01*
X68393Y242079D01*
X68773Y242019D01*
X70294Y241524D01*
X71719Y240798D01*
X73013Y239858D01*
X74144Y238727D01*
X75084Y237433D01*
X75810Y236008D01*
X76305Y234487D01*
X76555Y232908D01*
X76555Y226487D01*
X68393Y226487D01*
G37*
%LPD*%
%LPC*%
G36*
X258393Y298511D02*
X258393Y298511D01*
X258393Y314103D01*
X258773Y314043D01*
X260294Y313548D01*
X261719Y312822D01*
X263013Y311882D01*
X264144Y310751D01*
X265084Y309457D01*
X265810Y308032D01*
X266305Y306511D01*
X266555Y304932D01*
X266555Y298511D01*
X258393Y298511D01*
G37*
%LPD*%
%LPC*%
G36*
X211199Y116999D02*
X211199Y116999D01*
X211199Y132591D01*
X211579Y132531D01*
X213100Y132036D01*
X214525Y131310D01*
X215819Y130370D01*
X216950Y129239D01*
X217890Y127945D01*
X218616Y126520D01*
X219111Y124999D01*
X219361Y123420D01*
X219361Y116999D01*
X211199Y116999D01*
G37*
%LPD*%
%LPC*%
G36*
X610499Y116999D02*
X610499Y116999D01*
X610499Y132591D01*
X610879Y132531D01*
X612400Y132036D01*
X613825Y131310D01*
X615119Y130370D01*
X616250Y129239D01*
X617190Y127945D01*
X617916Y126520D01*
X618411Y124999D01*
X618661Y123420D01*
X618661Y116999D01*
X610499Y116999D01*
G37*
%LPD*%
%LPC*%
G36*
X80599Y114999D02*
X80599Y114999D01*
X80599Y130591D01*
X80979Y130531D01*
X82500Y130036D01*
X83925Y129310D01*
X85219Y128370D01*
X86350Y127239D01*
X87290Y125945D01*
X88016Y124520D01*
X88511Y122999D01*
X88761Y121420D01*
X88761Y114999D01*
X80599Y114999D01*
G37*
%LPD*%
%LPC*%
G36*
X394393Y294511D02*
X394393Y294511D01*
X394393Y310103D01*
X394773Y310043D01*
X396294Y309548D01*
X397719Y308822D01*
X399013Y307882D01*
X400144Y306751D01*
X401084Y305457D01*
X401810Y304032D01*
X402305Y302511D01*
X402555Y300932D01*
X402555Y294511D01*
X394393Y294511D01*
G37*
%LPD*%
%LPC*%
G36*
X569793Y294511D02*
X569793Y294511D01*
X569793Y310103D01*
X570173Y310043D01*
X571694Y309548D01*
X573119Y308822D01*
X574413Y307882D01*
X575544Y306751D01*
X576484Y305457D01*
X577210Y304032D01*
X577705Y302511D01*
X577955Y300932D01*
X577955Y294511D01*
X569793Y294511D01*
G37*
%LPD*%
%LPC*%
G36*
X731999Y219299D02*
X731999Y219299D01*
X731999Y227461D01*
X738420Y227461D01*
X739999Y227211D01*
X741520Y226716D01*
X742945Y225990D01*
X744239Y225050D01*
X745370Y223919D01*
X746310Y222625D01*
X747036Y221200D01*
X747531Y219679D01*
X747591Y219299D01*
X731999Y219299D01*
G37*
%LPD*%
%LPC*%
G36*
X781999Y219299D02*
X781999Y219299D01*
X781999Y227461D01*
X788420Y227461D01*
X789999Y227211D01*
X791520Y226716D01*
X792945Y225990D01*
X794239Y225050D01*
X795370Y223919D01*
X796310Y222625D01*
X797036Y221200D01*
X797531Y219679D01*
X797591Y219299D01*
X781999Y219299D01*
G37*
%LPD*%
%LPC*%
G36*
X731999Y299299D02*
X731999Y299299D01*
X731999Y307461D01*
X738420Y307461D01*
X739999Y307211D01*
X741520Y306716D01*
X742945Y305990D01*
X744239Y305050D01*
X745370Y303919D01*
X746310Y302625D01*
X747036Y301200D01*
X747531Y299679D01*
X747591Y299299D01*
X731999Y299299D01*
G37*
%LPD*%
%LPC*%
G36*
X781999Y299299D02*
X781999Y299299D01*
X781999Y307461D01*
X788420Y307461D01*
X789999Y307211D01*
X791520Y306716D01*
X792945Y305990D01*
X794239Y305050D01*
X795370Y303919D01*
X796310Y302625D01*
X797036Y301200D01*
X797531Y299679D01*
X797591Y299299D01*
X781999Y299299D01*
G37*
%LPD*%
%LPC*%
G36*
X712409Y219299D02*
X712409Y219299D01*
X712469Y219679D01*
X712964Y221200D01*
X713690Y222625D01*
X714630Y223919D01*
X715761Y225050D01*
X717055Y225990D01*
X718480Y226716D01*
X720001Y227211D01*
X721580Y227461D01*
X728001Y227461D01*
X728001Y219299D01*
X712409Y219299D01*
G37*
%LPD*%
%LPC*%
G36*
X762409Y219299D02*
X762409Y219299D01*
X762469Y219679D01*
X762964Y221200D01*
X763690Y222625D01*
X764630Y223919D01*
X765761Y225050D01*
X767055Y225990D01*
X768480Y226716D01*
X770001Y227211D01*
X771580Y227461D01*
X778001Y227461D01*
X778001Y219299D01*
X762409Y219299D01*
G37*
%LPD*%
%LPC*%
G36*
X762409Y299299D02*
X762409Y299299D01*
X762469Y299679D01*
X762964Y301200D01*
X763690Y302625D01*
X764630Y303919D01*
X765761Y305050D01*
X767055Y305990D01*
X768480Y306716D01*
X770001Y307211D01*
X771580Y307461D01*
X778001Y307461D01*
X778001Y299299D01*
X762409Y299299D01*
G37*
%LPD*%
%LPC*%
G36*
X712409Y299299D02*
X712409Y299299D01*
X712469Y299679D01*
X712964Y301200D01*
X713690Y302625D01*
X714630Y303919D01*
X715761Y305050D01*
X717055Y305990D01*
X718480Y306716D01*
X720001Y307211D01*
X721580Y307461D01*
X728001Y307461D01*
X728001Y299299D01*
X712409Y299299D01*
G37*
%LPD*%
%LPC*%
G36*
X569793Y290513D02*
X569793Y290513D01*
X577955Y290513D01*
X577955Y284092D01*
X577715Y282582D01*
X577715Y282581D01*
X577705Y282513D01*
X577210Y280992D01*
X576484Y279567D01*
X575544Y278273D01*
X574413Y277142D01*
X573119Y276202D01*
X571694Y275476D01*
X570173Y274981D01*
X569793Y274921D01*
X569793Y290513D01*
G37*
%LPD*%
%LPC*%
G36*
X394393Y290513D02*
X394393Y290513D01*
X402555Y290513D01*
X402555Y284092D01*
X402315Y282582D01*
X402315Y282581D01*
X402305Y282513D01*
X401810Y280992D01*
X401084Y279567D01*
X400144Y278273D01*
X399013Y277142D01*
X397719Y276202D01*
X396294Y275476D01*
X394773Y274981D01*
X394393Y274921D01*
X394393Y290513D01*
G37*
%LPD*%
%LPC*%
G36*
X569793Y225489D02*
X569793Y225489D01*
X577955Y225489D01*
X577955Y219068D01*
X577885Y218630D01*
X577885Y218629D01*
X577727Y217630D01*
X577705Y217489D01*
X577210Y215968D01*
X576484Y214543D01*
X575544Y213249D01*
X574413Y212118D01*
X573119Y211178D01*
X571694Y210452D01*
X570173Y209957D01*
X569793Y209897D01*
X569793Y225489D01*
G37*
%LPD*%
%LPC*%
G36*
X394393Y225489D02*
X394393Y225489D01*
X402555Y225489D01*
X402555Y219068D01*
X402485Y218630D01*
X402485Y218629D01*
X402327Y217630D01*
X402305Y217489D01*
X401810Y215968D01*
X401084Y214543D01*
X400144Y213249D01*
X399013Y212118D01*
X397719Y211178D01*
X396294Y210452D01*
X394773Y209957D01*
X394393Y209897D01*
X394393Y225489D01*
G37*
%LPD*%
%LPC*%
G36*
X258393Y294513D02*
X258393Y294513D01*
X266555Y294513D01*
X266555Y288092D01*
X266473Y287578D01*
X266473Y287577D01*
X266315Y286578D01*
X266305Y286513D01*
X265810Y284992D01*
X265084Y283567D01*
X264144Y282273D01*
X263013Y281142D01*
X261719Y280202D01*
X260294Y279476D01*
X258773Y278981D01*
X258393Y278921D01*
X258393Y294513D01*
G37*
%LPD*%
%LPC*%
G36*
X78299Y345001D02*
X78299Y345001D01*
X86461Y345001D01*
X86461Y338580D01*
X86454Y338540D01*
X86454Y338539D01*
X86296Y337540D01*
X86211Y337001D01*
X85716Y335480D01*
X84990Y334055D01*
X84050Y332761D01*
X82919Y331630D01*
X81625Y330690D01*
X80200Y329964D01*
X78679Y329469D01*
X78299Y329409D01*
X78299Y345001D01*
G37*
%LPD*%
%LPC*%
G36*
X258393Y229489D02*
X258393Y229489D01*
X266555Y229489D01*
X266555Y223068D01*
X266485Y222626D01*
X266305Y221489D01*
X265810Y219968D01*
X265084Y218543D01*
X264144Y217249D01*
X263013Y216118D01*
X261719Y215178D01*
X260294Y214452D01*
X258773Y213957D01*
X258393Y213897D01*
X258393Y229489D01*
G37*
%LPD*%
%LPC*%
G36*
X610499Y113001D02*
X610499Y113001D01*
X618661Y113001D01*
X618661Y106580D01*
X618411Y105001D01*
X617916Y103480D01*
X617190Y102055D01*
X616250Y100761D01*
X615119Y99630D01*
X613825Y98690D01*
X612400Y97964D01*
X610879Y97469D01*
X610499Y97409D01*
X610499Y113001D01*
G37*
%LPD*%
%LPC*%
G36*
X404699Y48901D02*
X404699Y48901D01*
X412861Y48901D01*
X412861Y42480D01*
X412611Y40901D01*
X412116Y39380D01*
X411390Y37955D01*
X410450Y36661D01*
X409319Y35530D01*
X408025Y34590D01*
X406600Y33864D01*
X405079Y33369D01*
X404699Y33309D01*
X404699Y48901D01*
G37*
%LPD*%
%LPC*%
G36*
X80599Y111001D02*
X80599Y111001D01*
X88761Y111001D01*
X88761Y104580D01*
X88511Y103001D01*
X88016Y101480D01*
X87290Y100055D01*
X86350Y98761D01*
X85219Y97630D01*
X83925Y96690D01*
X82500Y95964D01*
X80979Y95469D01*
X80599Y95409D01*
X80599Y111001D01*
G37*
%LPD*%
%LPC*%
G36*
X328499Y48901D02*
X328499Y48901D01*
X336661Y48901D01*
X336661Y42480D01*
X336411Y40901D01*
X335916Y39380D01*
X335190Y37955D01*
X334250Y36661D01*
X333119Y35530D01*
X331825Y34590D01*
X330400Y33864D01*
X328879Y33369D01*
X328499Y33309D01*
X328499Y48901D01*
G37*
%LPD*%
%LPC*%
G36*
X353899Y48901D02*
X353899Y48901D01*
X362061Y48901D01*
X362061Y42480D01*
X361811Y40901D01*
X361316Y39380D01*
X360590Y37955D01*
X359650Y36661D01*
X358519Y35530D01*
X357225Y34590D01*
X355800Y33864D01*
X354279Y33369D01*
X353899Y33309D01*
X353899Y48901D01*
G37*
%LPD*%
%LPC*%
G36*
X379299Y48901D02*
X379299Y48901D01*
X387461Y48901D01*
X387461Y42480D01*
X387211Y40901D01*
X386716Y39380D01*
X385990Y37955D01*
X385050Y36661D01*
X383919Y35530D01*
X382625Y34590D01*
X381200Y33864D01*
X379679Y33369D01*
X379299Y33309D01*
X379299Y48901D01*
G37*
%LPD*%
%LPC*%
G36*
X68393Y222489D02*
X68393Y222489D01*
X76555Y222489D01*
X76555Y216068D01*
X76305Y214489D01*
X75810Y212968D01*
X75084Y211543D01*
X74144Y210249D01*
X73013Y209118D01*
X71719Y208178D01*
X70294Y207452D01*
X68773Y206957D01*
X68393Y206897D01*
X68393Y222489D01*
G37*
%LPD*%
%LPC*%
G36*
X430099Y48901D02*
X430099Y48901D01*
X438261Y48901D01*
X438261Y42480D01*
X438011Y40901D01*
X437516Y39380D01*
X436790Y37955D01*
X435850Y36661D01*
X434719Y35530D01*
X433425Y34590D01*
X432000Y33864D01*
X430479Y33369D01*
X430099Y33309D01*
X430099Y48901D01*
G37*
%LPD*%
%LPC*%
G36*
X455499Y48901D02*
X455499Y48901D01*
X463661Y48901D01*
X463661Y42480D01*
X463411Y40901D01*
X462916Y39380D01*
X462190Y37955D01*
X461250Y36661D01*
X460119Y35530D01*
X458825Y34590D01*
X457400Y33864D01*
X455879Y33369D01*
X455499Y33309D01*
X455499Y48901D01*
G37*
%LPD*%
%LPC*%
G36*
X68393Y287513D02*
X68393Y287513D01*
X76555Y287513D01*
X76555Y281092D01*
X76305Y279513D01*
X75810Y277992D01*
X75084Y276567D01*
X74144Y275273D01*
X73013Y274142D01*
X71719Y273202D01*
X70294Y272476D01*
X68773Y271981D01*
X68393Y271921D01*
X68393Y287513D01*
G37*
%LPD*%
%LPC*%
G36*
X404299Y348001D02*
X404299Y348001D01*
X412461Y348001D01*
X412461Y341580D01*
X412211Y340001D01*
X411716Y338480D01*
X410990Y337055D01*
X410050Y335761D01*
X408919Y334630D01*
X407625Y333690D01*
X406200Y332964D01*
X404679Y332469D01*
X404299Y332409D01*
X404299Y348001D01*
G37*
%LPD*%
%LPC*%
G36*
X580499Y348001D02*
X580499Y348001D01*
X588661Y348001D01*
X588661Y341580D01*
X588411Y340001D01*
X587916Y338480D01*
X587190Y337055D01*
X586250Y335761D01*
X585119Y334630D01*
X583825Y333690D01*
X582400Y332964D01*
X580879Y332469D01*
X580499Y332409D01*
X580499Y348001D01*
G37*
%LPD*%
%LPC*%
G36*
X211199Y113001D02*
X211199Y113001D01*
X219361Y113001D01*
X219361Y106580D01*
X219111Y105001D01*
X218616Y103480D01*
X217890Y102055D01*
X216950Y100761D01*
X215819Y99630D01*
X214525Y98690D01*
X213100Y97964D01*
X211579Y97469D01*
X211199Y97409D01*
X211199Y113001D01*
G37*
%LPD*%
%LPC*%
G36*
X246233Y233487D02*
X246233Y233487D01*
X246233Y239908D01*
X246296Y240304D01*
X246296Y240305D01*
X246454Y241304D01*
X246483Y241487D01*
X246978Y243008D01*
X247704Y244433D01*
X248644Y245727D01*
X249775Y246858D01*
X251069Y247798D01*
X252494Y248524D01*
X254015Y249019D01*
X254395Y249079D01*
X254395Y233487D01*
X246233Y233487D01*
G37*
%LPD*%
%LPC*%
G36*
X568339Y351999D02*
X568339Y351999D01*
X568339Y358420D01*
X568465Y359215D01*
X568465Y359216D01*
X568589Y359999D01*
X569084Y361520D01*
X569810Y362945D01*
X570750Y364239D01*
X571881Y365370D01*
X573175Y366310D01*
X574600Y367036D01*
X576121Y367531D01*
X576501Y367591D01*
X576501Y351999D01*
X568339Y351999D01*
G37*
%LPD*%
%LPC*%
G36*
X731999Y287139D02*
X731999Y287139D01*
X731999Y295301D01*
X747591Y295301D01*
X747531Y294921D01*
X747036Y293400D01*
X746310Y291975D01*
X745370Y290681D01*
X744239Y289550D01*
X742945Y288610D01*
X741520Y287884D01*
X739999Y287389D01*
X738420Y287139D01*
X731999Y287139D01*
G37*
%LPD*%
%LPC*%
G36*
X781999Y287139D02*
X781999Y287139D01*
X781999Y295301D01*
X797591Y295301D01*
X797531Y294921D01*
X797036Y293400D01*
X796310Y291975D01*
X795370Y290681D01*
X794239Y289550D01*
X792945Y288610D01*
X791520Y287884D01*
X789999Y287389D01*
X788420Y287139D01*
X781999Y287139D01*
G37*
%LPD*%
%LPC*%
G36*
X56233Y291511D02*
X56233Y291511D01*
X56233Y297932D01*
X56285Y298261D01*
X56444Y299260D01*
X56483Y299511D01*
X56978Y301032D01*
X57704Y302457D01*
X58644Y303751D01*
X59775Y304882D01*
X61069Y305822D01*
X62494Y306548D01*
X64015Y307043D01*
X64395Y307103D01*
X64395Y291511D01*
X56233Y291511D01*
G37*
%LPD*%
%LPC*%
G36*
X316339Y52899D02*
X316339Y52899D01*
X316339Y59320D01*
X316358Y59440D01*
X316358Y59441D01*
X316517Y60439D01*
X316517Y60440D01*
X316589Y60899D01*
X317084Y62420D01*
X317810Y63845D01*
X318750Y65139D01*
X319881Y66270D01*
X321175Y67210D01*
X322600Y67936D01*
X324121Y68431D01*
X324501Y68491D01*
X324501Y52899D01*
X316339Y52899D01*
G37*
%LPD*%
%LPC*%
G36*
X341739Y52899D02*
X341739Y52899D01*
X341739Y59320D01*
X341758Y59440D01*
X341758Y59441D01*
X341917Y60439D01*
X341917Y60440D01*
X341989Y60899D01*
X342484Y62420D01*
X343210Y63845D01*
X344150Y65139D01*
X345281Y66270D01*
X346575Y67210D01*
X348000Y67936D01*
X349521Y68431D01*
X349901Y68491D01*
X349901Y52899D01*
X341739Y52899D01*
G37*
%LPD*%
%LPC*%
G36*
X443339Y52899D02*
X443339Y52899D01*
X443339Y59320D01*
X443358Y59440D01*
X443358Y59441D01*
X443517Y60439D01*
X443517Y60440D01*
X443589Y60899D01*
X444084Y62420D01*
X444810Y63845D01*
X445750Y65139D01*
X446881Y66270D01*
X448175Y67210D01*
X449600Y67936D01*
X451121Y68431D01*
X451501Y68491D01*
X451501Y52899D01*
X443339Y52899D01*
G37*
%LPD*%
%LPC*%
G36*
X417939Y52899D02*
X417939Y52899D01*
X417939Y59320D01*
X417958Y59440D01*
X417958Y59441D01*
X418117Y60439D01*
X418117Y60440D01*
X418189Y60899D01*
X418684Y62420D01*
X419410Y63845D01*
X420350Y65139D01*
X421481Y66270D01*
X422775Y67210D01*
X424200Y67936D01*
X425721Y68431D01*
X426101Y68491D01*
X426101Y52899D01*
X417939Y52899D01*
G37*
%LPD*%
%LPC*%
G36*
X367139Y52899D02*
X367139Y52899D01*
X367139Y59320D01*
X367158Y59440D01*
X367158Y59441D01*
X367317Y60439D01*
X367317Y60440D01*
X367389Y60899D01*
X367884Y62420D01*
X368610Y63845D01*
X369550Y65139D01*
X370681Y66270D01*
X371975Y67210D01*
X373400Y67936D01*
X374921Y68431D01*
X375301Y68491D01*
X375301Y52899D01*
X367139Y52899D01*
G37*
%LPD*%
%LPC*%
G36*
X392539Y52899D02*
X392539Y52899D01*
X392539Y59320D01*
X392558Y59440D01*
X392558Y59441D01*
X392717Y60439D01*
X392717Y60440D01*
X392789Y60899D01*
X393284Y62420D01*
X394010Y63845D01*
X394950Y65139D01*
X396081Y66270D01*
X397375Y67210D01*
X398800Y67936D01*
X400321Y68431D01*
X400701Y68491D01*
X400701Y52899D01*
X392539Y52899D01*
G37*
%LPD*%
%LPC*%
G36*
X382233Y229487D02*
X382233Y229487D01*
X382233Y235908D01*
X382297Y236307D01*
X382297Y236308D01*
X382483Y237487D01*
X382978Y239008D01*
X383704Y240433D01*
X384644Y241727D01*
X385775Y242858D01*
X387069Y243798D01*
X388494Y244524D01*
X390015Y245019D01*
X390395Y245079D01*
X390395Y229487D01*
X382233Y229487D01*
G37*
%LPD*%
%LPC*%
G36*
X557633Y229487D02*
X557633Y229487D01*
X557633Y235908D01*
X557697Y236307D01*
X557697Y236308D01*
X557883Y237487D01*
X558378Y239008D01*
X559104Y240433D01*
X560044Y241727D01*
X561175Y242858D01*
X562469Y243798D01*
X563894Y244524D01*
X565415Y245019D01*
X565795Y245079D01*
X565795Y229487D01*
X557633Y229487D01*
G37*
%LPD*%
%LPC*%
G36*
X462939Y116999D02*
X462939Y116999D01*
X462939Y123420D01*
X463093Y124391D01*
X463093Y124392D01*
X463189Y124999D01*
X463684Y126520D01*
X464410Y127945D01*
X465350Y129239D01*
X466481Y130370D01*
X467775Y131310D01*
X469200Y132036D01*
X470721Y132531D01*
X471101Y132591D01*
X471101Y116999D01*
X462939Y116999D01*
G37*
%LPD*%
%LPC*%
G36*
X598339Y116999D02*
X598339Y116999D01*
X598339Y123420D01*
X598493Y124391D01*
X598493Y124392D01*
X598589Y124999D01*
X599084Y126520D01*
X599810Y127945D01*
X600750Y129239D01*
X601881Y130370D01*
X603175Y131310D01*
X604600Y132036D01*
X606121Y132531D01*
X606501Y132591D01*
X606501Y116999D01*
X598339Y116999D01*
G37*
%LPD*%
%LPC*%
G36*
X199039Y116999D02*
X199039Y116999D01*
X199039Y123420D01*
X199193Y124391D01*
X199193Y124392D01*
X199289Y124999D01*
X199784Y126520D01*
X200510Y127945D01*
X201450Y129239D01*
X202581Y130370D01*
X203875Y131310D01*
X205300Y132036D01*
X206821Y132531D01*
X207201Y132591D01*
X207201Y116999D01*
X199039Y116999D01*
G37*
%LPD*%
%LPC*%
G36*
X731999Y207139D02*
X731999Y207139D01*
X731999Y215301D01*
X747591Y215301D01*
X747531Y214921D01*
X747036Y213400D01*
X746310Y211975D01*
X745370Y210681D01*
X744239Y209550D01*
X742945Y208610D01*
X741520Y207884D01*
X739999Y207389D01*
X738420Y207139D01*
X731999Y207139D01*
G37*
%LPD*%
%LPC*%
G36*
X557633Y294511D02*
X557633Y294511D01*
X557633Y300932D01*
X557883Y302511D01*
X558378Y304032D01*
X559104Y305457D01*
X560044Y306751D01*
X561175Y307882D01*
X562469Y308822D01*
X563894Y309548D01*
X565415Y310043D01*
X565795Y310103D01*
X565795Y294511D01*
X557633Y294511D01*
G37*
%LPD*%
%LPC*%
G36*
X382233Y294511D02*
X382233Y294511D01*
X382233Y300932D01*
X382483Y302511D01*
X382978Y304032D01*
X383704Y305457D01*
X384644Y306751D01*
X385775Y307882D01*
X387069Y308822D01*
X388494Y309548D01*
X390015Y310043D01*
X390395Y310103D01*
X390395Y294511D01*
X382233Y294511D01*
G37*
%LPD*%
%LPC*%
G36*
X56233Y226487D02*
X56233Y226487D01*
X56233Y232908D01*
X56483Y234487D01*
X56978Y236008D01*
X57704Y237433D01*
X58644Y238727D01*
X59775Y239858D01*
X61069Y240798D01*
X62494Y241524D01*
X64015Y242019D01*
X64395Y242079D01*
X64395Y226487D01*
X56233Y226487D01*
G37*
%LPD*%
%LPC*%
G36*
X68439Y114999D02*
X68439Y114999D01*
X68439Y121420D01*
X68689Y122999D01*
X69184Y124520D01*
X69910Y125945D01*
X70850Y127239D01*
X71981Y128370D01*
X73275Y129310D01*
X74700Y130036D01*
X76221Y130531D01*
X76601Y130591D01*
X76601Y114999D01*
X68439Y114999D01*
G37*
%LPD*%
%LPC*%
G36*
X781999Y207139D02*
X781999Y207139D01*
X781999Y215301D01*
X797591Y215301D01*
X797531Y214921D01*
X797036Y213400D01*
X796310Y211975D01*
X795370Y210681D01*
X794239Y209550D01*
X792945Y208610D01*
X791520Y207884D01*
X789999Y207389D01*
X788420Y207139D01*
X781999Y207139D01*
G37*
%LPD*%
%LPC*%
G36*
X246233Y298511D02*
X246233Y298511D01*
X246233Y304932D01*
X246483Y306511D01*
X246978Y308032D01*
X247704Y309457D01*
X248644Y310751D01*
X249775Y311882D01*
X251069Y312822D01*
X252494Y313548D01*
X254015Y314043D01*
X254395Y314103D01*
X254395Y298511D01*
X246233Y298511D01*
G37*
%LPD*%
%LPC*%
G36*
X771580Y287139D02*
X771580Y287139D01*
X770001Y287389D01*
X768480Y287884D01*
X767055Y288610D01*
X765761Y289550D01*
X764630Y290681D01*
X763690Y291975D01*
X762964Y293400D01*
X762469Y294921D01*
X762409Y295301D01*
X778001Y295301D01*
X778001Y287139D01*
X771580Y287139D01*
G37*
%LPD*%
%LPC*%
G36*
X721580Y287139D02*
X721580Y287139D01*
X720001Y287389D01*
X718480Y287884D01*
X717055Y288610D01*
X715761Y289550D01*
X714630Y290681D01*
X713690Y291975D01*
X712964Y293400D01*
X712469Y294921D01*
X712409Y295301D01*
X728001Y295301D01*
X728001Y287139D01*
X721580Y287139D01*
G37*
%LPD*%
%LPC*%
G36*
X206821Y97469D02*
X206821Y97469D01*
X205300Y97964D01*
X203875Y98690D01*
X202581Y99630D01*
X201450Y100761D01*
X200510Y102055D01*
X199784Y103480D01*
X199289Y105001D01*
X199039Y106580D01*
X199039Y113001D01*
X207201Y113001D01*
X207201Y97409D01*
X206821Y97469D01*
G37*
%LPD*%
%LPC*%
G36*
X76221Y95469D02*
X76221Y95469D01*
X74700Y95964D01*
X73275Y96690D01*
X71981Y97630D01*
X70850Y98761D01*
X69910Y100055D01*
X69184Y101480D01*
X68689Y103001D01*
X68439Y104580D01*
X68439Y111001D01*
X76601Y111001D01*
X76601Y95409D01*
X76221Y95469D01*
G37*
%LPD*%
%LPC*%
G36*
X64015Y271981D02*
X64015Y271981D01*
X62494Y272476D01*
X61069Y273202D01*
X59775Y274142D01*
X58644Y275273D01*
X57704Y276567D01*
X56978Y277992D01*
X56483Y279513D01*
X56233Y281092D01*
X56233Y287513D01*
X64395Y287513D01*
X64395Y271921D01*
X64015Y271981D01*
G37*
%LPD*%
%LPC*%
G36*
X451121Y33369D02*
X451121Y33369D01*
X449600Y33864D01*
X448175Y34590D01*
X446881Y35530D01*
X445750Y36661D01*
X444810Y37955D01*
X444084Y39380D01*
X443589Y40901D01*
X443339Y42480D01*
X443339Y48901D01*
X451501Y48901D01*
X451501Y33309D01*
X451121Y33369D01*
G37*
%LPD*%
%LPC*%
G36*
X425721Y33369D02*
X425721Y33369D01*
X424200Y33864D01*
X422775Y34590D01*
X421481Y35530D01*
X420350Y36661D01*
X419410Y37955D01*
X418684Y39380D01*
X418189Y40901D01*
X417939Y42480D01*
X417939Y48901D01*
X426101Y48901D01*
X426101Y33309D01*
X425721Y33369D01*
G37*
%LPD*%
%LPC*%
G36*
X400321Y33369D02*
X400321Y33369D01*
X398800Y33864D01*
X397375Y34590D01*
X396081Y35530D01*
X394950Y36661D01*
X394010Y37955D01*
X393284Y39380D01*
X392789Y40901D01*
X392539Y42480D01*
X392539Y48901D01*
X400701Y48901D01*
X400701Y33309D01*
X400321Y33369D01*
G37*
%LPD*%
%LPC*%
G36*
X374921Y33369D02*
X374921Y33369D01*
X373400Y33864D01*
X371975Y34590D01*
X370681Y35530D01*
X369550Y36661D01*
X368610Y37955D01*
X367884Y39380D01*
X367389Y40901D01*
X367139Y42480D01*
X367139Y48901D01*
X375301Y48901D01*
X375301Y33309D01*
X374921Y33369D01*
G37*
%LPD*%
%LPC*%
G36*
X349521Y33369D02*
X349521Y33369D01*
X348000Y33864D01*
X346575Y34590D01*
X345281Y35530D01*
X344150Y36661D01*
X343210Y37955D01*
X342484Y39380D01*
X341989Y40901D01*
X341739Y42480D01*
X341739Y48901D01*
X349901Y48901D01*
X349901Y33309D01*
X349521Y33369D01*
G37*
%LPD*%
%LPC*%
G36*
X399921Y332469D02*
X399921Y332469D01*
X398400Y332964D01*
X396975Y333690D01*
X395681Y334630D01*
X394550Y335761D01*
X393610Y337055D01*
X392884Y338480D01*
X392389Y340001D01*
X392139Y341580D01*
X392139Y348001D01*
X400301Y348001D01*
X400301Y332409D01*
X399921Y332469D01*
G37*
%LPD*%
%LPC*%
G36*
X576121Y332469D02*
X576121Y332469D01*
X574600Y332964D01*
X573175Y333690D01*
X571881Y334630D01*
X570750Y335761D01*
X569810Y337055D01*
X569084Y338480D01*
X568589Y340001D01*
X568339Y341580D01*
X568339Y348001D01*
X576501Y348001D01*
X576501Y332409D01*
X576121Y332469D01*
G37*
%LPD*%
%LPC*%
G36*
X73921Y329469D02*
X73921Y329469D01*
X72400Y329964D01*
X70975Y330690D01*
X69681Y331630D01*
X68550Y332761D01*
X67610Y334055D01*
X66884Y335480D01*
X66389Y337001D01*
X66139Y338580D01*
X66139Y345001D01*
X74301Y345001D01*
X74301Y329409D01*
X73921Y329469D01*
G37*
%LPD*%
%LPC*%
G36*
X565415Y209957D02*
X565415Y209957D01*
X563894Y210452D01*
X562469Y211178D01*
X561175Y212118D01*
X560044Y213249D01*
X559104Y214543D01*
X558378Y215968D01*
X557883Y217489D01*
X557633Y219068D01*
X557633Y225489D01*
X565795Y225489D01*
X565795Y209897D01*
X565415Y209957D01*
G37*
%LPD*%
%LPC*%
G36*
X390015Y209957D02*
X390015Y209957D01*
X388494Y210452D01*
X387069Y211178D01*
X385775Y212118D01*
X384644Y213249D01*
X383704Y214543D01*
X382978Y215968D01*
X382483Y217489D01*
X382233Y219068D01*
X382233Y225489D01*
X390395Y225489D01*
X390395Y209897D01*
X390015Y209957D01*
G37*
%LPD*%
%LPC*%
G36*
X64015Y206957D02*
X64015Y206957D01*
X62494Y207452D01*
X61069Y208178D01*
X59775Y209118D01*
X58644Y210249D01*
X57704Y211543D01*
X56978Y212968D01*
X56483Y214489D01*
X56233Y216068D01*
X56233Y222489D01*
X64395Y222489D01*
X64395Y206897D01*
X64015Y206957D01*
G37*
%LPD*%
%LPC*%
G36*
X324121Y33369D02*
X324121Y33369D01*
X322600Y33864D01*
X321175Y34590D01*
X319881Y35530D01*
X318750Y36661D01*
X317810Y37955D01*
X317084Y39380D01*
X316589Y40901D01*
X316339Y42480D01*
X316339Y48901D01*
X324501Y48901D01*
X324501Y33309D01*
X324121Y33369D01*
G37*
%LPD*%
%LPC*%
G36*
X771580Y207139D02*
X771580Y207139D01*
X770001Y207389D01*
X768480Y207884D01*
X767055Y208610D01*
X765761Y209550D01*
X764630Y210681D01*
X763690Y211975D01*
X762964Y213400D01*
X762469Y214921D01*
X762409Y215301D01*
X778001Y215301D01*
X778001Y207139D01*
X771580Y207139D01*
G37*
%LPD*%
%LPC*%
G36*
X721580Y207139D02*
X721580Y207139D01*
X720001Y207389D01*
X718480Y207884D01*
X717055Y208610D01*
X715761Y209550D01*
X714630Y210681D01*
X713690Y211975D01*
X712964Y213400D01*
X712469Y214921D01*
X712409Y215301D01*
X728001Y215301D01*
X728001Y207139D01*
X721580Y207139D01*
G37*
%LPD*%
%LPC*%
G36*
X254015Y213957D02*
X254015Y213957D01*
X252494Y214452D01*
X251069Y215178D01*
X249775Y216118D01*
X248644Y217249D01*
X247704Y218543D01*
X246978Y219968D01*
X246483Y221489D01*
X246233Y223068D01*
X246233Y229489D01*
X254395Y229489D01*
X254395Y213897D01*
X254015Y213957D01*
G37*
%LPD*%
%LPC*%
G36*
X565415Y274981D02*
X565415Y274981D01*
X563894Y275476D01*
X562469Y276202D01*
X561175Y277142D01*
X560044Y278273D01*
X559104Y279567D01*
X558378Y280992D01*
X557883Y282513D01*
X557633Y284092D01*
X557633Y290513D01*
X565795Y290513D01*
X565795Y274921D01*
X565415Y274981D01*
G37*
%LPD*%
%LPC*%
G36*
X390015Y274981D02*
X390015Y274981D01*
X388494Y275476D01*
X387069Y276202D01*
X385775Y277142D01*
X384644Y278273D01*
X383704Y279567D01*
X382978Y280992D01*
X382483Y282513D01*
X382233Y284092D01*
X382233Y290513D01*
X390395Y290513D01*
X390395Y274921D01*
X390015Y274981D01*
G37*
%LPD*%
%LPC*%
G36*
X254015Y278981D02*
X254015Y278981D01*
X252494Y279476D01*
X251069Y280202D01*
X249775Y281142D01*
X248644Y282273D01*
X247704Y283567D01*
X246978Y284992D01*
X246483Y286513D01*
X246233Y288092D01*
X246233Y294513D01*
X254395Y294513D01*
X254395Y278921D01*
X254015Y278981D01*
G37*
%LPD*%
%LPC*%
G36*
X606121Y97469D02*
X606121Y97469D01*
X604600Y97964D01*
X603175Y98690D01*
X601881Y99630D01*
X600750Y100761D01*
X599810Y102055D01*
X599084Y103480D01*
X598589Y105001D01*
X598339Y106580D01*
X598339Y113001D01*
X606501Y113001D01*
X606501Y97409D01*
X606121Y97469D01*
G37*
%LPD*%
%LPC*%
G36*
X470721Y97469D02*
X470721Y97469D01*
X469200Y97964D01*
X467775Y98690D01*
X466481Y99630D01*
X465350Y100761D01*
X464410Y102055D01*
X463684Y103480D01*
X463189Y105001D01*
X462939Y106580D01*
X462939Y113001D01*
X471101Y113001D01*
X471101Y97409D01*
X470721Y97469D01*
G37*
%LPD*%
%LPC*%
G36*
X584999Y471999D02*
X584999Y471999D01*
X584999Y479081D01*
X586761Y479081D01*
X592293Y473549D01*
X592345Y473510D01*
X592390Y473464D01*
X592457Y473426D01*
X592519Y473379D01*
X592579Y473357D01*
X592635Y473325D01*
X592710Y473307D01*
X592783Y473280D01*
X592847Y473275D01*
X592909Y473260D01*
X592987Y473264D01*
X593064Y473258D01*
X593127Y473271D01*
X593191Y473274D01*
X593264Y473300D01*
X593340Y473316D01*
X593397Y473346D01*
X593458Y473367D01*
X593514Y473408D01*
X593589Y473448D01*
X593650Y473507D01*
X593707Y473549D01*
X599239Y479081D01*
X601001Y479081D01*
X601001Y471999D01*
X584999Y471999D01*
G37*
%LPD*%
%LPC*%
G36*
X299999Y471999D02*
X299999Y471999D01*
X299999Y479081D01*
X301761Y479081D01*
X307293Y473549D01*
X307345Y473510D01*
X307390Y473464D01*
X307457Y473426D01*
X307519Y473379D01*
X307579Y473357D01*
X307635Y473325D01*
X307710Y473307D01*
X307783Y473280D01*
X307847Y473275D01*
X307909Y473260D01*
X307987Y473264D01*
X308064Y473258D01*
X308127Y473271D01*
X308191Y473274D01*
X308264Y473300D01*
X308340Y473316D01*
X308397Y473346D01*
X308458Y473367D01*
X308514Y473408D01*
X308589Y473448D01*
X308650Y473507D01*
X308707Y473549D01*
X314239Y479081D01*
X316001Y479081D01*
X316001Y471999D01*
X299999Y471999D01*
G37*
%LPD*%
%LPC*%
G36*
X564999Y471999D02*
X564999Y471999D01*
X564999Y479081D01*
X566761Y479081D01*
X572293Y473549D01*
X572345Y473510D01*
X572390Y473464D01*
X572457Y473426D01*
X572519Y473379D01*
X572579Y473357D01*
X572635Y473325D01*
X572710Y473307D01*
X572783Y473280D01*
X572847Y473275D01*
X572909Y473260D01*
X572987Y473264D01*
X573064Y473258D01*
X573127Y473271D01*
X573191Y473274D01*
X573264Y473300D01*
X573340Y473316D01*
X573397Y473346D01*
X573458Y473367D01*
X573514Y473408D01*
X573589Y473448D01*
X573650Y473507D01*
X573707Y473549D01*
X579239Y479081D01*
X581001Y479081D01*
X581001Y471999D01*
X564999Y471999D01*
G37*
%LPD*%
%LPC*%
G36*
X544999Y471999D02*
X544999Y471999D01*
X544999Y479081D01*
X546761Y479081D01*
X552293Y473549D01*
X552345Y473510D01*
X552390Y473464D01*
X552457Y473426D01*
X552519Y473379D01*
X552579Y473357D01*
X552635Y473325D01*
X552710Y473307D01*
X552783Y473280D01*
X552847Y473275D01*
X552909Y473260D01*
X552987Y473264D01*
X553064Y473258D01*
X553127Y473271D01*
X553191Y473274D01*
X553264Y473300D01*
X553340Y473316D01*
X553397Y473346D01*
X553458Y473367D01*
X553514Y473408D01*
X553589Y473448D01*
X553650Y473507D01*
X553707Y473549D01*
X559239Y479081D01*
X561001Y479081D01*
X561001Y471999D01*
X544999Y471999D01*
G37*
%LPD*%
%LPC*%
G36*
X544999Y460919D02*
X544999Y460919D01*
X544999Y468001D01*
X561001Y468001D01*
X561001Y460919D01*
X559239Y460919D01*
X553707Y466451D01*
X553655Y466490D01*
X553610Y466536D01*
X553543Y466574D01*
X553481Y466621D01*
X553421Y466643D01*
X553365Y466675D01*
X553290Y466693D01*
X553217Y466720D01*
X553153Y466725D01*
X553091Y466740D01*
X553013Y466736D01*
X552936Y466742D01*
X552873Y466729D01*
X552809Y466726D01*
X552736Y466700D01*
X552660Y466684D01*
X552603Y466654D01*
X552542Y466633D01*
X552486Y466592D01*
X552411Y466552D01*
X552350Y466493D01*
X552293Y466451D01*
X546761Y460919D01*
X544999Y460919D01*
G37*
%LPD*%
%LPC*%
G36*
X584999Y460919D02*
X584999Y460919D01*
X584999Y468001D01*
X601001Y468001D01*
X601001Y460919D01*
X599239Y460919D01*
X593707Y466451D01*
X593655Y466490D01*
X593610Y466536D01*
X593543Y466574D01*
X593481Y466621D01*
X593421Y466643D01*
X593365Y466675D01*
X593290Y466693D01*
X593217Y466720D01*
X593153Y466725D01*
X593091Y466740D01*
X593013Y466736D01*
X592936Y466742D01*
X592873Y466729D01*
X592809Y466726D01*
X592736Y466700D01*
X592660Y466684D01*
X592603Y466654D01*
X592542Y466633D01*
X592486Y466592D01*
X592411Y466552D01*
X592350Y466493D01*
X592293Y466451D01*
X586761Y460919D01*
X584999Y460919D01*
G37*
%LPD*%
%LPC*%
G36*
X564999Y460919D02*
X564999Y460919D01*
X564999Y468001D01*
X581001Y468001D01*
X581001Y460919D01*
X579239Y460919D01*
X573707Y466451D01*
X573655Y466490D01*
X573610Y466536D01*
X573543Y466574D01*
X573481Y466621D01*
X573421Y466643D01*
X573365Y466675D01*
X573290Y466693D01*
X573217Y466720D01*
X573153Y466725D01*
X573091Y466740D01*
X573013Y466736D01*
X572936Y466742D01*
X572873Y466729D01*
X572809Y466726D01*
X572736Y466700D01*
X572660Y466684D01*
X572603Y466654D01*
X572542Y466633D01*
X572486Y466592D01*
X572411Y466552D01*
X572350Y466493D01*
X572293Y466451D01*
X566761Y460919D01*
X564999Y460919D01*
G37*
%LPD*%
%LPC*%
G36*
X299999Y460919D02*
X299999Y460919D01*
X299999Y468001D01*
X316001Y468001D01*
X316001Y460919D01*
X314239Y460919D01*
X308707Y466451D01*
X308655Y466490D01*
X308610Y466536D01*
X308543Y466574D01*
X308481Y466621D01*
X308421Y466643D01*
X308365Y466675D01*
X308290Y466693D01*
X308217Y466720D01*
X308153Y466725D01*
X308091Y466740D01*
X308013Y466736D01*
X307936Y466742D01*
X307873Y466729D01*
X307809Y466726D01*
X307736Y466700D01*
X307660Y466684D01*
X307603Y466654D01*
X307542Y466633D01*
X307486Y466592D01*
X307411Y466552D01*
X307350Y466493D01*
X307293Y466451D01*
X301761Y460919D01*
X299999Y460919D01*
G37*
%LPD*%
%LPC*%
G36*
X319999Y471999D02*
X319999Y471999D01*
X319999Y479081D01*
X321761Y479081D01*
X327081Y473761D01*
X327081Y471999D01*
X319999Y471999D01*
G37*
%LPD*%
%LPC*%
G36*
X604999Y471999D02*
X604999Y471999D01*
X604999Y479081D01*
X606761Y479081D01*
X612081Y473761D01*
X612081Y471999D01*
X604999Y471999D01*
G37*
%LPD*%
%LPC*%
G36*
X288919Y471999D02*
X288919Y471999D01*
X288919Y473761D01*
X294239Y479081D01*
X296001Y479081D01*
X296001Y471999D01*
X288919Y471999D01*
G37*
%LPD*%
%LPC*%
G36*
X533919Y471999D02*
X533919Y471999D01*
X533919Y473761D01*
X539239Y479081D01*
X541001Y479081D01*
X541001Y471999D01*
X533919Y471999D01*
G37*
%LPD*%
%LPC*%
G36*
X319999Y460919D02*
X319999Y460919D01*
X319999Y468001D01*
X327081Y468001D01*
X327081Y466239D01*
X321761Y460919D01*
X319999Y460919D01*
G37*
%LPD*%
%LPC*%
G36*
X604999Y460919D02*
X604999Y460919D01*
X604999Y468001D01*
X612081Y468001D01*
X612081Y466239D01*
X606761Y460919D01*
X604999Y460919D01*
G37*
%LPD*%
%LPC*%
G36*
X294239Y460919D02*
X294239Y460919D01*
X288919Y466239D01*
X288919Y468001D01*
X296001Y468001D01*
X296001Y460919D01*
X294239Y460919D01*
G37*
%LPD*%
%LPC*%
G36*
X690499Y298999D02*
X690499Y298999D01*
X690499Y305041D01*
X693835Y305041D01*
X694481Y304868D01*
X695060Y304533D01*
X695533Y304060D01*
X695868Y303481D01*
X696041Y302835D01*
X696041Y298999D01*
X690499Y298999D01*
G37*
%LPD*%
%LPC*%
G36*
X690499Y218999D02*
X690499Y218999D01*
X690499Y225041D01*
X693835Y225041D01*
X694481Y224868D01*
X695060Y224533D01*
X695533Y224060D01*
X695868Y223481D01*
X696041Y222835D01*
X696041Y218999D01*
X690499Y218999D01*
G37*
%LPD*%
%LPC*%
G36*
X425499Y131999D02*
X425499Y131999D01*
X425499Y137541D01*
X429335Y137541D01*
X429981Y137368D01*
X430560Y137033D01*
X431033Y136560D01*
X431368Y135981D01*
X431541Y135335D01*
X431541Y131999D01*
X425499Y131999D01*
G37*
%LPD*%
%LPC*%
G36*
X690499Y208959D02*
X690499Y208959D01*
X690499Y215001D01*
X696041Y215001D01*
X696041Y211165D01*
X695868Y210519D01*
X695533Y209940D01*
X695060Y209467D01*
X694481Y209132D01*
X693835Y208959D01*
X690499Y208959D01*
G37*
%LPD*%
%LPC*%
G36*
X398459Y171999D02*
X398459Y171999D01*
X398459Y175335D01*
X398632Y175981D01*
X398967Y176560D01*
X399440Y177033D01*
X400019Y177368D01*
X400665Y177541D01*
X404501Y177541D01*
X404501Y171999D01*
X398459Y171999D01*
G37*
%LPD*%
%LPC*%
G36*
X398459Y91999D02*
X398459Y91999D01*
X398459Y95335D01*
X398632Y95981D01*
X398967Y96560D01*
X399440Y97033D01*
X400019Y97368D01*
X400665Y97541D01*
X404501Y97541D01*
X404501Y91999D01*
X398459Y91999D01*
G37*
%LPD*%
%LPC*%
G36*
X690499Y288959D02*
X690499Y288959D01*
X690499Y295001D01*
X696041Y295001D01*
X696041Y291165D01*
X695868Y290519D01*
X695533Y289940D01*
X695060Y289467D01*
X694481Y289132D01*
X693835Y288959D01*
X690499Y288959D01*
G37*
%LPD*%
%LPC*%
G36*
X680959Y218999D02*
X680959Y218999D01*
X680959Y222835D01*
X681132Y223481D01*
X681467Y224060D01*
X681940Y224533D01*
X682519Y224868D01*
X683165Y225041D01*
X686501Y225041D01*
X686501Y218999D01*
X680959Y218999D01*
G37*
%LPD*%
%LPC*%
G36*
X680959Y298999D02*
X680959Y298999D01*
X680959Y302835D01*
X681132Y303481D01*
X681467Y304060D01*
X681940Y304533D01*
X682519Y304868D01*
X683165Y305041D01*
X686501Y305041D01*
X686501Y298999D01*
X680959Y298999D01*
G37*
%LPD*%
%LPC*%
G36*
X400665Y82459D02*
X400665Y82459D01*
X400019Y82632D01*
X399440Y82967D01*
X398967Y83440D01*
X398632Y84019D01*
X398459Y84665D01*
X398459Y88001D01*
X404501Y88001D01*
X404501Y82459D01*
X400665Y82459D01*
G37*
%LPD*%
%LPC*%
G36*
X683165Y288959D02*
X683165Y288959D01*
X682519Y289132D01*
X681940Y289467D01*
X681467Y289940D01*
X681132Y290519D01*
X680959Y291165D01*
X680959Y295001D01*
X686501Y295001D01*
X686501Y288959D01*
X683165Y288959D01*
G37*
%LPD*%
%LPC*%
G36*
X683165Y208959D02*
X683165Y208959D01*
X682519Y209132D01*
X681940Y209467D01*
X681467Y209940D01*
X681132Y210519D01*
X680959Y211165D01*
X680959Y215001D01*
X686501Y215001D01*
X686501Y208959D01*
X683165Y208959D01*
G37*
%LPD*%
%LPC*%
G36*
X400665Y162459D02*
X400665Y162459D01*
X400019Y162632D01*
X399440Y162967D01*
X398967Y163440D01*
X398632Y164019D01*
X398459Y164665D01*
X398459Y168001D01*
X404501Y168001D01*
X404501Y162459D01*
X400665Y162459D01*
G37*
%LPD*%
%LPC*%
G36*
X567793Y227487D02*
X567793Y227487D01*
X567793Y227489D01*
X567795Y227489D01*
X567795Y227487D01*
X567793Y227487D01*
G37*
%LPD*%
%LPC*%
G36*
X66393Y224487D02*
X66393Y224487D01*
X66393Y224489D01*
X66395Y224489D01*
X66395Y224487D01*
X66393Y224487D01*
G37*
%LPD*%
%LPC*%
G36*
X779999Y217299D02*
X779999Y217299D01*
X779999Y217301D01*
X780001Y217301D01*
X780001Y217299D01*
X779999Y217299D01*
G37*
%LPD*%
%LPC*%
G36*
X779999Y297299D02*
X779999Y297299D01*
X779999Y297301D01*
X780001Y297301D01*
X780001Y297299D01*
X779999Y297299D01*
G37*
%LPD*%
%LPC*%
G36*
X76299Y346999D02*
X76299Y346999D01*
X76299Y347001D01*
X76301Y347001D01*
X76301Y346999D01*
X76299Y346999D01*
G37*
%LPD*%
%LPC*%
G36*
X578499Y349999D02*
X578499Y349999D01*
X578499Y350001D01*
X578501Y350001D01*
X578501Y349999D01*
X578499Y349999D01*
G37*
%LPD*%
%LPC*%
G36*
X729999Y217299D02*
X729999Y217299D01*
X729999Y217301D01*
X730001Y217301D01*
X730001Y217299D01*
X729999Y217299D01*
G37*
%LPD*%
%LPC*%
G36*
X729999Y297299D02*
X729999Y297299D01*
X729999Y297301D01*
X730001Y297301D01*
X730001Y297299D01*
X729999Y297299D01*
G37*
%LPD*%
%LPC*%
G36*
X256393Y231487D02*
X256393Y231487D01*
X256393Y231489D01*
X256395Y231489D01*
X256395Y231487D01*
X256393Y231487D01*
G37*
%LPD*%
%LPC*%
G36*
X78599Y112999D02*
X78599Y112999D01*
X78599Y113001D01*
X78601Y113001D01*
X78601Y112999D01*
X78599Y112999D01*
G37*
%LPD*%
%LPC*%
G36*
X209199Y114999D02*
X209199Y114999D01*
X209199Y115001D01*
X209201Y115001D01*
X209201Y114999D01*
X209199Y114999D01*
G37*
%LPD*%
%LPC*%
G36*
X608499Y114999D02*
X608499Y114999D01*
X608499Y115001D01*
X608501Y115001D01*
X608501Y114999D01*
X608499Y114999D01*
G37*
%LPD*%
%LPC*%
G36*
X453499Y50899D02*
X453499Y50899D01*
X453499Y50901D01*
X453501Y50901D01*
X453501Y50899D01*
X453499Y50899D01*
G37*
%LPD*%
%LPC*%
G36*
X256393Y296511D02*
X256393Y296511D01*
X256393Y296513D01*
X256395Y296513D01*
X256395Y296511D01*
X256393Y296511D01*
G37*
%LPD*%
%LPC*%
G36*
X402699Y50899D02*
X402699Y50899D01*
X402699Y50901D01*
X402701Y50901D01*
X402701Y50899D01*
X402699Y50899D01*
G37*
%LPD*%
%LPC*%
G36*
X377299Y50899D02*
X377299Y50899D01*
X377299Y50901D01*
X377301Y50901D01*
X377301Y50899D01*
X377299Y50899D01*
G37*
%LPD*%
%LPC*%
G36*
X351899Y50899D02*
X351899Y50899D01*
X351899Y50901D01*
X351901Y50901D01*
X351901Y50899D01*
X351899Y50899D01*
G37*
%LPD*%
%LPC*%
G36*
X326499Y50899D02*
X326499Y50899D01*
X326499Y50901D01*
X326501Y50901D01*
X326501Y50899D01*
X326499Y50899D01*
G37*
%LPD*%
%LPC*%
G36*
X562999Y469999D02*
X562999Y469999D01*
X562999Y470001D01*
X563001Y470001D01*
X563001Y469999D01*
X562999Y469999D01*
G37*
%LPD*%
%LPC*%
G36*
X392393Y292511D02*
X392393Y292511D01*
X392393Y292513D01*
X392395Y292513D01*
X392395Y292511D01*
X392393Y292511D01*
G37*
%LPD*%
%LPC*%
G36*
X297999Y469999D02*
X297999Y469999D01*
X297999Y470001D01*
X298001Y470001D01*
X298001Y469999D01*
X297999Y469999D01*
G37*
%LPD*%
%LPC*%
G36*
X567793Y292511D02*
X567793Y292511D01*
X567793Y292513D01*
X567795Y292513D01*
X567795Y292511D01*
X567793Y292511D01*
G37*
%LPD*%
%LPC*%
G36*
X317999Y469999D02*
X317999Y469999D01*
X317999Y470001D01*
X318001Y470001D01*
X318001Y469999D01*
X317999Y469999D01*
G37*
%LPD*%
%LPC*%
G36*
X392393Y227487D02*
X392393Y227487D01*
X392393Y227489D01*
X392395Y227489D01*
X392395Y227487D01*
X392393Y227487D01*
G37*
%LPD*%
%LPC*%
G36*
X582999Y469999D02*
X582999Y469999D01*
X582999Y470001D01*
X583001Y470001D01*
X583001Y469999D01*
X582999Y469999D01*
G37*
%LPD*%
%LPC*%
G36*
X66393Y289511D02*
X66393Y289511D01*
X66393Y289513D01*
X66395Y289513D01*
X66395Y289511D01*
X66393Y289511D01*
G37*
%LPD*%
%LPC*%
G36*
X602999Y469999D02*
X602999Y469999D01*
X602999Y470001D01*
X603001Y470001D01*
X603001Y469999D01*
X602999Y469999D01*
G37*
%LPD*%
%LPC*%
G36*
X542999Y469999D02*
X542999Y469999D01*
X542999Y470001D01*
X543001Y470001D01*
X543001Y469999D01*
X542999Y469999D01*
G37*
%LPD*%
%LPC*%
G36*
X428099Y50899D02*
X428099Y50899D01*
X428099Y50901D01*
X428101Y50901D01*
X428101Y50899D01*
X428099Y50899D01*
G37*
%LPD*%
%LPC*%
G36*
X688499Y296999D02*
X688499Y296999D01*
X688499Y297001D01*
X688501Y297001D01*
X688501Y296999D01*
X688499Y296999D01*
G37*
%LPD*%
%LPC*%
G36*
X688499Y216999D02*
X688499Y216999D01*
X688499Y217001D01*
X688501Y217001D01*
X688501Y216999D01*
X688499Y216999D01*
G37*
%LPD*%
D10*
X76300Y339380D02*
X76300Y354620D01*
X101700Y354620D02*
X101700Y339380D01*
X402300Y342380D02*
X402300Y357620D01*
X427700Y357620D02*
X427700Y342380D01*
X578500Y342380D02*
X578500Y357620D01*
X603900Y357620D02*
X603900Y342380D01*
X722380Y217300D02*
X737620Y217300D01*
X737620Y242700D02*
X722380Y242700D01*
X722380Y297300D02*
X737620Y297300D01*
X737620Y322700D02*
X722380Y322700D01*
X772380Y217300D02*
X787620Y217300D01*
X787620Y242700D02*
X772380Y242700D01*
X772380Y297300D02*
X787620Y297300D01*
X787620Y322700D02*
X772380Y322700D01*
X66394Y232108D02*
X66394Y216868D01*
X111606Y216868D02*
X111606Y232108D01*
X66394Y281892D02*
X66394Y297132D01*
X111606Y297132D02*
X111606Y281892D01*
X392394Y235108D02*
X392394Y219868D01*
X437606Y219868D02*
X437606Y235108D01*
X392394Y284892D02*
X392394Y300132D01*
X437606Y300132D02*
X437606Y284892D01*
X567794Y235108D02*
X567794Y219868D01*
X613006Y219868D02*
X613006Y235108D01*
X567794Y284892D02*
X567794Y300132D01*
X613006Y300132D02*
X613006Y284892D01*
X473100Y122620D02*
X473100Y107380D01*
X498500Y107380D02*
X498500Y122620D01*
X523900Y122620D02*
X523900Y107380D01*
X608500Y107380D02*
X608500Y122620D01*
X633900Y122620D02*
X633900Y107380D01*
X659300Y107380D02*
X659300Y122620D01*
X684700Y122620D02*
X684700Y107380D01*
X209200Y107380D02*
X209200Y122620D01*
X234600Y122620D02*
X234600Y107380D01*
X260000Y107380D02*
X260000Y122620D01*
X285400Y122620D02*
X285400Y107380D01*
X310800Y107380D02*
X310800Y122620D01*
X326500Y58520D02*
X326500Y43280D01*
X351900Y43280D02*
X351900Y58520D01*
X377300Y58520D02*
X377300Y43280D01*
X402700Y43280D02*
X402700Y58520D01*
X428100Y58520D02*
X428100Y43280D01*
X453500Y43280D02*
X453500Y58520D01*
D11*
X406500Y170000D03*
X423500Y170000D03*
X406500Y90000D03*
X423500Y90000D03*
X423500Y130000D03*
X406500Y130000D03*
D12*
X150060Y306394D03*
X150060Y325698D03*
X129740Y316046D03*
X176040Y325706D03*
X176040Y306402D03*
X196360Y316054D03*
D13*
X171500Y255600D03*
X154500Y255600D03*
X155000Y377600D03*
X172000Y377600D03*
X688500Y297000D03*
X671500Y297000D03*
X688500Y217000D03*
X671500Y217000D03*
D14*
X672500Y323000D03*
X687500Y323000D03*
X672500Y243000D03*
X687500Y243000D03*
D15*
X218000Y470000D03*
X228000Y490000D03*
X238000Y470000D03*
X248000Y490000D03*
X258000Y470000D03*
X268000Y490000D03*
X278000Y470000D03*
X288000Y490000D03*
X298000Y470000D03*
X308000Y490000D03*
X318000Y470000D03*
X328000Y490000D03*
X338000Y470000D03*
X348000Y490000D03*
X358000Y470000D03*
X483000Y470000D03*
X493000Y490000D03*
X503000Y470000D03*
X513000Y490000D03*
X523000Y470000D03*
X533000Y490000D03*
X543000Y470000D03*
X553000Y490000D03*
X563000Y470000D03*
X573000Y490000D03*
X583000Y470000D03*
X593000Y490000D03*
X603000Y470000D03*
X613000Y490000D03*
X623000Y470000D03*
D10*
X129400Y120620D02*
X129400Y105380D01*
X104000Y105380D02*
X104000Y120620D01*
X78600Y120620D02*
X78600Y105380D01*
X256394Y223868D02*
X256394Y239108D01*
X301606Y239108D02*
X301606Y223868D01*
X256394Y288892D02*
X256394Y304132D01*
X301606Y304132D02*
X301606Y288892D01*
D16*
X111500Y289500D02*
X111500Y224500D01*
X111606Y224488D01*
X111500Y289500D02*
X111606Y289512D01*
X102750Y299500D02*
X102750Y347000D01*
X102750Y299500D02*
X111500Y290750D01*
X102750Y347000D02*
X101700Y347000D01*
X111500Y290750D02*
X111606Y289512D01*
D17*
X130800Y341800D03*
D16*
X129740Y340740D02*
X129740Y316046D01*
X129740Y340740D02*
X130800Y341800D01*
X394000Y130000D02*
X406500Y130000D01*
D17*
X318650Y338250D03*
D16*
X319000Y337900D01*
X319000Y205000D01*
X394000Y130000D01*
X423750Y118750D02*
X423750Y90000D01*
X423500Y90000D01*
X437500Y227500D02*
X437500Y292500D01*
X437606Y292512D01*
X437500Y227500D02*
X437606Y227488D01*
D17*
X423750Y118750D03*
D16*
X196500Y316194D02*
X196500Y371500D01*
X196500Y316194D02*
X196360Y316054D01*
X196500Y388500D02*
X278000Y470000D01*
X196500Y388500D02*
X196500Y371500D01*
X411200Y371500D01*
X427700Y355000D02*
X427700Y350000D01*
X427700Y355000D02*
X411200Y371500D01*
D18*
X568750Y292500D02*
X568750Y227500D01*
D16*
X567794Y227488D01*
X568750Y292500D02*
X567794Y292512D01*
X607500Y187500D02*
X607500Y115000D01*
X607500Y187500D02*
X568750Y226250D01*
X607500Y115000D02*
X608500Y115000D01*
X568750Y226250D02*
X567794Y227488D01*
D18*
X577500Y302500D02*
X577500Y320000D01*
X577500Y302500D02*
X568750Y293750D01*
D16*
X567794Y292512D01*
X66500Y289500D02*
X66500Y224500D01*
X66500Y289500D02*
X66394Y289512D01*
X66500Y224500D02*
X66394Y224488D01*
X66500Y290750D02*
X66500Y338250D01*
X75250Y347000D01*
X66500Y290750D02*
X66394Y289512D01*
X75250Y347000D02*
X76300Y347000D01*
X407500Y113000D02*
X407500Y90000D01*
X423500Y129000D02*
X423500Y130000D01*
X423500Y129000D02*
X407500Y113000D01*
X407500Y90000D02*
X406500Y90000D01*
X407500Y154750D02*
X407500Y170000D01*
X423500Y138750D02*
X423500Y130000D01*
X423500Y138750D02*
X407500Y154750D01*
X407500Y170000D02*
X406500Y170000D01*
X438750Y115000D02*
X473100Y115000D01*
X438750Y115000D02*
X423750Y130000D01*
X423500Y130000D01*
X392500Y227500D02*
X392500Y292500D01*
X392500Y227500D02*
X392394Y227488D01*
X392500Y292500D02*
X392394Y292512D01*
X406250Y212500D02*
X406250Y170000D01*
X406250Y212500D02*
X392500Y226250D01*
X406250Y170000D02*
X406500Y170000D01*
X392500Y226250D02*
X392394Y227488D01*
D17*
X524500Y408600D03*
D16*
X392394Y319000D02*
X392394Y292512D01*
X392394Y319000D02*
X392394Y340094D01*
X402300Y350000D01*
D18*
X730000Y297300D02*
X780000Y297300D01*
X780000Y217300D02*
X730000Y217300D01*
X688800Y217300D01*
X688500Y217000D01*
X688800Y297300D02*
X730000Y297300D01*
X688800Y297300D02*
X688500Y297000D01*
D19*
X640000Y320000D02*
X640000Y270000D01*
X640000Y190000D01*
X702700Y190000D01*
X730000Y217300D01*
X702700Y270000D02*
X730000Y297300D01*
X702700Y270000D02*
X640000Y270000D01*
D18*
X453500Y50900D02*
X428100Y50900D01*
X402700Y50900D01*
X391000Y50900D01*
X377300Y50900D01*
X351900Y50900D01*
X326500Y50900D01*
X222625Y83625D02*
X209200Y97050D01*
X222625Y83625D02*
X255350Y50900D01*
X326500Y50900D01*
X222625Y83625D02*
X103208Y83625D01*
X209200Y97050D02*
X209200Y115000D01*
D16*
X407500Y90000D02*
X407500Y67400D01*
X391000Y50900D01*
D18*
X103208Y83625D02*
X78600Y108233D01*
X78600Y113000D01*
D16*
X256394Y231488D02*
X256394Y296512D01*
D20*
X543000Y424100D02*
X543000Y470000D01*
X543000Y424100D02*
X527500Y408600D01*
X524500Y408600D01*
D21*
X496150Y380250D01*
D22*
X256394Y231488D02*
X209200Y184294D01*
X209200Y115000D01*
D18*
X298000Y470000D02*
X318000Y470000D01*
X563000Y470000D02*
X583000Y470000D01*
X603000Y470000D01*
X563000Y470000D02*
X543000Y470000D01*
D17*
X461000Y446000D03*
D20*
X577500Y320000D02*
X640000Y320000D01*
X578500Y321000D02*
X577500Y320000D01*
X578500Y321000D02*
X578500Y350000D01*
X524500Y408600D02*
X379400Y408600D01*
X318000Y470000D01*
D16*
X434900Y319000D02*
X496150Y380250D01*
X434900Y319000D02*
X392394Y319000D01*
X613750Y292500D02*
X613750Y227500D01*
X613006Y227488D01*
X613750Y292500D02*
X613006Y292512D01*
X459250Y170000D02*
X423500Y170000D01*
X459250Y170000D02*
X485500Y143750D01*
X485500Y104500D01*
X501750Y88250D01*
X673000Y88250D01*
X684700Y99950D02*
X684700Y115000D01*
X684700Y99950D02*
X673000Y88250D01*
X613750Y196750D02*
X613750Y226250D01*
X684700Y125800D02*
X684700Y115000D01*
X684700Y125800D02*
X613750Y196750D01*
X613750Y226250D02*
X613006Y227488D01*
D17*
X526000Y423000D03*
D16*
X529500Y463500D02*
X523000Y470000D01*
X529500Y463500D02*
X529500Y426500D01*
X526000Y423000D01*
D18*
X730000Y322700D02*
X780000Y322700D01*
X687800Y322700D02*
X687500Y323000D01*
X687800Y322700D02*
X730000Y322700D01*
X348000Y480000D02*
X348000Y490000D01*
X348000Y480000D02*
X358000Y470000D01*
X372369Y455631D01*
X422999Y455631D01*
D23*
X422999Y455631D03*
D22*
X104000Y145101D02*
X104000Y113000D01*
X104000Y145101D02*
X42000Y207101D01*
X42000Y349653D01*
X156347Y464000D01*
D24*
X156347Y464000D03*
D17*
X472000Y446865D03*
D16*
X467000Y451865D01*
X467000Y490000D02*
X483000Y506000D01*
X522000Y506000D01*
X533000Y495000D01*
X533000Y490000D01*
X467000Y490000D02*
X467000Y451865D01*
D17*
X449000Y446856D03*
D16*
X449000Y495000D01*
X531000Y523000D02*
X553000Y501000D01*
X553000Y490000D01*
X477000Y523000D02*
X449000Y495000D01*
X477000Y523000D02*
X531000Y523000D01*
X176040Y373560D02*
X176040Y325706D01*
X176040Y373560D02*
X172000Y377600D01*
X150060Y306394D02*
X150060Y260040D01*
X154500Y255600D01*
X150060Y325698D02*
X150060Y355800D01*
X150060Y372660D01*
X155000Y377600D01*
D17*
X150300Y355800D03*
D16*
X150060Y355800D01*
X176040Y306402D02*
X176040Y260140D01*
X171500Y255600D01*
X171500Y268400D01*
X162850Y277050D01*
D17*
X162850Y277050D03*
D18*
X672500Y243000D02*
X672500Y218000D01*
X671500Y217000D01*
X671500Y297000D02*
X671500Y322000D01*
X672500Y323000D01*
D16*
X301606Y296512D02*
X301606Y231488D01*
X301606Y296512D02*
X234118Y364000D01*
X203782Y364000D01*
D17*
X203782Y364000D03*
D16*
X498750Y338750D02*
X498750Y115000D01*
X498500Y115000D01*
X598000Y438000D02*
X620000Y438000D01*
X638000Y456000D01*
X624000Y507000D02*
X605000Y507000D01*
X598000Y438000D02*
X498750Y338750D01*
X638000Y456000D02*
X638000Y493000D01*
X624000Y507000D01*
X605000Y507000D02*
X593000Y495000D01*
X593000Y490000D01*
X524000Y336000D02*
X524000Y115100D01*
X523900Y115000D01*
X629000Y418000D02*
X658000Y447000D01*
X658000Y500000D02*
X634000Y524000D01*
X593000Y524000D02*
X573000Y504000D01*
X573000Y490000D01*
X606000Y418000D02*
X524000Y336000D01*
X606000Y418000D02*
X629000Y418000D01*
X658000Y447000D02*
X658000Y500000D01*
X634000Y524000D02*
X593000Y524000D01*
D18*
X730000Y242700D02*
X780000Y242700D01*
X730000Y242700D02*
X687800Y242700D01*
X687500Y243000D01*
D24*
X615495Y446495D03*
D18*
X623000Y480000D02*
X613000Y490000D01*
X623000Y480000D02*
X623000Y470000D01*
D22*
X623000Y454000D01*
X615495Y446495D01*
X242864Y454500D02*
X157747Y454500D01*
X258000Y469636D02*
X258000Y470000D01*
X258000Y469636D02*
X242864Y454500D01*
X49000Y345753D02*
X49000Y210000D01*
X49000Y345753D02*
X157747Y454500D01*
X49000Y210000D02*
X129400Y129600D01*
X129400Y113000D01*
M02*
