G04 EAGLE Gerber RS-274X export*
G75*
%MOMM*%
%FSLAX34Y34*%
%LPD*%
%INBottom Copper*%
%IPPOS*%
%AMOC8*
5,1,8,0,0,1.08239X$1,22.5*%
G01*
%ADD10R,1.524000X1.524000*%
%ADD11P,1.649562X8X22.500000*%
%ADD12P,1.649562X8X112.500000*%
%ADD13P,1.649562X8X202.500000*%
%ADD14P,1.649562X8X292.500000*%
%ADD15R,1.300000X0.600000*%
%ADD16R,1.800000X2.000000*%
%ADD17C,0.956400*%
%ADD18C,1.600000*%
%ADD19C,0.756400*%
%ADD20C,0.906400*%
%ADD21C,0.800000*%
%ADD22C,0.600000*%
%ADD23C,0.300000*%
%ADD24C,0.806400*%
%ADD25C,0.400000*%
%ADD26C,1.006400*%


D10*
X99000Y687000D03*
D11*
X99000Y661600D03*
X99000Y636200D03*
X99000Y610800D03*
X99000Y585400D03*
X99000Y560000D03*
X99000Y534600D03*
X99000Y509200D03*
X99000Y483800D03*
X99000Y458400D03*
X99000Y433000D03*
D10*
X305000Y99000D03*
D12*
X330400Y99000D03*
X355800Y99000D03*
X381200Y99000D03*
X406600Y99000D03*
X432000Y99000D03*
X457400Y99000D03*
X482800Y99000D03*
X508200Y99000D03*
X533600Y99000D03*
X559000Y99000D03*
X584400Y99000D03*
X609800Y99000D03*
X635200Y99000D03*
D10*
X841000Y253000D03*
D13*
X841000Y278400D03*
X841000Y303800D03*
X841000Y329200D03*
X841000Y354600D03*
X841000Y380000D03*
X841000Y405400D03*
X841000Y430800D03*
X841000Y456200D03*
X841000Y481600D03*
X841000Y507000D03*
D10*
X711300Y841000D03*
D14*
X685900Y841000D03*
X660500Y841000D03*
X635100Y841000D03*
X609700Y841000D03*
X584300Y841000D03*
X558900Y841000D03*
X533500Y841000D03*
X508100Y841000D03*
X482700Y841000D03*
X457300Y841000D03*
X431900Y841000D03*
X406500Y841000D03*
X381100Y841000D03*
X355700Y841000D03*
X330300Y841000D03*
X304900Y841000D03*
X279500Y841000D03*
X254100Y841000D03*
X228700Y841000D03*
D15*
X51500Y260000D03*
X51500Y270000D03*
X51500Y280000D03*
X51500Y290000D03*
X51500Y300000D03*
X51500Y310000D03*
X51500Y320000D03*
X51500Y330000D03*
X51500Y340000D03*
X51500Y350000D03*
X51500Y360000D03*
X51500Y370000D03*
X51500Y380000D03*
X51500Y390000D03*
X51500Y400000D03*
D16*
X28000Y418000D03*
X28000Y242000D03*
D11*
X479500Y182300D03*
X479500Y207700D03*
X479500Y282300D03*
X479500Y307700D03*
X664500Y307700D03*
X664500Y282300D03*
X664500Y207700D03*
X664500Y182300D03*
X249500Y182300D03*
X249500Y207700D03*
X249500Y282300D03*
X249500Y307700D03*
X434500Y307700D03*
X434500Y282300D03*
X434500Y207700D03*
X434500Y182300D03*
D10*
X99000Y361300D03*
D13*
X99000Y386700D03*
D10*
X99000Y278300D03*
D13*
X99000Y303700D03*
D17*
X747000Y695000D03*
D18*
X701000Y126000D03*
D19*
X687000Y642000D03*
D20*
X730000Y496000D03*
X171000Y248000D03*
X513000Y433000D03*
X458000Y648000D03*
X412000Y608000D03*
D21*
X434500Y182300D02*
X457400Y182300D01*
X457400Y99000D01*
X457400Y18262D01*
X706738Y18262D01*
X706738Y78262D01*
X861738Y78262D01*
X861738Y233662D02*
X921750Y233662D01*
X861738Y233662D02*
X861738Y78262D01*
X921750Y233662D02*
X921750Y369218D01*
X920000Y369218D01*
D17*
X920000Y369218D03*
X919968Y390782D03*
D21*
X921750Y390782D01*
X921750Y405400D01*
X921750Y547265D01*
X908965Y547265D01*
X908965Y706738D01*
X861738Y706738D01*
X861738Y861738D01*
X706738Y861738D02*
X706738Y921738D01*
X706738Y861738D02*
X861738Y861738D01*
X706738Y921738D02*
X595082Y921738D01*
X595082Y919956D01*
D17*
X595082Y919956D03*
X573518Y919956D03*
D21*
X573518Y921738D01*
X558900Y921738D01*
X233262Y921738D01*
X233262Y861738D01*
X78262Y861738D01*
X78262Y706738D02*
X18262Y706738D01*
X78262Y706738D02*
X78262Y861738D01*
X18262Y706738D02*
X18262Y570782D01*
X19044Y570782D01*
D17*
X19044Y570782D03*
X445000Y19044D03*
D21*
X841000Y405400D02*
X921750Y405400D01*
X558900Y841000D02*
X558900Y921738D01*
X445000Y19044D02*
X445000Y18262D01*
X457400Y18262D01*
D22*
X63000Y498600D02*
X99000Y534600D01*
X63000Y364929D02*
X58071Y360000D01*
X51500Y360000D01*
X63000Y364929D02*
X63000Y498600D01*
D19*
X397351Y797649D03*
D23*
X425582Y825880D01*
X558900Y835674D02*
X558900Y841000D01*
X558900Y835674D02*
X549106Y825880D01*
X425582Y825880D01*
D19*
X725503Y464497D03*
X805000Y490000D03*
D20*
X610000Y863660D03*
X73000Y585000D03*
D19*
X407000Y77000D03*
X457000Y503000D03*
D23*
X588700Y820000D02*
X609700Y841000D01*
X588700Y820000D02*
X430000Y820000D01*
X405000Y795000D02*
X405000Y785000D01*
X405000Y795000D02*
X430000Y820000D01*
D19*
X405000Y785000D03*
D21*
X428858Y221320D02*
X420880Y213342D01*
X428858Y221320D02*
X440142Y221320D01*
X420880Y185000D02*
X420880Y176658D01*
X420880Y185000D02*
X420880Y213342D01*
X440142Y221320D02*
X453762Y207700D01*
X479500Y207700D01*
X432000Y165538D02*
X432000Y99000D01*
X432000Y165538D02*
X420880Y176658D01*
X479500Y182300D02*
X479500Y207700D01*
X249500Y207700D02*
X249500Y182300D01*
X418180Y182300D01*
X420880Y185000D01*
X99000Y560000D02*
X8262Y560000D01*
X8262Y223262D02*
X63422Y223262D01*
X68262Y218422D01*
X218422Y68262D02*
X223262Y63422D01*
X223262Y10000D02*
X225000Y8262D01*
X716738Y63422D02*
X721578Y68262D01*
X8262Y275000D02*
X8262Y560000D01*
X8262Y275000D02*
X8262Y260000D01*
X8262Y223262D01*
X68262Y218422D02*
X68262Y68262D01*
X218422Y68262D01*
X223262Y63422D02*
X223262Y10000D01*
X225000Y8262D02*
X432000Y8262D01*
X716738Y8262D01*
X716738Y63422D01*
X871738Y223662D02*
X931750Y223662D01*
X931750Y557265D02*
X918965Y557265D01*
X223262Y871738D02*
X223262Y931738D01*
X8250Y716738D02*
X8250Y673262D01*
X8262Y673262D01*
X8262Y560000D01*
X721578Y68262D02*
X871738Y68262D01*
X871738Y223662D01*
X931750Y223662D02*
X931750Y380000D01*
X931750Y557265D01*
X918965Y557265D02*
X918965Y716738D01*
X871738Y716738D01*
X871738Y871738D01*
X716738Y871738D01*
X716738Y931738D01*
X584300Y931738D01*
X223262Y931738D01*
X223262Y871738D02*
X68262Y871738D01*
X68262Y716738D01*
X8250Y716738D01*
X584300Y841000D02*
X584300Y931738D01*
X841000Y380000D02*
X931750Y380000D01*
X432000Y99000D02*
X432000Y8262D01*
D22*
X51500Y270000D02*
X8262Y270000D01*
X8262Y275000D01*
X8262Y260000D02*
X51500Y260000D01*
X51500Y270000D01*
D19*
X411000Y514000D03*
X687000Y617000D03*
X716082Y788000D03*
X769360Y125730D03*
D23*
X769360Y132502D01*
X821000Y184142D01*
X821000Y521000D02*
X825000Y525000D01*
X825000Y772929D01*
X821000Y521000D02*
X821000Y184142D01*
X825000Y772929D02*
X793964Y803964D01*
X756246Y803964D01*
X755000Y802718D01*
D19*
X755000Y802718D03*
X676292Y787718D03*
X154000Y799000D03*
D23*
X680000Y788000D02*
X716082Y788000D01*
X680000Y788000D02*
X676574Y788000D01*
X676292Y787718D01*
X687282Y736799D02*
X687282Y675000D01*
X680000Y744081D02*
X680000Y788000D01*
X680000Y744081D02*
X687282Y736799D01*
X687282Y675000D02*
X695000Y667282D01*
X695000Y623000D02*
X689000Y617000D01*
X687000Y617000D01*
X695000Y623000D02*
X695000Y667282D01*
D19*
X411000Y489000D03*
X687000Y632000D03*
X151000Y779000D03*
X183497Y733503D03*
D23*
X215231Y707769D02*
X224231Y707769D01*
X215231Y707769D02*
X189497Y733503D01*
X183497Y733503D01*
D19*
X224231Y707769D03*
X622000Y490000D03*
D23*
X113858Y350000D02*
X51500Y350000D01*
X113858Y350000D02*
X393140Y629282D01*
X471087Y629282D01*
X610369Y490000D01*
X622000Y490000D01*
X627282Y495282D02*
X627282Y548349D01*
X620718Y554913D01*
X627282Y495282D02*
X622000Y490000D01*
D19*
X675000Y661000D03*
D23*
X620718Y602718D02*
X620718Y554913D01*
X675000Y657000D02*
X675000Y661000D01*
X675000Y657000D02*
X620718Y602718D01*
D19*
X747000Y667718D03*
D23*
X740500Y674218D01*
X698516Y674218D01*
D19*
X698516Y674218D03*
X634000Y490000D03*
X674728Y682000D03*
D23*
X634000Y548702D02*
X634000Y490000D01*
X634000Y548702D02*
X625718Y556984D01*
X676728Y680000D02*
X674728Y682000D01*
X676728Y680000D02*
X676728Y670000D01*
D19*
X694864Y683136D03*
D23*
X744864Y683136D01*
X747000Y681000D01*
D19*
X747000Y681000D03*
D23*
X625718Y599789D02*
X625718Y556984D01*
X685000Y661728D02*
X676728Y670000D01*
X685000Y661728D02*
X685000Y659071D01*
X625718Y599789D01*
D19*
X456000Y617000D03*
D23*
X395000Y617000D01*
X68000Y290000D02*
X51500Y290000D01*
X68000Y290000D02*
X395000Y617000D01*
X65000Y330000D02*
X51500Y330000D01*
D19*
X65000Y330000D03*
X472000Y52000D03*
D23*
X621192Y52000D01*
D19*
X687000Y605000D03*
D23*
X666718Y595016D02*
X666718Y575984D01*
X695000Y547702D01*
X687000Y605000D02*
X676702Y605000D01*
X666718Y595016D01*
X653500Y84308D02*
X621192Y52000D01*
X653500Y129764D02*
X695000Y171264D01*
X653500Y129764D02*
X653500Y84308D01*
X695000Y171264D02*
X695000Y547702D01*
X65000Y310000D02*
X51500Y310000D01*
D19*
X65000Y310000D03*
X472000Y41000D03*
D23*
X700000Y580000D02*
X688000Y592000D01*
X687000Y592000D01*
D19*
X687000Y592000D03*
D23*
X478000Y47000D02*
X472000Y41000D01*
X478000Y47000D02*
X623264Y47000D01*
X658500Y82237D02*
X658500Y127692D01*
X700000Y169192D01*
X658500Y82237D02*
X623264Y47000D01*
X700000Y169192D02*
X700000Y580000D01*
D19*
X678000Y466000D03*
D23*
X469016Y624282D02*
X395211Y624282D01*
X627298Y466000D02*
X678000Y466000D01*
X627298Y466000D02*
X469016Y624282D01*
X110929Y340000D02*
X51500Y340000D01*
X110929Y340000D02*
X395211Y624282D01*
D19*
X715000Y765000D03*
D23*
X775000Y705000D01*
X775000Y628218D02*
X730000Y583218D01*
D19*
X730000Y583218D03*
D23*
X775000Y628218D02*
X775000Y705000D01*
D19*
X620000Y545000D03*
D23*
X562441Y545000D01*
X473159Y634282D02*
X460000Y634282D01*
X381100Y713182D01*
X381100Y841000D01*
X473159Y634282D02*
X562441Y545000D01*
D19*
X687000Y503000D03*
X687000Y515000D03*
X457000Y478000D03*
X799000Y591000D03*
X610000Y522782D03*
X799000Y602000D03*
X457000Y491000D03*
X807000Y635000D03*
X620000Y531000D03*
X799000Y613000D03*
X509334Y609334D03*
D23*
X390000Y824500D02*
X406500Y841000D01*
X390000Y728668D02*
X509334Y609334D01*
X390000Y728668D02*
X390000Y824500D01*
D21*
X664500Y182300D02*
X664500Y154000D01*
X482800Y154000D02*
X482800Y99000D01*
X482800Y154000D02*
X664500Y154000D01*
X664500Y182300D02*
X664500Y207700D01*
D17*
X20000Y549218D03*
D21*
X20000Y523818D01*
D17*
X20000Y523818D03*
D22*
X19044Y280000D02*
X51500Y280000D01*
D17*
X19044Y280000D03*
D24*
X625000Y820000D03*
X700000Y815000D03*
X730000Y693000D03*
D19*
X689000Y749000D03*
X150000Y195000D03*
D25*
X110000Y195000D01*
X65000Y240000D01*
D19*
X65000Y240000D03*
X130000Y760000D03*
D25*
X95654Y760000D01*
X90654Y755000D01*
D19*
X90654Y755000D03*
X430000Y370000D03*
X550000Y343782D03*
X530000Y805718D03*
D25*
X445718Y805718D01*
X415000Y775000D02*
X415000Y720000D01*
D19*
X415000Y720000D03*
D25*
X415000Y775000D02*
X445718Y805718D01*
D19*
X830000Y120000D03*
X838718Y135000D03*
X831436Y142244D03*
X819154Y142452D03*
D23*
X533600Y138286D02*
X533600Y99000D01*
X533600Y138286D02*
X530000Y141886D01*
D19*
X530000Y141886D03*
X215731Y699269D03*
D23*
X191260Y723740D01*
X182735Y723740D01*
D19*
X182735Y723740D03*
X125000Y775000D03*
D25*
X112000Y700000D02*
X99000Y687000D01*
X112000Y700000D02*
X120000Y700000D01*
D19*
X120000Y700000D03*
X621540Y791540D03*
D25*
X120000Y682600D02*
X99000Y661600D01*
X120000Y682600D02*
X120000Y690000D01*
D19*
X120000Y690000D03*
X615000Y783758D03*
D25*
X120000Y657200D02*
X99000Y636200D01*
X120000Y657200D02*
X120000Y670000D01*
D19*
X120000Y670000D03*
X618876Y773877D03*
D25*
X120000Y631800D02*
X99000Y610800D01*
X120000Y631800D02*
X120000Y645000D01*
D19*
X120000Y645000D03*
X610000Y766095D03*
X735000Y110000D03*
D23*
X733000Y108000D01*
X702314Y108000D01*
X685710Y124604D01*
X685710Y144604D01*
D19*
X685710Y144604D03*
X678428Y137322D03*
X795000Y88044D03*
D23*
X679428Y136322D02*
X678428Y137322D01*
X679428Y136322D02*
X679428Y123815D01*
X700525Y102718D02*
X780326Y102718D01*
X795000Y88044D01*
X700525Y102718D02*
X679428Y123815D01*
D19*
X672146Y130040D03*
X784702Y88044D03*
D23*
X674146Y128040D02*
X672146Y130040D01*
X674146Y128040D02*
X674146Y122026D01*
X698454Y97718D01*
X775028Y97718D02*
X784702Y88044D01*
X775028Y97718D02*
X698454Y97718D01*
D19*
X666782Y121676D03*
X774403Y88044D03*
D23*
X769729Y92718D01*
X695740Y92718D02*
X666782Y121676D01*
X695740Y92718D02*
X769729Y92718D01*
D19*
X760000Y121564D03*
D23*
X760000Y131071D01*
X815880Y186951D01*
X815880Y522951D02*
X818964Y526036D01*
X815880Y522951D02*
X815880Y186951D01*
X818964Y771893D02*
X792929Y797929D01*
X760736Y797929D01*
X756490Y793682D01*
X751490Y793682D01*
D19*
X751490Y793682D03*
D23*
X818964Y771893D02*
X818964Y526036D01*
D19*
X669000Y799000D03*
X155000Y789436D03*
D23*
X746172Y799000D02*
X751490Y793682D01*
X746172Y799000D02*
X669000Y799000D01*
D19*
X633000Y560000D03*
D23*
X633000Y598000D01*
X678000Y643000D01*
X678000Y644990D01*
X674356Y779356D02*
X669010Y784702D01*
X669010Y798990D02*
X669000Y799000D01*
X669010Y798990D02*
X669010Y784702D01*
X674356Y779356D02*
X674356Y742654D01*
X682010Y735000D01*
X690000Y656990D02*
X678000Y644990D01*
X690000Y665211D02*
X682010Y673201D01*
X682010Y735000D01*
X690000Y665211D02*
X690000Y656990D01*
D19*
X423000Y514000D03*
X684000Y582000D03*
X410000Y418000D03*
X456000Y556000D03*
X425564Y465000D03*
X430000Y410000D03*
D23*
X559000Y123184D02*
X559000Y99000D01*
X559000Y123184D02*
X540298Y141886D01*
D19*
X540298Y141886D03*
X226295Y697205D03*
X195000Y760000D03*
D23*
X195000Y735298D01*
X215247Y715051D01*
X227247Y715051D02*
X231513Y710786D01*
X231513Y702753D01*
X226295Y697535D02*
X226295Y697205D01*
X226295Y697535D02*
X231513Y702753D01*
X227247Y715051D02*
X215247Y715051D01*
D19*
X410000Y387000D03*
X456000Y544000D03*
X715000Y465000D03*
X745000Y495000D03*
X709000Y693000D03*
X775000Y750000D03*
X474000Y252000D03*
X484000Y252000D03*
X474000Y242000D03*
X484000Y242000D03*
X474000Y232000D03*
X484000Y232000D03*
X550000Y247000D03*
X560000Y247000D03*
X570000Y247000D03*
X580000Y247000D03*
X590000Y247000D03*
X550000Y237000D03*
X560000Y237000D03*
X570000Y237000D03*
X580000Y237000D03*
X590000Y237000D03*
X244000Y252000D03*
X254000Y252000D03*
X244000Y242000D03*
X254000Y242000D03*
X244000Y232000D03*
X254000Y232000D03*
X320000Y247000D03*
X330000Y247000D03*
X340000Y247000D03*
X350000Y247000D03*
X330000Y237000D03*
X340000Y237000D03*
X350000Y237000D03*
X320000Y237000D03*
X360000Y247000D03*
X360000Y237000D03*
D22*
X51500Y300000D02*
X35000Y300000D01*
D20*
X35000Y300000D03*
X35000Y320000D03*
D22*
X51500Y320000D01*
D19*
X786000Y749000D03*
X409495Y550505D03*
D23*
X379523Y550505D01*
X365018Y536000D01*
D19*
X365018Y536000D03*
X171000Y230000D03*
X531700Y284500D03*
D25*
X514100Y266900D01*
X514100Y198100D01*
D19*
X514100Y198100D03*
X301700Y284500D03*
D25*
X284100Y266900D01*
X284100Y198100D01*
D19*
X284100Y198100D03*
D26*
X174000Y361000D03*
X174000Y514000D03*
X174000Y666000D03*
X174000Y641000D03*
X174000Y615000D03*
X174000Y539000D03*
X366000Y666000D03*
X366000Y615000D03*
X366000Y362000D03*
D24*
X745000Y810000D03*
D23*
X795000Y810000D01*
X830000Y775000D01*
X826880Y182880D02*
X778000Y134000D01*
X778000Y122000D01*
X768000Y112000D01*
X763000Y112000D01*
D19*
X763000Y112000D03*
D23*
X830000Y521726D02*
X830000Y775000D01*
X830000Y521726D02*
X826880Y518606D01*
X826880Y182880D01*
D19*
X681918Y811718D03*
X155000Y820000D03*
M02*
