G04 EAGLE Gerber RS-274X export*
G75*
%MOMM*%
%FSLAX34Y34*%
%LPD*%
%IN*%
%IPPOS*%
%AMOC8*
5,1,8,0,0,1.08239X$1,22.5*%
G01*
%ADD10C,0.000000*%
%ADD11C,0.152400*%
%ADD12C,0.150000*%
%ADD13C,0.127000*%
%ADD14C,0.254000*%


D10*
X732500Y210000D02*
X732510Y210798D01*
X732539Y211595D01*
X732588Y212391D01*
X732656Y213186D01*
X732744Y213978D01*
X732852Y214769D01*
X732978Y215556D01*
X733124Y216340D01*
X733290Y217121D01*
X733474Y217897D01*
X733677Y218668D01*
X733899Y219434D01*
X734140Y220195D01*
X734400Y220949D01*
X734678Y221697D01*
X734974Y222437D01*
X735288Y223170D01*
X735620Y223896D01*
X735970Y224612D01*
X736338Y225320D01*
X736722Y226019D01*
X737124Y226708D01*
X737542Y227387D01*
X737977Y228056D01*
X738428Y228714D01*
X738896Y229360D01*
X739379Y229995D01*
X739877Y230618D01*
X740391Y231228D01*
X740919Y231826D01*
X741462Y232410D01*
X742019Y232981D01*
X742590Y233538D01*
X743174Y234081D01*
X743772Y234609D01*
X744382Y235123D01*
X745005Y235621D01*
X745640Y236104D01*
X746286Y236572D01*
X746944Y237023D01*
X747613Y237458D01*
X748292Y237876D01*
X748981Y238278D01*
X749680Y238662D01*
X750388Y239030D01*
X751104Y239380D01*
X751830Y239712D01*
X752563Y240026D01*
X753303Y240322D01*
X754051Y240600D01*
X754805Y240860D01*
X755566Y241101D01*
X756332Y241323D01*
X757103Y241526D01*
X757879Y241710D01*
X758660Y241876D01*
X759444Y242022D01*
X760231Y242148D01*
X761022Y242256D01*
X761814Y242344D01*
X762609Y242412D01*
X763405Y242461D01*
X764202Y242490D01*
X765000Y242500D01*
X765798Y242490D01*
X766595Y242461D01*
X767391Y242412D01*
X768186Y242344D01*
X768978Y242256D01*
X769769Y242148D01*
X770556Y242022D01*
X771340Y241876D01*
X772121Y241710D01*
X772897Y241526D01*
X773668Y241323D01*
X774434Y241101D01*
X775195Y240860D01*
X775949Y240600D01*
X776697Y240322D01*
X777437Y240026D01*
X778170Y239712D01*
X778896Y239380D01*
X779612Y239030D01*
X780320Y238662D01*
X781019Y238278D01*
X781708Y237876D01*
X782387Y237458D01*
X783056Y237023D01*
X783714Y236572D01*
X784360Y236104D01*
X784995Y235621D01*
X785618Y235123D01*
X786228Y234609D01*
X786826Y234081D01*
X787410Y233538D01*
X787981Y232981D01*
X788538Y232410D01*
X789081Y231826D01*
X789609Y231228D01*
X790123Y230618D01*
X790621Y229995D01*
X791104Y229360D01*
X791572Y228714D01*
X792023Y228056D01*
X792458Y227387D01*
X792876Y226708D01*
X793278Y226019D01*
X793662Y225320D01*
X794030Y224612D01*
X794380Y223896D01*
X794712Y223170D01*
X795026Y222437D01*
X795322Y221697D01*
X795600Y220949D01*
X795860Y220195D01*
X796101Y219434D01*
X796323Y218668D01*
X796526Y217897D01*
X796710Y217121D01*
X796876Y216340D01*
X797022Y215556D01*
X797148Y214769D01*
X797256Y213978D01*
X797344Y213186D01*
X797412Y212391D01*
X797461Y211595D01*
X797490Y210798D01*
X797500Y210000D01*
X797490Y209202D01*
X797461Y208405D01*
X797412Y207609D01*
X797344Y206814D01*
X797256Y206022D01*
X797148Y205231D01*
X797022Y204444D01*
X796876Y203660D01*
X796710Y202879D01*
X796526Y202103D01*
X796323Y201332D01*
X796101Y200566D01*
X795860Y199805D01*
X795600Y199051D01*
X795322Y198303D01*
X795026Y197563D01*
X794712Y196830D01*
X794380Y196104D01*
X794030Y195388D01*
X793662Y194680D01*
X793278Y193981D01*
X792876Y193292D01*
X792458Y192613D01*
X792023Y191944D01*
X791572Y191286D01*
X791104Y190640D01*
X790621Y190005D01*
X790123Y189382D01*
X789609Y188772D01*
X789081Y188174D01*
X788538Y187590D01*
X787981Y187019D01*
X787410Y186462D01*
X786826Y185919D01*
X786228Y185391D01*
X785618Y184877D01*
X784995Y184379D01*
X784360Y183896D01*
X783714Y183428D01*
X783056Y182977D01*
X782387Y182542D01*
X781708Y182124D01*
X781019Y181722D01*
X780320Y181338D01*
X779612Y180970D01*
X778896Y180620D01*
X778170Y180288D01*
X777437Y179974D01*
X776697Y179678D01*
X775949Y179400D01*
X775195Y179140D01*
X774434Y178899D01*
X773668Y178677D01*
X772897Y178474D01*
X772121Y178290D01*
X771340Y178124D01*
X770556Y177978D01*
X769769Y177852D01*
X768978Y177744D01*
X768186Y177656D01*
X767391Y177588D01*
X766595Y177539D01*
X765798Y177510D01*
X765000Y177500D01*
X764202Y177510D01*
X763405Y177539D01*
X762609Y177588D01*
X761814Y177656D01*
X761022Y177744D01*
X760231Y177852D01*
X759444Y177978D01*
X758660Y178124D01*
X757879Y178290D01*
X757103Y178474D01*
X756332Y178677D01*
X755566Y178899D01*
X754805Y179140D01*
X754051Y179400D01*
X753303Y179678D01*
X752563Y179974D01*
X751830Y180288D01*
X751104Y180620D01*
X750388Y180970D01*
X749680Y181338D01*
X748981Y181722D01*
X748292Y182124D01*
X747613Y182542D01*
X746944Y182977D01*
X746286Y183428D01*
X745640Y183896D01*
X745005Y184379D01*
X744382Y184877D01*
X743772Y185391D01*
X743174Y185919D01*
X742590Y186462D01*
X742019Y187019D01*
X741462Y187590D01*
X740919Y188174D01*
X740391Y188772D01*
X739877Y189382D01*
X739379Y190005D01*
X738896Y190640D01*
X738428Y191286D01*
X737977Y191944D01*
X737542Y192613D01*
X737124Y193292D01*
X736722Y193981D01*
X736338Y194680D01*
X735970Y195388D01*
X735620Y196104D01*
X735288Y196830D01*
X734974Y197563D01*
X734678Y198303D01*
X734400Y199051D01*
X734140Y199805D01*
X733899Y200566D01*
X733677Y201332D01*
X733474Y202103D01*
X733290Y202879D01*
X733124Y203660D01*
X732978Y204444D01*
X732852Y205231D01*
X732744Y206022D01*
X732656Y206814D01*
X732588Y207609D01*
X732539Y208405D01*
X732510Y209202D01*
X732500Y210000D01*
D11*
X725000Y0D02*
X215000Y0D01*
X725000Y0D02*
X725000Y60000D01*
X880000Y60000D01*
X880000Y215000D01*
X940000Y215000D01*
X940000Y725000D02*
X880000Y725000D01*
X880000Y880000D01*
X725000Y880000D01*
X725000Y940000D01*
X215000Y940000D01*
X215000Y880000D01*
X60000Y880000D01*
X60000Y725000D01*
X0Y725000D01*
X0Y215000D02*
X60000Y215000D01*
X60000Y60000D01*
X215000Y60000D01*
X215000Y0D01*
D10*
X87500Y100000D02*
X87504Y100307D01*
X87515Y100613D01*
X87534Y100920D01*
X87560Y101225D01*
X87594Y101530D01*
X87635Y101834D01*
X87684Y102137D01*
X87740Y102439D01*
X87804Y102739D01*
X87875Y103037D01*
X87953Y103334D01*
X88038Y103629D01*
X88131Y103921D01*
X88231Y104211D01*
X88338Y104499D01*
X88452Y104784D01*
X88572Y105066D01*
X88700Y105344D01*
X88835Y105620D01*
X88976Y105892D01*
X89124Y106161D01*
X89278Y106426D01*
X89439Y106687D01*
X89607Y106945D01*
X89780Y107198D01*
X89960Y107446D01*
X90146Y107690D01*
X90337Y107930D01*
X90535Y108165D01*
X90738Y108394D01*
X90947Y108619D01*
X91161Y108839D01*
X91381Y109053D01*
X91606Y109262D01*
X91835Y109465D01*
X92070Y109663D01*
X92310Y109854D01*
X92554Y110040D01*
X92802Y110220D01*
X93055Y110393D01*
X93313Y110561D01*
X93574Y110722D01*
X93839Y110876D01*
X94108Y111024D01*
X94380Y111165D01*
X94656Y111300D01*
X94934Y111428D01*
X95216Y111548D01*
X95501Y111662D01*
X95789Y111769D01*
X96079Y111869D01*
X96371Y111962D01*
X96666Y112047D01*
X96963Y112125D01*
X97261Y112196D01*
X97561Y112260D01*
X97863Y112316D01*
X98166Y112365D01*
X98470Y112406D01*
X98775Y112440D01*
X99080Y112466D01*
X99387Y112485D01*
X99693Y112496D01*
X100000Y112500D01*
X100307Y112496D01*
X100613Y112485D01*
X100920Y112466D01*
X101225Y112440D01*
X101530Y112406D01*
X101834Y112365D01*
X102137Y112316D01*
X102439Y112260D01*
X102739Y112196D01*
X103037Y112125D01*
X103334Y112047D01*
X103629Y111962D01*
X103921Y111869D01*
X104211Y111769D01*
X104499Y111662D01*
X104784Y111548D01*
X105066Y111428D01*
X105344Y111300D01*
X105620Y111165D01*
X105892Y111024D01*
X106161Y110876D01*
X106426Y110722D01*
X106687Y110561D01*
X106945Y110393D01*
X107198Y110220D01*
X107446Y110040D01*
X107690Y109854D01*
X107930Y109663D01*
X108165Y109465D01*
X108394Y109262D01*
X108619Y109053D01*
X108839Y108839D01*
X109053Y108619D01*
X109262Y108394D01*
X109465Y108165D01*
X109663Y107930D01*
X109854Y107690D01*
X110040Y107446D01*
X110220Y107198D01*
X110393Y106945D01*
X110561Y106687D01*
X110722Y106426D01*
X110876Y106161D01*
X111024Y105892D01*
X111165Y105620D01*
X111300Y105344D01*
X111428Y105066D01*
X111548Y104784D01*
X111662Y104499D01*
X111769Y104211D01*
X111869Y103921D01*
X111962Y103629D01*
X112047Y103334D01*
X112125Y103037D01*
X112196Y102739D01*
X112260Y102439D01*
X112316Y102137D01*
X112365Y101834D01*
X112406Y101530D01*
X112440Y101225D01*
X112466Y100920D01*
X112485Y100613D01*
X112496Y100307D01*
X112500Y100000D01*
X112496Y99693D01*
X112485Y99387D01*
X112466Y99080D01*
X112440Y98775D01*
X112406Y98470D01*
X112365Y98166D01*
X112316Y97863D01*
X112260Y97561D01*
X112196Y97261D01*
X112125Y96963D01*
X112047Y96666D01*
X111962Y96371D01*
X111869Y96079D01*
X111769Y95789D01*
X111662Y95501D01*
X111548Y95216D01*
X111428Y94934D01*
X111300Y94656D01*
X111165Y94380D01*
X111024Y94108D01*
X110876Y93839D01*
X110722Y93574D01*
X110561Y93313D01*
X110393Y93055D01*
X110220Y92802D01*
X110040Y92554D01*
X109854Y92310D01*
X109663Y92070D01*
X109465Y91835D01*
X109262Y91606D01*
X109053Y91381D01*
X108839Y91161D01*
X108619Y90947D01*
X108394Y90738D01*
X108165Y90535D01*
X107930Y90337D01*
X107690Y90146D01*
X107446Y89960D01*
X107198Y89780D01*
X106945Y89607D01*
X106687Y89439D01*
X106426Y89278D01*
X106161Y89124D01*
X105892Y88976D01*
X105620Y88835D01*
X105344Y88700D01*
X105066Y88572D01*
X104784Y88452D01*
X104499Y88338D01*
X104211Y88231D01*
X103921Y88131D01*
X103629Y88038D01*
X103334Y87953D01*
X103037Y87875D01*
X102739Y87804D01*
X102439Y87740D01*
X102137Y87684D01*
X101834Y87635D01*
X101530Y87594D01*
X101225Y87560D01*
X100920Y87534D01*
X100613Y87515D01*
X100307Y87504D01*
X100000Y87500D01*
X99693Y87504D01*
X99387Y87515D01*
X99080Y87534D01*
X98775Y87560D01*
X98470Y87594D01*
X98166Y87635D01*
X97863Y87684D01*
X97561Y87740D01*
X97261Y87804D01*
X96963Y87875D01*
X96666Y87953D01*
X96371Y88038D01*
X96079Y88131D01*
X95789Y88231D01*
X95501Y88338D01*
X95216Y88452D01*
X94934Y88572D01*
X94656Y88700D01*
X94380Y88835D01*
X94108Y88976D01*
X93839Y89124D01*
X93574Y89278D01*
X93313Y89439D01*
X93055Y89607D01*
X92802Y89780D01*
X92554Y89960D01*
X92310Y90146D01*
X92070Y90337D01*
X91835Y90535D01*
X91606Y90738D01*
X91381Y90947D01*
X91161Y91161D01*
X90947Y91381D01*
X90738Y91606D01*
X90535Y91835D01*
X90337Y92070D01*
X90146Y92310D01*
X89960Y92554D01*
X89780Y92802D01*
X89607Y93055D01*
X89439Y93313D01*
X89278Y93574D01*
X89124Y93839D01*
X88976Y94108D01*
X88835Y94380D01*
X88700Y94656D01*
X88572Y94934D01*
X88452Y95216D01*
X88338Y95501D01*
X88231Y95789D01*
X88131Y96079D01*
X88038Y96371D01*
X87953Y96666D01*
X87875Y96963D01*
X87804Y97261D01*
X87740Y97561D01*
X87684Y97863D01*
X87635Y98166D01*
X87594Y98470D01*
X87560Y98775D01*
X87534Y99080D01*
X87515Y99387D01*
X87504Y99693D01*
X87500Y100000D01*
X827500Y840000D02*
X827504Y840307D01*
X827515Y840613D01*
X827534Y840920D01*
X827560Y841225D01*
X827594Y841530D01*
X827635Y841834D01*
X827684Y842137D01*
X827740Y842439D01*
X827804Y842739D01*
X827875Y843037D01*
X827953Y843334D01*
X828038Y843629D01*
X828131Y843921D01*
X828231Y844211D01*
X828338Y844499D01*
X828452Y844784D01*
X828572Y845066D01*
X828700Y845344D01*
X828835Y845620D01*
X828976Y845892D01*
X829124Y846161D01*
X829278Y846426D01*
X829439Y846687D01*
X829607Y846945D01*
X829780Y847198D01*
X829960Y847446D01*
X830146Y847690D01*
X830337Y847930D01*
X830535Y848165D01*
X830738Y848394D01*
X830947Y848619D01*
X831161Y848839D01*
X831381Y849053D01*
X831606Y849262D01*
X831835Y849465D01*
X832070Y849663D01*
X832310Y849854D01*
X832554Y850040D01*
X832802Y850220D01*
X833055Y850393D01*
X833313Y850561D01*
X833574Y850722D01*
X833839Y850876D01*
X834108Y851024D01*
X834380Y851165D01*
X834656Y851300D01*
X834934Y851428D01*
X835216Y851548D01*
X835501Y851662D01*
X835789Y851769D01*
X836079Y851869D01*
X836371Y851962D01*
X836666Y852047D01*
X836963Y852125D01*
X837261Y852196D01*
X837561Y852260D01*
X837863Y852316D01*
X838166Y852365D01*
X838470Y852406D01*
X838775Y852440D01*
X839080Y852466D01*
X839387Y852485D01*
X839693Y852496D01*
X840000Y852500D01*
X840307Y852496D01*
X840613Y852485D01*
X840920Y852466D01*
X841225Y852440D01*
X841530Y852406D01*
X841834Y852365D01*
X842137Y852316D01*
X842439Y852260D01*
X842739Y852196D01*
X843037Y852125D01*
X843334Y852047D01*
X843629Y851962D01*
X843921Y851869D01*
X844211Y851769D01*
X844499Y851662D01*
X844784Y851548D01*
X845066Y851428D01*
X845344Y851300D01*
X845620Y851165D01*
X845892Y851024D01*
X846161Y850876D01*
X846426Y850722D01*
X846687Y850561D01*
X846945Y850393D01*
X847198Y850220D01*
X847446Y850040D01*
X847690Y849854D01*
X847930Y849663D01*
X848165Y849465D01*
X848394Y849262D01*
X848619Y849053D01*
X848839Y848839D01*
X849053Y848619D01*
X849262Y848394D01*
X849465Y848165D01*
X849663Y847930D01*
X849854Y847690D01*
X850040Y847446D01*
X850220Y847198D01*
X850393Y846945D01*
X850561Y846687D01*
X850722Y846426D01*
X850876Y846161D01*
X851024Y845892D01*
X851165Y845620D01*
X851300Y845344D01*
X851428Y845066D01*
X851548Y844784D01*
X851662Y844499D01*
X851769Y844211D01*
X851869Y843921D01*
X851962Y843629D01*
X852047Y843334D01*
X852125Y843037D01*
X852196Y842739D01*
X852260Y842439D01*
X852316Y842137D01*
X852365Y841834D01*
X852406Y841530D01*
X852440Y841225D01*
X852466Y840920D01*
X852485Y840613D01*
X852496Y840307D01*
X852500Y840000D01*
X852496Y839693D01*
X852485Y839387D01*
X852466Y839080D01*
X852440Y838775D01*
X852406Y838470D01*
X852365Y838166D01*
X852316Y837863D01*
X852260Y837561D01*
X852196Y837261D01*
X852125Y836963D01*
X852047Y836666D01*
X851962Y836371D01*
X851869Y836079D01*
X851769Y835789D01*
X851662Y835501D01*
X851548Y835216D01*
X851428Y834934D01*
X851300Y834656D01*
X851165Y834380D01*
X851024Y834108D01*
X850876Y833839D01*
X850722Y833574D01*
X850561Y833313D01*
X850393Y833055D01*
X850220Y832802D01*
X850040Y832554D01*
X849854Y832310D01*
X849663Y832070D01*
X849465Y831835D01*
X849262Y831606D01*
X849053Y831381D01*
X848839Y831161D01*
X848619Y830947D01*
X848394Y830738D01*
X848165Y830535D01*
X847930Y830337D01*
X847690Y830146D01*
X847446Y829960D01*
X847198Y829780D01*
X846945Y829607D01*
X846687Y829439D01*
X846426Y829278D01*
X846161Y829124D01*
X845892Y828976D01*
X845620Y828835D01*
X845344Y828700D01*
X845066Y828572D01*
X844784Y828452D01*
X844499Y828338D01*
X844211Y828231D01*
X843921Y828131D01*
X843629Y828038D01*
X843334Y827953D01*
X843037Y827875D01*
X842739Y827804D01*
X842439Y827740D01*
X842137Y827684D01*
X841834Y827635D01*
X841530Y827594D01*
X841225Y827560D01*
X840920Y827534D01*
X840613Y827515D01*
X840307Y827504D01*
X840000Y827500D01*
X839693Y827504D01*
X839387Y827515D01*
X839080Y827534D01*
X838775Y827560D01*
X838470Y827594D01*
X838166Y827635D01*
X837863Y827684D01*
X837561Y827740D01*
X837261Y827804D01*
X836963Y827875D01*
X836666Y827953D01*
X836371Y828038D01*
X836079Y828131D01*
X835789Y828231D01*
X835501Y828338D01*
X835216Y828452D01*
X834934Y828572D01*
X834656Y828700D01*
X834380Y828835D01*
X834108Y828976D01*
X833839Y829124D01*
X833574Y829278D01*
X833313Y829439D01*
X833055Y829607D01*
X832802Y829780D01*
X832554Y829960D01*
X832310Y830146D01*
X832070Y830337D01*
X831835Y830535D01*
X831606Y830738D01*
X831381Y830947D01*
X831161Y831161D01*
X830947Y831381D01*
X830738Y831606D01*
X830535Y831835D01*
X830337Y832070D01*
X830146Y832310D01*
X829960Y832554D01*
X829780Y832802D01*
X829607Y833055D01*
X829439Y833313D01*
X829278Y833574D01*
X829124Y833839D01*
X828976Y834108D01*
X828835Y834380D01*
X828700Y834656D01*
X828572Y834934D01*
X828452Y835216D01*
X828338Y835501D01*
X828231Y835789D01*
X828131Y836079D01*
X828038Y836371D01*
X827953Y836666D01*
X827875Y836963D01*
X827804Y837261D01*
X827740Y837561D01*
X827684Y837863D01*
X827635Y838166D01*
X827594Y838470D01*
X827560Y838775D01*
X827534Y839080D01*
X827515Y839387D01*
X827504Y839693D01*
X827500Y840000D01*
X87500Y840000D02*
X87504Y840307D01*
X87515Y840613D01*
X87534Y840920D01*
X87560Y841225D01*
X87594Y841530D01*
X87635Y841834D01*
X87684Y842137D01*
X87740Y842439D01*
X87804Y842739D01*
X87875Y843037D01*
X87953Y843334D01*
X88038Y843629D01*
X88131Y843921D01*
X88231Y844211D01*
X88338Y844499D01*
X88452Y844784D01*
X88572Y845066D01*
X88700Y845344D01*
X88835Y845620D01*
X88976Y845892D01*
X89124Y846161D01*
X89278Y846426D01*
X89439Y846687D01*
X89607Y846945D01*
X89780Y847198D01*
X89960Y847446D01*
X90146Y847690D01*
X90337Y847930D01*
X90535Y848165D01*
X90738Y848394D01*
X90947Y848619D01*
X91161Y848839D01*
X91381Y849053D01*
X91606Y849262D01*
X91835Y849465D01*
X92070Y849663D01*
X92310Y849854D01*
X92554Y850040D01*
X92802Y850220D01*
X93055Y850393D01*
X93313Y850561D01*
X93574Y850722D01*
X93839Y850876D01*
X94108Y851024D01*
X94380Y851165D01*
X94656Y851300D01*
X94934Y851428D01*
X95216Y851548D01*
X95501Y851662D01*
X95789Y851769D01*
X96079Y851869D01*
X96371Y851962D01*
X96666Y852047D01*
X96963Y852125D01*
X97261Y852196D01*
X97561Y852260D01*
X97863Y852316D01*
X98166Y852365D01*
X98470Y852406D01*
X98775Y852440D01*
X99080Y852466D01*
X99387Y852485D01*
X99693Y852496D01*
X100000Y852500D01*
X100307Y852496D01*
X100613Y852485D01*
X100920Y852466D01*
X101225Y852440D01*
X101530Y852406D01*
X101834Y852365D01*
X102137Y852316D01*
X102439Y852260D01*
X102739Y852196D01*
X103037Y852125D01*
X103334Y852047D01*
X103629Y851962D01*
X103921Y851869D01*
X104211Y851769D01*
X104499Y851662D01*
X104784Y851548D01*
X105066Y851428D01*
X105344Y851300D01*
X105620Y851165D01*
X105892Y851024D01*
X106161Y850876D01*
X106426Y850722D01*
X106687Y850561D01*
X106945Y850393D01*
X107198Y850220D01*
X107446Y850040D01*
X107690Y849854D01*
X107930Y849663D01*
X108165Y849465D01*
X108394Y849262D01*
X108619Y849053D01*
X108839Y848839D01*
X109053Y848619D01*
X109262Y848394D01*
X109465Y848165D01*
X109663Y847930D01*
X109854Y847690D01*
X110040Y847446D01*
X110220Y847198D01*
X110393Y846945D01*
X110561Y846687D01*
X110722Y846426D01*
X110876Y846161D01*
X111024Y845892D01*
X111165Y845620D01*
X111300Y845344D01*
X111428Y845066D01*
X111548Y844784D01*
X111662Y844499D01*
X111769Y844211D01*
X111869Y843921D01*
X111962Y843629D01*
X112047Y843334D01*
X112125Y843037D01*
X112196Y842739D01*
X112260Y842439D01*
X112316Y842137D01*
X112365Y841834D01*
X112406Y841530D01*
X112440Y841225D01*
X112466Y840920D01*
X112485Y840613D01*
X112496Y840307D01*
X112500Y840000D01*
X112496Y839693D01*
X112485Y839387D01*
X112466Y839080D01*
X112440Y838775D01*
X112406Y838470D01*
X112365Y838166D01*
X112316Y837863D01*
X112260Y837561D01*
X112196Y837261D01*
X112125Y836963D01*
X112047Y836666D01*
X111962Y836371D01*
X111869Y836079D01*
X111769Y835789D01*
X111662Y835501D01*
X111548Y835216D01*
X111428Y834934D01*
X111300Y834656D01*
X111165Y834380D01*
X111024Y834108D01*
X110876Y833839D01*
X110722Y833574D01*
X110561Y833313D01*
X110393Y833055D01*
X110220Y832802D01*
X110040Y832554D01*
X109854Y832310D01*
X109663Y832070D01*
X109465Y831835D01*
X109262Y831606D01*
X109053Y831381D01*
X108839Y831161D01*
X108619Y830947D01*
X108394Y830738D01*
X108165Y830535D01*
X107930Y830337D01*
X107690Y830146D01*
X107446Y829960D01*
X107198Y829780D01*
X106945Y829607D01*
X106687Y829439D01*
X106426Y829278D01*
X106161Y829124D01*
X105892Y828976D01*
X105620Y828835D01*
X105344Y828700D01*
X105066Y828572D01*
X104784Y828452D01*
X104499Y828338D01*
X104211Y828231D01*
X103921Y828131D01*
X103629Y828038D01*
X103334Y827953D01*
X103037Y827875D01*
X102739Y827804D01*
X102439Y827740D01*
X102137Y827684D01*
X101834Y827635D01*
X101530Y827594D01*
X101225Y827560D01*
X100920Y827534D01*
X100613Y827515D01*
X100307Y827504D01*
X100000Y827500D01*
X99693Y827504D01*
X99387Y827515D01*
X99080Y827534D01*
X98775Y827560D01*
X98470Y827594D01*
X98166Y827635D01*
X97863Y827684D01*
X97561Y827740D01*
X97261Y827804D01*
X96963Y827875D01*
X96666Y827953D01*
X96371Y828038D01*
X96079Y828131D01*
X95789Y828231D01*
X95501Y828338D01*
X95216Y828452D01*
X94934Y828572D01*
X94656Y828700D01*
X94380Y828835D01*
X94108Y828976D01*
X93839Y829124D01*
X93574Y829278D01*
X93313Y829439D01*
X93055Y829607D01*
X92802Y829780D01*
X92554Y829960D01*
X92310Y830146D01*
X92070Y830337D01*
X91835Y830535D01*
X91606Y830738D01*
X91381Y830947D01*
X91161Y831161D01*
X90947Y831381D01*
X90738Y831606D01*
X90535Y831835D01*
X90337Y832070D01*
X90146Y832310D01*
X89960Y832554D01*
X89780Y832802D01*
X89607Y833055D01*
X89439Y833313D01*
X89278Y833574D01*
X89124Y833839D01*
X88976Y834108D01*
X88835Y834380D01*
X88700Y834656D01*
X88572Y834934D01*
X88452Y835216D01*
X88338Y835501D01*
X88231Y835789D01*
X88131Y836079D01*
X88038Y836371D01*
X87953Y836666D01*
X87875Y836963D01*
X87804Y837261D01*
X87740Y837561D01*
X87684Y837863D01*
X87635Y838166D01*
X87594Y838470D01*
X87560Y838775D01*
X87534Y839080D01*
X87515Y839387D01*
X87504Y839693D01*
X87500Y840000D01*
X827500Y100000D02*
X827504Y100307D01*
X827515Y100613D01*
X827534Y100920D01*
X827560Y101225D01*
X827594Y101530D01*
X827635Y101834D01*
X827684Y102137D01*
X827740Y102439D01*
X827804Y102739D01*
X827875Y103037D01*
X827953Y103334D01*
X828038Y103629D01*
X828131Y103921D01*
X828231Y104211D01*
X828338Y104499D01*
X828452Y104784D01*
X828572Y105066D01*
X828700Y105344D01*
X828835Y105620D01*
X828976Y105892D01*
X829124Y106161D01*
X829278Y106426D01*
X829439Y106687D01*
X829607Y106945D01*
X829780Y107198D01*
X829960Y107446D01*
X830146Y107690D01*
X830337Y107930D01*
X830535Y108165D01*
X830738Y108394D01*
X830947Y108619D01*
X831161Y108839D01*
X831381Y109053D01*
X831606Y109262D01*
X831835Y109465D01*
X832070Y109663D01*
X832310Y109854D01*
X832554Y110040D01*
X832802Y110220D01*
X833055Y110393D01*
X833313Y110561D01*
X833574Y110722D01*
X833839Y110876D01*
X834108Y111024D01*
X834380Y111165D01*
X834656Y111300D01*
X834934Y111428D01*
X835216Y111548D01*
X835501Y111662D01*
X835789Y111769D01*
X836079Y111869D01*
X836371Y111962D01*
X836666Y112047D01*
X836963Y112125D01*
X837261Y112196D01*
X837561Y112260D01*
X837863Y112316D01*
X838166Y112365D01*
X838470Y112406D01*
X838775Y112440D01*
X839080Y112466D01*
X839387Y112485D01*
X839693Y112496D01*
X840000Y112500D01*
X840307Y112496D01*
X840613Y112485D01*
X840920Y112466D01*
X841225Y112440D01*
X841530Y112406D01*
X841834Y112365D01*
X842137Y112316D01*
X842439Y112260D01*
X842739Y112196D01*
X843037Y112125D01*
X843334Y112047D01*
X843629Y111962D01*
X843921Y111869D01*
X844211Y111769D01*
X844499Y111662D01*
X844784Y111548D01*
X845066Y111428D01*
X845344Y111300D01*
X845620Y111165D01*
X845892Y111024D01*
X846161Y110876D01*
X846426Y110722D01*
X846687Y110561D01*
X846945Y110393D01*
X847198Y110220D01*
X847446Y110040D01*
X847690Y109854D01*
X847930Y109663D01*
X848165Y109465D01*
X848394Y109262D01*
X848619Y109053D01*
X848839Y108839D01*
X849053Y108619D01*
X849262Y108394D01*
X849465Y108165D01*
X849663Y107930D01*
X849854Y107690D01*
X850040Y107446D01*
X850220Y107198D01*
X850393Y106945D01*
X850561Y106687D01*
X850722Y106426D01*
X850876Y106161D01*
X851024Y105892D01*
X851165Y105620D01*
X851300Y105344D01*
X851428Y105066D01*
X851548Y104784D01*
X851662Y104499D01*
X851769Y104211D01*
X851869Y103921D01*
X851962Y103629D01*
X852047Y103334D01*
X852125Y103037D01*
X852196Y102739D01*
X852260Y102439D01*
X852316Y102137D01*
X852365Y101834D01*
X852406Y101530D01*
X852440Y101225D01*
X852466Y100920D01*
X852485Y100613D01*
X852496Y100307D01*
X852500Y100000D01*
X852496Y99693D01*
X852485Y99387D01*
X852466Y99080D01*
X852440Y98775D01*
X852406Y98470D01*
X852365Y98166D01*
X852316Y97863D01*
X852260Y97561D01*
X852196Y97261D01*
X852125Y96963D01*
X852047Y96666D01*
X851962Y96371D01*
X851869Y96079D01*
X851769Y95789D01*
X851662Y95501D01*
X851548Y95216D01*
X851428Y94934D01*
X851300Y94656D01*
X851165Y94380D01*
X851024Y94108D01*
X850876Y93839D01*
X850722Y93574D01*
X850561Y93313D01*
X850393Y93055D01*
X850220Y92802D01*
X850040Y92554D01*
X849854Y92310D01*
X849663Y92070D01*
X849465Y91835D01*
X849262Y91606D01*
X849053Y91381D01*
X848839Y91161D01*
X848619Y90947D01*
X848394Y90738D01*
X848165Y90535D01*
X847930Y90337D01*
X847690Y90146D01*
X847446Y89960D01*
X847198Y89780D01*
X846945Y89607D01*
X846687Y89439D01*
X846426Y89278D01*
X846161Y89124D01*
X845892Y88976D01*
X845620Y88835D01*
X845344Y88700D01*
X845066Y88572D01*
X844784Y88452D01*
X844499Y88338D01*
X844211Y88231D01*
X843921Y88131D01*
X843629Y88038D01*
X843334Y87953D01*
X843037Y87875D01*
X842739Y87804D01*
X842439Y87740D01*
X842137Y87684D01*
X841834Y87635D01*
X841530Y87594D01*
X841225Y87560D01*
X840920Y87534D01*
X840613Y87515D01*
X840307Y87504D01*
X840000Y87500D01*
X839693Y87504D01*
X839387Y87515D01*
X839080Y87534D01*
X838775Y87560D01*
X838470Y87594D01*
X838166Y87635D01*
X837863Y87684D01*
X837561Y87740D01*
X837261Y87804D01*
X836963Y87875D01*
X836666Y87953D01*
X836371Y88038D01*
X836079Y88131D01*
X835789Y88231D01*
X835501Y88338D01*
X835216Y88452D01*
X834934Y88572D01*
X834656Y88700D01*
X834380Y88835D01*
X834108Y88976D01*
X833839Y89124D01*
X833574Y89278D01*
X833313Y89439D01*
X833055Y89607D01*
X832802Y89780D01*
X832554Y89960D01*
X832310Y90146D01*
X832070Y90337D01*
X831835Y90535D01*
X831606Y90738D01*
X831381Y90947D01*
X831161Y91161D01*
X830947Y91381D01*
X830738Y91606D01*
X830535Y91835D01*
X830337Y92070D01*
X830146Y92310D01*
X829960Y92554D01*
X829780Y92802D01*
X829607Y93055D01*
X829439Y93313D01*
X829278Y93574D01*
X829124Y93839D01*
X828976Y94108D01*
X828835Y94380D01*
X828700Y94656D01*
X828572Y94934D01*
X828452Y95216D01*
X828338Y95501D01*
X828231Y95789D01*
X828131Y96079D01*
X828038Y96371D01*
X827953Y96666D01*
X827875Y96963D01*
X827804Y97261D01*
X827740Y97561D01*
X827684Y97863D01*
X827635Y98166D01*
X827594Y98470D01*
X827560Y98775D01*
X827534Y99080D01*
X827515Y99387D01*
X827504Y99693D01*
X827500Y100000D01*
D12*
X0Y665000D02*
X0Y725000D01*
X0Y555000D02*
X0Y215000D01*
D11*
X0Y555000D02*
X0Y665000D01*
D12*
X940000Y680000D02*
X940000Y725000D01*
X940000Y565400D02*
X940000Y215000D01*
D13*
X940000Y680000D02*
X927100Y680000D01*
X927100Y565400D01*
X940000Y565400D01*
D14*
X0Y215000D02*
X60000Y215000D01*
X60000Y60000D01*
X215000Y60000D01*
X215000Y0D01*
X725000Y0D01*
X725000Y60000D01*
X880000Y60000D01*
X880000Y215000D01*
X940000Y215000D01*
X940000Y565400D01*
X927100Y565400D01*
X927100Y680000D01*
X940000Y680000D01*
X940000Y725000D01*
X880000Y725000D01*
X880000Y880000D01*
X725000Y880000D01*
X725000Y940000D01*
X215000Y940000D01*
X215000Y880000D01*
X60000Y880000D01*
X60000Y725000D01*
X0Y725000D01*
X0Y215000D01*
X797500Y209202D02*
X797422Y207608D01*
X797265Y206020D01*
X797031Y204442D01*
X796720Y202877D01*
X796332Y201329D01*
X795869Y199802D01*
X795331Y198300D01*
X794721Y196826D01*
X794039Y195383D01*
X793286Y193976D01*
X792466Y192607D01*
X791580Y191281D01*
X790629Y189999D01*
X789617Y188766D01*
X788545Y187583D01*
X787417Y186455D01*
X786235Y185383D01*
X785001Y184371D01*
X783719Y183421D01*
X782393Y182534D01*
X781024Y181714D01*
X779617Y180961D01*
X778174Y180279D01*
X776700Y179669D01*
X775198Y179131D01*
X773671Y178668D01*
X772123Y178280D01*
X770558Y177969D01*
X768980Y177735D01*
X767392Y177578D01*
X765798Y177500D01*
X764202Y177500D01*
X762608Y177578D01*
X761020Y177735D01*
X759442Y177969D01*
X757877Y178280D01*
X756329Y178668D01*
X754802Y179131D01*
X753300Y179669D01*
X751826Y180279D01*
X750383Y180961D01*
X748976Y181714D01*
X747607Y182534D01*
X746281Y183421D01*
X744999Y184371D01*
X743766Y185383D01*
X742583Y186455D01*
X741455Y187583D01*
X740383Y188766D01*
X739371Y189999D01*
X738421Y191281D01*
X737534Y192607D01*
X736714Y193976D01*
X735961Y195383D01*
X735279Y196826D01*
X734669Y198300D01*
X734131Y199802D01*
X733668Y201329D01*
X733280Y202877D01*
X732969Y204442D01*
X732735Y206020D01*
X732578Y207608D01*
X732500Y209202D01*
X732500Y210798D01*
X732578Y212392D01*
X732735Y213980D01*
X732969Y215558D01*
X733280Y217123D01*
X733668Y218671D01*
X734131Y220198D01*
X734669Y221700D01*
X735279Y223174D01*
X735961Y224617D01*
X736714Y226024D01*
X737534Y227393D01*
X738421Y228719D01*
X739371Y230001D01*
X740383Y231235D01*
X741455Y232417D01*
X742583Y233545D01*
X743766Y234617D01*
X744999Y235629D01*
X746281Y236580D01*
X747607Y237466D01*
X748976Y238286D01*
X750383Y239039D01*
X751826Y239721D01*
X753300Y240331D01*
X754802Y240869D01*
X756329Y241332D01*
X757877Y241720D01*
X759442Y242031D01*
X761020Y242265D01*
X762608Y242422D01*
X764202Y242500D01*
X765798Y242500D01*
X767392Y242422D01*
X768980Y242265D01*
X770558Y242031D01*
X772123Y241720D01*
X773671Y241332D01*
X775198Y240869D01*
X776700Y240331D01*
X778174Y239721D01*
X779617Y239039D01*
X781024Y238286D01*
X782393Y237466D01*
X783719Y236580D01*
X785001Y235629D01*
X786235Y234617D01*
X787417Y233545D01*
X788545Y232417D01*
X789617Y231235D01*
X790629Y230001D01*
X791580Y228719D01*
X792466Y227393D01*
X793286Y226024D01*
X794039Y224617D01*
X794721Y223174D01*
X795331Y221700D01*
X795869Y220198D01*
X796332Y218671D01*
X796720Y217123D01*
X797031Y215558D01*
X797265Y213980D01*
X797422Y212392D01*
X797500Y210798D01*
X797500Y209202D01*
X112500Y99509D02*
X112423Y98530D01*
X112269Y97560D01*
X112040Y96604D01*
X111736Y95670D01*
X111361Y94763D01*
X110915Y93888D01*
X110401Y93050D01*
X109824Y92255D01*
X109186Y91508D01*
X108492Y90814D01*
X107745Y90176D01*
X106950Y89599D01*
X106112Y89085D01*
X105237Y88639D01*
X104330Y88264D01*
X103396Y87960D01*
X102441Y87731D01*
X101470Y87577D01*
X100491Y87500D01*
X99509Y87500D01*
X98530Y87577D01*
X97560Y87731D01*
X96604Y87960D01*
X95670Y88264D01*
X94763Y88639D01*
X93888Y89085D01*
X93050Y89599D01*
X92255Y90176D01*
X91508Y90814D01*
X90814Y91508D01*
X90176Y92255D01*
X89599Y93050D01*
X89085Y93888D01*
X88639Y94763D01*
X88264Y95670D01*
X87960Y96604D01*
X87731Y97560D01*
X87577Y98530D01*
X87500Y99509D01*
X87500Y100491D01*
X87577Y101470D01*
X87731Y102441D01*
X87960Y103396D01*
X88264Y104330D01*
X88639Y105237D01*
X89085Y106112D01*
X89599Y106950D01*
X90176Y107745D01*
X90814Y108492D01*
X91508Y109186D01*
X92255Y109824D01*
X93050Y110401D01*
X93888Y110915D01*
X94763Y111361D01*
X95670Y111736D01*
X96604Y112040D01*
X97560Y112269D01*
X98530Y112423D01*
X99509Y112500D01*
X100491Y112500D01*
X101470Y112423D01*
X102441Y112269D01*
X103396Y112040D01*
X104330Y111736D01*
X105237Y111361D01*
X106112Y110915D01*
X106950Y110401D01*
X107745Y109824D01*
X108492Y109186D01*
X109186Y108492D01*
X109824Y107745D01*
X110401Y106950D01*
X110915Y106112D01*
X111361Y105237D01*
X111736Y104330D01*
X112040Y103396D01*
X112269Y102441D01*
X112423Y101470D01*
X112500Y100491D01*
X112500Y99509D01*
X852500Y839509D02*
X852423Y838530D01*
X852269Y837560D01*
X852040Y836604D01*
X851736Y835670D01*
X851361Y834763D01*
X850915Y833888D01*
X850401Y833050D01*
X849824Y832255D01*
X849186Y831508D01*
X848492Y830814D01*
X847745Y830176D01*
X846950Y829599D01*
X846112Y829085D01*
X845237Y828639D01*
X844330Y828264D01*
X843396Y827960D01*
X842441Y827731D01*
X841470Y827577D01*
X840491Y827500D01*
X839509Y827500D01*
X838530Y827577D01*
X837560Y827731D01*
X836604Y827960D01*
X835670Y828264D01*
X834763Y828639D01*
X833888Y829085D01*
X833050Y829599D01*
X832255Y830176D01*
X831508Y830814D01*
X830814Y831508D01*
X830176Y832255D01*
X829599Y833050D01*
X829085Y833888D01*
X828639Y834763D01*
X828264Y835670D01*
X827960Y836604D01*
X827731Y837560D01*
X827577Y838530D01*
X827500Y839509D01*
X827500Y840491D01*
X827577Y841470D01*
X827731Y842441D01*
X827960Y843396D01*
X828264Y844330D01*
X828639Y845237D01*
X829085Y846112D01*
X829599Y846950D01*
X830176Y847745D01*
X830814Y848492D01*
X831508Y849186D01*
X832255Y849824D01*
X833050Y850401D01*
X833888Y850915D01*
X834763Y851361D01*
X835670Y851736D01*
X836604Y852040D01*
X837560Y852269D01*
X838530Y852423D01*
X839509Y852500D01*
X840491Y852500D01*
X841470Y852423D01*
X842441Y852269D01*
X843396Y852040D01*
X844330Y851736D01*
X845237Y851361D01*
X846112Y850915D01*
X846950Y850401D01*
X847745Y849824D01*
X848492Y849186D01*
X849186Y848492D01*
X849824Y847745D01*
X850401Y846950D01*
X850915Y846112D01*
X851361Y845237D01*
X851736Y844330D01*
X852040Y843396D01*
X852269Y842441D01*
X852423Y841470D01*
X852500Y840491D01*
X852500Y839509D01*
X112500Y839509D02*
X112423Y838530D01*
X112269Y837560D01*
X112040Y836604D01*
X111736Y835670D01*
X111361Y834763D01*
X110915Y833888D01*
X110401Y833050D01*
X109824Y832255D01*
X109186Y831508D01*
X108492Y830814D01*
X107745Y830176D01*
X106950Y829599D01*
X106112Y829085D01*
X105237Y828639D01*
X104330Y828264D01*
X103396Y827960D01*
X102441Y827731D01*
X101470Y827577D01*
X100491Y827500D01*
X99509Y827500D01*
X98530Y827577D01*
X97560Y827731D01*
X96604Y827960D01*
X95670Y828264D01*
X94763Y828639D01*
X93888Y829085D01*
X93050Y829599D01*
X92255Y830176D01*
X91508Y830814D01*
X90814Y831508D01*
X90176Y832255D01*
X89599Y833050D01*
X89085Y833888D01*
X88639Y834763D01*
X88264Y835670D01*
X87960Y836604D01*
X87731Y837560D01*
X87577Y838530D01*
X87500Y839509D01*
X87500Y840491D01*
X87577Y841470D01*
X87731Y842441D01*
X87960Y843396D01*
X88264Y844330D01*
X88639Y845237D01*
X89085Y846112D01*
X89599Y846950D01*
X90176Y847745D01*
X90814Y848492D01*
X91508Y849186D01*
X92255Y849824D01*
X93050Y850401D01*
X93888Y850915D01*
X94763Y851361D01*
X95670Y851736D01*
X96604Y852040D01*
X97560Y852269D01*
X98530Y852423D01*
X99509Y852500D01*
X100491Y852500D01*
X101470Y852423D01*
X102441Y852269D01*
X103396Y852040D01*
X104330Y851736D01*
X105237Y851361D01*
X106112Y850915D01*
X106950Y850401D01*
X107745Y849824D01*
X108492Y849186D01*
X109186Y848492D01*
X109824Y847745D01*
X110401Y846950D01*
X110915Y846112D01*
X111361Y845237D01*
X111736Y844330D01*
X112040Y843396D01*
X112269Y842441D01*
X112423Y841470D01*
X112500Y840491D01*
X112500Y839509D01*
X852500Y99509D02*
X852423Y98530D01*
X852269Y97560D01*
X852040Y96604D01*
X851736Y95670D01*
X851361Y94763D01*
X850915Y93888D01*
X850401Y93050D01*
X849824Y92255D01*
X849186Y91508D01*
X848492Y90814D01*
X847745Y90176D01*
X846950Y89599D01*
X846112Y89085D01*
X845237Y88639D01*
X844330Y88264D01*
X843396Y87960D01*
X842441Y87731D01*
X841470Y87577D01*
X840491Y87500D01*
X839509Y87500D01*
X838530Y87577D01*
X837560Y87731D01*
X836604Y87960D01*
X835670Y88264D01*
X834763Y88639D01*
X833888Y89085D01*
X833050Y89599D01*
X832255Y90176D01*
X831508Y90814D01*
X830814Y91508D01*
X830176Y92255D01*
X829599Y93050D01*
X829085Y93888D01*
X828639Y94763D01*
X828264Y95670D01*
X827960Y96604D01*
X827731Y97560D01*
X827577Y98530D01*
X827500Y99509D01*
X827500Y100491D01*
X827577Y101470D01*
X827731Y102441D01*
X827960Y103396D01*
X828264Y104330D01*
X828639Y105237D01*
X829085Y106112D01*
X829599Y106950D01*
X830176Y107745D01*
X830814Y108492D01*
X831508Y109186D01*
X832255Y109824D01*
X833050Y110401D01*
X833888Y110915D01*
X834763Y111361D01*
X835670Y111736D01*
X836604Y112040D01*
X837560Y112269D01*
X838530Y112423D01*
X839509Y112500D01*
X840491Y112500D01*
X841470Y112423D01*
X842441Y112269D01*
X843396Y112040D01*
X844330Y111736D01*
X845237Y111361D01*
X846112Y110915D01*
X846950Y110401D01*
X847745Y109824D01*
X848492Y109186D01*
X849186Y108492D01*
X849824Y107745D01*
X850401Y106950D01*
X850915Y106112D01*
X851361Y105237D01*
X851736Y104330D01*
X852040Y103396D01*
X852269Y102441D01*
X852423Y101470D01*
X852500Y100491D01*
X852500Y99509D01*
M02*
