G04 EAGLE Gerber RS-274X export*
G75*
%MOMM*%
%FSLAX34Y34*%
%LPD*%
%INSilkscreen Bottom*%
%IPPOS*%
%AMOC8*
5,1,8,0,0,1.08239X$1,22.5*%
G01*
%ADD10C,0.228600*%
%ADD11C,0.127000*%
%ADD12R,0.168000X0.008000*%
%ADD13R,0.408000X0.008000*%
%ADD14R,0.448000X0.008000*%
%ADD15R,0.480000X0.008000*%
%ADD16R,0.496000X0.008000*%
%ADD17R,0.512000X0.008000*%
%ADD18R,0.528000X0.008000*%
%ADD19R,0.544000X0.008000*%
%ADD20R,0.056000X0.008000*%
%ADD21R,0.656000X0.008000*%
%ADD22R,0.664000X0.008000*%
%ADD23R,0.672000X0.008000*%
%ADD24R,0.648000X0.008000*%
%ADD25R,0.632000X0.008000*%
%ADD26R,0.616000X0.008000*%
%ADD27R,0.600000X0.008000*%
%ADD28R,0.584000X0.008000*%
%ADD29R,0.568000X0.008000*%
%ADD30R,0.560000X0.008000*%
%ADD31R,0.552000X0.008000*%
%ADD32R,0.032000X0.008000*%
%ADD33R,0.224000X0.008000*%
%ADD34R,0.104000X0.008000*%
%ADD35R,0.520000X0.008000*%
%ADD36R,0.680000X0.008000*%
%ADD37R,0.688000X0.008000*%
%ADD38R,0.696000X0.008000*%
%ADD39R,0.536000X0.008000*%
%ADD40R,0.712000X0.008000*%
%ADD41R,0.720000X0.008000*%
%ADD42R,0.728000X0.008000*%
%ADD43R,0.744000X0.008000*%
%ADD44R,0.752000X0.008000*%
%ADD45R,0.760000X0.008000*%
%ADD46R,0.080000X0.008000*%
%ADD47R,0.768000X0.008000*%
%ADD48R,0.184000X0.008000*%
%ADD49R,0.776000X0.008000*%
%ADD50R,0.264000X0.008000*%
%ADD51R,0.304000X0.008000*%
%ADD52R,0.784000X0.008000*%
%ADD53R,0.344000X0.008000*%
%ADD54R,0.488000X0.008000*%
%ADD55R,0.376000X0.008000*%
%ADD56R,0.400000X0.008000*%
%ADD57R,0.472000X0.008000*%
%ADD58R,0.624000X0.008000*%
%ADD59R,0.160000X0.008000*%
%ADD60R,0.424000X0.008000*%
%ADD61R,0.464000X0.008000*%
%ADD62R,0.152000X0.008000*%
%ADD63R,0.904000X0.008000*%
%ADD64R,0.136000X0.008000*%
%ADD65R,0.896000X0.008000*%
%ADD66R,0.120000X0.008000*%
%ADD67R,0.888000X0.008000*%
%ADD68R,0.640000X0.008000*%
%ADD69R,0.112000X0.008000*%
%ADD70R,0.088000X0.008000*%
%ADD71R,0.912000X0.008000*%
%ADD72R,0.920000X0.008000*%
%ADD73R,0.064000X0.008000*%
%ADD74R,0.928000X0.008000*%
%ADD75R,0.936000X0.008000*%
%ADD76R,0.048000X0.008000*%
%ADD77R,0.040000X0.008000*%
%ADD78R,0.024000X0.008000*%
%ADD79R,0.960000X0.008000*%
%ADD80R,1.024000X0.008000*%
%ADD81R,1.096000X0.008000*%
%ADD82R,1.144000X0.008000*%
%ADD83R,0.608000X0.008000*%
%ADD84R,1.184000X0.008000*%
%ADD85R,1.224000X0.008000*%
%ADD86R,0.592000X0.008000*%
%ADD87R,1.256000X0.008000*%
%ADD88R,1.296000X0.008000*%
%ADD89R,1.336000X0.008000*%
%ADD90R,1.360000X0.008000*%
%ADD91R,1.392000X0.008000*%
%ADD92R,1.912000X0.008000*%
%ADD93R,1.888000X0.008000*%
%ADD94R,1.896000X0.008000*%
%ADD95R,1.904000X0.008000*%
%ADD96R,1.880000X0.008000*%
%ADD97R,1.864000X0.008000*%
%ADD98R,1.856000X0.008000*%
%ADD99R,1.848000X0.008000*%
%ADD100R,1.832000X0.008000*%
%ADD101R,1.824000X0.008000*%
%ADD102R,1.840000X0.008000*%
%ADD103R,1.936000X0.008000*%
%ADD104R,1.944000X0.008000*%
%ADD105R,1.968000X0.008000*%
%ADD106R,1.976000X0.008000*%
%ADD107R,1.992000X0.008000*%
%ADD108R,2.000000X0.008000*%
%ADD109R,2.016000X0.008000*%
%ADD110R,2.024000X0.008000*%
%ADD111R,2.040000X0.008000*%
%ADD112R,2.048000X0.008000*%
%ADD113R,2.056000X0.008000*%
%ADD114R,2.064000X0.008000*%
%ADD115R,2.080000X0.008000*%
%ADD116R,2.088000X0.008000*%
%ADD117R,2.096000X0.008000*%
%ADD118R,2.104000X0.008000*%
%ADD119R,2.120000X0.008000*%
%ADD120R,2.112000X0.008000*%
%ADD121R,2.072000X0.008000*%
%ADD122R,2.032000X0.008000*%
%ADD123R,2.008000X0.008000*%
%ADD124R,1.984000X0.008000*%
%ADD125R,1.960000X0.008000*%
%ADD126R,1.952000X0.008000*%
%ADD127R,0.072000X0.008000*%
%ADD128R,1.920000X0.008000*%
%ADD129R,0.176000X0.008000*%
%ADD130R,0.192000X0.008000*%
%ADD131R,0.200000X0.008000*%
%ADD132R,0.208000X0.008000*%
%ADD133R,0.216000X0.008000*%
%ADD134R,0.232000X0.008000*%
%ADD135R,0.240000X0.008000*%
%ADD136R,0.248000X0.008000*%
%ADD137R,0.256000X0.008000*%
%ADD138R,0.272000X0.008000*%
%ADD139R,0.280000X0.008000*%
%ADD140R,0.288000X0.008000*%
%ADD141R,1.816000X0.008000*%
%ADD142R,0.296000X0.008000*%
%ADD143R,1.808000X0.008000*%
%ADD144R,1.800000X0.008000*%
%ADD145R,0.312000X0.008000*%
%ADD146R,1.792000X0.008000*%
%ADD147R,0.320000X0.008000*%
%ADD148R,1.784000X0.008000*%
%ADD149R,0.328000X0.008000*%
%ADD150R,0.336000X0.008000*%
%ADD151R,1.776000X0.008000*%
%ADD152R,1.768000X0.008000*%
%ADD153R,0.352000X0.008000*%
%ADD154R,2.168000X0.008000*%
%ADD155R,2.160000X0.008000*%
%ADD156R,2.152000X0.008000*%
%ADD157R,2.144000X0.008000*%
%ADD158R,0.016000X0.008000*%
%ADD159R,2.208000X0.008000*%
%ADD160R,2.232000X0.008000*%
%ADD161R,2.248000X0.008000*%
%ADD162R,2.256000X0.008000*%
%ADD163R,2.272000X0.008000*%
%ADD164R,2.280000X0.008000*%
%ADD165R,2.288000X0.008000*%
%ADD166R,2.264000X0.008000*%
%ADD167R,2.136000X0.008000*%
%ADD168R,1.872000X0.008000*%
%ADD169R,1.752000X0.008000*%
%ADD170R,1.744000X0.008000*%
%ADD171R,1.728000X0.008000*%
%ADD172R,1.720000X0.008000*%
%ADD173R,1.712000X0.008000*%
%ADD174R,1.704000X0.008000*%
%ADD175R,1.696000X0.008000*%
%ADD176R,1.688000X0.008000*%
%ADD177R,1.672000X0.008000*%
%ADD178R,1.664000X0.008000*%
%ADD179R,1.648000X0.008000*%
%ADD180R,1.640000X0.008000*%
%ADD181R,1.624000X0.008000*%
%ADD182R,1.608000X0.008000*%
%ADD183R,1.600000X0.008000*%
%ADD184R,1.584000X0.008000*%
%ADD185R,1.568000X0.008000*%
%ADD186R,1.560000X0.008000*%
%ADD187R,1.544000X0.008000*%
%ADD188R,1.536000X0.008000*%
%ADD189R,1.528000X0.008000*%
%ADD190R,1.520000X0.008000*%
%ADD191R,1.512000X0.008000*%
%ADD192R,1.504000X0.008000*%
%ADD193R,1.496000X0.008000*%
%ADD194R,1.488000X0.008000*%
%ADD195R,1.480000X0.008000*%
%ADD196R,1.464000X0.008000*%
%ADD197R,1.456000X0.008000*%
%ADD198R,1.448000X0.008000*%
%ADD199R,1.440000X0.008000*%
%ADD200R,1.432000X0.008000*%
%ADD201R,1.424000X0.008000*%
%ADD202R,1.408000X0.008000*%
%ADD203R,1.400000X0.008000*%
%ADD204R,1.384000X0.008000*%
%ADD205R,1.376000X0.008000*%
%ADD206R,1.352000X0.008000*%
%ADD207R,1.344000X0.008000*%
%ADD208R,1.328000X0.008000*%
%ADD209R,1.304000X0.008000*%
%ADD210R,1.288000X0.008000*%
%ADD211R,1.232000X0.008000*%
%ADD212R,1.208000X0.008000*%
%ADD213R,1.200000X0.008000*%
%ADD214R,1.192000X0.008000*%
%ADD215R,1.168000X0.008000*%
%ADD216R,1.160000X0.008000*%
%ADD217R,1.128000X0.008000*%
%ADD218R,1.112000X0.008000*%
%ADD219R,1.104000X0.008000*%
%ADD220R,1.088000X0.008000*%
%ADD221R,1.080000X0.008000*%
%ADD222R,1.072000X0.008000*%
%ADD223R,1.056000X0.008000*%
%ADD224R,1.048000X0.008000*%
%ADD225R,1.248000X0.008000*%
%ADD226R,1.280000X0.008000*%
%ADD227R,1.312000X0.008000*%
%ADD228R,1.656000X0.008000*%
%ADD229R,1.736000X0.008000*%
%ADD230R,1.928000X0.008000*%
%ADD231R,0.008000X0.008000*%
%ADD232R,2.216000X0.008000*%
%ADD233R,2.312000X0.008000*%
%ADD234R,2.552000X0.008000*%
%ADD235R,2.560000X0.008000*%
%ADD236R,2.568000X0.008000*%
%ADD237R,2.576000X0.008000*%
%ADD238R,0.096000X0.008000*%
%ADD239R,2.584000X0.008000*%
%ADD240R,0.128000X0.008000*%
%ADD241R,2.592000X0.008000*%
%ADD242R,0.144000X0.008000*%
%ADD243R,2.600000X0.008000*%
%ADD244R,2.768000X0.008000*%
%ADD245R,2.760000X0.008000*%
%ADD246R,2.744000X0.008000*%
%ADD247R,2.736000X0.008000*%
%ADD248R,2.728000X0.008000*%
%ADD249R,2.720000X0.008000*%
%ADD250R,2.712000X0.008000*%
%ADD251R,2.688000X0.008000*%
%ADD252R,2.680000X0.008000*%
%ADD253R,2.672000X0.008000*%
%ADD254R,2.656000X0.008000*%
%ADD255R,2.648000X0.008000*%
%ADD256R,2.632000X0.008000*%
%ADD257R,2.608000X0.008000*%
%ADD258R,2.544000X0.008000*%
%ADD259R,2.536000X0.008000*%
%ADD260R,2.504000X0.008000*%
%ADD261R,2.488000X0.008000*%
%ADD262R,2.472000X0.008000*%
%ADD263R,2.448000X0.008000*%
%ADD264R,2.432000X0.008000*%
%ADD265R,2.408000X0.008000*%
%ADD266R,2.384000X0.008000*%
%ADD267R,2.368000X0.008000*%
%ADD268R,2.352000X0.008000*%
%ADD269R,2.344000X0.008000*%
%ADD270R,2.336000X0.008000*%
%ADD271R,2.320000X0.008000*%
%ADD272R,2.304000X0.008000*%
%ADD273R,2.296000X0.008000*%
%ADD274R,2.200000X0.008000*%
%ADD275R,2.192000X0.008000*%
%ADD276R,2.176000X0.008000*%
%ADD277R,2.184000X0.008000*%
%ADD278R,1.632000X0.008000*%
%ADD279R,1.576000X0.008000*%
%ADD280R,1.472000X0.008000*%
%ADD281R,1.272000X0.008000*%
%ADD282R,1.216000X0.008000*%
%ADD283R,1.176000X0.008000*%
%ADD284R,1.136000X0.008000*%
%ADD285R,1.040000X0.008000*%
%ADD286R,1.008000X0.008000*%
%ADD287R,1.000000X0.008000*%
%ADD288R,0.984000X0.008000*%
%ADD289R,0.944000X0.008000*%
%ADD290R,0.872000X0.008000*%
%ADD291R,0.864000X0.008000*%
%ADD292R,0.856000X0.008000*%
%ADD293R,0.848000X0.008000*%
%ADD294R,0.840000X0.008000*%
%ADD295R,0.832000X0.008000*%
%ADD296R,0.824000X0.008000*%
%ADD297R,0.816000X0.008000*%
%ADD298R,0.808000X0.008000*%
%ADD299R,0.800000X0.008000*%
%ADD300R,0.792000X0.008000*%
%ADD301R,0.736000X0.008000*%
%ADD302R,0.504000X0.008000*%
%ADD303R,0.456000X0.008000*%
%ADD304R,0.432000X0.008000*%
%ADD305R,0.416000X0.008000*%
%ADD306R,0.392000X0.008000*%
%ADD307R,0.360000X0.008000*%
%ADD308C,0.100000*%
%ADD309C,0.152400*%


D10*
X51801Y456143D02*
X51801Y464238D01*
X51799Y464317D01*
X51793Y464397D01*
X51783Y464476D01*
X51770Y464554D01*
X51752Y464631D01*
X51731Y464708D01*
X51706Y464783D01*
X51678Y464858D01*
X51646Y464930D01*
X51610Y465001D01*
X51571Y465070D01*
X51528Y465137D01*
X51482Y465202D01*
X51434Y465265D01*
X51382Y465325D01*
X51327Y465383D01*
X51269Y465438D01*
X51209Y465490D01*
X51146Y465538D01*
X51081Y465584D01*
X51014Y465627D01*
X50945Y465666D01*
X50874Y465702D01*
X50802Y465734D01*
X50727Y465762D01*
X50652Y465787D01*
X50575Y465808D01*
X50498Y465826D01*
X50420Y465839D01*
X50341Y465849D01*
X50261Y465855D01*
X50182Y465857D01*
X49642Y465857D01*
X49642Y462619D02*
X52880Y462619D01*
X46184Y460460D02*
X46184Y458302D01*
X46185Y460460D02*
X46183Y460552D01*
X46177Y460643D01*
X46168Y460734D01*
X46154Y460825D01*
X46137Y460915D01*
X46115Y461004D01*
X46090Y461092D01*
X46062Y461179D01*
X46029Y461265D01*
X45993Y461349D01*
X45954Y461432D01*
X45911Y461513D01*
X45864Y461592D01*
X45815Y461669D01*
X45762Y461744D01*
X45706Y461816D01*
X45647Y461886D01*
X45585Y461954D01*
X45520Y462019D01*
X45452Y462081D01*
X45382Y462140D01*
X45310Y462196D01*
X45235Y462249D01*
X45158Y462298D01*
X45079Y462345D01*
X44998Y462388D01*
X44915Y462427D01*
X44831Y462463D01*
X44745Y462496D01*
X44658Y462524D01*
X44570Y462549D01*
X44481Y462571D01*
X44391Y462588D01*
X44300Y462602D01*
X44209Y462611D01*
X44118Y462617D01*
X44026Y462619D01*
X43934Y462617D01*
X43843Y462611D01*
X43752Y462602D01*
X43661Y462588D01*
X43571Y462571D01*
X43482Y462549D01*
X43394Y462524D01*
X43307Y462496D01*
X43221Y462463D01*
X43137Y462427D01*
X43054Y462388D01*
X42973Y462345D01*
X42894Y462298D01*
X42817Y462249D01*
X42742Y462196D01*
X42670Y462140D01*
X42600Y462081D01*
X42532Y462019D01*
X42467Y461954D01*
X42405Y461886D01*
X42346Y461816D01*
X42290Y461744D01*
X42237Y461669D01*
X42188Y461592D01*
X42141Y461513D01*
X42098Y461432D01*
X42059Y461349D01*
X42023Y461265D01*
X41990Y461179D01*
X41962Y461092D01*
X41937Y461004D01*
X41915Y460915D01*
X41898Y460825D01*
X41884Y460734D01*
X41875Y460643D01*
X41869Y460552D01*
X41867Y460460D01*
X41867Y458302D01*
X41869Y458210D01*
X41875Y458119D01*
X41884Y458028D01*
X41898Y457937D01*
X41915Y457847D01*
X41937Y457758D01*
X41962Y457670D01*
X41990Y457583D01*
X42023Y457497D01*
X42059Y457413D01*
X42098Y457330D01*
X42141Y457249D01*
X42188Y457170D01*
X42237Y457093D01*
X42290Y457018D01*
X42346Y456946D01*
X42405Y456876D01*
X42467Y456808D01*
X42532Y456743D01*
X42600Y456681D01*
X42670Y456622D01*
X42742Y456566D01*
X42817Y456513D01*
X42894Y456464D01*
X42973Y456417D01*
X43054Y456374D01*
X43137Y456335D01*
X43221Y456299D01*
X43307Y456266D01*
X43394Y456238D01*
X43482Y456213D01*
X43571Y456191D01*
X43661Y456174D01*
X43752Y456160D01*
X43843Y456151D01*
X43934Y456145D01*
X44026Y456143D01*
X44118Y456145D01*
X44209Y456151D01*
X44300Y456160D01*
X44391Y456174D01*
X44481Y456191D01*
X44570Y456213D01*
X44658Y456238D01*
X44745Y456266D01*
X44831Y456299D01*
X44915Y456335D01*
X44998Y456374D01*
X45079Y456417D01*
X45158Y456464D01*
X45235Y456513D01*
X45310Y456566D01*
X45382Y456622D01*
X45452Y456681D01*
X45520Y456743D01*
X45585Y456808D01*
X45647Y456876D01*
X45706Y456946D01*
X45762Y457018D01*
X45815Y457093D01*
X45864Y457170D01*
X45911Y457249D01*
X45954Y457330D01*
X45993Y457413D01*
X46029Y457497D01*
X46062Y457583D01*
X46090Y457670D01*
X46115Y457758D01*
X46137Y457847D01*
X46154Y457937D01*
X46168Y458028D01*
X46177Y458119D01*
X46183Y458210D01*
X46185Y458302D01*
X36358Y456143D02*
X36358Y462619D01*
X33120Y462619D01*
X33120Y461540D01*
X74247Y446238D02*
X74247Y438143D01*
X74247Y446238D02*
X74245Y446317D01*
X74239Y446397D01*
X74229Y446476D01*
X74216Y446554D01*
X74198Y446631D01*
X74177Y446708D01*
X74152Y446783D01*
X74124Y446858D01*
X74092Y446930D01*
X74056Y447001D01*
X74017Y447070D01*
X73974Y447137D01*
X73928Y447202D01*
X73880Y447265D01*
X73828Y447325D01*
X73773Y447383D01*
X73715Y447438D01*
X73655Y447490D01*
X73592Y447538D01*
X73527Y447584D01*
X73460Y447627D01*
X73391Y447666D01*
X73320Y447702D01*
X73248Y447734D01*
X73173Y447762D01*
X73098Y447787D01*
X73021Y447808D01*
X72944Y447826D01*
X72866Y447839D01*
X72787Y447849D01*
X72707Y447855D01*
X72628Y447857D01*
X72088Y447857D01*
X72088Y444619D02*
X75326Y444619D01*
X68992Y444619D02*
X68992Y438143D01*
X69262Y447317D02*
X69262Y447857D01*
X68722Y447857D01*
X68722Y447317D01*
X69262Y447317D01*
X63845Y444619D02*
X63845Y438143D01*
X63845Y444619D02*
X60607Y444619D01*
X60607Y443540D01*
X56030Y444619D02*
X56030Y438143D01*
X56030Y444619D02*
X51173Y444619D01*
X51094Y444617D01*
X51014Y444611D01*
X50935Y444601D01*
X50857Y444588D01*
X50780Y444570D01*
X50703Y444549D01*
X50628Y444524D01*
X50553Y444496D01*
X50481Y444464D01*
X50410Y444428D01*
X50341Y444389D01*
X50274Y444346D01*
X50209Y444300D01*
X50146Y444252D01*
X50086Y444200D01*
X50028Y444145D01*
X49973Y444087D01*
X49921Y444027D01*
X49873Y443964D01*
X49827Y443899D01*
X49784Y443832D01*
X49745Y443763D01*
X49709Y443692D01*
X49677Y443620D01*
X49649Y443545D01*
X49624Y443470D01*
X49603Y443393D01*
X49585Y443316D01*
X49572Y443238D01*
X49562Y443159D01*
X49556Y443079D01*
X49554Y443000D01*
X49554Y438143D01*
X52792Y438143D02*
X52792Y444619D01*
X43790Y444619D02*
X42171Y438143D01*
X40552Y442460D01*
X38933Y438143D01*
X37314Y444619D01*
X30476Y441921D02*
X28048Y441921D01*
X30476Y441921D02*
X30562Y441919D01*
X30648Y441913D01*
X30733Y441903D01*
X30818Y441890D01*
X30902Y441872D01*
X30986Y441851D01*
X31068Y441826D01*
X31149Y441797D01*
X31229Y441765D01*
X31307Y441729D01*
X31383Y441689D01*
X31457Y441646D01*
X31530Y441600D01*
X31600Y441550D01*
X31668Y441497D01*
X31734Y441442D01*
X31796Y441383D01*
X31857Y441321D01*
X31914Y441257D01*
X31968Y441190D01*
X32019Y441121D01*
X32067Y441050D01*
X32112Y440977D01*
X32153Y440901D01*
X32191Y440824D01*
X32225Y440745D01*
X32256Y440665D01*
X32283Y440583D01*
X32306Y440500D01*
X32325Y440416D01*
X32341Y440332D01*
X32353Y440247D01*
X32361Y440161D01*
X32365Y440075D01*
X32365Y439989D01*
X32361Y439903D01*
X32353Y439817D01*
X32341Y439732D01*
X32325Y439648D01*
X32306Y439564D01*
X32283Y439481D01*
X32256Y439399D01*
X32225Y439319D01*
X32191Y439240D01*
X32153Y439163D01*
X32112Y439088D01*
X32067Y439014D01*
X32019Y438943D01*
X31968Y438874D01*
X31914Y438807D01*
X31857Y438743D01*
X31796Y438681D01*
X31734Y438622D01*
X31668Y438567D01*
X31600Y438514D01*
X31530Y438464D01*
X31457Y438418D01*
X31383Y438375D01*
X31307Y438335D01*
X31229Y438299D01*
X31149Y438267D01*
X31068Y438238D01*
X30986Y438213D01*
X30902Y438192D01*
X30818Y438174D01*
X30733Y438161D01*
X30648Y438151D01*
X30562Y438145D01*
X30476Y438143D01*
X28048Y438143D01*
X28048Y443000D01*
X28050Y443079D01*
X28056Y443159D01*
X28066Y443238D01*
X28079Y443316D01*
X28097Y443393D01*
X28118Y443470D01*
X28143Y443545D01*
X28171Y443620D01*
X28203Y443692D01*
X28239Y443763D01*
X28278Y443832D01*
X28321Y443899D01*
X28367Y443964D01*
X28415Y444027D01*
X28467Y444087D01*
X28522Y444145D01*
X28580Y444200D01*
X28640Y444252D01*
X28703Y444300D01*
X28768Y444346D01*
X28835Y444389D01*
X28904Y444428D01*
X28975Y444464D01*
X29047Y444496D01*
X29122Y444524D01*
X29197Y444549D01*
X29274Y444570D01*
X29351Y444588D01*
X29429Y444601D01*
X29508Y444611D01*
X29588Y444617D01*
X29667Y444619D01*
X31825Y444619D01*
X22085Y444619D02*
X22085Y438143D01*
X22085Y444619D02*
X18847Y444619D01*
X18847Y443540D01*
X13372Y438143D02*
X10674Y438143D01*
X13372Y438143D02*
X13451Y438145D01*
X13531Y438151D01*
X13610Y438161D01*
X13688Y438174D01*
X13765Y438192D01*
X13842Y438213D01*
X13917Y438238D01*
X13992Y438266D01*
X14064Y438298D01*
X14135Y438334D01*
X14204Y438373D01*
X14271Y438416D01*
X14336Y438462D01*
X14399Y438510D01*
X14459Y438562D01*
X14517Y438617D01*
X14572Y438675D01*
X14624Y438735D01*
X14672Y438798D01*
X14718Y438863D01*
X14761Y438930D01*
X14800Y438999D01*
X14836Y439070D01*
X14868Y439142D01*
X14896Y439217D01*
X14921Y439292D01*
X14942Y439369D01*
X14960Y439446D01*
X14973Y439524D01*
X14983Y439603D01*
X14989Y439683D01*
X14991Y439762D01*
X14991Y442460D01*
X14989Y442552D01*
X14983Y442643D01*
X14974Y442734D01*
X14960Y442825D01*
X14943Y442915D01*
X14921Y443004D01*
X14896Y443092D01*
X14868Y443179D01*
X14835Y443265D01*
X14799Y443349D01*
X14760Y443432D01*
X14717Y443513D01*
X14670Y443592D01*
X14621Y443669D01*
X14568Y443744D01*
X14512Y443816D01*
X14453Y443886D01*
X14391Y443954D01*
X14326Y444019D01*
X14258Y444081D01*
X14188Y444140D01*
X14116Y444196D01*
X14041Y444249D01*
X13964Y444298D01*
X13885Y444345D01*
X13804Y444388D01*
X13721Y444427D01*
X13637Y444463D01*
X13551Y444496D01*
X13464Y444524D01*
X13376Y444549D01*
X13287Y444571D01*
X13197Y444588D01*
X13106Y444602D01*
X13015Y444611D01*
X12924Y444617D01*
X12832Y444619D01*
X12740Y444617D01*
X12649Y444611D01*
X12558Y444602D01*
X12467Y444588D01*
X12377Y444571D01*
X12288Y444549D01*
X12200Y444524D01*
X12113Y444496D01*
X12027Y444463D01*
X11943Y444427D01*
X11860Y444388D01*
X11779Y444345D01*
X11700Y444298D01*
X11623Y444249D01*
X11548Y444196D01*
X11476Y444140D01*
X11406Y444081D01*
X11338Y444019D01*
X11273Y443954D01*
X11211Y443886D01*
X11152Y443816D01*
X11096Y443744D01*
X11043Y443669D01*
X10994Y443592D01*
X10947Y443513D01*
X10904Y443432D01*
X10865Y443349D01*
X10829Y443265D01*
X10796Y443179D01*
X10768Y443092D01*
X10743Y443004D01*
X10721Y442915D01*
X10704Y442825D01*
X10690Y442734D01*
X10681Y442643D01*
X10675Y442552D01*
X10673Y442460D01*
X10674Y442460D02*
X10674Y441381D01*
X14991Y441381D01*
D11*
X-11000Y240000D02*
X45000Y240000D01*
X-11000Y240000D02*
X-11000Y420000D01*
X45000Y420000D01*
X45000Y240000D01*
D12*
X698520Y31880D03*
D13*
X699400Y31960D03*
D14*
X699520Y32040D03*
D15*
X699600Y32120D03*
D16*
X699600Y32200D03*
D17*
X699600Y32280D03*
D18*
X699600Y32360D03*
D19*
X699520Y32440D03*
D20*
X696120Y32440D03*
D21*
X698960Y32520D03*
D22*
X698920Y32600D03*
D23*
X698880Y32680D03*
X698880Y32760D03*
D22*
X698840Y32840D03*
D23*
X698800Y32920D03*
D22*
X698760Y33000D03*
D21*
X698720Y33080D03*
D24*
X698680Y33160D03*
D25*
X698600Y33240D03*
D26*
X698600Y33320D03*
D27*
X698520Y33400D03*
D28*
X698440Y33480D03*
D29*
X698360Y33560D03*
D30*
X698320Y33640D03*
D31*
X698280Y33720D03*
D32*
X687920Y33720D03*
D19*
X698240Y33800D03*
D20*
X687800Y33800D03*
D33*
X684080Y33800D03*
D18*
X698240Y33880D03*
D34*
X687560Y33880D03*
D13*
X683960Y33880D03*
D35*
X698200Y33960D03*
D24*
X684840Y33960D03*
D35*
X698200Y34040D03*
D22*
X684760Y34040D03*
D35*
X698120Y34120D03*
D36*
X684680Y34120D03*
D35*
X698120Y34200D03*
D37*
X684640Y34200D03*
D17*
X698080Y34280D03*
D38*
X684600Y34280D03*
D18*
X698000Y34360D03*
D38*
X684600Y34360D03*
D39*
X697960Y34440D03*
D40*
X684600Y34440D03*
D39*
X697880Y34520D03*
D40*
X684600Y34520D03*
D39*
X697880Y34600D03*
D41*
X684560Y34600D03*
D39*
X697800Y34680D03*
D41*
X684560Y34680D03*
D39*
X697800Y34760D03*
D42*
X684600Y34760D03*
D19*
X697760Y34840D03*
D42*
X684600Y34840D03*
D39*
X697720Y34920D03*
D42*
X684600Y34920D03*
D39*
X697720Y35000D03*
D43*
X684600Y35000D03*
D18*
X697680Y35080D03*
D43*
X684600Y35080D03*
D18*
X697680Y35160D03*
D44*
X684640Y35160D03*
D18*
X697680Y35240D03*
D44*
X684640Y35240D03*
D35*
X697640Y35320D03*
D45*
X684680Y35320D03*
D35*
X697640Y35400D03*
D45*
X684680Y35400D03*
D46*
X703040Y35480D03*
D17*
X697600Y35480D03*
D47*
X684720Y35480D03*
D48*
X703000Y35560D03*
D17*
X697600Y35560D03*
D49*
X684760Y35560D03*
D50*
X702920Y35640D03*
D16*
X697600Y35640D03*
D49*
X684760Y35640D03*
D51*
X702800Y35720D03*
D16*
X697600Y35720D03*
D52*
X684800Y35720D03*
D53*
X702600Y35800D03*
D54*
X697560Y35800D03*
D52*
X684880Y35800D03*
D55*
X702440Y35880D03*
D15*
X697600Y35880D03*
D52*
X684880Y35880D03*
D56*
X702320Y35960D03*
D57*
X697560Y35960D03*
D58*
X685760Y35960D03*
D59*
X681760Y35960D03*
D60*
X702200Y36040D03*
D61*
X697600Y36040D03*
D25*
X685800Y36040D03*
D62*
X681720Y36040D03*
D63*
X699800Y36120D03*
D25*
X685880Y36120D03*
D64*
X681640Y36120D03*
D65*
X699840Y36200D03*
D25*
X685880Y36200D03*
D66*
X681560Y36200D03*
D67*
X699880Y36280D03*
D68*
X685920Y36280D03*
D69*
X681520Y36280D03*
D63*
X699800Y36360D03*
D68*
X686000Y36360D03*
D70*
X681480Y36360D03*
D71*
X699680Y36440D03*
D68*
X686080Y36440D03*
D46*
X681440Y36440D03*
D72*
X699640Y36520D03*
D24*
X686120Y36520D03*
D73*
X681360Y36520D03*
D74*
X699600Y36600D03*
D68*
X686160Y36600D03*
D73*
X681360Y36600D03*
D75*
X699560Y36680D03*
D24*
X686200Y36680D03*
D76*
X681360Y36680D03*
D74*
X699520Y36760D03*
D68*
X686240Y36760D03*
D77*
X681320Y36760D03*
D75*
X699480Y36840D03*
D68*
X686320Y36840D03*
D32*
X681280Y36840D03*
D75*
X699480Y36920D03*
D68*
X686320Y36920D03*
D78*
X681320Y36920D03*
D74*
X699440Y37000D03*
D68*
X686400Y37000D03*
D74*
X699440Y37080D03*
D25*
X686440Y37080D03*
D79*
X699280Y37160D03*
D58*
X686480Y37160D03*
D80*
X698880Y37240D03*
D58*
X686560Y37240D03*
D81*
X698520Y37320D03*
D26*
X686600Y37320D03*
D82*
X698280Y37400D03*
D83*
X686640Y37400D03*
D84*
X698000Y37480D03*
D27*
X686680Y37480D03*
D85*
X697800Y37560D03*
D86*
X686720Y37560D03*
D87*
X697560Y37640D03*
D28*
X686760Y37640D03*
D88*
X697360Y37720D03*
D30*
X686800Y37720D03*
D89*
X697160Y37800D03*
D31*
X686840Y37800D03*
D90*
X696960Y37880D03*
D39*
X686920Y37880D03*
D91*
X696800Y37960D03*
D35*
X687000Y37960D03*
D92*
X694120Y38040D03*
D93*
X694240Y38120D03*
X694160Y38200D03*
D94*
X694120Y38280D03*
X694040Y38360D03*
D95*
X694000Y38440D03*
X693920Y38520D03*
D92*
X693880Y38600D03*
X693800Y38680D03*
D95*
X693760Y38760D03*
D92*
X693720Y38840D03*
D95*
X693680Y38920D03*
D92*
X693640Y39000D03*
D95*
X693600Y39080D03*
D94*
X693560Y39160D03*
X693560Y39240D03*
D93*
X693520Y39320D03*
D96*
X693480Y39400D03*
D97*
X693480Y39480D03*
D98*
X693440Y39560D03*
X693440Y39640D03*
D99*
X693400Y39720D03*
D100*
X693400Y39800D03*
D101*
X693360Y39880D03*
D102*
X693200Y39960D03*
X693120Y40040D03*
D99*
X693000Y40120D03*
D97*
X692920Y40200D03*
D93*
X692880Y40280D03*
D94*
X692840Y40360D03*
D92*
X692760Y40440D03*
D103*
X692720Y40520D03*
D104*
X692680Y40600D03*
D105*
X692640Y40680D03*
D106*
X692600Y40760D03*
D107*
X692520Y40840D03*
D108*
X692480Y40920D03*
D109*
X692480Y41000D03*
D110*
X692440Y41080D03*
D111*
X692360Y41160D03*
D112*
X692320Y41240D03*
D113*
X692280Y41320D03*
D114*
X692240Y41400D03*
D115*
X692240Y41480D03*
D116*
X692200Y41560D03*
D117*
X692160Y41640D03*
D118*
X692120Y41720D03*
D119*
X692040Y41800D03*
X692040Y41880D03*
X692040Y41960D03*
X692040Y42040D03*
X692040Y42120D03*
D120*
X692080Y42200D03*
X692080Y42280D03*
X692080Y42360D03*
D118*
X692120Y42440D03*
X692120Y42520D03*
D117*
X692160Y42600D03*
X692160Y42680D03*
X692160Y42760D03*
D116*
X692200Y42840D03*
X692200Y42920D03*
X692200Y43000D03*
X692200Y43080D03*
D115*
X692240Y43160D03*
X692240Y43240D03*
X692240Y43320D03*
X692240Y43400D03*
D121*
X692280Y43480D03*
X692280Y43560D03*
X692280Y43640D03*
X692280Y43720D03*
D114*
X692320Y43800D03*
X692320Y43880D03*
X692320Y43960D03*
X692320Y44040D03*
D113*
X692360Y44120D03*
X692360Y44200D03*
X692360Y44280D03*
X692360Y44360D03*
D112*
X692400Y44440D03*
X692400Y44520D03*
X692400Y44600D03*
X692400Y44680D03*
X692400Y44760D03*
X692400Y44840D03*
D111*
X692440Y44920D03*
X692440Y45000D03*
X692440Y45080D03*
X692440Y45160D03*
D122*
X692480Y45240D03*
X692480Y45320D03*
X692480Y45400D03*
X692480Y45480D03*
D110*
X692520Y45560D03*
X692520Y45640D03*
X692520Y45720D03*
X692520Y45800D03*
D109*
X692560Y45880D03*
X692560Y45960D03*
X692560Y46040D03*
X692560Y46120D03*
X692560Y46200D03*
D123*
X692600Y46280D03*
X692600Y46360D03*
X692600Y46440D03*
D108*
X692640Y46520D03*
X692640Y46600D03*
X692640Y46680D03*
X692640Y46760D03*
D107*
X692680Y46840D03*
X692680Y46920D03*
X692680Y47000D03*
X692680Y47080D03*
D124*
X692720Y47160D03*
X692720Y47240D03*
X692720Y47320D03*
D106*
X692760Y47400D03*
X692760Y47480D03*
X692760Y47560D03*
D105*
X692800Y47640D03*
X692800Y47720D03*
X692800Y47800D03*
D125*
X692840Y47880D03*
X692840Y47960D03*
X692840Y48040D03*
D126*
X692880Y48120D03*
X692880Y48200D03*
D104*
X692920Y48280D03*
X692920Y48360D03*
D32*
X681360Y48360D03*
D104*
X692920Y48440D03*
D76*
X681360Y48440D03*
D103*
X692960Y48520D03*
D127*
X681400Y48520D03*
D103*
X692960Y48600D03*
D69*
X681280Y48600D03*
D128*
X692960Y48680D03*
D64*
X681240Y48680D03*
D128*
X692960Y48760D03*
D62*
X681240Y48760D03*
D92*
X693000Y48840D03*
D12*
X681240Y48840D03*
D92*
X693000Y48920D03*
D129*
X681280Y48920D03*
D95*
X693040Y49000D03*
D48*
X681320Y49000D03*
D95*
X693040Y49080D03*
D130*
X681360Y49080D03*
D95*
X693040Y49160D03*
D130*
X681360Y49160D03*
D94*
X693080Y49240D03*
D131*
X681400Y49240D03*
D94*
X693080Y49320D03*
D132*
X681440Y49320D03*
D93*
X693120Y49400D03*
D132*
X681440Y49400D03*
D93*
X693120Y49480D03*
D133*
X681480Y49480D03*
D96*
X693160Y49560D03*
D133*
X681480Y49560D03*
D96*
X693160Y49640D03*
D33*
X681520Y49640D03*
D96*
X693160Y49720D03*
D133*
X681560Y49720D03*
D97*
X693160Y49800D03*
D33*
X681600Y49800D03*
D97*
X693160Y49880D03*
D33*
X681600Y49880D03*
D98*
X693200Y49960D03*
D134*
X681640Y49960D03*
D98*
X693200Y50040D03*
D135*
X681600Y50040D03*
D99*
X693240Y50120D03*
D136*
X681640Y50120D03*
D99*
X693240Y50200D03*
D137*
X681680Y50200D03*
D99*
X693240Y50280D03*
D137*
X681680Y50280D03*
D102*
X693280Y50360D03*
D50*
X681720Y50360D03*
D102*
X693280Y50440D03*
D138*
X681680Y50440D03*
D100*
X693320Y50520D03*
D139*
X681720Y50520D03*
D100*
X693320Y50600D03*
D140*
X681760Y50600D03*
D100*
X693320Y50680D03*
D140*
X681760Y50680D03*
D101*
X693360Y50760D03*
D140*
X681840Y50760D03*
D101*
X693360Y50840D03*
D140*
X681840Y50840D03*
D141*
X693400Y50920D03*
D142*
X681880Y50920D03*
D141*
X693400Y51000D03*
D51*
X681920Y51000D03*
D143*
X693440Y51080D03*
D51*
X681920Y51080D03*
D144*
X693400Y51160D03*
D145*
X681960Y51160D03*
D144*
X693400Y51240D03*
D145*
X682040Y51240D03*
D146*
X693440Y51320D03*
D145*
X682040Y51320D03*
D146*
X693440Y51400D03*
D147*
X682080Y51400D03*
D148*
X693480Y51480D03*
D149*
X682120Y51480D03*
D148*
X693480Y51560D03*
D149*
X682200Y51560D03*
D148*
X693480Y51640D03*
D150*
X682240Y51640D03*
D151*
X693520Y51720D03*
D53*
X682280Y51720D03*
D151*
X693520Y51800D03*
D150*
X682320Y51800D03*
D152*
X693560Y51880D03*
D53*
X682360Y51880D03*
D152*
X693560Y51960D03*
D153*
X682400Y51960D03*
D154*
X691560Y52040D03*
X691560Y52120D03*
D155*
X691600Y52200D03*
X691600Y52280D03*
D156*
X691640Y52360D03*
X691640Y52440D03*
X691640Y52520D03*
D157*
X691680Y52600D03*
X691680Y52680D03*
X691680Y52760D03*
D158*
X680800Y52760D03*
D159*
X691360Y52840D03*
D160*
X691240Y52920D03*
D161*
X691160Y53000D03*
D162*
X691120Y53080D03*
D163*
X691040Y53160D03*
D164*
X691000Y53240D03*
X691000Y53320D03*
D165*
X690960Y53400D03*
X690960Y53480D03*
X690960Y53560D03*
X690960Y53640D03*
X690960Y53720D03*
X690960Y53800D03*
D164*
X691000Y53880D03*
X691000Y53960D03*
D166*
X691080Y54040D03*
D162*
X691120Y54120D03*
D167*
X691720Y54200D03*
D77*
X680360Y54200D03*
D119*
X691800Y54280D03*
D120*
X691840Y54360D03*
D118*
X691880Y54440D03*
D116*
X691960Y54520D03*
D121*
X692040Y54600D03*
D113*
X692120Y54680D03*
D122*
X692240Y54760D03*
D95*
X692880Y54840D03*
D46*
X682880Y54840D03*
D95*
X692880Y54920D03*
X692880Y55000D03*
X692880Y55080D03*
X692880Y55160D03*
D94*
X692920Y55240D03*
D93*
X692960Y55320D03*
X692960Y55400D03*
D96*
X693000Y55480D03*
D168*
X693040Y55560D03*
D98*
X693120Y55640D03*
D99*
X693160Y55720D03*
D102*
X693200Y55800D03*
D101*
X693280Y55880D03*
D141*
X693320Y55960D03*
D144*
X693400Y56040D03*
D146*
X693440Y56120D03*
D151*
X693520Y56200D03*
D152*
X693560Y56280D03*
D169*
X693640Y56360D03*
D170*
X693680Y56440D03*
D171*
X693760Y56520D03*
D172*
X693800Y56600D03*
X693800Y56680D03*
X693800Y56760D03*
X693800Y56840D03*
D171*
X693840Y56920D03*
X693760Y57000D03*
X693760Y57080D03*
X693760Y57160D03*
X693840Y57240D03*
X693840Y57320D03*
D172*
X693880Y57400D03*
D173*
X693920Y57480D03*
D174*
X693960Y57560D03*
D175*
X694000Y57640D03*
D176*
X694040Y57720D03*
D177*
X694120Y57800D03*
D178*
X694160Y57880D03*
D179*
X694240Y57960D03*
D180*
X694280Y58040D03*
D181*
X694360Y58120D03*
D182*
X694440Y58200D03*
D183*
X694480Y58280D03*
D184*
X694560Y58360D03*
D185*
X694560Y58440D03*
D186*
X694600Y58520D03*
D187*
X694680Y58600D03*
D188*
X694720Y58680D03*
D189*
X694760Y58760D03*
D190*
X694800Y58840D03*
D191*
X694840Y58920D03*
D192*
X694880Y59000D03*
D193*
X694920Y59080D03*
D194*
X694960Y59160D03*
D195*
X695000Y59240D03*
D196*
X695080Y59320D03*
D197*
X695120Y59400D03*
D198*
X695160Y59480D03*
D199*
X695200Y59560D03*
D198*
X695160Y59640D03*
X695160Y59720D03*
X695160Y59800D03*
X695160Y59880D03*
X695160Y59960D03*
D199*
X695120Y60040D03*
X695120Y60120D03*
X695120Y60200D03*
D200*
X695160Y60280D03*
X695160Y60360D03*
D201*
X695200Y60440D03*
X695200Y60520D03*
D202*
X695200Y60600D03*
X695200Y60680D03*
D203*
X695240Y60760D03*
D91*
X695280Y60840D03*
X695280Y60920D03*
D204*
X695320Y61000D03*
D205*
X695360Y61080D03*
D90*
X695360Y61160D03*
D206*
X695400Y61240D03*
D207*
X695440Y61320D03*
D89*
X695480Y61400D03*
D208*
X695520Y61480D03*
D209*
X695560Y61560D03*
D210*
X695640Y61640D03*
D211*
X695920Y61720D03*
D85*
X695960Y61800D03*
D212*
X695960Y61880D03*
D213*
X696000Y61960D03*
D214*
X696040Y62040D03*
D84*
X696080Y62120D03*
D215*
X696080Y62200D03*
X696080Y62280D03*
D216*
X696120Y62360D03*
D82*
X696120Y62440D03*
D217*
X696200Y62520D03*
D218*
X696200Y62600D03*
D219*
X696240Y62680D03*
D220*
X696240Y62760D03*
D221*
X696280Y62840D03*
D222*
X696320Y62920D03*
D223*
X696320Y63000D03*
D224*
X696360Y63080D03*
D217*
X695880Y63160D03*
D225*
X695360Y63240D03*
D226*
X695280Y63320D03*
D227*
X695200Y63400D03*
D89*
X695160Y63480D03*
D90*
X695200Y63560D03*
D204*
X695160Y63640D03*
D202*
X695200Y63720D03*
D201*
X695200Y63800D03*
D197*
X695200Y63880D03*
D195*
X695240Y63960D03*
D193*
X695240Y64040D03*
D190*
X695280Y64120D03*
D187*
X695320Y64200D03*
D185*
X695360Y64280D03*
D184*
X695440Y64360D03*
D182*
X695480Y64440D03*
D180*
X695560Y64520D03*
D228*
X695640Y64600D03*
D176*
X695720Y64680D03*
D172*
X695800Y64760D03*
D229*
X695880Y64840D03*
D152*
X695960Y64920D03*
D146*
X696080Y65000D03*
D141*
X696200Y65080D03*
D102*
X696320Y65160D03*
D168*
X696480Y65240D03*
D94*
X696600Y65320D03*
D230*
X696680Y65400D03*
D125*
X696840Y65480D03*
D107*
X697000Y65560D03*
D109*
X697120Y65640D03*
D112*
X697280Y65720D03*
D115*
X697440Y65800D03*
D119*
X697640Y65880D03*
D155*
X697840Y65960D03*
D231*
X712280Y66040D03*
D232*
X698120Y66040D03*
D73*
X712160Y66120D03*
D166*
X698360Y66120D03*
D78*
X684360Y66120D03*
D34*
X711960Y66200D03*
D233*
X698600Y66200D03*
D32*
X684400Y66200D03*
D234*
X699720Y66280D03*
D76*
X684400Y66280D03*
D234*
X699720Y66360D03*
D20*
X684440Y66360D03*
D235*
X699680Y66440D03*
D73*
X684480Y66440D03*
D236*
X699640Y66520D03*
D127*
X684520Y66520D03*
D236*
X699640Y66600D03*
D46*
X684560Y66600D03*
D236*
X699560Y66680D03*
D46*
X684560Y66680D03*
D237*
X699520Y66760D03*
D70*
X684600Y66760D03*
D237*
X699440Y66840D03*
D238*
X684640Y66840D03*
D237*
X699440Y66920D03*
D34*
X684680Y66920D03*
D237*
X699360Y67000D03*
D69*
X684720Y67000D03*
D239*
X699320Y67080D03*
D66*
X684760Y67080D03*
D239*
X699240Y67160D03*
D240*
X684800Y67160D03*
D239*
X699160Y67240D03*
D64*
X684840Y67240D03*
D241*
X699120Y67320D03*
D242*
X684880Y67320D03*
D243*
X699000Y67400D03*
D62*
X684920Y67400D03*
D243*
X698920Y67480D03*
D59*
X684960Y67480D03*
D244*
X698000Y67560D03*
D245*
X697960Y67640D03*
D246*
X697880Y67720D03*
D247*
X697840Y67800D03*
D248*
X697800Y67880D03*
D249*
X697760Y67960D03*
D250*
X697720Y68040D03*
D251*
X697680Y68120D03*
D252*
X697640Y68200D03*
D253*
X697600Y68280D03*
D254*
X697520Y68360D03*
D255*
X697480Y68440D03*
D256*
X697400Y68520D03*
D257*
X697360Y68600D03*
D243*
X697320Y68680D03*
D239*
X697240Y68760D03*
D235*
X697120Y68840D03*
D258*
X697040Y68920D03*
D259*
X697000Y69000D03*
D260*
X696920Y69080D03*
D261*
X696840Y69160D03*
D262*
X696760Y69240D03*
D263*
X696640Y69320D03*
D264*
X696560Y69400D03*
D265*
X696520Y69480D03*
D266*
X696400Y69560D03*
D267*
X696320Y69640D03*
D268*
X696160Y69720D03*
D269*
X696040Y69800D03*
D270*
X695920Y69880D03*
D271*
X695760Y69960D03*
D233*
X695640Y70040D03*
D272*
X695520Y70120D03*
D273*
X695400Y70200D03*
D164*
X695240Y70280D03*
D163*
X695120Y70360D03*
D166*
X694920Y70440D03*
D162*
X694800Y70520D03*
D161*
X694680Y70600D03*
D160*
X694600Y70680D03*
D232*
X694440Y70760D03*
D274*
X694280Y70840D03*
D275*
X694160Y70920D03*
D154*
X694040Y71000D03*
D167*
X693880Y71080D03*
D118*
X693800Y71160D03*
D121*
X693640Y71240D03*
D122*
X693440Y71320D03*
D124*
X693280Y71400D03*
D103*
X693120Y71480D03*
D94*
X692920Y71560D03*
D100*
X692680Y71640D03*
D101*
X692640Y71720D03*
D102*
X692640Y71800D03*
D99*
X692600Y71880D03*
D98*
X692560Y71960D03*
D96*
X692520Y72040D03*
D93*
X692480Y72120D03*
D242*
X682160Y72120D03*
D115*
X691520Y72200D03*
D118*
X691400Y72280D03*
D119*
X691320Y72360D03*
D167*
X691240Y72440D03*
D157*
X691200Y72520D03*
D155*
X691120Y72600D03*
D154*
X691080Y72680D03*
D276*
X691040Y72760D03*
D277*
X691000Y72840D03*
D275*
X690960Y72920D03*
D274*
X690920Y73000D03*
X690920Y73080D03*
X690920Y73160D03*
X690920Y73240D03*
X690920Y73320D03*
D275*
X690880Y73400D03*
X690880Y73480D03*
D277*
X690920Y73560D03*
D276*
X690880Y73640D03*
X690880Y73720D03*
X690880Y73800D03*
D155*
X690880Y73880D03*
X690880Y73960D03*
D156*
X690840Y74040D03*
D167*
X690840Y74120D03*
X690840Y74200D03*
D119*
X690840Y74280D03*
D120*
X690800Y74360D03*
D117*
X690800Y74440D03*
X690800Y74520D03*
D115*
X690800Y74600D03*
X690800Y74680D03*
D121*
X690840Y74760D03*
X690840Y74840D03*
D114*
X690880Y74920D03*
D113*
X690840Y75000D03*
D112*
X690880Y75080D03*
D111*
X690920Y75160D03*
X690920Y75240D03*
D122*
X690960Y75320D03*
D110*
X691000Y75400D03*
X691000Y75480D03*
D109*
X691040Y75560D03*
X691040Y75640D03*
D123*
X691080Y75720D03*
D108*
X691120Y75800D03*
D107*
X691160Y75880D03*
X691160Y75960D03*
D124*
X691200Y76040D03*
D106*
X691240Y76120D03*
X691240Y76200D03*
D105*
X691280Y76280D03*
D125*
X691320Y76360D03*
D126*
X691280Y76440D03*
D104*
X691320Y76520D03*
D103*
X691360Y76600D03*
X691360Y76680D03*
D230*
X691400Y76760D03*
D128*
X691440Y76840D03*
D92*
X691480Y76920D03*
X691480Y77000D03*
D95*
X691520Y77080D03*
D93*
X691520Y77160D03*
X691520Y77240D03*
D96*
X691560Y77320D03*
D168*
X691600Y77400D03*
D98*
X691600Y77480D03*
X691600Y77560D03*
D99*
X691640Y77640D03*
D100*
X691640Y77720D03*
X691640Y77800D03*
D101*
X691680Y77880D03*
D143*
X691680Y77960D03*
D144*
X691720Y78040D03*
D146*
X691680Y78120D03*
D148*
X691720Y78200D03*
D152*
X691720Y78280D03*
D169*
X691720Y78360D03*
X691720Y78440D03*
D229*
X691720Y78520D03*
D171*
X691760Y78600D03*
D172*
X691720Y78680D03*
D174*
X691720Y78760D03*
D176*
X691720Y78840D03*
X691720Y78920D03*
D177*
X691720Y79000D03*
D228*
X691720Y79080D03*
D180*
X691720Y79160D03*
D278*
X691680Y79240D03*
D181*
X691720Y79320D03*
D182*
X691720Y79400D03*
D183*
X691680Y79480D03*
D279*
X691640Y79560D03*
D186*
X691640Y79640D03*
D187*
X691640Y79720D03*
D188*
X691600Y79800D03*
D190*
X691600Y79880D03*
D192*
X691600Y79960D03*
D194*
X691520Y80040D03*
D280*
X691520Y80120D03*
D197*
X691520Y80200D03*
D200*
X691480Y80280D03*
D201*
X691440Y80360D03*
D203*
X691400Y80440D03*
D205*
X691360Y80520D03*
D90*
X691360Y80600D03*
D207*
X691280Y80680D03*
D227*
X691200Y80760D03*
D88*
X691200Y80840D03*
D226*
X691200Y80920D03*
D281*
X691160Y81000D03*
D87*
X691160Y81080D03*
D211*
X691120Y81160D03*
D282*
X691120Y81240D03*
D212*
X691080Y81320D03*
D214*
X691080Y81400D03*
D283*
X691080Y81480D03*
D216*
X691080Y81560D03*
D82*
X691080Y81640D03*
D284*
X691040Y81720D03*
D218*
X691000Y81800D03*
D81*
X691000Y81880D03*
D221*
X691000Y81960D03*
D222*
X690960Y82040D03*
D223*
X690960Y82120D03*
D285*
X690960Y82200D03*
D80*
X690960Y82280D03*
D286*
X690960Y82360D03*
D287*
X690920Y82440D03*
D288*
X690920Y82520D03*
D79*
X690880Y82600D03*
D289*
X690880Y82680D03*
D74*
X690880Y82760D03*
D72*
X690840Y82840D03*
D63*
X690840Y82920D03*
D67*
X690840Y83000D03*
D290*
X690840Y83080D03*
D291*
X690880Y83160D03*
X690960Y83240D03*
X690960Y83320D03*
D292*
X691000Y83400D03*
D293*
X691040Y83480D03*
D294*
X691080Y83560D03*
D295*
X691120Y83640D03*
X691120Y83720D03*
D296*
X691160Y83800D03*
D297*
X691200Y83880D03*
D298*
X691240Y83960D03*
D299*
X691280Y84040D03*
D300*
X691320Y84120D03*
X691320Y84200D03*
D52*
X691360Y84280D03*
D49*
X691400Y84360D03*
D47*
X691440Y84440D03*
D45*
X691480Y84520D03*
D43*
X691480Y84600D03*
D301*
X691520Y84680D03*
D42*
X691560Y84760D03*
D41*
X691600Y84840D03*
X691600Y84920D03*
D40*
X691640Y85000D03*
D38*
X691640Y85080D03*
D37*
X691680Y85160D03*
D36*
X691720Y85240D03*
D23*
X691760Y85320D03*
D22*
X691800Y85400D03*
D21*
X691840Y85480D03*
D68*
X691840Y85560D03*
X691840Y85640D03*
D25*
X691880Y85720D03*
D58*
X691920Y85800D03*
D83*
X691920Y85880D03*
D27*
X691960Y85960D03*
D86*
X692000Y86040D03*
D28*
X692040Y86120D03*
D29*
X692040Y86200D03*
D30*
X692080Y86280D03*
X692080Y86360D03*
D19*
X692080Y86440D03*
D18*
X692160Y86520D03*
X692160Y86600D03*
D17*
X692160Y86680D03*
D302*
X692200Y86760D03*
D16*
X692240Y86840D03*
D15*
X692240Y86920D03*
D57*
X692280Y87000D03*
D303*
X692280Y87080D03*
D14*
X692320Y87160D03*
D304*
X692320Y87240D03*
D305*
X692320Y87320D03*
D13*
X692360Y87400D03*
D306*
X692360Y87480D03*
D55*
X692360Y87560D03*
D307*
X692360Y87640D03*
D150*
X692320Y87720D03*
D51*
X692240Y87800D03*
D140*
X692240Y87880D03*
D139*
X692280Y87960D03*
D138*
X692320Y88040D03*
D50*
X692360Y88120D03*
D135*
X692400Y88200D03*
D134*
X692440Y88280D03*
D33*
X692480Y88360D03*
D132*
X692480Y88440D03*
D130*
X692560Y88520D03*
D129*
X692560Y88600D03*
D59*
X692640Y88680D03*
D64*
X692680Y88760D03*
D69*
X692720Y88840D03*
D70*
X692760Y88920D03*
D20*
X692760Y89000D03*
D10*
X670857Y46857D02*
X670857Y34143D01*
X670857Y39087D02*
X663794Y46857D01*
X668032Y41913D02*
X663794Y34143D01*
X658291Y36968D02*
X658291Y39794D01*
X658289Y39900D01*
X658283Y40005D01*
X658273Y40110D01*
X658259Y40215D01*
X658242Y40319D01*
X658220Y40423D01*
X658195Y40525D01*
X658165Y40627D01*
X658132Y40727D01*
X658096Y40826D01*
X658055Y40924D01*
X658011Y41020D01*
X657964Y41114D01*
X657913Y41207D01*
X657858Y41297D01*
X657800Y41385D01*
X657739Y41472D01*
X657675Y41555D01*
X657607Y41637D01*
X657537Y41715D01*
X657464Y41792D01*
X657387Y41865D01*
X657309Y41935D01*
X657227Y42003D01*
X657144Y42067D01*
X657057Y42128D01*
X656969Y42186D01*
X656879Y42241D01*
X656786Y42292D01*
X656692Y42339D01*
X656596Y42383D01*
X656498Y42424D01*
X656399Y42460D01*
X656299Y42493D01*
X656197Y42523D01*
X656095Y42548D01*
X655991Y42570D01*
X655887Y42587D01*
X655782Y42601D01*
X655677Y42611D01*
X655572Y42617D01*
X655466Y42619D01*
X655360Y42617D01*
X655255Y42611D01*
X655150Y42601D01*
X655045Y42587D01*
X654941Y42570D01*
X654837Y42548D01*
X654735Y42523D01*
X654633Y42493D01*
X654533Y42460D01*
X654434Y42424D01*
X654336Y42383D01*
X654240Y42339D01*
X654146Y42292D01*
X654054Y42241D01*
X653963Y42186D01*
X653875Y42128D01*
X653788Y42067D01*
X653705Y42003D01*
X653623Y41935D01*
X653545Y41865D01*
X653468Y41792D01*
X653395Y41715D01*
X653325Y41637D01*
X653257Y41555D01*
X653193Y41472D01*
X653132Y41385D01*
X653074Y41297D01*
X653019Y41207D01*
X652968Y41114D01*
X652921Y41020D01*
X652877Y40924D01*
X652836Y40826D01*
X652800Y40727D01*
X652767Y40627D01*
X652737Y40525D01*
X652712Y40423D01*
X652690Y40319D01*
X652673Y40215D01*
X652659Y40110D01*
X652649Y40005D01*
X652643Y39900D01*
X652641Y39794D01*
X652641Y36968D01*
X652643Y36862D01*
X652649Y36757D01*
X652659Y36652D01*
X652673Y36547D01*
X652690Y36443D01*
X652712Y36339D01*
X652737Y36237D01*
X652767Y36135D01*
X652800Y36035D01*
X652836Y35936D01*
X652877Y35838D01*
X652921Y35742D01*
X652968Y35648D01*
X653019Y35555D01*
X653074Y35465D01*
X653132Y35377D01*
X653193Y35290D01*
X653257Y35207D01*
X653325Y35125D01*
X653395Y35047D01*
X653468Y34970D01*
X653545Y34897D01*
X653623Y34827D01*
X653705Y34759D01*
X653788Y34695D01*
X653875Y34634D01*
X653963Y34576D01*
X654054Y34521D01*
X654146Y34470D01*
X654240Y34423D01*
X654336Y34379D01*
X654434Y34338D01*
X654533Y34302D01*
X654633Y34269D01*
X654735Y34239D01*
X654837Y34214D01*
X654941Y34192D01*
X655045Y34175D01*
X655150Y34161D01*
X655255Y34151D01*
X655360Y34145D01*
X655466Y34143D01*
X655572Y34145D01*
X655677Y34151D01*
X655782Y34161D01*
X655887Y34175D01*
X655991Y34192D01*
X656095Y34214D01*
X656197Y34239D01*
X656299Y34269D01*
X656399Y34302D01*
X656498Y34338D01*
X656596Y34379D01*
X656692Y34423D01*
X656786Y34470D01*
X656879Y34521D01*
X656969Y34576D01*
X657057Y34634D01*
X657144Y34695D01*
X657227Y34759D01*
X657309Y34827D01*
X657387Y34897D01*
X657464Y34970D01*
X657537Y35047D01*
X657607Y35125D01*
X657675Y35207D01*
X657739Y35290D01*
X657800Y35377D01*
X657858Y35465D01*
X657913Y35555D01*
X657964Y35648D01*
X658011Y35742D01*
X658055Y35838D01*
X658096Y35936D01*
X658132Y36035D01*
X658165Y36135D01*
X658195Y36237D01*
X658220Y36339D01*
X658242Y36443D01*
X658259Y36547D01*
X658273Y36652D01*
X658283Y36757D01*
X658289Y36862D01*
X658291Y36968D01*
X646141Y34143D02*
X646141Y42619D01*
X646141Y38381D02*
X640491Y38381D01*
X640491Y42619D02*
X640491Y34143D01*
X632835Y34143D02*
X632835Y42619D01*
X632835Y34143D02*
X625772Y34143D01*
X625772Y31318D01*
X627184Y34143D02*
X627184Y42619D01*
X618822Y34143D02*
X615291Y34143D01*
X618822Y34143D02*
X618912Y34145D01*
X619002Y34151D01*
X619091Y34160D01*
X619180Y34173D01*
X619268Y34191D01*
X619356Y34211D01*
X619442Y34236D01*
X619528Y34264D01*
X619612Y34296D01*
X619695Y34331D01*
X619776Y34370D01*
X619855Y34412D01*
X619933Y34458D01*
X620009Y34506D01*
X620082Y34558D01*
X620153Y34613D01*
X620222Y34671D01*
X620288Y34732D01*
X620352Y34796D01*
X620413Y34862D01*
X620471Y34931D01*
X620526Y35002D01*
X620578Y35075D01*
X620626Y35151D01*
X620672Y35229D01*
X620714Y35308D01*
X620753Y35389D01*
X620788Y35472D01*
X620820Y35556D01*
X620848Y35642D01*
X620873Y35728D01*
X620893Y35816D01*
X620911Y35904D01*
X620924Y35993D01*
X620933Y36082D01*
X620939Y36172D01*
X620941Y36262D01*
X620941Y39794D01*
X620939Y39900D01*
X620933Y40005D01*
X620923Y40110D01*
X620909Y40215D01*
X620892Y40319D01*
X620870Y40423D01*
X620845Y40525D01*
X620815Y40627D01*
X620782Y40727D01*
X620746Y40826D01*
X620705Y40924D01*
X620661Y41020D01*
X620614Y41114D01*
X620563Y41207D01*
X620508Y41297D01*
X620450Y41385D01*
X620389Y41472D01*
X620325Y41555D01*
X620257Y41637D01*
X620187Y41715D01*
X620114Y41792D01*
X620037Y41865D01*
X619959Y41935D01*
X619877Y42003D01*
X619794Y42067D01*
X619707Y42128D01*
X619619Y42186D01*
X619529Y42241D01*
X619436Y42292D01*
X619342Y42339D01*
X619246Y42383D01*
X619148Y42424D01*
X619049Y42460D01*
X618949Y42493D01*
X618847Y42523D01*
X618745Y42548D01*
X618641Y42570D01*
X618537Y42587D01*
X618432Y42601D01*
X618327Y42611D01*
X618222Y42617D01*
X618116Y42619D01*
X618010Y42617D01*
X617905Y42611D01*
X617800Y42601D01*
X617695Y42587D01*
X617591Y42570D01*
X617487Y42548D01*
X617385Y42523D01*
X617283Y42493D01*
X617183Y42460D01*
X617084Y42424D01*
X616986Y42383D01*
X616890Y42339D01*
X616796Y42292D01*
X616704Y42241D01*
X616613Y42186D01*
X616525Y42128D01*
X616438Y42067D01*
X616355Y42003D01*
X616273Y41935D01*
X616195Y41865D01*
X616118Y41792D01*
X616045Y41715D01*
X615975Y41637D01*
X615907Y41555D01*
X615843Y41472D01*
X615782Y41385D01*
X615724Y41297D01*
X615669Y41207D01*
X615618Y41114D01*
X615571Y41020D01*
X615527Y40924D01*
X615486Y40826D01*
X615450Y40727D01*
X615417Y40627D01*
X615387Y40525D01*
X615362Y40423D01*
X615340Y40319D01*
X615323Y40215D01*
X615309Y40110D01*
X615299Y40005D01*
X615293Y39900D01*
X615291Y39794D01*
X615291Y38381D01*
X620941Y38381D01*
X608690Y42619D02*
X608690Y29905D01*
X608690Y42619D02*
X605159Y42619D01*
X605069Y42617D01*
X604979Y42611D01*
X604890Y42602D01*
X604801Y42589D01*
X604713Y42571D01*
X604625Y42551D01*
X604539Y42526D01*
X604453Y42498D01*
X604369Y42466D01*
X604286Y42431D01*
X604205Y42392D01*
X604126Y42350D01*
X604048Y42304D01*
X603972Y42256D01*
X603899Y42204D01*
X603828Y42149D01*
X603759Y42091D01*
X603693Y42030D01*
X603629Y41966D01*
X603568Y41900D01*
X603510Y41831D01*
X603455Y41760D01*
X603403Y41687D01*
X603355Y41611D01*
X603309Y41533D01*
X603267Y41454D01*
X603228Y41373D01*
X603193Y41290D01*
X603161Y41206D01*
X603133Y41120D01*
X603108Y41034D01*
X603088Y40946D01*
X603070Y40858D01*
X603057Y40769D01*
X603048Y40680D01*
X603042Y40590D01*
X603040Y40500D01*
X603040Y36262D01*
X603042Y36172D01*
X603048Y36082D01*
X603057Y35993D01*
X603070Y35904D01*
X603088Y35816D01*
X603108Y35728D01*
X603133Y35642D01*
X603161Y35556D01*
X603193Y35472D01*
X603228Y35389D01*
X603267Y35308D01*
X603309Y35229D01*
X603355Y35151D01*
X603403Y35075D01*
X603455Y35002D01*
X603510Y34931D01*
X603568Y34862D01*
X603629Y34796D01*
X603693Y34732D01*
X603759Y34671D01*
X603828Y34613D01*
X603899Y34558D01*
X603972Y34506D01*
X604048Y34458D01*
X604126Y34412D01*
X604205Y34370D01*
X604286Y34331D01*
X604369Y34296D01*
X604453Y34264D01*
X604539Y34236D01*
X604625Y34211D01*
X604713Y34191D01*
X604801Y34173D01*
X604890Y34160D01*
X604979Y34151D01*
X605069Y34145D01*
X605159Y34143D01*
X608690Y34143D01*
X596641Y34143D02*
X596641Y42619D01*
X596641Y38381D02*
X590991Y38381D01*
X590991Y42619D02*
X590991Y34143D01*
X578032Y46857D02*
X578032Y49682D01*
X574500Y49682D02*
X574500Y46857D01*
X568548Y46857D02*
X568548Y34143D01*
X561484Y46857D01*
X561484Y34143D01*
X555498Y46857D02*
X548434Y46857D01*
X551966Y46857D02*
X551966Y34143D01*
X540129Y34143D02*
X537304Y34143D01*
X540129Y34143D02*
X540235Y34145D01*
X540340Y34151D01*
X540445Y34161D01*
X540550Y34175D01*
X540654Y34192D01*
X540758Y34214D01*
X540860Y34239D01*
X540962Y34269D01*
X541062Y34302D01*
X541161Y34338D01*
X541259Y34379D01*
X541355Y34423D01*
X541449Y34470D01*
X541542Y34521D01*
X541632Y34576D01*
X541720Y34634D01*
X541807Y34695D01*
X541890Y34759D01*
X541972Y34827D01*
X542050Y34897D01*
X542127Y34970D01*
X542200Y35047D01*
X542270Y35125D01*
X542338Y35207D01*
X542402Y35290D01*
X542463Y35377D01*
X542521Y35465D01*
X542576Y35555D01*
X542627Y35648D01*
X542674Y35742D01*
X542718Y35838D01*
X542759Y35936D01*
X542795Y36035D01*
X542828Y36135D01*
X542858Y36237D01*
X542883Y36339D01*
X542905Y36443D01*
X542922Y36547D01*
X542936Y36652D01*
X542946Y36757D01*
X542952Y36862D01*
X542954Y36968D01*
X542955Y36968D02*
X542955Y44032D01*
X542954Y44032D02*
X542952Y44138D01*
X542946Y44243D01*
X542936Y44348D01*
X542922Y44453D01*
X542905Y44557D01*
X542883Y44661D01*
X542858Y44763D01*
X542828Y44865D01*
X542795Y44965D01*
X542759Y45064D01*
X542718Y45162D01*
X542674Y45258D01*
X542627Y45352D01*
X542576Y45445D01*
X542521Y45535D01*
X542463Y45623D01*
X542402Y45710D01*
X542338Y45793D01*
X542270Y45875D01*
X542200Y45953D01*
X542127Y46030D01*
X542050Y46103D01*
X541972Y46173D01*
X541890Y46241D01*
X541807Y46305D01*
X541720Y46366D01*
X541632Y46424D01*
X541542Y46479D01*
X541449Y46530D01*
X541355Y46577D01*
X541259Y46621D01*
X541161Y46662D01*
X541062Y46698D01*
X540962Y46731D01*
X540860Y46761D01*
X540758Y46786D01*
X540654Y46808D01*
X540550Y46825D01*
X540445Y46839D01*
X540340Y46849D01*
X540235Y46855D01*
X540129Y46857D01*
X537304Y46857D01*
X532582Y46857D02*
X532582Y49682D01*
X529050Y49682D02*
X529050Y46857D01*
D308*
X528000Y25000D02*
X705000Y25000D01*
D309*
X704238Y19238D02*
X704238Y10762D01*
X704238Y19238D02*
X701884Y19238D01*
X701788Y19236D01*
X701692Y19230D01*
X701597Y19220D01*
X701502Y19207D01*
X701407Y19189D01*
X701313Y19168D01*
X701221Y19143D01*
X701129Y19114D01*
X701039Y19081D01*
X700950Y19045D01*
X700863Y19005D01*
X700777Y18961D01*
X700693Y18915D01*
X700611Y18864D01*
X700532Y18811D01*
X700454Y18754D01*
X700379Y18694D01*
X700306Y18631D01*
X700237Y18565D01*
X700169Y18497D01*
X700105Y18426D01*
X700044Y18352D01*
X699985Y18275D01*
X699930Y18197D01*
X699878Y18116D01*
X699830Y18033D01*
X699784Y17948D01*
X699743Y17862D01*
X699705Y17774D01*
X699670Y17684D01*
X699639Y17593D01*
X699612Y17501D01*
X699589Y17408D01*
X699570Y17314D01*
X699554Y17219D01*
X699542Y17124D01*
X699534Y17028D01*
X699530Y16932D01*
X699530Y16836D01*
X699534Y16740D01*
X699542Y16644D01*
X699554Y16549D01*
X699570Y16454D01*
X699589Y16360D01*
X699612Y16267D01*
X699639Y16175D01*
X699670Y16084D01*
X699705Y15994D01*
X699743Y15906D01*
X699784Y15820D01*
X699830Y15735D01*
X699878Y15652D01*
X699930Y15571D01*
X699985Y15493D01*
X700044Y15416D01*
X700105Y15342D01*
X700169Y15271D01*
X700237Y15203D01*
X700306Y15137D01*
X700379Y15074D01*
X700454Y15014D01*
X700532Y14957D01*
X700611Y14904D01*
X700693Y14853D01*
X700777Y14807D01*
X700863Y14763D01*
X700950Y14723D01*
X701039Y14687D01*
X701129Y14654D01*
X701221Y14625D01*
X701313Y14600D01*
X701407Y14579D01*
X701502Y14561D01*
X701597Y14548D01*
X701692Y14538D01*
X701788Y14532D01*
X701884Y14530D01*
X701884Y14529D02*
X704238Y14529D01*
X693886Y10762D02*
X692003Y10762D01*
X693886Y10762D02*
X693971Y10764D01*
X694055Y10770D01*
X694139Y10779D01*
X694222Y10792D01*
X694305Y10809D01*
X694387Y10830D01*
X694468Y10854D01*
X694548Y10882D01*
X694626Y10914D01*
X694703Y10949D01*
X694779Y10987D01*
X694852Y11029D01*
X694924Y11074D01*
X694993Y11122D01*
X695061Y11173D01*
X695126Y11227D01*
X695188Y11284D01*
X695248Y11344D01*
X695305Y11406D01*
X695359Y11471D01*
X695410Y11539D01*
X695458Y11608D01*
X695503Y11680D01*
X695545Y11753D01*
X695583Y11829D01*
X695618Y11906D01*
X695650Y11984D01*
X695678Y12064D01*
X695702Y12145D01*
X695723Y12227D01*
X695740Y12310D01*
X695753Y12393D01*
X695762Y12477D01*
X695768Y12562D01*
X695770Y12646D01*
X695770Y17354D01*
X695768Y17439D01*
X695762Y17523D01*
X695753Y17607D01*
X695740Y17690D01*
X695723Y17773D01*
X695702Y17855D01*
X695678Y17936D01*
X695650Y18016D01*
X695618Y18094D01*
X695583Y18171D01*
X695545Y18247D01*
X695503Y18320D01*
X695458Y18392D01*
X695410Y18461D01*
X695359Y18529D01*
X695305Y18594D01*
X695248Y18656D01*
X695188Y18716D01*
X695126Y18773D01*
X695061Y18827D01*
X694993Y18878D01*
X694924Y18926D01*
X694852Y18971D01*
X694779Y19013D01*
X694703Y19051D01*
X694627Y19086D01*
X694548Y19118D01*
X694468Y19146D01*
X694387Y19170D01*
X694305Y19191D01*
X694222Y19208D01*
X694139Y19221D01*
X694055Y19230D01*
X693971Y19236D01*
X693886Y19238D01*
X692003Y19238D01*
X687738Y15471D02*
X685384Y15471D01*
X685384Y15470D02*
X685288Y15468D01*
X685192Y15462D01*
X685097Y15452D01*
X685002Y15439D01*
X684907Y15421D01*
X684813Y15400D01*
X684721Y15375D01*
X684629Y15346D01*
X684539Y15313D01*
X684450Y15277D01*
X684363Y15237D01*
X684277Y15193D01*
X684193Y15147D01*
X684111Y15096D01*
X684032Y15043D01*
X683954Y14986D01*
X683879Y14926D01*
X683806Y14863D01*
X683737Y14797D01*
X683669Y14729D01*
X683605Y14658D01*
X683544Y14584D01*
X683485Y14507D01*
X683430Y14429D01*
X683378Y14348D01*
X683330Y14265D01*
X683284Y14180D01*
X683243Y14094D01*
X683205Y14006D01*
X683170Y13916D01*
X683139Y13825D01*
X683112Y13733D01*
X683089Y13640D01*
X683070Y13546D01*
X683054Y13451D01*
X683042Y13356D01*
X683034Y13260D01*
X683030Y13164D01*
X683030Y13068D01*
X683034Y12972D01*
X683042Y12876D01*
X683054Y12781D01*
X683070Y12686D01*
X683089Y12592D01*
X683112Y12499D01*
X683139Y12407D01*
X683170Y12316D01*
X683205Y12226D01*
X683243Y12138D01*
X683284Y12052D01*
X683330Y11967D01*
X683378Y11884D01*
X683430Y11803D01*
X683485Y11725D01*
X683544Y11648D01*
X683605Y11574D01*
X683669Y11503D01*
X683737Y11435D01*
X683806Y11369D01*
X683879Y11306D01*
X683954Y11246D01*
X684032Y11189D01*
X684111Y11136D01*
X684193Y11085D01*
X684277Y11039D01*
X684363Y10995D01*
X684450Y10955D01*
X684539Y10919D01*
X684629Y10886D01*
X684721Y10857D01*
X684813Y10832D01*
X684907Y10811D01*
X685002Y10793D01*
X685097Y10780D01*
X685192Y10770D01*
X685288Y10764D01*
X685384Y10762D01*
X687738Y10762D01*
X687738Y19238D01*
X685384Y19238D01*
X685298Y19236D01*
X685213Y19230D01*
X685127Y19220D01*
X685043Y19207D01*
X684959Y19189D01*
X684876Y19168D01*
X684794Y19143D01*
X684713Y19114D01*
X684633Y19082D01*
X684556Y19046D01*
X684479Y19007D01*
X684405Y18964D01*
X684333Y18918D01*
X684263Y18868D01*
X684195Y18815D01*
X684130Y18760D01*
X684067Y18701D01*
X684007Y18640D01*
X683950Y18576D01*
X683896Y18509D01*
X683845Y18440D01*
X683797Y18369D01*
X683752Y18296D01*
X683711Y18221D01*
X683674Y18144D01*
X683639Y18065D01*
X683609Y17985D01*
X683582Y17903D01*
X683559Y17821D01*
X683539Y17737D01*
X683524Y17653D01*
X683512Y17568D01*
X683504Y17483D01*
X683500Y17397D01*
X683500Y17311D01*
X683504Y17225D01*
X683512Y17140D01*
X683524Y17055D01*
X683539Y16971D01*
X683559Y16887D01*
X683582Y16805D01*
X683609Y16723D01*
X683639Y16643D01*
X683674Y16564D01*
X683711Y16487D01*
X683752Y16412D01*
X683797Y16339D01*
X683845Y16268D01*
X683896Y16199D01*
X683950Y16132D01*
X684007Y16068D01*
X684067Y16007D01*
X684130Y15948D01*
X684195Y15893D01*
X684263Y15840D01*
X684333Y15790D01*
X684405Y15744D01*
X684479Y15701D01*
X684556Y15662D01*
X684633Y15626D01*
X684713Y15594D01*
X684794Y15565D01*
X684876Y15540D01*
X684959Y15519D01*
X685043Y15501D01*
X685127Y15488D01*
X685213Y15478D01*
X685298Y15472D01*
X685384Y15470D01*
X679103Y14058D02*
X673452Y14058D01*
X669655Y19238D02*
X669655Y21122D01*
X667300Y21122D02*
X667300Y19238D01*
X663138Y15471D02*
X660784Y15471D01*
X660784Y15470D02*
X660688Y15468D01*
X660592Y15462D01*
X660497Y15452D01*
X660402Y15439D01*
X660307Y15421D01*
X660213Y15400D01*
X660121Y15375D01*
X660029Y15346D01*
X659939Y15313D01*
X659850Y15277D01*
X659763Y15237D01*
X659677Y15193D01*
X659593Y15147D01*
X659511Y15096D01*
X659432Y15043D01*
X659354Y14986D01*
X659279Y14926D01*
X659206Y14863D01*
X659137Y14797D01*
X659069Y14729D01*
X659005Y14658D01*
X658944Y14584D01*
X658885Y14507D01*
X658830Y14429D01*
X658778Y14348D01*
X658730Y14265D01*
X658684Y14180D01*
X658643Y14094D01*
X658605Y14006D01*
X658570Y13916D01*
X658539Y13825D01*
X658512Y13733D01*
X658489Y13640D01*
X658470Y13546D01*
X658454Y13451D01*
X658442Y13356D01*
X658434Y13260D01*
X658430Y13164D01*
X658430Y13068D01*
X658434Y12972D01*
X658442Y12876D01*
X658454Y12781D01*
X658470Y12686D01*
X658489Y12592D01*
X658512Y12499D01*
X658539Y12407D01*
X658570Y12316D01*
X658605Y12226D01*
X658643Y12138D01*
X658684Y12052D01*
X658730Y11967D01*
X658778Y11884D01*
X658830Y11803D01*
X658885Y11725D01*
X658944Y11648D01*
X659005Y11574D01*
X659069Y11503D01*
X659137Y11435D01*
X659206Y11369D01*
X659279Y11306D01*
X659354Y11246D01*
X659432Y11189D01*
X659511Y11136D01*
X659593Y11085D01*
X659677Y11039D01*
X659763Y10995D01*
X659850Y10955D01*
X659939Y10919D01*
X660029Y10886D01*
X660121Y10857D01*
X660213Y10832D01*
X660307Y10811D01*
X660402Y10793D01*
X660497Y10780D01*
X660592Y10770D01*
X660688Y10764D01*
X660784Y10762D01*
X663138Y10762D01*
X663138Y19238D01*
X660784Y19238D01*
X660698Y19236D01*
X660613Y19230D01*
X660527Y19220D01*
X660443Y19207D01*
X660359Y19189D01*
X660276Y19168D01*
X660194Y19143D01*
X660113Y19114D01*
X660033Y19082D01*
X659956Y19046D01*
X659879Y19007D01*
X659805Y18964D01*
X659733Y18918D01*
X659663Y18868D01*
X659595Y18815D01*
X659530Y18760D01*
X659467Y18701D01*
X659407Y18640D01*
X659350Y18576D01*
X659296Y18509D01*
X659245Y18440D01*
X659197Y18369D01*
X659152Y18296D01*
X659111Y18221D01*
X659074Y18144D01*
X659039Y18065D01*
X659009Y17985D01*
X658982Y17903D01*
X658959Y17821D01*
X658939Y17737D01*
X658924Y17653D01*
X658912Y17568D01*
X658904Y17483D01*
X658900Y17397D01*
X658900Y17311D01*
X658904Y17225D01*
X658912Y17140D01*
X658924Y17055D01*
X658939Y16971D01*
X658959Y16887D01*
X658982Y16805D01*
X659009Y16723D01*
X659039Y16643D01*
X659074Y16564D01*
X659111Y16487D01*
X659152Y16412D01*
X659197Y16339D01*
X659245Y16268D01*
X659296Y16199D01*
X659350Y16132D01*
X659407Y16068D01*
X659467Y16007D01*
X659530Y15948D01*
X659595Y15893D01*
X659663Y15840D01*
X659733Y15790D01*
X659805Y15744D01*
X659879Y15701D01*
X659956Y15662D01*
X660033Y15626D01*
X660113Y15594D01*
X660194Y15565D01*
X660276Y15540D01*
X660359Y15519D01*
X660443Y15501D01*
X660527Y15488D01*
X660613Y15478D01*
X660698Y15472D01*
X660784Y15470D01*
X654138Y19238D02*
X654138Y10762D01*
X654138Y14058D02*
X649429Y19238D01*
X652255Y15942D02*
X649429Y10762D01*
X645332Y13116D02*
X645332Y19238D01*
X645331Y13116D02*
X645329Y13020D01*
X645323Y12924D01*
X645313Y12829D01*
X645300Y12734D01*
X645282Y12639D01*
X645261Y12545D01*
X645236Y12453D01*
X645207Y12361D01*
X645174Y12271D01*
X645138Y12182D01*
X645098Y12095D01*
X645054Y12009D01*
X645008Y11925D01*
X644957Y11843D01*
X644904Y11764D01*
X644847Y11686D01*
X644787Y11611D01*
X644724Y11538D01*
X644658Y11469D01*
X644590Y11401D01*
X644519Y11337D01*
X644445Y11276D01*
X644368Y11217D01*
X644290Y11162D01*
X644209Y11110D01*
X644126Y11062D01*
X644041Y11016D01*
X643955Y10975D01*
X643867Y10937D01*
X643777Y10902D01*
X643686Y10871D01*
X643594Y10844D01*
X643501Y10821D01*
X643407Y10802D01*
X643312Y10786D01*
X643217Y10774D01*
X643121Y10766D01*
X643025Y10762D01*
X642929Y10762D01*
X642833Y10766D01*
X642737Y10774D01*
X642642Y10786D01*
X642547Y10802D01*
X642453Y10821D01*
X642360Y10844D01*
X642268Y10871D01*
X642177Y10902D01*
X642087Y10937D01*
X641999Y10975D01*
X641913Y11016D01*
X641828Y11062D01*
X641745Y11110D01*
X641664Y11162D01*
X641586Y11217D01*
X641509Y11276D01*
X641435Y11337D01*
X641364Y11401D01*
X641296Y11469D01*
X641230Y11538D01*
X641167Y11611D01*
X641107Y11686D01*
X641050Y11764D01*
X640997Y11843D01*
X640946Y11925D01*
X640900Y12009D01*
X640856Y12095D01*
X640816Y12182D01*
X640780Y12271D01*
X640747Y12361D01*
X640718Y12453D01*
X640693Y12545D01*
X640672Y12639D01*
X640654Y12734D01*
X640641Y12829D01*
X640631Y12924D01*
X640625Y13020D01*
X640623Y13116D01*
X640623Y19238D01*
X636655Y19238D02*
X636655Y21122D01*
X634300Y21122D02*
X634300Y19238D01*
M02*
