G04 EAGLE Gerber RS-274X export*
G75*
%MOMM*%
%FSLAX34Y34*%
%LPD*%
%INSoldermask Bottom*%
%IPPOS*%
%AMOC8*
5,1,8,0,0,1.08239X$1,22.5*%
G01*
%ADD10C,6.601600*%
%ADD11C,2.601600*%
%ADD12R,1.625600X1.625600*%
%ADD13P,1.759533X8X22.500000*%
%ADD14P,1.759533X8X112.500000*%
%ADD15P,1.759533X8X202.500000*%
%ADD16P,1.759533X8X292.500000*%
%ADD17R,1.401600X0.701600*%
%ADD18R,1.901600X2.101600*%
%ADD19C,1.058000*%
%ADD20C,1.701600*%
%ADD21C,0.858000*%
%ADD22C,1.008000*%
%ADD23C,0.908000*%
%ADD24C,1.108000*%


D10*
X765000Y210000D03*
D11*
X100000Y100000D03*
X840000Y840000D03*
X100000Y840000D03*
X840000Y100000D03*
D12*
X99000Y687000D03*
D13*
X99000Y661600D03*
X99000Y636200D03*
X99000Y610800D03*
X99000Y585400D03*
X99000Y560000D03*
X99000Y534600D03*
X99000Y509200D03*
X99000Y483800D03*
X99000Y458400D03*
X99000Y433000D03*
D12*
X305000Y99000D03*
D14*
X330400Y99000D03*
X355800Y99000D03*
X381200Y99000D03*
X406600Y99000D03*
X432000Y99000D03*
X457400Y99000D03*
X482800Y99000D03*
X508200Y99000D03*
X533600Y99000D03*
X559000Y99000D03*
X584400Y99000D03*
X609800Y99000D03*
X635200Y99000D03*
D12*
X841000Y253000D03*
D15*
X841000Y278400D03*
X841000Y303800D03*
X841000Y329200D03*
X841000Y354600D03*
X841000Y380000D03*
X841000Y405400D03*
X841000Y430800D03*
X841000Y456200D03*
X841000Y481600D03*
X841000Y507000D03*
D12*
X711300Y841000D03*
D16*
X685900Y841000D03*
X660500Y841000D03*
X635100Y841000D03*
X609700Y841000D03*
X584300Y841000D03*
X558900Y841000D03*
X533500Y841000D03*
X508100Y841000D03*
X482700Y841000D03*
X457300Y841000D03*
X431900Y841000D03*
X406500Y841000D03*
X381100Y841000D03*
X355700Y841000D03*
X330300Y841000D03*
X304900Y841000D03*
X279500Y841000D03*
X254100Y841000D03*
X228700Y841000D03*
D17*
X51500Y260000D03*
X51500Y270000D03*
X51500Y280000D03*
X51500Y290000D03*
X51500Y300000D03*
X51500Y310000D03*
X51500Y320000D03*
X51500Y330000D03*
X51500Y340000D03*
X51500Y350000D03*
X51500Y360000D03*
X51500Y370000D03*
X51500Y380000D03*
X51500Y390000D03*
X51500Y400000D03*
D18*
X28000Y418000D03*
X28000Y242000D03*
D13*
X479500Y182300D03*
X479500Y207700D03*
X479500Y282300D03*
X479500Y307700D03*
X664500Y307700D03*
X664500Y282300D03*
X664500Y207700D03*
X664500Y182300D03*
X249500Y182300D03*
X249500Y207700D03*
X249500Y282300D03*
X249500Y307700D03*
X434500Y307700D03*
X434500Y282300D03*
X434500Y207700D03*
X434500Y182300D03*
D12*
X99000Y361300D03*
D15*
X99000Y386700D03*
D12*
X99000Y278300D03*
D15*
X99000Y303700D03*
D19*
X747000Y695000D03*
D20*
X701000Y126000D03*
D21*
X687000Y642000D03*
D22*
X730000Y496000D03*
X171000Y248000D03*
X513000Y433000D03*
X458000Y648000D03*
X412000Y608000D03*
D19*
X920000Y369218D03*
X919968Y390782D03*
X595082Y919956D03*
X573518Y919956D03*
X19044Y570782D03*
X445000Y19044D03*
D21*
X397351Y797649D03*
X725503Y464497D03*
X805000Y490000D03*
D22*
X610000Y863660D03*
X73000Y585000D03*
D21*
X407000Y77000D03*
X457000Y503000D03*
X405000Y785000D03*
X411000Y514000D03*
X687000Y617000D03*
X716082Y788000D03*
X769360Y125730D03*
X755000Y802718D03*
X676292Y787718D03*
X154000Y799000D03*
X411000Y489000D03*
X687000Y632000D03*
X151000Y779000D03*
X183497Y733503D03*
X224231Y707769D03*
X622000Y490000D03*
X675000Y661000D03*
X747000Y667718D03*
X698516Y674218D03*
X634000Y490000D03*
X674728Y682000D03*
X694864Y683136D03*
X747000Y681000D03*
X456000Y617000D03*
X65000Y330000D03*
X472000Y52000D03*
X687000Y605000D03*
X65000Y310000D03*
X472000Y41000D03*
X687000Y592000D03*
X678000Y466000D03*
X715000Y765000D03*
X730000Y583218D03*
X620000Y545000D03*
X687000Y503000D03*
X687000Y515000D03*
X457000Y478000D03*
X799000Y591000D03*
X610000Y522782D03*
X799000Y602000D03*
X457000Y491000D03*
X807000Y635000D03*
X620000Y531000D03*
X799000Y613000D03*
X509334Y609334D03*
D19*
X20000Y549218D03*
X20000Y523818D03*
X19044Y280000D03*
D23*
X625000Y820000D03*
X700000Y815000D03*
X730000Y693000D03*
D21*
X689000Y749000D03*
X150000Y195000D03*
X65000Y240000D03*
X130000Y760000D03*
X90654Y755000D03*
X430000Y370000D03*
X550000Y343782D03*
X530000Y805718D03*
X415000Y720000D03*
X830000Y120000D03*
X838718Y135000D03*
X831436Y142244D03*
X819154Y142452D03*
X530000Y141886D03*
X215731Y699269D03*
X182735Y723740D03*
X125000Y775000D03*
X120000Y700000D03*
X621540Y791540D03*
X120000Y690000D03*
X615000Y783758D03*
X120000Y670000D03*
X618876Y773877D03*
X120000Y645000D03*
X610000Y766095D03*
X735000Y110000D03*
X685710Y144604D03*
X678428Y137322D03*
X795000Y88044D03*
X672146Y130040D03*
X784702Y88044D03*
X666782Y121676D03*
X774403Y88044D03*
X760000Y121564D03*
X751490Y793682D03*
X669000Y799000D03*
X155000Y789436D03*
X633000Y560000D03*
X423000Y514000D03*
X684000Y582000D03*
X410000Y418000D03*
X456000Y556000D03*
X425564Y465000D03*
X430000Y410000D03*
X540298Y141886D03*
X226295Y697205D03*
X195000Y760000D03*
X410000Y387000D03*
X456000Y544000D03*
X715000Y465000D03*
X745000Y495000D03*
X709000Y693000D03*
X775000Y750000D03*
X474000Y252000D03*
X484000Y252000D03*
X474000Y242000D03*
X484000Y242000D03*
X474000Y232000D03*
X484000Y232000D03*
X550000Y247000D03*
X560000Y247000D03*
X570000Y247000D03*
X580000Y247000D03*
X590000Y247000D03*
X550000Y237000D03*
X560000Y237000D03*
X570000Y237000D03*
X580000Y237000D03*
X590000Y237000D03*
X244000Y252000D03*
X254000Y252000D03*
X244000Y242000D03*
X254000Y242000D03*
X244000Y232000D03*
X254000Y232000D03*
X320000Y247000D03*
X330000Y247000D03*
X340000Y247000D03*
X350000Y247000D03*
X330000Y237000D03*
X340000Y237000D03*
X350000Y237000D03*
X320000Y237000D03*
X360000Y247000D03*
X360000Y237000D03*
D22*
X35000Y300000D03*
X35000Y320000D03*
D21*
X786000Y749000D03*
X409495Y550505D03*
X365018Y536000D03*
X171000Y230000D03*
X531700Y284500D03*
X514100Y198100D03*
X301700Y284500D03*
X284100Y198100D03*
D24*
X174000Y361000D03*
X174000Y514000D03*
X174000Y666000D03*
X174000Y641000D03*
X174000Y615000D03*
X174000Y539000D03*
X366000Y666000D03*
X366000Y615000D03*
X366000Y362000D03*
D23*
X745000Y810000D03*
D21*
X763000Y112000D03*
X681918Y811718D03*
X155000Y820000D03*
M02*
