M48
;GenerationSoftware,Autodesk,EAGLE,9.4.2*%
;CreationDate,2020-12-30T18:32:19Z*%
FMAT,2
ICI,OFF
METRIC,TZ,000.000
T8C0.350
T7C0.500
T6C0.600
T5C0.700
T4C0.800
T3C1.016
T2C1.200
T1C1.500
%
G90
M71
T1
X11393Y44623
X22993Y45663
X40077Y88477
X43277Y89577
X63277Y113477
X46377Y108877
X2804Y74350
X46277Y45023
X66777Y114677
X2977Y79277
X3100Y69500
X46377Y53723
X45877Y78223
X3553Y44183
X14383Y44643
X38477Y76023
X49477Y107877
T2
X7400Y82500
X16400Y82300
X62090Y57800
X7700Y67100
X78950Y57280
X82900Y46700
X56900Y46700
X60900Y75700
X74710Y78120
T3
X18000Y33570
X19040Y28450
X42810Y2770
X50430Y5310
X3940Y38540
X50430Y2770
X47890Y5310
X47890Y2770
X45350Y5310
X45350Y2770
X42810Y5310
X88270Y64000
X85730Y64000
X88270Y60000
X85730Y60000
X88270Y56000
X85730Y56000
X52730Y56900
X55270Y56900
X57810Y56900
X67540Y71000
X65000Y71000
X62460Y71000
X80460Y68000
X83000Y68000
X85540Y68000
X57540Y75000
X55000Y75000
X52460Y75000
X57780Y65930
X55240Y65930
X52700Y65930
X67450Y75510
X69990Y75510
X72530Y75510
X82540Y78000
X80000Y78000
X77460Y78000
X76460Y72000
X79000Y72000
X81540Y72000
X85520Y71920
X52460Y70000
X41970Y38530
X25970Y33520
X25000Y28450
X25970Y38530
X41970Y33520
X43000Y28450
X62540Y38450
X49050Y33500
X49020Y28450
X49540Y38450
X63050Y33500
X63020Y28450
X85970Y38500
X70000Y33550
X69060Y28450
X69970Y38500
X86000Y33550
X87060Y28450
X17940Y38540
X4000Y33570
X3040Y28450
T4
X63259Y18803
X3500Y11000
X50300Y11500
X41891Y12291
X13940Y38540
X64300Y5920
X7940Y38540
X38240Y38530
X27602Y12500
X29700Y38530
X58770Y38450
X53230Y38450
X82240Y38500
X36041Y2197
X37172Y3328
X38303Y4459
X62128Y17672
X73700Y38500
X60997Y16541
X15541Y2197
X16672Y3328
X17803Y4459
X41959Y18803
X40828Y17672
X39697Y16541
T5
X71100Y12000
X20382Y13700
T6
X18000Y8700
X63000Y12900
X87540Y90500
X85000Y90500
X82460Y90500
T7
X40100Y92400
T8
X65421Y56000
X74629Y56000
X67000Y44000
X68800Y55621
X73000Y44000
X71230Y55691
X23898Y69102
X27910Y69840
X24141Y78790
X27890Y78190
X18200Y96300
X19600Y96300
X70000Y92800
X71400Y92800
X74300Y88800
X14800Y92300
X16930Y99000
X13331Y100903
X11000Y101500
X10400Y96000
X13020Y107509
X11453Y106513
X18480Y110730
X19520Y110710
X70000Y107200
X71100Y107200
X72890Y104480
X15100Y114400
X16787Y108127
X23600Y107100
X15746Y98784
X23600Y100700
X50700Y97300
X38600Y97300
X72739Y95230
X62700Y100700
X73949Y104641
X66000Y103700
X52500Y100100
X46003Y103447
X73900Y95140
X76500Y99100
X15721Y108301
X12800Y105770
X48900Y17700
X31300Y3586
X43000Y8500
X42000Y15500
X49000Y16500
X30500Y4500
X41600Y8500
X20000Y16000
X24252Y15900
X12400Y5600
X19400Y2500
X22800Y9000
X24000Y9100
X14623Y67777
X58923Y4123
X55300Y4898
X66400Y15200
X64700Y16000
X58800Y16048
X55552Y12052
X54200Y11900
X57800Y16700
X13700Y67770
X12800Y67780
X12920Y80510
X25300Y9000
X13820Y80510
X14720Y80490
X30500Y7000
X2000Y7000
X76500Y14000
X69000Y5000
X64200Y2460
X19324Y5910
X14500Y6500
X64800Y14000
X58800Y17352
X20500Y18000
X15000Y18500
X10000Y18500
X1832Y14500
X3500Y5500
X22500Y6300
X75300Y15900
X55200Y15000
X47500Y18500
X52167Y9267
X19190Y72060
X19190Y73060
X19190Y74060
X19190Y75060
X19190Y76060
X20190Y76060
X20190Y75060
X20190Y74060
X20190Y73060
X20190Y72060
X21190Y72060
X21190Y73060
X21190Y74060
X21190Y75060
X21190Y76060
X40100Y71100
X41000Y71100
X41900Y71100
X40100Y70200
X41000Y70200
X41900Y70200
X40100Y69300
X41000Y69300
X41900Y69300
X72000Y59000
X71000Y59000
X70000Y59000
X69000Y59000
X68000Y59000
X68000Y60000
X69000Y60000
X70000Y60000
X71000Y60000
X72000Y60000
X72000Y61000
X71000Y61000
X70000Y61000
X69000Y61000
X68000Y61000
X14700Y83452
X14700Y82500
X14700Y66700
X14700Y65800
X14700Y64931
X23600Y83550
X23500Y64800
X2430Y56410
X3560Y56430
X2410Y55280
X3540Y55290
X2170Y52720
X3090Y52720
X2160Y51790
X3070Y51780
X2140Y50840
X3080Y50820
X10170Y50720
X11170Y50720
X12170Y50720
X13170Y50720
X14170Y50720
X15170Y50720
X11170Y49720
X12170Y49720
X13170Y49720
X14170Y49720
X15170Y49720
X12170Y48720
X13170Y48720
X14170Y48720
X12170Y47720
X13170Y47720
X14170Y47720
X27900Y74020
X62000Y74000
X53100Y58900
X78100Y67050
X3800Y94000
X85800Y109500
X83650Y97800
X40800Y102600
X6800Y105300
X44800Y92800
X16250Y78760
X16300Y69300
X16210Y74040
X24400Y73400
X23087Y79507
X3770Y72460
X15780Y73010
X15110Y74290
X3660Y76340
X24480Y71080
X3900Y64600
X4100Y83700
X22000Y79200
X21700Y81965
X24131Y75382
X16000Y76000
X24321Y77090
X20000Y4200
X26400Y76900
X40500Y66000
X21455Y102825
X19955Y102825
X18455Y102825
X16955Y102825
X15455Y102825
X15455Y104225
X16955Y104225
X18455Y104225
X19955Y104225
X21455Y104225
X68055Y100675
X69555Y100675
X71055Y100675
X72555Y100675
X74055Y100675
X74055Y99275
X72555Y99275
X71055Y99275
X69555Y99275
X68055Y99275
X37300Y73900
X44300Y70800
X42100Y66000
X7950Y54610
X6190Y45970
X11000Y60000
X21490Y48140
X70120Y64880
X70579Y54510
X78000Y63000
X69431Y54585
X62000Y63000
X61000Y73000
X56000Y55000
X67674Y63980
X78040Y64900
X72516Y64040
X83650Y65320
X72627Y66740
X64250Y61460
X61000Y44000
X75500Y61620
X79000Y44000
M30