M48
;GenerationSoftware,Autodesk,EAGLE,9.4.2*%
;CreationDate,2020-12-11T16:52:04Z*%
FMAT,2
ICI,OFF
METRIC,TZ,000.000
T5C0.350
T4C0.600
T3C0.700
T2C0.800
T1C1.016
%
G90
M71
T1
X42810Y2770
X50430Y5310
X50430Y2770
X47890Y5310
X47890Y2770
X45350Y5310
X45350Y2770
X42810Y5310
T2
X41991Y12491
X64300Y5920
X27602Y12500
X3500Y11000
X50300Y11500
X37172Y3328
X36111Y2267
X38233Y4389
X63189Y18733
X62128Y17672
X61067Y16611
X15611Y2267
X16672Y3328
X17733Y4389
X41889Y18733
X39767Y16611
X40828Y17672
T3
X20382Y13700
X71100Y12000
T4
X18000Y8700
X63000Y12900
T5
X54600Y11900
X57800Y16500
X25500Y8900
X30500Y7000
X2000Y7000
X76500Y14000
X69000Y5000
X64000Y2260
X48900Y17700
X14500Y6500
X15500Y10452
X26300Y11682
X64800Y14000
X58800Y17052
X52850Y12000
X20500Y18000
X15000Y18500
X10000Y18500
X1932Y14500
X3500Y5500
X22500Y6300
X75300Y15900
X55500Y15000
X47500Y18500
X52167Y9267
X31300Y3586
X42800Y8500
X42000Y15500
X49000Y16500
X30500Y4500
X41600Y8500
X20000Y16000
X24452Y16000
X12400Y5600
X19400Y2900
X18724Y6110
X23300Y9100
X24400Y9000
X20000Y4500
X58923Y4123
X55300Y4898
X66400Y15200
X64800Y16000
X58800Y15648
X55652Y12052
M30