M48
;GenerationSoftware,Autodesk,EAGLE,9.4.2*%
;CreationDate,2021-04-12T20:39:38Z*%
FMAT,2
ICI,OFF
METRIC,TZ,000.000
T18C0.350
T17C0.400
T16C0.450
T15C0.600
T14C0.700
T13C0.714
T12C0.800
T11C0.850
T10C0.900
T9C1.000
T8C1.016
T7C2.300
T6C2.500
T5C3.500
T4C4.500
T3C5.000
T2C6.000
T1C7.000
%
G90
M71
T1
X150500Y178000
X150500Y113000
T2
X13069Y124069
X60445Y171445
X68931Y179931
X21555Y171445
X60445Y132555
X68931Y124069
X21555Y132555
X68931Y22069
X13069Y179931
X209000Y50000
X228445Y69445
X236931Y77931
X228445Y30555
X236931Y22069
X189555Y69445
X189555Y30555
X181069Y22069
X181069Y77931
X125000Y50000
X152931Y77931
X152931Y22069
X105555Y30555
X144445Y30555
X97069Y77931
X144445Y69445
X41000Y50000
X105555Y69445
X60445Y69445
X68931Y77931
X60445Y30555
X97069Y22069
X21555Y69445
X21555Y30555
X13069Y22069
X13069Y77931
X41000Y152000
T3
X179000Y33000
T4
X239000Y4000
X239000Y96000
X179000Y96000
X11000Y106000
X71000Y106000
X71000Y198000
X11000Y198000
X11000Y4000
X71000Y4000
X71000Y96000
X11000Y96000
X179000Y4000
X95000Y4000
X155000Y4000
X155000Y96000
X95000Y96000
T5
X140500Y113000
X160500Y178000
T6
X90000Y104000
X159000Y104000
X159000Y191000
X90000Y191000
T7
X106300Y20600
X191100Y20000
X22300Y122600
X23900Y77200
T8
X202650Y1250
X205190Y1250
X207730Y1250
X210270Y1250
X212810Y1250
X215350Y1250
X192490Y98750
X195030Y98750
X197570Y98750
X200110Y98750
X202650Y98750
X205190Y98750
X207730Y98750
X210270Y98750
X212810Y98750
X215350Y98750
X217890Y98750
X220430Y98750
X222970Y98750
X225510Y98750
X205750Y46750
X205750Y53250
X212250Y46750
X212250Y53250
X13423Y175335
X8473Y180285
X17665Y179577
X12715Y184527
X26151Y132909
X21201Y127959
X21909Y137151
X16959Y132201
X68577Y128665
X73527Y123715
X64335Y124423
X60091Y137151
X65041Y132201
X55849Y132909
X60799Y127959
X21909Y166849
X16959Y171799
X26151Y171091
X21201Y176041
X64335Y179577
X69285Y184527
X68577Y175335
X73527Y180285
X55849Y171091
X60799Y176041
X60091Y166849
X65041Y171799
X17665Y124423
X12715Y119473
X13423Y128665
X8473Y123715
X19300Y200750
X21840Y200750
X24380Y200750
X26920Y200750
X29460Y200750
X32000Y200750
X34540Y200750
X37080Y200750
X39620Y200750
X42160Y200750
X44700Y200750
X37750Y148750
X37750Y155250
X44250Y148750
X44250Y155250
X161750Y152330
X161750Y149790
X161750Y147250
X161750Y144710
X161730Y171120
X161730Y168580
X161730Y166040
X161730Y163500
X161730Y160960
X161730Y158420
X161730Y155880
X87250Y171500
X90750Y171500
X113230Y103700
X115770Y103700
X123230Y103700
X125770Y103700
X103230Y103700
X105770Y103700
X150230Y191300
X152770Y191300
X140230Y191300
X142770Y191300
X120690Y182600
X120690Y185140
X123230Y182600
X69285Y119473
X123230Y185140
X125770Y182600
X125770Y185140
X128310Y182600
X128310Y185140
X130850Y182600
X130850Y185140
X13423Y73335
X8473Y78285
X17665Y77577
X12715Y82527
X17665Y22423
X12715Y17473
X13423Y26665
X8473Y21715
X26151Y30909
X21201Y25959
X21909Y35151
X16959Y30201
X21909Y64849
X16959Y69799
X26151Y69091
X21201Y74041
X68577Y26665
X73527Y21715
X64335Y22423
X69285Y17473
X60091Y35151
X65041Y30201
X55849Y30909
X60799Y25959
X64335Y77577
X69285Y82527
X68577Y73335
X73527Y78285
X55849Y69091
X60799Y74041
X60091Y64849
X65041Y69799
X29570Y83250
X29570Y80710
X32110Y83250
X32110Y80710
X34650Y83250
X34650Y80710
X37190Y83250
X37190Y80710
X39730Y83250
X39730Y80710
X42270Y83250
X42270Y80710
X44810Y83250
X44810Y80710
X47350Y83250
X47350Y80710
X49890Y83250
X49890Y80710
X52430Y83250
X52430Y80710
X29570Y72250
X29570Y69710
X32110Y72250
X32110Y69710
X34650Y72250
X34650Y69710
X37190Y72250
X37190Y69710
X39730Y72250
X39730Y69710
X42270Y72250
X42270Y69710
X44810Y72250
X44810Y69710
X47350Y72250
X47350Y69710
X49890Y72250
X49890Y69710
X52430Y72250
X52430Y69710
X29570Y61250
X29570Y58710
X32110Y61250
X32110Y58710
X34650Y61250
X34650Y58710
X37190Y61250
X37190Y58710
X39730Y61250
X39730Y58710
X42270Y61250
X42270Y58710
X44810Y61250
X44810Y58710
X47350Y61250
X47350Y58710
X49890Y58710
X52430Y61250
X52430Y58710
X29570Y39250
X29570Y36710
X32110Y39250
X32110Y36710
X34650Y39250
X34650Y36710
X37190Y39250
X37190Y36710
X39730Y39250
X39730Y36710
X42270Y39250
X42270Y36710
X44810Y39250
X44810Y36710
X47350Y39250
X47350Y36710
X49890Y39250
X49890Y36710
X52430Y39250
X52430Y36710
X29570Y28250
X29570Y25710
X32110Y28250
X32110Y25710
X34650Y28250
X34650Y25710
X37190Y28250
X37190Y25710
X39730Y28250
X39730Y25710
X42270Y28250
X42270Y25710
X44810Y28250
X44810Y25710
X47350Y28250
X47350Y25710
X49890Y28250
X49890Y25710
X52430Y28250
X52430Y25710
X29570Y17250
X29570Y14710
X32110Y17250
X32110Y14710
X34650Y17250
X34650Y14710
X37190Y17250
X37190Y14710
X39730Y17250
X39730Y14710
X42270Y17250
X42270Y14710
X44810Y17250
X44810Y14710
X47350Y17250
X47350Y14710
X49890Y17250
X49890Y14710
X52430Y17250
X52430Y14710
X16870Y98750
X19410Y98750
X21950Y98750
X24490Y98750
X27030Y98750
X29570Y98750
X32110Y98750
X34650Y98750
X37190Y98750
X39730Y98750
X42270Y98750
X44810Y98750
X47350Y98750
X49890Y98750
X52430Y98750
X54970Y98750
X57510Y98750
X60050Y98750
X62590Y98750
X65130Y98750
X37750Y46750
X37750Y53250
X44250Y46750
X44250Y53250
X32110Y1250
X34650Y1250
X37190Y1250
X39730Y1250
X42270Y1250
X44810Y1250
X47350Y1250
X49890Y1250
X92473Y21715
X97423Y73335
X92473Y78285
X101665Y77577
X96715Y82527
X110151Y30909
X105201Y25959
X105909Y35151
X100959Y30201
X152577Y26665
X157527Y21715
X148335Y22423
X153285Y17473
X144091Y35151
X149041Y30201
X139849Y30909
X144799Y25959
X105909Y64849
X100959Y69799
X110151Y69091
X105201Y74041
X148335Y77577
X153285Y82527
X152577Y73335
X157527Y78285
X139849Y69091
X144799Y74041
X144091Y64849
X149041Y69799
X101665Y22423
X96715Y17473
X97423Y26665
X49890Y61250
X103300Y98750
X105840Y98750
X108380Y98750
X110920Y98750
X113460Y98750
X116000Y98750
X118540Y98750
X121080Y98750
X123620Y98750
X126160Y98750
X128700Y98750
X121750Y46750
X121750Y53250
X128250Y46750
X128250Y53250
X181423Y73335
X176473Y78285
X185665Y77577
X180715Y82527
X185665Y22423
X180715Y17473
X181423Y26665
X176473Y21715
X194151Y30909
X189201Y25959
X189909Y35151
X184959Y30201
X189909Y64849
X184959Y69799
X194151Y69091
X189201Y74041
X236577Y26665
X241527Y21715
X232335Y22423
X237285Y17473
X228091Y35151
X233041Y30201
X223849Y30909
X228799Y25959
X232335Y77577
X237285Y82527
X236577Y73335
X241527Y78285
X223849Y69091
X228799Y74041
X228091Y64849
X233041Y69799
T9
X236100Y98900
X8100Y93100
X68100Y93100
X13900Y98900
X176100Y1100
X181900Y1100
X181900Y6900
X236100Y6900
X236100Y1100
X241900Y1100
X241900Y6900
X176100Y98900
X176100Y93100
X181900Y93100
X181900Y98900
X236100Y93100
X241900Y93100
X241900Y98900
X144200Y39800
X145600Y51500
X119300Y41700
X117100Y55800
X136300Y65400
X92100Y6900
X92100Y1100
X97900Y1100
X97900Y6900
X152100Y6900
X152100Y1100
X157900Y1100
X157900Y6900
X92100Y98900
X92100Y93100
X97900Y93100
X97900Y98900
X152100Y98900
X152100Y93100
X157900Y93100
X157900Y98900
X68100Y1100
X8100Y6900
X122400Y147000
X176100Y6900
X119400Y147000
X119400Y144000
X122400Y144000
X122400Y141000
X119400Y141000
X119400Y138000
X122400Y138000
X8100Y98900
X73900Y93100
X68100Y6900
X13900Y93100
X73900Y6900
X68100Y98900
X13900Y6900
X8100Y1100
X60200Y141800
X61600Y153500
X35300Y143700
X33100Y157800
X52300Y167400
X8100Y108900
X8100Y103100
X13900Y103100
X13900Y108900
X68100Y108900
X68100Y103100
X73900Y103100
X73900Y108900
X8100Y200900
X8100Y195100
X13900Y195100
X13900Y200900
X68100Y200900
X68100Y195100
X73900Y195100
X73900Y200900
X73900Y98900
X73900Y1100
X13900Y1100
T10
X216000Y54180
X198000Y90800
X201430Y90997
X217100Y78800
X198700Y30900
X205500Y67300
X186700Y19500
X203700Y42900
X215500Y57300
X203900Y58200
X209000Y56900
T11
X137400Y83100
X53400Y185100
X56700Y56000
T12
X155097Y47700
X103600Y21000
X74100Y149700
X158100Y47700
X106450Y152230
X108400Y153500
X106450Y154770
X126400Y141000
X19600Y123000
X126400Y139000
X106450Y143230
X108400Y144500
X106450Y145770
X71097Y149700
T13
X114100Y156300
X115900Y154500
X117700Y156300
T14
X123100Y57400
X39100Y159400
T15
X8000Y33000
X52500Y35000
X133000Y116900
X137800Y116800
X39550Y91800
X38200Y95250
X44500Y85500
X45550Y95250
X112432Y132553
X140512Y110012
X113354Y91856
X142607Y116607
X29354Y193856
X121600Y92500
X136500Y150500
X142000Y148500
X143700Y139500
X150300Y147500
X109000Y140000
X37600Y194500
X110000Y147000
X149300Y127400
X121968Y171117
X140267Y123867
X133000Y113500
X112400Y130300
X121700Y121700
X112300Y119500
X137850Y140400
X112300Y115400
X112300Y143000
X133000Y147500
X133000Y149000
X125500Y174000
X115000Y173500
X92000Y139000
X95000Y139000
X92000Y137500
X95000Y137500
X93500Y163500
X111500Y159000
X130147Y180500
X140500Y106700
X40800Y76200
X40800Y65200
X40800Y85200
X42800Y43200
X40800Y32200
X40800Y21200
X28420Y86150
X53350Y56050
X26000Y40000
X28470Y56500
X32500Y95000
X39000Y93400
X10000Y40000
X23700Y18700
X52202Y85479
X29710Y41500
X28200Y41500
X25620Y86150
T16
X112000Y26100
X105700Y61200
X111400Y78800
X120850Y95300
X103050Y64050
X93750Y66250
X19050Y166050
X9750Y168250
X28000Y128100
X21500Y162900
X27400Y180800
X36850Y197300
T17
X204900Y61600
X51267Y189067
X38740Y197940
X60400Y189100
X54670Y189100
X197297Y24503
X203310Y81810
X196600Y77600
X135267Y87067
X122740Y95940
X144400Y87100
X138670Y87100
X125105Y157235
X200980Y65800
X193600Y97000
X128600Y156000
T18
X129379Y133383
X138685Y134715
X137000Y127643
X132599Y124752
X140200Y127000
X132600Y123700
X107200Y149850
X138000Y123500
X135400Y134857
X135500Y138000
X129400Y134868
X137200Y134968
X131500Y125800
X134273Y129456
X132600Y125800
X134200Y128400
X139500Y138000
X141957Y132000
X113250Y77250
X119400Y95250
X107200Y78250
X115350Y70700
X149950Y49250
X125000Y94250
X89600Y59100
X141263Y92063
X142100Y91100
X215580Y94380
X189060Y60580
X207720Y74040
X192800Y41200
X201800Y74620
X228165Y47280
X101500Y143000
X95000Y141500
X128900Y123200
X142500Y138000
X135900Y129100
X136900Y128700
X147622Y134500
X152100Y137500
X195945Y94200
X207300Y93600
X212200Y82200
X174240Y62400
X226100Y91100
X226900Y91900
X142500Y104800
X43400Y11800
X53350Y48000
X55525Y48000
X227200Y87400
X53400Y49050
X55525Y49096
X52415Y54525
X220700Y87700
X73800Y64200
X64400Y62800
X216190Y87700
X218800Y42300
X219400Y40400
X203520Y73180
X209120Y73940
X194200Y42700
X29250Y179250
X35400Y197250
X49000Y53525
X23200Y180250
X48235Y55735
X23802Y9298
X39500Y12223
X31350Y172700
X66350Y151250
X59500Y19000
X59500Y21100
X59500Y23200
X57800Y77100
X57800Y79200
X57800Y81300
X43716Y56984
X41000Y196250
X5500Y161000
X47500Y56500
X57263Y194063
X58100Y193100
X57000Y192900
X147622Y133257
X141588Y135012
X140522Y128469
X135520Y127643
X147728Y160500
X143481Y106900
X146500Y106900
X147800Y121000
X67900Y67878
X139900Y160500
X134643Y122000
X117000Y126800
X117000Y124000
X71053Y69953
X117000Y121200
X136100Y122000
X128500Y134139
X118800Y120800
X65400Y67500
X149500Y130772
X140851Y133049
X127773Y131927
X141629Y134000
X71903Y69103
X129582Y130818
X149522Y124400
X139900Y148500
X51427Y95325
X4465Y67100
X141500Y146100
X122300Y131100
X125900Y134700
X131900Y136900
X61300Y57700
X119000Y114500
X144000Y135500
X128500Y132655
X55500Y95325
X119000Y117528
X36000Y97625
X121621Y120379
X116572Y130372
X116482Y133500
X149200Y145700
X139700Y134900
X41900Y11800
M30