M48
;GenerationSoftware,Autodesk,EAGLE,9.4.2*%
;CreationDate,2021-04-15T17:14:00Z*%
FMAT,2
ICI,OFF
METRIC,TZ,000.000
T7C0.350
T6C0.400
T5C1.000
T4C1.016
T3C1.118
T2C2.500
T1C6.000
%
G90
M71
T1
X18456Y157447
X18456Y118556
X57347Y157447
X9971Y165933
X65833Y165933
X57347Y118556
X9971Y110071
X37902Y138002
X65833Y110071
T2
X4000Y4000
X4000Y96000
X64000Y96000
X64000Y4000
T3
X91000Y79000
X88500Y79000
X93500Y79000
T4
X18102Y113960
X23052Y118910
X112630Y3000
X115170Y3000
X112770Y127900
X110230Y127900
X41152Y141252
X41152Y134752
X34652Y141252
X34652Y134752
X61943Y157801
X18810Y152851
X13860Y157801
X56993Y123152
X61943Y118202
X52751Y118910
X57701Y113960
X65479Y114667
X70429Y166287
X65479Y161337
X66187Y170529
X61237Y165579
X70429Y109717
X52751Y157093
X56993Y152851
X61237Y110425
X66187Y105475
X18102Y162043
X9617Y170529
X14567Y165579
X5375Y166287
X10325Y161337
X23052Y157093
X5375Y109717
X10325Y114667
X9617Y105475
X14567Y110425
X57701Y162043
X13860Y118202
X18810Y123152
T5
X30750Y53250
X37250Y46750
X37250Y53250
X1100Y6900
X1100Y1100
X6900Y6900
X61100Y6900
X61100Y1100
X66900Y1100
X66900Y6900
X61100Y98900
X61100Y93100
X66900Y93100
X66900Y98900
X1100Y98900
X1100Y93100
X6900Y93100
X6900Y98900
X108100Y164900
X111600Y164900
X115100Y164900
X107500Y68000
X111000Y68000
X114500Y68000
X6900Y1100
X79075Y166187
X84025Y161237
X88267Y165479
X96752Y156993
X91802Y161943
X87560Y157701
X139179Y161237
X144129Y166187
X134937Y165479
X131401Y161943
X126451Y156993
X135643Y157701
X84025Y114567
X79075Y109617
X88267Y110325
X87560Y118102
X96752Y118810
X91802Y113860
X144129Y109617
X139179Y114567
X134937Y110325
X126451Y118810
X131401Y113860
X135643Y118102
X108352Y134652
X108352Y141152
X114852Y134652
X114852Y141152
X6423Y73335
X1473Y78285
X10665Y77577
X5715Y82527
X10665Y22423
X5715Y17473
X6423Y26665
X1473Y21715
X19151Y30909
X14201Y25959
X14909Y35151
X9959Y30201
X14909Y64849
X9959Y69799
X19151Y69091
X14201Y74041
X61577Y26665
X66527Y21715
X57335Y22423
X62285Y17473
X53091Y35151
X58041Y30201
X48849Y30909
X53799Y25959
X57335Y77577
X62285Y82527
X61577Y73335
X66527Y78285
X48849Y69091
X53799Y74041
X53091Y64849
X58041Y69799
X30750Y46750
T6
X73000Y48000
X72000Y66000
T7
X97000Y8500
X79500Y8500
X85000Y70000
X105000Y70000
X125000Y70000
X105000Y29000
X125000Y29000
X146000Y29000
X137000Y8500
X117000Y8500
X146000Y70000
X137000Y49500
X117000Y49500
X97000Y49500
X76000Y49500
X85000Y29000
M30