M48
;GenerationSoftware,Autodesk,EAGLE,9.4.2*%
;CreationDate,2021-05-13T18:39:22Z*%
FMAT,2
ICI,OFF
METRIC,TZ,000.000
T9C0.350
T8C0.400
T7C0.500
T6C0.550
T5C0.600
T4C1.000
T3C1.016
T2C2.500
T1C6.500
%
G90
M71
T1
X76500Y21000
T2
X84000Y10000
X10000Y84000
X84000Y84000
X10000Y10000
T3
X60980Y9900
X84100Y38000
X58440Y9900
X55900Y9900
X53360Y9900
X50820Y9900
X48280Y9900
X45740Y9900
X43200Y9900
X40660Y9900
X38120Y9900
X35580Y9900
X33040Y9900
X30500Y9900
X9900Y43300
X9900Y45840
X9900Y48380
X9900Y50920
X9900Y53460
X9900Y56000
X9900Y58540
X9900Y61080
X9900Y63620
X9900Y66160
X9900Y68700
X84100Y35460
X84100Y32920
X53350Y84100
X84100Y30380
X43450Y30770
X84100Y27840
X84100Y25300
X63520Y9900
X9900Y30370
X9900Y27830
X9900Y38670
X9900Y36130
X43450Y18230
X43450Y20770
X43450Y28230
X47950Y20770
X24950Y30770
X24950Y28230
X24950Y20770
X24950Y18230
X66450Y18230
X66450Y20770
X66450Y28230
X66450Y30770
X47950Y30770
X47950Y28230
X47950Y18230
X22870Y84100
X25410Y84100
X27950Y84100
X30490Y84100
X33030Y84100
X35570Y84100
X38110Y84100
X40650Y84100
X43190Y84100
X45730Y84100
X48270Y84100
X50810Y84100
X55890Y84100
X58430Y84100
X60970Y84100
X63510Y84100
X66050Y84100
X68590Y84100
X71130Y84100
X84100Y50700
X84100Y48160
X84100Y45620
X84100Y43080
X84100Y40540
T4
X70100Y12600
T5
X36600Y36200
X36600Y61500
X36600Y66600
X17400Y61500
X17400Y64100
X17400Y66600
X17400Y53900
X17400Y51400
X17400Y36100
T6
X74700Y69500
X57352Y91996
X1904Y57078
X44500Y1904
X1904Y28000
X2000Y54922
X2000Y52382
X92000Y36922
X91997Y39078
X59508Y91996
T7
X7300Y58500
X73000Y49600
X17100Y24800
X51300Y43300
X45800Y64800
X41200Y60800
X3500Y30000
X3500Y32000
X61000Y86366
T8
X74500Y81000
X73000Y69300
X70000Y81500
X62500Y82000
T9
X80500Y49000
X40700Y7700
X45700Y50300
X40500Y78500
X41100Y51400
X68700Y61700
X71608Y78800
X76936Y12573
X75500Y80272
X67629Y78772
X15400Y79900
X41100Y48900
X68700Y63200
X15100Y77900
X22423Y70777
X62200Y49000
X67500Y66100
X74700Y66772
X69852Y67422
X56000Y24700
X57000Y24700
X58000Y24700
X59000Y24700
X55000Y23700
X56000Y23700
X57000Y23700
X58000Y23700
X59000Y23700
X24400Y25200
X25400Y25200
X24400Y24200
X25400Y24200
X24400Y23200
X25400Y23200
X32000Y24700
X33000Y24700
X34000Y24700
X35000Y24700
X33000Y23700
X34000Y23700
X35000Y23700
X32000Y23700
X36000Y24700
X36000Y23700
X78600Y74900
X40949Y55051
X36502Y53600
X17100Y23000
X53170Y28450
X51410Y19810
X30170Y28450
X28410Y19810
X48400Y23200
X47400Y23200
X48400Y24200
X47400Y24200
X48400Y25200
X47400Y25200
X77500Y75000
X70900Y69300
X74500Y49500
X76300Y11200
X68192Y81172
X15500Y82000
X71500Y46500
X45600Y54400
X41000Y38700
X19500Y76000
X22629Y69721
X54030Y14189
X43000Y41000
X42556Y46500
X45600Y55600
X41000Y41800
X68400Y58200
X42300Y51400
X63300Y56000
X15500Y78944
X66900Y79900
X75149Y79368
X76000Y12156
X77440Y8804
X66678Y12168
X78470Y8804
X67215Y13004
X79500Y8804
X67843Y13732
X68571Y14460
X73500Y11000
X61000Y76609
X12000Y64500
X61888Y77388
X12000Y67000
X61500Y78376
X12000Y69000
X62154Y79154
X12000Y70000
X12500Y77500
X18273Y72374
X21573Y69927
X53000Y14189
X81915Y14245
X83144Y14224
X83872Y13500
X83000Y12000
X41500Y72000
X53000Y80572
X55000Y34378
X43000Y37000
X9065Y75500
X13000Y76000
X6500Y24000
X55000Y24700
X15000Y19500
X68900Y74900
X68700Y64200
X39735Y79765
X72550Y46450
X18350Y73350
X50933Y60933
X79900Y61300
X62000Y53100
X80700Y63500
X45700Y49100
X79900Y60200
X61000Y52278
X79900Y59100
X45700Y47800
X68700Y51500
X68700Y50300
X62000Y54500
X73000Y58322
X71500Y76500
X67800Y46600
X68700Y59200
X47200Y4100
X6500Y31000
X68700Y60500
X47200Y5200
X6500Y33000
X45600Y61700
X74700Y68100
X69486Y68314
X67473Y68200
X63400Y49000
M30