G04 EAGLE Gerber RS-274X export*
G75*
%MOMM*%
%FSLAX34Y34*%
%LPD*%
%INTop Copper*%
%IPPOS*%
%AMOC8*
5,1,8,0,0,1.08239X$1,22.5*%
G01*
%ADD10R,1.200000X1.200000*%
%ADD11C,1.200000*%
%ADD12R,0.600000X0.600000*%
%ADD13R,1.000000X1.100000*%
%ADD14R,1.100000X1.000000*%
%ADD15R,0.730000X0.560000*%
%ADD16R,1.800000X3.200000*%
%ADD17R,1.524000X1.524000*%
%ADD18P,1.649562X8X202.500000*%
%ADD19R,0.800000X0.400000*%
%ADD20R,0.800000X1.050000*%
%ADD21R,2.200000X0.600000*%
%ADD22C,0.756400*%
%ADD23C,0.500000*%
%ADD24C,1.200000*%
%ADD25C,1.206400*%
%ADD26C,1.106400*%
%ADD27C,0.400000*%
%ADD28C,0.300000*%
%ADD29C,1.000000*%
%ADD30C,1.006400*%

G36*
X754535Y4005D02*
X754535Y4005D01*
X754571Y4002D01*
X754707Y4025D01*
X754843Y4041D01*
X754877Y4053D01*
X754912Y4058D01*
X755039Y4111D01*
X755169Y4158D01*
X755198Y4177D01*
X755231Y4191D01*
X755343Y4272D01*
X755458Y4347D01*
X755483Y4373D01*
X755511Y4393D01*
X755602Y4497D01*
X755697Y4597D01*
X755715Y4628D01*
X755738Y4654D01*
X755802Y4777D01*
X755872Y4895D01*
X755882Y4929D01*
X755899Y4961D01*
X755933Y5094D01*
X755974Y5226D01*
X755976Y5261D01*
X755985Y5295D01*
X755999Y5500D01*
X755999Y26657D01*
X758343Y29001D01*
X761710Y29001D01*
X761727Y28987D01*
X761853Y28928D01*
X761977Y28863D01*
X762009Y28855D01*
X762040Y28840D01*
X762176Y28812D01*
X762311Y28777D01*
X762356Y28774D01*
X762378Y28769D01*
X762412Y28770D01*
X762516Y28763D01*
X774738Y28763D01*
X774773Y28767D01*
X774809Y28764D01*
X774945Y28787D01*
X775081Y28803D01*
X775115Y28815D01*
X775150Y28820D01*
X775277Y28873D01*
X775407Y28920D01*
X775436Y28939D01*
X775469Y28953D01*
X775581Y29034D01*
X775696Y29109D01*
X775721Y29135D01*
X775749Y29155D01*
X775840Y29259D01*
X775935Y29359D01*
X775953Y29390D01*
X775976Y29416D01*
X776040Y29539D01*
X776110Y29657D01*
X776120Y29691D01*
X776137Y29723D01*
X776171Y29856D01*
X776212Y29988D01*
X776214Y30023D01*
X776223Y30057D01*
X776237Y30262D01*
X776237Y179738D01*
X776233Y179773D01*
X776236Y179809D01*
X776213Y179945D01*
X776197Y180081D01*
X776185Y180115D01*
X776180Y180150D01*
X776127Y180277D01*
X776080Y180407D01*
X776061Y180436D01*
X776047Y180469D01*
X775966Y180581D01*
X775891Y180696D01*
X775865Y180721D01*
X775845Y180749D01*
X775741Y180840D01*
X775641Y180935D01*
X775610Y180953D01*
X775584Y180976D01*
X775461Y181040D01*
X775343Y181110D01*
X775309Y181120D01*
X775277Y181137D01*
X775144Y181171D01*
X775012Y181212D01*
X774977Y181214D01*
X774943Y181223D01*
X774738Y181237D01*
X762516Y181237D01*
X762378Y181221D01*
X762238Y181211D01*
X762206Y181201D01*
X762173Y181197D01*
X762041Y181150D01*
X761908Y181109D01*
X761879Y181091D01*
X761848Y181080D01*
X761731Y181004D01*
X761723Y180999D01*
X758343Y180999D01*
X758260Y181082D01*
X758178Y181147D01*
X758103Y181219D01*
X758043Y181254D01*
X757989Y181297D01*
X757895Y181341D01*
X757805Y181394D01*
X757739Y181414D01*
X757676Y181444D01*
X757574Y181465D01*
X757474Y181496D01*
X757405Y181501D01*
X757338Y181515D01*
X757234Y181512D01*
X757129Y181519D01*
X757061Y181508D01*
X756992Y181507D01*
X756891Y181480D01*
X756788Y181463D01*
X756725Y181437D01*
X756658Y181420D01*
X756565Y181371D01*
X756469Y181331D01*
X756413Y181290D01*
X756352Y181258D01*
X756273Y181190D01*
X756189Y181129D01*
X756143Y181076D01*
X756091Y181031D01*
X756030Y180946D01*
X755962Y180867D01*
X755930Y180806D01*
X755889Y180750D01*
X755850Y180654D01*
X755801Y180561D01*
X755784Y180494D01*
X755758Y180431D01*
X755741Y180328D01*
X755715Y180227D01*
X755708Y180123D01*
X755702Y180089D01*
X755704Y180067D01*
X755701Y180022D01*
X755701Y176433D01*
X755713Y176329D01*
X755715Y176225D01*
X755733Y176158D01*
X755741Y176089D01*
X755776Y175991D01*
X755802Y175890D01*
X755835Y175829D01*
X755858Y175764D01*
X755915Y175677D01*
X755964Y175584D01*
X756009Y175532D01*
X756047Y175474D01*
X756122Y175402D01*
X756191Y175324D01*
X756247Y175283D01*
X756297Y175236D01*
X756387Y175183D01*
X756472Y175122D01*
X756536Y175096D01*
X756595Y175061D01*
X756695Y175030D01*
X756791Y174990D01*
X756860Y174979D01*
X756926Y174959D01*
X757030Y174951D01*
X757133Y174935D01*
X757202Y174940D01*
X757271Y174935D01*
X757373Y174952D01*
X757478Y174959D01*
X757544Y174980D01*
X757612Y174991D01*
X757708Y175031D01*
X757808Y175062D01*
X757867Y175097D01*
X757931Y175124D01*
X758016Y175185D01*
X758105Y175238D01*
X758184Y175306D01*
X758211Y175326D01*
X758226Y175343D01*
X758260Y175372D01*
X758588Y175701D01*
X771412Y175701D01*
X772701Y174412D01*
X772701Y162588D01*
X771172Y161060D01*
X771150Y161032D01*
X771124Y161009D01*
X771043Y160897D01*
X770958Y160789D01*
X770943Y160757D01*
X770922Y160728D01*
X770869Y160601D01*
X770811Y160476D01*
X770804Y160441D01*
X770790Y160409D01*
X770768Y160272D01*
X770740Y160138D01*
X770740Y160102D01*
X770735Y160067D01*
X770745Y159930D01*
X770748Y159792D01*
X770757Y159758D01*
X770759Y159722D01*
X770800Y159591D01*
X770835Y159458D01*
X770851Y159426D01*
X770862Y159392D01*
X770932Y159274D01*
X770996Y159152D01*
X771020Y159125D01*
X771038Y159095D01*
X771172Y158940D01*
X772701Y157412D01*
X772701Y145588D01*
X771225Y144112D01*
X771139Y144057D01*
X771006Y143974D01*
X770994Y143962D01*
X770980Y143953D01*
X770873Y143840D01*
X770762Y143730D01*
X770753Y143715D01*
X770742Y143703D01*
X770663Y143568D01*
X770581Y143435D01*
X770575Y143419D01*
X770567Y143405D01*
X770521Y143256D01*
X770471Y143107D01*
X770470Y143091D01*
X770465Y143074D01*
X770454Y142918D01*
X770440Y142763D01*
X770442Y142746D01*
X770441Y142729D01*
X770466Y142575D01*
X770488Y142421D01*
X770495Y142400D01*
X770497Y142388D01*
X770508Y142363D01*
X770553Y142226D01*
X770983Y141190D01*
X770983Y138810D01*
X770553Y137774D01*
X770511Y137623D01*
X770465Y137474D01*
X770464Y137457D01*
X770459Y137441D01*
X770452Y137286D01*
X770441Y137129D01*
X770444Y137113D01*
X770443Y137096D01*
X770472Y136942D01*
X770497Y136788D01*
X770503Y136773D01*
X770507Y136756D01*
X770570Y136613D01*
X770630Y136469D01*
X770640Y136455D01*
X770646Y136440D01*
X770741Y136315D01*
X770832Y136189D01*
X770845Y136177D01*
X770855Y136164D01*
X770975Y136064D01*
X771093Y135962D01*
X771108Y135954D01*
X771121Y135943D01*
X771216Y135896D01*
X772701Y134412D01*
X772701Y122588D01*
X771172Y121060D01*
X771150Y121032D01*
X771124Y121009D01*
X771043Y120897D01*
X770958Y120789D01*
X770943Y120757D01*
X770922Y120728D01*
X770869Y120601D01*
X770811Y120476D01*
X770804Y120441D01*
X770790Y120409D01*
X770768Y120272D01*
X770740Y120138D01*
X770740Y120102D01*
X770735Y120067D01*
X770745Y119930D01*
X770748Y119792D01*
X770757Y119758D01*
X770759Y119722D01*
X770800Y119591D01*
X770835Y119458D01*
X770851Y119426D01*
X770862Y119392D01*
X770932Y119273D01*
X770996Y119152D01*
X771020Y119125D01*
X771038Y119095D01*
X771172Y118940D01*
X772701Y117412D01*
X772701Y105588D01*
X771412Y104299D01*
X758588Y104299D01*
X757299Y105588D01*
X757299Y113199D01*
X757283Y113338D01*
X757273Y113477D01*
X757263Y113509D01*
X757259Y113543D01*
X757212Y113674D01*
X757171Y113807D01*
X757153Y113836D01*
X757142Y113868D01*
X757066Y113985D01*
X756995Y114105D01*
X756965Y114139D01*
X756953Y114158D01*
X756929Y114181D01*
X756860Y114259D01*
X755760Y115359D01*
X755678Y115424D01*
X755603Y115496D01*
X755543Y115531D01*
X755489Y115574D01*
X755395Y115619D01*
X755305Y115671D01*
X755239Y115692D01*
X755176Y115721D01*
X755074Y115743D01*
X754974Y115773D01*
X754905Y115778D01*
X754838Y115792D01*
X754734Y115790D01*
X754629Y115797D01*
X754561Y115786D01*
X754492Y115784D01*
X754391Y115758D01*
X754288Y115741D01*
X754225Y115714D01*
X754158Y115697D01*
X754065Y115648D01*
X753969Y115608D01*
X753913Y115568D01*
X753852Y115536D01*
X753773Y115467D01*
X753689Y115406D01*
X753643Y115354D01*
X753591Y115308D01*
X753530Y115224D01*
X753462Y115145D01*
X753430Y115084D01*
X753389Y115028D01*
X753350Y114931D01*
X753301Y114839D01*
X753284Y114772D01*
X753258Y114708D01*
X753241Y114605D01*
X753215Y114504D01*
X753208Y114400D01*
X753202Y114367D01*
X753204Y114344D01*
X753201Y114299D01*
X753201Y107088D01*
X751912Y105799D01*
X750700Y105799D01*
X750665Y105795D01*
X750629Y105798D01*
X750493Y105775D01*
X750357Y105759D01*
X750323Y105747D01*
X750288Y105742D01*
X750161Y105689D01*
X750031Y105642D01*
X750002Y105623D01*
X749969Y105609D01*
X749857Y105528D01*
X749742Y105453D01*
X749717Y105427D01*
X749689Y105407D01*
X749598Y105303D01*
X749503Y105203D01*
X749485Y105172D01*
X749462Y105146D01*
X749398Y105023D01*
X749328Y104905D01*
X749318Y104871D01*
X749301Y104839D01*
X749267Y104706D01*
X749226Y104574D01*
X749224Y104539D01*
X749215Y104505D01*
X749201Y104300D01*
X749201Y98568D01*
X748043Y95774D01*
X748001Y95624D01*
X747955Y95474D01*
X747953Y95457D01*
X747949Y95441D01*
X747942Y95285D01*
X747931Y95129D01*
X747934Y95113D01*
X747933Y95096D01*
X747962Y94942D01*
X747987Y94788D01*
X747993Y94773D01*
X747997Y94756D01*
X748060Y94613D01*
X748120Y94469D01*
X748130Y94455D01*
X748136Y94440D01*
X748230Y94315D01*
X748322Y94189D01*
X748335Y94177D01*
X748345Y94164D01*
X748465Y94064D01*
X748583Y93962D01*
X748598Y93954D01*
X748611Y93943D01*
X748751Y93874D01*
X748889Y93801D01*
X748906Y93797D01*
X748921Y93789D01*
X749072Y93754D01*
X749224Y93715D01*
X749246Y93713D01*
X749257Y93711D01*
X749285Y93711D01*
X749429Y93701D01*
X750412Y93701D01*
X751701Y92412D01*
X751701Y80588D01*
X750172Y79060D01*
X750150Y79032D01*
X750124Y79009D01*
X750043Y78897D01*
X749958Y78789D01*
X749943Y78757D01*
X749922Y78728D01*
X749869Y78601D01*
X749811Y78476D01*
X749804Y78441D01*
X749790Y78409D01*
X749768Y78272D01*
X749740Y78138D01*
X749740Y78102D01*
X749735Y78067D01*
X749745Y77930D01*
X749748Y77792D01*
X749757Y77758D01*
X749759Y77722D01*
X749800Y77591D01*
X749835Y77458D01*
X749851Y77426D01*
X749862Y77392D01*
X749932Y77274D01*
X749996Y77152D01*
X750020Y77125D01*
X750038Y77095D01*
X750172Y76940D01*
X751701Y75412D01*
X751701Y63588D01*
X750412Y62299D01*
X750200Y62299D01*
X750165Y62295D01*
X750129Y62298D01*
X749993Y62275D01*
X749857Y62259D01*
X749823Y62247D01*
X749788Y62242D01*
X749661Y62189D01*
X749531Y62142D01*
X749502Y62123D01*
X749469Y62109D01*
X749357Y62028D01*
X749242Y61953D01*
X749217Y61927D01*
X749189Y61907D01*
X749098Y61803D01*
X749003Y61703D01*
X748985Y61672D01*
X748962Y61646D01*
X748898Y61523D01*
X748828Y61405D01*
X748818Y61371D01*
X748801Y61339D01*
X748767Y61206D01*
X748726Y61074D01*
X748724Y61039D01*
X748715Y61005D01*
X748701Y60800D01*
X748701Y58200D01*
X748705Y58165D01*
X748702Y58129D01*
X748725Y57993D01*
X748741Y57857D01*
X748753Y57823D01*
X748758Y57788D01*
X748811Y57661D01*
X748858Y57531D01*
X748877Y57502D01*
X748891Y57469D01*
X748972Y57357D01*
X749047Y57242D01*
X749073Y57217D01*
X749093Y57189D01*
X749197Y57098D01*
X749297Y57003D01*
X749328Y56985D01*
X749354Y56962D01*
X749477Y56898D01*
X749595Y56828D01*
X749629Y56818D01*
X749661Y56801D01*
X749794Y56767D01*
X749926Y56726D01*
X749961Y56724D01*
X749995Y56715D01*
X750200Y56701D01*
X750412Y56701D01*
X751701Y55412D01*
X751701Y43588D01*
X750412Y42299D01*
X738068Y42299D01*
X737930Y42283D01*
X737791Y42273D01*
X737758Y42263D01*
X737725Y42259D01*
X737594Y42212D01*
X737460Y42171D01*
X737431Y42153D01*
X737399Y42142D01*
X737283Y42066D01*
X737163Y41995D01*
X737129Y41965D01*
X737110Y41953D01*
X737087Y41929D01*
X737008Y41860D01*
X735000Y39852D01*
X734988Y39837D01*
X734974Y39826D01*
X734881Y39702D01*
X734785Y39581D01*
X734777Y39564D01*
X734766Y39549D01*
X734689Y39394D01*
X730608Y35313D01*
X730601Y35311D01*
X730468Y35232D01*
X730333Y35157D01*
X730319Y35144D01*
X730303Y35135D01*
X730148Y35000D01*
X728640Y33492D01*
X728563Y33395D01*
X728558Y33389D01*
X728555Y33385D01*
X728553Y33383D01*
X728462Y33277D01*
X728446Y33247D01*
X728425Y33221D01*
X728366Y33095D01*
X728301Y32971D01*
X728293Y32939D01*
X728278Y32908D01*
X728250Y32772D01*
X728215Y32637D01*
X728212Y32591D01*
X728207Y32570D01*
X728208Y32536D01*
X728201Y32432D01*
X728201Y26088D01*
X726912Y24799D01*
X715088Y24799D01*
X713799Y26088D01*
X713799Y32432D01*
X713783Y32570D01*
X713773Y32709D01*
X713763Y32742D01*
X713759Y32775D01*
X713712Y32906D01*
X713671Y33040D01*
X713653Y33069D01*
X713642Y33101D01*
X713566Y33217D01*
X713495Y33337D01*
X713465Y33372D01*
X713453Y33390D01*
X713429Y33413D01*
X713360Y33492D01*
X711852Y35000D01*
X711837Y35012D01*
X711826Y35026D01*
X711702Y35119D01*
X711581Y35215D01*
X711564Y35223D01*
X711549Y35234D01*
X711394Y35311D01*
X710845Y35860D01*
X710736Y35947D01*
X710631Y36038D01*
X710601Y36054D01*
X710574Y36075D01*
X710448Y36134D01*
X710325Y36199D01*
X710292Y36207D01*
X710261Y36222D01*
X710125Y36250D01*
X709990Y36285D01*
X709945Y36288D01*
X709923Y36293D01*
X709889Y36292D01*
X709785Y36299D01*
X709700Y36299D01*
X709665Y36295D01*
X709629Y36298D01*
X709493Y36275D01*
X709357Y36259D01*
X709323Y36247D01*
X709288Y36242D01*
X709161Y36189D01*
X709031Y36142D01*
X709002Y36123D01*
X708969Y36109D01*
X708857Y36028D01*
X708742Y35953D01*
X708717Y35927D01*
X708689Y35907D01*
X708598Y35803D01*
X708503Y35703D01*
X708485Y35672D01*
X708462Y35646D01*
X708398Y35523D01*
X708328Y35405D01*
X708318Y35371D01*
X708301Y35339D01*
X708267Y35206D01*
X708226Y35074D01*
X708224Y35039D01*
X708215Y35005D01*
X708201Y34800D01*
X708201Y27588D01*
X706912Y26299D01*
X699088Y26299D01*
X697799Y27588D01*
X697799Y35476D01*
X697807Y35493D01*
X697828Y35522D01*
X697881Y35649D01*
X697939Y35774D01*
X697946Y35808D01*
X697960Y35841D01*
X697982Y35977D01*
X698010Y36112D01*
X698010Y36148D01*
X698015Y36183D01*
X698005Y36320D01*
X698002Y36458D01*
X697993Y36492D01*
X697991Y36528D01*
X697950Y36659D01*
X697915Y36792D01*
X697899Y36824D01*
X697888Y36858D01*
X697818Y36976D01*
X697799Y37012D01*
X697799Y44976D01*
X697807Y44993D01*
X697828Y45022D01*
X697881Y45149D01*
X697939Y45274D01*
X697946Y45308D01*
X697960Y45341D01*
X697982Y45477D01*
X698010Y45612D01*
X698010Y45648D01*
X698015Y45682D01*
X698005Y45820D01*
X698002Y45958D01*
X697993Y45992D01*
X697991Y46027D01*
X697950Y46159D01*
X697915Y46292D01*
X697899Y46324D01*
X697888Y46357D01*
X697818Y46476D01*
X697754Y46598D01*
X697730Y46625D01*
X697712Y46655D01*
X697578Y46810D01*
X697451Y46937D01*
X697328Y47034D01*
X697208Y47134D01*
X697193Y47141D01*
X697180Y47152D01*
X697038Y47218D01*
X696898Y47288D01*
X696882Y47291D01*
X696867Y47298D01*
X696714Y47331D01*
X696562Y47366D01*
X696545Y47366D01*
X696529Y47370D01*
X696373Y47366D01*
X696216Y47366D01*
X696200Y47362D01*
X696183Y47362D01*
X696032Y47322D01*
X695879Y47286D01*
X695864Y47279D01*
X695848Y47275D01*
X695710Y47202D01*
X695570Y47132D01*
X695557Y47121D01*
X695543Y47113D01*
X695425Y47011D01*
X695305Y46910D01*
X695294Y46897D01*
X695282Y46886D01*
X695191Y46759D01*
X695101Y46641D01*
X693389Y44928D01*
X691190Y44017D01*
X690579Y44017D01*
X690441Y44001D01*
X690301Y43991D01*
X690269Y43981D01*
X690236Y43977D01*
X690105Y43930D01*
X689971Y43889D01*
X689942Y43871D01*
X689910Y43860D01*
X689794Y43784D01*
X689674Y43713D01*
X689639Y43683D01*
X689621Y43671D01*
X689598Y43647D01*
X689519Y43578D01*
X688840Y42899D01*
X688753Y42790D01*
X688662Y42685D01*
X688646Y42655D01*
X688625Y42628D01*
X688566Y42502D01*
X688501Y42378D01*
X688493Y42346D01*
X688478Y42315D01*
X688450Y42178D01*
X688415Y42044D01*
X688412Y41999D01*
X688407Y41977D01*
X688408Y41943D01*
X688401Y41839D01*
X688401Y25020D01*
X681782Y18401D01*
X644881Y18401D01*
X644743Y18385D01*
X644604Y18375D01*
X644571Y18365D01*
X644538Y18361D01*
X644407Y18314D01*
X644273Y18273D01*
X644244Y18255D01*
X644213Y18244D01*
X644096Y18168D01*
X643976Y18097D01*
X643942Y18067D01*
X643923Y18055D01*
X643900Y18031D01*
X643821Y17962D01*
X643389Y17530D01*
X641190Y16619D01*
X638810Y16619D01*
X636611Y17530D01*
X634928Y19213D01*
X634017Y21412D01*
X634017Y23792D01*
X634928Y25991D01*
X636611Y27674D01*
X638810Y28585D01*
X641190Y28585D01*
X643389Y27674D01*
X643821Y27242D01*
X643930Y27155D01*
X644036Y27064D01*
X644066Y27048D01*
X644092Y27027D01*
X644218Y26968D01*
X644342Y26903D01*
X644374Y26895D01*
X644405Y26880D01*
X644541Y26852D01*
X644676Y26817D01*
X644722Y26814D01*
X644743Y26809D01*
X644777Y26810D01*
X644881Y26803D01*
X655650Y26803D01*
X655685Y26807D01*
X655721Y26804D01*
X655857Y26827D01*
X655993Y26843D01*
X656027Y26855D01*
X656062Y26860D01*
X656189Y26913D01*
X656319Y26960D01*
X656348Y26979D01*
X656381Y26993D01*
X656493Y27074D01*
X656608Y27149D01*
X656633Y27175D01*
X656661Y27195D01*
X656752Y27299D01*
X656847Y27399D01*
X656865Y27430D01*
X656888Y27456D01*
X656952Y27579D01*
X657022Y27697D01*
X657032Y27731D01*
X657049Y27763D01*
X657083Y27896D01*
X657124Y28028D01*
X657126Y28063D01*
X657135Y28097D01*
X657149Y28302D01*
X657149Y35212D01*
X658438Y36501D01*
X667592Y36501D01*
X667637Y36462D01*
X667667Y36446D01*
X667693Y36425D01*
X667819Y36366D01*
X667943Y36301D01*
X667976Y36293D01*
X668006Y36278D01*
X668143Y36250D01*
X668278Y36215D01*
X668323Y36212D01*
X668345Y36207D01*
X668378Y36208D01*
X668483Y36201D01*
X670300Y36201D01*
X670335Y36205D01*
X670371Y36202D01*
X670507Y36225D01*
X670643Y36241D01*
X670677Y36253D01*
X670712Y36258D01*
X670839Y36311D01*
X670969Y36358D01*
X670998Y36377D01*
X671031Y36391D01*
X671143Y36472D01*
X671258Y36547D01*
X671283Y36572D01*
X671311Y36593D01*
X671402Y36697D01*
X671497Y36797D01*
X671515Y36828D01*
X671538Y36854D01*
X671602Y36977D01*
X671672Y37095D01*
X671682Y37129D01*
X671699Y37161D01*
X671733Y37294D01*
X671774Y37426D01*
X671776Y37461D01*
X671785Y37495D01*
X671799Y37700D01*
X671799Y44976D01*
X671807Y44993D01*
X671828Y45022D01*
X671880Y45149D01*
X671939Y45274D01*
X671946Y45309D01*
X671960Y45341D01*
X671982Y45477D01*
X672010Y45612D01*
X672010Y45648D01*
X672015Y45683D01*
X672005Y45820D01*
X672002Y45958D01*
X671993Y45992D01*
X671991Y46028D01*
X671950Y46159D01*
X671915Y46292D01*
X671899Y46324D01*
X671888Y46358D01*
X671818Y46477D01*
X671754Y46598D01*
X671730Y46625D01*
X671712Y46656D01*
X671681Y46691D01*
X671665Y46721D01*
X671642Y46786D01*
X671585Y46874D01*
X671536Y46966D01*
X671491Y47018D01*
X671453Y47076D01*
X671378Y47148D01*
X671309Y47226D01*
X671253Y47267D01*
X671203Y47314D01*
X671113Y47367D01*
X671028Y47428D01*
X670964Y47454D01*
X670905Y47489D01*
X670805Y47520D01*
X670709Y47560D01*
X670640Y47571D01*
X670574Y47591D01*
X670470Y47599D01*
X670367Y47615D01*
X670298Y47610D01*
X670229Y47615D01*
X670127Y47598D01*
X670022Y47591D01*
X669956Y47570D01*
X669888Y47559D01*
X669792Y47519D01*
X669692Y47488D01*
X669633Y47453D01*
X669569Y47426D01*
X669484Y47365D01*
X669395Y47312D01*
X669316Y47244D01*
X669289Y47224D01*
X669274Y47207D01*
X669240Y47178D01*
X667562Y45499D01*
X658438Y45499D01*
X657149Y46788D01*
X657149Y53000D01*
X657145Y53035D01*
X657148Y53071D01*
X657125Y53207D01*
X657109Y53343D01*
X657097Y53377D01*
X657092Y53412D01*
X657039Y53539D01*
X656992Y53669D01*
X656973Y53698D01*
X656959Y53731D01*
X656878Y53843D01*
X656803Y53958D01*
X656777Y53983D01*
X656757Y54011D01*
X656653Y54102D01*
X656553Y54197D01*
X656522Y54215D01*
X656496Y54238D01*
X656373Y54302D01*
X656255Y54372D01*
X656221Y54382D01*
X656189Y54399D01*
X656056Y54433D01*
X655924Y54474D01*
X655889Y54476D01*
X655855Y54485D01*
X655650Y54499D01*
X650563Y54499D01*
X650425Y54483D01*
X650286Y54473D01*
X650253Y54463D01*
X650220Y54459D01*
X650089Y54412D01*
X649955Y54371D01*
X649926Y54353D01*
X649895Y54342D01*
X649778Y54266D01*
X649658Y54195D01*
X649624Y54165D01*
X649605Y54153D01*
X649582Y54129D01*
X649503Y54060D01*
X647664Y52221D01*
X644638Y50967D01*
X643300Y50967D01*
X643197Y50955D01*
X643092Y50953D01*
X643025Y50935D01*
X642957Y50927D01*
X642859Y50892D01*
X642758Y50866D01*
X642696Y50833D01*
X642631Y50810D01*
X642544Y50753D01*
X642452Y50704D01*
X642400Y50659D01*
X642342Y50621D01*
X642270Y50546D01*
X642191Y50477D01*
X642151Y50421D01*
X642103Y50371D01*
X642050Y50281D01*
X641990Y50196D01*
X641963Y50132D01*
X641928Y50073D01*
X641897Y49973D01*
X641858Y49877D01*
X641847Y49808D01*
X641826Y49742D01*
X641819Y49638D01*
X641802Y49535D01*
X641807Y49466D01*
X641802Y49397D01*
X641819Y49295D01*
X641827Y49190D01*
X641847Y49124D01*
X641858Y49056D01*
X641898Y48960D01*
X641930Y48860D01*
X641965Y48801D01*
X641991Y48737D01*
X642052Y48652D01*
X642105Y48563D01*
X642174Y48484D01*
X642193Y48457D01*
X642210Y48442D01*
X642240Y48408D01*
X644208Y46440D01*
X644317Y46353D01*
X644423Y46262D01*
X644453Y46246D01*
X644479Y46225D01*
X644605Y46166D01*
X644729Y46101D01*
X644762Y46093D01*
X644792Y46078D01*
X644928Y46050D01*
X645063Y46015D01*
X645109Y46012D01*
X645130Y46007D01*
X645164Y46008D01*
X645268Y46001D01*
X647562Y46001D01*
X648851Y44712D01*
X648851Y37288D01*
X647562Y35999D01*
X638438Y35999D01*
X637149Y37288D01*
X637149Y39582D01*
X637133Y39720D01*
X637123Y39859D01*
X637113Y39892D01*
X637109Y39925D01*
X637062Y40056D01*
X637021Y40190D01*
X637003Y40219D01*
X636992Y40250D01*
X636916Y40367D01*
X636845Y40487D01*
X636815Y40521D01*
X636803Y40540D01*
X636779Y40563D01*
X636710Y40642D01*
X633792Y43560D01*
X633765Y43582D01*
X633741Y43609D01*
X633629Y43689D01*
X633521Y43774D01*
X633489Y43790D01*
X633460Y43810D01*
X633333Y43863D01*
X633208Y43921D01*
X633174Y43929D01*
X633141Y43942D01*
X633005Y43964D01*
X632870Y43993D01*
X632835Y43992D01*
X632800Y43997D01*
X632662Y43988D01*
X632524Y43984D01*
X632490Y43976D01*
X632455Y43973D01*
X632323Y43932D01*
X632190Y43897D01*
X632158Y43881D01*
X632125Y43870D01*
X632006Y43800D01*
X631884Y43736D01*
X631857Y43713D01*
X631827Y43695D01*
X631672Y43560D01*
X630412Y42299D01*
X617588Y42299D01*
X616299Y43588D01*
X616299Y53000D01*
X616295Y53035D01*
X616298Y53071D01*
X616275Y53207D01*
X616259Y53343D01*
X616247Y53377D01*
X616242Y53412D01*
X616189Y53539D01*
X616142Y53669D01*
X616123Y53698D01*
X616109Y53731D01*
X616028Y53843D01*
X615953Y53958D01*
X615927Y53983D01*
X615907Y54011D01*
X615803Y54102D01*
X615703Y54197D01*
X615672Y54215D01*
X615646Y54238D01*
X615523Y54302D01*
X615405Y54372D01*
X615371Y54382D01*
X615339Y54399D01*
X615206Y54433D01*
X615074Y54474D01*
X615039Y54476D01*
X615005Y54485D01*
X614800Y54499D01*
X610200Y54499D01*
X610165Y54495D01*
X610129Y54498D01*
X609993Y54475D01*
X609857Y54459D01*
X609823Y54447D01*
X609788Y54442D01*
X609661Y54389D01*
X609531Y54342D01*
X609502Y54323D01*
X609469Y54309D01*
X609357Y54228D01*
X609242Y54153D01*
X609217Y54127D01*
X609189Y54107D01*
X609098Y54003D01*
X609003Y53903D01*
X608985Y53872D01*
X608962Y53846D01*
X608898Y53723D01*
X608828Y53605D01*
X608818Y53571D01*
X608801Y53539D01*
X608767Y53406D01*
X608726Y53274D01*
X608724Y53239D01*
X608715Y53205D01*
X608701Y53000D01*
X608701Y43588D01*
X607412Y42299D01*
X597568Y42299D01*
X597430Y42283D01*
X597291Y42273D01*
X597258Y42263D01*
X597225Y42259D01*
X597094Y42212D01*
X596960Y42171D01*
X596931Y42153D01*
X596899Y42142D01*
X596783Y42066D01*
X596663Y41995D01*
X596629Y41965D01*
X596610Y41953D01*
X596587Y41929D01*
X596508Y41860D01*
X595652Y41004D01*
X595578Y40911D01*
X595554Y40886D01*
X595547Y40873D01*
X595474Y40789D01*
X595458Y40759D01*
X595437Y40733D01*
X595378Y40607D01*
X595313Y40483D01*
X595305Y40450D01*
X595290Y40420D01*
X595262Y40284D01*
X595227Y40148D01*
X595224Y40103D01*
X595219Y40082D01*
X595220Y40057D01*
X594302Y37841D01*
X592619Y36158D01*
X590420Y35247D01*
X588040Y35247D01*
X585806Y36172D01*
X585803Y36176D01*
X585743Y36211D01*
X585689Y36253D01*
X585595Y36298D01*
X585505Y36351D01*
X585439Y36371D01*
X585376Y36400D01*
X585274Y36422D01*
X585174Y36453D01*
X585105Y36457D01*
X585038Y36472D01*
X584934Y36469D01*
X584829Y36476D01*
X584761Y36465D01*
X584692Y36464D01*
X584591Y36437D01*
X584488Y36420D01*
X584425Y36394D01*
X584358Y36376D01*
X584265Y36328D01*
X584169Y36288D01*
X584113Y36247D01*
X584052Y36215D01*
X583973Y36147D01*
X583889Y36085D01*
X583843Y36033D01*
X583791Y35988D01*
X583730Y35903D01*
X583662Y35824D01*
X583630Y35763D01*
X583590Y35707D01*
X583550Y35611D01*
X583501Y35518D01*
X583484Y35451D01*
X583458Y35388D01*
X583441Y35285D01*
X583415Y35183D01*
X583408Y35079D01*
X583402Y35046D01*
X583404Y35024D01*
X583401Y34979D01*
X583401Y24971D01*
X582685Y23244D01*
X581310Y21868D01*
X579582Y21152D01*
X558065Y21152D01*
X556337Y21868D01*
X549845Y28360D01*
X549736Y28447D01*
X549631Y28538D01*
X549601Y28554D01*
X549574Y28575D01*
X549448Y28634D01*
X549325Y28699D01*
X549292Y28707D01*
X549261Y28722D01*
X549125Y28750D01*
X548990Y28785D01*
X548945Y28788D01*
X548923Y28793D01*
X548889Y28792D01*
X548785Y28799D01*
X545088Y28799D01*
X543799Y30088D01*
X543799Y36432D01*
X543783Y36570D01*
X543773Y36709D01*
X543763Y36742D01*
X543759Y36775D01*
X543712Y36906D01*
X543671Y37040D01*
X543653Y37069D01*
X543642Y37101D01*
X543566Y37217D01*
X543495Y37337D01*
X543465Y37371D01*
X543453Y37390D01*
X543429Y37413D01*
X543360Y37492D01*
X537315Y43537D01*
X536599Y45265D01*
X536599Y69882D01*
X537315Y71610D01*
X538848Y73143D01*
X543860Y78155D01*
X543947Y78264D01*
X544038Y78369D01*
X544054Y78399D01*
X544075Y78426D01*
X544134Y78552D01*
X544199Y78675D01*
X544207Y78708D01*
X544222Y78739D01*
X544250Y78875D01*
X544285Y79010D01*
X544288Y79055D01*
X544293Y79077D01*
X544292Y79111D01*
X544299Y79215D01*
X544299Y83912D01*
X545588Y85201D01*
X553476Y85201D01*
X553493Y85193D01*
X553522Y85172D01*
X553649Y85120D01*
X553774Y85061D01*
X553809Y85054D01*
X553841Y85040D01*
X553977Y85018D01*
X554112Y84990D01*
X554148Y84990D01*
X554183Y84985D01*
X554320Y84995D01*
X554458Y84998D01*
X554492Y85007D01*
X554528Y85009D01*
X554659Y85050D01*
X554792Y85085D01*
X554824Y85101D01*
X554858Y85112D01*
X554977Y85182D01*
X555012Y85201D01*
X562976Y85201D01*
X562993Y85193D01*
X563022Y85172D01*
X563149Y85119D01*
X563274Y85061D01*
X563308Y85054D01*
X563341Y85040D01*
X563477Y85018D01*
X563612Y84990D01*
X563648Y84990D01*
X563683Y84985D01*
X563820Y84995D01*
X563958Y84998D01*
X563992Y85007D01*
X564028Y85009D01*
X564159Y85050D01*
X564292Y85085D01*
X564324Y85101D01*
X564358Y85112D01*
X564476Y85182D01*
X564512Y85201D01*
X572412Y85201D01*
X572472Y85140D01*
X572581Y85054D01*
X572687Y84962D01*
X572717Y84946D01*
X572743Y84925D01*
X572869Y84866D01*
X572993Y84801D01*
X573026Y84793D01*
X573056Y84778D01*
X573193Y84750D01*
X573328Y84715D01*
X573373Y84712D01*
X573395Y84707D01*
X573428Y84708D01*
X573533Y84701D01*
X574432Y84701D01*
X574570Y84717D01*
X574709Y84727D01*
X574742Y84737D01*
X574775Y84741D01*
X574906Y84788D01*
X575040Y84829D01*
X575069Y84847D01*
X575100Y84858D01*
X575217Y84934D01*
X575337Y85005D01*
X575371Y85035D01*
X575390Y85047D01*
X575413Y85071D01*
X575492Y85140D01*
X577192Y86840D01*
X577257Y86922D01*
X577329Y86997D01*
X577364Y87057D01*
X577407Y87111D01*
X577451Y87205D01*
X577504Y87295D01*
X577524Y87361D01*
X577554Y87424D01*
X577575Y87526D01*
X577606Y87626D01*
X577611Y87695D01*
X577625Y87762D01*
X577622Y87866D01*
X577630Y87971D01*
X577618Y88039D01*
X577617Y88108D01*
X577590Y88209D01*
X577574Y88312D01*
X577547Y88376D01*
X577530Y88442D01*
X577481Y88535D01*
X577441Y88631D01*
X577400Y88687D01*
X577368Y88748D01*
X577300Y88827D01*
X577239Y88911D01*
X577186Y88957D01*
X577141Y89009D01*
X577056Y89070D01*
X576977Y89138D01*
X576916Y89170D01*
X576860Y89211D01*
X576764Y89250D01*
X576671Y89299D01*
X576604Y89316D01*
X576541Y89342D01*
X576438Y89359D01*
X576337Y89385D01*
X576233Y89392D01*
X576199Y89398D01*
X576177Y89396D01*
X576132Y89399D01*
X548220Y89399D01*
X539759Y97860D01*
X539650Y97947D01*
X539545Y98038D01*
X539515Y98054D01*
X539488Y98075D01*
X539362Y98134D01*
X539239Y98199D01*
X539206Y98207D01*
X539175Y98222D01*
X539039Y98250D01*
X538904Y98285D01*
X538859Y98288D01*
X538837Y98293D01*
X538803Y98292D01*
X538699Y98299D01*
X528064Y98299D01*
X527909Y98281D01*
X527753Y98267D01*
X527737Y98261D01*
X527720Y98259D01*
X527574Y98206D01*
X527425Y98157D01*
X527411Y98148D01*
X527395Y98142D01*
X527264Y98057D01*
X527132Y97974D01*
X527120Y97962D01*
X527106Y97953D01*
X526998Y97840D01*
X526887Y97730D01*
X526879Y97715D01*
X526867Y97703D01*
X526788Y97569D01*
X526706Y97435D01*
X526700Y97419D01*
X526692Y97405D01*
X526646Y97256D01*
X526596Y97107D01*
X526595Y97091D01*
X526590Y97074D01*
X526579Y96918D01*
X526565Y96763D01*
X526567Y96746D01*
X526566Y96729D01*
X526592Y96575D01*
X526613Y96421D01*
X526620Y96400D01*
X526622Y96388D01*
X526633Y96363D01*
X526679Y96226D01*
X527657Y93864D01*
X527657Y91484D01*
X526746Y89285D01*
X525063Y87602D01*
X522864Y86692D01*
X520484Y86692D01*
X518285Y87602D01*
X516602Y89285D01*
X515692Y91484D01*
X515692Y92095D01*
X515676Y92233D01*
X515666Y92373D01*
X515656Y92405D01*
X515652Y92439D01*
X515604Y92570D01*
X515563Y92703D01*
X515546Y92732D01*
X515534Y92764D01*
X515458Y92881D01*
X515387Y93001D01*
X515358Y93035D01*
X515345Y93053D01*
X515321Y93077D01*
X515252Y93155D01*
X512299Y96109D01*
X512299Y96800D01*
X512295Y96835D01*
X512298Y96871D01*
X512275Y97007D01*
X512259Y97143D01*
X512247Y97177D01*
X512242Y97212D01*
X512189Y97339D01*
X512142Y97469D01*
X512123Y97498D01*
X512109Y97531D01*
X512028Y97643D01*
X511953Y97758D01*
X511927Y97783D01*
X511907Y97811D01*
X511803Y97902D01*
X511703Y97997D01*
X511672Y98015D01*
X511646Y98038D01*
X511523Y98102D01*
X511405Y98172D01*
X511371Y98182D01*
X511339Y98199D01*
X511206Y98233D01*
X511074Y98274D01*
X511039Y98276D01*
X511005Y98285D01*
X510800Y98299D01*
X510588Y98299D01*
X509299Y99588D01*
X509299Y112412D01*
X510588Y113701D01*
X522300Y113701D01*
X522335Y113705D01*
X522371Y113702D01*
X522507Y113725D01*
X522643Y113741D01*
X522677Y113753D01*
X522712Y113758D01*
X522839Y113811D01*
X522969Y113858D01*
X522998Y113877D01*
X523031Y113891D01*
X523143Y113972D01*
X523258Y114047D01*
X523283Y114073D01*
X523311Y114093D01*
X523402Y114197D01*
X523497Y114297D01*
X523515Y114328D01*
X523538Y114354D01*
X523602Y114477D01*
X523672Y114595D01*
X523682Y114629D01*
X523699Y114661D01*
X523733Y114794D01*
X523774Y114926D01*
X523776Y114961D01*
X523785Y114995D01*
X523799Y115200D01*
X523799Y115619D01*
X523783Y115757D01*
X523773Y115896D01*
X523763Y115929D01*
X523759Y115962D01*
X523712Y116093D01*
X523671Y116227D01*
X523653Y116256D01*
X523642Y116287D01*
X523566Y116404D01*
X523495Y116524D01*
X523465Y116558D01*
X523453Y116577D01*
X523435Y116594D01*
X522517Y118810D01*
X522517Y121190D01*
X522947Y122226D01*
X522989Y122377D01*
X523035Y122526D01*
X523036Y122543D01*
X523041Y122559D01*
X523048Y122714D01*
X523059Y122871D01*
X523056Y122887D01*
X523057Y122904D01*
X523028Y123058D01*
X523003Y123212D01*
X522997Y123227D01*
X522993Y123244D01*
X522930Y123387D01*
X522870Y123531D01*
X522860Y123545D01*
X522854Y123560D01*
X522759Y123685D01*
X522668Y123811D01*
X522655Y123823D01*
X522645Y123836D01*
X522525Y123936D01*
X522407Y124038D01*
X522392Y124046D01*
X522379Y124057D01*
X522239Y124126D01*
X522101Y124199D01*
X522084Y124203D01*
X522069Y124211D01*
X521917Y124246D01*
X521766Y124285D01*
X521744Y124287D01*
X521733Y124289D01*
X521705Y124289D01*
X521561Y124299D01*
X510588Y124299D01*
X509299Y125588D01*
X509299Y138412D01*
X510588Y139701D01*
X518346Y139701D01*
X518484Y139717D01*
X518624Y139727D01*
X518656Y139737D01*
X518690Y139741D01*
X518820Y139788D01*
X518954Y139829D01*
X518983Y139847D01*
X519015Y139858D01*
X519132Y139934D01*
X519252Y140005D01*
X519286Y140035D01*
X519304Y140047D01*
X519328Y140071D01*
X519406Y140140D01*
X525360Y146094D01*
X527967Y148701D01*
X547518Y148701D01*
X547553Y148705D01*
X547589Y148702D01*
X547725Y148725D01*
X547861Y148741D01*
X547895Y148753D01*
X547930Y148758D01*
X548057Y148811D01*
X548187Y148858D01*
X548216Y148877D01*
X548249Y148891D01*
X548361Y148972D01*
X548476Y149047D01*
X548501Y149073D01*
X548529Y149093D01*
X548620Y149197D01*
X548715Y149297D01*
X548733Y149328D01*
X548756Y149354D01*
X548820Y149477D01*
X548890Y149595D01*
X548900Y149629D01*
X548917Y149661D01*
X548951Y149794D01*
X548992Y149926D01*
X548994Y149961D01*
X549003Y149995D01*
X549017Y150200D01*
X549017Y151190D01*
X549928Y153389D01*
X551279Y154740D01*
X551344Y154822D01*
X551416Y154897D01*
X551451Y154957D01*
X551494Y155011D01*
X551538Y155105D01*
X551591Y155195D01*
X551611Y155261D01*
X551641Y155324D01*
X551662Y155426D01*
X551693Y155526D01*
X551698Y155595D01*
X551712Y155662D01*
X551709Y155766D01*
X551717Y155871D01*
X551705Y155939D01*
X551704Y156008D01*
X551677Y156109D01*
X551661Y156212D01*
X551634Y156276D01*
X551617Y156342D01*
X551568Y156435D01*
X551528Y156531D01*
X551487Y156587D01*
X551455Y156648D01*
X551387Y156727D01*
X551326Y156811D01*
X551273Y156857D01*
X551228Y156909D01*
X551143Y156970D01*
X551064Y157038D01*
X551003Y157070D01*
X550947Y157111D01*
X550851Y157150D01*
X550758Y157199D01*
X550691Y157216D01*
X550628Y157242D01*
X550525Y157259D01*
X550424Y157285D01*
X550320Y157292D01*
X550286Y157298D01*
X550264Y157296D01*
X550219Y157299D01*
X543588Y157299D01*
X542299Y158588D01*
X542299Y158800D01*
X542295Y158835D01*
X542298Y158871D01*
X542275Y159007D01*
X542259Y159143D01*
X542247Y159177D01*
X542242Y159212D01*
X542189Y159339D01*
X542142Y159469D01*
X542123Y159498D01*
X542109Y159531D01*
X542028Y159643D01*
X541953Y159758D01*
X541927Y159783D01*
X541907Y159811D01*
X541803Y159902D01*
X541703Y159997D01*
X541672Y160015D01*
X541646Y160038D01*
X541523Y160102D01*
X541405Y160172D01*
X541371Y160182D01*
X541339Y160199D01*
X541206Y160233D01*
X541074Y160274D01*
X541039Y160276D01*
X541005Y160285D01*
X540800Y160299D01*
X540200Y160299D01*
X540165Y160295D01*
X540129Y160298D01*
X539993Y160275D01*
X539857Y160259D01*
X539823Y160247D01*
X539788Y160242D01*
X539661Y160189D01*
X539531Y160142D01*
X539502Y160123D01*
X539469Y160109D01*
X539357Y160028D01*
X539242Y159953D01*
X539217Y159927D01*
X539189Y159907D01*
X539098Y159803D01*
X539003Y159703D01*
X538985Y159672D01*
X538962Y159646D01*
X538898Y159523D01*
X538828Y159405D01*
X538818Y159371D01*
X538801Y159339D01*
X538767Y159206D01*
X538726Y159074D01*
X538724Y159039D01*
X538715Y159005D01*
X538701Y158800D01*
X538701Y158588D01*
X537412Y157299D01*
X525588Y157299D01*
X524299Y158588D01*
X524299Y171412D01*
X525588Y172701D01*
X537412Y172701D01*
X538701Y171412D01*
X538701Y171200D01*
X538705Y171165D01*
X538702Y171129D01*
X538725Y170993D01*
X538741Y170857D01*
X538753Y170823D01*
X538758Y170788D01*
X538811Y170661D01*
X538858Y170531D01*
X538877Y170502D01*
X538891Y170469D01*
X538972Y170357D01*
X539047Y170242D01*
X539073Y170217D01*
X539093Y170189D01*
X539197Y170098D01*
X539297Y170003D01*
X539328Y169985D01*
X539354Y169962D01*
X539477Y169898D01*
X539595Y169828D01*
X539629Y169818D01*
X539661Y169801D01*
X539794Y169767D01*
X539926Y169726D01*
X539961Y169724D01*
X539995Y169715D01*
X540200Y169701D01*
X540800Y169701D01*
X540835Y169705D01*
X540871Y169702D01*
X541007Y169725D01*
X541143Y169741D01*
X541177Y169753D01*
X541212Y169758D01*
X541339Y169811D01*
X541469Y169858D01*
X541498Y169877D01*
X541531Y169891D01*
X541643Y169972D01*
X541758Y170047D01*
X541783Y170073D01*
X541811Y170093D01*
X541902Y170197D01*
X541997Y170297D01*
X542015Y170328D01*
X542038Y170354D01*
X542102Y170477D01*
X542172Y170595D01*
X542182Y170629D01*
X542199Y170661D01*
X542233Y170794D01*
X542274Y170926D01*
X542276Y170961D01*
X542285Y170995D01*
X542299Y171200D01*
X542299Y171412D01*
X543588Y172701D01*
X555412Y172701D01*
X556940Y171172D01*
X556968Y171150D01*
X556991Y171124D01*
X557103Y171043D01*
X557211Y170958D01*
X557243Y170943D01*
X557272Y170922D01*
X557399Y170869D01*
X557524Y170811D01*
X557559Y170804D01*
X557591Y170790D01*
X557728Y170768D01*
X557862Y170740D01*
X557898Y170740D01*
X557933Y170735D01*
X558070Y170745D01*
X558208Y170748D01*
X558242Y170757D01*
X558278Y170759D01*
X558409Y170800D01*
X558542Y170835D01*
X558574Y170851D01*
X558608Y170862D01*
X558726Y170932D01*
X558848Y170996D01*
X558875Y171020D01*
X558905Y171038D01*
X559060Y171172D01*
X560588Y172701D01*
X572412Y172701D01*
X573888Y171225D01*
X573943Y171139D01*
X574026Y171006D01*
X574038Y170994D01*
X574047Y170980D01*
X574160Y170873D01*
X574270Y170762D01*
X574285Y170753D01*
X574297Y170742D01*
X574432Y170663D01*
X574565Y170581D01*
X574581Y170575D01*
X574595Y170567D01*
X574744Y170521D01*
X574893Y170471D01*
X574909Y170470D01*
X574926Y170465D01*
X575082Y170454D01*
X575237Y170440D01*
X575254Y170442D01*
X575271Y170441D01*
X575425Y170466D01*
X575579Y170488D01*
X575600Y170495D01*
X575612Y170497D01*
X575637Y170508D01*
X575774Y170553D01*
X576810Y170983D01*
X579190Y170983D01*
X579215Y170972D01*
X579265Y170958D01*
X579312Y170936D01*
X579431Y170911D01*
X579547Y170878D01*
X579600Y170875D01*
X579651Y170865D01*
X579772Y170868D01*
X579893Y170862D01*
X579944Y170872D01*
X579996Y170873D01*
X580114Y170903D01*
X580232Y170926D01*
X580280Y170947D01*
X580331Y170960D01*
X580438Y171016D01*
X580549Y171065D01*
X580591Y171097D01*
X580637Y171121D01*
X580728Y171201D01*
X580825Y171274D01*
X580858Y171314D01*
X580897Y171349D01*
X580968Y171447D01*
X581045Y171540D01*
X581069Y171587D01*
X581099Y171629D01*
X581145Y171741D01*
X581199Y171850D01*
X581211Y171901D01*
X581231Y171949D01*
X581250Y172068D01*
X581278Y172186D01*
X581278Y172239D01*
X581286Y172290D01*
X581278Y172411D01*
X581278Y172532D01*
X581266Y172583D01*
X581262Y172635D01*
X581226Y172751D01*
X581198Y172868D01*
X581175Y172915D01*
X581159Y172965D01*
X581098Y173069D01*
X581044Y173178D01*
X581010Y173218D01*
X580983Y173263D01*
X580849Y173418D01*
X578406Y175860D01*
X578297Y175947D01*
X578192Y176038D01*
X578162Y176054D01*
X578135Y176075D01*
X578009Y176134D01*
X577886Y176199D01*
X577853Y176207D01*
X577822Y176222D01*
X577686Y176250D01*
X577551Y176285D01*
X577506Y176288D01*
X577484Y176293D01*
X577450Y176292D01*
X577346Y176299D01*
X557967Y176299D01*
X552406Y181860D01*
X552297Y181947D01*
X552192Y182038D01*
X552162Y182054D01*
X552135Y182075D01*
X552009Y182134D01*
X551886Y182199D01*
X551853Y182207D01*
X551822Y182222D01*
X551686Y182250D01*
X551551Y182285D01*
X551506Y182288D01*
X551484Y182293D01*
X551450Y182292D01*
X551346Y182299D01*
X543588Y182299D01*
X542299Y183588D01*
X542299Y183800D01*
X542295Y183835D01*
X542298Y183871D01*
X542275Y184007D01*
X542259Y184143D01*
X542247Y184177D01*
X542242Y184212D01*
X542189Y184339D01*
X542142Y184469D01*
X542123Y184498D01*
X542109Y184531D01*
X542028Y184643D01*
X541953Y184758D01*
X541927Y184783D01*
X541907Y184811D01*
X541803Y184902D01*
X541703Y184997D01*
X541672Y185015D01*
X541646Y185038D01*
X541523Y185102D01*
X541405Y185172D01*
X541371Y185182D01*
X541339Y185199D01*
X541206Y185233D01*
X541074Y185274D01*
X541039Y185276D01*
X541005Y185285D01*
X540800Y185299D01*
X540200Y185299D01*
X540165Y185295D01*
X540129Y185298D01*
X539993Y185275D01*
X539857Y185259D01*
X539823Y185247D01*
X539788Y185242D01*
X539661Y185189D01*
X539531Y185142D01*
X539502Y185123D01*
X539469Y185109D01*
X539357Y185028D01*
X539242Y184953D01*
X539217Y184927D01*
X539189Y184907D01*
X539098Y184803D01*
X539003Y184703D01*
X538985Y184672D01*
X538962Y184646D01*
X538898Y184523D01*
X538828Y184405D01*
X538818Y184371D01*
X538801Y184339D01*
X538767Y184205D01*
X538726Y184074D01*
X538724Y184039D01*
X538715Y184005D01*
X538701Y183800D01*
X538701Y183588D01*
X537412Y182299D01*
X525588Y182299D01*
X524299Y183588D01*
X524299Y196412D01*
X525128Y197240D01*
X525192Y197322D01*
X525264Y197397D01*
X525299Y197457D01*
X525342Y197511D01*
X525387Y197605D01*
X525439Y197695D01*
X525460Y197761D01*
X525489Y197824D01*
X525511Y197926D01*
X525541Y198026D01*
X525546Y198095D01*
X525560Y198162D01*
X525558Y198266D01*
X525565Y198371D01*
X525554Y198439D01*
X525552Y198508D01*
X525526Y198609D01*
X525509Y198712D01*
X525483Y198776D01*
X525465Y198842D01*
X525416Y198935D01*
X525376Y199031D01*
X525336Y199087D01*
X525304Y199148D01*
X525235Y199227D01*
X525174Y199311D01*
X525122Y199357D01*
X525077Y199409D01*
X524992Y199470D01*
X524913Y199538D01*
X524852Y199570D01*
X524796Y199611D01*
X524700Y199650D01*
X524607Y199699D01*
X524540Y199716D01*
X524476Y199742D01*
X524373Y199759D01*
X524272Y199785D01*
X524168Y199792D01*
X524135Y199798D01*
X524112Y199796D01*
X524067Y199799D01*
X496361Y199799D01*
X496223Y199783D01*
X496083Y199773D01*
X496051Y199763D01*
X496018Y199759D01*
X495887Y199712D01*
X495753Y199671D01*
X495724Y199653D01*
X495692Y199642D01*
X495576Y199566D01*
X495456Y199495D01*
X495421Y199465D01*
X495403Y199453D01*
X495380Y199429D01*
X495301Y199360D01*
X481422Y185481D01*
X481335Y185372D01*
X481244Y185267D01*
X481228Y185237D01*
X481207Y185210D01*
X481148Y185084D01*
X481083Y184960D01*
X481075Y184928D01*
X481060Y184897D01*
X481032Y184761D01*
X480997Y184626D01*
X480994Y184581D01*
X480989Y184559D01*
X480990Y184525D01*
X480983Y184421D01*
X480983Y183810D01*
X480072Y181611D01*
X479862Y181401D01*
X479798Y181320D01*
X479726Y181244D01*
X479691Y181185D01*
X479648Y181130D01*
X479603Y181036D01*
X479551Y180946D01*
X479530Y180880D01*
X479501Y180817D01*
X479479Y180715D01*
X479448Y180616D01*
X479444Y180547D01*
X479430Y180479D01*
X479432Y180375D01*
X479425Y180271D01*
X479436Y180203D01*
X479438Y180133D01*
X479464Y180032D01*
X479481Y179930D01*
X479507Y179866D01*
X479525Y179799D01*
X479574Y179707D01*
X479613Y179610D01*
X479654Y179554D01*
X479686Y179493D01*
X479755Y179415D01*
X479816Y179330D01*
X479868Y179285D01*
X479913Y179233D01*
X479998Y179172D01*
X480077Y179103D01*
X480138Y179071D01*
X480194Y179031D01*
X480290Y178991D01*
X480383Y178942D01*
X480450Y178925D01*
X480514Y178899D01*
X480617Y178882D01*
X480718Y178856D01*
X480822Y178849D01*
X480855Y178844D01*
X480877Y178845D01*
X480922Y178842D01*
X482286Y178842D01*
X482373Y178852D01*
X482460Y178852D01*
X482544Y178872D01*
X482629Y178882D01*
X482711Y178912D01*
X482797Y178932D01*
X482873Y178970D01*
X482954Y178999D01*
X483028Y179047D01*
X483106Y179086D01*
X483172Y179141D01*
X483244Y179188D01*
X483304Y179252D01*
X483371Y179308D01*
X483423Y179376D01*
X483482Y179438D01*
X483527Y179514D01*
X483579Y179584D01*
X483644Y179713D01*
X483657Y179737D01*
X483661Y179748D01*
X483671Y179768D01*
X483928Y180389D01*
X485611Y182072D01*
X487810Y182983D01*
X490190Y182983D01*
X492389Y182072D01*
X494072Y180389D01*
X494983Y178190D01*
X494983Y175810D01*
X494072Y173611D01*
X492956Y172495D01*
X492859Y172373D01*
X492759Y172252D01*
X492752Y172237D01*
X492741Y172224D01*
X492675Y172082D01*
X492605Y171943D01*
X492602Y171926D01*
X492594Y171911D01*
X492562Y171758D01*
X492527Y171606D01*
X492527Y171589D01*
X492523Y171573D01*
X492527Y171416D01*
X492527Y171260D01*
X492531Y171244D01*
X492531Y171227D01*
X492571Y171076D01*
X492607Y170924D01*
X492614Y170909D01*
X492618Y170892D01*
X492691Y170755D01*
X492761Y170615D01*
X492772Y170602D01*
X492780Y170587D01*
X492882Y170469D01*
X492982Y170349D01*
X492996Y170339D01*
X493007Y170326D01*
X493134Y170235D01*
X493259Y170141D01*
X493278Y170131D01*
X493288Y170124D01*
X493314Y170114D01*
X493380Y170081D01*
X495072Y168389D01*
X495983Y166190D01*
X495983Y163810D01*
X495072Y161611D01*
X493389Y159928D01*
X491190Y159017D01*
X488810Y159017D01*
X486574Y159944D01*
X486570Y159947D01*
X486464Y160038D01*
X486434Y160054D01*
X486408Y160075D01*
X486282Y160134D01*
X486158Y160199D01*
X486126Y160207D01*
X486095Y160222D01*
X485959Y160250D01*
X485824Y160285D01*
X485778Y160288D01*
X485757Y160293D01*
X485723Y160292D01*
X485619Y160299D01*
X426524Y160299D01*
X426369Y160281D01*
X426214Y160267D01*
X426198Y160261D01*
X426181Y160259D01*
X426034Y160206D01*
X425886Y160157D01*
X425872Y160148D01*
X425856Y160142D01*
X425725Y160056D01*
X425592Y159974D01*
X425580Y159962D01*
X425566Y159953D01*
X425458Y159840D01*
X425348Y159730D01*
X425339Y159715D01*
X425328Y159703D01*
X425248Y159568D01*
X425166Y159435D01*
X425161Y159419D01*
X425153Y159405D01*
X425106Y159256D01*
X425057Y159107D01*
X425055Y159091D01*
X425050Y159074D01*
X425040Y158918D01*
X425026Y158763D01*
X425028Y158746D01*
X425027Y158729D01*
X425052Y158575D01*
X425074Y158421D01*
X425081Y158400D01*
X425083Y158388D01*
X425093Y158363D01*
X425139Y158226D01*
X425998Y156153D01*
X425999Y156148D01*
X426009Y156009D01*
X426019Y155976D01*
X426023Y155943D01*
X426070Y155812D01*
X426111Y155678D01*
X426129Y155649D01*
X426140Y155618D01*
X426216Y155501D01*
X426287Y155381D01*
X426317Y155347D01*
X426329Y155328D01*
X426353Y155305D01*
X426422Y155226D01*
X443985Y137663D01*
X444701Y135935D01*
X444701Y96065D01*
X443985Y94337D01*
X434422Y84774D01*
X434335Y84665D01*
X434244Y84559D01*
X434228Y84529D01*
X434207Y84503D01*
X434148Y84377D01*
X434083Y84253D01*
X434075Y84221D01*
X434060Y84190D01*
X434032Y84054D01*
X433997Y83919D01*
X433994Y83873D01*
X433989Y83852D01*
X433990Y83827D01*
X433072Y81611D01*
X431389Y79928D01*
X429190Y79017D01*
X426810Y79017D01*
X424611Y79928D01*
X423060Y81479D01*
X423032Y81501D01*
X423009Y81528D01*
X422897Y81608D01*
X422789Y81694D01*
X422757Y81709D01*
X422728Y81729D01*
X422601Y81782D01*
X422476Y81841D01*
X422441Y81848D01*
X422409Y81861D01*
X422272Y81883D01*
X422138Y81912D01*
X422102Y81911D01*
X422067Y81917D01*
X421930Y81907D01*
X421792Y81904D01*
X421758Y81895D01*
X421722Y81892D01*
X421591Y81851D01*
X421458Y81817D01*
X421426Y81800D01*
X421392Y81789D01*
X421274Y81719D01*
X421152Y81655D01*
X421125Y81632D01*
X421095Y81614D01*
X420940Y81479D01*
X419389Y79928D01*
X417190Y79017D01*
X414810Y79017D01*
X412611Y79928D01*
X410928Y81611D01*
X410017Y83810D01*
X410017Y86190D01*
X410928Y88389D01*
X412611Y90072D01*
X414847Y90998D01*
X414852Y90999D01*
X414991Y91009D01*
X415024Y91019D01*
X415057Y91023D01*
X415188Y91070D01*
X415322Y91111D01*
X415351Y91129D01*
X415382Y91140D01*
X415499Y91216D01*
X415619Y91287D01*
X415653Y91317D01*
X415672Y91329D01*
X415695Y91353D01*
X415774Y91422D01*
X425860Y101508D01*
X425947Y101617D01*
X426038Y101723D01*
X426054Y101753D01*
X426075Y101779D01*
X426134Y101905D01*
X426199Y102029D01*
X426207Y102061D01*
X426222Y102092D01*
X426250Y102228D01*
X426285Y102363D01*
X426288Y102409D01*
X426293Y102430D01*
X426292Y102464D01*
X426299Y102568D01*
X426299Y126432D01*
X426283Y126570D01*
X426273Y126709D01*
X426263Y126742D01*
X426259Y126775D01*
X426212Y126906D01*
X426171Y127040D01*
X426153Y127069D01*
X426142Y127100D01*
X426066Y127217D01*
X425995Y127337D01*
X425965Y127371D01*
X425953Y127390D01*
X425929Y127413D01*
X425860Y127492D01*
X395224Y158128D01*
X395210Y158139D01*
X395198Y158154D01*
X395074Y158247D01*
X394953Y158343D01*
X394936Y158350D01*
X394922Y158362D01*
X394738Y158453D01*
X393028Y159161D01*
X390721Y161468D01*
X389473Y164482D01*
X389473Y167745D01*
X390721Y170759D01*
X393028Y173066D01*
X396042Y174314D01*
X398580Y174314D01*
X398615Y174318D01*
X398651Y174316D01*
X398787Y174338D01*
X398923Y174354D01*
X398957Y174366D01*
X398992Y174372D01*
X399119Y174425D01*
X399249Y174471D01*
X399278Y174491D01*
X399311Y174504D01*
X399423Y174585D01*
X399538Y174660D01*
X399563Y174686D01*
X399591Y174707D01*
X399682Y174811D01*
X399777Y174910D01*
X399795Y174941D01*
X399818Y174968D01*
X399882Y175090D01*
X399952Y175209D01*
X399962Y175242D01*
X399979Y175274D01*
X400013Y175408D01*
X400054Y175539D01*
X400056Y175574D01*
X400065Y175609D01*
X400079Y175813D01*
X400079Y178351D01*
X401328Y181365D01*
X403635Y183672D01*
X406649Y184921D01*
X406701Y184921D01*
X406736Y184925D01*
X406772Y184922D01*
X406908Y184945D01*
X407045Y184961D01*
X407078Y184973D01*
X407113Y184978D01*
X407240Y185031D01*
X407370Y185078D01*
X407400Y185097D01*
X407432Y185111D01*
X407544Y185192D01*
X407660Y185267D01*
X407684Y185293D01*
X407713Y185313D01*
X407803Y185417D01*
X407898Y185517D01*
X407916Y185548D01*
X407939Y185574D01*
X408004Y185697D01*
X408073Y185815D01*
X408084Y185849D01*
X408100Y185881D01*
X408135Y186014D01*
X408175Y186146D01*
X408178Y186181D01*
X408187Y186215D01*
X408201Y186420D01*
X408201Y188238D01*
X417975Y198013D01*
X419798Y198013D01*
X429573Y188238D01*
X429573Y186415D01*
X424559Y181401D01*
X424494Y181320D01*
X424422Y181244D01*
X424387Y181185D01*
X424344Y181130D01*
X424300Y181036D01*
X424247Y180946D01*
X424227Y180880D01*
X424197Y180817D01*
X424176Y180715D01*
X424145Y180616D01*
X424140Y180547D01*
X424126Y180479D01*
X424129Y180375D01*
X424122Y180271D01*
X424133Y180203D01*
X424134Y180133D01*
X424161Y180032D01*
X424178Y179930D01*
X424204Y179866D01*
X424221Y179799D01*
X424270Y179707D01*
X424310Y179610D01*
X424351Y179554D01*
X424383Y179493D01*
X424451Y179415D01*
X424512Y179330D01*
X424565Y179285D01*
X424610Y179232D01*
X424695Y179172D01*
X424774Y179103D01*
X424835Y179071D01*
X424891Y179031D01*
X424987Y178991D01*
X425080Y178942D01*
X425147Y178925D01*
X425210Y178899D01*
X425313Y178882D01*
X425414Y178856D01*
X425518Y178849D01*
X425552Y178844D01*
X425574Y178845D01*
X425619Y178842D01*
X469078Y178842D01*
X469181Y178854D01*
X469286Y178857D01*
X469352Y178874D01*
X469421Y178882D01*
X469519Y178917D01*
X469620Y178944D01*
X469681Y178976D01*
X469746Y178999D01*
X469834Y179056D01*
X469926Y179105D01*
X469978Y179151D01*
X470036Y179188D01*
X470108Y179264D01*
X470186Y179332D01*
X470227Y179388D01*
X470274Y179438D01*
X470327Y179528D01*
X470388Y179613D01*
X470414Y179677D01*
X470449Y179737D01*
X470480Y179836D01*
X470520Y179933D01*
X470531Y180001D01*
X470552Y180067D01*
X470559Y180171D01*
X470575Y180274D01*
X470570Y180343D01*
X470575Y180412D01*
X470558Y180515D01*
X470551Y180619D01*
X470530Y180685D01*
X470519Y180753D01*
X470479Y180849D01*
X470448Y180949D01*
X470413Y181009D01*
X470387Y181072D01*
X470326Y181157D01*
X470272Y181247D01*
X470204Y181325D01*
X470184Y181353D01*
X470167Y181367D01*
X470138Y181401D01*
X469928Y181611D01*
X469017Y183810D01*
X469017Y186190D01*
X469928Y188389D01*
X471611Y190072D01*
X473810Y190983D01*
X474421Y190983D01*
X474559Y190999D01*
X474699Y191009D01*
X474731Y191019D01*
X474764Y191023D01*
X474895Y191070D01*
X475029Y191111D01*
X475058Y191129D01*
X475090Y191140D01*
X475206Y191216D01*
X475326Y191287D01*
X475361Y191317D01*
X475379Y191329D01*
X475402Y191353D01*
X475481Y191422D01*
X487499Y203440D01*
X487564Y203522D01*
X487636Y203597D01*
X487671Y203657D01*
X487714Y203711D01*
X487758Y203805D01*
X487811Y203895D01*
X487831Y203961D01*
X487861Y204024D01*
X487882Y204126D01*
X487913Y204226D01*
X487918Y204295D01*
X487932Y204362D01*
X487930Y204466D01*
X487937Y204571D01*
X487925Y204639D01*
X487924Y204708D01*
X487898Y204809D01*
X487881Y204912D01*
X487854Y204976D01*
X487837Y205042D01*
X487788Y205135D01*
X487748Y205231D01*
X487708Y205287D01*
X487675Y205348D01*
X487607Y205427D01*
X487546Y205511D01*
X487493Y205557D01*
X487448Y205609D01*
X487363Y205670D01*
X487285Y205738D01*
X487223Y205770D01*
X487167Y205811D01*
X487071Y205850D01*
X486979Y205899D01*
X486912Y205916D01*
X486848Y205943D01*
X486745Y205959D01*
X486644Y205985D01*
X486540Y205992D01*
X486506Y205998D01*
X486484Y205996D01*
X486439Y205999D01*
X25500Y205999D01*
X25465Y205995D01*
X25429Y205998D01*
X25293Y205975D01*
X25157Y205959D01*
X25123Y205947D01*
X25088Y205942D01*
X24961Y205889D01*
X24831Y205842D01*
X24802Y205823D01*
X24769Y205809D01*
X24657Y205728D01*
X24542Y205653D01*
X24517Y205627D01*
X24489Y205607D01*
X24398Y205503D01*
X24303Y205403D01*
X24285Y205372D01*
X24262Y205346D01*
X24198Y205223D01*
X24128Y205105D01*
X24118Y205071D01*
X24101Y205039D01*
X24067Y204906D01*
X24026Y204774D01*
X24024Y204739D01*
X24015Y204705D01*
X24001Y204500D01*
X24001Y183343D01*
X21657Y180999D01*
X18290Y180999D01*
X18273Y181013D01*
X18147Y181072D01*
X18023Y181137D01*
X17991Y181145D01*
X17960Y181160D01*
X17824Y181188D01*
X17689Y181223D01*
X17644Y181226D01*
X17622Y181231D01*
X17588Y181230D01*
X17484Y181237D01*
X5262Y181237D01*
X5227Y181233D01*
X5191Y181236D01*
X5055Y181213D01*
X4919Y181197D01*
X4885Y181185D01*
X4850Y181180D01*
X4723Y181127D01*
X4593Y181080D01*
X4564Y181061D01*
X4531Y181047D01*
X4419Y180966D01*
X4304Y180891D01*
X4279Y180865D01*
X4251Y180845D01*
X4160Y180741D01*
X4065Y180641D01*
X4047Y180610D01*
X4024Y180584D01*
X3960Y180461D01*
X3890Y180343D01*
X3880Y180309D01*
X3863Y180277D01*
X3829Y180144D01*
X3788Y180012D01*
X3786Y179977D01*
X3777Y179943D01*
X3763Y179738D01*
X3763Y139005D01*
X3775Y138901D01*
X3777Y138797D01*
X3795Y138730D01*
X3803Y138662D01*
X3838Y138563D01*
X3864Y138462D01*
X3897Y138401D01*
X3920Y138336D01*
X3977Y138249D01*
X4026Y138157D01*
X4071Y138105D01*
X4109Y138047D01*
X4184Y137975D01*
X4253Y137896D01*
X4309Y137856D01*
X4359Y137808D01*
X4449Y137755D01*
X4534Y137694D01*
X4598Y137668D01*
X4657Y137633D01*
X4757Y137602D01*
X4853Y137562D01*
X4922Y137551D01*
X4988Y137531D01*
X5092Y137524D01*
X5195Y137507D01*
X5264Y137512D01*
X5333Y137507D01*
X5435Y137524D01*
X5540Y137532D01*
X5606Y137552D01*
X5674Y137563D01*
X5770Y137603D01*
X5870Y137634D01*
X5929Y137670D01*
X5993Y137696D01*
X6077Y137757D01*
X6167Y137810D01*
X6246Y137879D01*
X6273Y137898D01*
X6288Y137915D01*
X6322Y137945D01*
X8017Y139640D01*
X12896Y144519D01*
X12983Y144628D01*
X13074Y144733D01*
X13090Y144763D01*
X13111Y144790D01*
X13170Y144916D01*
X13235Y145040D01*
X13243Y145072D01*
X13258Y145103D01*
X13286Y145239D01*
X13321Y145374D01*
X13324Y145419D01*
X13329Y145441D01*
X13328Y145475D01*
X13335Y145579D01*
X13335Y146190D01*
X14246Y148389D01*
X15929Y150072D01*
X18128Y150983D01*
X20508Y150983D01*
X22707Y150072D01*
X24390Y148389D01*
X25301Y146190D01*
X25301Y143810D01*
X24390Y141611D01*
X22707Y139928D01*
X20508Y139017D01*
X19897Y139017D01*
X19759Y139001D01*
X19619Y138991D01*
X19587Y138981D01*
X19554Y138977D01*
X19423Y138930D01*
X19289Y138889D01*
X19260Y138871D01*
X19228Y138860D01*
X19112Y138784D01*
X18992Y138713D01*
X18957Y138683D01*
X18939Y138671D01*
X18916Y138647D01*
X18837Y138578D01*
X13958Y133699D01*
X13871Y133590D01*
X13780Y133485D01*
X13764Y133455D01*
X13743Y133428D01*
X13684Y133302D01*
X13619Y133178D01*
X13611Y133146D01*
X13596Y133115D01*
X13568Y132979D01*
X13533Y132844D01*
X13530Y132799D01*
X13525Y132777D01*
X13526Y132743D01*
X13519Y132639D01*
X13519Y107200D01*
X13523Y107165D01*
X13520Y107129D01*
X13543Y106993D01*
X13559Y106857D01*
X13571Y106823D01*
X13576Y106788D01*
X13629Y106661D01*
X13676Y106531D01*
X13695Y106502D01*
X13709Y106469D01*
X13790Y106357D01*
X13865Y106242D01*
X13891Y106217D01*
X13911Y106189D01*
X14015Y106098D01*
X14115Y106003D01*
X14146Y105985D01*
X14172Y105962D01*
X14295Y105898D01*
X14413Y105828D01*
X14447Y105818D01*
X14479Y105801D01*
X14612Y105767D01*
X14744Y105726D01*
X14779Y105724D01*
X14813Y105715D01*
X15018Y105701D01*
X26412Y105701D01*
X27701Y104412D01*
X27701Y103861D01*
X27717Y103723D01*
X27727Y103583D01*
X27737Y103551D01*
X27741Y103518D01*
X27788Y103387D01*
X27829Y103253D01*
X27847Y103224D01*
X27858Y103192D01*
X27934Y103076D01*
X28005Y102956D01*
X28035Y102921D01*
X28047Y102903D01*
X28071Y102880D01*
X28140Y102801D01*
X39201Y91740D01*
X39201Y72361D01*
X39217Y72223D01*
X39227Y72084D01*
X39237Y72051D01*
X39241Y72018D01*
X39288Y71886D01*
X39329Y71753D01*
X39347Y71724D01*
X39358Y71692D01*
X39434Y71576D01*
X39505Y71456D01*
X39535Y71421D01*
X39547Y71403D01*
X39571Y71380D01*
X39640Y71301D01*
X40240Y70701D01*
X40322Y70636D01*
X40397Y70564D01*
X40457Y70529D01*
X40511Y70486D01*
X40605Y70442D01*
X40695Y70389D01*
X40761Y70369D01*
X40824Y70339D01*
X40926Y70318D01*
X41026Y70287D01*
X41095Y70282D01*
X41162Y70268D01*
X41266Y70270D01*
X41371Y70263D01*
X41439Y70275D01*
X41508Y70276D01*
X41609Y70302D01*
X41712Y70319D01*
X41775Y70346D01*
X41842Y70363D01*
X41935Y70412D01*
X42031Y70452D01*
X42087Y70492D01*
X42148Y70525D01*
X42227Y70593D01*
X42311Y70654D01*
X42357Y70706D01*
X42409Y70752D01*
X42470Y70837D01*
X42538Y70915D01*
X42570Y70977D01*
X42611Y71033D01*
X42650Y71129D01*
X42699Y71221D01*
X42716Y71288D01*
X42742Y71352D01*
X42759Y71455D01*
X42785Y71556D01*
X42792Y71660D01*
X42798Y71694D01*
X42796Y71716D01*
X42799Y71761D01*
X42799Y103912D01*
X44088Y105201D01*
X45300Y105201D01*
X45335Y105205D01*
X45371Y105202D01*
X45507Y105225D01*
X45643Y105241D01*
X45677Y105253D01*
X45712Y105258D01*
X45839Y105311D01*
X45969Y105358D01*
X45998Y105377D01*
X46031Y105391D01*
X46143Y105472D01*
X46258Y105547D01*
X46283Y105573D01*
X46311Y105593D01*
X46402Y105697D01*
X46497Y105797D01*
X46515Y105828D01*
X46538Y105854D01*
X46602Y105977D01*
X46672Y106095D01*
X46682Y106129D01*
X46699Y106161D01*
X46733Y106294D01*
X46774Y106426D01*
X46776Y106461D01*
X46785Y106495D01*
X46799Y106700D01*
X46799Y114250D01*
X47204Y115226D01*
X47246Y115377D01*
X47292Y115526D01*
X47294Y115543D01*
X47298Y115559D01*
X47305Y115714D01*
X47316Y115871D01*
X47313Y115887D01*
X47314Y115904D01*
X47285Y116058D01*
X47260Y116212D01*
X47254Y116227D01*
X47251Y116244D01*
X47187Y116387D01*
X47127Y116531D01*
X47118Y116545D01*
X47111Y116560D01*
X47017Y116685D01*
X46925Y116811D01*
X46912Y116823D01*
X46902Y116836D01*
X46782Y116936D01*
X46664Y117038D01*
X46649Y117046D01*
X46636Y117057D01*
X46497Y117126D01*
X46358Y117199D01*
X46342Y117203D01*
X46326Y117211D01*
X46175Y117246D01*
X46023Y117285D01*
X46001Y117287D01*
X45990Y117289D01*
X45962Y117289D01*
X45819Y117299D01*
X38588Y117299D01*
X37299Y118588D01*
X37299Y130412D01*
X38828Y131940D01*
X38850Y131968D01*
X38876Y131991D01*
X38957Y132103D01*
X39042Y132211D01*
X39057Y132243D01*
X39078Y132272D01*
X39131Y132399D01*
X39189Y132524D01*
X39196Y132559D01*
X39210Y132591D01*
X39232Y132728D01*
X39260Y132862D01*
X39260Y132898D01*
X39265Y132933D01*
X39255Y133070D01*
X39252Y133208D01*
X39243Y133242D01*
X39241Y133278D01*
X39200Y133409D01*
X39165Y133542D01*
X39149Y133574D01*
X39138Y133608D01*
X39068Y133726D01*
X39004Y133848D01*
X38980Y133875D01*
X38962Y133905D01*
X38828Y134060D01*
X37299Y135588D01*
X37299Y147412D01*
X38588Y148701D01*
X38800Y148701D01*
X38835Y148705D01*
X38871Y148702D01*
X39007Y148725D01*
X39143Y148741D01*
X39177Y148753D01*
X39212Y148758D01*
X39339Y148811D01*
X39469Y148858D01*
X39498Y148877D01*
X39531Y148891D01*
X39643Y148972D01*
X39758Y149047D01*
X39783Y149073D01*
X39811Y149093D01*
X39902Y149197D01*
X39997Y149297D01*
X40015Y149328D01*
X40038Y149354D01*
X40102Y149477D01*
X40172Y149595D01*
X40182Y149629D01*
X40199Y149661D01*
X40233Y149794D01*
X40274Y149926D01*
X40276Y149961D01*
X40285Y149995D01*
X40299Y150200D01*
X40299Y152935D01*
X40420Y153226D01*
X40463Y153376D01*
X40509Y153526D01*
X40510Y153543D01*
X40515Y153559D01*
X40522Y153715D01*
X40532Y153871D01*
X40530Y153887D01*
X40530Y153904D01*
X40502Y154057D01*
X40476Y154212D01*
X40470Y154227D01*
X40467Y154244D01*
X40404Y154387D01*
X40344Y154531D01*
X40334Y154545D01*
X40327Y154560D01*
X40233Y154685D01*
X40141Y154811D01*
X40129Y154823D01*
X40119Y154836D01*
X39999Y154935D01*
X39880Y155038D01*
X39865Y155046D01*
X39852Y155057D01*
X39713Y155126D01*
X39574Y155199D01*
X39558Y155203D01*
X39543Y155211D01*
X39391Y155246D01*
X39239Y155285D01*
X39218Y155287D01*
X39206Y155289D01*
X39178Y155289D01*
X39035Y155299D01*
X38588Y155299D01*
X37299Y156588D01*
X37299Y168412D01*
X38588Y169701D01*
X50932Y169701D01*
X51070Y169717D01*
X51209Y169727D01*
X51242Y169737D01*
X51275Y169741D01*
X51406Y169788D01*
X51540Y169829D01*
X51569Y169847D01*
X51600Y169858D01*
X51717Y169934D01*
X51837Y170005D01*
X51871Y170035D01*
X51890Y170047D01*
X51913Y170071D01*
X51992Y170140D01*
X54000Y172148D01*
X54012Y172163D01*
X54026Y172174D01*
X54119Y172298D01*
X54215Y172419D01*
X54223Y172436D01*
X54234Y172451D01*
X54311Y172606D01*
X58392Y176687D01*
X58399Y176689D01*
X58532Y176768D01*
X58668Y176843D01*
X58681Y176856D01*
X58697Y176865D01*
X58852Y177000D01*
X60360Y178508D01*
X60447Y178617D01*
X60538Y178723D01*
X60554Y178753D01*
X60575Y178779D01*
X60634Y178905D01*
X60699Y179029D01*
X60707Y179061D01*
X60722Y179092D01*
X60750Y179228D01*
X60785Y179363D01*
X60788Y179409D01*
X60793Y179430D01*
X60792Y179464D01*
X60799Y179568D01*
X60799Y185912D01*
X62088Y187201D01*
X73912Y187201D01*
X75201Y185912D01*
X75201Y179568D01*
X75217Y179430D01*
X75227Y179291D01*
X75237Y179258D01*
X75241Y179225D01*
X75288Y179094D01*
X75329Y178960D01*
X75347Y178931D01*
X75358Y178899D01*
X75434Y178783D01*
X75505Y178663D01*
X75535Y178628D01*
X75547Y178610D01*
X75571Y178587D01*
X75640Y178508D01*
X77148Y177000D01*
X77163Y176988D01*
X77174Y176974D01*
X77298Y176881D01*
X77419Y176785D01*
X77436Y176777D01*
X77451Y176766D01*
X77606Y176689D01*
X78155Y176140D01*
X78264Y176053D01*
X78369Y175962D01*
X78399Y175946D01*
X78426Y175925D01*
X78552Y175866D01*
X78675Y175801D01*
X78708Y175793D01*
X78739Y175778D01*
X78875Y175750D01*
X79010Y175715D01*
X79055Y175712D01*
X79077Y175707D01*
X79111Y175708D01*
X79215Y175701D01*
X79300Y175701D01*
X79335Y175705D01*
X79371Y175702D01*
X79507Y175725D01*
X79643Y175741D01*
X79677Y175753D01*
X79712Y175758D01*
X79839Y175811D01*
X79969Y175858D01*
X79998Y175877D01*
X80031Y175891D01*
X80143Y175972D01*
X80258Y176047D01*
X80283Y176073D01*
X80311Y176093D01*
X80402Y176197D01*
X80497Y176297D01*
X80515Y176328D01*
X80538Y176354D01*
X80602Y176476D01*
X80672Y176595D01*
X80682Y176629D01*
X80699Y176661D01*
X80733Y176794D01*
X80774Y176926D01*
X80776Y176961D01*
X80785Y176995D01*
X80799Y177200D01*
X80799Y184412D01*
X82088Y185701D01*
X89912Y185701D01*
X91458Y184154D01*
X91540Y184090D01*
X91615Y184018D01*
X91675Y183983D01*
X91729Y183940D01*
X91823Y183895D01*
X91913Y183843D01*
X91979Y183822D01*
X92042Y183793D01*
X92144Y183771D01*
X92244Y183741D01*
X92313Y183736D01*
X92380Y183722D01*
X92484Y183724D01*
X92589Y183717D01*
X92657Y183728D01*
X92726Y183730D01*
X92827Y183756D01*
X92930Y183773D01*
X92994Y183799D01*
X93060Y183817D01*
X93153Y183866D01*
X93249Y183906D01*
X93305Y183946D01*
X93366Y183978D01*
X93445Y184047D01*
X93529Y184108D01*
X93575Y184160D01*
X93627Y184205D01*
X93688Y184290D01*
X93756Y184369D01*
X93788Y184430D01*
X93829Y184486D01*
X93868Y184582D01*
X93917Y184675D01*
X93934Y184742D01*
X93960Y184806D01*
X93977Y184909D01*
X94003Y185010D01*
X94010Y185114D01*
X94016Y185147D01*
X94014Y185170D01*
X94017Y185215D01*
X94017Y186190D01*
X94928Y188389D01*
X96611Y190072D01*
X98810Y190983D01*
X99421Y190983D01*
X99559Y190999D01*
X99699Y191009D01*
X99731Y191019D01*
X99764Y191023D01*
X99895Y191070D01*
X100029Y191111D01*
X100058Y191129D01*
X100090Y191140D01*
X100206Y191216D01*
X100326Y191287D01*
X100361Y191317D01*
X100379Y191329D01*
X100402Y191353D01*
X100481Y191422D01*
X102440Y193381D01*
X131450Y193381D01*
X134349Y190481D01*
X134350Y190481D01*
X135191Y189640D01*
X135300Y189553D01*
X135405Y189462D01*
X135435Y189446D01*
X135462Y189425D01*
X135588Y189366D01*
X135711Y189301D01*
X135744Y189293D01*
X135775Y189278D01*
X135911Y189250D01*
X136046Y189215D01*
X136091Y189212D01*
X136113Y189207D01*
X136147Y189208D01*
X136251Y189201D01*
X145119Y189201D01*
X145257Y189217D01*
X145396Y189227D01*
X145429Y189237D01*
X145462Y189241D01*
X145593Y189288D01*
X145727Y189329D01*
X145756Y189347D01*
X145788Y189358D01*
X145905Y189434D01*
X146024Y189505D01*
X146058Y189535D01*
X146077Y189547D01*
X146100Y189571D01*
X146179Y189640D01*
X146611Y190072D01*
X148810Y190983D01*
X151190Y190983D01*
X153389Y190072D01*
X155072Y188389D01*
X155983Y186190D01*
X155983Y183810D01*
X155072Y181611D01*
X153389Y179928D01*
X151190Y179017D01*
X148810Y179017D01*
X146611Y179928D01*
X146179Y180360D01*
X146070Y180447D01*
X145964Y180538D01*
X145935Y180554D01*
X145908Y180575D01*
X145782Y180634D01*
X145658Y180699D01*
X145626Y180707D01*
X145595Y180722D01*
X145459Y180750D01*
X145324Y180785D01*
X145279Y180788D01*
X145257Y180793D01*
X145223Y180792D01*
X145119Y180799D01*
X133350Y180799D01*
X133315Y180795D01*
X133279Y180798D01*
X133143Y180775D01*
X133007Y180759D01*
X132973Y180747D01*
X132938Y180742D01*
X132811Y180689D01*
X132681Y180642D01*
X132652Y180623D01*
X132619Y180609D01*
X132507Y180528D01*
X132392Y180453D01*
X132367Y180427D01*
X132339Y180407D01*
X132248Y180303D01*
X132153Y180203D01*
X132135Y180172D01*
X132112Y180146D01*
X132048Y180023D01*
X131978Y179905D01*
X131968Y179871D01*
X131951Y179839D01*
X131917Y179706D01*
X131876Y179574D01*
X131874Y179539D01*
X131865Y179505D01*
X131851Y179300D01*
X131851Y176788D01*
X130562Y175499D01*
X121408Y175499D01*
X121363Y175538D01*
X121333Y175554D01*
X121307Y175575D01*
X121181Y175634D01*
X121057Y175699D01*
X121024Y175707D01*
X120994Y175722D01*
X120857Y175750D01*
X120722Y175785D01*
X120677Y175788D01*
X120655Y175793D01*
X120622Y175792D01*
X120517Y175799D01*
X118700Y175799D01*
X118665Y175795D01*
X118629Y175798D01*
X118493Y175775D01*
X118357Y175759D01*
X118323Y175747D01*
X118288Y175742D01*
X118161Y175689D01*
X118031Y175642D01*
X118002Y175623D01*
X117969Y175609D01*
X117857Y175528D01*
X117742Y175453D01*
X117717Y175427D01*
X117689Y175407D01*
X117598Y175303D01*
X117503Y175203D01*
X117485Y175172D01*
X117462Y175146D01*
X117398Y175023D01*
X117328Y174905D01*
X117318Y174871D01*
X117301Y174839D01*
X117267Y174706D01*
X117226Y174574D01*
X117224Y174539D01*
X117215Y174505D01*
X117201Y174300D01*
X117201Y167024D01*
X117193Y167007D01*
X117172Y166978D01*
X117120Y166851D01*
X117061Y166726D01*
X117054Y166691D01*
X117040Y166659D01*
X117018Y166523D01*
X116990Y166388D01*
X116990Y166352D01*
X116985Y166317D01*
X116995Y166180D01*
X116998Y166042D01*
X117007Y166008D01*
X117009Y165972D01*
X117050Y165841D01*
X117085Y165708D01*
X117101Y165676D01*
X117112Y165642D01*
X117182Y165523D01*
X117246Y165402D01*
X117270Y165375D01*
X117288Y165344D01*
X117319Y165309D01*
X117335Y165279D01*
X117358Y165214D01*
X117415Y165126D01*
X117464Y165034D01*
X117509Y164982D01*
X117547Y164924D01*
X117622Y164852D01*
X117691Y164774D01*
X117747Y164733D01*
X117797Y164686D01*
X117887Y164633D01*
X117972Y164572D01*
X118036Y164546D01*
X118095Y164511D01*
X118195Y164480D01*
X118291Y164440D01*
X118360Y164429D01*
X118426Y164409D01*
X118530Y164401D01*
X118633Y164385D01*
X118702Y164390D01*
X118771Y164385D01*
X118873Y164402D01*
X118978Y164409D01*
X119044Y164430D01*
X119112Y164441D01*
X119208Y164481D01*
X119308Y164512D01*
X119367Y164547D01*
X119431Y164574D01*
X119516Y164635D01*
X119605Y164688D01*
X119684Y164756D01*
X119711Y164776D01*
X119726Y164793D01*
X119760Y164822D01*
X121438Y166501D01*
X130562Y166501D01*
X131851Y165212D01*
X131851Y158200D01*
X131855Y158165D01*
X131852Y158129D01*
X131875Y157993D01*
X131891Y157857D01*
X131903Y157823D01*
X131908Y157788D01*
X131961Y157661D01*
X132008Y157531D01*
X132027Y157502D01*
X132041Y157469D01*
X132122Y157357D01*
X132197Y157242D01*
X132223Y157217D01*
X132243Y157189D01*
X132347Y157098D01*
X132447Y157003D01*
X132478Y156985D01*
X132504Y156962D01*
X132627Y156898D01*
X132745Y156828D01*
X132779Y156818D01*
X132811Y156801D01*
X132944Y156767D01*
X133076Y156726D01*
X133111Y156724D01*
X133145Y156715D01*
X133350Y156701D01*
X150032Y156701D01*
X150136Y156713D01*
X150240Y156715D01*
X150307Y156733D01*
X150375Y156741D01*
X150473Y156776D01*
X150574Y156802D01*
X150636Y156835D01*
X150701Y156858D01*
X150788Y156915D01*
X150880Y156964D01*
X150932Y157009D01*
X150990Y157047D01*
X151062Y157122D01*
X151141Y157191D01*
X151181Y157247D01*
X151229Y157297D01*
X151282Y157387D01*
X151342Y157472D01*
X151369Y157536D01*
X151404Y157595D01*
X151435Y157695D01*
X151474Y157791D01*
X151485Y157860D01*
X151506Y157926D01*
X151513Y158030D01*
X151530Y158133D01*
X151525Y158202D01*
X151530Y158271D01*
X151513Y158373D01*
X151505Y158478D01*
X151485Y158544D01*
X151474Y158612D01*
X151434Y158708D01*
X151402Y158808D01*
X151367Y158867D01*
X151341Y158931D01*
X151280Y159016D01*
X151227Y159105D01*
X151158Y159184D01*
X151139Y159211D01*
X151122Y159226D01*
X151092Y159260D01*
X150304Y160048D01*
X144792Y165560D01*
X144683Y165647D01*
X144577Y165738D01*
X144547Y165754D01*
X144521Y165775D01*
X144395Y165834D01*
X144271Y165899D01*
X144239Y165907D01*
X144208Y165922D01*
X144072Y165950D01*
X143937Y165985D01*
X143891Y165988D01*
X143870Y165993D01*
X143836Y165992D01*
X143732Y165999D01*
X141438Y165999D01*
X140149Y167288D01*
X140149Y174712D01*
X141438Y176001D01*
X150562Y176001D01*
X151851Y174712D01*
X151851Y172418D01*
X151867Y172280D01*
X151877Y172141D01*
X151887Y172108D01*
X151891Y172075D01*
X151938Y171944D01*
X151979Y171810D01*
X151997Y171781D01*
X152008Y171750D01*
X152084Y171633D01*
X152155Y171513D01*
X152185Y171479D01*
X152197Y171460D01*
X152221Y171437D01*
X152290Y171358D01*
X155208Y168440D01*
X155235Y168418D01*
X155259Y168391D01*
X155371Y168311D01*
X155479Y168226D01*
X155511Y168210D01*
X155540Y168190D01*
X155667Y168137D01*
X155792Y168079D01*
X155826Y168071D01*
X155859Y168058D01*
X155995Y168036D01*
X156130Y168007D01*
X156165Y168008D01*
X156200Y168003D01*
X156338Y168012D01*
X156476Y168016D01*
X156510Y168024D01*
X156545Y168027D01*
X156677Y168068D01*
X156810Y168103D01*
X156842Y168119D01*
X156875Y168130D01*
X156994Y168200D01*
X157116Y168264D01*
X157143Y168287D01*
X157173Y168305D01*
X157328Y168440D01*
X158588Y169701D01*
X171412Y169701D01*
X172701Y168412D01*
X172701Y158200D01*
X172705Y158165D01*
X172702Y158129D01*
X172725Y157993D01*
X172741Y157857D01*
X172753Y157823D01*
X172758Y157788D01*
X172811Y157661D01*
X172858Y157531D01*
X172877Y157502D01*
X172891Y157469D01*
X172972Y157357D01*
X173047Y157242D01*
X173073Y157217D01*
X173093Y157189D01*
X173197Y157098D01*
X173297Y157003D01*
X173328Y156985D01*
X173354Y156962D01*
X173477Y156898D01*
X173595Y156828D01*
X173629Y156818D01*
X173661Y156801D01*
X173794Y156767D01*
X173926Y156726D01*
X173961Y156724D01*
X173995Y156715D01*
X174200Y156701D01*
X178800Y156701D01*
X178835Y156705D01*
X178871Y156702D01*
X179007Y156725D01*
X179143Y156741D01*
X179177Y156753D01*
X179212Y156758D01*
X179339Y156811D01*
X179469Y156858D01*
X179498Y156877D01*
X179531Y156891D01*
X179643Y156972D01*
X179758Y157047D01*
X179783Y157073D01*
X179811Y157093D01*
X179902Y157197D01*
X179997Y157297D01*
X180015Y157328D01*
X180038Y157354D01*
X180102Y157477D01*
X180172Y157595D01*
X180182Y157629D01*
X180199Y157661D01*
X180233Y157794D01*
X180274Y157926D01*
X180276Y157961D01*
X180285Y157995D01*
X180299Y158200D01*
X180299Y168412D01*
X181588Y169701D01*
X194412Y169701D01*
X195701Y168412D01*
X195701Y166939D01*
X195719Y166784D01*
X195733Y166628D01*
X195739Y166612D01*
X195741Y166595D01*
X195794Y166448D01*
X195843Y166300D01*
X195852Y166286D01*
X195858Y166270D01*
X195943Y166139D01*
X196026Y166006D01*
X196038Y165994D01*
X196047Y165980D01*
X196160Y165873D01*
X196270Y165762D01*
X196285Y165753D01*
X196297Y165742D01*
X196432Y165663D01*
X196565Y165581D01*
X196581Y165575D01*
X196595Y165567D01*
X196744Y165521D01*
X196893Y165471D01*
X196909Y165470D01*
X196926Y165465D01*
X197082Y165454D01*
X197237Y165440D01*
X197254Y165442D01*
X197271Y165441D01*
X197425Y165466D01*
X197579Y165488D01*
X197600Y165495D01*
X197612Y165497D01*
X197637Y165508D01*
X197774Y165553D01*
X198810Y165983D01*
X201190Y165983D01*
X203389Y165072D01*
X205072Y163389D01*
X205983Y161190D01*
X205983Y158810D01*
X205072Y156611D01*
X203389Y154928D01*
X201190Y154017D01*
X198810Y154017D01*
X196574Y154944D01*
X196570Y154947D01*
X196464Y155038D01*
X196434Y155054D01*
X196408Y155075D01*
X196282Y155134D01*
X196158Y155199D01*
X196126Y155207D01*
X196095Y155222D01*
X195959Y155250D01*
X195824Y155285D01*
X195778Y155288D01*
X195757Y155293D01*
X195723Y155292D01*
X195619Y155299D01*
X193965Y155299D01*
X193810Y155281D01*
X193655Y155267D01*
X193639Y155261D01*
X193622Y155259D01*
X193475Y155206D01*
X193327Y155157D01*
X193313Y155148D01*
X193297Y155142D01*
X193165Y155056D01*
X193033Y154974D01*
X193021Y154962D01*
X193007Y154953D01*
X192899Y154840D01*
X192789Y154730D01*
X192780Y154715D01*
X192768Y154703D01*
X192689Y154568D01*
X192607Y154435D01*
X192602Y154419D01*
X192593Y154405D01*
X192547Y154255D01*
X192498Y154107D01*
X192496Y154091D01*
X192491Y154074D01*
X192480Y153917D01*
X192466Y153763D01*
X192469Y153746D01*
X192468Y153729D01*
X192493Y153575D01*
X192515Y153421D01*
X192522Y153400D01*
X192524Y153388D01*
X192534Y153363D01*
X192580Y153226D01*
X192701Y152935D01*
X192701Y151200D01*
X192705Y151165D01*
X192702Y151129D01*
X192725Y150993D01*
X192741Y150857D01*
X192753Y150823D01*
X192758Y150788D01*
X192811Y150661D01*
X192858Y150531D01*
X192877Y150502D01*
X192891Y150469D01*
X192972Y150357D01*
X193047Y150242D01*
X193073Y150217D01*
X193093Y150189D01*
X193197Y150098D01*
X193297Y150003D01*
X193328Y149985D01*
X193354Y149962D01*
X193477Y149898D01*
X193595Y149828D01*
X193629Y149818D01*
X193661Y149801D01*
X193794Y149767D01*
X193926Y149726D01*
X193961Y149724D01*
X193995Y149715D01*
X194200Y149701D01*
X194412Y149701D01*
X195739Y148374D01*
X195741Y148357D01*
X195753Y148323D01*
X195758Y148288D01*
X195811Y148161D01*
X195858Y148031D01*
X195877Y148002D01*
X195891Y147969D01*
X195972Y147857D01*
X196047Y147742D01*
X196073Y147717D01*
X196093Y147689D01*
X196197Y147598D01*
X196297Y147503D01*
X196328Y147485D01*
X196354Y147462D01*
X196477Y147398D01*
X196595Y147328D01*
X196629Y147318D01*
X196661Y147301D01*
X196794Y147267D01*
X196926Y147226D01*
X196961Y147224D01*
X196995Y147215D01*
X197200Y147201D01*
X199253Y147201D01*
X200981Y146485D01*
X202294Y145172D01*
X202403Y145085D01*
X202509Y144994D01*
X202539Y144978D01*
X202565Y144957D01*
X202691Y144898D01*
X202815Y144833D01*
X202847Y144825D01*
X202878Y144810D01*
X203014Y144782D01*
X203149Y144747D01*
X203195Y144744D01*
X203216Y144739D01*
X203250Y144740D01*
X203354Y144733D01*
X205356Y144733D01*
X208285Y143520D01*
X208311Y143499D01*
X208405Y143455D01*
X208495Y143402D01*
X208561Y143382D01*
X208624Y143352D01*
X208726Y143331D01*
X208826Y143300D01*
X208894Y143295D01*
X208962Y143281D01*
X209066Y143284D01*
X209171Y143276D01*
X209238Y143288D01*
X209307Y143289D01*
X209409Y143315D01*
X209512Y143332D01*
X209575Y143359D01*
X209642Y143376D01*
X209734Y143425D01*
X209831Y143465D01*
X209887Y143505D01*
X209948Y143538D01*
X210027Y143606D01*
X210111Y143667D01*
X210157Y143719D01*
X210209Y143765D01*
X210270Y143849D01*
X210338Y143928D01*
X210370Y143989D01*
X210410Y144045D01*
X210450Y144142D01*
X210499Y144235D01*
X210516Y144301D01*
X210542Y144365D01*
X210559Y144468D01*
X210585Y144569D01*
X210592Y144673D01*
X210598Y144706D01*
X210596Y144729D01*
X210599Y144774D01*
X210599Y173600D01*
X210581Y173755D01*
X210567Y173910D01*
X210561Y173927D01*
X210559Y173943D01*
X210506Y174090D01*
X210457Y174238D01*
X210448Y174253D01*
X210442Y174268D01*
X210357Y174399D01*
X210274Y174532D01*
X210262Y174544D01*
X210253Y174558D01*
X210140Y174666D01*
X210030Y174776D01*
X210015Y174785D01*
X210003Y174797D01*
X209869Y174876D01*
X209735Y174958D01*
X209719Y174963D01*
X209705Y174972D01*
X209556Y175018D01*
X209407Y175067D01*
X209391Y175069D01*
X209374Y175074D01*
X209218Y175085D01*
X209063Y175099D01*
X209046Y175096D01*
X209029Y175097D01*
X208875Y175072D01*
X208721Y175050D01*
X208700Y175043D01*
X208688Y175041D01*
X208663Y175031D01*
X208526Y174985D01*
X206190Y174017D01*
X203810Y174017D01*
X201611Y174928D01*
X199928Y176611D01*
X199017Y178810D01*
X199017Y181190D01*
X199928Y183389D01*
X201611Y185072D01*
X203810Y185983D01*
X204421Y185983D01*
X204559Y185999D01*
X204699Y186009D01*
X204731Y186019D01*
X204764Y186023D01*
X204895Y186070D01*
X205029Y186111D01*
X205058Y186129D01*
X205090Y186140D01*
X205206Y186216D01*
X205326Y186287D01*
X205361Y186317D01*
X205379Y186329D01*
X205402Y186353D01*
X205481Y186422D01*
X212440Y193381D01*
X246035Y193381D01*
X290451Y148965D01*
X290451Y119022D01*
X283331Y111902D01*
X283309Y111874D01*
X283282Y111851D01*
X283202Y111739D01*
X283116Y111631D01*
X283101Y111599D01*
X283080Y111570D01*
X283028Y111442D01*
X282969Y111318D01*
X282962Y111283D01*
X282948Y111250D01*
X282926Y111114D01*
X282898Y110979D01*
X282899Y110944D01*
X282893Y110909D01*
X282903Y110771D01*
X282906Y110634D01*
X282915Y110599D01*
X282918Y110564D01*
X282959Y110432D01*
X282993Y110299D01*
X283010Y110268D01*
X283020Y110234D01*
X283090Y110115D01*
X283155Y109993D01*
X283178Y109967D01*
X283196Y109936D01*
X283331Y109781D01*
X283701Y109412D01*
X283701Y96588D01*
X282412Y95299D01*
X270700Y95299D01*
X270665Y95295D01*
X270629Y95298D01*
X270493Y95275D01*
X270357Y95259D01*
X270323Y95247D01*
X270288Y95242D01*
X270161Y95189D01*
X270031Y95142D01*
X270002Y95123D01*
X269969Y95109D01*
X269857Y95028D01*
X269742Y94953D01*
X269717Y94927D01*
X269689Y94907D01*
X269598Y94803D01*
X269503Y94703D01*
X269485Y94672D01*
X269462Y94646D01*
X269398Y94523D01*
X269328Y94405D01*
X269318Y94371D01*
X269301Y94339D01*
X269267Y94206D01*
X269226Y94074D01*
X269224Y94039D01*
X269215Y94005D01*
X269201Y93800D01*
X269201Y86200D01*
X269205Y86165D01*
X269202Y86129D01*
X269225Y85993D01*
X269241Y85857D01*
X269253Y85823D01*
X269258Y85788D01*
X269311Y85661D01*
X269358Y85531D01*
X269377Y85502D01*
X269391Y85469D01*
X269472Y85357D01*
X269547Y85242D01*
X269573Y85217D01*
X269593Y85189D01*
X269697Y85098D01*
X269797Y85003D01*
X269828Y84985D01*
X269854Y84962D01*
X269977Y84898D01*
X270095Y84828D01*
X270129Y84818D01*
X270161Y84801D01*
X270294Y84767D01*
X270426Y84726D01*
X270461Y84724D01*
X270495Y84715D01*
X270700Y84701D01*
X282412Y84701D01*
X283701Y83412D01*
X283701Y70588D01*
X282412Y69299D01*
X274801Y69299D01*
X274662Y69283D01*
X274523Y69273D01*
X274491Y69263D01*
X274457Y69259D01*
X274326Y69212D01*
X274193Y69171D01*
X274164Y69153D01*
X274132Y69142D01*
X274015Y69066D01*
X273895Y68995D01*
X273861Y68965D01*
X273842Y68953D01*
X273819Y68929D01*
X273741Y68860D01*
X267980Y63099D01*
X232482Y63099D01*
X232447Y63095D01*
X232411Y63098D01*
X232275Y63075D01*
X232139Y63059D01*
X232105Y63047D01*
X232070Y63042D01*
X231943Y62989D01*
X231813Y62942D01*
X231784Y62923D01*
X231751Y62909D01*
X231639Y62828D01*
X231524Y62753D01*
X231499Y62727D01*
X231471Y62707D01*
X231380Y62603D01*
X231285Y62503D01*
X231267Y62472D01*
X231244Y62446D01*
X231180Y62323D01*
X231110Y62205D01*
X231100Y62171D01*
X231083Y62139D01*
X231049Y62006D01*
X231008Y61874D01*
X231008Y61870D01*
X230072Y59611D01*
X228389Y57928D01*
X226307Y57066D01*
X226170Y56990D01*
X226032Y56917D01*
X226019Y56906D01*
X226005Y56897D01*
X225889Y56792D01*
X225772Y56690D01*
X225762Y56676D01*
X225749Y56664D01*
X225661Y56535D01*
X225570Y56409D01*
X225564Y56393D01*
X225554Y56379D01*
X225498Y56233D01*
X225438Y56089D01*
X225435Y56072D01*
X225429Y56057D01*
X225408Y55902D01*
X225383Y55748D01*
X225384Y55731D01*
X225382Y55714D01*
X225396Y55559D01*
X225407Y55403D01*
X225412Y55387D01*
X225414Y55370D01*
X225464Y55222D01*
X225510Y55073D01*
X225518Y55058D01*
X225524Y55042D01*
X225606Y54909D01*
X225686Y54775D01*
X225700Y54759D01*
X225706Y54748D01*
X225726Y54729D01*
X225820Y54620D01*
X226301Y54140D01*
X226410Y54053D01*
X226515Y53962D01*
X226545Y53946D01*
X226572Y53925D01*
X226698Y53866D01*
X226822Y53801D01*
X226854Y53793D01*
X226885Y53778D01*
X227021Y53750D01*
X227156Y53715D01*
X227201Y53712D01*
X227223Y53707D01*
X227257Y53708D01*
X227361Y53701D01*
X234412Y53701D01*
X235701Y52412D01*
X235701Y52200D01*
X235705Y52165D01*
X235702Y52129D01*
X235725Y51993D01*
X235741Y51857D01*
X235753Y51823D01*
X235758Y51788D01*
X235811Y51661D01*
X235858Y51531D01*
X235877Y51502D01*
X235891Y51469D01*
X235972Y51357D01*
X236047Y51242D01*
X236073Y51217D01*
X236093Y51189D01*
X236197Y51098D01*
X236297Y51003D01*
X236328Y50985D01*
X236354Y50962D01*
X236477Y50898D01*
X236595Y50828D01*
X236629Y50818D01*
X236661Y50801D01*
X236794Y50767D01*
X236926Y50726D01*
X236961Y50724D01*
X236995Y50715D01*
X237200Y50701D01*
X242967Y50701D01*
X243106Y50717D01*
X243245Y50727D01*
X243277Y50737D01*
X243311Y50741D01*
X243442Y50788D01*
X243575Y50829D01*
X243604Y50847D01*
X243636Y50858D01*
X243753Y50934D01*
X243873Y51005D01*
X243907Y51035D01*
X243926Y51047D01*
X243949Y51071D01*
X244028Y51140D01*
X245588Y52701D01*
X257412Y52701D01*
X258701Y51412D01*
X258701Y38588D01*
X257412Y37299D01*
X245588Y37299D01*
X244299Y38588D01*
X244299Y39800D01*
X244295Y39835D01*
X244298Y39871D01*
X244275Y40007D01*
X244259Y40143D01*
X244247Y40177D01*
X244242Y40212D01*
X244189Y40339D01*
X244142Y40469D01*
X244123Y40498D01*
X244109Y40531D01*
X244028Y40643D01*
X243953Y40758D01*
X243927Y40783D01*
X243907Y40811D01*
X243803Y40902D01*
X243703Y40997D01*
X243672Y41015D01*
X243646Y41038D01*
X243523Y41102D01*
X243405Y41172D01*
X243371Y41182D01*
X243339Y41199D01*
X243206Y41233D01*
X243074Y41274D01*
X243039Y41276D01*
X243005Y41285D01*
X242800Y41299D01*
X237200Y41299D01*
X237165Y41295D01*
X237129Y41298D01*
X236993Y41275D01*
X236857Y41259D01*
X236823Y41247D01*
X236788Y41242D01*
X236661Y41189D01*
X236531Y41142D01*
X236502Y41123D01*
X236469Y41109D01*
X236357Y41028D01*
X236242Y40953D01*
X236217Y40927D01*
X236189Y40907D01*
X236098Y40803D01*
X236003Y40703D01*
X235985Y40672D01*
X235962Y40646D01*
X235898Y40523D01*
X235828Y40405D01*
X235818Y40371D01*
X235801Y40339D01*
X235767Y40206D01*
X235726Y40074D01*
X235724Y40039D01*
X235715Y40005D01*
X235701Y39800D01*
X235701Y39588D01*
X234412Y38299D01*
X229602Y38299D01*
X229498Y38287D01*
X229394Y38285D01*
X229327Y38267D01*
X229258Y38259D01*
X229160Y38224D01*
X229059Y38198D01*
X228998Y38165D01*
X228933Y38142D01*
X228845Y38085D01*
X228753Y38036D01*
X228701Y37991D01*
X228643Y37953D01*
X228571Y37878D01*
X228493Y37809D01*
X228452Y37753D01*
X228405Y37703D01*
X228352Y37613D01*
X228291Y37528D01*
X228265Y37464D01*
X228230Y37405D01*
X228199Y37305D01*
X228159Y37209D01*
X228148Y37140D01*
X228128Y37074D01*
X228121Y36970D01*
X228104Y36867D01*
X228109Y36798D01*
X228104Y36729D01*
X228121Y36627D01*
X228128Y36522D01*
X228149Y36456D01*
X228160Y36388D01*
X228200Y36292D01*
X228231Y36192D01*
X228266Y36133D01*
X228293Y36069D01*
X228354Y35984D01*
X228407Y35895D01*
X228475Y35816D01*
X228495Y35789D01*
X228512Y35774D01*
X228541Y35740D01*
X232701Y31581D01*
X232701Y29200D01*
X232705Y29165D01*
X232702Y29129D01*
X232725Y28993D01*
X232741Y28857D01*
X232753Y28823D01*
X232758Y28788D01*
X232811Y28661D01*
X232858Y28531D01*
X232877Y28502D01*
X232891Y28469D01*
X232972Y28357D01*
X233047Y28242D01*
X233073Y28217D01*
X233093Y28189D01*
X233197Y28098D01*
X233297Y28003D01*
X233328Y27985D01*
X233354Y27962D01*
X233477Y27898D01*
X233595Y27828D01*
X233629Y27818D01*
X233661Y27801D01*
X233794Y27767D01*
X233926Y27726D01*
X233961Y27724D01*
X233995Y27715D01*
X234200Y27701D01*
X234412Y27701D01*
X235701Y26412D01*
X235701Y26200D01*
X235705Y26165D01*
X235702Y26129D01*
X235725Y25993D01*
X235741Y25857D01*
X235753Y25823D01*
X235758Y25788D01*
X235811Y25661D01*
X235858Y25531D01*
X235877Y25502D01*
X235891Y25469D01*
X235972Y25357D01*
X236047Y25242D01*
X236073Y25217D01*
X236093Y25189D01*
X236197Y25098D01*
X236297Y25003D01*
X236328Y24985D01*
X236354Y24962D01*
X236477Y24898D01*
X236595Y24828D01*
X236629Y24818D01*
X236661Y24801D01*
X236794Y24767D01*
X236926Y24726D01*
X236961Y24724D01*
X236995Y24715D01*
X237200Y24701D01*
X242800Y24701D01*
X242835Y24705D01*
X242871Y24702D01*
X243007Y24725D01*
X243143Y24741D01*
X243177Y24753D01*
X243212Y24758D01*
X243339Y24811D01*
X243469Y24858D01*
X243498Y24877D01*
X243531Y24891D01*
X243643Y24972D01*
X243758Y25047D01*
X243783Y25073D01*
X243811Y25093D01*
X243902Y25197D01*
X243997Y25297D01*
X244015Y25328D01*
X244038Y25354D01*
X244102Y25477D01*
X244172Y25595D01*
X244182Y25629D01*
X244199Y25661D01*
X244233Y25794D01*
X244274Y25926D01*
X244276Y25961D01*
X244285Y25995D01*
X244299Y26200D01*
X244299Y26412D01*
X245588Y27701D01*
X257412Y27701D01*
X258701Y26412D01*
X258701Y13588D01*
X257412Y12299D01*
X245588Y12299D01*
X244299Y13588D01*
X244299Y13800D01*
X244295Y13835D01*
X244298Y13871D01*
X244275Y14007D01*
X244259Y14143D01*
X244247Y14177D01*
X244242Y14212D01*
X244189Y14339D01*
X244142Y14469D01*
X244123Y14498D01*
X244109Y14531D01*
X244028Y14643D01*
X243953Y14758D01*
X243927Y14783D01*
X243907Y14811D01*
X243803Y14902D01*
X243703Y14997D01*
X243672Y15015D01*
X243646Y15038D01*
X243523Y15102D01*
X243405Y15172D01*
X243371Y15182D01*
X243339Y15199D01*
X243206Y15233D01*
X243074Y15274D01*
X243039Y15276D01*
X243005Y15285D01*
X242800Y15299D01*
X237200Y15299D01*
X237165Y15295D01*
X237129Y15298D01*
X236993Y15275D01*
X236857Y15259D01*
X236823Y15247D01*
X236788Y15242D01*
X236661Y15189D01*
X236531Y15142D01*
X236502Y15123D01*
X236469Y15109D01*
X236357Y15028D01*
X236242Y14953D01*
X236217Y14927D01*
X236189Y14907D01*
X236098Y14803D01*
X236003Y14703D01*
X235985Y14672D01*
X235962Y14646D01*
X235898Y14523D01*
X235828Y14405D01*
X235818Y14371D01*
X235801Y14339D01*
X235767Y14206D01*
X235726Y14074D01*
X235724Y14039D01*
X235715Y14005D01*
X235701Y13800D01*
X235701Y13588D01*
X234412Y12299D01*
X222588Y12299D01*
X221060Y13828D01*
X221032Y13850D01*
X221009Y13876D01*
X220897Y13957D01*
X220789Y14042D01*
X220757Y14057D01*
X220728Y14078D01*
X220601Y14131D01*
X220476Y14189D01*
X220441Y14196D01*
X220409Y14210D01*
X220272Y14232D01*
X220138Y14260D01*
X220102Y14260D01*
X220067Y14265D01*
X219930Y14255D01*
X219792Y14252D01*
X219758Y14243D01*
X219722Y14241D01*
X219591Y14200D01*
X219458Y14165D01*
X219426Y14149D01*
X219392Y14138D01*
X219274Y14068D01*
X219152Y14004D01*
X219125Y13980D01*
X219095Y13962D01*
X218940Y13828D01*
X217412Y12299D01*
X205588Y12299D01*
X204299Y13588D01*
X204299Y19932D01*
X204283Y20070D01*
X204273Y20209D01*
X204263Y20242D01*
X204259Y20275D01*
X204212Y20406D01*
X204171Y20540D01*
X204153Y20569D01*
X204142Y20600D01*
X204066Y20717D01*
X203995Y20837D01*
X203965Y20871D01*
X203953Y20890D01*
X203929Y20913D01*
X203860Y20992D01*
X200992Y23860D01*
X200883Y23947D01*
X200777Y24038D01*
X200747Y24054D01*
X200721Y24075D01*
X200595Y24134D01*
X200471Y24199D01*
X200439Y24207D01*
X200408Y24222D01*
X200272Y24250D01*
X200137Y24285D01*
X200091Y24288D01*
X200070Y24293D01*
X200036Y24292D01*
X199932Y24299D01*
X198381Y24299D01*
X198243Y24283D01*
X198104Y24273D01*
X198071Y24263D01*
X198038Y24259D01*
X197907Y24212D01*
X197773Y24171D01*
X197744Y24153D01*
X197713Y24142D01*
X197596Y24066D01*
X197476Y23995D01*
X197442Y23965D01*
X197423Y23953D01*
X197406Y23935D01*
X195190Y23017D01*
X192810Y23017D01*
X190611Y23928D01*
X188928Y25611D01*
X188017Y27810D01*
X188017Y30190D01*
X188928Y32389D01*
X190611Y34072D01*
X190722Y34118D01*
X190756Y34137D01*
X190773Y34143D01*
X190810Y34167D01*
X190859Y34194D01*
X190996Y34267D01*
X191009Y34278D01*
X191024Y34286D01*
X191139Y34391D01*
X191257Y34494D01*
X191267Y34508D01*
X191279Y34519D01*
X191367Y34648D01*
X191458Y34775D01*
X191465Y34790D01*
X191474Y34804D01*
X191530Y34949D01*
X191590Y35094D01*
X191593Y35111D01*
X191599Y35127D01*
X191621Y35281D01*
X191646Y35435D01*
X191644Y35452D01*
X191647Y35469D01*
X191632Y35624D01*
X191621Y35780D01*
X191616Y35796D01*
X191615Y35813D01*
X191565Y35961D01*
X191518Y36110D01*
X191510Y36125D01*
X191505Y36141D01*
X191422Y36274D01*
X191343Y36408D01*
X191329Y36425D01*
X191322Y36435D01*
X191303Y36454D01*
X191208Y36563D01*
X190717Y37054D01*
X187817Y39954D01*
X187817Y40247D01*
X187811Y40299D01*
X187814Y40351D01*
X187791Y40469D01*
X187777Y40590D01*
X187760Y40639D01*
X187750Y40691D01*
X187701Y40801D01*
X187660Y40915D01*
X187631Y40959D01*
X187610Y41007D01*
X187537Y41103D01*
X187471Y41205D01*
X187433Y41241D01*
X187402Y41283D01*
X187309Y41360D01*
X187221Y41443D01*
X187176Y41470D01*
X187136Y41503D01*
X187027Y41557D01*
X186923Y41618D01*
X186873Y41634D01*
X186826Y41657D01*
X186708Y41685D01*
X186592Y41720D01*
X186540Y41724D01*
X186489Y41736D01*
X186368Y41736D01*
X186247Y41744D01*
X186196Y41736D01*
X186144Y41736D01*
X186026Y41708D01*
X185906Y41688D01*
X185858Y41668D01*
X185807Y41656D01*
X185699Y41602D01*
X185587Y41555D01*
X185545Y41525D01*
X185498Y41502D01*
X185405Y41424D01*
X185307Y41353D01*
X185272Y41314D01*
X185232Y41280D01*
X185159Y41184D01*
X185080Y41092D01*
X185056Y41046D01*
X185024Y41004D01*
X184933Y40820D01*
X184279Y39241D01*
X181972Y36934D01*
X178958Y35686D01*
X176420Y35686D01*
X176385Y35682D01*
X176349Y35684D01*
X176213Y35662D01*
X176077Y35646D01*
X176043Y35634D01*
X176008Y35628D01*
X175881Y35575D01*
X175751Y35529D01*
X175722Y35509D01*
X175689Y35496D01*
X175577Y35415D01*
X175462Y35340D01*
X175437Y35314D01*
X175409Y35293D01*
X175318Y35189D01*
X175223Y35090D01*
X175205Y35059D01*
X175182Y35032D01*
X175118Y34910D01*
X175048Y34791D01*
X175038Y34757D01*
X175021Y34726D01*
X174987Y34592D01*
X174946Y34461D01*
X174944Y34426D01*
X174935Y34391D01*
X174921Y34187D01*
X174921Y31649D01*
X173672Y28635D01*
X171365Y26328D01*
X168351Y25079D01*
X168299Y25079D01*
X168263Y25075D01*
X168228Y25078D01*
X168092Y25055D01*
X167955Y25039D01*
X167922Y25027D01*
X167887Y25022D01*
X167760Y24969D01*
X167630Y24922D01*
X167600Y24903D01*
X167568Y24889D01*
X167456Y24808D01*
X167340Y24733D01*
X167316Y24707D01*
X167287Y24687D01*
X167197Y24583D01*
X167102Y24483D01*
X167084Y24452D01*
X167061Y24426D01*
X166996Y24303D01*
X166927Y24185D01*
X166916Y24151D01*
X166900Y24119D01*
X166865Y23986D01*
X166825Y23854D01*
X166822Y23819D01*
X166813Y23785D01*
X166799Y23580D01*
X166799Y21762D01*
X157025Y11987D01*
X155202Y11987D01*
X154175Y13014D01*
X154107Y13068D01*
X154045Y13130D01*
X153972Y13175D01*
X153904Y13229D01*
X153825Y13266D01*
X153750Y13312D01*
X153669Y13339D01*
X153591Y13375D01*
X153506Y13393D01*
X153423Y13421D01*
X153337Y13429D01*
X153253Y13447D01*
X153165Y13445D01*
X153078Y13453D01*
X152993Y13441D01*
X152907Y13439D01*
X152822Y13416D01*
X152736Y13404D01*
X152599Y13358D01*
X152573Y13351D01*
X152562Y13346D01*
X152541Y13339D01*
X152325Y13249D01*
X119033Y13249D01*
X118894Y13233D01*
X118755Y13223D01*
X118723Y13213D01*
X118689Y13209D01*
X118558Y13162D01*
X118425Y13121D01*
X118396Y13103D01*
X118364Y13092D01*
X118247Y13016D01*
X118127Y12945D01*
X118093Y12915D01*
X118074Y12903D01*
X118051Y12879D01*
X117972Y12810D01*
X117912Y12749D01*
X94088Y12749D01*
X92799Y14038D01*
X92799Y21862D01*
X94178Y23240D01*
X94200Y23268D01*
X94226Y23291D01*
X94307Y23403D01*
X94392Y23511D01*
X94407Y23543D01*
X94428Y23572D01*
X94481Y23699D01*
X94539Y23824D01*
X94546Y23859D01*
X94560Y23891D01*
X94582Y24028D01*
X94610Y24162D01*
X94610Y24198D01*
X94615Y24233D01*
X94605Y24370D01*
X94602Y24508D01*
X94593Y24542D01*
X94591Y24578D01*
X94550Y24709D01*
X94515Y24842D01*
X94499Y24874D01*
X94488Y24908D01*
X94418Y25027D01*
X94354Y25148D01*
X94330Y25175D01*
X94312Y25205D01*
X94178Y25360D01*
X92799Y26738D01*
X92799Y34300D01*
X92795Y34335D01*
X92798Y34371D01*
X92775Y34507D01*
X92759Y34643D01*
X92747Y34677D01*
X92742Y34712D01*
X92689Y34839D01*
X92642Y34969D01*
X92623Y34998D01*
X92609Y35031D01*
X92528Y35143D01*
X92453Y35258D01*
X92427Y35283D01*
X92407Y35311D01*
X92303Y35402D01*
X92203Y35497D01*
X92172Y35515D01*
X92146Y35538D01*
X92023Y35602D01*
X91905Y35672D01*
X91871Y35682D01*
X91839Y35699D01*
X91706Y35733D01*
X91574Y35774D01*
X91539Y35776D01*
X91505Y35785D01*
X91300Y35799D01*
X75700Y35799D01*
X75665Y35795D01*
X75629Y35798D01*
X75493Y35775D01*
X75357Y35759D01*
X75323Y35747D01*
X75288Y35742D01*
X75161Y35689D01*
X75031Y35642D01*
X75002Y35623D01*
X74969Y35609D01*
X74857Y35528D01*
X74742Y35453D01*
X74717Y35427D01*
X74689Y35407D01*
X74598Y35303D01*
X74503Y35203D01*
X74485Y35172D01*
X74462Y35146D01*
X74398Y35023D01*
X74328Y34905D01*
X74318Y34871D01*
X74301Y34839D01*
X74267Y34706D01*
X74226Y34574D01*
X74224Y34539D01*
X74215Y34505D01*
X74201Y34300D01*
X74201Y18260D01*
X69690Y13749D01*
X67533Y13749D01*
X67394Y13733D01*
X67255Y13723D01*
X67223Y13713D01*
X67189Y13709D01*
X67058Y13662D01*
X66925Y13621D01*
X66896Y13603D01*
X66864Y13592D01*
X66747Y13516D01*
X66627Y13445D01*
X66593Y13415D01*
X66574Y13403D01*
X66551Y13379D01*
X66472Y13310D01*
X65912Y12749D01*
X42088Y12749D01*
X40799Y14038D01*
X40799Y21862D01*
X42178Y23240D01*
X42200Y23268D01*
X42226Y23291D01*
X42307Y23403D01*
X42392Y23511D01*
X42407Y23543D01*
X42428Y23572D01*
X42481Y23699D01*
X42539Y23824D01*
X42546Y23859D01*
X42560Y23891D01*
X42582Y24028D01*
X42610Y24162D01*
X42610Y24198D01*
X42615Y24233D01*
X42605Y24370D01*
X42602Y24508D01*
X42593Y24542D01*
X42591Y24578D01*
X42550Y24709D01*
X42515Y24842D01*
X42499Y24874D01*
X42488Y24908D01*
X42418Y25026D01*
X42354Y25148D01*
X42330Y25175D01*
X42312Y25205D01*
X42178Y25360D01*
X40799Y26738D01*
X40799Y28635D01*
X40783Y28773D01*
X40773Y28913D01*
X40763Y28945D01*
X40759Y28979D01*
X40712Y29109D01*
X40671Y29243D01*
X40653Y29272D01*
X40642Y29304D01*
X40566Y29420D01*
X40495Y29541D01*
X40465Y29575D01*
X40453Y29593D01*
X40429Y29617D01*
X40360Y29695D01*
X34315Y35740D01*
X34053Y36374D01*
X34010Y36450D01*
X33976Y36531D01*
X33926Y36601D01*
X33884Y36676D01*
X33825Y36740D01*
X33774Y36811D01*
X33709Y36868D01*
X33651Y36931D01*
X33579Y36981D01*
X33513Y37038D01*
X33437Y37078D01*
X33366Y37127D01*
X33285Y37158D01*
X33207Y37199D01*
X33124Y37220D01*
X33044Y37251D01*
X32957Y37263D01*
X32872Y37285D01*
X32729Y37295D01*
X32701Y37299D01*
X32689Y37298D01*
X32667Y37299D01*
X29200Y37299D01*
X29165Y37295D01*
X29129Y37298D01*
X28993Y37275D01*
X28857Y37259D01*
X28823Y37247D01*
X28788Y37242D01*
X28661Y37189D01*
X28531Y37142D01*
X28502Y37123D01*
X28469Y37109D01*
X28357Y37028D01*
X28242Y36953D01*
X28217Y36927D01*
X28189Y36907D01*
X28098Y36803D01*
X28003Y36703D01*
X27985Y36672D01*
X27962Y36646D01*
X27898Y36523D01*
X27828Y36405D01*
X27818Y36371D01*
X27801Y36339D01*
X27767Y36206D01*
X27726Y36074D01*
X27724Y36039D01*
X27715Y36005D01*
X27701Y35800D01*
X27701Y35588D01*
X26412Y34299D01*
X13588Y34299D01*
X12299Y35588D01*
X12299Y47412D01*
X13828Y48940D01*
X13850Y48968D01*
X13876Y48991D01*
X13957Y49103D01*
X14042Y49211D01*
X14057Y49243D01*
X14078Y49272D01*
X14131Y49399D01*
X14189Y49524D01*
X14196Y49559D01*
X14210Y49591D01*
X14232Y49728D01*
X14260Y49862D01*
X14260Y49898D01*
X14265Y49933D01*
X14255Y50070D01*
X14252Y50208D01*
X14243Y50242D01*
X14241Y50278D01*
X14200Y50409D01*
X14165Y50542D01*
X14149Y50574D01*
X14138Y50608D01*
X14068Y50726D01*
X14004Y50848D01*
X13980Y50875D01*
X13962Y50905D01*
X13828Y51060D01*
X12299Y52588D01*
X12299Y64412D01*
X13775Y65888D01*
X13861Y65943D01*
X13994Y66026D01*
X14006Y66038D01*
X14020Y66047D01*
X14127Y66160D01*
X14238Y66270D01*
X14247Y66285D01*
X14258Y66297D01*
X14337Y66432D01*
X14419Y66565D01*
X14425Y66581D01*
X14433Y66595D01*
X14479Y66744D01*
X14529Y66893D01*
X14530Y66909D01*
X14535Y66926D01*
X14546Y67082D01*
X14560Y67237D01*
X14558Y67254D01*
X14559Y67271D01*
X14534Y67425D01*
X14512Y67579D01*
X14505Y67600D01*
X14503Y67612D01*
X14492Y67637D01*
X14447Y67774D01*
X14017Y68810D01*
X14017Y71190D01*
X14447Y72226D01*
X14489Y72377D01*
X14535Y72526D01*
X14536Y72543D01*
X14541Y72559D01*
X14548Y72714D01*
X14559Y72871D01*
X14556Y72887D01*
X14557Y72904D01*
X14528Y73058D01*
X14503Y73212D01*
X14497Y73227D01*
X14493Y73244D01*
X14430Y73387D01*
X14370Y73531D01*
X14360Y73545D01*
X14354Y73560D01*
X14259Y73685D01*
X14168Y73811D01*
X14155Y73823D01*
X14145Y73836D01*
X14025Y73936D01*
X13907Y74038D01*
X13892Y74046D01*
X13879Y74057D01*
X13784Y74104D01*
X12299Y75588D01*
X12299Y87412D01*
X13828Y88940D01*
X13850Y88968D01*
X13876Y88991D01*
X13957Y89103D01*
X14042Y89211D01*
X14057Y89243D01*
X14078Y89272D01*
X14131Y89399D01*
X14189Y89524D01*
X14196Y89559D01*
X14210Y89591D01*
X14232Y89728D01*
X14260Y89862D01*
X14260Y89898D01*
X14265Y89933D01*
X14255Y90070D01*
X14252Y90208D01*
X14243Y90242D01*
X14241Y90278D01*
X14200Y90409D01*
X14165Y90542D01*
X14149Y90574D01*
X14138Y90608D01*
X14068Y90727D01*
X14004Y90848D01*
X13980Y90875D01*
X13962Y90905D01*
X13828Y91060D01*
X12299Y92588D01*
X12299Y94639D01*
X12283Y94777D01*
X12273Y94917D01*
X12263Y94949D01*
X12259Y94982D01*
X12212Y95113D01*
X12171Y95247D01*
X12153Y95276D01*
X12142Y95308D01*
X12066Y95424D01*
X11995Y95544D01*
X11965Y95579D01*
X11953Y95597D01*
X11929Y95621D01*
X11860Y95699D01*
X6322Y101237D01*
X6240Y101302D01*
X6165Y101374D01*
X6105Y101409D01*
X6051Y101452D01*
X5957Y101496D01*
X5867Y101549D01*
X5801Y101569D01*
X5738Y101599D01*
X5636Y101620D01*
X5536Y101651D01*
X5467Y101656D01*
X5400Y101670D01*
X5296Y101668D01*
X5191Y101675D01*
X5123Y101663D01*
X5054Y101662D01*
X4953Y101636D01*
X4850Y101619D01*
X4786Y101592D01*
X4720Y101575D01*
X4627Y101526D01*
X4531Y101486D01*
X4475Y101446D01*
X4414Y101413D01*
X4335Y101345D01*
X4251Y101284D01*
X4205Y101231D01*
X4153Y101186D01*
X4092Y101101D01*
X4024Y101023D01*
X3992Y100961D01*
X3951Y100905D01*
X3912Y100809D01*
X3863Y100717D01*
X3846Y100650D01*
X3819Y100586D01*
X3803Y100483D01*
X3777Y100382D01*
X3770Y100278D01*
X3764Y100244D01*
X3766Y100222D01*
X3763Y100177D01*
X3763Y30262D01*
X3767Y30227D01*
X3764Y30191D01*
X3787Y30055D01*
X3803Y29919D01*
X3815Y29885D01*
X3820Y29850D01*
X3873Y29723D01*
X3920Y29593D01*
X3939Y29564D01*
X3953Y29531D01*
X4034Y29419D01*
X4109Y29304D01*
X4135Y29279D01*
X4155Y29251D01*
X4259Y29160D01*
X4359Y29065D01*
X4390Y29047D01*
X4416Y29024D01*
X4539Y28960D01*
X4657Y28890D01*
X4691Y28880D01*
X4723Y28863D01*
X4856Y28829D01*
X4988Y28788D01*
X5023Y28786D01*
X5057Y28777D01*
X5262Y28763D01*
X17484Y28763D01*
X17622Y28779D01*
X17762Y28789D01*
X17794Y28799D01*
X17827Y28803D01*
X17959Y28850D01*
X18092Y28891D01*
X18121Y28909D01*
X18152Y28920D01*
X18269Y28996D01*
X18277Y29001D01*
X21657Y29001D01*
X24001Y26657D01*
X24001Y5500D01*
X24005Y5465D01*
X24002Y5429D01*
X24025Y5293D01*
X24041Y5157D01*
X24053Y5123D01*
X24058Y5088D01*
X24111Y4961D01*
X24158Y4831D01*
X24177Y4802D01*
X24191Y4769D01*
X24272Y4657D01*
X24347Y4542D01*
X24373Y4517D01*
X24393Y4489D01*
X24497Y4398D01*
X24597Y4303D01*
X24628Y4285D01*
X24654Y4262D01*
X24777Y4198D01*
X24895Y4128D01*
X24929Y4118D01*
X24961Y4101D01*
X25094Y4067D01*
X25226Y4026D01*
X25261Y4024D01*
X25295Y4015D01*
X25500Y4001D01*
X754500Y4001D01*
X754535Y4005D01*
G37*
%LPC*%
G36*
X360202Y11987D02*
X360202Y11987D01*
X350427Y21762D01*
X350427Y23585D01*
X355441Y28599D01*
X355506Y28680D01*
X355578Y28756D01*
X355613Y28815D01*
X355656Y28870D01*
X355700Y28964D01*
X355753Y29054D01*
X355773Y29120D01*
X355803Y29183D01*
X355824Y29285D01*
X355855Y29384D01*
X355860Y29453D01*
X355874Y29521D01*
X355871Y29625D01*
X355878Y29729D01*
X355867Y29797D01*
X355866Y29867D01*
X355839Y29968D01*
X355822Y30070D01*
X355796Y30134D01*
X355779Y30201D01*
X355730Y30293D01*
X355690Y30390D01*
X355649Y30446D01*
X355617Y30507D01*
X355549Y30585D01*
X355488Y30670D01*
X355435Y30715D01*
X355390Y30768D01*
X355305Y30828D01*
X355226Y30897D01*
X355165Y30929D01*
X355109Y30969D01*
X355013Y31009D01*
X354920Y31058D01*
X354853Y31075D01*
X354790Y31101D01*
X354687Y31118D01*
X354586Y31144D01*
X354482Y31151D01*
X354448Y31156D01*
X354426Y31155D01*
X354381Y31158D01*
X317381Y31158D01*
X317243Y31142D01*
X317104Y31132D01*
X317071Y31122D01*
X317038Y31118D01*
X316907Y31071D01*
X316773Y31029D01*
X316744Y31012D01*
X316713Y31001D01*
X316596Y30924D01*
X316476Y30854D01*
X316442Y30824D01*
X316423Y30812D01*
X316406Y30794D01*
X314190Y29876D01*
X311810Y29876D01*
X309611Y30787D01*
X307928Y32470D01*
X307017Y34669D01*
X307017Y37096D01*
X307063Y37244D01*
X307064Y37260D01*
X307069Y37277D01*
X307076Y37433D01*
X307087Y37589D01*
X307084Y37605D01*
X307085Y37622D01*
X307056Y37776D01*
X307031Y37930D01*
X307024Y37945D01*
X307021Y37962D01*
X306958Y38105D01*
X306898Y38249D01*
X306888Y38263D01*
X306881Y38278D01*
X306787Y38403D01*
X306696Y38529D01*
X306683Y38540D01*
X306673Y38554D01*
X306553Y38653D01*
X306434Y38756D01*
X306420Y38764D01*
X306407Y38775D01*
X306267Y38844D01*
X306128Y38917D01*
X306112Y38921D01*
X306097Y38929D01*
X305945Y38964D01*
X305794Y39003D01*
X305772Y39005D01*
X305760Y39007D01*
X305733Y39007D01*
X305589Y39017D01*
X303810Y39017D01*
X301611Y39928D01*
X299928Y41611D01*
X299017Y43810D01*
X299017Y46190D01*
X299928Y48389D01*
X301611Y50072D01*
X303810Y50983D01*
X306190Y50983D01*
X308426Y50056D01*
X308430Y50053D01*
X308536Y49962D01*
X308566Y49946D01*
X308592Y49925D01*
X308718Y49866D01*
X308842Y49801D01*
X308874Y49793D01*
X308905Y49778D01*
X309041Y49750D01*
X309176Y49715D01*
X309222Y49712D01*
X309243Y49707D01*
X309277Y49708D01*
X309381Y49701D01*
X375922Y49701D01*
X376060Y49717D01*
X376200Y49727D01*
X376232Y49737D01*
X376266Y49741D01*
X376397Y49788D01*
X376530Y49829D01*
X376559Y49847D01*
X376591Y49858D01*
X376708Y49934D01*
X376828Y50005D01*
X376862Y50035D01*
X376880Y50047D01*
X376904Y50071D01*
X376982Y50140D01*
X377681Y50839D01*
X380695Y52087D01*
X383958Y52087D01*
X386972Y50839D01*
X389279Y48532D01*
X390527Y45518D01*
X390527Y42255D01*
X389577Y39960D01*
X389534Y39810D01*
X389488Y39661D01*
X389487Y39644D01*
X389482Y39628D01*
X389475Y39472D01*
X389464Y39316D01*
X389467Y39299D01*
X389466Y39282D01*
X389495Y39129D01*
X389520Y38975D01*
X389527Y38959D01*
X389530Y38943D01*
X389593Y38799D01*
X389653Y38656D01*
X389663Y38642D01*
X389670Y38626D01*
X389764Y38502D01*
X389855Y38375D01*
X389868Y38364D01*
X389878Y38351D01*
X389998Y38251D01*
X390116Y38148D01*
X390131Y38141D01*
X390144Y38130D01*
X390284Y38060D01*
X390422Y37988D01*
X390439Y37983D01*
X390454Y37976D01*
X390606Y37940D01*
X390757Y37901D01*
X390779Y37900D01*
X390791Y37897D01*
X390818Y37897D01*
X390962Y37887D01*
X413595Y37887D01*
X413734Y37903D01*
X413873Y37913D01*
X413905Y37923D01*
X413939Y37927D01*
X414070Y37974D01*
X414203Y38016D01*
X414232Y38033D01*
X414264Y38045D01*
X414381Y38121D01*
X414501Y38192D01*
X414535Y38221D01*
X414554Y38233D01*
X414577Y38258D01*
X414655Y38326D01*
X420334Y44005D01*
X420363Y44017D01*
X420500Y44093D01*
X420637Y44166D01*
X420650Y44177D01*
X420665Y44185D01*
X420780Y44290D01*
X420898Y44393D01*
X420908Y44407D01*
X420920Y44418D01*
X421008Y44547D01*
X421100Y44674D01*
X421106Y44690D01*
X421116Y44704D01*
X421172Y44849D01*
X421232Y44993D01*
X421234Y45010D01*
X421240Y45026D01*
X421262Y45180D01*
X421287Y45335D01*
X421286Y45352D01*
X421288Y45368D01*
X421273Y45523D01*
X421262Y45680D01*
X421257Y45696D01*
X421256Y45713D01*
X421206Y45861D01*
X421160Y46010D01*
X421151Y46024D01*
X421146Y46040D01*
X421063Y46173D01*
X420984Y46308D01*
X420970Y46324D01*
X420963Y46334D01*
X420944Y46354D01*
X420849Y46462D01*
X418279Y49032D01*
X418279Y57168D01*
X421851Y60740D01*
X421916Y60822D01*
X421988Y60897D01*
X422023Y60957D01*
X422066Y61011D01*
X422110Y61105D01*
X422163Y61195D01*
X422183Y61261D01*
X422213Y61324D01*
X422234Y61426D01*
X422265Y61526D01*
X422270Y61595D01*
X422284Y61662D01*
X422282Y61766D01*
X422289Y61871D01*
X422278Y61939D01*
X422276Y62008D01*
X422250Y62109D01*
X422233Y62212D01*
X422206Y62276D01*
X422189Y62342D01*
X422140Y62435D01*
X422100Y62531D01*
X422060Y62587D01*
X422027Y62648D01*
X421959Y62727D01*
X421898Y62811D01*
X421846Y62857D01*
X421800Y62909D01*
X421716Y62970D01*
X421637Y63038D01*
X421576Y63070D01*
X421519Y63111D01*
X421423Y63150D01*
X421331Y63199D01*
X421264Y63216D01*
X421200Y63242D01*
X421097Y63259D01*
X420996Y63285D01*
X420892Y63292D01*
X420859Y63298D01*
X420836Y63296D01*
X420791Y63299D01*
X306065Y63299D01*
X304607Y63903D01*
X304589Y63908D01*
X304573Y63917D01*
X304423Y63956D01*
X304275Y63998D01*
X304256Y63999D01*
X304238Y64003D01*
X304033Y64017D01*
X303810Y64017D01*
X301611Y64928D01*
X299928Y66611D01*
X299017Y68810D01*
X299017Y71190D01*
X299928Y73389D01*
X301611Y75072D01*
X303810Y75983D01*
X306190Y75983D01*
X308389Y75072D01*
X310196Y73265D01*
X310201Y73260D01*
X310252Y73189D01*
X310317Y73132D01*
X310374Y73069D01*
X310447Y73020D01*
X310513Y72962D01*
X310589Y72922D01*
X310660Y72874D01*
X310741Y72842D01*
X310819Y72801D01*
X310902Y72780D01*
X310982Y72749D01*
X311069Y72737D01*
X311154Y72715D01*
X311297Y72705D01*
X311324Y72701D01*
X311336Y72702D01*
X311359Y72701D01*
X490335Y72701D01*
X492063Y71985D01*
X500688Y63360D01*
X500797Y63273D01*
X500903Y63182D01*
X500933Y63166D01*
X500959Y63145D01*
X501085Y63086D01*
X501209Y63021D01*
X501241Y63013D01*
X501272Y62998D01*
X501408Y62970D01*
X501543Y62935D01*
X501589Y62932D01*
X501610Y62927D01*
X501644Y62928D01*
X501748Y62921D01*
X512832Y62921D01*
X514121Y61632D01*
X514121Y44568D01*
X512832Y43279D01*
X495768Y43279D01*
X494479Y44568D01*
X494479Y55652D01*
X494463Y55790D01*
X494453Y55929D01*
X494443Y55962D01*
X494439Y55995D01*
X494392Y56126D01*
X494351Y56260D01*
X494333Y56289D01*
X494322Y56320D01*
X494246Y56437D01*
X494175Y56557D01*
X494145Y56591D01*
X494133Y56610D01*
X494109Y56633D01*
X494040Y56712D01*
X487892Y62860D01*
X487783Y62947D01*
X487677Y63038D01*
X487647Y63054D01*
X487621Y63075D01*
X487495Y63134D01*
X487371Y63199D01*
X487339Y63207D01*
X487308Y63222D01*
X487172Y63250D01*
X487037Y63285D01*
X486991Y63288D01*
X486970Y63293D01*
X486936Y63292D01*
X486832Y63299D01*
X486209Y63299D01*
X486105Y63287D01*
X486001Y63285D01*
X485934Y63267D01*
X485865Y63259D01*
X485767Y63224D01*
X485666Y63198D01*
X485605Y63165D01*
X485540Y63142D01*
X485453Y63085D01*
X485361Y63036D01*
X485309Y62991D01*
X485251Y62953D01*
X485179Y62878D01*
X485100Y62809D01*
X485060Y62753D01*
X485012Y62703D01*
X484959Y62613D01*
X484898Y62528D01*
X484872Y62464D01*
X484837Y62405D01*
X484806Y62305D01*
X484766Y62209D01*
X484755Y62140D01*
X484735Y62074D01*
X484728Y61970D01*
X484711Y61867D01*
X484716Y61798D01*
X484711Y61729D01*
X484728Y61627D01*
X484735Y61522D01*
X484756Y61456D01*
X484767Y61388D01*
X484807Y61292D01*
X484838Y61192D01*
X484873Y61133D01*
X484900Y61069D01*
X484961Y60984D01*
X485014Y60895D01*
X485082Y60816D01*
X485102Y60789D01*
X485119Y60774D01*
X485149Y60740D01*
X488721Y57168D01*
X488721Y49032D01*
X482968Y43279D01*
X476348Y43279D01*
X476210Y43263D01*
X476071Y43253D01*
X476038Y43243D01*
X476005Y43239D01*
X475874Y43192D01*
X475740Y43151D01*
X475711Y43133D01*
X475680Y43122D01*
X475563Y43046D01*
X475443Y42975D01*
X475409Y42945D01*
X475390Y42933D01*
X475367Y42909D01*
X475288Y42840D01*
X468483Y36035D01*
X466755Y35319D01*
X463389Y35319D01*
X463285Y35307D01*
X463181Y35305D01*
X463114Y35287D01*
X463045Y35279D01*
X462947Y35244D01*
X462846Y35218D01*
X462785Y35185D01*
X462720Y35162D01*
X462633Y35105D01*
X462541Y35056D01*
X462488Y35011D01*
X462431Y34973D01*
X462359Y34898D01*
X462280Y34829D01*
X462240Y34773D01*
X462192Y34723D01*
X462139Y34633D01*
X462078Y34548D01*
X462052Y34484D01*
X462017Y34425D01*
X461986Y34325D01*
X461946Y34229D01*
X461935Y34160D01*
X461915Y34094D01*
X461908Y33990D01*
X461891Y33887D01*
X461896Y33818D01*
X461891Y33749D01*
X461908Y33647D01*
X461915Y33542D01*
X461936Y33476D01*
X461947Y33408D01*
X461987Y33312D01*
X462018Y33212D01*
X462053Y33153D01*
X462080Y33089D01*
X462141Y33005D01*
X462194Y32915D01*
X462263Y32836D01*
X462282Y32809D01*
X462299Y32794D01*
X462329Y32760D01*
X463321Y31768D01*
X463321Y23632D01*
X457568Y17879D01*
X449432Y17879D01*
X443679Y23632D01*
X443679Y31768D01*
X444671Y32760D01*
X444736Y32842D01*
X444808Y32917D01*
X444843Y32977D01*
X444886Y33031D01*
X444930Y33125D01*
X444983Y33215D01*
X445003Y33281D01*
X445033Y33344D01*
X445054Y33446D01*
X445085Y33546D01*
X445090Y33615D01*
X445104Y33682D01*
X445102Y33786D01*
X445109Y33891D01*
X445098Y33959D01*
X445096Y34028D01*
X445070Y34129D01*
X445053Y34232D01*
X445026Y34296D01*
X445009Y34362D01*
X444960Y34455D01*
X444920Y34551D01*
X444880Y34607D01*
X444847Y34668D01*
X444779Y34747D01*
X444718Y34831D01*
X444666Y34877D01*
X444620Y34929D01*
X444536Y34990D01*
X444457Y35058D01*
X444395Y35090D01*
X444339Y35131D01*
X444243Y35170D01*
X444151Y35219D01*
X444084Y35236D01*
X444020Y35262D01*
X443917Y35279D01*
X443816Y35305D01*
X443712Y35312D01*
X443679Y35318D01*
X443656Y35316D01*
X443611Y35319D01*
X437989Y35319D01*
X437885Y35307D01*
X437781Y35305D01*
X437714Y35287D01*
X437645Y35279D01*
X437547Y35244D01*
X437446Y35218D01*
X437385Y35185D01*
X437320Y35162D01*
X437233Y35105D01*
X437141Y35056D01*
X437088Y35011D01*
X437031Y34973D01*
X436959Y34898D01*
X436880Y34829D01*
X436840Y34773D01*
X436792Y34723D01*
X436739Y34633D01*
X436678Y34548D01*
X436652Y34484D01*
X436617Y34425D01*
X436586Y34325D01*
X436546Y34229D01*
X436535Y34160D01*
X436515Y34094D01*
X436508Y33990D01*
X436491Y33887D01*
X436496Y33818D01*
X436491Y33749D01*
X436508Y33647D01*
X436515Y33542D01*
X436536Y33476D01*
X436547Y33408D01*
X436587Y33312D01*
X436618Y33212D01*
X436653Y33153D01*
X436680Y33089D01*
X436741Y33005D01*
X436794Y32915D01*
X436863Y32836D01*
X436882Y32809D01*
X436899Y32794D01*
X436929Y32760D01*
X437921Y31768D01*
X437921Y23632D01*
X432168Y17879D01*
X424032Y17879D01*
X418279Y23632D01*
X418279Y26987D01*
X418275Y27022D01*
X418278Y27057D01*
X418255Y27193D01*
X418239Y27330D01*
X418227Y27363D01*
X418222Y27398D01*
X418169Y27525D01*
X418122Y27655D01*
X418103Y27685D01*
X418089Y27718D01*
X418008Y27829D01*
X417933Y27945D01*
X417907Y27969D01*
X417887Y27998D01*
X417783Y28088D01*
X417683Y28183D01*
X417652Y28201D01*
X417626Y28225D01*
X417503Y28289D01*
X417385Y28358D01*
X417351Y28369D01*
X417319Y28385D01*
X417186Y28420D01*
X417054Y28461D01*
X417019Y28463D01*
X416985Y28472D01*
X416780Y28486D01*
X379144Y28486D01*
X379006Y28470D01*
X378867Y28460D01*
X378835Y28450D01*
X378801Y28446D01*
X378670Y28399D01*
X378537Y28357D01*
X378508Y28340D01*
X378476Y28328D01*
X378359Y28252D01*
X378239Y28182D01*
X378205Y28152D01*
X378186Y28140D01*
X378163Y28115D01*
X378084Y28047D01*
X376365Y26328D01*
X373351Y25079D01*
X373299Y25079D01*
X373263Y25075D01*
X373228Y25078D01*
X373092Y25055D01*
X372955Y25039D01*
X372922Y25027D01*
X372887Y25022D01*
X372760Y24969D01*
X372630Y24922D01*
X372600Y24903D01*
X372568Y24889D01*
X372456Y24808D01*
X372340Y24733D01*
X372316Y24707D01*
X372287Y24687D01*
X372197Y24583D01*
X372102Y24483D01*
X372084Y24452D01*
X372061Y24426D01*
X371996Y24303D01*
X371927Y24185D01*
X371916Y24151D01*
X371900Y24119D01*
X371865Y23986D01*
X371825Y23854D01*
X371822Y23819D01*
X371813Y23785D01*
X371799Y23580D01*
X371799Y21762D01*
X362025Y11987D01*
X360202Y11987D01*
G37*
%LPD*%
%LPC*%
G36*
X500232Y17879D02*
X500232Y17879D01*
X494479Y23632D01*
X494479Y31768D01*
X500232Y37521D01*
X508368Y37521D01*
X514121Y31768D01*
X514121Y23632D01*
X508368Y17879D01*
X500232Y17879D01*
G37*
%LPD*%
D10*
G36*
X369598Y22673D02*
X361113Y14188D01*
X352628Y22673D01*
X361113Y31158D01*
X369598Y22673D01*
G37*
D11*
X371720Y33280D03*
X382327Y43887D03*
D10*
G36*
X623402Y187327D02*
X631887Y195812D01*
X640372Y187327D01*
X631887Y178842D01*
X623402Y187327D01*
G37*
D11*
X621280Y176720D03*
X610673Y166113D03*
D10*
G36*
X164598Y22673D02*
X156113Y14188D01*
X147628Y22673D01*
X156113Y31158D01*
X164598Y22673D01*
G37*
D11*
X166720Y33280D03*
X177327Y43887D03*
D10*
G36*
X410402Y187327D02*
X418887Y195812D01*
X427372Y187327D01*
X418887Y178842D01*
X410402Y187327D01*
G37*
D11*
X408280Y176720D03*
X397673Y166113D03*
D12*
X226500Y103000D03*
X236000Y103000D03*
X245500Y103000D03*
X245500Y129000D03*
X236000Y129000D03*
X226500Y129000D03*
X86000Y180500D03*
X86000Y171000D03*
X86000Y161500D03*
X112000Y161500D03*
X112000Y171000D03*
X112000Y180500D03*
X86000Y143500D03*
X86000Y134000D03*
X86000Y124500D03*
X112000Y124500D03*
X112000Y134000D03*
X112000Y143500D03*
D13*
X242500Y77000D03*
X225500Y77000D03*
D14*
X188000Y162500D03*
X188000Y179500D03*
X188000Y125500D03*
X188000Y142500D03*
X165000Y162500D03*
X165000Y179500D03*
X165000Y125500D03*
X165000Y142500D03*
X45000Y162500D03*
X45000Y179500D03*
X45000Y124500D03*
X45000Y141500D03*
D15*
X146000Y171000D03*
X126000Y161500D03*
X126000Y180500D03*
X146000Y134000D03*
X126000Y124500D03*
X126000Y143500D03*
D14*
X242500Y148000D03*
X225500Y148000D03*
X242500Y171000D03*
X225500Y171000D03*
D13*
X68000Y179500D03*
X68000Y162500D03*
X68000Y141500D03*
X68000Y124500D03*
D16*
X110000Y87000D03*
X54000Y87000D03*
D12*
X568500Y106000D03*
X559000Y106000D03*
X549500Y106000D03*
X549500Y80000D03*
X559000Y80000D03*
X568500Y80000D03*
X703000Y31500D03*
X703000Y41000D03*
X703000Y50500D03*
X677000Y50500D03*
X677000Y41000D03*
X677000Y31500D03*
X703000Y68500D03*
X703000Y78000D03*
X703000Y87500D03*
X677000Y87500D03*
X677000Y78000D03*
X677000Y68500D03*
D13*
X551500Y132000D03*
X568500Y132000D03*
D14*
X601000Y49500D03*
X601000Y32500D03*
X601000Y86500D03*
X601000Y69500D03*
X624000Y49500D03*
X624000Y32500D03*
X624000Y86500D03*
X624000Y69500D03*
X744000Y49500D03*
X744000Y32500D03*
X744000Y86500D03*
X744000Y69500D03*
D15*
X643000Y41000D03*
X663000Y50500D03*
X663000Y31500D03*
X643000Y78000D03*
X663000Y87500D03*
X663000Y68500D03*
D14*
X551500Y61000D03*
X568500Y61000D03*
X551500Y36000D03*
X568500Y36000D03*
D13*
X721000Y32500D03*
X721000Y49500D03*
X721000Y69500D03*
X721000Y86500D03*
D16*
X686000Y124000D03*
X742000Y124000D03*
D17*
X504300Y53100D03*
D18*
X504300Y27700D03*
X478900Y53100D03*
X478900Y27700D03*
X453500Y53100D03*
X453500Y27700D03*
X428100Y53100D03*
X428100Y27700D03*
D13*
X259500Y103000D03*
X276500Y103000D03*
X259500Y77000D03*
X276500Y77000D03*
X533500Y132000D03*
X516500Y132000D03*
X533500Y106000D03*
X516500Y106000D03*
D19*
X193000Y77250D03*
X193000Y96750D03*
X133000Y96750D03*
X133000Y77250D03*
D20*
X133000Y87000D03*
X193000Y87000D03*
D19*
X600000Y138750D03*
X600000Y119250D03*
X660000Y119250D03*
X660000Y138750D03*
D20*
X660000Y129000D03*
X600000Y129000D03*
D21*
X54000Y43350D03*
X106000Y43350D03*
X54000Y56050D03*
X54000Y30650D03*
X54000Y17950D03*
X106000Y56050D03*
X106000Y30650D03*
X106000Y17950D03*
D13*
X228500Y46000D03*
X211500Y46000D03*
X228500Y20000D03*
X211500Y20000D03*
X268500Y20000D03*
X251500Y20000D03*
X251500Y45000D03*
X268500Y45000D03*
D21*
X734000Y163650D03*
X682000Y163650D03*
X734000Y150950D03*
X734000Y176350D03*
X734000Y189050D03*
X682000Y150950D03*
X682000Y176350D03*
X682000Y189050D03*
D13*
X549500Y165000D03*
X566500Y165000D03*
X549500Y190000D03*
X566500Y190000D03*
X514500Y190000D03*
X531500Y190000D03*
X531500Y165000D03*
X514500Y165000D03*
D14*
X20000Y41500D03*
X20000Y58500D03*
X20000Y98500D03*
X20000Y81500D03*
X765000Y168500D03*
X765000Y151500D03*
X765000Y111500D03*
X765000Y128500D03*
D22*
X489000Y177000D03*
D23*
X408560Y177000D02*
X408280Y176720D01*
X486141Y174141D02*
X489000Y177000D01*
X486141Y174141D02*
X411940Y174141D01*
X409081Y177000D01*
X408560Y177000D01*
D22*
X313000Y35859D03*
D23*
X369141Y35859D01*
X371720Y33280D01*
D22*
X428000Y85000D03*
D23*
X440000Y97000D02*
X440000Y135000D01*
X440000Y97000D02*
X428000Y85000D01*
X440000Y135000D02*
X420000Y155000D01*
D22*
X420000Y155000D03*
D23*
X377801Y33280D02*
X371720Y33280D01*
X377801Y33280D02*
X377895Y33187D01*
X465820Y40020D02*
X478900Y53100D01*
X465820Y40020D02*
X422997Y40020D01*
X416163Y33187D02*
X377895Y33187D01*
X416163Y33187D02*
X422997Y40020D01*
D22*
X490000Y165000D03*
D23*
X398787Y165000D01*
X397673Y166113D01*
D22*
X305000Y45000D03*
D23*
X381213Y45000D01*
X382327Y43887D01*
D22*
X416000Y85000D03*
D23*
X431000Y100000D02*
X431000Y129000D01*
X431000Y100000D02*
X416000Y85000D01*
X397673Y162327D02*
X397673Y166113D01*
X397673Y162327D02*
X431000Y129000D01*
D24*
X45000Y179500D02*
X45000Y185000D01*
X45000Y199380D01*
X165000Y199380D01*
X188000Y199380D01*
X188000Y179500D01*
X165000Y179500D02*
X165000Y199380D01*
X268500Y45000D02*
X268500Y35000D01*
X268500Y20000D01*
X264752Y199380D02*
X188000Y199380D01*
X264752Y199380D02*
X317000Y147132D01*
X320000Y144132D01*
X292000Y77000D02*
X292000Y35000D01*
X292000Y77000D02*
X320000Y105000D01*
X320000Y144132D01*
X292000Y35000D02*
X268500Y35000D01*
D25*
X35000Y110000D03*
D24*
X35000Y112403D01*
X31300Y116103D01*
X31300Y171300D01*
X45000Y185000D01*
X744000Y32500D02*
X744000Y10620D01*
X614000Y10620D01*
X602000Y10620D01*
X596000Y16620D01*
X596000Y19620D01*
X601000Y19620D02*
X601000Y32500D01*
X624000Y32500D02*
X624000Y20620D01*
X614000Y10620D01*
X544783Y10620D02*
X543000Y12403D01*
X529800Y25603D01*
X596000Y19620D02*
X601000Y19620D01*
X602000Y10620D02*
X544783Y10620D01*
X529800Y25603D02*
X529800Y67603D01*
X503000Y94403D01*
X503000Y115000D01*
X503000Y175000D01*
X514500Y165000D02*
X514500Y190000D01*
X514500Y175000D01*
X503000Y175000D01*
D25*
X503000Y115000D03*
D24*
X478900Y27700D02*
X478900Y20700D01*
X489600Y10000D01*
X543000Y10000D01*
X543000Y12403D01*
X397691Y147132D02*
X317000Y147132D01*
X397691Y147132D02*
X419911Y124911D01*
D25*
X419911Y124911D03*
D23*
X45000Y141500D02*
X45000Y152000D01*
X68000Y152000D01*
X86000Y152000D01*
X126000Y152000D01*
X165000Y152000D01*
X188000Y152000D01*
X188000Y142500D01*
X165000Y142500D02*
X165000Y152000D01*
X68000Y152000D02*
X68000Y162500D01*
X86000Y161500D02*
X86000Y152000D01*
X126000Y152000D02*
X126000Y161500D01*
X188000Y142500D02*
X198318Y142500D01*
X203818Y137000D01*
D26*
X203818Y137000D03*
D23*
X190500Y160000D02*
X188000Y162500D01*
X190500Y160000D02*
X200000Y160000D01*
D22*
X200000Y160000D03*
X244518Y160000D03*
D23*
X244518Y150018D01*
X242500Y148000D01*
X235700Y141200D01*
X235700Y129300D01*
X236000Y129000D01*
X74800Y172700D02*
X68000Y179500D01*
X74800Y172700D02*
X74947Y172700D01*
X76647Y171000D01*
X86000Y171000D01*
X51000Y162500D02*
X45000Y162500D01*
X51000Y162500D02*
X58300Y169800D01*
X58300Y169947D01*
X61053Y172700D01*
X61200Y172700D01*
X68000Y179500D01*
X112000Y180500D02*
X126000Y180500D01*
X126000Y143500D02*
X112000Y143500D01*
X123950Y56050D02*
X124000Y56000D01*
X123950Y56050D02*
X106000Y56050D01*
D22*
X124000Y56000D03*
X194000Y29000D03*
D23*
X202500Y29000D02*
X211500Y20000D01*
X202500Y29000D02*
X194000Y29000D01*
D27*
X226500Y100500D02*
X226500Y103000D01*
X233000Y94000D02*
X233000Y91000D01*
X233000Y94000D02*
X226500Y100500D01*
D22*
X233000Y91000D03*
D23*
X138958Y30650D02*
X106000Y30650D01*
X138958Y30650D02*
X177895Y69587D01*
X211500Y50000D02*
X211500Y46000D01*
X211500Y50000D02*
X191913Y69587D01*
X177895Y69587D01*
D27*
X236000Y103000D02*
X238000Y101000D01*
X238000Y98000D01*
X244000Y92000D02*
X244000Y90000D01*
X244000Y92000D02*
X238000Y98000D01*
D22*
X244000Y90000D03*
X200000Y45000D03*
D27*
X201000Y46000D01*
X211500Y46000D01*
D23*
X253000Y129000D02*
X253000Y171000D01*
X242500Y171000D01*
X245500Y129000D02*
X253000Y129000D01*
X212000Y125500D02*
X188000Y125500D01*
X212000Y125500D02*
X215300Y128800D01*
X215300Y180700D02*
X232947Y180700D01*
X235700Y177947D01*
X235700Y177800D01*
X242500Y171000D01*
X215300Y180700D02*
X215300Y128800D01*
X68000Y141500D02*
X62000Y141500D01*
X52300Y131800D02*
X45000Y124500D01*
X52300Y131800D02*
X52447Y131800D01*
X55200Y134553D01*
X55200Y134700D01*
X62000Y141500D01*
X68000Y141500D02*
X74800Y134700D01*
X74947Y134700D01*
X75647Y134000D01*
X86000Y134000D01*
X559000Y80000D02*
X559000Y69647D01*
X551500Y62147D02*
X551500Y61000D01*
X551500Y62147D02*
X559000Y69647D01*
X597500Y49500D02*
X601000Y49500D01*
X597500Y49500D02*
X589230Y41230D01*
D22*
X589230Y41230D03*
X553000Y48982D03*
D23*
X551500Y50482D01*
X551500Y61000D01*
X738000Y49500D02*
X744000Y49500D01*
X738000Y49500D02*
X730700Y42200D01*
X730700Y42053D01*
X727947Y39300D01*
X727800Y39300D01*
X721000Y32500D01*
X714200Y39300D01*
X714053Y39300D01*
X712353Y41000D01*
X703000Y41000D01*
X677000Y31500D02*
X663000Y31500D01*
X663000Y68500D02*
X677000Y68500D01*
D28*
X682000Y150950D02*
X680950Y152000D01*
X664000Y152000D01*
D22*
X664000Y152000D03*
X648000Y160000D03*
D28*
X643000Y155000D01*
X596000Y155000D01*
X596000Y177000D02*
X583000Y190000D01*
X566500Y190000D01*
D22*
X588000Y156482D03*
D28*
X596000Y155000D02*
X596000Y177000D01*
X556518Y120518D02*
X556518Y117982D01*
D22*
X556518Y120518D03*
D28*
X565700Y108800D02*
X568500Y106000D01*
X565700Y108800D02*
X565700Y110533D01*
X563533Y112700D01*
X561800Y112700D01*
X556518Y117982D01*
X589482Y155000D02*
X588000Y156482D01*
X589482Y155000D02*
X596000Y155000D01*
D22*
X546000Y119000D03*
X578000Y165000D03*
D28*
X566500Y165000D01*
X676000Y170350D02*
X682000Y176350D01*
X676000Y170350D02*
X664467Y170350D01*
X655518Y154868D02*
X649650Y149000D01*
X655518Y161401D02*
X664467Y170350D01*
X655518Y161401D02*
X655518Y154868D01*
X584000Y149000D02*
X578000Y155000D01*
X578000Y165000D01*
X584000Y149000D02*
X649650Y149000D01*
X556200Y110533D02*
X554033Y112700D01*
X552300Y112700D01*
X546000Y119000D01*
X556200Y108800D02*
X559000Y106000D01*
X556200Y108800D02*
X556200Y110533D01*
D23*
X549500Y80000D02*
X549500Y77147D01*
X541300Y68947D01*
X541300Y46200D01*
X551500Y36000D01*
X596000Y86500D02*
X601000Y86500D01*
X596000Y86500D02*
X578700Y69200D01*
X578700Y25906D01*
X578647Y25853D01*
X559000Y25853D01*
X551500Y33353D02*
X551500Y36000D01*
X551500Y33353D02*
X559000Y25853D01*
X721000Y69500D02*
X727000Y69500D01*
X736700Y79200D02*
X744000Y86500D01*
X736700Y79200D02*
X736553Y79200D01*
X733800Y76447D01*
X733800Y76300D01*
X727000Y69500D01*
X721000Y69500D02*
X714200Y76300D01*
X714053Y76300D01*
X712353Y78000D01*
X703000Y78000D01*
X744000Y69500D02*
X744000Y59200D01*
X721000Y59200D01*
X703000Y59200D01*
X663000Y59200D01*
X643000Y59200D01*
X623000Y59200D01*
X601000Y59200D01*
X601000Y69500D01*
X624000Y69500D02*
X624000Y60200D01*
X623000Y59200D01*
X663000Y59200D02*
X663000Y50500D01*
X703000Y50500D02*
X703000Y59200D01*
X721000Y59200D02*
X721000Y49500D01*
D25*
X643000Y59200D03*
D23*
X151390Y17950D02*
X106000Y17950D01*
X151390Y17950D02*
X156113Y22673D01*
D29*
X180000Y87000D02*
X193000Y87000D01*
D30*
X180000Y87000D03*
D29*
X610000Y129000D02*
X630000Y129000D01*
D30*
X630000Y129000D03*
D29*
X610000Y129000D02*
X600000Y129000D01*
D27*
X678000Y189050D02*
X682000Y189050D01*
D23*
X633610Y189050D01*
X631887Y187327D01*
D22*
X255000Y89000D03*
D27*
X242500Y77212D02*
X242500Y77000D01*
X254288Y89000D02*
X255000Y89000D01*
X254288Y89000D02*
X242500Y77212D01*
X551500Y132000D02*
X552060Y132000D01*
X561760Y141700D01*
X575240Y141700D02*
X585000Y131940D01*
X585000Y112700D01*
X610000Y112700D01*
X610000Y129000D01*
X575240Y141700D02*
X561760Y141700D01*
D23*
X226500Y129000D02*
X226500Y128000D01*
X219800Y121300D01*
X219250Y120750D02*
X211500Y113000D01*
X68000Y113000D02*
X55000Y113000D01*
X68000Y113000D02*
X86000Y113000D01*
X126000Y113000D01*
X211500Y113000D01*
X68000Y113000D02*
X68000Y124500D01*
X86000Y124500D02*
X86000Y113000D01*
X126000Y113000D02*
X126000Y124500D01*
X225500Y148000D02*
X225500Y171000D01*
X225500Y148000D02*
X225500Y130000D01*
X226500Y129000D01*
D25*
X276018Y125000D03*
D29*
X54000Y112818D02*
X54000Y87000D01*
X54182Y113000D02*
X55000Y113000D01*
X54182Y113000D02*
X54000Y112818D01*
D23*
X271018Y130000D02*
X276018Y125000D01*
X271018Y130000D02*
X260200Y130000D01*
X260200Y126018D01*
X219800Y121300D02*
X219250Y120750D01*
X255482Y121300D02*
X260200Y126018D01*
X255482Y121300D02*
X219800Y121300D01*
X568500Y61000D02*
X568500Y36000D01*
D29*
X742000Y100000D02*
X742000Y124000D01*
D23*
X742000Y100000D02*
X721000Y100000D01*
X703000Y100000D01*
X663000Y100000D01*
X663000Y97000D02*
X594000Y97000D01*
X577000Y80000D02*
X568500Y80000D01*
X577000Y80000D02*
X594000Y97000D01*
X721000Y100000D02*
X721000Y86500D01*
X703000Y87500D02*
X703000Y100000D01*
X663000Y97000D02*
X663000Y87500D01*
X663000Y97000D02*
X663000Y100000D01*
X568500Y80000D02*
X568500Y61000D01*
D26*
X711000Y120000D03*
D29*
X738000Y120000D01*
X742000Y124000D01*
D23*
X504300Y53100D02*
X489400Y68000D01*
X307000Y68000D01*
X305000Y70000D01*
D22*
X305000Y70000D03*
D27*
X20000Y70000D02*
X20000Y58500D01*
X20000Y70000D02*
X20000Y81500D01*
D22*
X20000Y70000D03*
D27*
X765000Y140000D02*
X765000Y151500D01*
X765000Y140000D02*
X765000Y128500D01*
D22*
X765000Y140000D03*
X690000Y50000D03*
X640000Y22602D03*
D27*
X684200Y44200D02*
X690000Y50000D01*
X684200Y44200D02*
X684200Y26760D01*
X680042Y22602D01*
X640000Y22602D01*
D23*
X154500Y162500D02*
X146000Y171000D01*
X154500Y162500D02*
X165000Y162500D01*
X146000Y134000D02*
X154500Y125500D01*
X165000Y125500D01*
X634500Y49500D02*
X643000Y41000D01*
X634500Y49500D02*
X624000Y49500D01*
X643000Y78000D02*
X634500Y86500D01*
X624000Y86500D01*
X251500Y20000D02*
X228500Y20000D01*
D27*
X140000Y96750D02*
X133000Y96750D01*
D22*
X187236Y61105D03*
D27*
X228500Y29841D02*
X228500Y20000D01*
X228500Y29841D02*
X222041Y36300D01*
X192018Y56323D02*
X187236Y61105D01*
X192018Y56323D02*
X192018Y41694D01*
X197412Y36300D02*
X222041Y36300D01*
X197412Y36300D02*
X192018Y41694D01*
D22*
X145000Y65000D03*
D27*
X145000Y91750D01*
X140000Y96750D01*
D23*
X228500Y46000D02*
X250500Y46000D01*
X251500Y45000D01*
D27*
X202200Y92990D02*
X198740Y96450D01*
X193300Y96450D02*
X193000Y96750D01*
X193300Y96450D02*
X198740Y96450D01*
X202200Y92990D02*
X202200Y72300D01*
X228500Y46000D01*
D29*
X133000Y87000D02*
X110000Y87000D01*
D23*
X134000Y63000D01*
X134000Y48000D01*
X129350Y43350D02*
X106000Y43350D01*
X129350Y43350D02*
X134000Y48000D01*
X259500Y103000D02*
X264500Y98000D01*
X264500Y82000D01*
X259500Y77000D01*
D27*
X67950Y17950D02*
X54000Y17950D01*
X67950Y17950D02*
X70000Y20000D01*
X70000Y40000D02*
X66650Y43350D01*
X54000Y43350D01*
X70000Y40000D02*
X70000Y20000D01*
X70000Y40000D02*
X90000Y40000D01*
X93350Y43350D01*
X106000Y43350D01*
D23*
X110000Y87000D02*
X127518Y104518D01*
X155000Y104518D01*
D22*
X155000Y104518D03*
X263000Y116818D03*
D23*
X263000Y106500D01*
X259500Y103000D01*
X531500Y190000D02*
X549500Y190000D01*
D22*
X648000Y140000D03*
D28*
X655134Y119384D02*
X655000Y119250D01*
X660000Y119250D01*
X655134Y119384D02*
X648000Y126517D01*
X648000Y140000D01*
D22*
X588000Y170518D03*
D28*
X588000Y171500D01*
X579500Y180000D01*
X559500Y180000D01*
X549500Y190000D01*
D23*
X549500Y165000D02*
X531500Y165000D01*
D28*
X599200Y120050D02*
X600000Y119250D01*
X599200Y120050D02*
X591300Y120050D01*
X550767Y165000D02*
X549500Y165000D01*
X550767Y165000D02*
X559967Y155800D01*
X581846Y143800D02*
X585000Y143800D01*
X581846Y143800D02*
X569846Y155800D01*
X585000Y143800D02*
X591300Y137500D01*
X591300Y120050D01*
X569846Y155800D02*
X559967Y155800D01*
D29*
X675000Y124000D02*
X686000Y124000D01*
X675000Y124000D02*
X670000Y129000D01*
X660000Y129000D01*
D28*
X694533Y157650D02*
X696700Y155483D01*
X696700Y146417D01*
X694533Y157650D02*
X688000Y157650D01*
X686000Y135717D02*
X686000Y124000D01*
X686000Y135717D02*
X696700Y146417D01*
X688000Y157650D02*
X682000Y163650D01*
D23*
X533500Y132000D02*
X528500Y127000D01*
X528500Y120000D01*
X528500Y111000D01*
X533500Y106000D01*
D22*
X528500Y120000D03*
D23*
X719050Y189050D02*
X734000Y189050D01*
X719050Y189050D02*
X715000Y185000D01*
X715000Y170000D01*
X721350Y163650D02*
X734000Y163650D01*
X721350Y163650D02*
X715000Y170000D01*
X708650Y163650D02*
X682000Y163650D01*
X708650Y163650D02*
X715000Y170000D01*
D27*
X686000Y124000D02*
X668700Y106700D01*
X660225Y106700D01*
X659525Y106000D01*
X587794Y106000D01*
X537560Y106000D02*
X533500Y106000D01*
X575394Y93600D02*
X587794Y106000D01*
X575394Y93600D02*
X549960Y93600D01*
X537560Y106000D01*
D23*
X241947Y110700D02*
X220553Y110700D01*
X225500Y77505D02*
X225500Y77000D01*
X245573Y103073D02*
X245573Y107073D01*
X245573Y103073D02*
X245500Y103000D01*
X245573Y107073D02*
X241947Y110700D01*
X216518Y86487D02*
X225500Y77505D01*
X216518Y86487D02*
X216518Y106665D01*
X220553Y110700D01*
D28*
X552300Y101467D02*
X554467Y99300D01*
X573033Y99300D02*
X575200Y101467D01*
X552300Y103200D02*
X549500Y106000D01*
X552300Y103200D02*
X552300Y101467D01*
X554467Y99300D02*
X573033Y99300D01*
X575200Y125300D02*
X568500Y132000D01*
X575200Y125300D02*
X575200Y101467D01*
D27*
X54000Y56050D02*
X48950Y56050D01*
X35000Y70000D01*
X35000Y90000D01*
X26500Y98500D01*
X20000Y98500D01*
X276500Y103000D02*
X276500Y111012D01*
X286250Y120762D01*
X286250Y147225D01*
X244295Y189180D01*
X214180Y189180D02*
X205000Y180000D01*
D22*
X205000Y180000D03*
X150000Y185000D03*
D27*
X133890Y185000D01*
X129710Y189180D01*
X214180Y189180D02*
X244295Y189180D01*
X129710Y189180D02*
X104180Y189180D01*
X100000Y185000D01*
D22*
X100000Y185000D03*
X19318Y145000D03*
D27*
X9318Y135000D01*
X9318Y104182D01*
X15000Y98500D02*
X20000Y98500D01*
X15000Y98500D02*
X9318Y104182D01*
D23*
X38300Y38403D02*
X46053Y30650D01*
X54000Y30650D01*
D22*
X35000Y55000D03*
X225000Y63000D03*
D27*
X229300Y67300D01*
X275940Y77000D02*
X276500Y77000D01*
X266240Y67300D02*
X229300Y67300D01*
X266240Y67300D02*
X275940Y77000D01*
X35203Y41500D02*
X20000Y41500D01*
X35203Y41500D02*
X38300Y38403D01*
X35203Y54797D02*
X35000Y55000D01*
X35203Y54797D02*
X35203Y41500D01*
X734000Y150950D02*
X739950Y145000D01*
X765000Y112060D02*
X765000Y111500D01*
X765000Y112060D02*
X755300Y121760D01*
X755300Y141640D02*
X751940Y145000D01*
X755300Y141640D02*
X755300Y121760D01*
X751940Y145000D02*
X739950Y145000D01*
X751940Y145000D02*
X751940Y157940D01*
X753000Y159000D01*
D22*
X753000Y159000D03*
X555000Y150000D03*
D28*
X550000Y145000D01*
X529500Y145000D02*
X516500Y132000D01*
X529500Y145000D02*
X550000Y145000D01*
D27*
X734000Y176350D02*
X746650Y176350D01*
X754500Y168500D02*
X765000Y168500D01*
X751500Y171500D02*
X746650Y176350D01*
X751500Y171500D02*
X754500Y168500D01*
X751500Y171500D02*
X751500Y193500D01*
X494000Y204000D02*
X475000Y185000D01*
D22*
X475000Y185000D03*
D27*
X741000Y204000D02*
X751500Y193500D01*
X741000Y204000D02*
X494000Y204000D01*
D22*
X521674Y92674D03*
D27*
X516500Y97849D01*
X516500Y106000D01*
M02*
