G04 EAGLE Gerber RS-274X export*
G75*
%MOMM*%
%FSLAX34Y34*%
%LPD*%
%IN*%
%IPPOS*%
%AMOC8*
5,1,8,0,0,1.08239X$1,22.5*%
G01*
%ADD10C,0.200000*%
%ADD11C,0.152400*%
%ADD12C,0.127000*%


D10*
X0Y260000D02*
X910000Y260000D01*
X910000Y1170000D01*
X0Y1170000D01*
X0Y260000D01*
X760000Y25000D02*
X760000Y0D01*
X760000Y185000D02*
X760000Y210000D01*
X20000Y210000D01*
X20000Y185000D01*
X20000Y25000D02*
X20000Y0D01*
X760000Y0D01*
D11*
X20000Y25000D02*
X0Y25000D01*
X0Y185000D01*
X20000Y185000D01*
X760000Y25000D02*
X780000Y25000D01*
X780000Y185000D01*
X760000Y185000D01*
D12*
X114400Y380400D02*
X104400Y380400D01*
X104260Y380402D01*
X104120Y380408D01*
X103980Y380418D01*
X103840Y380431D01*
X103701Y380449D01*
X103562Y380471D01*
X103425Y380496D01*
X103287Y380525D01*
X103151Y380558D01*
X103016Y380595D01*
X102882Y380636D01*
X102749Y380681D01*
X102617Y380729D01*
X102487Y380781D01*
X102358Y380836D01*
X102231Y380895D01*
X102105Y380958D01*
X101981Y381024D01*
X101860Y381093D01*
X101740Y381166D01*
X101622Y381243D01*
X101507Y381322D01*
X101393Y381405D01*
X101283Y381491D01*
X101174Y381580D01*
X101068Y381672D01*
X100965Y381767D01*
X100864Y381864D01*
X100767Y381965D01*
X100672Y382068D01*
X100580Y382174D01*
X100491Y382283D01*
X100405Y382393D01*
X100322Y382507D01*
X100243Y382622D01*
X100166Y382740D01*
X100093Y382860D01*
X100024Y382981D01*
X99958Y383105D01*
X99895Y383231D01*
X99836Y383358D01*
X99781Y383487D01*
X99729Y383617D01*
X99681Y383749D01*
X99636Y383882D01*
X99595Y384016D01*
X99558Y384151D01*
X99525Y384287D01*
X99496Y384425D01*
X99471Y384562D01*
X99449Y384701D01*
X99431Y384840D01*
X99418Y384980D01*
X99408Y385120D01*
X99402Y385260D01*
X99400Y385400D01*
X99402Y385540D01*
X99408Y385680D01*
X99418Y385820D01*
X99431Y385960D01*
X99449Y386099D01*
X99471Y386238D01*
X99496Y386375D01*
X99525Y386513D01*
X99558Y386649D01*
X99595Y386784D01*
X99636Y386918D01*
X99681Y387051D01*
X99729Y387183D01*
X99781Y387313D01*
X99836Y387442D01*
X99895Y387569D01*
X99958Y387695D01*
X100024Y387819D01*
X100093Y387940D01*
X100166Y388060D01*
X100243Y388178D01*
X100322Y388293D01*
X100405Y388407D01*
X100491Y388517D01*
X100580Y388626D01*
X100672Y388732D01*
X100767Y388835D01*
X100864Y388936D01*
X100965Y389033D01*
X101068Y389128D01*
X101174Y389220D01*
X101283Y389309D01*
X101393Y389395D01*
X101507Y389478D01*
X101622Y389557D01*
X101740Y389634D01*
X101860Y389707D01*
X101981Y389776D01*
X102105Y389842D01*
X102231Y389905D01*
X102358Y389964D01*
X102487Y390019D01*
X102617Y390071D01*
X102749Y390119D01*
X102882Y390164D01*
X103016Y390205D01*
X103151Y390242D01*
X103287Y390275D01*
X103425Y390304D01*
X103562Y390329D01*
X103701Y390351D01*
X103840Y390369D01*
X103980Y390382D01*
X104120Y390392D01*
X104260Y390398D01*
X104400Y390400D01*
X114400Y390400D01*
X114540Y390398D01*
X114680Y390392D01*
X114820Y390382D01*
X114960Y390369D01*
X115099Y390351D01*
X115238Y390329D01*
X115375Y390304D01*
X115513Y390275D01*
X115649Y390242D01*
X115784Y390205D01*
X115918Y390164D01*
X116051Y390119D01*
X116183Y390071D01*
X116313Y390019D01*
X116442Y389964D01*
X116569Y389905D01*
X116695Y389842D01*
X116819Y389776D01*
X116940Y389707D01*
X117060Y389634D01*
X117178Y389557D01*
X117293Y389478D01*
X117407Y389395D01*
X117517Y389309D01*
X117626Y389220D01*
X117732Y389128D01*
X117835Y389033D01*
X117936Y388936D01*
X118033Y388835D01*
X118128Y388732D01*
X118220Y388626D01*
X118309Y388517D01*
X118395Y388407D01*
X118478Y388293D01*
X118557Y388178D01*
X118634Y388060D01*
X118707Y387940D01*
X118776Y387819D01*
X118842Y387695D01*
X118905Y387569D01*
X118964Y387442D01*
X119019Y387313D01*
X119071Y387183D01*
X119119Y387051D01*
X119164Y386918D01*
X119205Y386784D01*
X119242Y386649D01*
X119275Y386513D01*
X119304Y386375D01*
X119329Y386238D01*
X119351Y386099D01*
X119369Y385960D01*
X119382Y385820D01*
X119392Y385680D01*
X119398Y385540D01*
X119400Y385400D01*
X119398Y385260D01*
X119392Y385120D01*
X119382Y384980D01*
X119369Y384840D01*
X119351Y384701D01*
X119329Y384562D01*
X119304Y384425D01*
X119275Y384287D01*
X119242Y384151D01*
X119205Y384016D01*
X119164Y383882D01*
X119119Y383749D01*
X119071Y383617D01*
X119019Y383487D01*
X118964Y383358D01*
X118905Y383231D01*
X118842Y383105D01*
X118776Y382981D01*
X118707Y382860D01*
X118634Y382740D01*
X118557Y382622D01*
X118478Y382507D01*
X118395Y382393D01*
X118309Y382283D01*
X118220Y382174D01*
X118128Y382068D01*
X118033Y381965D01*
X117936Y381864D01*
X117835Y381767D01*
X117732Y381672D01*
X117626Y381580D01*
X117517Y381491D01*
X117407Y381405D01*
X117293Y381322D01*
X117178Y381243D01*
X117060Y381166D01*
X116940Y381093D01*
X116819Y381024D01*
X116695Y380958D01*
X116569Y380895D01*
X116442Y380836D01*
X116313Y380781D01*
X116183Y380729D01*
X116051Y380681D01*
X115918Y380636D01*
X115784Y380595D01*
X115649Y380558D01*
X115513Y380525D01*
X115375Y380496D01*
X115238Y380471D01*
X115099Y380449D01*
X114960Y380431D01*
X114820Y380418D01*
X114680Y380408D01*
X114540Y380402D01*
X114400Y380400D01*
X115000Y330700D02*
X105000Y330700D01*
X104860Y330702D01*
X104720Y330708D01*
X104580Y330718D01*
X104440Y330731D01*
X104301Y330749D01*
X104162Y330771D01*
X104025Y330796D01*
X103887Y330825D01*
X103751Y330858D01*
X103616Y330895D01*
X103482Y330936D01*
X103349Y330981D01*
X103217Y331029D01*
X103087Y331081D01*
X102958Y331136D01*
X102831Y331195D01*
X102705Y331258D01*
X102581Y331324D01*
X102460Y331393D01*
X102340Y331466D01*
X102222Y331543D01*
X102107Y331622D01*
X101993Y331705D01*
X101883Y331791D01*
X101774Y331880D01*
X101668Y331972D01*
X101565Y332067D01*
X101464Y332164D01*
X101367Y332265D01*
X101272Y332368D01*
X101180Y332474D01*
X101091Y332583D01*
X101005Y332693D01*
X100922Y332807D01*
X100843Y332922D01*
X100766Y333040D01*
X100693Y333160D01*
X100624Y333281D01*
X100558Y333405D01*
X100495Y333531D01*
X100436Y333658D01*
X100381Y333787D01*
X100329Y333917D01*
X100281Y334049D01*
X100236Y334182D01*
X100195Y334316D01*
X100158Y334451D01*
X100125Y334587D01*
X100096Y334725D01*
X100071Y334862D01*
X100049Y335001D01*
X100031Y335140D01*
X100018Y335280D01*
X100008Y335420D01*
X100002Y335560D01*
X100000Y335700D01*
X100002Y335840D01*
X100008Y335980D01*
X100018Y336120D01*
X100031Y336260D01*
X100049Y336399D01*
X100071Y336538D01*
X100096Y336675D01*
X100125Y336813D01*
X100158Y336949D01*
X100195Y337084D01*
X100236Y337218D01*
X100281Y337351D01*
X100329Y337483D01*
X100381Y337613D01*
X100436Y337742D01*
X100495Y337869D01*
X100558Y337995D01*
X100624Y338119D01*
X100693Y338240D01*
X100766Y338360D01*
X100843Y338478D01*
X100922Y338593D01*
X101005Y338707D01*
X101091Y338817D01*
X101180Y338926D01*
X101272Y339032D01*
X101367Y339135D01*
X101464Y339236D01*
X101565Y339333D01*
X101668Y339428D01*
X101774Y339520D01*
X101883Y339609D01*
X101993Y339695D01*
X102107Y339778D01*
X102222Y339857D01*
X102340Y339934D01*
X102460Y340007D01*
X102581Y340076D01*
X102705Y340142D01*
X102831Y340205D01*
X102958Y340264D01*
X103087Y340319D01*
X103217Y340371D01*
X103349Y340419D01*
X103482Y340464D01*
X103616Y340505D01*
X103751Y340542D01*
X103887Y340575D01*
X104025Y340604D01*
X104162Y340629D01*
X104301Y340651D01*
X104440Y340669D01*
X104580Y340682D01*
X104720Y340692D01*
X104860Y340698D01*
X105000Y340700D01*
X115000Y340700D01*
X115140Y340698D01*
X115280Y340692D01*
X115420Y340682D01*
X115560Y340669D01*
X115699Y340651D01*
X115838Y340629D01*
X115975Y340604D01*
X116113Y340575D01*
X116249Y340542D01*
X116384Y340505D01*
X116518Y340464D01*
X116651Y340419D01*
X116783Y340371D01*
X116913Y340319D01*
X117042Y340264D01*
X117169Y340205D01*
X117295Y340142D01*
X117419Y340076D01*
X117540Y340007D01*
X117660Y339934D01*
X117778Y339857D01*
X117893Y339778D01*
X118007Y339695D01*
X118117Y339609D01*
X118226Y339520D01*
X118332Y339428D01*
X118435Y339333D01*
X118536Y339236D01*
X118633Y339135D01*
X118728Y339032D01*
X118820Y338926D01*
X118909Y338817D01*
X118995Y338707D01*
X119078Y338593D01*
X119157Y338478D01*
X119234Y338360D01*
X119307Y338240D01*
X119376Y338119D01*
X119442Y337995D01*
X119505Y337869D01*
X119564Y337742D01*
X119619Y337613D01*
X119671Y337483D01*
X119719Y337351D01*
X119764Y337218D01*
X119805Y337084D01*
X119842Y336949D01*
X119875Y336813D01*
X119904Y336675D01*
X119929Y336538D01*
X119951Y336399D01*
X119969Y336260D01*
X119982Y336120D01*
X119992Y335980D01*
X119998Y335840D01*
X120000Y335700D01*
X119998Y335560D01*
X119992Y335420D01*
X119982Y335280D01*
X119969Y335140D01*
X119951Y335001D01*
X119929Y334862D01*
X119904Y334725D01*
X119875Y334587D01*
X119842Y334451D01*
X119805Y334316D01*
X119764Y334182D01*
X119719Y334049D01*
X119671Y333917D01*
X119619Y333787D01*
X119564Y333658D01*
X119505Y333531D01*
X119442Y333405D01*
X119376Y333281D01*
X119307Y333160D01*
X119234Y333040D01*
X119157Y332922D01*
X119078Y332807D01*
X118995Y332693D01*
X118909Y332583D01*
X118820Y332474D01*
X118728Y332368D01*
X118633Y332265D01*
X118536Y332164D01*
X118435Y332067D01*
X118332Y331972D01*
X118226Y331880D01*
X118117Y331791D01*
X118007Y331705D01*
X117893Y331622D01*
X117778Y331543D01*
X117660Y331466D01*
X117540Y331393D01*
X117419Y331324D01*
X117295Y331258D01*
X117169Y331195D01*
X117042Y331136D01*
X116913Y331081D01*
X116783Y331029D01*
X116651Y330981D01*
X116518Y330936D01*
X116384Y330895D01*
X116249Y330858D01*
X116113Y330825D01*
X115975Y330796D01*
X115838Y330771D01*
X115699Y330749D01*
X115560Y330731D01*
X115420Y330718D01*
X115280Y330708D01*
X115140Y330702D01*
X115000Y330700D01*
X80000Y330700D02*
X79860Y330702D01*
X79720Y330708D01*
X79580Y330718D01*
X79440Y330731D01*
X79301Y330749D01*
X79162Y330771D01*
X79025Y330796D01*
X78887Y330825D01*
X78751Y330858D01*
X78616Y330895D01*
X78482Y330936D01*
X78349Y330981D01*
X78217Y331029D01*
X78087Y331081D01*
X77958Y331136D01*
X77831Y331195D01*
X77705Y331258D01*
X77581Y331324D01*
X77460Y331393D01*
X77340Y331466D01*
X77222Y331543D01*
X77107Y331622D01*
X76993Y331705D01*
X76883Y331791D01*
X76774Y331880D01*
X76668Y331972D01*
X76565Y332067D01*
X76464Y332164D01*
X76367Y332265D01*
X76272Y332368D01*
X76180Y332474D01*
X76091Y332583D01*
X76005Y332693D01*
X75922Y332807D01*
X75843Y332922D01*
X75766Y333040D01*
X75693Y333160D01*
X75624Y333281D01*
X75558Y333405D01*
X75495Y333531D01*
X75436Y333658D01*
X75381Y333787D01*
X75329Y333917D01*
X75281Y334049D01*
X75236Y334182D01*
X75195Y334316D01*
X75158Y334451D01*
X75125Y334587D01*
X75096Y334725D01*
X75071Y334862D01*
X75049Y335001D01*
X75031Y335140D01*
X75018Y335280D01*
X75008Y335420D01*
X75002Y335560D01*
X75000Y335700D01*
X75002Y335840D01*
X75008Y335980D01*
X75018Y336120D01*
X75031Y336260D01*
X75049Y336399D01*
X75071Y336538D01*
X75096Y336675D01*
X75125Y336813D01*
X75158Y336949D01*
X75195Y337084D01*
X75236Y337218D01*
X75281Y337351D01*
X75329Y337483D01*
X75381Y337613D01*
X75436Y337742D01*
X75495Y337869D01*
X75558Y337995D01*
X75624Y338119D01*
X75693Y338240D01*
X75766Y338360D01*
X75843Y338478D01*
X75922Y338593D01*
X76005Y338707D01*
X76091Y338817D01*
X76180Y338926D01*
X76272Y339032D01*
X76367Y339135D01*
X76464Y339236D01*
X76565Y339333D01*
X76668Y339428D01*
X76774Y339520D01*
X76883Y339609D01*
X76993Y339695D01*
X77107Y339778D01*
X77222Y339857D01*
X77340Y339934D01*
X77460Y340007D01*
X77581Y340076D01*
X77705Y340142D01*
X77831Y340205D01*
X77958Y340264D01*
X78087Y340319D01*
X78217Y340371D01*
X78349Y340419D01*
X78482Y340464D01*
X78616Y340505D01*
X78751Y340542D01*
X78887Y340575D01*
X79025Y340604D01*
X79162Y340629D01*
X79301Y340651D01*
X79440Y340669D01*
X79580Y340682D01*
X79720Y340692D01*
X79860Y340698D01*
X80000Y340700D01*
X80140Y340698D01*
X80280Y340692D01*
X80420Y340682D01*
X80560Y340669D01*
X80699Y340651D01*
X80838Y340629D01*
X80975Y340604D01*
X81113Y340575D01*
X81249Y340542D01*
X81384Y340505D01*
X81518Y340464D01*
X81651Y340419D01*
X81783Y340371D01*
X81913Y340319D01*
X82042Y340264D01*
X82169Y340205D01*
X82295Y340142D01*
X82419Y340076D01*
X82540Y340007D01*
X82660Y339934D01*
X82778Y339857D01*
X82893Y339778D01*
X83007Y339695D01*
X83117Y339609D01*
X83226Y339520D01*
X83332Y339428D01*
X83435Y339333D01*
X83536Y339236D01*
X83633Y339135D01*
X83728Y339032D01*
X83820Y338926D01*
X83909Y338817D01*
X83995Y338707D01*
X84078Y338593D01*
X84157Y338478D01*
X84234Y338360D01*
X84307Y338240D01*
X84376Y338119D01*
X84442Y337995D01*
X84505Y337869D01*
X84564Y337742D01*
X84619Y337613D01*
X84671Y337483D01*
X84719Y337351D01*
X84764Y337218D01*
X84805Y337084D01*
X84842Y336949D01*
X84875Y336813D01*
X84904Y336675D01*
X84929Y336538D01*
X84951Y336399D01*
X84969Y336260D01*
X84982Y336120D01*
X84992Y335980D01*
X84998Y335840D01*
X85000Y335700D01*
X84998Y335560D01*
X84992Y335420D01*
X84982Y335280D01*
X84969Y335140D01*
X84951Y335001D01*
X84929Y334862D01*
X84904Y334725D01*
X84875Y334587D01*
X84842Y334451D01*
X84805Y334316D01*
X84764Y334182D01*
X84719Y334049D01*
X84671Y333917D01*
X84619Y333787D01*
X84564Y333658D01*
X84505Y333531D01*
X84442Y333405D01*
X84376Y333281D01*
X84307Y333160D01*
X84234Y333040D01*
X84157Y332922D01*
X84078Y332807D01*
X83995Y332693D01*
X83909Y332583D01*
X83820Y332474D01*
X83728Y332368D01*
X83633Y332265D01*
X83536Y332164D01*
X83435Y332067D01*
X83332Y331972D01*
X83226Y331880D01*
X83117Y331791D01*
X83007Y331705D01*
X82893Y331622D01*
X82778Y331543D01*
X82660Y331466D01*
X82540Y331393D01*
X82419Y331324D01*
X82295Y331258D01*
X82169Y331195D01*
X82042Y331136D01*
X81913Y331081D01*
X81783Y331029D01*
X81651Y330981D01*
X81518Y330936D01*
X81384Y330895D01*
X81249Y330858D01*
X81113Y330825D01*
X80975Y330796D01*
X80838Y330771D01*
X80699Y330749D01*
X80560Y330731D01*
X80420Y330718D01*
X80280Y330708D01*
X80140Y330702D01*
X80000Y330700D01*
X140000Y330700D02*
X139860Y330702D01*
X139720Y330708D01*
X139580Y330718D01*
X139440Y330731D01*
X139301Y330749D01*
X139162Y330771D01*
X139025Y330796D01*
X138887Y330825D01*
X138751Y330858D01*
X138616Y330895D01*
X138482Y330936D01*
X138349Y330981D01*
X138217Y331029D01*
X138087Y331081D01*
X137958Y331136D01*
X137831Y331195D01*
X137705Y331258D01*
X137581Y331324D01*
X137460Y331393D01*
X137340Y331466D01*
X137222Y331543D01*
X137107Y331622D01*
X136993Y331705D01*
X136883Y331791D01*
X136774Y331880D01*
X136668Y331972D01*
X136565Y332067D01*
X136464Y332164D01*
X136367Y332265D01*
X136272Y332368D01*
X136180Y332474D01*
X136091Y332583D01*
X136005Y332693D01*
X135922Y332807D01*
X135843Y332922D01*
X135766Y333040D01*
X135693Y333160D01*
X135624Y333281D01*
X135558Y333405D01*
X135495Y333531D01*
X135436Y333658D01*
X135381Y333787D01*
X135329Y333917D01*
X135281Y334049D01*
X135236Y334182D01*
X135195Y334316D01*
X135158Y334451D01*
X135125Y334587D01*
X135096Y334725D01*
X135071Y334862D01*
X135049Y335001D01*
X135031Y335140D01*
X135018Y335280D01*
X135008Y335420D01*
X135002Y335560D01*
X135000Y335700D01*
X135002Y335840D01*
X135008Y335980D01*
X135018Y336120D01*
X135031Y336260D01*
X135049Y336399D01*
X135071Y336538D01*
X135096Y336675D01*
X135125Y336813D01*
X135158Y336949D01*
X135195Y337084D01*
X135236Y337218D01*
X135281Y337351D01*
X135329Y337483D01*
X135381Y337613D01*
X135436Y337742D01*
X135495Y337869D01*
X135558Y337995D01*
X135624Y338119D01*
X135693Y338240D01*
X135766Y338360D01*
X135843Y338478D01*
X135922Y338593D01*
X136005Y338707D01*
X136091Y338817D01*
X136180Y338926D01*
X136272Y339032D01*
X136367Y339135D01*
X136464Y339236D01*
X136565Y339333D01*
X136668Y339428D01*
X136774Y339520D01*
X136883Y339609D01*
X136993Y339695D01*
X137107Y339778D01*
X137222Y339857D01*
X137340Y339934D01*
X137460Y340007D01*
X137581Y340076D01*
X137705Y340142D01*
X137831Y340205D01*
X137958Y340264D01*
X138087Y340319D01*
X138217Y340371D01*
X138349Y340419D01*
X138482Y340464D01*
X138616Y340505D01*
X138751Y340542D01*
X138887Y340575D01*
X139025Y340604D01*
X139162Y340629D01*
X139301Y340651D01*
X139440Y340669D01*
X139580Y340682D01*
X139720Y340692D01*
X139860Y340698D01*
X140000Y340700D01*
X140140Y340698D01*
X140280Y340692D01*
X140420Y340682D01*
X140560Y340669D01*
X140699Y340651D01*
X140838Y340629D01*
X140975Y340604D01*
X141113Y340575D01*
X141249Y340542D01*
X141384Y340505D01*
X141518Y340464D01*
X141651Y340419D01*
X141783Y340371D01*
X141913Y340319D01*
X142042Y340264D01*
X142169Y340205D01*
X142295Y340142D01*
X142419Y340076D01*
X142540Y340007D01*
X142660Y339934D01*
X142778Y339857D01*
X142893Y339778D01*
X143007Y339695D01*
X143117Y339609D01*
X143226Y339520D01*
X143332Y339428D01*
X143435Y339333D01*
X143536Y339236D01*
X143633Y339135D01*
X143728Y339032D01*
X143820Y338926D01*
X143909Y338817D01*
X143995Y338707D01*
X144078Y338593D01*
X144157Y338478D01*
X144234Y338360D01*
X144307Y338240D01*
X144376Y338119D01*
X144442Y337995D01*
X144505Y337869D01*
X144564Y337742D01*
X144619Y337613D01*
X144671Y337483D01*
X144719Y337351D01*
X144764Y337218D01*
X144805Y337084D01*
X144842Y336949D01*
X144875Y336813D01*
X144904Y336675D01*
X144929Y336538D01*
X144951Y336399D01*
X144969Y336260D01*
X144982Y336120D01*
X144992Y335980D01*
X144998Y335840D01*
X145000Y335700D01*
X144998Y335560D01*
X144992Y335420D01*
X144982Y335280D01*
X144969Y335140D01*
X144951Y335001D01*
X144929Y334862D01*
X144904Y334725D01*
X144875Y334587D01*
X144842Y334451D01*
X144805Y334316D01*
X144764Y334182D01*
X144719Y334049D01*
X144671Y333917D01*
X144619Y333787D01*
X144564Y333658D01*
X144505Y333531D01*
X144442Y333405D01*
X144376Y333281D01*
X144307Y333160D01*
X144234Y333040D01*
X144157Y332922D01*
X144078Y332807D01*
X143995Y332693D01*
X143909Y332583D01*
X143820Y332474D01*
X143728Y332368D01*
X143633Y332265D01*
X143536Y332164D01*
X143435Y332067D01*
X143332Y331972D01*
X143226Y331880D01*
X143117Y331791D01*
X143007Y331705D01*
X142893Y331622D01*
X142778Y331543D01*
X142660Y331466D01*
X142540Y331393D01*
X142419Y331324D01*
X142295Y331258D01*
X142169Y331195D01*
X142042Y331136D01*
X141913Y331081D01*
X141783Y331029D01*
X141651Y330981D01*
X141518Y330936D01*
X141384Y330895D01*
X141249Y330858D01*
X141113Y330825D01*
X140975Y330796D01*
X140838Y330771D01*
X140699Y330749D01*
X140560Y330731D01*
X140420Y330718D01*
X140280Y330708D01*
X140140Y330702D01*
X140000Y330700D01*
X115400Y279500D02*
X105400Y279500D01*
X105260Y279502D01*
X105120Y279508D01*
X104980Y279518D01*
X104840Y279531D01*
X104701Y279549D01*
X104562Y279571D01*
X104425Y279596D01*
X104287Y279625D01*
X104151Y279658D01*
X104016Y279695D01*
X103882Y279736D01*
X103749Y279781D01*
X103617Y279829D01*
X103487Y279881D01*
X103358Y279936D01*
X103231Y279995D01*
X103105Y280058D01*
X102981Y280124D01*
X102860Y280193D01*
X102740Y280266D01*
X102622Y280343D01*
X102507Y280422D01*
X102393Y280505D01*
X102283Y280591D01*
X102174Y280680D01*
X102068Y280772D01*
X101965Y280867D01*
X101864Y280964D01*
X101767Y281065D01*
X101672Y281168D01*
X101580Y281274D01*
X101491Y281383D01*
X101405Y281493D01*
X101322Y281607D01*
X101243Y281722D01*
X101166Y281840D01*
X101093Y281960D01*
X101024Y282081D01*
X100958Y282205D01*
X100895Y282331D01*
X100836Y282458D01*
X100781Y282587D01*
X100729Y282717D01*
X100681Y282849D01*
X100636Y282982D01*
X100595Y283116D01*
X100558Y283251D01*
X100525Y283387D01*
X100496Y283525D01*
X100471Y283662D01*
X100449Y283801D01*
X100431Y283940D01*
X100418Y284080D01*
X100408Y284220D01*
X100402Y284360D01*
X100400Y284500D01*
X100402Y284640D01*
X100408Y284780D01*
X100418Y284920D01*
X100431Y285060D01*
X100449Y285199D01*
X100471Y285338D01*
X100496Y285475D01*
X100525Y285613D01*
X100558Y285749D01*
X100595Y285884D01*
X100636Y286018D01*
X100681Y286151D01*
X100729Y286283D01*
X100781Y286413D01*
X100836Y286542D01*
X100895Y286669D01*
X100958Y286795D01*
X101024Y286919D01*
X101093Y287040D01*
X101166Y287160D01*
X101243Y287278D01*
X101322Y287393D01*
X101405Y287507D01*
X101491Y287617D01*
X101580Y287726D01*
X101672Y287832D01*
X101767Y287935D01*
X101864Y288036D01*
X101965Y288133D01*
X102068Y288228D01*
X102174Y288320D01*
X102283Y288409D01*
X102393Y288495D01*
X102507Y288578D01*
X102622Y288657D01*
X102740Y288734D01*
X102860Y288807D01*
X102981Y288876D01*
X103105Y288942D01*
X103231Y289005D01*
X103358Y289064D01*
X103487Y289119D01*
X103617Y289171D01*
X103749Y289219D01*
X103882Y289264D01*
X104016Y289305D01*
X104151Y289342D01*
X104287Y289375D01*
X104425Y289404D01*
X104562Y289429D01*
X104701Y289451D01*
X104840Y289469D01*
X104980Y289482D01*
X105120Y289492D01*
X105260Y289498D01*
X105400Y289500D01*
X115400Y289500D01*
X115540Y289498D01*
X115680Y289492D01*
X115820Y289482D01*
X115960Y289469D01*
X116099Y289451D01*
X116238Y289429D01*
X116375Y289404D01*
X116513Y289375D01*
X116649Y289342D01*
X116784Y289305D01*
X116918Y289264D01*
X117051Y289219D01*
X117183Y289171D01*
X117313Y289119D01*
X117442Y289064D01*
X117569Y289005D01*
X117695Y288942D01*
X117819Y288876D01*
X117940Y288807D01*
X118060Y288734D01*
X118178Y288657D01*
X118293Y288578D01*
X118407Y288495D01*
X118517Y288409D01*
X118626Y288320D01*
X118732Y288228D01*
X118835Y288133D01*
X118936Y288036D01*
X119033Y287935D01*
X119128Y287832D01*
X119220Y287726D01*
X119309Y287617D01*
X119395Y287507D01*
X119478Y287393D01*
X119557Y287278D01*
X119634Y287160D01*
X119707Y287040D01*
X119776Y286919D01*
X119842Y286795D01*
X119905Y286669D01*
X119964Y286542D01*
X120019Y286413D01*
X120071Y286283D01*
X120119Y286151D01*
X120164Y286018D01*
X120205Y285884D01*
X120242Y285749D01*
X120275Y285613D01*
X120304Y285475D01*
X120329Y285338D01*
X120351Y285199D01*
X120369Y285060D01*
X120382Y284920D01*
X120392Y284780D01*
X120398Y284640D01*
X120400Y284500D01*
X120398Y284360D01*
X120392Y284220D01*
X120382Y284080D01*
X120369Y283940D01*
X120351Y283801D01*
X120329Y283662D01*
X120304Y283525D01*
X120275Y283387D01*
X120242Y283251D01*
X120205Y283116D01*
X120164Y282982D01*
X120119Y282849D01*
X120071Y282717D01*
X120019Y282587D01*
X119964Y282458D01*
X119905Y282331D01*
X119842Y282205D01*
X119776Y282081D01*
X119707Y281960D01*
X119634Y281840D01*
X119557Y281722D01*
X119478Y281607D01*
X119395Y281493D01*
X119309Y281383D01*
X119220Y281274D01*
X119128Y281168D01*
X119033Y281065D01*
X118936Y280964D01*
X118835Y280867D01*
X118732Y280772D01*
X118626Y280680D01*
X118517Y280591D01*
X118407Y280505D01*
X118293Y280422D01*
X118178Y280343D01*
X118060Y280266D01*
X117940Y280193D01*
X117819Y280124D01*
X117695Y280058D01*
X117569Y279995D01*
X117442Y279936D01*
X117313Y279881D01*
X117183Y279829D01*
X117051Y279781D01*
X116918Y279736D01*
X116784Y279695D01*
X116649Y279658D01*
X116513Y279625D01*
X116375Y279596D01*
X116238Y279571D01*
X116099Y279549D01*
X115960Y279531D01*
X115820Y279518D01*
X115680Y279508D01*
X115540Y279502D01*
X115400Y279500D01*
X67700Y279500D02*
X67560Y279502D01*
X67420Y279508D01*
X67280Y279518D01*
X67140Y279531D01*
X67001Y279549D01*
X66862Y279571D01*
X66725Y279596D01*
X66587Y279625D01*
X66451Y279658D01*
X66316Y279695D01*
X66182Y279736D01*
X66049Y279781D01*
X65917Y279829D01*
X65787Y279881D01*
X65658Y279936D01*
X65531Y279995D01*
X65405Y280058D01*
X65281Y280124D01*
X65160Y280193D01*
X65040Y280266D01*
X64922Y280343D01*
X64807Y280422D01*
X64693Y280505D01*
X64583Y280591D01*
X64474Y280680D01*
X64368Y280772D01*
X64265Y280867D01*
X64164Y280964D01*
X64067Y281065D01*
X63972Y281168D01*
X63880Y281274D01*
X63791Y281383D01*
X63705Y281493D01*
X63622Y281607D01*
X63543Y281722D01*
X63466Y281840D01*
X63393Y281960D01*
X63324Y282081D01*
X63258Y282205D01*
X63195Y282331D01*
X63136Y282458D01*
X63081Y282587D01*
X63029Y282717D01*
X62981Y282849D01*
X62936Y282982D01*
X62895Y283116D01*
X62858Y283251D01*
X62825Y283387D01*
X62796Y283525D01*
X62771Y283662D01*
X62749Y283801D01*
X62731Y283940D01*
X62718Y284080D01*
X62708Y284220D01*
X62702Y284360D01*
X62700Y284500D01*
X62702Y284640D01*
X62708Y284780D01*
X62718Y284920D01*
X62731Y285060D01*
X62749Y285199D01*
X62771Y285338D01*
X62796Y285475D01*
X62825Y285613D01*
X62858Y285749D01*
X62895Y285884D01*
X62936Y286018D01*
X62981Y286151D01*
X63029Y286283D01*
X63081Y286413D01*
X63136Y286542D01*
X63195Y286669D01*
X63258Y286795D01*
X63324Y286919D01*
X63393Y287040D01*
X63466Y287160D01*
X63543Y287278D01*
X63622Y287393D01*
X63705Y287507D01*
X63791Y287617D01*
X63880Y287726D01*
X63972Y287832D01*
X64067Y287935D01*
X64164Y288036D01*
X64265Y288133D01*
X64368Y288228D01*
X64474Y288320D01*
X64583Y288409D01*
X64693Y288495D01*
X64807Y288578D01*
X64922Y288657D01*
X65040Y288734D01*
X65160Y288807D01*
X65281Y288876D01*
X65405Y288942D01*
X65531Y289005D01*
X65658Y289064D01*
X65787Y289119D01*
X65917Y289171D01*
X66049Y289219D01*
X66182Y289264D01*
X66316Y289305D01*
X66451Y289342D01*
X66587Y289375D01*
X66725Y289404D01*
X66862Y289429D01*
X67001Y289451D01*
X67140Y289469D01*
X67280Y289482D01*
X67420Y289492D01*
X67560Y289498D01*
X67700Y289500D01*
X67840Y289498D01*
X67980Y289492D01*
X68120Y289482D01*
X68260Y289469D01*
X68399Y289451D01*
X68538Y289429D01*
X68675Y289404D01*
X68813Y289375D01*
X68949Y289342D01*
X69084Y289305D01*
X69218Y289264D01*
X69351Y289219D01*
X69483Y289171D01*
X69613Y289119D01*
X69742Y289064D01*
X69869Y289005D01*
X69995Y288942D01*
X70119Y288876D01*
X70240Y288807D01*
X70360Y288734D01*
X70478Y288657D01*
X70593Y288578D01*
X70707Y288495D01*
X70817Y288409D01*
X70926Y288320D01*
X71032Y288228D01*
X71135Y288133D01*
X71236Y288036D01*
X71333Y287935D01*
X71428Y287832D01*
X71520Y287726D01*
X71609Y287617D01*
X71695Y287507D01*
X71778Y287393D01*
X71857Y287278D01*
X71934Y287160D01*
X72007Y287040D01*
X72076Y286919D01*
X72142Y286795D01*
X72205Y286669D01*
X72264Y286542D01*
X72319Y286413D01*
X72371Y286283D01*
X72419Y286151D01*
X72464Y286018D01*
X72505Y285884D01*
X72542Y285749D01*
X72575Y285613D01*
X72604Y285475D01*
X72629Y285338D01*
X72651Y285199D01*
X72669Y285060D01*
X72682Y284920D01*
X72692Y284780D01*
X72698Y284640D01*
X72700Y284500D01*
X72698Y284360D01*
X72692Y284220D01*
X72682Y284080D01*
X72669Y283940D01*
X72651Y283801D01*
X72629Y283662D01*
X72604Y283525D01*
X72575Y283387D01*
X72542Y283251D01*
X72505Y283116D01*
X72464Y282982D01*
X72419Y282849D01*
X72371Y282717D01*
X72319Y282587D01*
X72264Y282458D01*
X72205Y282331D01*
X72142Y282205D01*
X72076Y282081D01*
X72007Y281960D01*
X71934Y281840D01*
X71857Y281722D01*
X71778Y281607D01*
X71695Y281493D01*
X71609Y281383D01*
X71520Y281274D01*
X71428Y281168D01*
X71333Y281065D01*
X71236Y280964D01*
X71135Y280867D01*
X71032Y280772D01*
X70926Y280680D01*
X70817Y280591D01*
X70707Y280505D01*
X70593Y280422D01*
X70478Y280343D01*
X70360Y280266D01*
X70240Y280193D01*
X70119Y280124D01*
X69995Y280058D01*
X69869Y279995D01*
X69742Y279936D01*
X69613Y279881D01*
X69483Y279829D01*
X69351Y279781D01*
X69218Y279736D01*
X69084Y279695D01*
X68949Y279658D01*
X68813Y279625D01*
X68675Y279596D01*
X68538Y279571D01*
X68399Y279549D01*
X68260Y279531D01*
X68120Y279518D01*
X67980Y279508D01*
X67840Y279502D01*
X67700Y279500D01*
X153100Y279500D02*
X152960Y279502D01*
X152820Y279508D01*
X152680Y279518D01*
X152540Y279531D01*
X152401Y279549D01*
X152262Y279571D01*
X152125Y279596D01*
X151987Y279625D01*
X151851Y279658D01*
X151716Y279695D01*
X151582Y279736D01*
X151449Y279781D01*
X151317Y279829D01*
X151187Y279881D01*
X151058Y279936D01*
X150931Y279995D01*
X150805Y280058D01*
X150681Y280124D01*
X150560Y280193D01*
X150440Y280266D01*
X150322Y280343D01*
X150207Y280422D01*
X150093Y280505D01*
X149983Y280591D01*
X149874Y280680D01*
X149768Y280772D01*
X149665Y280867D01*
X149564Y280964D01*
X149467Y281065D01*
X149372Y281168D01*
X149280Y281274D01*
X149191Y281383D01*
X149105Y281493D01*
X149022Y281607D01*
X148943Y281722D01*
X148866Y281840D01*
X148793Y281960D01*
X148724Y282081D01*
X148658Y282205D01*
X148595Y282331D01*
X148536Y282458D01*
X148481Y282587D01*
X148429Y282717D01*
X148381Y282849D01*
X148336Y282982D01*
X148295Y283116D01*
X148258Y283251D01*
X148225Y283387D01*
X148196Y283525D01*
X148171Y283662D01*
X148149Y283801D01*
X148131Y283940D01*
X148118Y284080D01*
X148108Y284220D01*
X148102Y284360D01*
X148100Y284500D01*
X148102Y284640D01*
X148108Y284780D01*
X148118Y284920D01*
X148131Y285060D01*
X148149Y285199D01*
X148171Y285338D01*
X148196Y285475D01*
X148225Y285613D01*
X148258Y285749D01*
X148295Y285884D01*
X148336Y286018D01*
X148381Y286151D01*
X148429Y286283D01*
X148481Y286413D01*
X148536Y286542D01*
X148595Y286669D01*
X148658Y286795D01*
X148724Y286919D01*
X148793Y287040D01*
X148866Y287160D01*
X148943Y287278D01*
X149022Y287393D01*
X149105Y287507D01*
X149191Y287617D01*
X149280Y287726D01*
X149372Y287832D01*
X149467Y287935D01*
X149564Y288036D01*
X149665Y288133D01*
X149768Y288228D01*
X149874Y288320D01*
X149983Y288409D01*
X150093Y288495D01*
X150207Y288578D01*
X150322Y288657D01*
X150440Y288734D01*
X150560Y288807D01*
X150681Y288876D01*
X150805Y288942D01*
X150931Y289005D01*
X151058Y289064D01*
X151187Y289119D01*
X151317Y289171D01*
X151449Y289219D01*
X151582Y289264D01*
X151716Y289305D01*
X151851Y289342D01*
X151987Y289375D01*
X152125Y289404D01*
X152262Y289429D01*
X152401Y289451D01*
X152540Y289469D01*
X152680Y289482D01*
X152820Y289492D01*
X152960Y289498D01*
X153100Y289500D01*
X153240Y289498D01*
X153380Y289492D01*
X153520Y289482D01*
X153660Y289469D01*
X153799Y289451D01*
X153938Y289429D01*
X154075Y289404D01*
X154213Y289375D01*
X154349Y289342D01*
X154484Y289305D01*
X154618Y289264D01*
X154751Y289219D01*
X154883Y289171D01*
X155013Y289119D01*
X155142Y289064D01*
X155269Y289005D01*
X155395Y288942D01*
X155519Y288876D01*
X155640Y288807D01*
X155760Y288734D01*
X155878Y288657D01*
X155993Y288578D01*
X156107Y288495D01*
X156217Y288409D01*
X156326Y288320D01*
X156432Y288228D01*
X156535Y288133D01*
X156636Y288036D01*
X156733Y287935D01*
X156828Y287832D01*
X156920Y287726D01*
X157009Y287617D01*
X157095Y287507D01*
X157178Y287393D01*
X157257Y287278D01*
X157334Y287160D01*
X157407Y287040D01*
X157476Y286919D01*
X157542Y286795D01*
X157605Y286669D01*
X157664Y286542D01*
X157719Y286413D01*
X157771Y286283D01*
X157819Y286151D01*
X157864Y286018D01*
X157905Y285884D01*
X157942Y285749D01*
X157975Y285613D01*
X158004Y285475D01*
X158029Y285338D01*
X158051Y285199D01*
X158069Y285060D01*
X158082Y284920D01*
X158092Y284780D01*
X158098Y284640D01*
X158100Y284500D01*
X158098Y284360D01*
X158092Y284220D01*
X158082Y284080D01*
X158069Y283940D01*
X158051Y283801D01*
X158029Y283662D01*
X158004Y283525D01*
X157975Y283387D01*
X157942Y283251D01*
X157905Y283116D01*
X157864Y282982D01*
X157819Y282849D01*
X157771Y282717D01*
X157719Y282587D01*
X157664Y282458D01*
X157605Y282331D01*
X157542Y282205D01*
X157476Y282081D01*
X157407Y281960D01*
X157334Y281840D01*
X157257Y281722D01*
X157178Y281607D01*
X157095Y281493D01*
X157009Y281383D01*
X156920Y281274D01*
X156828Y281168D01*
X156733Y281065D01*
X156636Y280964D01*
X156535Y280867D01*
X156432Y280772D01*
X156326Y280680D01*
X156217Y280591D01*
X156107Y280505D01*
X155993Y280422D01*
X155878Y280343D01*
X155760Y280266D01*
X155640Y280193D01*
X155519Y280124D01*
X155395Y280058D01*
X155269Y279995D01*
X155142Y279936D01*
X155013Y279881D01*
X154883Y279829D01*
X154751Y279781D01*
X154618Y279736D01*
X154484Y279695D01*
X154349Y279658D01*
X154213Y279625D01*
X154075Y279596D01*
X153938Y279571D01*
X153799Y279549D01*
X153660Y279531D01*
X153520Y279518D01*
X153380Y279508D01*
X153240Y279502D01*
X153100Y279500D01*
X334700Y380300D02*
X344700Y380300D01*
X334700Y380300D02*
X334560Y380302D01*
X334420Y380308D01*
X334280Y380318D01*
X334140Y380331D01*
X334001Y380349D01*
X333862Y380371D01*
X333725Y380396D01*
X333587Y380425D01*
X333451Y380458D01*
X333316Y380495D01*
X333182Y380536D01*
X333049Y380581D01*
X332917Y380629D01*
X332787Y380681D01*
X332658Y380736D01*
X332531Y380795D01*
X332405Y380858D01*
X332281Y380924D01*
X332160Y380993D01*
X332040Y381066D01*
X331922Y381143D01*
X331807Y381222D01*
X331693Y381305D01*
X331583Y381391D01*
X331474Y381480D01*
X331368Y381572D01*
X331265Y381667D01*
X331164Y381764D01*
X331067Y381865D01*
X330972Y381968D01*
X330880Y382074D01*
X330791Y382183D01*
X330705Y382293D01*
X330622Y382407D01*
X330543Y382522D01*
X330466Y382640D01*
X330393Y382760D01*
X330324Y382881D01*
X330258Y383005D01*
X330195Y383131D01*
X330136Y383258D01*
X330081Y383387D01*
X330029Y383517D01*
X329981Y383649D01*
X329936Y383782D01*
X329895Y383916D01*
X329858Y384051D01*
X329825Y384187D01*
X329796Y384325D01*
X329771Y384462D01*
X329749Y384601D01*
X329731Y384740D01*
X329718Y384880D01*
X329708Y385020D01*
X329702Y385160D01*
X329700Y385300D01*
X329702Y385440D01*
X329708Y385580D01*
X329718Y385720D01*
X329731Y385860D01*
X329749Y385999D01*
X329771Y386138D01*
X329796Y386275D01*
X329825Y386413D01*
X329858Y386549D01*
X329895Y386684D01*
X329936Y386818D01*
X329981Y386951D01*
X330029Y387083D01*
X330081Y387213D01*
X330136Y387342D01*
X330195Y387469D01*
X330258Y387595D01*
X330324Y387719D01*
X330393Y387840D01*
X330466Y387960D01*
X330543Y388078D01*
X330622Y388193D01*
X330705Y388307D01*
X330791Y388417D01*
X330880Y388526D01*
X330972Y388632D01*
X331067Y388735D01*
X331164Y388836D01*
X331265Y388933D01*
X331368Y389028D01*
X331474Y389120D01*
X331583Y389209D01*
X331693Y389295D01*
X331807Y389378D01*
X331922Y389457D01*
X332040Y389534D01*
X332160Y389607D01*
X332281Y389676D01*
X332405Y389742D01*
X332531Y389805D01*
X332658Y389864D01*
X332787Y389919D01*
X332917Y389971D01*
X333049Y390019D01*
X333182Y390064D01*
X333316Y390105D01*
X333451Y390142D01*
X333587Y390175D01*
X333725Y390204D01*
X333862Y390229D01*
X334001Y390251D01*
X334140Y390269D01*
X334280Y390282D01*
X334420Y390292D01*
X334560Y390298D01*
X334700Y390300D01*
X344700Y390300D01*
X344840Y390298D01*
X344980Y390292D01*
X345120Y390282D01*
X345260Y390269D01*
X345399Y390251D01*
X345538Y390229D01*
X345675Y390204D01*
X345813Y390175D01*
X345949Y390142D01*
X346084Y390105D01*
X346218Y390064D01*
X346351Y390019D01*
X346483Y389971D01*
X346613Y389919D01*
X346742Y389864D01*
X346869Y389805D01*
X346995Y389742D01*
X347119Y389676D01*
X347240Y389607D01*
X347360Y389534D01*
X347478Y389457D01*
X347593Y389378D01*
X347707Y389295D01*
X347817Y389209D01*
X347926Y389120D01*
X348032Y389028D01*
X348135Y388933D01*
X348236Y388836D01*
X348333Y388735D01*
X348428Y388632D01*
X348520Y388526D01*
X348609Y388417D01*
X348695Y388307D01*
X348778Y388193D01*
X348857Y388078D01*
X348934Y387960D01*
X349007Y387840D01*
X349076Y387719D01*
X349142Y387595D01*
X349205Y387469D01*
X349264Y387342D01*
X349319Y387213D01*
X349371Y387083D01*
X349419Y386951D01*
X349464Y386818D01*
X349505Y386684D01*
X349542Y386549D01*
X349575Y386413D01*
X349604Y386275D01*
X349629Y386138D01*
X349651Y385999D01*
X349669Y385860D01*
X349682Y385720D01*
X349692Y385580D01*
X349698Y385440D01*
X349700Y385300D01*
X349698Y385160D01*
X349692Y385020D01*
X349682Y384880D01*
X349669Y384740D01*
X349651Y384601D01*
X349629Y384462D01*
X349604Y384325D01*
X349575Y384187D01*
X349542Y384051D01*
X349505Y383916D01*
X349464Y383782D01*
X349419Y383649D01*
X349371Y383517D01*
X349319Y383387D01*
X349264Y383258D01*
X349205Y383131D01*
X349142Y383005D01*
X349076Y382881D01*
X349007Y382760D01*
X348934Y382640D01*
X348857Y382522D01*
X348778Y382407D01*
X348695Y382293D01*
X348609Y382183D01*
X348520Y382074D01*
X348428Y381968D01*
X348333Y381865D01*
X348236Y381764D01*
X348135Y381667D01*
X348032Y381572D01*
X347926Y381480D01*
X347817Y381391D01*
X347707Y381305D01*
X347593Y381222D01*
X347478Y381143D01*
X347360Y381066D01*
X347240Y380993D01*
X347119Y380924D01*
X346995Y380858D01*
X346869Y380795D01*
X346742Y380736D01*
X346613Y380681D01*
X346483Y380629D01*
X346351Y380581D01*
X346218Y380536D01*
X346084Y380495D01*
X345949Y380458D01*
X345813Y380425D01*
X345675Y380396D01*
X345538Y380371D01*
X345399Y380349D01*
X345260Y380331D01*
X345120Y380318D01*
X344980Y380308D01*
X344840Y380302D01*
X344700Y380300D01*
X344700Y330200D02*
X334700Y330200D01*
X334560Y330202D01*
X334420Y330208D01*
X334280Y330218D01*
X334140Y330231D01*
X334001Y330249D01*
X333862Y330271D01*
X333725Y330296D01*
X333587Y330325D01*
X333451Y330358D01*
X333316Y330395D01*
X333182Y330436D01*
X333049Y330481D01*
X332917Y330529D01*
X332787Y330581D01*
X332658Y330636D01*
X332531Y330695D01*
X332405Y330758D01*
X332281Y330824D01*
X332160Y330893D01*
X332040Y330966D01*
X331922Y331043D01*
X331807Y331122D01*
X331693Y331205D01*
X331583Y331291D01*
X331474Y331380D01*
X331368Y331472D01*
X331265Y331567D01*
X331164Y331664D01*
X331067Y331765D01*
X330972Y331868D01*
X330880Y331974D01*
X330791Y332083D01*
X330705Y332193D01*
X330622Y332307D01*
X330543Y332422D01*
X330466Y332540D01*
X330393Y332660D01*
X330324Y332781D01*
X330258Y332905D01*
X330195Y333031D01*
X330136Y333158D01*
X330081Y333287D01*
X330029Y333417D01*
X329981Y333549D01*
X329936Y333682D01*
X329895Y333816D01*
X329858Y333951D01*
X329825Y334087D01*
X329796Y334225D01*
X329771Y334362D01*
X329749Y334501D01*
X329731Y334640D01*
X329718Y334780D01*
X329708Y334920D01*
X329702Y335060D01*
X329700Y335200D01*
X329702Y335340D01*
X329708Y335480D01*
X329718Y335620D01*
X329731Y335760D01*
X329749Y335899D01*
X329771Y336038D01*
X329796Y336175D01*
X329825Y336313D01*
X329858Y336449D01*
X329895Y336584D01*
X329936Y336718D01*
X329981Y336851D01*
X330029Y336983D01*
X330081Y337113D01*
X330136Y337242D01*
X330195Y337369D01*
X330258Y337495D01*
X330324Y337619D01*
X330393Y337740D01*
X330466Y337860D01*
X330543Y337978D01*
X330622Y338093D01*
X330705Y338207D01*
X330791Y338317D01*
X330880Y338426D01*
X330972Y338532D01*
X331067Y338635D01*
X331164Y338736D01*
X331265Y338833D01*
X331368Y338928D01*
X331474Y339020D01*
X331583Y339109D01*
X331693Y339195D01*
X331807Y339278D01*
X331922Y339357D01*
X332040Y339434D01*
X332160Y339507D01*
X332281Y339576D01*
X332405Y339642D01*
X332531Y339705D01*
X332658Y339764D01*
X332787Y339819D01*
X332917Y339871D01*
X333049Y339919D01*
X333182Y339964D01*
X333316Y340005D01*
X333451Y340042D01*
X333587Y340075D01*
X333725Y340104D01*
X333862Y340129D01*
X334001Y340151D01*
X334140Y340169D01*
X334280Y340182D01*
X334420Y340192D01*
X334560Y340198D01*
X334700Y340200D01*
X344700Y340200D01*
X344840Y340198D01*
X344980Y340192D01*
X345120Y340182D01*
X345260Y340169D01*
X345399Y340151D01*
X345538Y340129D01*
X345675Y340104D01*
X345813Y340075D01*
X345949Y340042D01*
X346084Y340005D01*
X346218Y339964D01*
X346351Y339919D01*
X346483Y339871D01*
X346613Y339819D01*
X346742Y339764D01*
X346869Y339705D01*
X346995Y339642D01*
X347119Y339576D01*
X347240Y339507D01*
X347360Y339434D01*
X347478Y339357D01*
X347593Y339278D01*
X347707Y339195D01*
X347817Y339109D01*
X347926Y339020D01*
X348032Y338928D01*
X348135Y338833D01*
X348236Y338736D01*
X348333Y338635D01*
X348428Y338532D01*
X348520Y338426D01*
X348609Y338317D01*
X348695Y338207D01*
X348778Y338093D01*
X348857Y337978D01*
X348934Y337860D01*
X349007Y337740D01*
X349076Y337619D01*
X349142Y337495D01*
X349205Y337369D01*
X349264Y337242D01*
X349319Y337113D01*
X349371Y336983D01*
X349419Y336851D01*
X349464Y336718D01*
X349505Y336584D01*
X349542Y336449D01*
X349575Y336313D01*
X349604Y336175D01*
X349629Y336038D01*
X349651Y335899D01*
X349669Y335760D01*
X349682Y335620D01*
X349692Y335480D01*
X349698Y335340D01*
X349700Y335200D01*
X349698Y335060D01*
X349692Y334920D01*
X349682Y334780D01*
X349669Y334640D01*
X349651Y334501D01*
X349629Y334362D01*
X349604Y334225D01*
X349575Y334087D01*
X349542Y333951D01*
X349505Y333816D01*
X349464Y333682D01*
X349419Y333549D01*
X349371Y333417D01*
X349319Y333287D01*
X349264Y333158D01*
X349205Y333031D01*
X349142Y332905D01*
X349076Y332781D01*
X349007Y332660D01*
X348934Y332540D01*
X348857Y332422D01*
X348778Y332307D01*
X348695Y332193D01*
X348609Y332083D01*
X348520Y331974D01*
X348428Y331868D01*
X348333Y331765D01*
X348236Y331664D01*
X348135Y331567D01*
X348032Y331472D01*
X347926Y331380D01*
X347817Y331291D01*
X347707Y331205D01*
X347593Y331122D01*
X347478Y331043D01*
X347360Y330966D01*
X347240Y330893D01*
X347119Y330824D01*
X346995Y330758D01*
X346869Y330695D01*
X346742Y330636D01*
X346613Y330581D01*
X346483Y330529D01*
X346351Y330481D01*
X346218Y330436D01*
X346084Y330395D01*
X345949Y330358D01*
X345813Y330325D01*
X345675Y330296D01*
X345538Y330271D01*
X345399Y330249D01*
X345260Y330231D01*
X345120Y330218D01*
X344980Y330208D01*
X344840Y330202D01*
X344700Y330200D01*
X299700Y330200D02*
X299560Y330202D01*
X299420Y330208D01*
X299280Y330218D01*
X299140Y330231D01*
X299001Y330249D01*
X298862Y330271D01*
X298725Y330296D01*
X298587Y330325D01*
X298451Y330358D01*
X298316Y330395D01*
X298182Y330436D01*
X298049Y330481D01*
X297917Y330529D01*
X297787Y330581D01*
X297658Y330636D01*
X297531Y330695D01*
X297405Y330758D01*
X297281Y330824D01*
X297160Y330893D01*
X297040Y330966D01*
X296922Y331043D01*
X296807Y331122D01*
X296693Y331205D01*
X296583Y331291D01*
X296474Y331380D01*
X296368Y331472D01*
X296265Y331567D01*
X296164Y331664D01*
X296067Y331765D01*
X295972Y331868D01*
X295880Y331974D01*
X295791Y332083D01*
X295705Y332193D01*
X295622Y332307D01*
X295543Y332422D01*
X295466Y332540D01*
X295393Y332660D01*
X295324Y332781D01*
X295258Y332905D01*
X295195Y333031D01*
X295136Y333158D01*
X295081Y333287D01*
X295029Y333417D01*
X294981Y333549D01*
X294936Y333682D01*
X294895Y333816D01*
X294858Y333951D01*
X294825Y334087D01*
X294796Y334225D01*
X294771Y334362D01*
X294749Y334501D01*
X294731Y334640D01*
X294718Y334780D01*
X294708Y334920D01*
X294702Y335060D01*
X294700Y335200D01*
X294702Y335340D01*
X294708Y335480D01*
X294718Y335620D01*
X294731Y335760D01*
X294749Y335899D01*
X294771Y336038D01*
X294796Y336175D01*
X294825Y336313D01*
X294858Y336449D01*
X294895Y336584D01*
X294936Y336718D01*
X294981Y336851D01*
X295029Y336983D01*
X295081Y337113D01*
X295136Y337242D01*
X295195Y337369D01*
X295258Y337495D01*
X295324Y337619D01*
X295393Y337740D01*
X295466Y337860D01*
X295543Y337978D01*
X295622Y338093D01*
X295705Y338207D01*
X295791Y338317D01*
X295880Y338426D01*
X295972Y338532D01*
X296067Y338635D01*
X296164Y338736D01*
X296265Y338833D01*
X296368Y338928D01*
X296474Y339020D01*
X296583Y339109D01*
X296693Y339195D01*
X296807Y339278D01*
X296922Y339357D01*
X297040Y339434D01*
X297160Y339507D01*
X297281Y339576D01*
X297405Y339642D01*
X297531Y339705D01*
X297658Y339764D01*
X297787Y339819D01*
X297917Y339871D01*
X298049Y339919D01*
X298182Y339964D01*
X298316Y340005D01*
X298451Y340042D01*
X298587Y340075D01*
X298725Y340104D01*
X298862Y340129D01*
X299001Y340151D01*
X299140Y340169D01*
X299280Y340182D01*
X299420Y340192D01*
X299560Y340198D01*
X299700Y340200D01*
X299840Y340198D01*
X299980Y340192D01*
X300120Y340182D01*
X300260Y340169D01*
X300399Y340151D01*
X300538Y340129D01*
X300675Y340104D01*
X300813Y340075D01*
X300949Y340042D01*
X301084Y340005D01*
X301218Y339964D01*
X301351Y339919D01*
X301483Y339871D01*
X301613Y339819D01*
X301742Y339764D01*
X301869Y339705D01*
X301995Y339642D01*
X302119Y339576D01*
X302240Y339507D01*
X302360Y339434D01*
X302478Y339357D01*
X302593Y339278D01*
X302707Y339195D01*
X302817Y339109D01*
X302926Y339020D01*
X303032Y338928D01*
X303135Y338833D01*
X303236Y338736D01*
X303333Y338635D01*
X303428Y338532D01*
X303520Y338426D01*
X303609Y338317D01*
X303695Y338207D01*
X303778Y338093D01*
X303857Y337978D01*
X303934Y337860D01*
X304007Y337740D01*
X304076Y337619D01*
X304142Y337495D01*
X304205Y337369D01*
X304264Y337242D01*
X304319Y337113D01*
X304371Y336983D01*
X304419Y336851D01*
X304464Y336718D01*
X304505Y336584D01*
X304542Y336449D01*
X304575Y336313D01*
X304604Y336175D01*
X304629Y336038D01*
X304651Y335899D01*
X304669Y335760D01*
X304682Y335620D01*
X304692Y335480D01*
X304698Y335340D01*
X304700Y335200D01*
X304698Y335060D01*
X304692Y334920D01*
X304682Y334780D01*
X304669Y334640D01*
X304651Y334501D01*
X304629Y334362D01*
X304604Y334225D01*
X304575Y334087D01*
X304542Y333951D01*
X304505Y333816D01*
X304464Y333682D01*
X304419Y333549D01*
X304371Y333417D01*
X304319Y333287D01*
X304264Y333158D01*
X304205Y333031D01*
X304142Y332905D01*
X304076Y332781D01*
X304007Y332660D01*
X303934Y332540D01*
X303857Y332422D01*
X303778Y332307D01*
X303695Y332193D01*
X303609Y332083D01*
X303520Y331974D01*
X303428Y331868D01*
X303333Y331765D01*
X303236Y331664D01*
X303135Y331567D01*
X303032Y331472D01*
X302926Y331380D01*
X302817Y331291D01*
X302707Y331205D01*
X302593Y331122D01*
X302478Y331043D01*
X302360Y330966D01*
X302240Y330893D01*
X302119Y330824D01*
X301995Y330758D01*
X301869Y330695D01*
X301742Y330636D01*
X301613Y330581D01*
X301483Y330529D01*
X301351Y330481D01*
X301218Y330436D01*
X301084Y330395D01*
X300949Y330358D01*
X300813Y330325D01*
X300675Y330296D01*
X300538Y330271D01*
X300399Y330249D01*
X300260Y330231D01*
X300120Y330218D01*
X299980Y330208D01*
X299840Y330202D01*
X299700Y330200D01*
X379700Y330200D02*
X379560Y330202D01*
X379420Y330208D01*
X379280Y330218D01*
X379140Y330231D01*
X379001Y330249D01*
X378862Y330271D01*
X378725Y330296D01*
X378587Y330325D01*
X378451Y330358D01*
X378316Y330395D01*
X378182Y330436D01*
X378049Y330481D01*
X377917Y330529D01*
X377787Y330581D01*
X377658Y330636D01*
X377531Y330695D01*
X377405Y330758D01*
X377281Y330824D01*
X377160Y330893D01*
X377040Y330966D01*
X376922Y331043D01*
X376807Y331122D01*
X376693Y331205D01*
X376583Y331291D01*
X376474Y331380D01*
X376368Y331472D01*
X376265Y331567D01*
X376164Y331664D01*
X376067Y331765D01*
X375972Y331868D01*
X375880Y331974D01*
X375791Y332083D01*
X375705Y332193D01*
X375622Y332307D01*
X375543Y332422D01*
X375466Y332540D01*
X375393Y332660D01*
X375324Y332781D01*
X375258Y332905D01*
X375195Y333031D01*
X375136Y333158D01*
X375081Y333287D01*
X375029Y333417D01*
X374981Y333549D01*
X374936Y333682D01*
X374895Y333816D01*
X374858Y333951D01*
X374825Y334087D01*
X374796Y334225D01*
X374771Y334362D01*
X374749Y334501D01*
X374731Y334640D01*
X374718Y334780D01*
X374708Y334920D01*
X374702Y335060D01*
X374700Y335200D01*
X374702Y335340D01*
X374708Y335480D01*
X374718Y335620D01*
X374731Y335760D01*
X374749Y335899D01*
X374771Y336038D01*
X374796Y336175D01*
X374825Y336313D01*
X374858Y336449D01*
X374895Y336584D01*
X374936Y336718D01*
X374981Y336851D01*
X375029Y336983D01*
X375081Y337113D01*
X375136Y337242D01*
X375195Y337369D01*
X375258Y337495D01*
X375324Y337619D01*
X375393Y337740D01*
X375466Y337860D01*
X375543Y337978D01*
X375622Y338093D01*
X375705Y338207D01*
X375791Y338317D01*
X375880Y338426D01*
X375972Y338532D01*
X376067Y338635D01*
X376164Y338736D01*
X376265Y338833D01*
X376368Y338928D01*
X376474Y339020D01*
X376583Y339109D01*
X376693Y339195D01*
X376807Y339278D01*
X376922Y339357D01*
X377040Y339434D01*
X377160Y339507D01*
X377281Y339576D01*
X377405Y339642D01*
X377531Y339705D01*
X377658Y339764D01*
X377787Y339819D01*
X377917Y339871D01*
X378049Y339919D01*
X378182Y339964D01*
X378316Y340005D01*
X378451Y340042D01*
X378587Y340075D01*
X378725Y340104D01*
X378862Y340129D01*
X379001Y340151D01*
X379140Y340169D01*
X379280Y340182D01*
X379420Y340192D01*
X379560Y340198D01*
X379700Y340200D01*
X379840Y340198D01*
X379980Y340192D01*
X380120Y340182D01*
X380260Y340169D01*
X380399Y340151D01*
X380538Y340129D01*
X380675Y340104D01*
X380813Y340075D01*
X380949Y340042D01*
X381084Y340005D01*
X381218Y339964D01*
X381351Y339919D01*
X381483Y339871D01*
X381613Y339819D01*
X381742Y339764D01*
X381869Y339705D01*
X381995Y339642D01*
X382119Y339576D01*
X382240Y339507D01*
X382360Y339434D01*
X382478Y339357D01*
X382593Y339278D01*
X382707Y339195D01*
X382817Y339109D01*
X382926Y339020D01*
X383032Y338928D01*
X383135Y338833D01*
X383236Y338736D01*
X383333Y338635D01*
X383428Y338532D01*
X383520Y338426D01*
X383609Y338317D01*
X383695Y338207D01*
X383778Y338093D01*
X383857Y337978D01*
X383934Y337860D01*
X384007Y337740D01*
X384076Y337619D01*
X384142Y337495D01*
X384205Y337369D01*
X384264Y337242D01*
X384319Y337113D01*
X384371Y336983D01*
X384419Y336851D01*
X384464Y336718D01*
X384505Y336584D01*
X384542Y336449D01*
X384575Y336313D01*
X384604Y336175D01*
X384629Y336038D01*
X384651Y335899D01*
X384669Y335760D01*
X384682Y335620D01*
X384692Y335480D01*
X384698Y335340D01*
X384700Y335200D01*
X384698Y335060D01*
X384692Y334920D01*
X384682Y334780D01*
X384669Y334640D01*
X384651Y334501D01*
X384629Y334362D01*
X384604Y334225D01*
X384575Y334087D01*
X384542Y333951D01*
X384505Y333816D01*
X384464Y333682D01*
X384419Y333549D01*
X384371Y333417D01*
X384319Y333287D01*
X384264Y333158D01*
X384205Y333031D01*
X384142Y332905D01*
X384076Y332781D01*
X384007Y332660D01*
X383934Y332540D01*
X383857Y332422D01*
X383778Y332307D01*
X383695Y332193D01*
X383609Y332083D01*
X383520Y331974D01*
X383428Y331868D01*
X383333Y331765D01*
X383236Y331664D01*
X383135Y331567D01*
X383032Y331472D01*
X382926Y331380D01*
X382817Y331291D01*
X382707Y331205D01*
X382593Y331122D01*
X382478Y331043D01*
X382360Y330966D01*
X382240Y330893D01*
X382119Y330824D01*
X381995Y330758D01*
X381869Y330695D01*
X381742Y330636D01*
X381613Y330581D01*
X381483Y330529D01*
X381351Y330481D01*
X381218Y330436D01*
X381084Y330395D01*
X380949Y330358D01*
X380813Y330325D01*
X380675Y330296D01*
X380538Y330271D01*
X380399Y330249D01*
X380260Y330231D01*
X380120Y330218D01*
X379980Y330208D01*
X379840Y330202D01*
X379700Y330200D01*
X345000Y279500D02*
X335000Y279500D01*
X334860Y279502D01*
X334720Y279508D01*
X334580Y279518D01*
X334440Y279531D01*
X334301Y279549D01*
X334162Y279571D01*
X334025Y279596D01*
X333887Y279625D01*
X333751Y279658D01*
X333616Y279695D01*
X333482Y279736D01*
X333349Y279781D01*
X333217Y279829D01*
X333087Y279881D01*
X332958Y279936D01*
X332831Y279995D01*
X332705Y280058D01*
X332581Y280124D01*
X332460Y280193D01*
X332340Y280266D01*
X332222Y280343D01*
X332107Y280422D01*
X331993Y280505D01*
X331883Y280591D01*
X331774Y280680D01*
X331668Y280772D01*
X331565Y280867D01*
X331464Y280964D01*
X331367Y281065D01*
X331272Y281168D01*
X331180Y281274D01*
X331091Y281383D01*
X331005Y281493D01*
X330922Y281607D01*
X330843Y281722D01*
X330766Y281840D01*
X330693Y281960D01*
X330624Y282081D01*
X330558Y282205D01*
X330495Y282331D01*
X330436Y282458D01*
X330381Y282587D01*
X330329Y282717D01*
X330281Y282849D01*
X330236Y282982D01*
X330195Y283116D01*
X330158Y283251D01*
X330125Y283387D01*
X330096Y283525D01*
X330071Y283662D01*
X330049Y283801D01*
X330031Y283940D01*
X330018Y284080D01*
X330008Y284220D01*
X330002Y284360D01*
X330000Y284500D01*
X330002Y284640D01*
X330008Y284780D01*
X330018Y284920D01*
X330031Y285060D01*
X330049Y285199D01*
X330071Y285338D01*
X330096Y285475D01*
X330125Y285613D01*
X330158Y285749D01*
X330195Y285884D01*
X330236Y286018D01*
X330281Y286151D01*
X330329Y286283D01*
X330381Y286413D01*
X330436Y286542D01*
X330495Y286669D01*
X330558Y286795D01*
X330624Y286919D01*
X330693Y287040D01*
X330766Y287160D01*
X330843Y287278D01*
X330922Y287393D01*
X331005Y287507D01*
X331091Y287617D01*
X331180Y287726D01*
X331272Y287832D01*
X331367Y287935D01*
X331464Y288036D01*
X331565Y288133D01*
X331668Y288228D01*
X331774Y288320D01*
X331883Y288409D01*
X331993Y288495D01*
X332107Y288578D01*
X332222Y288657D01*
X332340Y288734D01*
X332460Y288807D01*
X332581Y288876D01*
X332705Y288942D01*
X332831Y289005D01*
X332958Y289064D01*
X333087Y289119D01*
X333217Y289171D01*
X333349Y289219D01*
X333482Y289264D01*
X333616Y289305D01*
X333751Y289342D01*
X333887Y289375D01*
X334025Y289404D01*
X334162Y289429D01*
X334301Y289451D01*
X334440Y289469D01*
X334580Y289482D01*
X334720Y289492D01*
X334860Y289498D01*
X335000Y289500D01*
X345000Y289500D01*
X345140Y289498D01*
X345280Y289492D01*
X345420Y289482D01*
X345560Y289469D01*
X345699Y289451D01*
X345838Y289429D01*
X345975Y289404D01*
X346113Y289375D01*
X346249Y289342D01*
X346384Y289305D01*
X346518Y289264D01*
X346651Y289219D01*
X346783Y289171D01*
X346913Y289119D01*
X347042Y289064D01*
X347169Y289005D01*
X347295Y288942D01*
X347419Y288876D01*
X347540Y288807D01*
X347660Y288734D01*
X347778Y288657D01*
X347893Y288578D01*
X348007Y288495D01*
X348117Y288409D01*
X348226Y288320D01*
X348332Y288228D01*
X348435Y288133D01*
X348536Y288036D01*
X348633Y287935D01*
X348728Y287832D01*
X348820Y287726D01*
X348909Y287617D01*
X348995Y287507D01*
X349078Y287393D01*
X349157Y287278D01*
X349234Y287160D01*
X349307Y287040D01*
X349376Y286919D01*
X349442Y286795D01*
X349505Y286669D01*
X349564Y286542D01*
X349619Y286413D01*
X349671Y286283D01*
X349719Y286151D01*
X349764Y286018D01*
X349805Y285884D01*
X349842Y285749D01*
X349875Y285613D01*
X349904Y285475D01*
X349929Y285338D01*
X349951Y285199D01*
X349969Y285060D01*
X349982Y284920D01*
X349992Y284780D01*
X349998Y284640D01*
X350000Y284500D01*
X349998Y284360D01*
X349992Y284220D01*
X349982Y284080D01*
X349969Y283940D01*
X349951Y283801D01*
X349929Y283662D01*
X349904Y283525D01*
X349875Y283387D01*
X349842Y283251D01*
X349805Y283116D01*
X349764Y282982D01*
X349719Y282849D01*
X349671Y282717D01*
X349619Y282587D01*
X349564Y282458D01*
X349505Y282331D01*
X349442Y282205D01*
X349376Y282081D01*
X349307Y281960D01*
X349234Y281840D01*
X349157Y281722D01*
X349078Y281607D01*
X348995Y281493D01*
X348909Y281383D01*
X348820Y281274D01*
X348728Y281168D01*
X348633Y281065D01*
X348536Y280964D01*
X348435Y280867D01*
X348332Y280772D01*
X348226Y280680D01*
X348117Y280591D01*
X348007Y280505D01*
X347893Y280422D01*
X347778Y280343D01*
X347660Y280266D01*
X347540Y280193D01*
X347419Y280124D01*
X347295Y280058D01*
X347169Y279995D01*
X347042Y279936D01*
X346913Y279881D01*
X346783Y279829D01*
X346651Y279781D01*
X346518Y279736D01*
X346384Y279695D01*
X346249Y279658D01*
X346113Y279625D01*
X345975Y279596D01*
X345838Y279571D01*
X345699Y279549D01*
X345560Y279531D01*
X345420Y279518D01*
X345280Y279508D01*
X345140Y279502D01*
X345000Y279500D01*
X287300Y279500D02*
X287160Y279502D01*
X287020Y279508D01*
X286880Y279518D01*
X286740Y279531D01*
X286601Y279549D01*
X286462Y279571D01*
X286325Y279596D01*
X286187Y279625D01*
X286051Y279658D01*
X285916Y279695D01*
X285782Y279736D01*
X285649Y279781D01*
X285517Y279829D01*
X285387Y279881D01*
X285258Y279936D01*
X285131Y279995D01*
X285005Y280058D01*
X284881Y280124D01*
X284760Y280193D01*
X284640Y280266D01*
X284522Y280343D01*
X284407Y280422D01*
X284293Y280505D01*
X284183Y280591D01*
X284074Y280680D01*
X283968Y280772D01*
X283865Y280867D01*
X283764Y280964D01*
X283667Y281065D01*
X283572Y281168D01*
X283480Y281274D01*
X283391Y281383D01*
X283305Y281493D01*
X283222Y281607D01*
X283143Y281722D01*
X283066Y281840D01*
X282993Y281960D01*
X282924Y282081D01*
X282858Y282205D01*
X282795Y282331D01*
X282736Y282458D01*
X282681Y282587D01*
X282629Y282717D01*
X282581Y282849D01*
X282536Y282982D01*
X282495Y283116D01*
X282458Y283251D01*
X282425Y283387D01*
X282396Y283525D01*
X282371Y283662D01*
X282349Y283801D01*
X282331Y283940D01*
X282318Y284080D01*
X282308Y284220D01*
X282302Y284360D01*
X282300Y284500D01*
X282302Y284640D01*
X282308Y284780D01*
X282318Y284920D01*
X282331Y285060D01*
X282349Y285199D01*
X282371Y285338D01*
X282396Y285475D01*
X282425Y285613D01*
X282458Y285749D01*
X282495Y285884D01*
X282536Y286018D01*
X282581Y286151D01*
X282629Y286283D01*
X282681Y286413D01*
X282736Y286542D01*
X282795Y286669D01*
X282858Y286795D01*
X282924Y286919D01*
X282993Y287040D01*
X283066Y287160D01*
X283143Y287278D01*
X283222Y287393D01*
X283305Y287507D01*
X283391Y287617D01*
X283480Y287726D01*
X283572Y287832D01*
X283667Y287935D01*
X283764Y288036D01*
X283865Y288133D01*
X283968Y288228D01*
X284074Y288320D01*
X284183Y288409D01*
X284293Y288495D01*
X284407Y288578D01*
X284522Y288657D01*
X284640Y288734D01*
X284760Y288807D01*
X284881Y288876D01*
X285005Y288942D01*
X285131Y289005D01*
X285258Y289064D01*
X285387Y289119D01*
X285517Y289171D01*
X285649Y289219D01*
X285782Y289264D01*
X285916Y289305D01*
X286051Y289342D01*
X286187Y289375D01*
X286325Y289404D01*
X286462Y289429D01*
X286601Y289451D01*
X286740Y289469D01*
X286880Y289482D01*
X287020Y289492D01*
X287160Y289498D01*
X287300Y289500D01*
X287440Y289498D01*
X287580Y289492D01*
X287720Y289482D01*
X287860Y289469D01*
X287999Y289451D01*
X288138Y289429D01*
X288275Y289404D01*
X288413Y289375D01*
X288549Y289342D01*
X288684Y289305D01*
X288818Y289264D01*
X288951Y289219D01*
X289083Y289171D01*
X289213Y289119D01*
X289342Y289064D01*
X289469Y289005D01*
X289595Y288942D01*
X289719Y288876D01*
X289840Y288807D01*
X289960Y288734D01*
X290078Y288657D01*
X290193Y288578D01*
X290307Y288495D01*
X290417Y288409D01*
X290526Y288320D01*
X290632Y288228D01*
X290735Y288133D01*
X290836Y288036D01*
X290933Y287935D01*
X291028Y287832D01*
X291120Y287726D01*
X291209Y287617D01*
X291295Y287507D01*
X291378Y287393D01*
X291457Y287278D01*
X291534Y287160D01*
X291607Y287040D01*
X291676Y286919D01*
X291742Y286795D01*
X291805Y286669D01*
X291864Y286542D01*
X291919Y286413D01*
X291971Y286283D01*
X292019Y286151D01*
X292064Y286018D01*
X292105Y285884D01*
X292142Y285749D01*
X292175Y285613D01*
X292204Y285475D01*
X292229Y285338D01*
X292251Y285199D01*
X292269Y285060D01*
X292282Y284920D01*
X292292Y284780D01*
X292298Y284640D01*
X292300Y284500D01*
X292298Y284360D01*
X292292Y284220D01*
X292282Y284080D01*
X292269Y283940D01*
X292251Y283801D01*
X292229Y283662D01*
X292204Y283525D01*
X292175Y283387D01*
X292142Y283251D01*
X292105Y283116D01*
X292064Y282982D01*
X292019Y282849D01*
X291971Y282717D01*
X291919Y282587D01*
X291864Y282458D01*
X291805Y282331D01*
X291742Y282205D01*
X291676Y282081D01*
X291607Y281960D01*
X291534Y281840D01*
X291457Y281722D01*
X291378Y281607D01*
X291295Y281493D01*
X291209Y281383D01*
X291120Y281274D01*
X291028Y281168D01*
X290933Y281065D01*
X290836Y280964D01*
X290735Y280867D01*
X290632Y280772D01*
X290526Y280680D01*
X290417Y280591D01*
X290307Y280505D01*
X290193Y280422D01*
X290078Y280343D01*
X289960Y280266D01*
X289840Y280193D01*
X289719Y280124D01*
X289595Y280058D01*
X289469Y279995D01*
X289342Y279936D01*
X289213Y279881D01*
X289083Y279829D01*
X288951Y279781D01*
X288818Y279736D01*
X288684Y279695D01*
X288549Y279658D01*
X288413Y279625D01*
X288275Y279596D01*
X288138Y279571D01*
X287999Y279549D01*
X287860Y279531D01*
X287720Y279518D01*
X287580Y279508D01*
X287440Y279502D01*
X287300Y279500D01*
X392700Y279500D02*
X392560Y279502D01*
X392420Y279508D01*
X392280Y279518D01*
X392140Y279531D01*
X392001Y279549D01*
X391862Y279571D01*
X391725Y279596D01*
X391587Y279625D01*
X391451Y279658D01*
X391316Y279695D01*
X391182Y279736D01*
X391049Y279781D01*
X390917Y279829D01*
X390787Y279881D01*
X390658Y279936D01*
X390531Y279995D01*
X390405Y280058D01*
X390281Y280124D01*
X390160Y280193D01*
X390040Y280266D01*
X389922Y280343D01*
X389807Y280422D01*
X389693Y280505D01*
X389583Y280591D01*
X389474Y280680D01*
X389368Y280772D01*
X389265Y280867D01*
X389164Y280964D01*
X389067Y281065D01*
X388972Y281168D01*
X388880Y281274D01*
X388791Y281383D01*
X388705Y281493D01*
X388622Y281607D01*
X388543Y281722D01*
X388466Y281840D01*
X388393Y281960D01*
X388324Y282081D01*
X388258Y282205D01*
X388195Y282331D01*
X388136Y282458D01*
X388081Y282587D01*
X388029Y282717D01*
X387981Y282849D01*
X387936Y282982D01*
X387895Y283116D01*
X387858Y283251D01*
X387825Y283387D01*
X387796Y283525D01*
X387771Y283662D01*
X387749Y283801D01*
X387731Y283940D01*
X387718Y284080D01*
X387708Y284220D01*
X387702Y284360D01*
X387700Y284500D01*
X387702Y284640D01*
X387708Y284780D01*
X387718Y284920D01*
X387731Y285060D01*
X387749Y285199D01*
X387771Y285338D01*
X387796Y285475D01*
X387825Y285613D01*
X387858Y285749D01*
X387895Y285884D01*
X387936Y286018D01*
X387981Y286151D01*
X388029Y286283D01*
X388081Y286413D01*
X388136Y286542D01*
X388195Y286669D01*
X388258Y286795D01*
X388324Y286919D01*
X388393Y287040D01*
X388466Y287160D01*
X388543Y287278D01*
X388622Y287393D01*
X388705Y287507D01*
X388791Y287617D01*
X388880Y287726D01*
X388972Y287832D01*
X389067Y287935D01*
X389164Y288036D01*
X389265Y288133D01*
X389368Y288228D01*
X389474Y288320D01*
X389583Y288409D01*
X389693Y288495D01*
X389807Y288578D01*
X389922Y288657D01*
X390040Y288734D01*
X390160Y288807D01*
X390281Y288876D01*
X390405Y288942D01*
X390531Y289005D01*
X390658Y289064D01*
X390787Y289119D01*
X390917Y289171D01*
X391049Y289219D01*
X391182Y289264D01*
X391316Y289305D01*
X391451Y289342D01*
X391587Y289375D01*
X391725Y289404D01*
X391862Y289429D01*
X392001Y289451D01*
X392140Y289469D01*
X392280Y289482D01*
X392420Y289492D01*
X392560Y289498D01*
X392700Y289500D01*
X392840Y289498D01*
X392980Y289492D01*
X393120Y289482D01*
X393260Y289469D01*
X393399Y289451D01*
X393538Y289429D01*
X393675Y289404D01*
X393813Y289375D01*
X393949Y289342D01*
X394084Y289305D01*
X394218Y289264D01*
X394351Y289219D01*
X394483Y289171D01*
X394613Y289119D01*
X394742Y289064D01*
X394869Y289005D01*
X394995Y288942D01*
X395119Y288876D01*
X395240Y288807D01*
X395360Y288734D01*
X395478Y288657D01*
X395593Y288578D01*
X395707Y288495D01*
X395817Y288409D01*
X395926Y288320D01*
X396032Y288228D01*
X396135Y288133D01*
X396236Y288036D01*
X396333Y287935D01*
X396428Y287832D01*
X396520Y287726D01*
X396609Y287617D01*
X396695Y287507D01*
X396778Y287393D01*
X396857Y287278D01*
X396934Y287160D01*
X397007Y287040D01*
X397076Y286919D01*
X397142Y286795D01*
X397205Y286669D01*
X397264Y286542D01*
X397319Y286413D01*
X397371Y286283D01*
X397419Y286151D01*
X397464Y286018D01*
X397505Y285884D01*
X397542Y285749D01*
X397575Y285613D01*
X397604Y285475D01*
X397629Y285338D01*
X397651Y285199D01*
X397669Y285060D01*
X397682Y284920D01*
X397692Y284780D01*
X397698Y284640D01*
X397700Y284500D01*
X397698Y284360D01*
X397692Y284220D01*
X397682Y284080D01*
X397669Y283940D01*
X397651Y283801D01*
X397629Y283662D01*
X397604Y283525D01*
X397575Y283387D01*
X397542Y283251D01*
X397505Y283116D01*
X397464Y282982D01*
X397419Y282849D01*
X397371Y282717D01*
X397319Y282587D01*
X397264Y282458D01*
X397205Y282331D01*
X397142Y282205D01*
X397076Y282081D01*
X397007Y281960D01*
X396934Y281840D01*
X396857Y281722D01*
X396778Y281607D01*
X396695Y281493D01*
X396609Y281383D01*
X396520Y281274D01*
X396428Y281168D01*
X396333Y281065D01*
X396236Y280964D01*
X396135Y280867D01*
X396032Y280772D01*
X395926Y280680D01*
X395817Y280591D01*
X395707Y280505D01*
X395593Y280422D01*
X395478Y280343D01*
X395360Y280266D01*
X395240Y280193D01*
X395119Y280124D01*
X394995Y280058D01*
X394869Y279995D01*
X394742Y279936D01*
X394613Y279881D01*
X394483Y279829D01*
X394351Y279781D01*
X394218Y279736D01*
X394084Y279695D01*
X393949Y279658D01*
X393813Y279625D01*
X393675Y279596D01*
X393538Y279571D01*
X393399Y279549D01*
X393260Y279531D01*
X393120Y279518D01*
X392980Y279508D01*
X392840Y279502D01*
X392700Y279500D01*
X560000Y379500D02*
X559860Y379502D01*
X559720Y379508D01*
X559580Y379518D01*
X559440Y379531D01*
X559301Y379549D01*
X559162Y379571D01*
X559025Y379596D01*
X558887Y379625D01*
X558751Y379658D01*
X558616Y379695D01*
X558482Y379736D01*
X558349Y379781D01*
X558217Y379829D01*
X558087Y379881D01*
X557958Y379936D01*
X557831Y379995D01*
X557705Y380058D01*
X557581Y380124D01*
X557460Y380193D01*
X557340Y380266D01*
X557222Y380343D01*
X557107Y380422D01*
X556993Y380505D01*
X556883Y380591D01*
X556774Y380680D01*
X556668Y380772D01*
X556565Y380867D01*
X556464Y380964D01*
X556367Y381065D01*
X556272Y381168D01*
X556180Y381274D01*
X556091Y381383D01*
X556005Y381493D01*
X555922Y381607D01*
X555843Y381722D01*
X555766Y381840D01*
X555693Y381960D01*
X555624Y382081D01*
X555558Y382205D01*
X555495Y382331D01*
X555436Y382458D01*
X555381Y382587D01*
X555329Y382717D01*
X555281Y382849D01*
X555236Y382982D01*
X555195Y383116D01*
X555158Y383251D01*
X555125Y383387D01*
X555096Y383525D01*
X555071Y383662D01*
X555049Y383801D01*
X555031Y383940D01*
X555018Y384080D01*
X555008Y384220D01*
X555002Y384360D01*
X555000Y384500D01*
X555002Y384640D01*
X555008Y384780D01*
X555018Y384920D01*
X555031Y385060D01*
X555049Y385199D01*
X555071Y385338D01*
X555096Y385475D01*
X555125Y385613D01*
X555158Y385749D01*
X555195Y385884D01*
X555236Y386018D01*
X555281Y386151D01*
X555329Y386283D01*
X555381Y386413D01*
X555436Y386542D01*
X555495Y386669D01*
X555558Y386795D01*
X555624Y386919D01*
X555693Y387040D01*
X555766Y387160D01*
X555843Y387278D01*
X555922Y387393D01*
X556005Y387507D01*
X556091Y387617D01*
X556180Y387726D01*
X556272Y387832D01*
X556367Y387935D01*
X556464Y388036D01*
X556565Y388133D01*
X556668Y388228D01*
X556774Y388320D01*
X556883Y388409D01*
X556993Y388495D01*
X557107Y388578D01*
X557222Y388657D01*
X557340Y388734D01*
X557460Y388807D01*
X557581Y388876D01*
X557705Y388942D01*
X557831Y389005D01*
X557958Y389064D01*
X558087Y389119D01*
X558217Y389171D01*
X558349Y389219D01*
X558482Y389264D01*
X558616Y389305D01*
X558751Y389342D01*
X558887Y389375D01*
X559025Y389404D01*
X559162Y389429D01*
X559301Y389451D01*
X559440Y389469D01*
X559580Y389482D01*
X559720Y389492D01*
X559860Y389498D01*
X560000Y389500D01*
X560140Y389498D01*
X560280Y389492D01*
X560420Y389482D01*
X560560Y389469D01*
X560699Y389451D01*
X560838Y389429D01*
X560975Y389404D01*
X561113Y389375D01*
X561249Y389342D01*
X561384Y389305D01*
X561518Y389264D01*
X561651Y389219D01*
X561783Y389171D01*
X561913Y389119D01*
X562042Y389064D01*
X562169Y389005D01*
X562295Y388942D01*
X562419Y388876D01*
X562540Y388807D01*
X562660Y388734D01*
X562778Y388657D01*
X562893Y388578D01*
X563007Y388495D01*
X563117Y388409D01*
X563226Y388320D01*
X563332Y388228D01*
X563435Y388133D01*
X563536Y388036D01*
X563633Y387935D01*
X563728Y387832D01*
X563820Y387726D01*
X563909Y387617D01*
X563995Y387507D01*
X564078Y387393D01*
X564157Y387278D01*
X564234Y387160D01*
X564307Y387040D01*
X564376Y386919D01*
X564442Y386795D01*
X564505Y386669D01*
X564564Y386542D01*
X564619Y386413D01*
X564671Y386283D01*
X564719Y386151D01*
X564764Y386018D01*
X564805Y385884D01*
X564842Y385749D01*
X564875Y385613D01*
X564904Y385475D01*
X564929Y385338D01*
X564951Y385199D01*
X564969Y385060D01*
X564982Y384920D01*
X564992Y384780D01*
X564998Y384640D01*
X565000Y384500D01*
X564998Y384360D01*
X564992Y384220D01*
X564982Y384080D01*
X564969Y383940D01*
X564951Y383801D01*
X564929Y383662D01*
X564904Y383525D01*
X564875Y383387D01*
X564842Y383251D01*
X564805Y383116D01*
X564764Y382982D01*
X564719Y382849D01*
X564671Y382717D01*
X564619Y382587D01*
X564564Y382458D01*
X564505Y382331D01*
X564442Y382205D01*
X564376Y382081D01*
X564307Y381960D01*
X564234Y381840D01*
X564157Y381722D01*
X564078Y381607D01*
X563995Y381493D01*
X563909Y381383D01*
X563820Y381274D01*
X563728Y381168D01*
X563633Y381065D01*
X563536Y380964D01*
X563435Y380867D01*
X563332Y380772D01*
X563226Y380680D01*
X563117Y380591D01*
X563007Y380505D01*
X562893Y380422D01*
X562778Y380343D01*
X562660Y380266D01*
X562540Y380193D01*
X562419Y380124D01*
X562295Y380058D01*
X562169Y379995D01*
X562042Y379936D01*
X561913Y379881D01*
X561783Y379829D01*
X561651Y379781D01*
X561518Y379736D01*
X561384Y379695D01*
X561249Y379658D01*
X561113Y379625D01*
X560975Y379596D01*
X560838Y379571D01*
X560699Y379549D01*
X560560Y379531D01*
X560420Y379518D01*
X560280Y379508D01*
X560140Y379502D01*
X560000Y379500D01*
X560000Y340000D02*
X559860Y339998D01*
X559720Y339992D01*
X559580Y339982D01*
X559440Y339969D01*
X559301Y339951D01*
X559162Y339929D01*
X559025Y339904D01*
X558887Y339875D01*
X558751Y339842D01*
X558616Y339805D01*
X558482Y339764D01*
X558349Y339719D01*
X558217Y339671D01*
X558087Y339619D01*
X557958Y339564D01*
X557831Y339505D01*
X557705Y339442D01*
X557581Y339376D01*
X557460Y339307D01*
X557340Y339234D01*
X557222Y339157D01*
X557107Y339078D01*
X556993Y338995D01*
X556883Y338909D01*
X556774Y338820D01*
X556668Y338728D01*
X556565Y338633D01*
X556464Y338536D01*
X556367Y338435D01*
X556272Y338332D01*
X556180Y338226D01*
X556091Y338117D01*
X556005Y338007D01*
X555922Y337893D01*
X555843Y337778D01*
X555766Y337660D01*
X555693Y337540D01*
X555624Y337419D01*
X555558Y337295D01*
X555495Y337169D01*
X555436Y337042D01*
X555381Y336913D01*
X555329Y336783D01*
X555281Y336651D01*
X555236Y336518D01*
X555195Y336384D01*
X555158Y336249D01*
X555125Y336113D01*
X555096Y335975D01*
X555071Y335838D01*
X555049Y335699D01*
X555031Y335560D01*
X555018Y335420D01*
X555008Y335280D01*
X555002Y335140D01*
X555000Y335000D01*
X555002Y334860D01*
X555008Y334720D01*
X555018Y334580D01*
X555031Y334440D01*
X555049Y334301D01*
X555071Y334162D01*
X555096Y334025D01*
X555125Y333887D01*
X555158Y333751D01*
X555195Y333616D01*
X555236Y333482D01*
X555281Y333349D01*
X555329Y333217D01*
X555381Y333087D01*
X555436Y332958D01*
X555495Y332831D01*
X555558Y332705D01*
X555624Y332581D01*
X555693Y332460D01*
X555766Y332340D01*
X555843Y332222D01*
X555922Y332107D01*
X556005Y331993D01*
X556091Y331883D01*
X556180Y331774D01*
X556272Y331668D01*
X556367Y331565D01*
X556464Y331464D01*
X556565Y331367D01*
X556668Y331272D01*
X556774Y331180D01*
X556883Y331091D01*
X556993Y331005D01*
X557107Y330922D01*
X557222Y330843D01*
X557340Y330766D01*
X557460Y330693D01*
X557581Y330624D01*
X557705Y330558D01*
X557831Y330495D01*
X557958Y330436D01*
X558087Y330381D01*
X558217Y330329D01*
X558349Y330281D01*
X558482Y330236D01*
X558616Y330195D01*
X558751Y330158D01*
X558887Y330125D01*
X559025Y330096D01*
X559162Y330071D01*
X559301Y330049D01*
X559440Y330031D01*
X559580Y330018D01*
X559720Y330008D01*
X559860Y330002D01*
X560000Y330000D01*
X560140Y330002D01*
X560280Y330008D01*
X560420Y330018D01*
X560560Y330031D01*
X560699Y330049D01*
X560838Y330071D01*
X560975Y330096D01*
X561113Y330125D01*
X561249Y330158D01*
X561384Y330195D01*
X561518Y330236D01*
X561651Y330281D01*
X561783Y330329D01*
X561913Y330381D01*
X562042Y330436D01*
X562169Y330495D01*
X562295Y330558D01*
X562419Y330624D01*
X562540Y330693D01*
X562660Y330766D01*
X562778Y330843D01*
X562893Y330922D01*
X563007Y331005D01*
X563117Y331091D01*
X563226Y331180D01*
X563332Y331272D01*
X563435Y331367D01*
X563536Y331464D01*
X563633Y331565D01*
X563728Y331668D01*
X563820Y331774D01*
X563909Y331883D01*
X563995Y331993D01*
X564078Y332107D01*
X564157Y332222D01*
X564234Y332340D01*
X564307Y332460D01*
X564376Y332581D01*
X564442Y332705D01*
X564505Y332831D01*
X564564Y332958D01*
X564619Y333087D01*
X564671Y333217D01*
X564719Y333349D01*
X564764Y333482D01*
X564805Y333616D01*
X564842Y333751D01*
X564875Y333887D01*
X564904Y334025D01*
X564929Y334162D01*
X564951Y334301D01*
X564969Y334440D01*
X564982Y334580D01*
X564992Y334720D01*
X564998Y334860D01*
X565000Y335000D01*
X564998Y335140D01*
X564992Y335280D01*
X564982Y335420D01*
X564969Y335560D01*
X564951Y335699D01*
X564929Y335838D01*
X564904Y335975D01*
X564875Y336113D01*
X564842Y336249D01*
X564805Y336384D01*
X564764Y336518D01*
X564719Y336651D01*
X564671Y336783D01*
X564619Y336913D01*
X564564Y337042D01*
X564505Y337169D01*
X564442Y337295D01*
X564376Y337419D01*
X564307Y337540D01*
X564234Y337660D01*
X564157Y337778D01*
X564078Y337893D01*
X563995Y338007D01*
X563909Y338117D01*
X563820Y338226D01*
X563728Y338332D01*
X563633Y338435D01*
X563536Y338536D01*
X563435Y338633D01*
X563332Y338728D01*
X563226Y338820D01*
X563117Y338909D01*
X563007Y338995D01*
X562893Y339078D01*
X562778Y339157D01*
X562660Y339234D01*
X562540Y339307D01*
X562419Y339376D01*
X562295Y339442D01*
X562169Y339505D01*
X562042Y339564D01*
X561913Y339619D01*
X561783Y339671D01*
X561651Y339719D01*
X561518Y339764D01*
X561384Y339805D01*
X561249Y339842D01*
X561113Y339875D01*
X560975Y339904D01*
X560838Y339929D01*
X560699Y339951D01*
X560560Y339969D01*
X560420Y339982D01*
X560280Y339992D01*
X560140Y339998D01*
X560000Y340000D01*
X590000Y340000D02*
X589860Y339998D01*
X589720Y339992D01*
X589580Y339982D01*
X589440Y339969D01*
X589301Y339951D01*
X589162Y339929D01*
X589025Y339904D01*
X588887Y339875D01*
X588751Y339842D01*
X588616Y339805D01*
X588482Y339764D01*
X588349Y339719D01*
X588217Y339671D01*
X588087Y339619D01*
X587958Y339564D01*
X587831Y339505D01*
X587705Y339442D01*
X587581Y339376D01*
X587460Y339307D01*
X587340Y339234D01*
X587222Y339157D01*
X587107Y339078D01*
X586993Y338995D01*
X586883Y338909D01*
X586774Y338820D01*
X586668Y338728D01*
X586565Y338633D01*
X586464Y338536D01*
X586367Y338435D01*
X586272Y338332D01*
X586180Y338226D01*
X586091Y338117D01*
X586005Y338007D01*
X585922Y337893D01*
X585843Y337778D01*
X585766Y337660D01*
X585693Y337540D01*
X585624Y337419D01*
X585558Y337295D01*
X585495Y337169D01*
X585436Y337042D01*
X585381Y336913D01*
X585329Y336783D01*
X585281Y336651D01*
X585236Y336518D01*
X585195Y336384D01*
X585158Y336249D01*
X585125Y336113D01*
X585096Y335975D01*
X585071Y335838D01*
X585049Y335699D01*
X585031Y335560D01*
X585018Y335420D01*
X585008Y335280D01*
X585002Y335140D01*
X585000Y335000D01*
X585002Y334860D01*
X585008Y334720D01*
X585018Y334580D01*
X585031Y334440D01*
X585049Y334301D01*
X585071Y334162D01*
X585096Y334025D01*
X585125Y333887D01*
X585158Y333751D01*
X585195Y333616D01*
X585236Y333482D01*
X585281Y333349D01*
X585329Y333217D01*
X585381Y333087D01*
X585436Y332958D01*
X585495Y332831D01*
X585558Y332705D01*
X585624Y332581D01*
X585693Y332460D01*
X585766Y332340D01*
X585843Y332222D01*
X585922Y332107D01*
X586005Y331993D01*
X586091Y331883D01*
X586180Y331774D01*
X586272Y331668D01*
X586367Y331565D01*
X586464Y331464D01*
X586565Y331367D01*
X586668Y331272D01*
X586774Y331180D01*
X586883Y331091D01*
X586993Y331005D01*
X587107Y330922D01*
X587222Y330843D01*
X587340Y330766D01*
X587460Y330693D01*
X587581Y330624D01*
X587705Y330558D01*
X587831Y330495D01*
X587958Y330436D01*
X588087Y330381D01*
X588217Y330329D01*
X588349Y330281D01*
X588482Y330236D01*
X588616Y330195D01*
X588751Y330158D01*
X588887Y330125D01*
X589025Y330096D01*
X589162Y330071D01*
X589301Y330049D01*
X589440Y330031D01*
X589580Y330018D01*
X589720Y330008D01*
X589860Y330002D01*
X590000Y330000D01*
X590140Y330002D01*
X590280Y330008D01*
X590420Y330018D01*
X590560Y330031D01*
X590699Y330049D01*
X590838Y330071D01*
X590975Y330096D01*
X591113Y330125D01*
X591249Y330158D01*
X591384Y330195D01*
X591518Y330236D01*
X591651Y330281D01*
X591783Y330329D01*
X591913Y330381D01*
X592042Y330436D01*
X592169Y330495D01*
X592295Y330558D01*
X592419Y330624D01*
X592540Y330693D01*
X592660Y330766D01*
X592778Y330843D01*
X592893Y330922D01*
X593007Y331005D01*
X593117Y331091D01*
X593226Y331180D01*
X593332Y331272D01*
X593435Y331367D01*
X593536Y331464D01*
X593633Y331565D01*
X593728Y331668D01*
X593820Y331774D01*
X593909Y331883D01*
X593995Y331993D01*
X594078Y332107D01*
X594157Y332222D01*
X594234Y332340D01*
X594307Y332460D01*
X594376Y332581D01*
X594442Y332705D01*
X594505Y332831D01*
X594564Y332958D01*
X594619Y333087D01*
X594671Y333217D01*
X594719Y333349D01*
X594764Y333482D01*
X594805Y333616D01*
X594842Y333751D01*
X594875Y333887D01*
X594904Y334025D01*
X594929Y334162D01*
X594951Y334301D01*
X594969Y334440D01*
X594982Y334580D01*
X594992Y334720D01*
X594998Y334860D01*
X595000Y335000D01*
X594998Y335140D01*
X594992Y335280D01*
X594982Y335420D01*
X594969Y335560D01*
X594951Y335699D01*
X594929Y335838D01*
X594904Y335975D01*
X594875Y336113D01*
X594842Y336249D01*
X594805Y336384D01*
X594764Y336518D01*
X594719Y336651D01*
X594671Y336783D01*
X594619Y336913D01*
X594564Y337042D01*
X594505Y337169D01*
X594442Y337295D01*
X594376Y337419D01*
X594307Y337540D01*
X594234Y337660D01*
X594157Y337778D01*
X594078Y337893D01*
X593995Y338007D01*
X593909Y338117D01*
X593820Y338226D01*
X593728Y338332D01*
X593633Y338435D01*
X593536Y338536D01*
X593435Y338633D01*
X593332Y338728D01*
X593226Y338820D01*
X593117Y338909D01*
X593007Y338995D01*
X592893Y339078D01*
X592778Y339157D01*
X592660Y339234D01*
X592540Y339307D01*
X592419Y339376D01*
X592295Y339442D01*
X592169Y339505D01*
X592042Y339564D01*
X591913Y339619D01*
X591783Y339671D01*
X591651Y339719D01*
X591518Y339764D01*
X591384Y339805D01*
X591249Y339842D01*
X591113Y339875D01*
X590975Y339904D01*
X590838Y339929D01*
X590699Y339951D01*
X590560Y339969D01*
X590420Y339982D01*
X590280Y339992D01*
X590140Y339998D01*
X590000Y340000D01*
X530000Y340000D02*
X529860Y339998D01*
X529720Y339992D01*
X529580Y339982D01*
X529440Y339969D01*
X529301Y339951D01*
X529162Y339929D01*
X529025Y339904D01*
X528887Y339875D01*
X528751Y339842D01*
X528616Y339805D01*
X528482Y339764D01*
X528349Y339719D01*
X528217Y339671D01*
X528087Y339619D01*
X527958Y339564D01*
X527831Y339505D01*
X527705Y339442D01*
X527581Y339376D01*
X527460Y339307D01*
X527340Y339234D01*
X527222Y339157D01*
X527107Y339078D01*
X526993Y338995D01*
X526883Y338909D01*
X526774Y338820D01*
X526668Y338728D01*
X526565Y338633D01*
X526464Y338536D01*
X526367Y338435D01*
X526272Y338332D01*
X526180Y338226D01*
X526091Y338117D01*
X526005Y338007D01*
X525922Y337893D01*
X525843Y337778D01*
X525766Y337660D01*
X525693Y337540D01*
X525624Y337419D01*
X525558Y337295D01*
X525495Y337169D01*
X525436Y337042D01*
X525381Y336913D01*
X525329Y336783D01*
X525281Y336651D01*
X525236Y336518D01*
X525195Y336384D01*
X525158Y336249D01*
X525125Y336113D01*
X525096Y335975D01*
X525071Y335838D01*
X525049Y335699D01*
X525031Y335560D01*
X525018Y335420D01*
X525008Y335280D01*
X525002Y335140D01*
X525000Y335000D01*
X525002Y334860D01*
X525008Y334720D01*
X525018Y334580D01*
X525031Y334440D01*
X525049Y334301D01*
X525071Y334162D01*
X525096Y334025D01*
X525125Y333887D01*
X525158Y333751D01*
X525195Y333616D01*
X525236Y333482D01*
X525281Y333349D01*
X525329Y333217D01*
X525381Y333087D01*
X525436Y332958D01*
X525495Y332831D01*
X525558Y332705D01*
X525624Y332581D01*
X525693Y332460D01*
X525766Y332340D01*
X525843Y332222D01*
X525922Y332107D01*
X526005Y331993D01*
X526091Y331883D01*
X526180Y331774D01*
X526272Y331668D01*
X526367Y331565D01*
X526464Y331464D01*
X526565Y331367D01*
X526668Y331272D01*
X526774Y331180D01*
X526883Y331091D01*
X526993Y331005D01*
X527107Y330922D01*
X527222Y330843D01*
X527340Y330766D01*
X527460Y330693D01*
X527581Y330624D01*
X527705Y330558D01*
X527831Y330495D01*
X527958Y330436D01*
X528087Y330381D01*
X528217Y330329D01*
X528349Y330281D01*
X528482Y330236D01*
X528616Y330195D01*
X528751Y330158D01*
X528887Y330125D01*
X529025Y330096D01*
X529162Y330071D01*
X529301Y330049D01*
X529440Y330031D01*
X529580Y330018D01*
X529720Y330008D01*
X529860Y330002D01*
X530000Y330000D01*
X530140Y330002D01*
X530280Y330008D01*
X530420Y330018D01*
X530560Y330031D01*
X530699Y330049D01*
X530838Y330071D01*
X530975Y330096D01*
X531113Y330125D01*
X531249Y330158D01*
X531384Y330195D01*
X531518Y330236D01*
X531651Y330281D01*
X531783Y330329D01*
X531913Y330381D01*
X532042Y330436D01*
X532169Y330495D01*
X532295Y330558D01*
X532419Y330624D01*
X532540Y330693D01*
X532660Y330766D01*
X532778Y330843D01*
X532893Y330922D01*
X533007Y331005D01*
X533117Y331091D01*
X533226Y331180D01*
X533332Y331272D01*
X533435Y331367D01*
X533536Y331464D01*
X533633Y331565D01*
X533728Y331668D01*
X533820Y331774D01*
X533909Y331883D01*
X533995Y331993D01*
X534078Y332107D01*
X534157Y332222D01*
X534234Y332340D01*
X534307Y332460D01*
X534376Y332581D01*
X534442Y332705D01*
X534505Y332831D01*
X534564Y332958D01*
X534619Y333087D01*
X534671Y333217D01*
X534719Y333349D01*
X534764Y333482D01*
X534805Y333616D01*
X534842Y333751D01*
X534875Y333887D01*
X534904Y334025D01*
X534929Y334162D01*
X534951Y334301D01*
X534969Y334440D01*
X534982Y334580D01*
X534992Y334720D01*
X534998Y334860D01*
X535000Y335000D01*
X534998Y335140D01*
X534992Y335280D01*
X534982Y335420D01*
X534969Y335560D01*
X534951Y335699D01*
X534929Y335838D01*
X534904Y335975D01*
X534875Y336113D01*
X534842Y336249D01*
X534805Y336384D01*
X534764Y336518D01*
X534719Y336651D01*
X534671Y336783D01*
X534619Y336913D01*
X534564Y337042D01*
X534505Y337169D01*
X534442Y337295D01*
X534376Y337419D01*
X534307Y337540D01*
X534234Y337660D01*
X534157Y337778D01*
X534078Y337893D01*
X533995Y338007D01*
X533909Y338117D01*
X533820Y338226D01*
X533728Y338332D01*
X533633Y338435D01*
X533536Y338536D01*
X533435Y338633D01*
X533332Y338728D01*
X533226Y338820D01*
X533117Y338909D01*
X533007Y338995D01*
X532893Y339078D01*
X532778Y339157D01*
X532660Y339234D01*
X532540Y339307D01*
X532419Y339376D01*
X532295Y339442D01*
X532169Y339505D01*
X532042Y339564D01*
X531913Y339619D01*
X531783Y339671D01*
X531651Y339719D01*
X531518Y339764D01*
X531384Y339805D01*
X531249Y339842D01*
X531113Y339875D01*
X530975Y339904D01*
X530838Y339929D01*
X530699Y339951D01*
X530560Y339969D01*
X530420Y339982D01*
X530280Y339992D01*
X530140Y339998D01*
X530000Y340000D01*
X560000Y289500D02*
X559860Y289498D01*
X559720Y289492D01*
X559580Y289482D01*
X559440Y289469D01*
X559301Y289451D01*
X559162Y289429D01*
X559025Y289404D01*
X558887Y289375D01*
X558751Y289342D01*
X558616Y289305D01*
X558482Y289264D01*
X558349Y289219D01*
X558217Y289171D01*
X558087Y289119D01*
X557958Y289064D01*
X557831Y289005D01*
X557705Y288942D01*
X557581Y288876D01*
X557460Y288807D01*
X557340Y288734D01*
X557222Y288657D01*
X557107Y288578D01*
X556993Y288495D01*
X556883Y288409D01*
X556774Y288320D01*
X556668Y288228D01*
X556565Y288133D01*
X556464Y288036D01*
X556367Y287935D01*
X556272Y287832D01*
X556180Y287726D01*
X556091Y287617D01*
X556005Y287507D01*
X555922Y287393D01*
X555843Y287278D01*
X555766Y287160D01*
X555693Y287040D01*
X555624Y286919D01*
X555558Y286795D01*
X555495Y286669D01*
X555436Y286542D01*
X555381Y286413D01*
X555329Y286283D01*
X555281Y286151D01*
X555236Y286018D01*
X555195Y285884D01*
X555158Y285749D01*
X555125Y285613D01*
X555096Y285475D01*
X555071Y285338D01*
X555049Y285199D01*
X555031Y285060D01*
X555018Y284920D01*
X555008Y284780D01*
X555002Y284640D01*
X555000Y284500D01*
X555002Y284360D01*
X555008Y284220D01*
X555018Y284080D01*
X555031Y283940D01*
X555049Y283801D01*
X555071Y283662D01*
X555096Y283525D01*
X555125Y283387D01*
X555158Y283251D01*
X555195Y283116D01*
X555236Y282982D01*
X555281Y282849D01*
X555329Y282717D01*
X555381Y282587D01*
X555436Y282458D01*
X555495Y282331D01*
X555558Y282205D01*
X555624Y282081D01*
X555693Y281960D01*
X555766Y281840D01*
X555843Y281722D01*
X555922Y281607D01*
X556005Y281493D01*
X556091Y281383D01*
X556180Y281274D01*
X556272Y281168D01*
X556367Y281065D01*
X556464Y280964D01*
X556565Y280867D01*
X556668Y280772D01*
X556774Y280680D01*
X556883Y280591D01*
X556993Y280505D01*
X557107Y280422D01*
X557222Y280343D01*
X557340Y280266D01*
X557460Y280193D01*
X557581Y280124D01*
X557705Y280058D01*
X557831Y279995D01*
X557958Y279936D01*
X558087Y279881D01*
X558217Y279829D01*
X558349Y279781D01*
X558482Y279736D01*
X558616Y279695D01*
X558751Y279658D01*
X558887Y279625D01*
X559025Y279596D01*
X559162Y279571D01*
X559301Y279549D01*
X559440Y279531D01*
X559580Y279518D01*
X559720Y279508D01*
X559860Y279502D01*
X560000Y279500D01*
X560140Y279502D01*
X560280Y279508D01*
X560420Y279518D01*
X560560Y279531D01*
X560699Y279549D01*
X560838Y279571D01*
X560975Y279596D01*
X561113Y279625D01*
X561249Y279658D01*
X561384Y279695D01*
X561518Y279736D01*
X561651Y279781D01*
X561783Y279829D01*
X561913Y279881D01*
X562042Y279936D01*
X562169Y279995D01*
X562295Y280058D01*
X562419Y280124D01*
X562540Y280193D01*
X562660Y280266D01*
X562778Y280343D01*
X562893Y280422D01*
X563007Y280505D01*
X563117Y280591D01*
X563226Y280680D01*
X563332Y280772D01*
X563435Y280867D01*
X563536Y280964D01*
X563633Y281065D01*
X563728Y281168D01*
X563820Y281274D01*
X563909Y281383D01*
X563995Y281493D01*
X564078Y281607D01*
X564157Y281722D01*
X564234Y281840D01*
X564307Y281960D01*
X564376Y282081D01*
X564442Y282205D01*
X564505Y282331D01*
X564564Y282458D01*
X564619Y282587D01*
X564671Y282717D01*
X564719Y282849D01*
X564764Y282982D01*
X564805Y283116D01*
X564842Y283251D01*
X564875Y283387D01*
X564904Y283525D01*
X564929Y283662D01*
X564951Y283801D01*
X564969Y283940D01*
X564982Y284080D01*
X564992Y284220D01*
X564998Y284360D01*
X565000Y284500D01*
X564998Y284640D01*
X564992Y284780D01*
X564982Y284920D01*
X564969Y285060D01*
X564951Y285199D01*
X564929Y285338D01*
X564904Y285475D01*
X564875Y285613D01*
X564842Y285749D01*
X564805Y285884D01*
X564764Y286018D01*
X564719Y286151D01*
X564671Y286283D01*
X564619Y286413D01*
X564564Y286542D01*
X564505Y286669D01*
X564442Y286795D01*
X564376Y286919D01*
X564307Y287040D01*
X564234Y287160D01*
X564157Y287278D01*
X564078Y287393D01*
X563995Y287507D01*
X563909Y287617D01*
X563820Y287726D01*
X563728Y287832D01*
X563633Y287935D01*
X563536Y288036D01*
X563435Y288133D01*
X563332Y288228D01*
X563226Y288320D01*
X563117Y288409D01*
X563007Y288495D01*
X562893Y288578D01*
X562778Y288657D01*
X562660Y288734D01*
X562540Y288807D01*
X562419Y288876D01*
X562295Y288942D01*
X562169Y289005D01*
X562042Y289064D01*
X561913Y289119D01*
X561783Y289171D01*
X561651Y289219D01*
X561518Y289264D01*
X561384Y289305D01*
X561249Y289342D01*
X561113Y289375D01*
X560975Y289404D01*
X560838Y289429D01*
X560699Y289451D01*
X560560Y289469D01*
X560420Y289482D01*
X560280Y289492D01*
X560140Y289498D01*
X560000Y289500D01*
X592700Y289500D02*
X592560Y289498D01*
X592420Y289492D01*
X592280Y289482D01*
X592140Y289469D01*
X592001Y289451D01*
X591862Y289429D01*
X591725Y289404D01*
X591587Y289375D01*
X591451Y289342D01*
X591316Y289305D01*
X591182Y289264D01*
X591049Y289219D01*
X590917Y289171D01*
X590787Y289119D01*
X590658Y289064D01*
X590531Y289005D01*
X590405Y288942D01*
X590281Y288876D01*
X590160Y288807D01*
X590040Y288734D01*
X589922Y288657D01*
X589807Y288578D01*
X589693Y288495D01*
X589583Y288409D01*
X589474Y288320D01*
X589368Y288228D01*
X589265Y288133D01*
X589164Y288036D01*
X589067Y287935D01*
X588972Y287832D01*
X588880Y287726D01*
X588791Y287617D01*
X588705Y287507D01*
X588622Y287393D01*
X588543Y287278D01*
X588466Y287160D01*
X588393Y287040D01*
X588324Y286919D01*
X588258Y286795D01*
X588195Y286669D01*
X588136Y286542D01*
X588081Y286413D01*
X588029Y286283D01*
X587981Y286151D01*
X587936Y286018D01*
X587895Y285884D01*
X587858Y285749D01*
X587825Y285613D01*
X587796Y285475D01*
X587771Y285338D01*
X587749Y285199D01*
X587731Y285060D01*
X587718Y284920D01*
X587708Y284780D01*
X587702Y284640D01*
X587700Y284500D01*
X587702Y284360D01*
X587708Y284220D01*
X587718Y284080D01*
X587731Y283940D01*
X587749Y283801D01*
X587771Y283662D01*
X587796Y283525D01*
X587825Y283387D01*
X587858Y283251D01*
X587895Y283116D01*
X587936Y282982D01*
X587981Y282849D01*
X588029Y282717D01*
X588081Y282587D01*
X588136Y282458D01*
X588195Y282331D01*
X588258Y282205D01*
X588324Y282081D01*
X588393Y281960D01*
X588466Y281840D01*
X588543Y281722D01*
X588622Y281607D01*
X588705Y281493D01*
X588791Y281383D01*
X588880Y281274D01*
X588972Y281168D01*
X589067Y281065D01*
X589164Y280964D01*
X589265Y280867D01*
X589368Y280772D01*
X589474Y280680D01*
X589583Y280591D01*
X589693Y280505D01*
X589807Y280422D01*
X589922Y280343D01*
X590040Y280266D01*
X590160Y280193D01*
X590281Y280124D01*
X590405Y280058D01*
X590531Y279995D01*
X590658Y279936D01*
X590787Y279881D01*
X590917Y279829D01*
X591049Y279781D01*
X591182Y279736D01*
X591316Y279695D01*
X591451Y279658D01*
X591587Y279625D01*
X591725Y279596D01*
X591862Y279571D01*
X592001Y279549D01*
X592140Y279531D01*
X592280Y279518D01*
X592420Y279508D01*
X592560Y279502D01*
X592700Y279500D01*
X592840Y279502D01*
X592980Y279508D01*
X593120Y279518D01*
X593260Y279531D01*
X593399Y279549D01*
X593538Y279571D01*
X593675Y279596D01*
X593813Y279625D01*
X593949Y279658D01*
X594084Y279695D01*
X594218Y279736D01*
X594351Y279781D01*
X594483Y279829D01*
X594613Y279881D01*
X594742Y279936D01*
X594869Y279995D01*
X594995Y280058D01*
X595119Y280124D01*
X595240Y280193D01*
X595360Y280266D01*
X595478Y280343D01*
X595593Y280422D01*
X595707Y280505D01*
X595817Y280591D01*
X595926Y280680D01*
X596032Y280772D01*
X596135Y280867D01*
X596236Y280964D01*
X596333Y281065D01*
X596428Y281168D01*
X596520Y281274D01*
X596609Y281383D01*
X596695Y281493D01*
X596778Y281607D01*
X596857Y281722D01*
X596934Y281840D01*
X597007Y281960D01*
X597076Y282081D01*
X597142Y282205D01*
X597205Y282331D01*
X597264Y282458D01*
X597319Y282587D01*
X597371Y282717D01*
X597419Y282849D01*
X597464Y282982D01*
X597505Y283116D01*
X597542Y283251D01*
X597575Y283387D01*
X597604Y283525D01*
X597629Y283662D01*
X597651Y283801D01*
X597669Y283940D01*
X597682Y284080D01*
X597692Y284220D01*
X597698Y284360D01*
X597700Y284500D01*
X597698Y284640D01*
X597692Y284780D01*
X597682Y284920D01*
X597669Y285060D01*
X597651Y285199D01*
X597629Y285338D01*
X597604Y285475D01*
X597575Y285613D01*
X597542Y285749D01*
X597505Y285884D01*
X597464Y286018D01*
X597419Y286151D01*
X597371Y286283D01*
X597319Y286413D01*
X597264Y286542D01*
X597205Y286669D01*
X597142Y286795D01*
X597076Y286919D01*
X597007Y287040D01*
X596934Y287160D01*
X596857Y287278D01*
X596778Y287393D01*
X596695Y287507D01*
X596609Y287617D01*
X596520Y287726D01*
X596428Y287832D01*
X596333Y287935D01*
X596236Y288036D01*
X596135Y288133D01*
X596032Y288228D01*
X595926Y288320D01*
X595817Y288409D01*
X595707Y288495D01*
X595593Y288578D01*
X595478Y288657D01*
X595360Y288734D01*
X595240Y288807D01*
X595119Y288876D01*
X594995Y288942D01*
X594869Y289005D01*
X594742Y289064D01*
X594613Y289119D01*
X594483Y289171D01*
X594351Y289219D01*
X594218Y289264D01*
X594084Y289305D01*
X593949Y289342D01*
X593813Y289375D01*
X593675Y289404D01*
X593538Y289429D01*
X593399Y289451D01*
X593260Y289469D01*
X593120Y289482D01*
X592980Y289492D01*
X592840Y289498D01*
X592700Y289500D01*
X527300Y289500D02*
X527160Y289498D01*
X527020Y289492D01*
X526880Y289482D01*
X526740Y289469D01*
X526601Y289451D01*
X526462Y289429D01*
X526325Y289404D01*
X526187Y289375D01*
X526051Y289342D01*
X525916Y289305D01*
X525782Y289264D01*
X525649Y289219D01*
X525517Y289171D01*
X525387Y289119D01*
X525258Y289064D01*
X525131Y289005D01*
X525005Y288942D01*
X524881Y288876D01*
X524760Y288807D01*
X524640Y288734D01*
X524522Y288657D01*
X524407Y288578D01*
X524293Y288495D01*
X524183Y288409D01*
X524074Y288320D01*
X523968Y288228D01*
X523865Y288133D01*
X523764Y288036D01*
X523667Y287935D01*
X523572Y287832D01*
X523480Y287726D01*
X523391Y287617D01*
X523305Y287507D01*
X523222Y287393D01*
X523143Y287278D01*
X523066Y287160D01*
X522993Y287040D01*
X522924Y286919D01*
X522858Y286795D01*
X522795Y286669D01*
X522736Y286542D01*
X522681Y286413D01*
X522629Y286283D01*
X522581Y286151D01*
X522536Y286018D01*
X522495Y285884D01*
X522458Y285749D01*
X522425Y285613D01*
X522396Y285475D01*
X522371Y285338D01*
X522349Y285199D01*
X522331Y285060D01*
X522318Y284920D01*
X522308Y284780D01*
X522302Y284640D01*
X522300Y284500D01*
X522302Y284360D01*
X522308Y284220D01*
X522318Y284080D01*
X522331Y283940D01*
X522349Y283801D01*
X522371Y283662D01*
X522396Y283525D01*
X522425Y283387D01*
X522458Y283251D01*
X522495Y283116D01*
X522536Y282982D01*
X522581Y282849D01*
X522629Y282717D01*
X522681Y282587D01*
X522736Y282458D01*
X522795Y282331D01*
X522858Y282205D01*
X522924Y282081D01*
X522993Y281960D01*
X523066Y281840D01*
X523143Y281722D01*
X523222Y281607D01*
X523305Y281493D01*
X523391Y281383D01*
X523480Y281274D01*
X523572Y281168D01*
X523667Y281065D01*
X523764Y280964D01*
X523865Y280867D01*
X523968Y280772D01*
X524074Y280680D01*
X524183Y280591D01*
X524293Y280505D01*
X524407Y280422D01*
X524522Y280343D01*
X524640Y280266D01*
X524760Y280193D01*
X524881Y280124D01*
X525005Y280058D01*
X525131Y279995D01*
X525258Y279936D01*
X525387Y279881D01*
X525517Y279829D01*
X525649Y279781D01*
X525782Y279736D01*
X525916Y279695D01*
X526051Y279658D01*
X526187Y279625D01*
X526325Y279596D01*
X526462Y279571D01*
X526601Y279549D01*
X526740Y279531D01*
X526880Y279518D01*
X527020Y279508D01*
X527160Y279502D01*
X527300Y279500D01*
X527440Y279502D01*
X527580Y279508D01*
X527720Y279518D01*
X527860Y279531D01*
X527999Y279549D01*
X528138Y279571D01*
X528275Y279596D01*
X528413Y279625D01*
X528549Y279658D01*
X528684Y279695D01*
X528818Y279736D01*
X528951Y279781D01*
X529083Y279829D01*
X529213Y279881D01*
X529342Y279936D01*
X529469Y279995D01*
X529595Y280058D01*
X529719Y280124D01*
X529840Y280193D01*
X529960Y280266D01*
X530078Y280343D01*
X530193Y280422D01*
X530307Y280505D01*
X530417Y280591D01*
X530526Y280680D01*
X530632Y280772D01*
X530735Y280867D01*
X530836Y280964D01*
X530933Y281065D01*
X531028Y281168D01*
X531120Y281274D01*
X531209Y281383D01*
X531295Y281493D01*
X531378Y281607D01*
X531457Y281722D01*
X531534Y281840D01*
X531607Y281960D01*
X531676Y282081D01*
X531742Y282205D01*
X531805Y282331D01*
X531864Y282458D01*
X531919Y282587D01*
X531971Y282717D01*
X532019Y282849D01*
X532064Y282982D01*
X532105Y283116D01*
X532142Y283251D01*
X532175Y283387D01*
X532204Y283525D01*
X532229Y283662D01*
X532251Y283801D01*
X532269Y283940D01*
X532282Y284080D01*
X532292Y284220D01*
X532298Y284360D01*
X532300Y284500D01*
X532298Y284640D01*
X532292Y284780D01*
X532282Y284920D01*
X532269Y285060D01*
X532251Y285199D01*
X532229Y285338D01*
X532204Y285475D01*
X532175Y285613D01*
X532142Y285749D01*
X532105Y285884D01*
X532064Y286018D01*
X532019Y286151D01*
X531971Y286283D01*
X531919Y286413D01*
X531864Y286542D01*
X531805Y286669D01*
X531742Y286795D01*
X531676Y286919D01*
X531607Y287040D01*
X531534Y287160D01*
X531457Y287278D01*
X531378Y287393D01*
X531295Y287507D01*
X531209Y287617D01*
X531120Y287726D01*
X531028Y287832D01*
X530933Y287935D01*
X530836Y288036D01*
X530735Y288133D01*
X530632Y288228D01*
X530526Y288320D01*
X530417Y288409D01*
X530307Y288495D01*
X530193Y288578D01*
X530078Y288657D01*
X529960Y288734D01*
X529840Y288807D01*
X529719Y288876D01*
X529595Y288942D01*
X529469Y289005D01*
X529342Y289064D01*
X529213Y289119D01*
X529083Y289171D01*
X528951Y289219D01*
X528818Y289264D01*
X528684Y289305D01*
X528549Y289342D01*
X528413Y289375D01*
X528275Y289404D01*
X528138Y289429D01*
X527999Y289451D01*
X527860Y289469D01*
X527720Y289482D01*
X527580Y289492D01*
X527440Y289498D01*
X527300Y289500D01*
X779700Y380000D02*
X779560Y380002D01*
X779420Y380008D01*
X779280Y380018D01*
X779140Y380031D01*
X779001Y380049D01*
X778862Y380071D01*
X778725Y380096D01*
X778587Y380125D01*
X778451Y380158D01*
X778316Y380195D01*
X778182Y380236D01*
X778049Y380281D01*
X777917Y380329D01*
X777787Y380381D01*
X777658Y380436D01*
X777531Y380495D01*
X777405Y380558D01*
X777281Y380624D01*
X777160Y380693D01*
X777040Y380766D01*
X776922Y380843D01*
X776807Y380922D01*
X776693Y381005D01*
X776583Y381091D01*
X776474Y381180D01*
X776368Y381272D01*
X776265Y381367D01*
X776164Y381464D01*
X776067Y381565D01*
X775972Y381668D01*
X775880Y381774D01*
X775791Y381883D01*
X775705Y381993D01*
X775622Y382107D01*
X775543Y382222D01*
X775466Y382340D01*
X775393Y382460D01*
X775324Y382581D01*
X775258Y382705D01*
X775195Y382831D01*
X775136Y382958D01*
X775081Y383087D01*
X775029Y383217D01*
X774981Y383349D01*
X774936Y383482D01*
X774895Y383616D01*
X774858Y383751D01*
X774825Y383887D01*
X774796Y384025D01*
X774771Y384162D01*
X774749Y384301D01*
X774731Y384440D01*
X774718Y384580D01*
X774708Y384720D01*
X774702Y384860D01*
X774700Y385000D01*
X774702Y385140D01*
X774708Y385280D01*
X774718Y385420D01*
X774731Y385560D01*
X774749Y385699D01*
X774771Y385838D01*
X774796Y385975D01*
X774825Y386113D01*
X774858Y386249D01*
X774895Y386384D01*
X774936Y386518D01*
X774981Y386651D01*
X775029Y386783D01*
X775081Y386913D01*
X775136Y387042D01*
X775195Y387169D01*
X775258Y387295D01*
X775324Y387419D01*
X775393Y387540D01*
X775466Y387660D01*
X775543Y387778D01*
X775622Y387893D01*
X775705Y388007D01*
X775791Y388117D01*
X775880Y388226D01*
X775972Y388332D01*
X776067Y388435D01*
X776164Y388536D01*
X776265Y388633D01*
X776368Y388728D01*
X776474Y388820D01*
X776583Y388909D01*
X776693Y388995D01*
X776807Y389078D01*
X776922Y389157D01*
X777040Y389234D01*
X777160Y389307D01*
X777281Y389376D01*
X777405Y389442D01*
X777531Y389505D01*
X777658Y389564D01*
X777787Y389619D01*
X777917Y389671D01*
X778049Y389719D01*
X778182Y389764D01*
X778316Y389805D01*
X778451Y389842D01*
X778587Y389875D01*
X778725Y389904D01*
X778862Y389929D01*
X779001Y389951D01*
X779140Y389969D01*
X779280Y389982D01*
X779420Y389992D01*
X779560Y389998D01*
X779700Y390000D01*
X779840Y389998D01*
X779980Y389992D01*
X780120Y389982D01*
X780260Y389969D01*
X780399Y389951D01*
X780538Y389929D01*
X780675Y389904D01*
X780813Y389875D01*
X780949Y389842D01*
X781084Y389805D01*
X781218Y389764D01*
X781351Y389719D01*
X781483Y389671D01*
X781613Y389619D01*
X781742Y389564D01*
X781869Y389505D01*
X781995Y389442D01*
X782119Y389376D01*
X782240Y389307D01*
X782360Y389234D01*
X782478Y389157D01*
X782593Y389078D01*
X782707Y388995D01*
X782817Y388909D01*
X782926Y388820D01*
X783032Y388728D01*
X783135Y388633D01*
X783236Y388536D01*
X783333Y388435D01*
X783428Y388332D01*
X783520Y388226D01*
X783609Y388117D01*
X783695Y388007D01*
X783778Y387893D01*
X783857Y387778D01*
X783934Y387660D01*
X784007Y387540D01*
X784076Y387419D01*
X784142Y387295D01*
X784205Y387169D01*
X784264Y387042D01*
X784319Y386913D01*
X784371Y386783D01*
X784419Y386651D01*
X784464Y386518D01*
X784505Y386384D01*
X784542Y386249D01*
X784575Y386113D01*
X784604Y385975D01*
X784629Y385838D01*
X784651Y385699D01*
X784669Y385560D01*
X784682Y385420D01*
X784692Y385280D01*
X784698Y385140D01*
X784700Y385000D01*
X784698Y384860D01*
X784692Y384720D01*
X784682Y384580D01*
X784669Y384440D01*
X784651Y384301D01*
X784629Y384162D01*
X784604Y384025D01*
X784575Y383887D01*
X784542Y383751D01*
X784505Y383616D01*
X784464Y383482D01*
X784419Y383349D01*
X784371Y383217D01*
X784319Y383087D01*
X784264Y382958D01*
X784205Y382831D01*
X784142Y382705D01*
X784076Y382581D01*
X784007Y382460D01*
X783934Y382340D01*
X783857Y382222D01*
X783778Y382107D01*
X783695Y381993D01*
X783609Y381883D01*
X783520Y381774D01*
X783428Y381668D01*
X783333Y381565D01*
X783236Y381464D01*
X783135Y381367D01*
X783032Y381272D01*
X782926Y381180D01*
X782817Y381091D01*
X782707Y381005D01*
X782593Y380922D01*
X782478Y380843D01*
X782360Y380766D01*
X782240Y380693D01*
X782119Y380624D01*
X781995Y380558D01*
X781869Y380495D01*
X781742Y380436D01*
X781613Y380381D01*
X781483Y380329D01*
X781351Y380281D01*
X781218Y380236D01*
X781084Y380195D01*
X780949Y380158D01*
X780813Y380125D01*
X780675Y380096D01*
X780538Y380071D01*
X780399Y380049D01*
X780260Y380031D01*
X780120Y380018D01*
X779980Y380008D01*
X779840Y380002D01*
X779700Y380000D01*
X780000Y340500D02*
X779860Y340498D01*
X779720Y340492D01*
X779580Y340482D01*
X779440Y340469D01*
X779301Y340451D01*
X779162Y340429D01*
X779025Y340404D01*
X778887Y340375D01*
X778751Y340342D01*
X778616Y340305D01*
X778482Y340264D01*
X778349Y340219D01*
X778217Y340171D01*
X778087Y340119D01*
X777958Y340064D01*
X777831Y340005D01*
X777705Y339942D01*
X777581Y339876D01*
X777460Y339807D01*
X777340Y339734D01*
X777222Y339657D01*
X777107Y339578D01*
X776993Y339495D01*
X776883Y339409D01*
X776774Y339320D01*
X776668Y339228D01*
X776565Y339133D01*
X776464Y339036D01*
X776367Y338935D01*
X776272Y338832D01*
X776180Y338726D01*
X776091Y338617D01*
X776005Y338507D01*
X775922Y338393D01*
X775843Y338278D01*
X775766Y338160D01*
X775693Y338040D01*
X775624Y337919D01*
X775558Y337795D01*
X775495Y337669D01*
X775436Y337542D01*
X775381Y337413D01*
X775329Y337283D01*
X775281Y337151D01*
X775236Y337018D01*
X775195Y336884D01*
X775158Y336749D01*
X775125Y336613D01*
X775096Y336475D01*
X775071Y336338D01*
X775049Y336199D01*
X775031Y336060D01*
X775018Y335920D01*
X775008Y335780D01*
X775002Y335640D01*
X775000Y335500D01*
X775002Y335360D01*
X775008Y335220D01*
X775018Y335080D01*
X775031Y334940D01*
X775049Y334801D01*
X775071Y334662D01*
X775096Y334525D01*
X775125Y334387D01*
X775158Y334251D01*
X775195Y334116D01*
X775236Y333982D01*
X775281Y333849D01*
X775329Y333717D01*
X775381Y333587D01*
X775436Y333458D01*
X775495Y333331D01*
X775558Y333205D01*
X775624Y333081D01*
X775693Y332960D01*
X775766Y332840D01*
X775843Y332722D01*
X775922Y332607D01*
X776005Y332493D01*
X776091Y332383D01*
X776180Y332274D01*
X776272Y332168D01*
X776367Y332065D01*
X776464Y331964D01*
X776565Y331867D01*
X776668Y331772D01*
X776774Y331680D01*
X776883Y331591D01*
X776993Y331505D01*
X777107Y331422D01*
X777222Y331343D01*
X777340Y331266D01*
X777460Y331193D01*
X777581Y331124D01*
X777705Y331058D01*
X777831Y330995D01*
X777958Y330936D01*
X778087Y330881D01*
X778217Y330829D01*
X778349Y330781D01*
X778482Y330736D01*
X778616Y330695D01*
X778751Y330658D01*
X778887Y330625D01*
X779025Y330596D01*
X779162Y330571D01*
X779301Y330549D01*
X779440Y330531D01*
X779580Y330518D01*
X779720Y330508D01*
X779860Y330502D01*
X780000Y330500D01*
X780140Y330502D01*
X780280Y330508D01*
X780420Y330518D01*
X780560Y330531D01*
X780699Y330549D01*
X780838Y330571D01*
X780975Y330596D01*
X781113Y330625D01*
X781249Y330658D01*
X781384Y330695D01*
X781518Y330736D01*
X781651Y330781D01*
X781783Y330829D01*
X781913Y330881D01*
X782042Y330936D01*
X782169Y330995D01*
X782295Y331058D01*
X782419Y331124D01*
X782540Y331193D01*
X782660Y331266D01*
X782778Y331343D01*
X782893Y331422D01*
X783007Y331505D01*
X783117Y331591D01*
X783226Y331680D01*
X783332Y331772D01*
X783435Y331867D01*
X783536Y331964D01*
X783633Y332065D01*
X783728Y332168D01*
X783820Y332274D01*
X783909Y332383D01*
X783995Y332493D01*
X784078Y332607D01*
X784157Y332722D01*
X784234Y332840D01*
X784307Y332960D01*
X784376Y333081D01*
X784442Y333205D01*
X784505Y333331D01*
X784564Y333458D01*
X784619Y333587D01*
X784671Y333717D01*
X784719Y333849D01*
X784764Y333982D01*
X784805Y334116D01*
X784842Y334251D01*
X784875Y334387D01*
X784904Y334525D01*
X784929Y334662D01*
X784951Y334801D01*
X784969Y334940D01*
X784982Y335080D01*
X784992Y335220D01*
X784998Y335360D01*
X785000Y335500D01*
X784998Y335640D01*
X784992Y335780D01*
X784982Y335920D01*
X784969Y336060D01*
X784951Y336199D01*
X784929Y336338D01*
X784904Y336475D01*
X784875Y336613D01*
X784842Y336749D01*
X784805Y336884D01*
X784764Y337018D01*
X784719Y337151D01*
X784671Y337283D01*
X784619Y337413D01*
X784564Y337542D01*
X784505Y337669D01*
X784442Y337795D01*
X784376Y337919D01*
X784307Y338040D01*
X784234Y338160D01*
X784157Y338278D01*
X784078Y338393D01*
X783995Y338507D01*
X783909Y338617D01*
X783820Y338726D01*
X783728Y338832D01*
X783633Y338935D01*
X783536Y339036D01*
X783435Y339133D01*
X783332Y339228D01*
X783226Y339320D01*
X783117Y339409D01*
X783007Y339495D01*
X782893Y339578D01*
X782778Y339657D01*
X782660Y339734D01*
X782540Y339807D01*
X782419Y339876D01*
X782295Y339942D01*
X782169Y340005D01*
X782042Y340064D01*
X781913Y340119D01*
X781783Y340171D01*
X781651Y340219D01*
X781518Y340264D01*
X781384Y340305D01*
X781249Y340342D01*
X781113Y340375D01*
X780975Y340404D01*
X780838Y340429D01*
X780699Y340451D01*
X780560Y340469D01*
X780420Y340482D01*
X780280Y340492D01*
X780140Y340498D01*
X780000Y340500D01*
X750000Y330500D02*
X740000Y330500D01*
X739860Y330502D01*
X739720Y330508D01*
X739580Y330518D01*
X739440Y330531D01*
X739301Y330549D01*
X739162Y330571D01*
X739025Y330596D01*
X738887Y330625D01*
X738751Y330658D01*
X738616Y330695D01*
X738482Y330736D01*
X738349Y330781D01*
X738217Y330829D01*
X738087Y330881D01*
X737958Y330936D01*
X737831Y330995D01*
X737705Y331058D01*
X737581Y331124D01*
X737460Y331193D01*
X737340Y331266D01*
X737222Y331343D01*
X737107Y331422D01*
X736993Y331505D01*
X736883Y331591D01*
X736774Y331680D01*
X736668Y331772D01*
X736565Y331867D01*
X736464Y331964D01*
X736367Y332065D01*
X736272Y332168D01*
X736180Y332274D01*
X736091Y332383D01*
X736005Y332493D01*
X735922Y332607D01*
X735843Y332722D01*
X735766Y332840D01*
X735693Y332960D01*
X735624Y333081D01*
X735558Y333205D01*
X735495Y333331D01*
X735436Y333458D01*
X735381Y333587D01*
X735329Y333717D01*
X735281Y333849D01*
X735236Y333982D01*
X735195Y334116D01*
X735158Y334251D01*
X735125Y334387D01*
X735096Y334525D01*
X735071Y334662D01*
X735049Y334801D01*
X735031Y334940D01*
X735018Y335080D01*
X735008Y335220D01*
X735002Y335360D01*
X735000Y335500D01*
X735002Y335640D01*
X735008Y335780D01*
X735018Y335920D01*
X735031Y336060D01*
X735049Y336199D01*
X735071Y336338D01*
X735096Y336475D01*
X735125Y336613D01*
X735158Y336749D01*
X735195Y336884D01*
X735236Y337018D01*
X735281Y337151D01*
X735329Y337283D01*
X735381Y337413D01*
X735436Y337542D01*
X735495Y337669D01*
X735558Y337795D01*
X735624Y337919D01*
X735693Y338040D01*
X735766Y338160D01*
X735843Y338278D01*
X735922Y338393D01*
X736005Y338507D01*
X736091Y338617D01*
X736180Y338726D01*
X736272Y338832D01*
X736367Y338935D01*
X736464Y339036D01*
X736565Y339133D01*
X736668Y339228D01*
X736774Y339320D01*
X736883Y339409D01*
X736993Y339495D01*
X737107Y339578D01*
X737222Y339657D01*
X737340Y339734D01*
X737460Y339807D01*
X737581Y339876D01*
X737705Y339942D01*
X737831Y340005D01*
X737958Y340064D01*
X738087Y340119D01*
X738217Y340171D01*
X738349Y340219D01*
X738482Y340264D01*
X738616Y340305D01*
X738751Y340342D01*
X738887Y340375D01*
X739025Y340404D01*
X739162Y340429D01*
X739301Y340451D01*
X739440Y340469D01*
X739580Y340482D01*
X739720Y340492D01*
X739860Y340498D01*
X740000Y340500D01*
X750000Y340500D01*
X750140Y340498D01*
X750280Y340492D01*
X750420Y340482D01*
X750560Y340469D01*
X750699Y340451D01*
X750838Y340429D01*
X750975Y340404D01*
X751113Y340375D01*
X751249Y340342D01*
X751384Y340305D01*
X751518Y340264D01*
X751651Y340219D01*
X751783Y340171D01*
X751913Y340119D01*
X752042Y340064D01*
X752169Y340005D01*
X752295Y339942D01*
X752419Y339876D01*
X752540Y339807D01*
X752660Y339734D01*
X752778Y339657D01*
X752893Y339578D01*
X753007Y339495D01*
X753117Y339409D01*
X753226Y339320D01*
X753332Y339228D01*
X753435Y339133D01*
X753536Y339036D01*
X753633Y338935D01*
X753728Y338832D01*
X753820Y338726D01*
X753909Y338617D01*
X753995Y338507D01*
X754078Y338393D01*
X754157Y338278D01*
X754234Y338160D01*
X754307Y338040D01*
X754376Y337919D01*
X754442Y337795D01*
X754505Y337669D01*
X754564Y337542D01*
X754619Y337413D01*
X754671Y337283D01*
X754719Y337151D01*
X754764Y337018D01*
X754805Y336884D01*
X754842Y336749D01*
X754875Y336613D01*
X754904Y336475D01*
X754929Y336338D01*
X754951Y336199D01*
X754969Y336060D01*
X754982Y335920D01*
X754992Y335780D01*
X754998Y335640D01*
X755000Y335500D01*
X754998Y335360D01*
X754992Y335220D01*
X754982Y335080D01*
X754969Y334940D01*
X754951Y334801D01*
X754929Y334662D01*
X754904Y334525D01*
X754875Y334387D01*
X754842Y334251D01*
X754805Y334116D01*
X754764Y333982D01*
X754719Y333849D01*
X754671Y333717D01*
X754619Y333587D01*
X754564Y333458D01*
X754505Y333331D01*
X754442Y333205D01*
X754376Y333081D01*
X754307Y332960D01*
X754234Y332840D01*
X754157Y332722D01*
X754078Y332607D01*
X753995Y332493D01*
X753909Y332383D01*
X753820Y332274D01*
X753728Y332168D01*
X753633Y332065D01*
X753536Y331964D01*
X753435Y331867D01*
X753332Y331772D01*
X753226Y331680D01*
X753117Y331591D01*
X753007Y331505D01*
X752893Y331422D01*
X752778Y331343D01*
X752660Y331266D01*
X752540Y331193D01*
X752419Y331124D01*
X752295Y331058D01*
X752169Y330995D01*
X752042Y330936D01*
X751913Y330881D01*
X751783Y330829D01*
X751651Y330781D01*
X751518Y330736D01*
X751384Y330695D01*
X751249Y330658D01*
X751113Y330625D01*
X750975Y330596D01*
X750838Y330571D01*
X750699Y330549D01*
X750560Y330531D01*
X750420Y330518D01*
X750280Y330508D01*
X750140Y330502D01*
X750000Y330500D01*
X810000Y330500D02*
X820000Y330500D01*
X810000Y330500D02*
X809860Y330502D01*
X809720Y330508D01*
X809580Y330518D01*
X809440Y330531D01*
X809301Y330549D01*
X809162Y330571D01*
X809025Y330596D01*
X808887Y330625D01*
X808751Y330658D01*
X808616Y330695D01*
X808482Y330736D01*
X808349Y330781D01*
X808217Y330829D01*
X808087Y330881D01*
X807958Y330936D01*
X807831Y330995D01*
X807705Y331058D01*
X807581Y331124D01*
X807460Y331193D01*
X807340Y331266D01*
X807222Y331343D01*
X807107Y331422D01*
X806993Y331505D01*
X806883Y331591D01*
X806774Y331680D01*
X806668Y331772D01*
X806565Y331867D01*
X806464Y331964D01*
X806367Y332065D01*
X806272Y332168D01*
X806180Y332274D01*
X806091Y332383D01*
X806005Y332493D01*
X805922Y332607D01*
X805843Y332722D01*
X805766Y332840D01*
X805693Y332960D01*
X805624Y333081D01*
X805558Y333205D01*
X805495Y333331D01*
X805436Y333458D01*
X805381Y333587D01*
X805329Y333717D01*
X805281Y333849D01*
X805236Y333982D01*
X805195Y334116D01*
X805158Y334251D01*
X805125Y334387D01*
X805096Y334525D01*
X805071Y334662D01*
X805049Y334801D01*
X805031Y334940D01*
X805018Y335080D01*
X805008Y335220D01*
X805002Y335360D01*
X805000Y335500D01*
X805002Y335640D01*
X805008Y335780D01*
X805018Y335920D01*
X805031Y336060D01*
X805049Y336199D01*
X805071Y336338D01*
X805096Y336475D01*
X805125Y336613D01*
X805158Y336749D01*
X805195Y336884D01*
X805236Y337018D01*
X805281Y337151D01*
X805329Y337283D01*
X805381Y337413D01*
X805436Y337542D01*
X805495Y337669D01*
X805558Y337795D01*
X805624Y337919D01*
X805693Y338040D01*
X805766Y338160D01*
X805843Y338278D01*
X805922Y338393D01*
X806005Y338507D01*
X806091Y338617D01*
X806180Y338726D01*
X806272Y338832D01*
X806367Y338935D01*
X806464Y339036D01*
X806565Y339133D01*
X806668Y339228D01*
X806774Y339320D01*
X806883Y339409D01*
X806993Y339495D01*
X807107Y339578D01*
X807222Y339657D01*
X807340Y339734D01*
X807460Y339807D01*
X807581Y339876D01*
X807705Y339942D01*
X807831Y340005D01*
X807958Y340064D01*
X808087Y340119D01*
X808217Y340171D01*
X808349Y340219D01*
X808482Y340264D01*
X808616Y340305D01*
X808751Y340342D01*
X808887Y340375D01*
X809025Y340404D01*
X809162Y340429D01*
X809301Y340451D01*
X809440Y340469D01*
X809580Y340482D01*
X809720Y340492D01*
X809860Y340498D01*
X810000Y340500D01*
X820000Y340500D01*
X820140Y340498D01*
X820280Y340492D01*
X820420Y340482D01*
X820560Y340469D01*
X820699Y340451D01*
X820838Y340429D01*
X820975Y340404D01*
X821113Y340375D01*
X821249Y340342D01*
X821384Y340305D01*
X821518Y340264D01*
X821651Y340219D01*
X821783Y340171D01*
X821913Y340119D01*
X822042Y340064D01*
X822169Y340005D01*
X822295Y339942D01*
X822419Y339876D01*
X822540Y339807D01*
X822660Y339734D01*
X822778Y339657D01*
X822893Y339578D01*
X823007Y339495D01*
X823117Y339409D01*
X823226Y339320D01*
X823332Y339228D01*
X823435Y339133D01*
X823536Y339036D01*
X823633Y338935D01*
X823728Y338832D01*
X823820Y338726D01*
X823909Y338617D01*
X823995Y338507D01*
X824078Y338393D01*
X824157Y338278D01*
X824234Y338160D01*
X824307Y338040D01*
X824376Y337919D01*
X824442Y337795D01*
X824505Y337669D01*
X824564Y337542D01*
X824619Y337413D01*
X824671Y337283D01*
X824719Y337151D01*
X824764Y337018D01*
X824805Y336884D01*
X824842Y336749D01*
X824875Y336613D01*
X824904Y336475D01*
X824929Y336338D01*
X824951Y336199D01*
X824969Y336060D01*
X824982Y335920D01*
X824992Y335780D01*
X824998Y335640D01*
X825000Y335500D01*
X824998Y335360D01*
X824992Y335220D01*
X824982Y335080D01*
X824969Y334940D01*
X824951Y334801D01*
X824929Y334662D01*
X824904Y334525D01*
X824875Y334387D01*
X824842Y334251D01*
X824805Y334116D01*
X824764Y333982D01*
X824719Y333849D01*
X824671Y333717D01*
X824619Y333587D01*
X824564Y333458D01*
X824505Y333331D01*
X824442Y333205D01*
X824376Y333081D01*
X824307Y332960D01*
X824234Y332840D01*
X824157Y332722D01*
X824078Y332607D01*
X823995Y332493D01*
X823909Y332383D01*
X823820Y332274D01*
X823728Y332168D01*
X823633Y332065D01*
X823536Y331964D01*
X823435Y331867D01*
X823332Y331772D01*
X823226Y331680D01*
X823117Y331591D01*
X823007Y331505D01*
X822893Y331422D01*
X822778Y331343D01*
X822660Y331266D01*
X822540Y331193D01*
X822419Y331124D01*
X822295Y331058D01*
X822169Y330995D01*
X822042Y330936D01*
X821913Y330881D01*
X821783Y330829D01*
X821651Y330781D01*
X821518Y330736D01*
X821384Y330695D01*
X821249Y330658D01*
X821113Y330625D01*
X820975Y330596D01*
X820838Y330571D01*
X820699Y330549D01*
X820560Y330531D01*
X820420Y330518D01*
X820280Y330508D01*
X820140Y330502D01*
X820000Y330500D01*
X780600Y289500D02*
X780460Y289498D01*
X780320Y289492D01*
X780180Y289482D01*
X780040Y289469D01*
X779901Y289451D01*
X779762Y289429D01*
X779625Y289404D01*
X779487Y289375D01*
X779351Y289342D01*
X779216Y289305D01*
X779082Y289264D01*
X778949Y289219D01*
X778817Y289171D01*
X778687Y289119D01*
X778558Y289064D01*
X778431Y289005D01*
X778305Y288942D01*
X778181Y288876D01*
X778060Y288807D01*
X777940Y288734D01*
X777822Y288657D01*
X777707Y288578D01*
X777593Y288495D01*
X777483Y288409D01*
X777374Y288320D01*
X777268Y288228D01*
X777165Y288133D01*
X777064Y288036D01*
X776967Y287935D01*
X776872Y287832D01*
X776780Y287726D01*
X776691Y287617D01*
X776605Y287507D01*
X776522Y287393D01*
X776443Y287278D01*
X776366Y287160D01*
X776293Y287040D01*
X776224Y286919D01*
X776158Y286795D01*
X776095Y286669D01*
X776036Y286542D01*
X775981Y286413D01*
X775929Y286283D01*
X775881Y286151D01*
X775836Y286018D01*
X775795Y285884D01*
X775758Y285749D01*
X775725Y285613D01*
X775696Y285475D01*
X775671Y285338D01*
X775649Y285199D01*
X775631Y285060D01*
X775618Y284920D01*
X775608Y284780D01*
X775602Y284640D01*
X775600Y284500D01*
X775602Y284360D01*
X775608Y284220D01*
X775618Y284080D01*
X775631Y283940D01*
X775649Y283801D01*
X775671Y283662D01*
X775696Y283525D01*
X775725Y283387D01*
X775758Y283251D01*
X775795Y283116D01*
X775836Y282982D01*
X775881Y282849D01*
X775929Y282717D01*
X775981Y282587D01*
X776036Y282458D01*
X776095Y282331D01*
X776158Y282205D01*
X776224Y282081D01*
X776293Y281960D01*
X776366Y281840D01*
X776443Y281722D01*
X776522Y281607D01*
X776605Y281493D01*
X776691Y281383D01*
X776780Y281274D01*
X776872Y281168D01*
X776967Y281065D01*
X777064Y280964D01*
X777165Y280867D01*
X777268Y280772D01*
X777374Y280680D01*
X777483Y280591D01*
X777593Y280505D01*
X777707Y280422D01*
X777822Y280343D01*
X777940Y280266D01*
X778060Y280193D01*
X778181Y280124D01*
X778305Y280058D01*
X778431Y279995D01*
X778558Y279936D01*
X778687Y279881D01*
X778817Y279829D01*
X778949Y279781D01*
X779082Y279736D01*
X779216Y279695D01*
X779351Y279658D01*
X779487Y279625D01*
X779625Y279596D01*
X779762Y279571D01*
X779901Y279549D01*
X780040Y279531D01*
X780180Y279518D01*
X780320Y279508D01*
X780460Y279502D01*
X780600Y279500D01*
X780740Y279502D01*
X780880Y279508D01*
X781020Y279518D01*
X781160Y279531D01*
X781299Y279549D01*
X781438Y279571D01*
X781575Y279596D01*
X781713Y279625D01*
X781849Y279658D01*
X781984Y279695D01*
X782118Y279736D01*
X782251Y279781D01*
X782383Y279829D01*
X782513Y279881D01*
X782642Y279936D01*
X782769Y279995D01*
X782895Y280058D01*
X783019Y280124D01*
X783140Y280193D01*
X783260Y280266D01*
X783378Y280343D01*
X783493Y280422D01*
X783607Y280505D01*
X783717Y280591D01*
X783826Y280680D01*
X783932Y280772D01*
X784035Y280867D01*
X784136Y280964D01*
X784233Y281065D01*
X784328Y281168D01*
X784420Y281274D01*
X784509Y281383D01*
X784595Y281493D01*
X784678Y281607D01*
X784757Y281722D01*
X784834Y281840D01*
X784907Y281960D01*
X784976Y282081D01*
X785042Y282205D01*
X785105Y282331D01*
X785164Y282458D01*
X785219Y282587D01*
X785271Y282717D01*
X785319Y282849D01*
X785364Y282982D01*
X785405Y283116D01*
X785442Y283251D01*
X785475Y283387D01*
X785504Y283525D01*
X785529Y283662D01*
X785551Y283801D01*
X785569Y283940D01*
X785582Y284080D01*
X785592Y284220D01*
X785598Y284360D01*
X785600Y284500D01*
X785598Y284640D01*
X785592Y284780D01*
X785582Y284920D01*
X785569Y285060D01*
X785551Y285199D01*
X785529Y285338D01*
X785504Y285475D01*
X785475Y285613D01*
X785442Y285749D01*
X785405Y285884D01*
X785364Y286018D01*
X785319Y286151D01*
X785271Y286283D01*
X785219Y286413D01*
X785164Y286542D01*
X785105Y286669D01*
X785042Y286795D01*
X784976Y286919D01*
X784907Y287040D01*
X784834Y287160D01*
X784757Y287278D01*
X784678Y287393D01*
X784595Y287507D01*
X784509Y287617D01*
X784420Y287726D01*
X784328Y287832D01*
X784233Y287935D01*
X784136Y288036D01*
X784035Y288133D01*
X783932Y288228D01*
X783826Y288320D01*
X783717Y288409D01*
X783607Y288495D01*
X783493Y288578D01*
X783378Y288657D01*
X783260Y288734D01*
X783140Y288807D01*
X783019Y288876D01*
X782895Y288942D01*
X782769Y289005D01*
X782642Y289064D01*
X782513Y289119D01*
X782383Y289171D01*
X782251Y289219D01*
X782118Y289264D01*
X781984Y289305D01*
X781849Y289342D01*
X781713Y289375D01*
X781575Y289404D01*
X781438Y289429D01*
X781299Y289451D01*
X781160Y289469D01*
X781020Y289482D01*
X780880Y289492D01*
X780740Y289498D01*
X780600Y289500D01*
X745600Y289500D02*
X745460Y289498D01*
X745320Y289492D01*
X745180Y289482D01*
X745040Y289469D01*
X744901Y289451D01*
X744762Y289429D01*
X744625Y289404D01*
X744487Y289375D01*
X744351Y289342D01*
X744216Y289305D01*
X744082Y289264D01*
X743949Y289219D01*
X743817Y289171D01*
X743687Y289119D01*
X743558Y289064D01*
X743431Y289005D01*
X743305Y288942D01*
X743181Y288876D01*
X743060Y288807D01*
X742940Y288734D01*
X742822Y288657D01*
X742707Y288578D01*
X742593Y288495D01*
X742483Y288409D01*
X742374Y288320D01*
X742268Y288228D01*
X742165Y288133D01*
X742064Y288036D01*
X741967Y287935D01*
X741872Y287832D01*
X741780Y287726D01*
X741691Y287617D01*
X741605Y287507D01*
X741522Y287393D01*
X741443Y287278D01*
X741366Y287160D01*
X741293Y287040D01*
X741224Y286919D01*
X741158Y286795D01*
X741095Y286669D01*
X741036Y286542D01*
X740981Y286413D01*
X740929Y286283D01*
X740881Y286151D01*
X740836Y286018D01*
X740795Y285884D01*
X740758Y285749D01*
X740725Y285613D01*
X740696Y285475D01*
X740671Y285338D01*
X740649Y285199D01*
X740631Y285060D01*
X740618Y284920D01*
X740608Y284780D01*
X740602Y284640D01*
X740600Y284500D01*
X740602Y284360D01*
X740608Y284220D01*
X740618Y284080D01*
X740631Y283940D01*
X740649Y283801D01*
X740671Y283662D01*
X740696Y283525D01*
X740725Y283387D01*
X740758Y283251D01*
X740795Y283116D01*
X740836Y282982D01*
X740881Y282849D01*
X740929Y282717D01*
X740981Y282587D01*
X741036Y282458D01*
X741095Y282331D01*
X741158Y282205D01*
X741224Y282081D01*
X741293Y281960D01*
X741366Y281840D01*
X741443Y281722D01*
X741522Y281607D01*
X741605Y281493D01*
X741691Y281383D01*
X741780Y281274D01*
X741872Y281168D01*
X741967Y281065D01*
X742064Y280964D01*
X742165Y280867D01*
X742268Y280772D01*
X742374Y280680D01*
X742483Y280591D01*
X742593Y280505D01*
X742707Y280422D01*
X742822Y280343D01*
X742940Y280266D01*
X743060Y280193D01*
X743181Y280124D01*
X743305Y280058D01*
X743431Y279995D01*
X743558Y279936D01*
X743687Y279881D01*
X743817Y279829D01*
X743949Y279781D01*
X744082Y279736D01*
X744216Y279695D01*
X744351Y279658D01*
X744487Y279625D01*
X744625Y279596D01*
X744762Y279571D01*
X744901Y279549D01*
X745040Y279531D01*
X745180Y279518D01*
X745320Y279508D01*
X745460Y279502D01*
X745600Y279500D01*
X745740Y279502D01*
X745880Y279508D01*
X746020Y279518D01*
X746160Y279531D01*
X746299Y279549D01*
X746438Y279571D01*
X746575Y279596D01*
X746713Y279625D01*
X746849Y279658D01*
X746984Y279695D01*
X747118Y279736D01*
X747251Y279781D01*
X747383Y279829D01*
X747513Y279881D01*
X747642Y279936D01*
X747769Y279995D01*
X747895Y280058D01*
X748019Y280124D01*
X748140Y280193D01*
X748260Y280266D01*
X748378Y280343D01*
X748493Y280422D01*
X748607Y280505D01*
X748717Y280591D01*
X748826Y280680D01*
X748932Y280772D01*
X749035Y280867D01*
X749136Y280964D01*
X749233Y281065D01*
X749328Y281168D01*
X749420Y281274D01*
X749509Y281383D01*
X749595Y281493D01*
X749678Y281607D01*
X749757Y281722D01*
X749834Y281840D01*
X749907Y281960D01*
X749976Y282081D01*
X750042Y282205D01*
X750105Y282331D01*
X750164Y282458D01*
X750219Y282587D01*
X750271Y282717D01*
X750319Y282849D01*
X750364Y282982D01*
X750405Y283116D01*
X750442Y283251D01*
X750475Y283387D01*
X750504Y283525D01*
X750529Y283662D01*
X750551Y283801D01*
X750569Y283940D01*
X750582Y284080D01*
X750592Y284220D01*
X750598Y284360D01*
X750600Y284500D01*
X750598Y284640D01*
X750592Y284780D01*
X750582Y284920D01*
X750569Y285060D01*
X750551Y285199D01*
X750529Y285338D01*
X750504Y285475D01*
X750475Y285613D01*
X750442Y285749D01*
X750405Y285884D01*
X750364Y286018D01*
X750319Y286151D01*
X750271Y286283D01*
X750219Y286413D01*
X750164Y286542D01*
X750105Y286669D01*
X750042Y286795D01*
X749976Y286919D01*
X749907Y287040D01*
X749834Y287160D01*
X749757Y287278D01*
X749678Y287393D01*
X749595Y287507D01*
X749509Y287617D01*
X749420Y287726D01*
X749328Y287832D01*
X749233Y287935D01*
X749136Y288036D01*
X749035Y288133D01*
X748932Y288228D01*
X748826Y288320D01*
X748717Y288409D01*
X748607Y288495D01*
X748493Y288578D01*
X748378Y288657D01*
X748260Y288734D01*
X748140Y288807D01*
X748019Y288876D01*
X747895Y288942D01*
X747769Y289005D01*
X747642Y289064D01*
X747513Y289119D01*
X747383Y289171D01*
X747251Y289219D01*
X747118Y289264D01*
X746984Y289305D01*
X746849Y289342D01*
X746713Y289375D01*
X746575Y289404D01*
X746438Y289429D01*
X746299Y289451D01*
X746160Y289469D01*
X746020Y289482D01*
X745880Y289492D01*
X745740Y289498D01*
X745600Y289500D01*
X815600Y289500D02*
X815460Y289498D01*
X815320Y289492D01*
X815180Y289482D01*
X815040Y289469D01*
X814901Y289451D01*
X814762Y289429D01*
X814625Y289404D01*
X814487Y289375D01*
X814351Y289342D01*
X814216Y289305D01*
X814082Y289264D01*
X813949Y289219D01*
X813817Y289171D01*
X813687Y289119D01*
X813558Y289064D01*
X813431Y289005D01*
X813305Y288942D01*
X813181Y288876D01*
X813060Y288807D01*
X812940Y288734D01*
X812822Y288657D01*
X812707Y288578D01*
X812593Y288495D01*
X812483Y288409D01*
X812374Y288320D01*
X812268Y288228D01*
X812165Y288133D01*
X812064Y288036D01*
X811967Y287935D01*
X811872Y287832D01*
X811780Y287726D01*
X811691Y287617D01*
X811605Y287507D01*
X811522Y287393D01*
X811443Y287278D01*
X811366Y287160D01*
X811293Y287040D01*
X811224Y286919D01*
X811158Y286795D01*
X811095Y286669D01*
X811036Y286542D01*
X810981Y286413D01*
X810929Y286283D01*
X810881Y286151D01*
X810836Y286018D01*
X810795Y285884D01*
X810758Y285749D01*
X810725Y285613D01*
X810696Y285475D01*
X810671Y285338D01*
X810649Y285199D01*
X810631Y285060D01*
X810618Y284920D01*
X810608Y284780D01*
X810602Y284640D01*
X810600Y284500D01*
X810602Y284360D01*
X810608Y284220D01*
X810618Y284080D01*
X810631Y283940D01*
X810649Y283801D01*
X810671Y283662D01*
X810696Y283525D01*
X810725Y283387D01*
X810758Y283251D01*
X810795Y283116D01*
X810836Y282982D01*
X810881Y282849D01*
X810929Y282717D01*
X810981Y282587D01*
X811036Y282458D01*
X811095Y282331D01*
X811158Y282205D01*
X811224Y282081D01*
X811293Y281960D01*
X811366Y281840D01*
X811443Y281722D01*
X811522Y281607D01*
X811605Y281493D01*
X811691Y281383D01*
X811780Y281274D01*
X811872Y281168D01*
X811967Y281065D01*
X812064Y280964D01*
X812165Y280867D01*
X812268Y280772D01*
X812374Y280680D01*
X812483Y280591D01*
X812593Y280505D01*
X812707Y280422D01*
X812822Y280343D01*
X812940Y280266D01*
X813060Y280193D01*
X813181Y280124D01*
X813305Y280058D01*
X813431Y279995D01*
X813558Y279936D01*
X813687Y279881D01*
X813817Y279829D01*
X813949Y279781D01*
X814082Y279736D01*
X814216Y279695D01*
X814351Y279658D01*
X814487Y279625D01*
X814625Y279596D01*
X814762Y279571D01*
X814901Y279549D01*
X815040Y279531D01*
X815180Y279518D01*
X815320Y279508D01*
X815460Y279502D01*
X815600Y279500D01*
X815740Y279502D01*
X815880Y279508D01*
X816020Y279518D01*
X816160Y279531D01*
X816299Y279549D01*
X816438Y279571D01*
X816575Y279596D01*
X816713Y279625D01*
X816849Y279658D01*
X816984Y279695D01*
X817118Y279736D01*
X817251Y279781D01*
X817383Y279829D01*
X817513Y279881D01*
X817642Y279936D01*
X817769Y279995D01*
X817895Y280058D01*
X818019Y280124D01*
X818140Y280193D01*
X818260Y280266D01*
X818378Y280343D01*
X818493Y280422D01*
X818607Y280505D01*
X818717Y280591D01*
X818826Y280680D01*
X818932Y280772D01*
X819035Y280867D01*
X819136Y280964D01*
X819233Y281065D01*
X819328Y281168D01*
X819420Y281274D01*
X819509Y281383D01*
X819595Y281493D01*
X819678Y281607D01*
X819757Y281722D01*
X819834Y281840D01*
X819907Y281960D01*
X819976Y282081D01*
X820042Y282205D01*
X820105Y282331D01*
X820164Y282458D01*
X820219Y282587D01*
X820271Y282717D01*
X820319Y282849D01*
X820364Y282982D01*
X820405Y283116D01*
X820442Y283251D01*
X820475Y283387D01*
X820504Y283525D01*
X820529Y283662D01*
X820551Y283801D01*
X820569Y283940D01*
X820582Y284080D01*
X820592Y284220D01*
X820598Y284360D01*
X820600Y284500D01*
X820598Y284640D01*
X820592Y284780D01*
X820582Y284920D01*
X820569Y285060D01*
X820551Y285199D01*
X820529Y285338D01*
X820504Y285475D01*
X820475Y285613D01*
X820442Y285749D01*
X820405Y285884D01*
X820364Y286018D01*
X820319Y286151D01*
X820271Y286283D01*
X820219Y286413D01*
X820164Y286542D01*
X820105Y286669D01*
X820042Y286795D01*
X819976Y286919D01*
X819907Y287040D01*
X819834Y287160D01*
X819757Y287278D01*
X819678Y287393D01*
X819595Y287507D01*
X819509Y287617D01*
X819420Y287726D01*
X819328Y287832D01*
X819233Y287935D01*
X819136Y288036D01*
X819035Y288133D01*
X818932Y288228D01*
X818826Y288320D01*
X818717Y288409D01*
X818607Y288495D01*
X818493Y288578D01*
X818378Y288657D01*
X818260Y288734D01*
X818140Y288807D01*
X818019Y288876D01*
X817895Y288942D01*
X817769Y289005D01*
X817642Y289064D01*
X817513Y289119D01*
X817383Y289171D01*
X817251Y289219D01*
X817118Y289264D01*
X816984Y289305D01*
X816849Y289342D01*
X816713Y289375D01*
X816575Y289404D01*
X816438Y289429D01*
X816299Y289451D01*
X816160Y289469D01*
X816020Y289482D01*
X815880Y289492D01*
X815740Y289498D01*
X815600Y289500D01*
M02*
