G04 EAGLE Gerber RS-274X export*
G75*
%MOMM*%
%FSLAX34Y34*%
%LPD*%
%INSilkscreen Bottom*%
%IPPOS*%
%AMOC8*
5,1,8,0,0,1.08239X$1,22.5*%
G01*
%ADD10C,0.203200*%
%ADD11C,0.101600*%


D10*
X116984Y680497D02*
X93616Y680497D01*
X93616Y690883D01*
X93616Y702971D02*
X116984Y702971D01*
X116984Y696480D02*
X116984Y709462D01*
X93616Y721136D02*
X93616Y726329D01*
X93616Y721136D02*
X93618Y720993D01*
X93624Y720850D01*
X93634Y720707D01*
X93648Y720565D01*
X93665Y720423D01*
X93687Y720281D01*
X93712Y720140D01*
X93742Y720000D01*
X93775Y719861D01*
X93812Y719723D01*
X93853Y719586D01*
X93897Y719450D01*
X93946Y719315D01*
X93998Y719182D01*
X94053Y719050D01*
X94113Y718920D01*
X94176Y718791D01*
X94242Y718664D01*
X94312Y718540D01*
X94385Y718417D01*
X94462Y718296D01*
X94542Y718177D01*
X94625Y718061D01*
X94711Y717946D01*
X94800Y717835D01*
X94893Y717725D01*
X94988Y717619D01*
X95087Y717515D01*
X95188Y717414D01*
X95292Y717315D01*
X95398Y717220D01*
X95508Y717127D01*
X95619Y717038D01*
X95734Y716952D01*
X95850Y716869D01*
X95969Y716789D01*
X96090Y716712D01*
X96212Y716639D01*
X96337Y716569D01*
X96464Y716503D01*
X96593Y716440D01*
X96723Y716380D01*
X96855Y716325D01*
X96988Y716273D01*
X97123Y716224D01*
X97259Y716180D01*
X97396Y716139D01*
X97534Y716102D01*
X97673Y716069D01*
X97813Y716039D01*
X97954Y716014D01*
X98096Y715992D01*
X98238Y715975D01*
X98380Y715961D01*
X98523Y715951D01*
X98666Y715945D01*
X98809Y715943D01*
X111791Y715943D01*
X111934Y715945D01*
X112077Y715951D01*
X112220Y715961D01*
X112362Y715975D01*
X112504Y715992D01*
X112646Y716014D01*
X112787Y716039D01*
X112927Y716069D01*
X113066Y716102D01*
X113204Y716139D01*
X113341Y716180D01*
X113477Y716224D01*
X113612Y716273D01*
X113745Y716325D01*
X113877Y716380D01*
X114007Y716440D01*
X114136Y716503D01*
X114263Y716569D01*
X114387Y716639D01*
X114510Y716712D01*
X114631Y716789D01*
X114750Y716869D01*
X114866Y716952D01*
X114981Y717038D01*
X115092Y717127D01*
X115202Y717220D01*
X115308Y717315D01*
X115412Y717414D01*
X115513Y717515D01*
X115612Y717619D01*
X115707Y717725D01*
X115800Y717835D01*
X115889Y717946D01*
X115975Y718061D01*
X116058Y718177D01*
X116138Y718296D01*
X116215Y718417D01*
X116288Y718539D01*
X116358Y718664D01*
X116424Y718791D01*
X116487Y718920D01*
X116547Y719050D01*
X116602Y719182D01*
X116654Y719315D01*
X116703Y719450D01*
X116747Y719586D01*
X116788Y719723D01*
X116825Y719861D01*
X116858Y720000D01*
X116888Y720140D01*
X116913Y720281D01*
X116935Y720423D01*
X116952Y720565D01*
X116966Y720707D01*
X116976Y720850D01*
X116982Y720993D01*
X116984Y721136D01*
X116984Y726329D01*
X93616Y733365D02*
X93616Y739857D01*
X93618Y740016D01*
X93624Y740175D01*
X93634Y740335D01*
X93647Y740493D01*
X93665Y740652D01*
X93686Y740809D01*
X93712Y740967D01*
X93741Y741123D01*
X93774Y741279D01*
X93811Y741434D01*
X93851Y741588D01*
X93896Y741741D01*
X93944Y741893D01*
X93995Y742044D01*
X94051Y742193D01*
X94110Y742341D01*
X94173Y742487D01*
X94239Y742632D01*
X94309Y742775D01*
X94382Y742917D01*
X94459Y743056D01*
X94539Y743194D01*
X94623Y743330D01*
X94710Y743463D01*
X94800Y743595D01*
X94893Y743724D01*
X94990Y743850D01*
X95089Y743975D01*
X95192Y744097D01*
X95297Y744216D01*
X95406Y744333D01*
X95517Y744447D01*
X95631Y744558D01*
X95748Y744667D01*
X95867Y744772D01*
X95989Y744875D01*
X96114Y744974D01*
X96240Y745071D01*
X96369Y745164D01*
X96501Y745254D01*
X96634Y745341D01*
X96770Y745425D01*
X96908Y745505D01*
X97047Y745582D01*
X97189Y745655D01*
X97332Y745725D01*
X97477Y745791D01*
X97623Y745854D01*
X97771Y745913D01*
X97920Y745969D01*
X98071Y746020D01*
X98223Y746068D01*
X98376Y746113D01*
X98530Y746153D01*
X98685Y746190D01*
X98841Y746223D01*
X98997Y746252D01*
X99155Y746278D01*
X99312Y746299D01*
X99471Y746317D01*
X99629Y746330D01*
X99789Y746340D01*
X99948Y746346D01*
X100107Y746348D01*
X100266Y746346D01*
X100425Y746340D01*
X100585Y746330D01*
X100743Y746317D01*
X100902Y746299D01*
X101059Y746278D01*
X101217Y746252D01*
X101373Y746223D01*
X101529Y746190D01*
X101684Y746153D01*
X101838Y746113D01*
X101991Y746068D01*
X102143Y746020D01*
X102294Y745969D01*
X102443Y745913D01*
X102591Y745854D01*
X102737Y745791D01*
X102882Y745725D01*
X103025Y745655D01*
X103167Y745582D01*
X103306Y745505D01*
X103444Y745425D01*
X103580Y745341D01*
X103713Y745254D01*
X103845Y745164D01*
X103974Y745071D01*
X104100Y744974D01*
X104225Y744875D01*
X104347Y744772D01*
X104466Y744667D01*
X104583Y744558D01*
X104697Y744447D01*
X104808Y744333D01*
X104917Y744216D01*
X105022Y744097D01*
X105125Y743975D01*
X105224Y743850D01*
X105321Y743724D01*
X105414Y743595D01*
X105504Y743463D01*
X105591Y743330D01*
X105675Y743194D01*
X105755Y743056D01*
X105832Y742917D01*
X105905Y742775D01*
X105975Y742632D01*
X106041Y742487D01*
X106104Y742341D01*
X106163Y742193D01*
X106219Y742044D01*
X106270Y741893D01*
X106318Y741741D01*
X106363Y741588D01*
X106403Y741434D01*
X106440Y741279D01*
X106473Y741123D01*
X106502Y740967D01*
X106528Y740809D01*
X106549Y740652D01*
X106567Y740493D01*
X106580Y740335D01*
X106590Y740175D01*
X106596Y740016D01*
X106598Y739857D01*
X116984Y741155D02*
X116984Y733365D01*
X116984Y741155D02*
X116982Y741298D01*
X116976Y741441D01*
X116966Y741584D01*
X116952Y741726D01*
X116935Y741868D01*
X116913Y742010D01*
X116888Y742151D01*
X116858Y742291D01*
X116825Y742430D01*
X116788Y742568D01*
X116747Y742705D01*
X116703Y742841D01*
X116654Y742976D01*
X116602Y743109D01*
X116547Y743241D01*
X116487Y743371D01*
X116424Y743500D01*
X116358Y743627D01*
X116288Y743752D01*
X116215Y743874D01*
X116138Y743995D01*
X116058Y744114D01*
X115975Y744230D01*
X115889Y744345D01*
X115800Y744456D01*
X115707Y744566D01*
X115612Y744672D01*
X115513Y744776D01*
X115412Y744877D01*
X115308Y744976D01*
X115202Y745071D01*
X115092Y745164D01*
X114981Y745253D01*
X114866Y745339D01*
X114750Y745422D01*
X114631Y745502D01*
X114510Y745579D01*
X114388Y745652D01*
X114263Y745722D01*
X114136Y745788D01*
X114007Y745851D01*
X113877Y745911D01*
X113745Y745966D01*
X113612Y746018D01*
X113477Y746067D01*
X113341Y746111D01*
X113204Y746152D01*
X113066Y746189D01*
X112927Y746222D01*
X112787Y746252D01*
X112646Y746277D01*
X112504Y746299D01*
X112362Y746316D01*
X112220Y746330D01*
X112077Y746340D01*
X111934Y746346D01*
X111791Y746348D01*
X111648Y746346D01*
X111505Y746340D01*
X111362Y746330D01*
X111220Y746316D01*
X111078Y746299D01*
X110936Y746277D01*
X110795Y746252D01*
X110655Y746222D01*
X110516Y746189D01*
X110378Y746152D01*
X110241Y746111D01*
X110105Y746067D01*
X109970Y746018D01*
X109837Y745966D01*
X109705Y745911D01*
X109575Y745851D01*
X109446Y745788D01*
X109319Y745722D01*
X109195Y745652D01*
X109072Y745579D01*
X108951Y745502D01*
X108832Y745422D01*
X108716Y745339D01*
X108601Y745253D01*
X108490Y745164D01*
X108380Y745071D01*
X108274Y744976D01*
X108170Y744877D01*
X108069Y744776D01*
X107970Y744672D01*
X107875Y744566D01*
X107782Y744456D01*
X107693Y744345D01*
X107607Y744230D01*
X107524Y744114D01*
X107444Y743995D01*
X107367Y743874D01*
X107294Y743752D01*
X107224Y743627D01*
X107158Y743500D01*
X107095Y743371D01*
X107035Y743241D01*
X106980Y743109D01*
X106928Y742976D01*
X106879Y742841D01*
X106835Y742705D01*
X106794Y742568D01*
X106757Y742430D01*
X106724Y742291D01*
X106694Y742151D01*
X106669Y742010D01*
X106647Y741868D01*
X106630Y741726D01*
X106616Y741584D01*
X106606Y741441D01*
X106600Y741298D01*
X106598Y741155D01*
X106598Y735962D01*
X106598Y754244D02*
X106598Y762034D01*
X106596Y762177D01*
X106590Y762320D01*
X106580Y762463D01*
X106566Y762605D01*
X106549Y762747D01*
X106527Y762889D01*
X106502Y763030D01*
X106472Y763170D01*
X106439Y763309D01*
X106402Y763447D01*
X106361Y763584D01*
X106317Y763720D01*
X106268Y763855D01*
X106216Y763988D01*
X106161Y764120D01*
X106101Y764250D01*
X106038Y764379D01*
X105972Y764506D01*
X105902Y764631D01*
X105829Y764753D01*
X105752Y764874D01*
X105672Y764993D01*
X105589Y765109D01*
X105503Y765224D01*
X105414Y765335D01*
X105321Y765445D01*
X105226Y765551D01*
X105127Y765655D01*
X105026Y765756D01*
X104922Y765855D01*
X104816Y765950D01*
X104706Y766043D01*
X104595Y766132D01*
X104480Y766218D01*
X104364Y766301D01*
X104245Y766381D01*
X104124Y766458D01*
X104002Y766531D01*
X103877Y766601D01*
X103750Y766667D01*
X103621Y766730D01*
X103491Y766790D01*
X103359Y766845D01*
X103226Y766897D01*
X103091Y766946D01*
X102955Y766990D01*
X102818Y767031D01*
X102680Y767068D01*
X102541Y767101D01*
X102401Y767131D01*
X102260Y767156D01*
X102118Y767178D01*
X101976Y767195D01*
X101834Y767209D01*
X101691Y767219D01*
X101548Y767225D01*
X101405Y767227D01*
X101405Y767226D02*
X100107Y767226D01*
X99948Y767224D01*
X99789Y767218D01*
X99629Y767208D01*
X99471Y767195D01*
X99312Y767177D01*
X99155Y767156D01*
X98997Y767130D01*
X98841Y767101D01*
X98685Y767068D01*
X98530Y767031D01*
X98376Y766991D01*
X98223Y766946D01*
X98071Y766898D01*
X97920Y766847D01*
X97771Y766791D01*
X97623Y766732D01*
X97477Y766669D01*
X97332Y766603D01*
X97189Y766533D01*
X97047Y766460D01*
X96908Y766383D01*
X96770Y766303D01*
X96634Y766219D01*
X96501Y766132D01*
X96369Y766042D01*
X96240Y765949D01*
X96114Y765852D01*
X95989Y765753D01*
X95867Y765650D01*
X95748Y765545D01*
X95631Y765436D01*
X95517Y765325D01*
X95406Y765211D01*
X95297Y765094D01*
X95192Y764975D01*
X95089Y764853D01*
X94990Y764728D01*
X94893Y764602D01*
X94800Y764473D01*
X94710Y764341D01*
X94623Y764208D01*
X94539Y764072D01*
X94459Y763934D01*
X94382Y763795D01*
X94309Y763653D01*
X94239Y763510D01*
X94173Y763365D01*
X94110Y763219D01*
X94051Y763071D01*
X93995Y762922D01*
X93944Y762771D01*
X93896Y762619D01*
X93851Y762466D01*
X93811Y762312D01*
X93774Y762157D01*
X93741Y762001D01*
X93712Y761845D01*
X93686Y761687D01*
X93665Y761530D01*
X93647Y761371D01*
X93634Y761213D01*
X93624Y761053D01*
X93618Y760894D01*
X93616Y760735D01*
X93618Y760576D01*
X93624Y760417D01*
X93634Y760257D01*
X93647Y760099D01*
X93665Y759940D01*
X93686Y759783D01*
X93712Y759625D01*
X93741Y759469D01*
X93774Y759313D01*
X93811Y759158D01*
X93851Y759004D01*
X93896Y758851D01*
X93944Y758699D01*
X93995Y758548D01*
X94051Y758399D01*
X94110Y758251D01*
X94173Y758105D01*
X94239Y757960D01*
X94309Y757817D01*
X94382Y757675D01*
X94459Y757536D01*
X94539Y757398D01*
X94623Y757262D01*
X94710Y757129D01*
X94800Y756997D01*
X94893Y756868D01*
X94990Y756742D01*
X95089Y756617D01*
X95192Y756495D01*
X95297Y756376D01*
X95406Y756259D01*
X95517Y756145D01*
X95631Y756034D01*
X95748Y755925D01*
X95867Y755820D01*
X95989Y755717D01*
X96114Y755618D01*
X96240Y755521D01*
X96369Y755428D01*
X96501Y755338D01*
X96634Y755251D01*
X96770Y755167D01*
X96908Y755087D01*
X97047Y755010D01*
X97189Y754937D01*
X97332Y754867D01*
X97477Y754801D01*
X97623Y754738D01*
X97771Y754679D01*
X97920Y754623D01*
X98071Y754572D01*
X98223Y754524D01*
X98376Y754479D01*
X98530Y754439D01*
X98685Y754402D01*
X98841Y754369D01*
X98997Y754340D01*
X99155Y754314D01*
X99312Y754293D01*
X99471Y754275D01*
X99629Y754262D01*
X99789Y754252D01*
X99948Y754246D01*
X100107Y754244D01*
X106598Y754244D01*
X106849Y754247D01*
X107100Y754256D01*
X107350Y754271D01*
X107600Y754292D01*
X107850Y754320D01*
X108099Y754353D01*
X108347Y754392D01*
X108593Y754437D01*
X108839Y754489D01*
X109084Y754546D01*
X109326Y754609D01*
X109568Y754678D01*
X109807Y754752D01*
X110045Y754833D01*
X110281Y754919D01*
X110515Y755011D01*
X110746Y755108D01*
X110975Y755211D01*
X111201Y755320D01*
X111425Y755434D01*
X111645Y755553D01*
X111863Y755678D01*
X112078Y755807D01*
X112290Y755942D01*
X112498Y756082D01*
X112703Y756228D01*
X112904Y756378D01*
X113102Y756532D01*
X113295Y756692D01*
X113485Y756856D01*
X113671Y757025D01*
X113853Y757198D01*
X114030Y757375D01*
X114203Y757557D01*
X114372Y757743D01*
X114536Y757933D01*
X114696Y758126D01*
X114850Y758324D01*
X115000Y758525D01*
X115146Y758730D01*
X115286Y758938D01*
X115421Y759150D01*
X115550Y759365D01*
X115675Y759583D01*
X115794Y759803D01*
X115908Y760027D01*
X116017Y760253D01*
X116120Y760482D01*
X116217Y760713D01*
X116309Y760947D01*
X116395Y761183D01*
X116476Y761421D01*
X116550Y761660D01*
X116619Y761902D01*
X116682Y762144D01*
X116739Y762389D01*
X116791Y762635D01*
X116836Y762881D01*
X116875Y763129D01*
X116908Y763378D01*
X116936Y763628D01*
X116957Y763878D01*
X116972Y764128D01*
X116981Y764379D01*
X116984Y764630D01*
X93616Y775123D02*
X93616Y781614D01*
X93618Y781773D01*
X93624Y781932D01*
X93634Y782092D01*
X93647Y782250D01*
X93665Y782409D01*
X93686Y782566D01*
X93712Y782724D01*
X93741Y782880D01*
X93774Y783036D01*
X93811Y783191D01*
X93851Y783345D01*
X93896Y783498D01*
X93944Y783650D01*
X93995Y783801D01*
X94051Y783950D01*
X94110Y784098D01*
X94173Y784244D01*
X94239Y784389D01*
X94309Y784532D01*
X94382Y784674D01*
X94459Y784813D01*
X94539Y784951D01*
X94623Y785087D01*
X94710Y785220D01*
X94800Y785352D01*
X94893Y785481D01*
X94990Y785607D01*
X95089Y785732D01*
X95192Y785854D01*
X95297Y785973D01*
X95406Y786090D01*
X95517Y786204D01*
X95631Y786315D01*
X95748Y786424D01*
X95867Y786529D01*
X95989Y786632D01*
X96114Y786731D01*
X96240Y786828D01*
X96369Y786921D01*
X96501Y787011D01*
X96634Y787098D01*
X96770Y787182D01*
X96908Y787262D01*
X97047Y787339D01*
X97189Y787412D01*
X97332Y787482D01*
X97477Y787548D01*
X97623Y787611D01*
X97771Y787670D01*
X97920Y787726D01*
X98071Y787777D01*
X98223Y787825D01*
X98376Y787870D01*
X98530Y787910D01*
X98685Y787947D01*
X98841Y787980D01*
X98997Y788009D01*
X99155Y788035D01*
X99312Y788056D01*
X99471Y788074D01*
X99629Y788087D01*
X99789Y788097D01*
X99948Y788103D01*
X100107Y788105D01*
X100266Y788103D01*
X100425Y788097D01*
X100585Y788087D01*
X100743Y788074D01*
X100902Y788056D01*
X101059Y788035D01*
X101217Y788009D01*
X101373Y787980D01*
X101529Y787947D01*
X101684Y787910D01*
X101838Y787870D01*
X101991Y787825D01*
X102143Y787777D01*
X102294Y787726D01*
X102443Y787670D01*
X102591Y787611D01*
X102737Y787548D01*
X102882Y787482D01*
X103025Y787412D01*
X103167Y787339D01*
X103306Y787262D01*
X103444Y787182D01*
X103580Y787098D01*
X103713Y787011D01*
X103845Y786921D01*
X103974Y786828D01*
X104100Y786731D01*
X104225Y786632D01*
X104347Y786529D01*
X104466Y786424D01*
X104583Y786315D01*
X104697Y786204D01*
X104808Y786090D01*
X104917Y785973D01*
X105022Y785854D01*
X105125Y785732D01*
X105224Y785607D01*
X105321Y785481D01*
X105414Y785352D01*
X105504Y785220D01*
X105591Y785087D01*
X105675Y784951D01*
X105755Y784813D01*
X105832Y784674D01*
X105905Y784532D01*
X105975Y784389D01*
X106041Y784244D01*
X106104Y784098D01*
X106163Y783950D01*
X106219Y783801D01*
X106270Y783650D01*
X106318Y783498D01*
X106363Y783345D01*
X106403Y783191D01*
X106440Y783036D01*
X106473Y782880D01*
X106502Y782724D01*
X106528Y782566D01*
X106549Y782409D01*
X106567Y782250D01*
X106580Y782092D01*
X106590Y781932D01*
X106596Y781773D01*
X106598Y781614D01*
X116984Y782912D02*
X116984Y775123D01*
X116984Y782912D02*
X116982Y783055D01*
X116976Y783198D01*
X116966Y783341D01*
X116952Y783483D01*
X116935Y783625D01*
X116913Y783767D01*
X116888Y783908D01*
X116858Y784048D01*
X116825Y784187D01*
X116788Y784325D01*
X116747Y784462D01*
X116703Y784598D01*
X116654Y784733D01*
X116602Y784866D01*
X116547Y784998D01*
X116487Y785128D01*
X116424Y785257D01*
X116358Y785384D01*
X116288Y785509D01*
X116215Y785631D01*
X116138Y785752D01*
X116058Y785871D01*
X115975Y785987D01*
X115889Y786102D01*
X115800Y786213D01*
X115707Y786323D01*
X115612Y786429D01*
X115513Y786533D01*
X115412Y786634D01*
X115308Y786733D01*
X115202Y786828D01*
X115092Y786921D01*
X114981Y787010D01*
X114866Y787096D01*
X114750Y787179D01*
X114631Y787259D01*
X114510Y787336D01*
X114388Y787409D01*
X114263Y787479D01*
X114136Y787545D01*
X114007Y787608D01*
X113877Y787668D01*
X113745Y787723D01*
X113612Y787775D01*
X113477Y787824D01*
X113341Y787868D01*
X113204Y787909D01*
X113066Y787946D01*
X112927Y787979D01*
X112787Y788009D01*
X112646Y788034D01*
X112504Y788056D01*
X112362Y788073D01*
X112220Y788087D01*
X112077Y788097D01*
X111934Y788103D01*
X111791Y788105D01*
X111648Y788103D01*
X111505Y788097D01*
X111362Y788087D01*
X111220Y788073D01*
X111078Y788056D01*
X110936Y788034D01*
X110795Y788009D01*
X110655Y787979D01*
X110516Y787946D01*
X110378Y787909D01*
X110241Y787868D01*
X110105Y787824D01*
X109970Y787775D01*
X109837Y787723D01*
X109705Y787668D01*
X109575Y787608D01*
X109446Y787545D01*
X109319Y787479D01*
X109195Y787409D01*
X109072Y787336D01*
X108951Y787259D01*
X108832Y787179D01*
X108716Y787096D01*
X108601Y787010D01*
X108490Y786921D01*
X108380Y786828D01*
X108274Y786733D01*
X108170Y786634D01*
X108069Y786533D01*
X107970Y786429D01*
X107875Y786323D01*
X107782Y786213D01*
X107693Y786102D01*
X107607Y785987D01*
X107524Y785871D01*
X107444Y785752D01*
X107367Y785631D01*
X107294Y785509D01*
X107224Y785384D01*
X107158Y785257D01*
X107095Y785128D01*
X107035Y784998D01*
X106980Y784866D01*
X106928Y784733D01*
X106879Y784598D01*
X106835Y784462D01*
X106794Y784325D01*
X106757Y784187D01*
X106724Y784048D01*
X106694Y783908D01*
X106669Y783767D01*
X106647Y783625D01*
X106630Y783483D01*
X106616Y783341D01*
X106606Y783198D01*
X106600Y783055D01*
X106598Y782912D01*
X106598Y777719D01*
X93616Y796002D02*
X93616Y802493D01*
X93618Y802652D01*
X93624Y802811D01*
X93634Y802971D01*
X93647Y803129D01*
X93665Y803288D01*
X93686Y803445D01*
X93712Y803603D01*
X93741Y803759D01*
X93774Y803915D01*
X93811Y804070D01*
X93851Y804224D01*
X93896Y804377D01*
X93944Y804529D01*
X93995Y804680D01*
X94051Y804829D01*
X94110Y804977D01*
X94173Y805123D01*
X94239Y805268D01*
X94309Y805411D01*
X94382Y805553D01*
X94459Y805692D01*
X94539Y805830D01*
X94623Y805966D01*
X94710Y806099D01*
X94800Y806231D01*
X94893Y806360D01*
X94990Y806486D01*
X95089Y806611D01*
X95192Y806733D01*
X95297Y806852D01*
X95406Y806969D01*
X95517Y807083D01*
X95631Y807194D01*
X95748Y807303D01*
X95867Y807408D01*
X95989Y807511D01*
X96114Y807610D01*
X96240Y807707D01*
X96369Y807800D01*
X96501Y807890D01*
X96634Y807977D01*
X96770Y808061D01*
X96908Y808141D01*
X97047Y808218D01*
X97189Y808291D01*
X97332Y808361D01*
X97477Y808427D01*
X97623Y808490D01*
X97771Y808549D01*
X97920Y808605D01*
X98071Y808656D01*
X98223Y808704D01*
X98376Y808749D01*
X98530Y808789D01*
X98685Y808826D01*
X98841Y808859D01*
X98997Y808888D01*
X99155Y808914D01*
X99312Y808935D01*
X99471Y808953D01*
X99629Y808966D01*
X99789Y808976D01*
X99948Y808982D01*
X100107Y808984D01*
X100266Y808982D01*
X100425Y808976D01*
X100585Y808966D01*
X100743Y808953D01*
X100902Y808935D01*
X101059Y808914D01*
X101217Y808888D01*
X101373Y808859D01*
X101529Y808826D01*
X101684Y808789D01*
X101838Y808749D01*
X101991Y808704D01*
X102143Y808656D01*
X102294Y808605D01*
X102443Y808549D01*
X102591Y808490D01*
X102737Y808427D01*
X102882Y808361D01*
X103025Y808291D01*
X103167Y808218D01*
X103306Y808141D01*
X103444Y808061D01*
X103580Y807977D01*
X103713Y807890D01*
X103845Y807800D01*
X103974Y807707D01*
X104100Y807610D01*
X104225Y807511D01*
X104347Y807408D01*
X104466Y807303D01*
X104583Y807194D01*
X104697Y807083D01*
X104808Y806969D01*
X104917Y806852D01*
X105022Y806733D01*
X105125Y806611D01*
X105224Y806486D01*
X105321Y806360D01*
X105414Y806231D01*
X105504Y806099D01*
X105591Y805966D01*
X105675Y805830D01*
X105755Y805692D01*
X105832Y805553D01*
X105905Y805411D01*
X105975Y805268D01*
X106041Y805123D01*
X106104Y804977D01*
X106163Y804829D01*
X106219Y804680D01*
X106270Y804529D01*
X106318Y804377D01*
X106363Y804224D01*
X106403Y804070D01*
X106440Y803915D01*
X106473Y803759D01*
X106502Y803603D01*
X106528Y803445D01*
X106549Y803288D01*
X106567Y803129D01*
X106580Y802971D01*
X106590Y802811D01*
X106596Y802652D01*
X106598Y802493D01*
X116984Y803791D02*
X116984Y796002D01*
X116984Y803791D02*
X116982Y803934D01*
X116976Y804077D01*
X116966Y804220D01*
X116952Y804362D01*
X116935Y804504D01*
X116913Y804646D01*
X116888Y804787D01*
X116858Y804927D01*
X116825Y805066D01*
X116788Y805204D01*
X116747Y805341D01*
X116703Y805477D01*
X116654Y805612D01*
X116602Y805745D01*
X116547Y805877D01*
X116487Y806007D01*
X116424Y806136D01*
X116358Y806263D01*
X116288Y806388D01*
X116215Y806510D01*
X116138Y806631D01*
X116058Y806750D01*
X115975Y806866D01*
X115889Y806981D01*
X115800Y807092D01*
X115707Y807202D01*
X115612Y807308D01*
X115513Y807412D01*
X115412Y807513D01*
X115308Y807612D01*
X115202Y807707D01*
X115092Y807800D01*
X114981Y807889D01*
X114866Y807975D01*
X114750Y808058D01*
X114631Y808138D01*
X114510Y808215D01*
X114388Y808288D01*
X114263Y808358D01*
X114136Y808424D01*
X114007Y808487D01*
X113877Y808547D01*
X113745Y808602D01*
X113612Y808654D01*
X113477Y808703D01*
X113341Y808747D01*
X113204Y808788D01*
X113066Y808825D01*
X112927Y808858D01*
X112787Y808888D01*
X112646Y808913D01*
X112504Y808935D01*
X112362Y808952D01*
X112220Y808966D01*
X112077Y808976D01*
X111934Y808982D01*
X111791Y808984D01*
X111648Y808982D01*
X111505Y808976D01*
X111362Y808966D01*
X111220Y808952D01*
X111078Y808935D01*
X110936Y808913D01*
X110795Y808888D01*
X110655Y808858D01*
X110516Y808825D01*
X110378Y808788D01*
X110241Y808747D01*
X110105Y808703D01*
X109970Y808654D01*
X109837Y808602D01*
X109705Y808547D01*
X109575Y808487D01*
X109446Y808424D01*
X109319Y808358D01*
X109195Y808288D01*
X109072Y808215D01*
X108951Y808138D01*
X108832Y808058D01*
X108716Y807975D01*
X108601Y807889D01*
X108490Y807800D01*
X108380Y807707D01*
X108274Y807612D01*
X108170Y807513D01*
X108069Y807412D01*
X107970Y807308D01*
X107875Y807202D01*
X107782Y807092D01*
X107693Y806981D01*
X107607Y806866D01*
X107524Y806750D01*
X107444Y806631D01*
X107367Y806510D01*
X107294Y806388D01*
X107224Y806263D01*
X107158Y806136D01*
X107095Y806007D01*
X107035Y805877D01*
X106980Y805745D01*
X106928Y805612D01*
X106879Y805477D01*
X106835Y805341D01*
X106794Y805204D01*
X106757Y805066D01*
X106724Y804927D01*
X106694Y804787D01*
X106669Y804646D01*
X106647Y804504D01*
X106630Y804362D01*
X106616Y804220D01*
X106606Y804077D01*
X106600Y803934D01*
X106598Y803791D01*
X106598Y798598D01*
X773984Y536484D02*
X773984Y513116D01*
X763598Y513116D01*
X751510Y513116D02*
X751510Y536484D01*
X758001Y536484D02*
X745019Y536484D01*
X733345Y513116D02*
X728152Y513116D01*
X733345Y513116D02*
X733488Y513118D01*
X733631Y513124D01*
X733774Y513134D01*
X733916Y513148D01*
X734058Y513165D01*
X734200Y513187D01*
X734341Y513212D01*
X734481Y513242D01*
X734620Y513275D01*
X734758Y513312D01*
X734895Y513353D01*
X735031Y513397D01*
X735166Y513446D01*
X735299Y513498D01*
X735431Y513553D01*
X735561Y513613D01*
X735690Y513676D01*
X735817Y513742D01*
X735942Y513812D01*
X736064Y513885D01*
X736185Y513962D01*
X736304Y514042D01*
X736420Y514125D01*
X736535Y514211D01*
X736646Y514300D01*
X736756Y514393D01*
X736862Y514488D01*
X736966Y514587D01*
X737067Y514688D01*
X737166Y514792D01*
X737261Y514898D01*
X737354Y515008D01*
X737443Y515119D01*
X737529Y515234D01*
X737612Y515350D01*
X737692Y515469D01*
X737769Y515590D01*
X737842Y515712D01*
X737912Y515837D01*
X737978Y515964D01*
X738041Y516093D01*
X738101Y516223D01*
X738156Y516355D01*
X738208Y516488D01*
X738257Y516623D01*
X738301Y516759D01*
X738342Y516896D01*
X738379Y517034D01*
X738412Y517173D01*
X738442Y517313D01*
X738467Y517454D01*
X738489Y517596D01*
X738506Y517738D01*
X738520Y517880D01*
X738530Y518023D01*
X738536Y518166D01*
X738538Y518309D01*
X738538Y531291D01*
X738536Y531434D01*
X738530Y531577D01*
X738520Y531720D01*
X738506Y531862D01*
X738489Y532004D01*
X738467Y532146D01*
X738442Y532287D01*
X738412Y532427D01*
X738379Y532566D01*
X738342Y532704D01*
X738301Y532841D01*
X738257Y532977D01*
X738208Y533112D01*
X738156Y533245D01*
X738101Y533377D01*
X738041Y533507D01*
X737978Y533636D01*
X737912Y533763D01*
X737842Y533888D01*
X737769Y534010D01*
X737692Y534131D01*
X737612Y534250D01*
X737529Y534366D01*
X737443Y534481D01*
X737354Y534592D01*
X737261Y534702D01*
X737166Y534808D01*
X737067Y534912D01*
X736966Y535013D01*
X736862Y535112D01*
X736756Y535207D01*
X736646Y535300D01*
X736535Y535389D01*
X736420Y535475D01*
X736304Y535558D01*
X736185Y535638D01*
X736064Y535715D01*
X735942Y535788D01*
X735817Y535858D01*
X735690Y535924D01*
X735561Y535987D01*
X735431Y536047D01*
X735299Y536102D01*
X735166Y536154D01*
X735031Y536203D01*
X734895Y536247D01*
X734758Y536288D01*
X734620Y536325D01*
X734481Y536358D01*
X734341Y536388D01*
X734200Y536413D01*
X734058Y536435D01*
X733916Y536452D01*
X733774Y536466D01*
X733631Y536476D01*
X733488Y536482D01*
X733345Y536484D01*
X728152Y536484D01*
X721116Y513116D02*
X714624Y513116D01*
X714465Y513118D01*
X714306Y513124D01*
X714146Y513134D01*
X713988Y513147D01*
X713829Y513165D01*
X713672Y513186D01*
X713514Y513212D01*
X713358Y513241D01*
X713202Y513274D01*
X713047Y513311D01*
X712893Y513351D01*
X712740Y513396D01*
X712588Y513444D01*
X712437Y513495D01*
X712288Y513551D01*
X712140Y513610D01*
X711994Y513673D01*
X711849Y513739D01*
X711706Y513809D01*
X711564Y513882D01*
X711425Y513959D01*
X711287Y514039D01*
X711151Y514123D01*
X711018Y514210D01*
X710886Y514300D01*
X710757Y514393D01*
X710631Y514490D01*
X710506Y514589D01*
X710384Y514692D01*
X710265Y514797D01*
X710148Y514906D01*
X710034Y515017D01*
X709923Y515131D01*
X709814Y515248D01*
X709709Y515367D01*
X709606Y515489D01*
X709507Y515614D01*
X709410Y515740D01*
X709317Y515869D01*
X709227Y516001D01*
X709140Y516134D01*
X709056Y516270D01*
X708976Y516408D01*
X708899Y516547D01*
X708826Y516689D01*
X708756Y516832D01*
X708690Y516977D01*
X708627Y517123D01*
X708568Y517271D01*
X708512Y517420D01*
X708461Y517571D01*
X708413Y517723D01*
X708368Y517876D01*
X708328Y518030D01*
X708291Y518185D01*
X708258Y518341D01*
X708229Y518497D01*
X708203Y518655D01*
X708182Y518812D01*
X708164Y518971D01*
X708151Y519129D01*
X708141Y519289D01*
X708135Y519448D01*
X708133Y519607D01*
X708135Y519766D01*
X708141Y519925D01*
X708151Y520085D01*
X708164Y520243D01*
X708182Y520402D01*
X708203Y520559D01*
X708229Y520717D01*
X708258Y520873D01*
X708291Y521029D01*
X708328Y521184D01*
X708368Y521338D01*
X708413Y521491D01*
X708461Y521643D01*
X708512Y521794D01*
X708568Y521943D01*
X708627Y522091D01*
X708690Y522237D01*
X708756Y522382D01*
X708826Y522525D01*
X708899Y522667D01*
X708976Y522806D01*
X709056Y522944D01*
X709140Y523080D01*
X709227Y523213D01*
X709317Y523345D01*
X709410Y523474D01*
X709507Y523600D01*
X709606Y523725D01*
X709709Y523847D01*
X709814Y523966D01*
X709923Y524083D01*
X710034Y524197D01*
X710148Y524308D01*
X710265Y524417D01*
X710384Y524522D01*
X710506Y524625D01*
X710631Y524724D01*
X710757Y524821D01*
X710886Y524914D01*
X711018Y525004D01*
X711151Y525091D01*
X711287Y525175D01*
X711425Y525255D01*
X711564Y525332D01*
X711706Y525405D01*
X711849Y525475D01*
X711994Y525541D01*
X712140Y525604D01*
X712288Y525663D01*
X712437Y525719D01*
X712588Y525770D01*
X712740Y525818D01*
X712893Y525863D01*
X713047Y525903D01*
X713202Y525940D01*
X713358Y525973D01*
X713514Y526002D01*
X713672Y526028D01*
X713829Y526049D01*
X713988Y526067D01*
X714146Y526080D01*
X714306Y526090D01*
X714465Y526096D01*
X714624Y526098D01*
X713326Y536484D02*
X721116Y536484D01*
X713326Y536484D02*
X713183Y536482D01*
X713040Y536476D01*
X712897Y536466D01*
X712755Y536452D01*
X712613Y536435D01*
X712471Y536413D01*
X712330Y536388D01*
X712190Y536358D01*
X712051Y536325D01*
X711913Y536288D01*
X711776Y536247D01*
X711640Y536203D01*
X711505Y536154D01*
X711372Y536102D01*
X711240Y536047D01*
X711110Y535987D01*
X710981Y535924D01*
X710854Y535858D01*
X710730Y535788D01*
X710607Y535715D01*
X710486Y535638D01*
X710367Y535558D01*
X710251Y535475D01*
X710136Y535389D01*
X710025Y535300D01*
X709915Y535207D01*
X709809Y535112D01*
X709705Y535013D01*
X709604Y534912D01*
X709505Y534808D01*
X709410Y534702D01*
X709317Y534592D01*
X709228Y534481D01*
X709142Y534366D01*
X709059Y534250D01*
X708979Y534131D01*
X708902Y534010D01*
X708829Y533888D01*
X708759Y533763D01*
X708693Y533636D01*
X708630Y533507D01*
X708570Y533377D01*
X708515Y533245D01*
X708463Y533112D01*
X708414Y532977D01*
X708370Y532841D01*
X708329Y532704D01*
X708292Y532566D01*
X708259Y532427D01*
X708229Y532287D01*
X708204Y532146D01*
X708182Y532004D01*
X708165Y531862D01*
X708151Y531720D01*
X708141Y531577D01*
X708135Y531434D01*
X708133Y531291D01*
X708135Y531148D01*
X708141Y531005D01*
X708151Y530862D01*
X708165Y530720D01*
X708182Y530578D01*
X708204Y530436D01*
X708229Y530295D01*
X708259Y530155D01*
X708292Y530016D01*
X708329Y529878D01*
X708370Y529741D01*
X708414Y529605D01*
X708463Y529470D01*
X708515Y529337D01*
X708570Y529205D01*
X708630Y529075D01*
X708693Y528946D01*
X708759Y528819D01*
X708829Y528695D01*
X708902Y528572D01*
X708979Y528451D01*
X709059Y528332D01*
X709142Y528216D01*
X709228Y528101D01*
X709317Y527990D01*
X709410Y527880D01*
X709505Y527774D01*
X709604Y527670D01*
X709705Y527569D01*
X709809Y527470D01*
X709915Y527375D01*
X710025Y527282D01*
X710136Y527193D01*
X710251Y527107D01*
X710367Y527024D01*
X710486Y526944D01*
X710607Y526867D01*
X710729Y526794D01*
X710854Y526724D01*
X710981Y526658D01*
X711110Y526595D01*
X711240Y526535D01*
X711372Y526480D01*
X711505Y526428D01*
X711640Y526379D01*
X711776Y526335D01*
X711913Y526294D01*
X712051Y526257D01*
X712190Y526224D01*
X712330Y526194D01*
X712471Y526169D01*
X712613Y526147D01*
X712755Y526130D01*
X712897Y526116D01*
X713040Y526106D01*
X713183Y526100D01*
X713326Y526098D01*
X718519Y526098D01*
X700237Y526098D02*
X692447Y526098D01*
X692304Y526096D01*
X692161Y526090D01*
X692018Y526080D01*
X691876Y526066D01*
X691734Y526049D01*
X691592Y526027D01*
X691451Y526002D01*
X691311Y525972D01*
X691172Y525939D01*
X691034Y525902D01*
X690897Y525861D01*
X690761Y525817D01*
X690626Y525768D01*
X690493Y525716D01*
X690361Y525661D01*
X690231Y525601D01*
X690102Y525538D01*
X689975Y525472D01*
X689851Y525402D01*
X689728Y525329D01*
X689607Y525252D01*
X689488Y525172D01*
X689372Y525089D01*
X689257Y525003D01*
X689146Y524914D01*
X689036Y524821D01*
X688930Y524726D01*
X688826Y524627D01*
X688725Y524526D01*
X688626Y524422D01*
X688531Y524316D01*
X688438Y524206D01*
X688349Y524095D01*
X688263Y523980D01*
X688180Y523864D01*
X688100Y523745D01*
X688023Y523624D01*
X687950Y523502D01*
X687880Y523377D01*
X687814Y523250D01*
X687751Y523121D01*
X687691Y522991D01*
X687636Y522859D01*
X687584Y522726D01*
X687535Y522591D01*
X687491Y522455D01*
X687450Y522318D01*
X687413Y522180D01*
X687380Y522041D01*
X687350Y521901D01*
X687325Y521760D01*
X687303Y521618D01*
X687286Y521476D01*
X687272Y521334D01*
X687262Y521191D01*
X687256Y521048D01*
X687254Y520905D01*
X687255Y520905D02*
X687255Y519607D01*
X687257Y519448D01*
X687263Y519289D01*
X687273Y519129D01*
X687286Y518971D01*
X687304Y518812D01*
X687325Y518655D01*
X687351Y518497D01*
X687380Y518341D01*
X687413Y518185D01*
X687450Y518030D01*
X687490Y517876D01*
X687535Y517723D01*
X687583Y517571D01*
X687634Y517420D01*
X687690Y517271D01*
X687749Y517123D01*
X687812Y516977D01*
X687878Y516832D01*
X687948Y516689D01*
X688021Y516547D01*
X688098Y516408D01*
X688178Y516270D01*
X688262Y516134D01*
X688349Y516001D01*
X688439Y515869D01*
X688532Y515740D01*
X688629Y515614D01*
X688728Y515489D01*
X688831Y515367D01*
X688936Y515248D01*
X689045Y515131D01*
X689156Y515017D01*
X689270Y514906D01*
X689387Y514797D01*
X689506Y514692D01*
X689628Y514589D01*
X689753Y514490D01*
X689879Y514393D01*
X690008Y514300D01*
X690140Y514210D01*
X690273Y514123D01*
X690409Y514039D01*
X690547Y513959D01*
X690686Y513882D01*
X690828Y513809D01*
X690971Y513739D01*
X691116Y513673D01*
X691262Y513610D01*
X691410Y513551D01*
X691559Y513495D01*
X691710Y513444D01*
X691862Y513396D01*
X692015Y513351D01*
X692169Y513311D01*
X692324Y513274D01*
X692480Y513241D01*
X692636Y513212D01*
X692794Y513186D01*
X692951Y513165D01*
X693110Y513147D01*
X693268Y513134D01*
X693428Y513124D01*
X693587Y513118D01*
X693746Y513116D01*
X693905Y513118D01*
X694064Y513124D01*
X694224Y513134D01*
X694382Y513147D01*
X694541Y513165D01*
X694698Y513186D01*
X694856Y513212D01*
X695012Y513241D01*
X695168Y513274D01*
X695323Y513311D01*
X695477Y513351D01*
X695630Y513396D01*
X695782Y513444D01*
X695933Y513495D01*
X696082Y513551D01*
X696230Y513610D01*
X696376Y513673D01*
X696521Y513739D01*
X696664Y513809D01*
X696806Y513882D01*
X696945Y513959D01*
X697083Y514039D01*
X697219Y514123D01*
X697352Y514210D01*
X697484Y514300D01*
X697613Y514393D01*
X697739Y514490D01*
X697864Y514589D01*
X697986Y514692D01*
X698105Y514797D01*
X698222Y514906D01*
X698336Y515017D01*
X698447Y515131D01*
X698556Y515248D01*
X698661Y515367D01*
X698764Y515489D01*
X698863Y515614D01*
X698960Y515740D01*
X699053Y515869D01*
X699143Y516001D01*
X699230Y516134D01*
X699314Y516270D01*
X699394Y516408D01*
X699471Y516547D01*
X699544Y516689D01*
X699614Y516832D01*
X699680Y516977D01*
X699743Y517123D01*
X699802Y517271D01*
X699858Y517420D01*
X699909Y517571D01*
X699957Y517723D01*
X700002Y517876D01*
X700042Y518030D01*
X700079Y518185D01*
X700112Y518341D01*
X700141Y518497D01*
X700167Y518655D01*
X700188Y518812D01*
X700206Y518971D01*
X700219Y519129D01*
X700229Y519289D01*
X700235Y519448D01*
X700237Y519607D01*
X700237Y526098D01*
X700234Y526349D01*
X700225Y526600D01*
X700210Y526850D01*
X700189Y527100D01*
X700161Y527350D01*
X700128Y527599D01*
X700089Y527847D01*
X700044Y528093D01*
X699992Y528339D01*
X699935Y528584D01*
X699872Y528826D01*
X699803Y529068D01*
X699729Y529307D01*
X699648Y529545D01*
X699562Y529781D01*
X699470Y530015D01*
X699373Y530246D01*
X699270Y530475D01*
X699161Y530701D01*
X699047Y530925D01*
X698928Y531145D01*
X698803Y531363D01*
X698674Y531578D01*
X698539Y531790D01*
X698399Y531998D01*
X698253Y532203D01*
X698103Y532404D01*
X697949Y532602D01*
X697789Y532795D01*
X697625Y532985D01*
X697456Y533171D01*
X697283Y533353D01*
X697106Y533530D01*
X696924Y533703D01*
X696738Y533872D01*
X696548Y534036D01*
X696355Y534196D01*
X696157Y534350D01*
X695956Y534500D01*
X695751Y534646D01*
X695543Y534786D01*
X695331Y534921D01*
X695116Y535050D01*
X694898Y535175D01*
X694678Y535294D01*
X694454Y535408D01*
X694228Y535517D01*
X693999Y535620D01*
X693768Y535717D01*
X693534Y535809D01*
X693298Y535895D01*
X693060Y535976D01*
X692821Y536050D01*
X692579Y536119D01*
X692337Y536182D01*
X692092Y536239D01*
X691846Y536291D01*
X691600Y536336D01*
X691352Y536375D01*
X691103Y536408D01*
X690853Y536436D01*
X690603Y536457D01*
X690353Y536472D01*
X690102Y536481D01*
X689851Y536484D01*
X679358Y513116D02*
X672867Y513116D01*
X672708Y513118D01*
X672549Y513124D01*
X672389Y513134D01*
X672231Y513147D01*
X672072Y513165D01*
X671915Y513186D01*
X671757Y513212D01*
X671601Y513241D01*
X671445Y513274D01*
X671290Y513311D01*
X671136Y513351D01*
X670983Y513396D01*
X670831Y513444D01*
X670680Y513495D01*
X670531Y513551D01*
X670383Y513610D01*
X670237Y513673D01*
X670092Y513739D01*
X669949Y513809D01*
X669807Y513882D01*
X669668Y513959D01*
X669530Y514039D01*
X669394Y514123D01*
X669261Y514210D01*
X669129Y514300D01*
X669000Y514393D01*
X668874Y514490D01*
X668749Y514589D01*
X668627Y514692D01*
X668508Y514797D01*
X668391Y514906D01*
X668277Y515017D01*
X668166Y515131D01*
X668057Y515248D01*
X667952Y515367D01*
X667849Y515489D01*
X667750Y515614D01*
X667653Y515740D01*
X667560Y515869D01*
X667470Y516001D01*
X667383Y516134D01*
X667299Y516270D01*
X667219Y516408D01*
X667142Y516547D01*
X667069Y516689D01*
X666999Y516832D01*
X666933Y516977D01*
X666870Y517123D01*
X666811Y517271D01*
X666755Y517420D01*
X666704Y517571D01*
X666656Y517723D01*
X666611Y517876D01*
X666571Y518030D01*
X666534Y518185D01*
X666501Y518341D01*
X666472Y518497D01*
X666446Y518655D01*
X666425Y518812D01*
X666407Y518971D01*
X666394Y519129D01*
X666384Y519289D01*
X666378Y519448D01*
X666376Y519607D01*
X666378Y519766D01*
X666384Y519925D01*
X666394Y520085D01*
X666407Y520243D01*
X666425Y520402D01*
X666446Y520559D01*
X666472Y520717D01*
X666501Y520873D01*
X666534Y521029D01*
X666571Y521184D01*
X666611Y521338D01*
X666656Y521491D01*
X666704Y521643D01*
X666755Y521794D01*
X666811Y521943D01*
X666870Y522091D01*
X666933Y522237D01*
X666999Y522382D01*
X667069Y522525D01*
X667142Y522667D01*
X667219Y522806D01*
X667299Y522944D01*
X667383Y523080D01*
X667470Y523213D01*
X667560Y523345D01*
X667653Y523474D01*
X667750Y523600D01*
X667849Y523725D01*
X667952Y523847D01*
X668057Y523966D01*
X668166Y524083D01*
X668277Y524197D01*
X668391Y524308D01*
X668508Y524417D01*
X668627Y524522D01*
X668749Y524625D01*
X668874Y524724D01*
X669000Y524821D01*
X669129Y524914D01*
X669261Y525004D01*
X669394Y525091D01*
X669530Y525175D01*
X669668Y525255D01*
X669807Y525332D01*
X669949Y525405D01*
X670092Y525475D01*
X670237Y525541D01*
X670383Y525604D01*
X670531Y525663D01*
X670680Y525719D01*
X670831Y525770D01*
X670983Y525818D01*
X671136Y525863D01*
X671290Y525903D01*
X671445Y525940D01*
X671601Y525973D01*
X671757Y526002D01*
X671915Y526028D01*
X672072Y526049D01*
X672231Y526067D01*
X672389Y526080D01*
X672549Y526090D01*
X672708Y526096D01*
X672867Y526098D01*
X671569Y536484D02*
X679358Y536484D01*
X671569Y536484D02*
X671426Y536482D01*
X671283Y536476D01*
X671140Y536466D01*
X670998Y536452D01*
X670856Y536435D01*
X670714Y536413D01*
X670573Y536388D01*
X670433Y536358D01*
X670294Y536325D01*
X670156Y536288D01*
X670019Y536247D01*
X669883Y536203D01*
X669748Y536154D01*
X669615Y536102D01*
X669483Y536047D01*
X669353Y535987D01*
X669224Y535924D01*
X669097Y535858D01*
X668973Y535788D01*
X668850Y535715D01*
X668729Y535638D01*
X668610Y535558D01*
X668494Y535475D01*
X668379Y535389D01*
X668268Y535300D01*
X668158Y535207D01*
X668052Y535112D01*
X667948Y535013D01*
X667847Y534912D01*
X667748Y534808D01*
X667653Y534702D01*
X667560Y534592D01*
X667471Y534481D01*
X667385Y534366D01*
X667302Y534250D01*
X667222Y534131D01*
X667145Y534010D01*
X667072Y533888D01*
X667002Y533763D01*
X666936Y533636D01*
X666873Y533507D01*
X666813Y533377D01*
X666758Y533245D01*
X666706Y533112D01*
X666657Y532977D01*
X666613Y532841D01*
X666572Y532704D01*
X666535Y532566D01*
X666502Y532427D01*
X666472Y532287D01*
X666447Y532146D01*
X666425Y532004D01*
X666408Y531862D01*
X666394Y531720D01*
X666384Y531577D01*
X666378Y531434D01*
X666376Y531291D01*
X666378Y531148D01*
X666384Y531005D01*
X666394Y530862D01*
X666408Y530720D01*
X666425Y530578D01*
X666447Y530436D01*
X666472Y530295D01*
X666502Y530155D01*
X666535Y530016D01*
X666572Y529878D01*
X666613Y529741D01*
X666657Y529605D01*
X666706Y529470D01*
X666758Y529337D01*
X666813Y529205D01*
X666873Y529075D01*
X666936Y528946D01*
X667002Y528819D01*
X667072Y528695D01*
X667145Y528572D01*
X667222Y528451D01*
X667302Y528332D01*
X667385Y528216D01*
X667471Y528101D01*
X667560Y527990D01*
X667653Y527880D01*
X667748Y527774D01*
X667847Y527670D01*
X667948Y527569D01*
X668052Y527470D01*
X668158Y527375D01*
X668268Y527282D01*
X668379Y527193D01*
X668494Y527107D01*
X668610Y527024D01*
X668729Y526944D01*
X668850Y526867D01*
X668972Y526794D01*
X669097Y526724D01*
X669224Y526658D01*
X669353Y526595D01*
X669483Y526535D01*
X669615Y526480D01*
X669748Y526428D01*
X669883Y526379D01*
X670019Y526335D01*
X670156Y526294D01*
X670294Y526257D01*
X670433Y526224D01*
X670573Y526194D01*
X670714Y526169D01*
X670856Y526147D01*
X670998Y526130D01*
X671140Y526116D01*
X671283Y526106D01*
X671426Y526100D01*
X671569Y526098D01*
X676762Y526098D01*
X658479Y513116D02*
X651988Y513116D01*
X651829Y513118D01*
X651670Y513124D01*
X651510Y513134D01*
X651352Y513147D01*
X651193Y513165D01*
X651036Y513186D01*
X650878Y513212D01*
X650722Y513241D01*
X650566Y513274D01*
X650411Y513311D01*
X650257Y513351D01*
X650104Y513396D01*
X649952Y513444D01*
X649801Y513495D01*
X649652Y513551D01*
X649504Y513610D01*
X649358Y513673D01*
X649213Y513739D01*
X649070Y513809D01*
X648928Y513882D01*
X648789Y513959D01*
X648651Y514039D01*
X648515Y514123D01*
X648382Y514210D01*
X648250Y514300D01*
X648121Y514393D01*
X647995Y514490D01*
X647870Y514589D01*
X647748Y514692D01*
X647629Y514797D01*
X647512Y514906D01*
X647398Y515017D01*
X647287Y515131D01*
X647178Y515248D01*
X647073Y515367D01*
X646970Y515489D01*
X646871Y515614D01*
X646774Y515740D01*
X646681Y515869D01*
X646591Y516001D01*
X646504Y516134D01*
X646420Y516270D01*
X646340Y516408D01*
X646263Y516547D01*
X646190Y516689D01*
X646120Y516832D01*
X646054Y516977D01*
X645991Y517123D01*
X645932Y517271D01*
X645876Y517420D01*
X645825Y517571D01*
X645777Y517723D01*
X645732Y517876D01*
X645692Y518030D01*
X645655Y518185D01*
X645622Y518341D01*
X645593Y518497D01*
X645567Y518655D01*
X645546Y518812D01*
X645528Y518971D01*
X645515Y519129D01*
X645505Y519289D01*
X645499Y519448D01*
X645497Y519607D01*
X645499Y519766D01*
X645505Y519925D01*
X645515Y520085D01*
X645528Y520243D01*
X645546Y520402D01*
X645567Y520559D01*
X645593Y520717D01*
X645622Y520873D01*
X645655Y521029D01*
X645692Y521184D01*
X645732Y521338D01*
X645777Y521491D01*
X645825Y521643D01*
X645876Y521794D01*
X645932Y521943D01*
X645991Y522091D01*
X646054Y522237D01*
X646120Y522382D01*
X646190Y522525D01*
X646263Y522667D01*
X646340Y522806D01*
X646420Y522944D01*
X646504Y523080D01*
X646591Y523213D01*
X646681Y523345D01*
X646774Y523474D01*
X646871Y523600D01*
X646970Y523725D01*
X647073Y523847D01*
X647178Y523966D01*
X647287Y524083D01*
X647398Y524197D01*
X647512Y524308D01*
X647629Y524417D01*
X647748Y524522D01*
X647870Y524625D01*
X647995Y524724D01*
X648121Y524821D01*
X648250Y524914D01*
X648382Y525004D01*
X648515Y525091D01*
X648651Y525175D01*
X648789Y525255D01*
X648928Y525332D01*
X649070Y525405D01*
X649213Y525475D01*
X649358Y525541D01*
X649504Y525604D01*
X649652Y525663D01*
X649801Y525719D01*
X649952Y525770D01*
X650104Y525818D01*
X650257Y525863D01*
X650411Y525903D01*
X650566Y525940D01*
X650722Y525973D01*
X650878Y526002D01*
X651036Y526028D01*
X651193Y526049D01*
X651352Y526067D01*
X651510Y526080D01*
X651670Y526090D01*
X651829Y526096D01*
X651988Y526098D01*
X650690Y536484D02*
X658479Y536484D01*
X650690Y536484D02*
X650547Y536482D01*
X650404Y536476D01*
X650261Y536466D01*
X650119Y536452D01*
X649977Y536435D01*
X649835Y536413D01*
X649694Y536388D01*
X649554Y536358D01*
X649415Y536325D01*
X649277Y536288D01*
X649140Y536247D01*
X649004Y536203D01*
X648869Y536154D01*
X648736Y536102D01*
X648604Y536047D01*
X648474Y535987D01*
X648345Y535924D01*
X648218Y535858D01*
X648094Y535788D01*
X647971Y535715D01*
X647850Y535638D01*
X647731Y535558D01*
X647615Y535475D01*
X647500Y535389D01*
X647389Y535300D01*
X647279Y535207D01*
X647173Y535112D01*
X647069Y535013D01*
X646968Y534912D01*
X646869Y534808D01*
X646774Y534702D01*
X646681Y534592D01*
X646592Y534481D01*
X646506Y534366D01*
X646423Y534250D01*
X646343Y534131D01*
X646266Y534010D01*
X646193Y533888D01*
X646123Y533763D01*
X646057Y533636D01*
X645994Y533507D01*
X645934Y533377D01*
X645879Y533245D01*
X645827Y533112D01*
X645778Y532977D01*
X645734Y532841D01*
X645693Y532704D01*
X645656Y532566D01*
X645623Y532427D01*
X645593Y532287D01*
X645568Y532146D01*
X645546Y532004D01*
X645529Y531862D01*
X645515Y531720D01*
X645505Y531577D01*
X645499Y531434D01*
X645497Y531291D01*
X645499Y531148D01*
X645505Y531005D01*
X645515Y530862D01*
X645529Y530720D01*
X645546Y530578D01*
X645568Y530436D01*
X645593Y530295D01*
X645623Y530155D01*
X645656Y530016D01*
X645693Y529878D01*
X645734Y529741D01*
X645778Y529605D01*
X645827Y529470D01*
X645879Y529337D01*
X645934Y529205D01*
X645994Y529075D01*
X646057Y528946D01*
X646123Y528819D01*
X646193Y528695D01*
X646266Y528572D01*
X646343Y528451D01*
X646423Y528332D01*
X646506Y528216D01*
X646592Y528101D01*
X646681Y527990D01*
X646774Y527880D01*
X646869Y527774D01*
X646968Y527670D01*
X647069Y527569D01*
X647173Y527470D01*
X647279Y527375D01*
X647389Y527282D01*
X647500Y527193D01*
X647615Y527107D01*
X647731Y527024D01*
X647850Y526944D01*
X647971Y526867D01*
X648093Y526794D01*
X648218Y526724D01*
X648345Y526658D01*
X648474Y526595D01*
X648604Y526535D01*
X648736Y526480D01*
X648869Y526428D01*
X649004Y526379D01*
X649140Y526335D01*
X649277Y526294D01*
X649415Y526257D01*
X649554Y526224D01*
X649694Y526194D01*
X649835Y526169D01*
X649977Y526147D01*
X650119Y526130D01*
X650261Y526116D01*
X650404Y526106D01*
X650547Y526100D01*
X650690Y526098D01*
X655883Y526098D01*
X773984Y485402D02*
X773984Y480209D01*
X773984Y485402D02*
X773982Y485545D01*
X773976Y485688D01*
X773966Y485831D01*
X773952Y485973D01*
X773935Y486115D01*
X773913Y486257D01*
X773888Y486398D01*
X773858Y486538D01*
X773825Y486677D01*
X773788Y486815D01*
X773747Y486952D01*
X773703Y487088D01*
X773654Y487223D01*
X773602Y487356D01*
X773547Y487488D01*
X773487Y487618D01*
X773424Y487747D01*
X773358Y487874D01*
X773288Y487999D01*
X773215Y488121D01*
X773138Y488242D01*
X773058Y488361D01*
X772975Y488477D01*
X772889Y488592D01*
X772800Y488703D01*
X772707Y488813D01*
X772612Y488919D01*
X772513Y489023D01*
X772412Y489124D01*
X772308Y489223D01*
X772202Y489318D01*
X772092Y489411D01*
X771981Y489500D01*
X771866Y489586D01*
X771750Y489669D01*
X771631Y489749D01*
X771510Y489826D01*
X771388Y489899D01*
X771263Y489969D01*
X771136Y490035D01*
X771007Y490098D01*
X770877Y490158D01*
X770745Y490213D01*
X770612Y490265D01*
X770477Y490314D01*
X770341Y490358D01*
X770204Y490399D01*
X770066Y490436D01*
X769927Y490469D01*
X769787Y490499D01*
X769646Y490524D01*
X769504Y490546D01*
X769362Y490563D01*
X769220Y490577D01*
X769077Y490587D01*
X768934Y490593D01*
X768791Y490595D01*
X768648Y490593D01*
X768505Y490587D01*
X768362Y490577D01*
X768220Y490563D01*
X768078Y490546D01*
X767936Y490524D01*
X767795Y490499D01*
X767655Y490469D01*
X767516Y490436D01*
X767378Y490399D01*
X767241Y490358D01*
X767105Y490314D01*
X766970Y490265D01*
X766837Y490213D01*
X766705Y490158D01*
X766575Y490098D01*
X766446Y490035D01*
X766319Y489969D01*
X766195Y489899D01*
X766072Y489826D01*
X765951Y489749D01*
X765832Y489669D01*
X765716Y489586D01*
X765601Y489500D01*
X765490Y489411D01*
X765380Y489318D01*
X765274Y489223D01*
X765170Y489124D01*
X765069Y489023D01*
X764970Y488919D01*
X764875Y488813D01*
X764782Y488703D01*
X764693Y488592D01*
X764607Y488477D01*
X764524Y488361D01*
X764444Y488242D01*
X764367Y488121D01*
X764294Y487999D01*
X764224Y487874D01*
X764158Y487747D01*
X764095Y487618D01*
X764035Y487488D01*
X763980Y487356D01*
X763928Y487223D01*
X763879Y487088D01*
X763835Y486952D01*
X763794Y486815D01*
X763757Y486677D01*
X763724Y486538D01*
X763694Y486398D01*
X763669Y486257D01*
X763647Y486115D01*
X763630Y485973D01*
X763616Y485831D01*
X763606Y485688D01*
X763600Y485545D01*
X763598Y485402D01*
X763598Y480209D01*
X763600Y480066D01*
X763606Y479923D01*
X763616Y479780D01*
X763630Y479638D01*
X763647Y479496D01*
X763669Y479354D01*
X763694Y479213D01*
X763724Y479073D01*
X763757Y478934D01*
X763794Y478796D01*
X763835Y478659D01*
X763879Y478523D01*
X763928Y478388D01*
X763980Y478255D01*
X764035Y478123D01*
X764095Y477993D01*
X764158Y477864D01*
X764224Y477737D01*
X764294Y477613D01*
X764367Y477490D01*
X764444Y477369D01*
X764524Y477250D01*
X764607Y477134D01*
X764693Y477019D01*
X764782Y476908D01*
X764875Y476798D01*
X764970Y476692D01*
X765069Y476588D01*
X765170Y476487D01*
X765274Y476388D01*
X765380Y476293D01*
X765490Y476200D01*
X765601Y476111D01*
X765716Y476025D01*
X765832Y475942D01*
X765951Y475862D01*
X766072Y475785D01*
X766195Y475712D01*
X766319Y475642D01*
X766446Y475576D01*
X766575Y475513D01*
X766705Y475453D01*
X766837Y475398D01*
X766970Y475346D01*
X767105Y475297D01*
X767241Y475253D01*
X767378Y475212D01*
X767516Y475175D01*
X767655Y475142D01*
X767795Y475112D01*
X767936Y475087D01*
X768078Y475065D01*
X768220Y475048D01*
X768362Y475034D01*
X768505Y475024D01*
X768648Y475018D01*
X768791Y475016D01*
X768934Y475018D01*
X769077Y475024D01*
X769220Y475034D01*
X769362Y475048D01*
X769504Y475065D01*
X769646Y475087D01*
X769787Y475112D01*
X769927Y475142D01*
X770066Y475175D01*
X770204Y475212D01*
X770341Y475253D01*
X770477Y475297D01*
X770612Y475346D01*
X770745Y475398D01*
X770877Y475453D01*
X771007Y475513D01*
X771136Y475576D01*
X771263Y475642D01*
X771387Y475712D01*
X771510Y475785D01*
X771631Y475862D01*
X771750Y475942D01*
X771866Y476025D01*
X771981Y476111D01*
X772092Y476200D01*
X772202Y476293D01*
X772308Y476388D01*
X772412Y476487D01*
X772513Y476588D01*
X772612Y476692D01*
X772707Y476798D01*
X772800Y476908D01*
X772889Y477019D01*
X772975Y477134D01*
X773058Y477250D01*
X773138Y477369D01*
X773215Y477490D01*
X773288Y477612D01*
X773358Y477737D01*
X773424Y477864D01*
X773487Y477993D01*
X773547Y478123D01*
X773602Y478255D01*
X773654Y478388D01*
X773703Y478523D01*
X773747Y478659D01*
X773788Y478796D01*
X773825Y478934D01*
X773858Y479073D01*
X773888Y479213D01*
X773913Y479354D01*
X773935Y479496D01*
X773952Y479638D01*
X773966Y479780D01*
X773976Y479923D01*
X773982Y480066D01*
X773984Y480209D01*
X755193Y475016D02*
X755193Y490595D01*
X748702Y490595D01*
X748580Y490593D01*
X748457Y490587D01*
X748335Y490578D01*
X748214Y490564D01*
X748093Y490547D01*
X747972Y490526D01*
X747852Y490501D01*
X747733Y490473D01*
X747615Y490440D01*
X747498Y490404D01*
X747383Y490365D01*
X747268Y490321D01*
X747155Y490275D01*
X747044Y490224D01*
X746934Y490170D01*
X746826Y490113D01*
X746719Y490053D01*
X746615Y489989D01*
X746513Y489921D01*
X746413Y489851D01*
X746315Y489778D01*
X746219Y489701D01*
X746126Y489622D01*
X746036Y489539D01*
X745948Y489454D01*
X745863Y489366D01*
X745780Y489276D01*
X745701Y489183D01*
X745624Y489087D01*
X745551Y488989D01*
X745481Y488889D01*
X745413Y488787D01*
X745349Y488683D01*
X745289Y488576D01*
X745232Y488468D01*
X745178Y488358D01*
X745127Y488247D01*
X745081Y488134D01*
X745037Y488019D01*
X744998Y487904D01*
X744962Y487787D01*
X744929Y487669D01*
X744901Y487550D01*
X744876Y487430D01*
X744855Y487309D01*
X744838Y487188D01*
X744824Y487067D01*
X744815Y486945D01*
X744809Y486822D01*
X744807Y486700D01*
X744807Y475016D01*
X724520Y475016D02*
X724520Y498384D01*
X724520Y475016D02*
X718029Y475016D01*
X717907Y475018D01*
X717784Y475024D01*
X717662Y475033D01*
X717541Y475047D01*
X717420Y475064D01*
X717299Y475085D01*
X717179Y475110D01*
X717060Y475138D01*
X716942Y475171D01*
X716825Y475207D01*
X716710Y475246D01*
X716595Y475290D01*
X716482Y475336D01*
X716371Y475387D01*
X716261Y475441D01*
X716153Y475498D01*
X716046Y475558D01*
X715942Y475622D01*
X715840Y475690D01*
X715740Y475760D01*
X715642Y475833D01*
X715546Y475910D01*
X715453Y475989D01*
X715363Y476072D01*
X715275Y476157D01*
X715190Y476245D01*
X715107Y476335D01*
X715028Y476428D01*
X714951Y476524D01*
X714878Y476622D01*
X714808Y476722D01*
X714740Y476824D01*
X714676Y476928D01*
X714616Y477035D01*
X714559Y477143D01*
X714505Y477253D01*
X714454Y477364D01*
X714408Y477477D01*
X714364Y477592D01*
X714325Y477707D01*
X714289Y477824D01*
X714256Y477942D01*
X714228Y478061D01*
X714203Y478181D01*
X714182Y478302D01*
X714165Y478423D01*
X714151Y478544D01*
X714142Y478666D01*
X714136Y478789D01*
X714134Y478911D01*
X714134Y486700D01*
X714136Y486822D01*
X714142Y486945D01*
X714151Y487067D01*
X714165Y487188D01*
X714182Y487309D01*
X714203Y487430D01*
X714228Y487550D01*
X714256Y487669D01*
X714289Y487787D01*
X714325Y487904D01*
X714364Y488019D01*
X714408Y488134D01*
X714454Y488247D01*
X714505Y488358D01*
X714559Y488468D01*
X714616Y488576D01*
X714676Y488683D01*
X714740Y488787D01*
X714808Y488889D01*
X714878Y488989D01*
X714951Y489087D01*
X715028Y489183D01*
X715107Y489276D01*
X715190Y489366D01*
X715275Y489454D01*
X715363Y489539D01*
X715453Y489622D01*
X715546Y489701D01*
X715642Y489778D01*
X715740Y489851D01*
X715840Y489921D01*
X715942Y489989D01*
X716046Y490053D01*
X716153Y490113D01*
X716261Y490170D01*
X716371Y490224D01*
X716482Y490275D01*
X716595Y490321D01*
X716710Y490365D01*
X716825Y490404D01*
X716942Y490440D01*
X717060Y490473D01*
X717179Y490501D01*
X717299Y490526D01*
X717420Y490547D01*
X717541Y490564D01*
X717662Y490578D01*
X717784Y490587D01*
X717907Y490593D01*
X718029Y490595D01*
X724520Y490595D01*
X706476Y485402D02*
X706476Y480209D01*
X706476Y485402D02*
X706474Y485545D01*
X706468Y485688D01*
X706458Y485831D01*
X706444Y485973D01*
X706427Y486115D01*
X706405Y486257D01*
X706380Y486398D01*
X706350Y486538D01*
X706317Y486677D01*
X706280Y486815D01*
X706239Y486952D01*
X706195Y487088D01*
X706146Y487223D01*
X706094Y487356D01*
X706039Y487488D01*
X705979Y487618D01*
X705916Y487747D01*
X705850Y487874D01*
X705780Y487999D01*
X705707Y488121D01*
X705630Y488242D01*
X705550Y488361D01*
X705467Y488477D01*
X705381Y488592D01*
X705292Y488703D01*
X705199Y488813D01*
X705104Y488919D01*
X705005Y489023D01*
X704904Y489124D01*
X704800Y489223D01*
X704694Y489318D01*
X704584Y489411D01*
X704473Y489500D01*
X704358Y489586D01*
X704242Y489669D01*
X704123Y489749D01*
X704002Y489826D01*
X703880Y489899D01*
X703755Y489969D01*
X703628Y490035D01*
X703499Y490098D01*
X703369Y490158D01*
X703237Y490213D01*
X703104Y490265D01*
X702969Y490314D01*
X702833Y490358D01*
X702696Y490399D01*
X702558Y490436D01*
X702419Y490469D01*
X702279Y490499D01*
X702138Y490524D01*
X701996Y490546D01*
X701854Y490563D01*
X701712Y490577D01*
X701569Y490587D01*
X701426Y490593D01*
X701283Y490595D01*
X701140Y490593D01*
X700997Y490587D01*
X700854Y490577D01*
X700712Y490563D01*
X700570Y490546D01*
X700428Y490524D01*
X700287Y490499D01*
X700147Y490469D01*
X700008Y490436D01*
X699870Y490399D01*
X699733Y490358D01*
X699597Y490314D01*
X699462Y490265D01*
X699329Y490213D01*
X699197Y490158D01*
X699067Y490098D01*
X698938Y490035D01*
X698811Y489969D01*
X698687Y489899D01*
X698564Y489826D01*
X698443Y489749D01*
X698324Y489669D01*
X698208Y489586D01*
X698093Y489500D01*
X697982Y489411D01*
X697872Y489318D01*
X697766Y489223D01*
X697662Y489124D01*
X697561Y489023D01*
X697462Y488919D01*
X697367Y488813D01*
X697274Y488703D01*
X697185Y488592D01*
X697099Y488477D01*
X697016Y488361D01*
X696936Y488242D01*
X696859Y488121D01*
X696786Y487999D01*
X696716Y487874D01*
X696650Y487747D01*
X696587Y487618D01*
X696527Y487488D01*
X696472Y487356D01*
X696420Y487223D01*
X696371Y487088D01*
X696327Y486952D01*
X696286Y486815D01*
X696249Y486677D01*
X696216Y486538D01*
X696186Y486398D01*
X696161Y486257D01*
X696139Y486115D01*
X696122Y485973D01*
X696108Y485831D01*
X696098Y485688D01*
X696092Y485545D01*
X696090Y485402D01*
X696090Y480209D01*
X696092Y480066D01*
X696098Y479923D01*
X696108Y479780D01*
X696122Y479638D01*
X696139Y479496D01*
X696161Y479354D01*
X696186Y479213D01*
X696216Y479073D01*
X696249Y478934D01*
X696286Y478796D01*
X696327Y478659D01*
X696371Y478523D01*
X696420Y478388D01*
X696472Y478255D01*
X696527Y478123D01*
X696587Y477993D01*
X696650Y477864D01*
X696716Y477737D01*
X696786Y477613D01*
X696859Y477490D01*
X696936Y477369D01*
X697016Y477250D01*
X697099Y477134D01*
X697185Y477019D01*
X697274Y476908D01*
X697367Y476798D01*
X697462Y476692D01*
X697561Y476588D01*
X697662Y476487D01*
X697766Y476388D01*
X697872Y476293D01*
X697982Y476200D01*
X698093Y476111D01*
X698208Y476025D01*
X698324Y475942D01*
X698443Y475862D01*
X698564Y475785D01*
X698687Y475712D01*
X698811Y475642D01*
X698938Y475576D01*
X699067Y475513D01*
X699197Y475453D01*
X699329Y475398D01*
X699462Y475346D01*
X699597Y475297D01*
X699733Y475253D01*
X699870Y475212D01*
X700008Y475175D01*
X700147Y475142D01*
X700287Y475112D01*
X700428Y475087D01*
X700570Y475065D01*
X700712Y475048D01*
X700854Y475034D01*
X700997Y475024D01*
X701140Y475018D01*
X701283Y475016D01*
X701426Y475018D01*
X701569Y475024D01*
X701712Y475034D01*
X701854Y475048D01*
X701996Y475065D01*
X702138Y475087D01*
X702279Y475112D01*
X702419Y475142D01*
X702558Y475175D01*
X702696Y475212D01*
X702833Y475253D01*
X702969Y475297D01*
X703104Y475346D01*
X703237Y475398D01*
X703369Y475453D01*
X703499Y475513D01*
X703628Y475576D01*
X703755Y475642D01*
X703879Y475712D01*
X704002Y475785D01*
X704123Y475862D01*
X704242Y475942D01*
X704358Y476025D01*
X704473Y476111D01*
X704584Y476200D01*
X704694Y476293D01*
X704800Y476388D01*
X704904Y476487D01*
X705005Y476588D01*
X705104Y476692D01*
X705199Y476798D01*
X705292Y476908D01*
X705381Y477019D01*
X705467Y477134D01*
X705550Y477250D01*
X705630Y477369D01*
X705707Y477490D01*
X705780Y477612D01*
X705850Y477737D01*
X705916Y477864D01*
X705979Y477993D01*
X706039Y478123D01*
X706094Y478255D01*
X706146Y478388D01*
X706195Y478523D01*
X706239Y478659D01*
X706280Y478796D01*
X706317Y478934D01*
X706350Y479073D01*
X706380Y479213D01*
X706405Y479354D01*
X706427Y479496D01*
X706444Y479638D01*
X706458Y479780D01*
X706468Y479923D01*
X706474Y480066D01*
X706476Y480209D01*
X683888Y484104D02*
X678046Y484104D01*
X683888Y484104D02*
X684021Y484102D01*
X684155Y484096D01*
X684288Y484086D01*
X684420Y484073D01*
X684553Y484055D01*
X684684Y484034D01*
X684815Y484008D01*
X684946Y483979D01*
X685075Y483946D01*
X685203Y483910D01*
X685330Y483869D01*
X685456Y483825D01*
X685581Y483777D01*
X685704Y483725D01*
X685825Y483670D01*
X685945Y483612D01*
X686063Y483550D01*
X686179Y483484D01*
X686293Y483415D01*
X686406Y483343D01*
X686516Y483267D01*
X686623Y483189D01*
X686729Y483107D01*
X686831Y483022D01*
X686932Y482934D01*
X687030Y482843D01*
X687125Y482749D01*
X687217Y482653D01*
X687306Y482554D01*
X687393Y482452D01*
X687476Y482348D01*
X687556Y482242D01*
X687633Y482133D01*
X687707Y482022D01*
X687778Y481909D01*
X687845Y481793D01*
X687909Y481676D01*
X687970Y481557D01*
X688026Y481437D01*
X688080Y481314D01*
X688129Y481190D01*
X688175Y481065D01*
X688218Y480939D01*
X688256Y480811D01*
X688291Y480682D01*
X688322Y480553D01*
X688350Y480422D01*
X688373Y480291D01*
X688392Y480159D01*
X688408Y480026D01*
X688420Y479893D01*
X688428Y479760D01*
X688432Y479627D01*
X688432Y479493D01*
X688428Y479360D01*
X688420Y479227D01*
X688408Y479094D01*
X688392Y478961D01*
X688373Y478829D01*
X688350Y478698D01*
X688322Y478567D01*
X688291Y478438D01*
X688256Y478309D01*
X688218Y478181D01*
X688175Y478055D01*
X688129Y477930D01*
X688080Y477806D01*
X688026Y477683D01*
X687970Y477563D01*
X687909Y477444D01*
X687845Y477327D01*
X687778Y477211D01*
X687707Y477098D01*
X687633Y476987D01*
X687556Y476878D01*
X687476Y476772D01*
X687393Y476668D01*
X687306Y476566D01*
X687217Y476467D01*
X687125Y476371D01*
X687030Y476277D01*
X686932Y476186D01*
X686831Y476098D01*
X686729Y476013D01*
X686623Y475931D01*
X686516Y475853D01*
X686406Y475777D01*
X686293Y475705D01*
X686179Y475636D01*
X686063Y475570D01*
X685945Y475508D01*
X685825Y475450D01*
X685704Y475395D01*
X685581Y475343D01*
X685456Y475295D01*
X685330Y475251D01*
X685203Y475210D01*
X685075Y475174D01*
X684946Y475141D01*
X684815Y475112D01*
X684684Y475086D01*
X684553Y475065D01*
X684420Y475047D01*
X684288Y475034D01*
X684155Y475024D01*
X684021Y475018D01*
X683888Y475016D01*
X678046Y475016D01*
X678046Y486700D01*
X678048Y486822D01*
X678054Y486945D01*
X678063Y487067D01*
X678077Y487188D01*
X678094Y487309D01*
X678115Y487430D01*
X678140Y487550D01*
X678168Y487669D01*
X678201Y487787D01*
X678237Y487904D01*
X678276Y488019D01*
X678320Y488134D01*
X678366Y488247D01*
X678417Y488358D01*
X678471Y488468D01*
X678528Y488576D01*
X678588Y488683D01*
X678652Y488787D01*
X678720Y488889D01*
X678790Y488989D01*
X678863Y489087D01*
X678940Y489183D01*
X679019Y489276D01*
X679102Y489366D01*
X679187Y489454D01*
X679275Y489539D01*
X679365Y489622D01*
X679458Y489701D01*
X679554Y489778D01*
X679652Y489851D01*
X679752Y489921D01*
X679854Y489989D01*
X679958Y490053D01*
X680065Y490113D01*
X680173Y490170D01*
X680283Y490224D01*
X680394Y490275D01*
X680507Y490321D01*
X680622Y490365D01*
X680737Y490404D01*
X680854Y490440D01*
X680972Y490473D01*
X681091Y490501D01*
X681211Y490526D01*
X681332Y490547D01*
X681453Y490564D01*
X681574Y490578D01*
X681696Y490587D01*
X681819Y490593D01*
X681941Y490595D01*
X687134Y490595D01*
X668830Y490595D02*
X668830Y475016D01*
X668830Y490595D02*
X661041Y490595D01*
X661041Y487998D01*
X644640Y498384D02*
X644640Y475016D01*
X651132Y475016D01*
X651254Y475018D01*
X651377Y475024D01*
X651499Y475033D01*
X651620Y475047D01*
X651741Y475064D01*
X651862Y475085D01*
X651982Y475110D01*
X652101Y475138D01*
X652219Y475171D01*
X652336Y475207D01*
X652451Y475246D01*
X652566Y475290D01*
X652679Y475336D01*
X652790Y475387D01*
X652900Y475441D01*
X653008Y475498D01*
X653115Y475558D01*
X653219Y475622D01*
X653321Y475690D01*
X653421Y475760D01*
X653519Y475833D01*
X653615Y475910D01*
X653708Y475989D01*
X653798Y476072D01*
X653886Y476157D01*
X653971Y476245D01*
X654054Y476335D01*
X654133Y476428D01*
X654210Y476524D01*
X654283Y476622D01*
X654353Y476722D01*
X654421Y476824D01*
X654485Y476928D01*
X654545Y477035D01*
X654602Y477143D01*
X654656Y477253D01*
X654707Y477364D01*
X654753Y477477D01*
X654797Y477592D01*
X654836Y477707D01*
X654872Y477824D01*
X654905Y477942D01*
X654933Y478061D01*
X654958Y478181D01*
X654979Y478302D01*
X654996Y478423D01*
X655010Y478544D01*
X655019Y478666D01*
X655025Y478789D01*
X655027Y478911D01*
X655026Y478911D02*
X655026Y486700D01*
X655027Y486700D02*
X655025Y486822D01*
X655019Y486945D01*
X655010Y487067D01*
X654996Y487188D01*
X654979Y487309D01*
X654958Y487430D01*
X654933Y487550D01*
X654905Y487669D01*
X654872Y487787D01*
X654836Y487904D01*
X654797Y488019D01*
X654753Y488134D01*
X654707Y488247D01*
X654656Y488358D01*
X654602Y488468D01*
X654545Y488576D01*
X654485Y488683D01*
X654421Y488787D01*
X654353Y488889D01*
X654283Y488989D01*
X654210Y489087D01*
X654133Y489183D01*
X654054Y489276D01*
X653971Y489366D01*
X653886Y489454D01*
X653798Y489539D01*
X653708Y489622D01*
X653615Y489701D01*
X653519Y489778D01*
X653421Y489851D01*
X653321Y489921D01*
X653219Y489989D01*
X653115Y490053D01*
X653008Y490113D01*
X652900Y490170D01*
X652790Y490224D01*
X652679Y490275D01*
X652566Y490321D01*
X652451Y490365D01*
X652336Y490404D01*
X652219Y490440D01*
X652101Y490473D01*
X651982Y490501D01*
X651862Y490526D01*
X651741Y490547D01*
X651620Y490564D01*
X651499Y490578D01*
X651377Y490587D01*
X651254Y490593D01*
X651132Y490595D01*
X644640Y490595D01*
X514984Y993016D02*
X514984Y1016384D01*
X514984Y993016D02*
X504598Y993016D01*
X492510Y993016D02*
X492510Y1016384D01*
X499001Y1016384D02*
X486019Y1016384D01*
X474345Y993016D02*
X469152Y993016D01*
X474345Y993016D02*
X474488Y993018D01*
X474631Y993024D01*
X474774Y993034D01*
X474916Y993048D01*
X475058Y993065D01*
X475200Y993087D01*
X475341Y993112D01*
X475481Y993142D01*
X475620Y993175D01*
X475758Y993212D01*
X475895Y993253D01*
X476031Y993297D01*
X476166Y993346D01*
X476299Y993398D01*
X476431Y993453D01*
X476561Y993513D01*
X476690Y993576D01*
X476817Y993642D01*
X476942Y993712D01*
X477064Y993785D01*
X477185Y993862D01*
X477304Y993942D01*
X477420Y994025D01*
X477535Y994111D01*
X477646Y994200D01*
X477756Y994293D01*
X477862Y994388D01*
X477966Y994487D01*
X478067Y994588D01*
X478166Y994692D01*
X478261Y994798D01*
X478354Y994908D01*
X478443Y995019D01*
X478529Y995134D01*
X478612Y995250D01*
X478692Y995369D01*
X478769Y995490D01*
X478842Y995613D01*
X478912Y995737D01*
X478978Y995864D01*
X479041Y995993D01*
X479101Y996123D01*
X479156Y996255D01*
X479208Y996388D01*
X479257Y996523D01*
X479301Y996659D01*
X479342Y996796D01*
X479379Y996934D01*
X479412Y997073D01*
X479442Y997213D01*
X479467Y997354D01*
X479489Y997496D01*
X479506Y997638D01*
X479520Y997780D01*
X479530Y997923D01*
X479536Y998066D01*
X479538Y998209D01*
X479538Y1011191D01*
X479536Y1011334D01*
X479530Y1011477D01*
X479520Y1011620D01*
X479506Y1011762D01*
X479489Y1011904D01*
X479467Y1012046D01*
X479442Y1012187D01*
X479412Y1012327D01*
X479379Y1012466D01*
X479342Y1012604D01*
X479301Y1012741D01*
X479257Y1012877D01*
X479208Y1013012D01*
X479156Y1013145D01*
X479101Y1013277D01*
X479041Y1013407D01*
X478978Y1013536D01*
X478912Y1013663D01*
X478842Y1013788D01*
X478769Y1013910D01*
X478692Y1014031D01*
X478612Y1014150D01*
X478529Y1014266D01*
X478443Y1014381D01*
X478354Y1014492D01*
X478261Y1014602D01*
X478166Y1014708D01*
X478067Y1014812D01*
X477966Y1014913D01*
X477862Y1015012D01*
X477756Y1015107D01*
X477646Y1015200D01*
X477535Y1015289D01*
X477420Y1015375D01*
X477304Y1015458D01*
X477185Y1015538D01*
X477064Y1015615D01*
X476942Y1015688D01*
X476817Y1015758D01*
X476690Y1015824D01*
X476561Y1015887D01*
X476431Y1015947D01*
X476299Y1016002D01*
X476166Y1016054D01*
X476031Y1016103D01*
X475895Y1016147D01*
X475758Y1016188D01*
X475620Y1016225D01*
X475481Y1016258D01*
X475341Y1016288D01*
X475200Y1016313D01*
X475058Y1016335D01*
X474916Y1016352D01*
X474774Y1016366D01*
X474631Y1016376D01*
X474488Y1016382D01*
X474345Y1016384D01*
X469152Y1016384D01*
X462116Y993016D02*
X455624Y993016D01*
X455465Y993018D01*
X455306Y993024D01*
X455146Y993034D01*
X454988Y993047D01*
X454829Y993065D01*
X454672Y993086D01*
X454514Y993112D01*
X454358Y993141D01*
X454202Y993174D01*
X454047Y993211D01*
X453893Y993251D01*
X453740Y993296D01*
X453588Y993344D01*
X453437Y993395D01*
X453288Y993451D01*
X453140Y993510D01*
X452994Y993573D01*
X452849Y993639D01*
X452706Y993709D01*
X452564Y993782D01*
X452425Y993859D01*
X452287Y993939D01*
X452151Y994023D01*
X452018Y994110D01*
X451886Y994200D01*
X451757Y994293D01*
X451631Y994390D01*
X451506Y994489D01*
X451384Y994592D01*
X451265Y994697D01*
X451148Y994806D01*
X451034Y994917D01*
X450923Y995031D01*
X450814Y995148D01*
X450709Y995267D01*
X450606Y995389D01*
X450507Y995514D01*
X450410Y995640D01*
X450317Y995769D01*
X450227Y995901D01*
X450140Y996034D01*
X450056Y996170D01*
X449976Y996308D01*
X449899Y996447D01*
X449826Y996589D01*
X449756Y996732D01*
X449690Y996877D01*
X449627Y997023D01*
X449568Y997171D01*
X449512Y997320D01*
X449461Y997471D01*
X449413Y997623D01*
X449368Y997776D01*
X449328Y997930D01*
X449291Y998085D01*
X449258Y998241D01*
X449229Y998397D01*
X449203Y998555D01*
X449182Y998712D01*
X449164Y998871D01*
X449151Y999029D01*
X449141Y999189D01*
X449135Y999348D01*
X449133Y999507D01*
X449135Y999666D01*
X449141Y999825D01*
X449151Y999985D01*
X449164Y1000143D01*
X449182Y1000302D01*
X449203Y1000459D01*
X449229Y1000617D01*
X449258Y1000773D01*
X449291Y1000929D01*
X449328Y1001084D01*
X449368Y1001238D01*
X449413Y1001391D01*
X449461Y1001543D01*
X449512Y1001694D01*
X449568Y1001843D01*
X449627Y1001991D01*
X449690Y1002137D01*
X449756Y1002282D01*
X449826Y1002425D01*
X449899Y1002567D01*
X449976Y1002706D01*
X450056Y1002844D01*
X450140Y1002980D01*
X450227Y1003113D01*
X450317Y1003245D01*
X450410Y1003374D01*
X450507Y1003500D01*
X450606Y1003625D01*
X450709Y1003747D01*
X450814Y1003866D01*
X450923Y1003983D01*
X451034Y1004097D01*
X451148Y1004208D01*
X451265Y1004317D01*
X451384Y1004422D01*
X451506Y1004525D01*
X451631Y1004624D01*
X451757Y1004721D01*
X451886Y1004814D01*
X452018Y1004904D01*
X452151Y1004991D01*
X452287Y1005075D01*
X452425Y1005155D01*
X452564Y1005232D01*
X452706Y1005305D01*
X452849Y1005375D01*
X452994Y1005441D01*
X453140Y1005504D01*
X453288Y1005563D01*
X453437Y1005619D01*
X453588Y1005670D01*
X453740Y1005718D01*
X453893Y1005763D01*
X454047Y1005803D01*
X454202Y1005840D01*
X454358Y1005873D01*
X454514Y1005902D01*
X454672Y1005928D01*
X454829Y1005949D01*
X454988Y1005967D01*
X455146Y1005980D01*
X455306Y1005990D01*
X455465Y1005996D01*
X455624Y1005998D01*
X454326Y1016384D02*
X462116Y1016384D01*
X454326Y1016384D02*
X454183Y1016382D01*
X454040Y1016376D01*
X453897Y1016366D01*
X453755Y1016352D01*
X453613Y1016335D01*
X453471Y1016313D01*
X453330Y1016288D01*
X453190Y1016258D01*
X453051Y1016225D01*
X452913Y1016188D01*
X452776Y1016147D01*
X452640Y1016103D01*
X452505Y1016054D01*
X452372Y1016002D01*
X452240Y1015947D01*
X452110Y1015887D01*
X451981Y1015824D01*
X451854Y1015758D01*
X451730Y1015688D01*
X451607Y1015615D01*
X451486Y1015538D01*
X451367Y1015458D01*
X451251Y1015375D01*
X451136Y1015289D01*
X451025Y1015200D01*
X450915Y1015107D01*
X450809Y1015012D01*
X450705Y1014913D01*
X450604Y1014812D01*
X450505Y1014708D01*
X450410Y1014602D01*
X450317Y1014492D01*
X450228Y1014381D01*
X450142Y1014266D01*
X450059Y1014150D01*
X449979Y1014031D01*
X449902Y1013910D01*
X449829Y1013788D01*
X449759Y1013663D01*
X449693Y1013536D01*
X449630Y1013407D01*
X449570Y1013277D01*
X449515Y1013145D01*
X449463Y1013012D01*
X449414Y1012877D01*
X449370Y1012741D01*
X449329Y1012604D01*
X449292Y1012466D01*
X449259Y1012327D01*
X449229Y1012187D01*
X449204Y1012046D01*
X449182Y1011904D01*
X449165Y1011762D01*
X449151Y1011620D01*
X449141Y1011477D01*
X449135Y1011334D01*
X449133Y1011191D01*
X449135Y1011048D01*
X449141Y1010905D01*
X449151Y1010762D01*
X449165Y1010620D01*
X449182Y1010478D01*
X449204Y1010336D01*
X449229Y1010195D01*
X449259Y1010055D01*
X449292Y1009916D01*
X449329Y1009778D01*
X449370Y1009641D01*
X449414Y1009505D01*
X449463Y1009370D01*
X449515Y1009237D01*
X449570Y1009105D01*
X449630Y1008975D01*
X449693Y1008846D01*
X449759Y1008719D01*
X449829Y1008595D01*
X449902Y1008472D01*
X449979Y1008351D01*
X450059Y1008232D01*
X450142Y1008116D01*
X450228Y1008001D01*
X450317Y1007890D01*
X450410Y1007780D01*
X450505Y1007674D01*
X450604Y1007570D01*
X450705Y1007469D01*
X450809Y1007370D01*
X450915Y1007275D01*
X451025Y1007182D01*
X451136Y1007093D01*
X451251Y1007007D01*
X451367Y1006924D01*
X451486Y1006844D01*
X451607Y1006767D01*
X451729Y1006694D01*
X451854Y1006624D01*
X451981Y1006558D01*
X452110Y1006495D01*
X452240Y1006435D01*
X452372Y1006380D01*
X452505Y1006328D01*
X452640Y1006279D01*
X452776Y1006235D01*
X452913Y1006194D01*
X453051Y1006157D01*
X453190Y1006124D01*
X453330Y1006094D01*
X453471Y1006069D01*
X453613Y1006047D01*
X453755Y1006030D01*
X453897Y1006016D01*
X454040Y1006006D01*
X454183Y1006000D01*
X454326Y1005998D01*
X459519Y1005998D01*
X441237Y1011191D02*
X434746Y1016384D01*
X434746Y993016D01*
X441237Y993016D02*
X428255Y993016D01*
X420358Y1011191D02*
X413867Y1016384D01*
X413867Y993016D01*
X420358Y993016D02*
X407376Y993016D01*
X394286Y1003402D02*
X386497Y1003402D01*
X394286Y1003402D02*
X394429Y1003404D01*
X394572Y1003410D01*
X394715Y1003420D01*
X394857Y1003434D01*
X394999Y1003451D01*
X395141Y1003473D01*
X395282Y1003498D01*
X395422Y1003528D01*
X395561Y1003561D01*
X395699Y1003598D01*
X395836Y1003639D01*
X395972Y1003683D01*
X396107Y1003732D01*
X396240Y1003784D01*
X396372Y1003839D01*
X396502Y1003899D01*
X396631Y1003962D01*
X396758Y1004028D01*
X396883Y1004098D01*
X397005Y1004171D01*
X397126Y1004248D01*
X397245Y1004328D01*
X397361Y1004411D01*
X397476Y1004497D01*
X397587Y1004586D01*
X397697Y1004679D01*
X397803Y1004774D01*
X397907Y1004873D01*
X398008Y1004974D01*
X398107Y1005078D01*
X398202Y1005184D01*
X398295Y1005294D01*
X398384Y1005405D01*
X398470Y1005520D01*
X398554Y1005636D01*
X398633Y1005755D01*
X398710Y1005876D01*
X398783Y1005999D01*
X398853Y1006123D01*
X398919Y1006250D01*
X398982Y1006379D01*
X399042Y1006509D01*
X399097Y1006641D01*
X399149Y1006774D01*
X399198Y1006909D01*
X399242Y1007045D01*
X399283Y1007182D01*
X399320Y1007320D01*
X399353Y1007459D01*
X399383Y1007599D01*
X399408Y1007740D01*
X399430Y1007882D01*
X399447Y1008024D01*
X399461Y1008166D01*
X399471Y1008309D01*
X399477Y1008452D01*
X399479Y1008595D01*
X399479Y1009893D01*
X399477Y1010052D01*
X399471Y1010211D01*
X399461Y1010371D01*
X399448Y1010529D01*
X399430Y1010688D01*
X399409Y1010845D01*
X399383Y1011003D01*
X399354Y1011159D01*
X399321Y1011315D01*
X399284Y1011470D01*
X399244Y1011624D01*
X399199Y1011777D01*
X399151Y1011929D01*
X399100Y1012080D01*
X399044Y1012229D01*
X398985Y1012377D01*
X398922Y1012523D01*
X398856Y1012668D01*
X398786Y1012811D01*
X398713Y1012953D01*
X398636Y1013092D01*
X398556Y1013230D01*
X398472Y1013366D01*
X398385Y1013499D01*
X398295Y1013631D01*
X398202Y1013760D01*
X398105Y1013886D01*
X398006Y1014011D01*
X397903Y1014133D01*
X397798Y1014252D01*
X397689Y1014369D01*
X397578Y1014483D01*
X397464Y1014594D01*
X397347Y1014703D01*
X397228Y1014808D01*
X397106Y1014911D01*
X396981Y1015010D01*
X396855Y1015107D01*
X396726Y1015200D01*
X396594Y1015290D01*
X396461Y1015377D01*
X396325Y1015461D01*
X396187Y1015541D01*
X396048Y1015618D01*
X395906Y1015691D01*
X395763Y1015761D01*
X395618Y1015827D01*
X395472Y1015890D01*
X395324Y1015949D01*
X395175Y1016005D01*
X395024Y1016056D01*
X394872Y1016104D01*
X394719Y1016149D01*
X394565Y1016189D01*
X394410Y1016226D01*
X394254Y1016259D01*
X394098Y1016288D01*
X393940Y1016314D01*
X393783Y1016335D01*
X393624Y1016353D01*
X393466Y1016366D01*
X393306Y1016376D01*
X393147Y1016382D01*
X392988Y1016384D01*
X392829Y1016382D01*
X392670Y1016376D01*
X392510Y1016366D01*
X392352Y1016353D01*
X392193Y1016335D01*
X392036Y1016314D01*
X391878Y1016288D01*
X391722Y1016259D01*
X391566Y1016226D01*
X391411Y1016189D01*
X391257Y1016149D01*
X391104Y1016104D01*
X390952Y1016056D01*
X390801Y1016005D01*
X390652Y1015949D01*
X390504Y1015890D01*
X390358Y1015827D01*
X390213Y1015761D01*
X390070Y1015691D01*
X389928Y1015618D01*
X389789Y1015541D01*
X389651Y1015461D01*
X389515Y1015377D01*
X389382Y1015290D01*
X389250Y1015200D01*
X389121Y1015107D01*
X388995Y1015010D01*
X388870Y1014911D01*
X388748Y1014808D01*
X388629Y1014703D01*
X388512Y1014594D01*
X388398Y1014483D01*
X388287Y1014369D01*
X388178Y1014252D01*
X388073Y1014133D01*
X387970Y1014011D01*
X387871Y1013886D01*
X387774Y1013760D01*
X387681Y1013631D01*
X387591Y1013499D01*
X387504Y1013366D01*
X387420Y1013230D01*
X387340Y1013092D01*
X387263Y1012953D01*
X387190Y1012811D01*
X387120Y1012668D01*
X387054Y1012523D01*
X386991Y1012377D01*
X386932Y1012229D01*
X386876Y1012080D01*
X386825Y1011929D01*
X386777Y1011777D01*
X386732Y1011624D01*
X386692Y1011470D01*
X386655Y1011315D01*
X386622Y1011159D01*
X386593Y1011003D01*
X386567Y1010845D01*
X386546Y1010688D01*
X386528Y1010529D01*
X386515Y1010371D01*
X386505Y1010211D01*
X386499Y1010052D01*
X386497Y1009893D01*
X386497Y1003402D01*
X386500Y1003151D01*
X386509Y1002900D01*
X386524Y1002650D01*
X386545Y1002400D01*
X386573Y1002150D01*
X386606Y1001901D01*
X386645Y1001653D01*
X386690Y1001407D01*
X386742Y1001161D01*
X386799Y1000916D01*
X386862Y1000674D01*
X386931Y1000432D01*
X387005Y1000193D01*
X387086Y999955D01*
X387172Y999719D01*
X387264Y999485D01*
X387361Y999254D01*
X387464Y999025D01*
X387573Y998799D01*
X387687Y998575D01*
X387806Y998355D01*
X387931Y998137D01*
X388060Y997922D01*
X388195Y997710D01*
X388335Y997502D01*
X388481Y997297D01*
X388631Y997096D01*
X388785Y996898D01*
X388945Y996705D01*
X389109Y996515D01*
X389278Y996329D01*
X389451Y996147D01*
X389628Y995970D01*
X389810Y995797D01*
X389996Y995628D01*
X390186Y995464D01*
X390379Y995304D01*
X390577Y995150D01*
X390778Y995000D01*
X390983Y994854D01*
X391191Y994714D01*
X391403Y994579D01*
X391618Y994450D01*
X391836Y994325D01*
X392056Y994206D01*
X392280Y994092D01*
X392506Y993983D01*
X392735Y993880D01*
X392967Y993783D01*
X393200Y993691D01*
X393436Y993605D01*
X393674Y993524D01*
X393913Y993450D01*
X394155Y993381D01*
X394397Y993318D01*
X394642Y993261D01*
X394888Y993209D01*
X395134Y993164D01*
X395382Y993125D01*
X395631Y993092D01*
X395881Y993064D01*
X396131Y993043D01*
X396381Y993028D01*
X396632Y993019D01*
X396883Y993016D01*
X229984Y545384D02*
X229984Y522016D01*
X222195Y532402D02*
X229984Y545384D01*
X222195Y532402D02*
X214405Y545384D01*
X214405Y522016D01*
X204876Y522016D02*
X204876Y545384D01*
X198385Y545384D01*
X198226Y545382D01*
X198067Y545376D01*
X197907Y545366D01*
X197749Y545353D01*
X197590Y545335D01*
X197433Y545314D01*
X197275Y545288D01*
X197119Y545259D01*
X196963Y545226D01*
X196808Y545189D01*
X196654Y545149D01*
X196501Y545104D01*
X196349Y545056D01*
X196198Y545005D01*
X196049Y544949D01*
X195901Y544890D01*
X195755Y544827D01*
X195610Y544761D01*
X195467Y544691D01*
X195325Y544618D01*
X195186Y544541D01*
X195048Y544461D01*
X194912Y544377D01*
X194779Y544290D01*
X194647Y544200D01*
X194518Y544107D01*
X194392Y544010D01*
X194267Y543911D01*
X194145Y543808D01*
X194026Y543703D01*
X193909Y543594D01*
X193795Y543483D01*
X193684Y543369D01*
X193575Y543252D01*
X193470Y543133D01*
X193367Y543011D01*
X193268Y542886D01*
X193171Y542760D01*
X193078Y542631D01*
X192988Y542499D01*
X192901Y542366D01*
X192817Y542230D01*
X192737Y542092D01*
X192660Y541953D01*
X192587Y541811D01*
X192517Y541668D01*
X192451Y541523D01*
X192388Y541377D01*
X192329Y541229D01*
X192273Y541080D01*
X192222Y540929D01*
X192174Y540777D01*
X192129Y540624D01*
X192089Y540470D01*
X192052Y540315D01*
X192019Y540159D01*
X191990Y540003D01*
X191964Y539845D01*
X191943Y539688D01*
X191925Y539529D01*
X191912Y539371D01*
X191902Y539211D01*
X191896Y539052D01*
X191894Y538893D01*
X191896Y538734D01*
X191902Y538575D01*
X191912Y538415D01*
X191925Y538257D01*
X191943Y538098D01*
X191964Y537941D01*
X191990Y537783D01*
X192019Y537627D01*
X192052Y537471D01*
X192089Y537316D01*
X192129Y537162D01*
X192174Y537009D01*
X192222Y536857D01*
X192273Y536706D01*
X192329Y536557D01*
X192388Y536409D01*
X192451Y536263D01*
X192517Y536118D01*
X192587Y535975D01*
X192660Y535833D01*
X192737Y535694D01*
X192817Y535556D01*
X192901Y535420D01*
X192988Y535287D01*
X193078Y535155D01*
X193171Y535026D01*
X193268Y534900D01*
X193367Y534775D01*
X193470Y534653D01*
X193575Y534534D01*
X193684Y534417D01*
X193795Y534303D01*
X193909Y534192D01*
X194026Y534083D01*
X194145Y533978D01*
X194267Y533875D01*
X194392Y533776D01*
X194518Y533679D01*
X194647Y533586D01*
X194779Y533496D01*
X194912Y533409D01*
X195048Y533325D01*
X195186Y533245D01*
X195325Y533168D01*
X195467Y533095D01*
X195610Y533025D01*
X195755Y532959D01*
X195901Y532896D01*
X196049Y532837D01*
X196198Y532781D01*
X196349Y532730D01*
X196501Y532682D01*
X196654Y532637D01*
X196808Y532597D01*
X196963Y532560D01*
X197119Y532527D01*
X197275Y532498D01*
X197433Y532472D01*
X197590Y532451D01*
X197749Y532433D01*
X197907Y532420D01*
X198067Y532410D01*
X198226Y532404D01*
X198385Y532402D01*
X204876Y532402D01*
X177700Y545384D02*
X177550Y545382D01*
X177399Y545376D01*
X177249Y545367D01*
X177099Y545353D01*
X176950Y545336D01*
X176801Y545314D01*
X176653Y545289D01*
X176505Y545260D01*
X176358Y545228D01*
X176212Y545191D01*
X176067Y545151D01*
X175923Y545107D01*
X175781Y545060D01*
X175639Y545008D01*
X175499Y544954D01*
X175361Y544895D01*
X175223Y544833D01*
X175088Y544768D01*
X174954Y544699D01*
X174823Y544626D01*
X174693Y544550D01*
X174565Y544471D01*
X174439Y544389D01*
X174315Y544303D01*
X174194Y544215D01*
X174074Y544123D01*
X173958Y544028D01*
X173843Y543930D01*
X173732Y543829D01*
X173623Y543726D01*
X173516Y543619D01*
X173413Y543510D01*
X173312Y543399D01*
X173214Y543284D01*
X173119Y543168D01*
X173027Y543048D01*
X172939Y542927D01*
X172853Y542803D01*
X172771Y542677D01*
X172692Y542549D01*
X172616Y542419D01*
X172543Y542288D01*
X172474Y542154D01*
X172409Y542019D01*
X172347Y541881D01*
X172288Y541743D01*
X172234Y541603D01*
X172182Y541461D01*
X172135Y541319D01*
X172091Y541175D01*
X172051Y541030D01*
X172014Y540884D01*
X171982Y540737D01*
X171953Y540589D01*
X171928Y540441D01*
X171906Y540292D01*
X171889Y540143D01*
X171875Y539993D01*
X171866Y539843D01*
X171860Y539692D01*
X171858Y539542D01*
X177700Y545384D02*
X177881Y545382D01*
X178063Y545375D01*
X178244Y545364D01*
X178425Y545349D01*
X178605Y545329D01*
X178785Y545305D01*
X178964Y545277D01*
X179143Y545244D01*
X179321Y545207D01*
X179497Y545166D01*
X179673Y545120D01*
X179848Y545070D01*
X180021Y545016D01*
X180193Y544958D01*
X180363Y544896D01*
X180532Y544829D01*
X180699Y544759D01*
X180865Y544684D01*
X181029Y544606D01*
X181190Y544523D01*
X181350Y544437D01*
X181507Y544347D01*
X181663Y544253D01*
X181816Y544155D01*
X181966Y544054D01*
X182114Y543949D01*
X182260Y543840D01*
X182403Y543728D01*
X182543Y543613D01*
X182680Y543494D01*
X182814Y543372D01*
X182945Y543246D01*
X183074Y543118D01*
X183199Y542987D01*
X183321Y542852D01*
X183439Y542715D01*
X183555Y542575D01*
X183666Y542432D01*
X183775Y542286D01*
X183880Y542138D01*
X183981Y541987D01*
X184078Y541834D01*
X184172Y541679D01*
X184262Y541521D01*
X184348Y541361D01*
X184431Y541199D01*
X184509Y541036D01*
X184583Y540870D01*
X184653Y540703D01*
X184720Y540534D01*
X184782Y540363D01*
X184840Y540191D01*
X173805Y534998D02*
X173695Y535106D01*
X173588Y535216D01*
X173483Y535329D01*
X173381Y535444D01*
X173282Y535562D01*
X173186Y535682D01*
X173092Y535805D01*
X173002Y535929D01*
X172915Y536056D01*
X172831Y536185D01*
X172750Y536317D01*
X172673Y536450D01*
X172599Y536585D01*
X172528Y536721D01*
X172460Y536860D01*
X172396Y537000D01*
X172335Y537141D01*
X172278Y537284D01*
X172225Y537428D01*
X172175Y537574D01*
X172128Y537721D01*
X172085Y537869D01*
X172046Y538018D01*
X172010Y538167D01*
X171979Y538318D01*
X171950Y538469D01*
X171926Y538621D01*
X171905Y538774D01*
X171888Y538927D01*
X171875Y539080D01*
X171866Y539234D01*
X171860Y539388D01*
X171858Y539542D01*
X173806Y534998D02*
X184840Y522016D01*
X171858Y522016D01*
X150979Y539542D02*
X150981Y539692D01*
X150987Y539843D01*
X150996Y539993D01*
X151010Y540143D01*
X151027Y540292D01*
X151049Y540441D01*
X151074Y540589D01*
X151103Y540737D01*
X151135Y540884D01*
X151172Y541030D01*
X151212Y541175D01*
X151256Y541319D01*
X151303Y541461D01*
X151355Y541603D01*
X151409Y541743D01*
X151468Y541881D01*
X151530Y542019D01*
X151595Y542154D01*
X151664Y542288D01*
X151737Y542419D01*
X151813Y542549D01*
X151892Y542677D01*
X151974Y542803D01*
X152060Y542927D01*
X152148Y543048D01*
X152240Y543168D01*
X152335Y543284D01*
X152433Y543399D01*
X152534Y543510D01*
X152637Y543619D01*
X152744Y543726D01*
X152853Y543829D01*
X152964Y543930D01*
X153079Y544028D01*
X153195Y544123D01*
X153315Y544215D01*
X153436Y544303D01*
X153560Y544389D01*
X153686Y544471D01*
X153814Y544550D01*
X153944Y544626D01*
X154075Y544699D01*
X154209Y544768D01*
X154344Y544833D01*
X154482Y544895D01*
X154620Y544954D01*
X154760Y545008D01*
X154902Y545060D01*
X155044Y545107D01*
X155188Y545151D01*
X155333Y545191D01*
X155479Y545228D01*
X155626Y545260D01*
X155774Y545289D01*
X155922Y545314D01*
X156071Y545336D01*
X156220Y545353D01*
X156370Y545367D01*
X156520Y545376D01*
X156671Y545382D01*
X156821Y545384D01*
X157002Y545382D01*
X157184Y545375D01*
X157365Y545364D01*
X157546Y545349D01*
X157726Y545329D01*
X157906Y545305D01*
X158085Y545277D01*
X158264Y545244D01*
X158442Y545207D01*
X158618Y545166D01*
X158794Y545120D01*
X158969Y545070D01*
X159142Y545016D01*
X159314Y544958D01*
X159484Y544896D01*
X159653Y544829D01*
X159820Y544759D01*
X159986Y544684D01*
X160150Y544606D01*
X160311Y544523D01*
X160471Y544437D01*
X160628Y544347D01*
X160784Y544253D01*
X160937Y544155D01*
X161087Y544054D01*
X161235Y543949D01*
X161381Y543840D01*
X161524Y543728D01*
X161664Y543613D01*
X161801Y543494D01*
X161935Y543372D01*
X162066Y543246D01*
X162195Y543118D01*
X162320Y542987D01*
X162442Y542852D01*
X162560Y542715D01*
X162676Y542575D01*
X162787Y542432D01*
X162896Y542286D01*
X163001Y542138D01*
X163102Y541987D01*
X163199Y541834D01*
X163293Y541679D01*
X163383Y541521D01*
X163469Y541361D01*
X163552Y541199D01*
X163630Y541036D01*
X163704Y540870D01*
X163774Y540703D01*
X163841Y540534D01*
X163903Y540363D01*
X163961Y540191D01*
X152926Y534998D02*
X152816Y535106D01*
X152709Y535216D01*
X152604Y535329D01*
X152502Y535444D01*
X152403Y535562D01*
X152307Y535682D01*
X152213Y535805D01*
X152123Y535929D01*
X152036Y536056D01*
X151952Y536185D01*
X151871Y536317D01*
X151794Y536450D01*
X151720Y536585D01*
X151649Y536721D01*
X151581Y536860D01*
X151517Y537000D01*
X151456Y537141D01*
X151399Y537284D01*
X151346Y537428D01*
X151296Y537574D01*
X151249Y537721D01*
X151206Y537869D01*
X151167Y538018D01*
X151131Y538167D01*
X151100Y538318D01*
X151071Y538469D01*
X151047Y538621D01*
X151026Y538774D01*
X151009Y538927D01*
X150996Y539080D01*
X150987Y539234D01*
X150981Y539388D01*
X150979Y539542D01*
X152927Y534998D02*
X163962Y522016D01*
X150979Y522016D01*
X130101Y539542D02*
X130103Y539692D01*
X130109Y539843D01*
X130118Y539993D01*
X130132Y540143D01*
X130149Y540292D01*
X130171Y540441D01*
X130196Y540589D01*
X130225Y540737D01*
X130257Y540884D01*
X130294Y541030D01*
X130334Y541175D01*
X130378Y541319D01*
X130425Y541461D01*
X130477Y541603D01*
X130531Y541743D01*
X130590Y541881D01*
X130652Y542019D01*
X130717Y542154D01*
X130786Y542288D01*
X130859Y542419D01*
X130935Y542549D01*
X131014Y542677D01*
X131096Y542803D01*
X131182Y542927D01*
X131270Y543048D01*
X131362Y543168D01*
X131457Y543284D01*
X131555Y543399D01*
X131656Y543510D01*
X131759Y543619D01*
X131866Y543726D01*
X131975Y543829D01*
X132086Y543930D01*
X132201Y544028D01*
X132317Y544123D01*
X132437Y544215D01*
X132558Y544303D01*
X132682Y544389D01*
X132808Y544471D01*
X132936Y544550D01*
X133066Y544626D01*
X133197Y544699D01*
X133331Y544768D01*
X133466Y544833D01*
X133604Y544895D01*
X133742Y544954D01*
X133882Y545008D01*
X134024Y545060D01*
X134166Y545107D01*
X134310Y545151D01*
X134455Y545191D01*
X134601Y545228D01*
X134748Y545260D01*
X134896Y545289D01*
X135044Y545314D01*
X135193Y545336D01*
X135342Y545353D01*
X135492Y545367D01*
X135642Y545376D01*
X135793Y545382D01*
X135943Y545384D01*
X136124Y545382D01*
X136306Y545375D01*
X136487Y545364D01*
X136668Y545349D01*
X136848Y545329D01*
X137028Y545305D01*
X137207Y545277D01*
X137386Y545244D01*
X137564Y545207D01*
X137740Y545166D01*
X137916Y545120D01*
X138091Y545070D01*
X138264Y545016D01*
X138436Y544958D01*
X138606Y544896D01*
X138775Y544829D01*
X138942Y544759D01*
X139108Y544684D01*
X139272Y544606D01*
X139433Y544523D01*
X139593Y544437D01*
X139750Y544347D01*
X139906Y544253D01*
X140059Y544155D01*
X140209Y544054D01*
X140357Y543949D01*
X140503Y543840D01*
X140646Y543728D01*
X140786Y543613D01*
X140923Y543494D01*
X141057Y543372D01*
X141188Y543246D01*
X141317Y543118D01*
X141442Y542987D01*
X141564Y542852D01*
X141682Y542715D01*
X141798Y542575D01*
X141909Y542432D01*
X142018Y542286D01*
X142123Y542138D01*
X142224Y541987D01*
X142321Y541834D01*
X142415Y541679D01*
X142505Y541521D01*
X142591Y541361D01*
X142674Y541199D01*
X142752Y541036D01*
X142826Y540870D01*
X142896Y540703D01*
X142963Y540534D01*
X143025Y540363D01*
X143083Y540191D01*
X132047Y534998D02*
X131937Y535106D01*
X131830Y535216D01*
X131725Y535329D01*
X131623Y535444D01*
X131524Y535562D01*
X131428Y535682D01*
X131334Y535805D01*
X131244Y535929D01*
X131157Y536056D01*
X131073Y536185D01*
X130992Y536317D01*
X130915Y536450D01*
X130841Y536585D01*
X130770Y536721D01*
X130702Y536860D01*
X130638Y537000D01*
X130577Y537141D01*
X130520Y537284D01*
X130467Y537428D01*
X130417Y537574D01*
X130370Y537721D01*
X130327Y537869D01*
X130288Y538018D01*
X130252Y538167D01*
X130221Y538318D01*
X130192Y538469D01*
X130168Y538621D01*
X130147Y538774D01*
X130130Y538927D01*
X130117Y539080D01*
X130108Y539234D01*
X130102Y539388D01*
X130100Y539542D01*
X132048Y534998D02*
X143083Y522016D01*
X130101Y522016D01*
X122204Y522016D02*
X114415Y522016D01*
X114272Y522018D01*
X114129Y522024D01*
X113986Y522034D01*
X113844Y522048D01*
X113702Y522065D01*
X113560Y522087D01*
X113419Y522112D01*
X113279Y522142D01*
X113140Y522175D01*
X113002Y522212D01*
X112865Y522253D01*
X112729Y522297D01*
X112594Y522346D01*
X112461Y522398D01*
X112329Y522453D01*
X112199Y522513D01*
X112070Y522576D01*
X111943Y522642D01*
X111819Y522712D01*
X111696Y522785D01*
X111575Y522862D01*
X111456Y522941D01*
X111340Y523025D01*
X111225Y523111D01*
X111114Y523200D01*
X111005Y523293D01*
X110898Y523388D01*
X110794Y523487D01*
X110693Y523588D01*
X110594Y523692D01*
X110499Y523798D01*
X110406Y523908D01*
X110317Y524019D01*
X110231Y524133D01*
X110148Y524250D01*
X110068Y524369D01*
X109991Y524490D01*
X109918Y524612D01*
X109848Y524737D01*
X109782Y524864D01*
X109719Y524993D01*
X109659Y525123D01*
X109604Y525255D01*
X109552Y525388D01*
X109503Y525523D01*
X109459Y525659D01*
X109418Y525796D01*
X109381Y525934D01*
X109348Y526073D01*
X109318Y526213D01*
X109293Y526354D01*
X109271Y526496D01*
X109254Y526638D01*
X109240Y526780D01*
X109230Y526923D01*
X109224Y527066D01*
X109222Y527209D01*
X109222Y529805D01*
X109224Y529948D01*
X109230Y530091D01*
X109240Y530234D01*
X109254Y530376D01*
X109271Y530518D01*
X109293Y530660D01*
X109318Y530801D01*
X109348Y530941D01*
X109381Y531080D01*
X109418Y531218D01*
X109459Y531355D01*
X109503Y531491D01*
X109552Y531626D01*
X109604Y531759D01*
X109659Y531891D01*
X109719Y532021D01*
X109782Y532150D01*
X109848Y532277D01*
X109918Y532402D01*
X109991Y532524D01*
X110068Y532645D01*
X110148Y532764D01*
X110231Y532880D01*
X110317Y532995D01*
X110406Y533106D01*
X110499Y533216D01*
X110594Y533322D01*
X110693Y533426D01*
X110794Y533527D01*
X110898Y533626D01*
X111004Y533721D01*
X111114Y533814D01*
X111225Y533903D01*
X111340Y533989D01*
X111456Y534073D01*
X111575Y534152D01*
X111696Y534229D01*
X111819Y534302D01*
X111943Y534372D01*
X112070Y534438D01*
X112199Y534501D01*
X112329Y534561D01*
X112461Y534616D01*
X112594Y534668D01*
X112729Y534717D01*
X112865Y534761D01*
X113002Y534802D01*
X113140Y534839D01*
X113279Y534872D01*
X113419Y534902D01*
X113560Y534927D01*
X113702Y534949D01*
X113844Y534966D01*
X113986Y534980D01*
X114129Y534990D01*
X114272Y534996D01*
X114415Y534998D01*
X122204Y534998D01*
X122204Y545384D01*
X109222Y545384D01*
X465984Y608016D02*
X465984Y631384D01*
X458195Y618402D01*
X450405Y631384D01*
X450405Y608016D01*
X440876Y608016D02*
X440876Y631384D01*
X434385Y631384D01*
X434226Y631382D01*
X434067Y631376D01*
X433907Y631366D01*
X433749Y631353D01*
X433590Y631335D01*
X433433Y631314D01*
X433275Y631288D01*
X433119Y631259D01*
X432963Y631226D01*
X432808Y631189D01*
X432654Y631149D01*
X432501Y631104D01*
X432349Y631056D01*
X432198Y631005D01*
X432049Y630949D01*
X431901Y630890D01*
X431755Y630827D01*
X431610Y630761D01*
X431467Y630691D01*
X431325Y630618D01*
X431186Y630541D01*
X431048Y630461D01*
X430912Y630377D01*
X430779Y630290D01*
X430647Y630200D01*
X430518Y630107D01*
X430392Y630010D01*
X430267Y629911D01*
X430145Y629808D01*
X430026Y629703D01*
X429909Y629594D01*
X429795Y629483D01*
X429684Y629369D01*
X429575Y629252D01*
X429470Y629133D01*
X429367Y629011D01*
X429268Y628886D01*
X429171Y628760D01*
X429078Y628631D01*
X428988Y628499D01*
X428901Y628366D01*
X428817Y628230D01*
X428737Y628092D01*
X428660Y627953D01*
X428587Y627811D01*
X428517Y627668D01*
X428451Y627523D01*
X428388Y627377D01*
X428329Y627229D01*
X428273Y627080D01*
X428222Y626929D01*
X428174Y626777D01*
X428129Y626624D01*
X428089Y626470D01*
X428052Y626315D01*
X428019Y626159D01*
X427990Y626003D01*
X427964Y625845D01*
X427943Y625688D01*
X427925Y625529D01*
X427912Y625371D01*
X427902Y625211D01*
X427896Y625052D01*
X427894Y624893D01*
X427896Y624734D01*
X427902Y624575D01*
X427912Y624415D01*
X427925Y624257D01*
X427943Y624098D01*
X427964Y623941D01*
X427990Y623783D01*
X428019Y623627D01*
X428052Y623471D01*
X428089Y623316D01*
X428129Y623162D01*
X428174Y623009D01*
X428222Y622857D01*
X428273Y622706D01*
X428329Y622557D01*
X428388Y622409D01*
X428451Y622263D01*
X428517Y622118D01*
X428587Y621975D01*
X428660Y621833D01*
X428737Y621694D01*
X428817Y621556D01*
X428901Y621420D01*
X428988Y621287D01*
X429078Y621155D01*
X429171Y621026D01*
X429268Y620900D01*
X429367Y620775D01*
X429470Y620653D01*
X429575Y620534D01*
X429684Y620417D01*
X429795Y620303D01*
X429909Y620192D01*
X430026Y620083D01*
X430145Y619978D01*
X430267Y619875D01*
X430392Y619776D01*
X430518Y619679D01*
X430647Y619586D01*
X430779Y619496D01*
X430912Y619409D01*
X431048Y619325D01*
X431186Y619245D01*
X431325Y619168D01*
X431467Y619095D01*
X431610Y619025D01*
X431755Y618959D01*
X431901Y618896D01*
X432049Y618837D01*
X432198Y618781D01*
X432349Y618730D01*
X432501Y618682D01*
X432654Y618637D01*
X432808Y618597D01*
X432963Y618560D01*
X433119Y618527D01*
X433275Y618498D01*
X433433Y618472D01*
X433590Y618451D01*
X433749Y618433D01*
X433907Y618420D01*
X434067Y618410D01*
X434226Y618404D01*
X434385Y618402D01*
X440876Y618402D01*
X420840Y626191D02*
X414349Y631384D01*
X414349Y608016D01*
X420840Y608016D02*
X407858Y608016D01*
X399962Y608016D02*
X392172Y608016D01*
X392029Y608018D01*
X391886Y608024D01*
X391743Y608034D01*
X391601Y608048D01*
X391459Y608065D01*
X391317Y608087D01*
X391176Y608112D01*
X391036Y608142D01*
X390897Y608175D01*
X390759Y608212D01*
X390622Y608253D01*
X390486Y608297D01*
X390351Y608346D01*
X390218Y608398D01*
X390086Y608453D01*
X389956Y608513D01*
X389827Y608576D01*
X389700Y608642D01*
X389576Y608712D01*
X389453Y608785D01*
X389332Y608862D01*
X389213Y608941D01*
X389097Y609025D01*
X388982Y609111D01*
X388871Y609200D01*
X388762Y609293D01*
X388655Y609388D01*
X388551Y609487D01*
X388450Y609588D01*
X388351Y609692D01*
X388256Y609798D01*
X388163Y609908D01*
X388074Y610019D01*
X387988Y610133D01*
X387905Y610250D01*
X387825Y610369D01*
X387748Y610490D01*
X387675Y610612D01*
X387605Y610737D01*
X387539Y610864D01*
X387476Y610993D01*
X387416Y611123D01*
X387361Y611255D01*
X387309Y611388D01*
X387260Y611523D01*
X387216Y611659D01*
X387175Y611796D01*
X387138Y611934D01*
X387105Y612073D01*
X387075Y612213D01*
X387050Y612354D01*
X387028Y612496D01*
X387011Y612638D01*
X386997Y612780D01*
X386987Y612923D01*
X386981Y613066D01*
X386979Y613209D01*
X386979Y615805D01*
X386981Y615948D01*
X386987Y616091D01*
X386997Y616234D01*
X387011Y616376D01*
X387028Y616518D01*
X387050Y616660D01*
X387075Y616801D01*
X387105Y616941D01*
X387138Y617080D01*
X387175Y617218D01*
X387216Y617355D01*
X387260Y617491D01*
X387309Y617626D01*
X387361Y617759D01*
X387416Y617891D01*
X387476Y618021D01*
X387539Y618150D01*
X387605Y618277D01*
X387675Y618402D01*
X387748Y618524D01*
X387825Y618645D01*
X387905Y618764D01*
X387988Y618880D01*
X388074Y618995D01*
X388163Y619106D01*
X388256Y619216D01*
X388351Y619322D01*
X388450Y619426D01*
X388551Y619527D01*
X388655Y619626D01*
X388761Y619721D01*
X388871Y619814D01*
X388982Y619903D01*
X389097Y619989D01*
X389213Y620073D01*
X389332Y620152D01*
X389453Y620229D01*
X389576Y620302D01*
X389700Y620372D01*
X389827Y620438D01*
X389956Y620501D01*
X390086Y620561D01*
X390218Y620616D01*
X390351Y620668D01*
X390486Y620717D01*
X390622Y620761D01*
X390759Y620802D01*
X390897Y620839D01*
X391036Y620872D01*
X391176Y620902D01*
X391317Y620927D01*
X391459Y620949D01*
X391601Y620966D01*
X391743Y620980D01*
X391886Y620990D01*
X392029Y620996D01*
X392172Y620998D01*
X399962Y620998D01*
X399962Y631384D01*
X386979Y631384D01*
X379083Y614507D02*
X379081Y614666D01*
X379075Y614825D01*
X379065Y614985D01*
X379052Y615143D01*
X379034Y615302D01*
X379013Y615459D01*
X378987Y615617D01*
X378958Y615773D01*
X378925Y615929D01*
X378888Y616084D01*
X378848Y616238D01*
X378803Y616391D01*
X378755Y616543D01*
X378704Y616694D01*
X378648Y616843D01*
X378589Y616991D01*
X378526Y617137D01*
X378460Y617282D01*
X378390Y617425D01*
X378317Y617567D01*
X378240Y617706D01*
X378160Y617844D01*
X378076Y617980D01*
X377989Y618113D01*
X377899Y618245D01*
X377806Y618374D01*
X377709Y618500D01*
X377610Y618625D01*
X377507Y618747D01*
X377402Y618866D01*
X377293Y618983D01*
X377182Y619097D01*
X377068Y619208D01*
X376951Y619317D01*
X376832Y619422D01*
X376710Y619525D01*
X376585Y619624D01*
X376459Y619721D01*
X376330Y619814D01*
X376198Y619904D01*
X376065Y619991D01*
X375929Y620075D01*
X375791Y620155D01*
X375652Y620232D01*
X375510Y620305D01*
X375367Y620375D01*
X375222Y620441D01*
X375076Y620504D01*
X374928Y620563D01*
X374779Y620619D01*
X374628Y620670D01*
X374476Y620718D01*
X374323Y620763D01*
X374169Y620803D01*
X374014Y620840D01*
X373858Y620873D01*
X373702Y620902D01*
X373544Y620928D01*
X373387Y620949D01*
X373228Y620967D01*
X373070Y620980D01*
X372910Y620990D01*
X372751Y620996D01*
X372592Y620998D01*
X372433Y620996D01*
X372274Y620990D01*
X372114Y620980D01*
X371956Y620967D01*
X371797Y620949D01*
X371640Y620928D01*
X371482Y620902D01*
X371326Y620873D01*
X371170Y620840D01*
X371015Y620803D01*
X370861Y620763D01*
X370708Y620718D01*
X370556Y620670D01*
X370405Y620619D01*
X370256Y620563D01*
X370108Y620504D01*
X369962Y620441D01*
X369817Y620375D01*
X369674Y620305D01*
X369532Y620232D01*
X369393Y620155D01*
X369255Y620075D01*
X369119Y619991D01*
X368986Y619904D01*
X368854Y619814D01*
X368725Y619721D01*
X368599Y619624D01*
X368474Y619525D01*
X368352Y619422D01*
X368233Y619317D01*
X368116Y619208D01*
X368002Y619097D01*
X367891Y618983D01*
X367782Y618866D01*
X367677Y618747D01*
X367574Y618625D01*
X367475Y618500D01*
X367378Y618374D01*
X367285Y618245D01*
X367195Y618113D01*
X367108Y617980D01*
X367024Y617844D01*
X366944Y617706D01*
X366867Y617567D01*
X366794Y617425D01*
X366724Y617282D01*
X366658Y617137D01*
X366595Y616991D01*
X366536Y616843D01*
X366480Y616694D01*
X366429Y616543D01*
X366381Y616391D01*
X366336Y616238D01*
X366296Y616084D01*
X366259Y615929D01*
X366226Y615773D01*
X366197Y615617D01*
X366171Y615459D01*
X366150Y615302D01*
X366132Y615143D01*
X366119Y614985D01*
X366109Y614825D01*
X366103Y614666D01*
X366101Y614507D01*
X366103Y614348D01*
X366109Y614189D01*
X366119Y614029D01*
X366132Y613871D01*
X366150Y613712D01*
X366171Y613555D01*
X366197Y613397D01*
X366226Y613241D01*
X366259Y613085D01*
X366296Y612930D01*
X366336Y612776D01*
X366381Y612623D01*
X366429Y612471D01*
X366480Y612320D01*
X366536Y612171D01*
X366595Y612023D01*
X366658Y611877D01*
X366724Y611732D01*
X366794Y611589D01*
X366867Y611447D01*
X366944Y611308D01*
X367024Y611170D01*
X367108Y611034D01*
X367195Y610901D01*
X367285Y610769D01*
X367378Y610640D01*
X367475Y610514D01*
X367574Y610389D01*
X367677Y610267D01*
X367782Y610148D01*
X367891Y610031D01*
X368002Y609917D01*
X368116Y609806D01*
X368233Y609697D01*
X368352Y609592D01*
X368474Y609489D01*
X368599Y609390D01*
X368725Y609293D01*
X368854Y609200D01*
X368986Y609110D01*
X369119Y609023D01*
X369255Y608939D01*
X369393Y608859D01*
X369532Y608782D01*
X369674Y608709D01*
X369817Y608639D01*
X369962Y608573D01*
X370108Y608510D01*
X370256Y608451D01*
X370405Y608395D01*
X370556Y608344D01*
X370708Y608296D01*
X370861Y608251D01*
X371015Y608211D01*
X371170Y608174D01*
X371326Y608141D01*
X371482Y608112D01*
X371640Y608086D01*
X371797Y608065D01*
X371956Y608047D01*
X372114Y608034D01*
X372274Y608024D01*
X372433Y608018D01*
X372592Y608016D01*
X372751Y608018D01*
X372910Y608024D01*
X373070Y608034D01*
X373228Y608047D01*
X373387Y608065D01*
X373544Y608086D01*
X373702Y608112D01*
X373858Y608141D01*
X374014Y608174D01*
X374169Y608211D01*
X374323Y608251D01*
X374476Y608296D01*
X374628Y608344D01*
X374779Y608395D01*
X374928Y608451D01*
X375076Y608510D01*
X375222Y608573D01*
X375367Y608639D01*
X375510Y608709D01*
X375652Y608782D01*
X375791Y608859D01*
X375929Y608939D01*
X376065Y609023D01*
X376198Y609110D01*
X376330Y609200D01*
X376459Y609293D01*
X376585Y609390D01*
X376710Y609489D01*
X376832Y609592D01*
X376951Y609697D01*
X377068Y609806D01*
X377182Y609917D01*
X377293Y610031D01*
X377402Y610148D01*
X377507Y610267D01*
X377610Y610389D01*
X377709Y610514D01*
X377806Y610640D01*
X377899Y610769D01*
X377989Y610901D01*
X378076Y611034D01*
X378160Y611170D01*
X378240Y611308D01*
X378317Y611447D01*
X378390Y611589D01*
X378460Y611732D01*
X378526Y611877D01*
X378589Y612023D01*
X378648Y612171D01*
X378704Y612320D01*
X378755Y612471D01*
X378803Y612623D01*
X378848Y612776D01*
X378888Y612930D01*
X378925Y613085D01*
X378958Y613241D01*
X378987Y613397D01*
X379013Y613555D01*
X379034Y613712D01*
X379052Y613871D01*
X379065Y614029D01*
X379075Y614189D01*
X379081Y614348D01*
X379083Y614507D01*
X377785Y626191D02*
X377783Y626334D01*
X377777Y626477D01*
X377767Y626620D01*
X377753Y626762D01*
X377736Y626904D01*
X377714Y627046D01*
X377689Y627187D01*
X377659Y627327D01*
X377626Y627466D01*
X377589Y627604D01*
X377548Y627741D01*
X377504Y627877D01*
X377455Y628012D01*
X377403Y628145D01*
X377348Y628277D01*
X377288Y628407D01*
X377225Y628536D01*
X377159Y628663D01*
X377089Y628788D01*
X377016Y628910D01*
X376939Y629031D01*
X376859Y629150D01*
X376776Y629266D01*
X376690Y629381D01*
X376601Y629492D01*
X376508Y629602D01*
X376413Y629708D01*
X376314Y629812D01*
X376213Y629913D01*
X376109Y630012D01*
X376003Y630107D01*
X375893Y630200D01*
X375782Y630289D01*
X375667Y630375D01*
X375551Y630458D01*
X375432Y630538D01*
X375311Y630615D01*
X375189Y630688D01*
X375064Y630758D01*
X374937Y630824D01*
X374808Y630887D01*
X374678Y630947D01*
X374546Y631002D01*
X374413Y631054D01*
X374278Y631103D01*
X374142Y631147D01*
X374005Y631188D01*
X373867Y631225D01*
X373728Y631258D01*
X373588Y631288D01*
X373447Y631313D01*
X373305Y631335D01*
X373163Y631352D01*
X373021Y631366D01*
X372878Y631376D01*
X372735Y631382D01*
X372592Y631384D01*
X372449Y631382D01*
X372306Y631376D01*
X372163Y631366D01*
X372021Y631352D01*
X371879Y631335D01*
X371737Y631313D01*
X371596Y631288D01*
X371456Y631258D01*
X371317Y631225D01*
X371179Y631188D01*
X371042Y631147D01*
X370906Y631103D01*
X370771Y631054D01*
X370638Y631002D01*
X370506Y630947D01*
X370376Y630887D01*
X370247Y630824D01*
X370120Y630758D01*
X369996Y630688D01*
X369873Y630615D01*
X369752Y630538D01*
X369633Y630458D01*
X369517Y630375D01*
X369402Y630289D01*
X369291Y630200D01*
X369181Y630107D01*
X369075Y630012D01*
X368971Y629913D01*
X368870Y629812D01*
X368771Y629708D01*
X368676Y629602D01*
X368583Y629492D01*
X368494Y629381D01*
X368408Y629266D01*
X368325Y629150D01*
X368245Y629031D01*
X368168Y628910D01*
X368095Y628788D01*
X368025Y628663D01*
X367959Y628536D01*
X367896Y628407D01*
X367836Y628277D01*
X367781Y628145D01*
X367729Y628012D01*
X367680Y627877D01*
X367636Y627741D01*
X367595Y627604D01*
X367558Y627466D01*
X367525Y627327D01*
X367495Y627187D01*
X367470Y627046D01*
X367448Y626904D01*
X367431Y626762D01*
X367417Y626620D01*
X367407Y626477D01*
X367401Y626334D01*
X367399Y626191D01*
X367401Y626048D01*
X367407Y625905D01*
X367417Y625762D01*
X367431Y625620D01*
X367448Y625478D01*
X367470Y625336D01*
X367495Y625195D01*
X367525Y625055D01*
X367558Y624916D01*
X367595Y624778D01*
X367636Y624641D01*
X367680Y624505D01*
X367729Y624370D01*
X367781Y624237D01*
X367836Y624105D01*
X367896Y623975D01*
X367959Y623846D01*
X368025Y623719D01*
X368095Y623595D01*
X368168Y623472D01*
X368245Y623351D01*
X368325Y623232D01*
X368408Y623116D01*
X368494Y623001D01*
X368583Y622890D01*
X368676Y622780D01*
X368771Y622674D01*
X368870Y622570D01*
X368971Y622469D01*
X369075Y622370D01*
X369181Y622275D01*
X369291Y622182D01*
X369402Y622093D01*
X369517Y622007D01*
X369633Y621924D01*
X369752Y621844D01*
X369873Y621767D01*
X369995Y621694D01*
X370120Y621624D01*
X370247Y621558D01*
X370376Y621495D01*
X370506Y621435D01*
X370638Y621380D01*
X370771Y621328D01*
X370906Y621279D01*
X371042Y621235D01*
X371179Y621194D01*
X371317Y621157D01*
X371456Y621124D01*
X371596Y621094D01*
X371737Y621069D01*
X371879Y621047D01*
X372021Y621030D01*
X372163Y621016D01*
X372306Y621006D01*
X372449Y621000D01*
X372592Y620998D01*
X372735Y621000D01*
X372878Y621006D01*
X373021Y621016D01*
X373163Y621030D01*
X373305Y621047D01*
X373447Y621069D01*
X373588Y621094D01*
X373728Y621124D01*
X373867Y621157D01*
X374005Y621194D01*
X374142Y621235D01*
X374278Y621279D01*
X374413Y621328D01*
X374546Y621380D01*
X374678Y621435D01*
X374808Y621495D01*
X374937Y621558D01*
X375064Y621624D01*
X375188Y621694D01*
X375311Y621767D01*
X375432Y621844D01*
X375551Y621924D01*
X375667Y622007D01*
X375782Y622093D01*
X375893Y622182D01*
X376003Y622275D01*
X376109Y622370D01*
X376213Y622469D01*
X376314Y622570D01*
X376413Y622674D01*
X376508Y622780D01*
X376601Y622890D01*
X376690Y623001D01*
X376776Y623116D01*
X376859Y623232D01*
X376939Y623351D01*
X377016Y623472D01*
X377089Y623594D01*
X377159Y623719D01*
X377225Y623846D01*
X377288Y623975D01*
X377348Y624105D01*
X377403Y624237D01*
X377455Y624370D01*
X377504Y624505D01*
X377548Y624641D01*
X377589Y624778D01*
X377626Y624916D01*
X377659Y625055D01*
X377689Y625195D01*
X377714Y625336D01*
X377736Y625478D01*
X377753Y625620D01*
X377767Y625762D01*
X377777Y625905D01*
X377783Y626048D01*
X377785Y626191D01*
X358204Y613209D02*
X353011Y631384D01*
X358204Y613209D02*
X345222Y613209D01*
X349117Y618402D02*
X349117Y608016D01*
D11*
X98892Y155099D02*
X95646Y155099D01*
X95646Y155100D02*
X95533Y155098D01*
X95420Y155092D01*
X95307Y155082D01*
X95194Y155068D01*
X95082Y155051D01*
X94971Y155029D01*
X94861Y155004D01*
X94751Y154974D01*
X94643Y154941D01*
X94536Y154904D01*
X94430Y154864D01*
X94326Y154819D01*
X94223Y154771D01*
X94122Y154720D01*
X94023Y154665D01*
X93926Y154607D01*
X93831Y154545D01*
X93738Y154480D01*
X93648Y154412D01*
X93560Y154341D01*
X93474Y154266D01*
X93391Y154189D01*
X93311Y154109D01*
X93234Y154026D01*
X93159Y153940D01*
X93088Y153852D01*
X93020Y153762D01*
X92955Y153669D01*
X92893Y153574D01*
X92835Y153477D01*
X92780Y153378D01*
X92729Y153277D01*
X92681Y153174D01*
X92636Y153070D01*
X92596Y152964D01*
X92559Y152857D01*
X92526Y152749D01*
X92496Y152639D01*
X92471Y152529D01*
X92449Y152418D01*
X92432Y152306D01*
X92418Y152193D01*
X92408Y152080D01*
X92402Y151967D01*
X92400Y151854D01*
X92402Y151741D01*
X92408Y151628D01*
X92418Y151515D01*
X92432Y151402D01*
X92449Y151290D01*
X92471Y151179D01*
X92496Y151069D01*
X92526Y150959D01*
X92559Y150851D01*
X92596Y150744D01*
X92636Y150638D01*
X92681Y150534D01*
X92729Y150431D01*
X92780Y150330D01*
X92835Y150231D01*
X92893Y150134D01*
X92955Y150039D01*
X93020Y149946D01*
X93088Y149856D01*
X93159Y149768D01*
X93234Y149682D01*
X93311Y149599D01*
X93391Y149519D01*
X93474Y149442D01*
X93560Y149367D01*
X93648Y149296D01*
X93738Y149228D01*
X93831Y149163D01*
X93926Y149101D01*
X94023Y149043D01*
X94122Y148988D01*
X94223Y148937D01*
X94326Y148889D01*
X94430Y148844D01*
X94536Y148804D01*
X94643Y148767D01*
X94751Y148734D01*
X94861Y148704D01*
X94971Y148679D01*
X95082Y148657D01*
X95194Y148640D01*
X95307Y148626D01*
X95420Y148616D01*
X95533Y148610D01*
X95646Y148608D01*
X98892Y148608D01*
X98892Y160292D01*
X95646Y160292D01*
X95545Y160290D01*
X95445Y160284D01*
X95345Y160274D01*
X95245Y160261D01*
X95146Y160243D01*
X95047Y160222D01*
X94950Y160197D01*
X94853Y160168D01*
X94758Y160135D01*
X94664Y160099D01*
X94572Y160059D01*
X94481Y160016D01*
X94392Y159969D01*
X94305Y159919D01*
X94219Y159865D01*
X94136Y159808D01*
X94056Y159748D01*
X93977Y159685D01*
X93901Y159618D01*
X93828Y159549D01*
X93758Y159477D01*
X93690Y159403D01*
X93625Y159326D01*
X93564Y159246D01*
X93505Y159164D01*
X93450Y159080D01*
X93398Y158994D01*
X93349Y158906D01*
X93304Y158816D01*
X93262Y158724D01*
X93224Y158631D01*
X93190Y158536D01*
X93159Y158441D01*
X93132Y158344D01*
X93109Y158246D01*
X93089Y158147D01*
X93074Y158047D01*
X93062Y157947D01*
X93054Y157847D01*
X93050Y157746D01*
X93050Y157646D01*
X93054Y157545D01*
X93062Y157445D01*
X93074Y157345D01*
X93089Y157245D01*
X93109Y157146D01*
X93132Y157048D01*
X93159Y156951D01*
X93190Y156856D01*
X93224Y156761D01*
X93262Y156668D01*
X93304Y156576D01*
X93349Y156486D01*
X93398Y156398D01*
X93450Y156312D01*
X93505Y156228D01*
X93564Y156146D01*
X93625Y156066D01*
X93690Y155989D01*
X93758Y155915D01*
X93828Y155843D01*
X93901Y155774D01*
X93977Y155707D01*
X94056Y155644D01*
X94136Y155584D01*
X94219Y155527D01*
X94305Y155473D01*
X94392Y155423D01*
X94481Y155376D01*
X94572Y155333D01*
X94664Y155293D01*
X94758Y155257D01*
X94853Y155224D01*
X94950Y155195D01*
X95047Y155170D01*
X95146Y155149D01*
X95245Y155131D01*
X95345Y155118D01*
X95445Y155108D01*
X95545Y155102D01*
X95646Y155100D01*
X87899Y153152D02*
X80110Y153152D01*
X84005Y157046D02*
X84005Y149257D01*
X75058Y157696D02*
X71813Y160292D01*
X71813Y148608D01*
X75058Y148608D02*
X68567Y148608D01*
X190646Y155099D02*
X193892Y155099D01*
X190646Y155100D02*
X190533Y155098D01*
X190420Y155092D01*
X190307Y155082D01*
X190194Y155068D01*
X190082Y155051D01*
X189971Y155029D01*
X189861Y155004D01*
X189751Y154974D01*
X189643Y154941D01*
X189536Y154904D01*
X189430Y154864D01*
X189326Y154819D01*
X189223Y154771D01*
X189122Y154720D01*
X189023Y154665D01*
X188926Y154607D01*
X188831Y154545D01*
X188738Y154480D01*
X188648Y154412D01*
X188560Y154341D01*
X188474Y154266D01*
X188391Y154189D01*
X188311Y154109D01*
X188234Y154026D01*
X188159Y153940D01*
X188088Y153852D01*
X188020Y153762D01*
X187955Y153669D01*
X187893Y153574D01*
X187835Y153477D01*
X187780Y153378D01*
X187729Y153277D01*
X187681Y153174D01*
X187636Y153070D01*
X187596Y152964D01*
X187559Y152857D01*
X187526Y152749D01*
X187496Y152639D01*
X187471Y152529D01*
X187449Y152418D01*
X187432Y152306D01*
X187418Y152193D01*
X187408Y152080D01*
X187402Y151967D01*
X187400Y151854D01*
X187402Y151741D01*
X187408Y151628D01*
X187418Y151515D01*
X187432Y151402D01*
X187449Y151290D01*
X187471Y151179D01*
X187496Y151069D01*
X187526Y150959D01*
X187559Y150851D01*
X187596Y150744D01*
X187636Y150638D01*
X187681Y150534D01*
X187729Y150431D01*
X187780Y150330D01*
X187835Y150231D01*
X187893Y150134D01*
X187955Y150039D01*
X188020Y149946D01*
X188088Y149856D01*
X188159Y149768D01*
X188234Y149682D01*
X188311Y149599D01*
X188391Y149519D01*
X188474Y149442D01*
X188560Y149367D01*
X188648Y149296D01*
X188738Y149228D01*
X188831Y149163D01*
X188926Y149101D01*
X189023Y149043D01*
X189122Y148988D01*
X189223Y148937D01*
X189326Y148889D01*
X189430Y148844D01*
X189536Y148804D01*
X189643Y148767D01*
X189751Y148734D01*
X189861Y148704D01*
X189971Y148679D01*
X190082Y148657D01*
X190194Y148640D01*
X190307Y148626D01*
X190420Y148616D01*
X190533Y148610D01*
X190646Y148608D01*
X193892Y148608D01*
X193892Y160292D01*
X190646Y160292D01*
X190545Y160290D01*
X190445Y160284D01*
X190345Y160274D01*
X190245Y160261D01*
X190146Y160243D01*
X190047Y160222D01*
X189950Y160197D01*
X189853Y160168D01*
X189758Y160135D01*
X189664Y160099D01*
X189572Y160059D01*
X189481Y160016D01*
X189392Y159969D01*
X189305Y159919D01*
X189219Y159865D01*
X189136Y159808D01*
X189056Y159748D01*
X188977Y159685D01*
X188901Y159618D01*
X188828Y159549D01*
X188758Y159477D01*
X188690Y159403D01*
X188625Y159326D01*
X188564Y159246D01*
X188505Y159164D01*
X188450Y159080D01*
X188398Y158994D01*
X188349Y158906D01*
X188304Y158816D01*
X188262Y158724D01*
X188224Y158631D01*
X188190Y158536D01*
X188159Y158441D01*
X188132Y158344D01*
X188109Y158246D01*
X188089Y158147D01*
X188074Y158047D01*
X188062Y157947D01*
X188054Y157847D01*
X188050Y157746D01*
X188050Y157646D01*
X188054Y157545D01*
X188062Y157445D01*
X188074Y157345D01*
X188089Y157245D01*
X188109Y157146D01*
X188132Y157048D01*
X188159Y156951D01*
X188190Y156856D01*
X188224Y156761D01*
X188262Y156668D01*
X188304Y156576D01*
X188349Y156486D01*
X188398Y156398D01*
X188450Y156312D01*
X188505Y156228D01*
X188564Y156146D01*
X188625Y156066D01*
X188690Y155989D01*
X188758Y155915D01*
X188828Y155843D01*
X188901Y155774D01*
X188977Y155707D01*
X189056Y155644D01*
X189136Y155584D01*
X189219Y155527D01*
X189305Y155473D01*
X189392Y155423D01*
X189481Y155376D01*
X189572Y155333D01*
X189664Y155293D01*
X189758Y155257D01*
X189853Y155224D01*
X189950Y155195D01*
X190047Y155170D01*
X190146Y155149D01*
X190245Y155131D01*
X190345Y155118D01*
X190445Y155108D01*
X190545Y155102D01*
X190646Y155100D01*
X180449Y148608D02*
X177853Y148608D01*
X180449Y148608D02*
X180548Y148610D01*
X180648Y148616D01*
X180747Y148625D01*
X180845Y148638D01*
X180943Y148655D01*
X181041Y148676D01*
X181137Y148701D01*
X181232Y148729D01*
X181326Y148761D01*
X181419Y148796D01*
X181511Y148835D01*
X181601Y148878D01*
X181689Y148923D01*
X181776Y148973D01*
X181860Y149025D01*
X181943Y149081D01*
X182023Y149139D01*
X182101Y149201D01*
X182176Y149266D01*
X182249Y149334D01*
X182319Y149404D01*
X182387Y149477D01*
X182452Y149552D01*
X182514Y149630D01*
X182572Y149710D01*
X182628Y149793D01*
X182680Y149877D01*
X182730Y149964D01*
X182775Y150052D01*
X182818Y150142D01*
X182857Y150234D01*
X182892Y150327D01*
X182924Y150421D01*
X182952Y150516D01*
X182977Y150612D01*
X182998Y150710D01*
X183015Y150808D01*
X183028Y150906D01*
X183037Y151005D01*
X183043Y151105D01*
X183045Y151204D01*
X183046Y151204D02*
X183046Y157696D01*
X183045Y157696D02*
X183043Y157795D01*
X183037Y157895D01*
X183028Y157994D01*
X183015Y158092D01*
X182998Y158190D01*
X182977Y158288D01*
X182952Y158384D01*
X182924Y158479D01*
X182892Y158573D01*
X182857Y158666D01*
X182818Y158758D01*
X182775Y158848D01*
X182730Y158936D01*
X182680Y159023D01*
X182628Y159107D01*
X182572Y159190D01*
X182514Y159270D01*
X182452Y159348D01*
X182387Y159423D01*
X182319Y159496D01*
X182249Y159566D01*
X182176Y159634D01*
X182101Y159699D01*
X182023Y159761D01*
X181943Y159819D01*
X181860Y159875D01*
X181776Y159927D01*
X181689Y159977D01*
X181601Y160022D01*
X181511Y160065D01*
X181419Y160104D01*
X181326Y160139D01*
X181232Y160171D01*
X181137Y160199D01*
X181041Y160224D01*
X180943Y160245D01*
X180845Y160262D01*
X180747Y160275D01*
X180648Y160284D01*
X180548Y160290D01*
X180449Y160292D01*
X177853Y160292D01*
X173487Y157696D02*
X170242Y160292D01*
X170242Y148608D01*
X173487Y148608D02*
X166996Y148608D01*
X297646Y155099D02*
X300892Y155099D01*
X297646Y155100D02*
X297533Y155098D01*
X297420Y155092D01*
X297307Y155082D01*
X297194Y155068D01*
X297082Y155051D01*
X296971Y155029D01*
X296861Y155004D01*
X296751Y154974D01*
X296643Y154941D01*
X296536Y154904D01*
X296430Y154864D01*
X296326Y154819D01*
X296223Y154771D01*
X296122Y154720D01*
X296023Y154665D01*
X295926Y154607D01*
X295831Y154545D01*
X295738Y154480D01*
X295648Y154412D01*
X295560Y154341D01*
X295474Y154266D01*
X295391Y154189D01*
X295311Y154109D01*
X295234Y154026D01*
X295159Y153940D01*
X295088Y153852D01*
X295020Y153762D01*
X294955Y153669D01*
X294893Y153574D01*
X294835Y153477D01*
X294780Y153378D01*
X294729Y153277D01*
X294681Y153174D01*
X294636Y153070D01*
X294596Y152964D01*
X294559Y152857D01*
X294526Y152749D01*
X294496Y152639D01*
X294471Y152529D01*
X294449Y152418D01*
X294432Y152306D01*
X294418Y152193D01*
X294408Y152080D01*
X294402Y151967D01*
X294400Y151854D01*
X294402Y151741D01*
X294408Y151628D01*
X294418Y151515D01*
X294432Y151402D01*
X294449Y151290D01*
X294471Y151179D01*
X294496Y151069D01*
X294526Y150959D01*
X294559Y150851D01*
X294596Y150744D01*
X294636Y150638D01*
X294681Y150534D01*
X294729Y150431D01*
X294780Y150330D01*
X294835Y150231D01*
X294893Y150134D01*
X294955Y150039D01*
X295020Y149946D01*
X295088Y149856D01*
X295159Y149768D01*
X295234Y149682D01*
X295311Y149599D01*
X295391Y149519D01*
X295474Y149442D01*
X295560Y149367D01*
X295648Y149296D01*
X295738Y149228D01*
X295831Y149163D01*
X295926Y149101D01*
X296023Y149043D01*
X296122Y148988D01*
X296223Y148937D01*
X296326Y148889D01*
X296430Y148844D01*
X296536Y148804D01*
X296643Y148767D01*
X296751Y148734D01*
X296861Y148704D01*
X296971Y148679D01*
X297082Y148657D01*
X297194Y148640D01*
X297307Y148626D01*
X297420Y148616D01*
X297533Y148610D01*
X297646Y148608D01*
X300892Y148608D01*
X300892Y160292D01*
X297646Y160292D01*
X297545Y160290D01*
X297445Y160284D01*
X297345Y160274D01*
X297245Y160261D01*
X297146Y160243D01*
X297047Y160222D01*
X296950Y160197D01*
X296853Y160168D01*
X296758Y160135D01*
X296664Y160099D01*
X296572Y160059D01*
X296481Y160016D01*
X296392Y159969D01*
X296305Y159919D01*
X296219Y159865D01*
X296136Y159808D01*
X296056Y159748D01*
X295977Y159685D01*
X295901Y159618D01*
X295828Y159549D01*
X295758Y159477D01*
X295690Y159403D01*
X295625Y159326D01*
X295564Y159246D01*
X295505Y159164D01*
X295450Y159080D01*
X295398Y158994D01*
X295349Y158906D01*
X295304Y158816D01*
X295262Y158724D01*
X295224Y158631D01*
X295190Y158536D01*
X295159Y158441D01*
X295132Y158344D01*
X295109Y158246D01*
X295089Y158147D01*
X295074Y158047D01*
X295062Y157947D01*
X295054Y157847D01*
X295050Y157746D01*
X295050Y157646D01*
X295054Y157545D01*
X295062Y157445D01*
X295074Y157345D01*
X295089Y157245D01*
X295109Y157146D01*
X295132Y157048D01*
X295159Y156951D01*
X295190Y156856D01*
X295224Y156761D01*
X295262Y156668D01*
X295304Y156576D01*
X295349Y156486D01*
X295398Y156398D01*
X295450Y156312D01*
X295505Y156228D01*
X295564Y156146D01*
X295625Y156066D01*
X295690Y155989D01*
X295758Y155915D01*
X295828Y155843D01*
X295901Y155774D01*
X295977Y155707D01*
X296056Y155644D01*
X296136Y155584D01*
X296219Y155527D01*
X296305Y155473D01*
X296392Y155423D01*
X296481Y155376D01*
X296572Y155333D01*
X296664Y155293D01*
X296758Y155257D01*
X296853Y155224D01*
X296950Y155195D01*
X297047Y155170D01*
X297146Y155149D01*
X297245Y155131D01*
X297345Y155118D01*
X297445Y155108D01*
X297545Y155102D01*
X297646Y155100D01*
X289899Y153152D02*
X282110Y153152D01*
X277058Y157696D02*
X273813Y160292D01*
X273813Y148608D01*
X277058Y148608D02*
X270567Y148608D01*
X497646Y150099D02*
X500892Y150099D01*
X497646Y150100D02*
X497533Y150098D01*
X497420Y150092D01*
X497307Y150082D01*
X497194Y150068D01*
X497082Y150051D01*
X496971Y150029D01*
X496861Y150004D01*
X496751Y149974D01*
X496643Y149941D01*
X496536Y149904D01*
X496430Y149864D01*
X496326Y149819D01*
X496223Y149771D01*
X496122Y149720D01*
X496023Y149665D01*
X495926Y149607D01*
X495831Y149545D01*
X495738Y149480D01*
X495648Y149412D01*
X495560Y149341D01*
X495474Y149266D01*
X495391Y149189D01*
X495311Y149109D01*
X495234Y149026D01*
X495159Y148940D01*
X495088Y148852D01*
X495020Y148762D01*
X494955Y148669D01*
X494893Y148574D01*
X494835Y148477D01*
X494780Y148378D01*
X494729Y148277D01*
X494681Y148174D01*
X494636Y148070D01*
X494596Y147964D01*
X494559Y147857D01*
X494526Y147749D01*
X494496Y147639D01*
X494471Y147529D01*
X494449Y147418D01*
X494432Y147306D01*
X494418Y147193D01*
X494408Y147080D01*
X494402Y146967D01*
X494400Y146854D01*
X494402Y146741D01*
X494408Y146628D01*
X494418Y146515D01*
X494432Y146402D01*
X494449Y146290D01*
X494471Y146179D01*
X494496Y146069D01*
X494526Y145959D01*
X494559Y145851D01*
X494596Y145744D01*
X494636Y145638D01*
X494681Y145534D01*
X494729Y145431D01*
X494780Y145330D01*
X494835Y145231D01*
X494893Y145134D01*
X494955Y145039D01*
X495020Y144946D01*
X495088Y144856D01*
X495159Y144768D01*
X495234Y144682D01*
X495311Y144599D01*
X495391Y144519D01*
X495474Y144442D01*
X495560Y144367D01*
X495648Y144296D01*
X495738Y144228D01*
X495831Y144163D01*
X495926Y144101D01*
X496023Y144043D01*
X496122Y143988D01*
X496223Y143937D01*
X496326Y143889D01*
X496430Y143844D01*
X496536Y143804D01*
X496643Y143767D01*
X496751Y143734D01*
X496861Y143704D01*
X496971Y143679D01*
X497082Y143657D01*
X497194Y143640D01*
X497307Y143626D01*
X497420Y143616D01*
X497533Y143610D01*
X497646Y143608D01*
X500892Y143608D01*
X500892Y155292D01*
X497646Y155292D01*
X497545Y155290D01*
X497445Y155284D01*
X497345Y155274D01*
X497245Y155261D01*
X497146Y155243D01*
X497047Y155222D01*
X496950Y155197D01*
X496853Y155168D01*
X496758Y155135D01*
X496664Y155099D01*
X496572Y155059D01*
X496481Y155016D01*
X496392Y154969D01*
X496305Y154919D01*
X496219Y154865D01*
X496136Y154808D01*
X496056Y154748D01*
X495977Y154685D01*
X495901Y154618D01*
X495828Y154549D01*
X495758Y154477D01*
X495690Y154403D01*
X495625Y154326D01*
X495564Y154246D01*
X495505Y154164D01*
X495450Y154080D01*
X495398Y153994D01*
X495349Y153906D01*
X495304Y153816D01*
X495262Y153724D01*
X495224Y153631D01*
X495190Y153536D01*
X495159Y153441D01*
X495132Y153344D01*
X495109Y153246D01*
X495089Y153147D01*
X495074Y153047D01*
X495062Y152947D01*
X495054Y152847D01*
X495050Y152746D01*
X495050Y152646D01*
X495054Y152545D01*
X495062Y152445D01*
X495074Y152345D01*
X495089Y152245D01*
X495109Y152146D01*
X495132Y152048D01*
X495159Y151951D01*
X495190Y151856D01*
X495224Y151761D01*
X495262Y151668D01*
X495304Y151576D01*
X495349Y151486D01*
X495398Y151398D01*
X495450Y151312D01*
X495505Y151228D01*
X495564Y151146D01*
X495625Y151066D01*
X495690Y150989D01*
X495758Y150915D01*
X495828Y150843D01*
X495901Y150774D01*
X495977Y150707D01*
X496056Y150644D01*
X496136Y150584D01*
X496219Y150527D01*
X496305Y150473D01*
X496392Y150423D01*
X496481Y150376D01*
X496572Y150333D01*
X496664Y150293D01*
X496758Y150257D01*
X496853Y150224D01*
X496950Y150195D01*
X497047Y150170D01*
X497146Y150149D01*
X497245Y150131D01*
X497345Y150118D01*
X497445Y150108D01*
X497545Y150102D01*
X497646Y150100D01*
X489899Y148152D02*
X482110Y148152D01*
X486005Y152046D02*
X486005Y144257D01*
X473488Y155292D02*
X473381Y155290D01*
X473275Y155284D01*
X473169Y155274D01*
X473063Y155261D01*
X472957Y155243D01*
X472853Y155222D01*
X472749Y155197D01*
X472646Y155168D01*
X472545Y155136D01*
X472445Y155099D01*
X472346Y155059D01*
X472248Y155016D01*
X472152Y154969D01*
X472058Y154918D01*
X471966Y154864D01*
X471876Y154807D01*
X471788Y154747D01*
X471703Y154683D01*
X471620Y154616D01*
X471539Y154546D01*
X471461Y154474D01*
X471385Y154398D01*
X471313Y154320D01*
X471243Y154239D01*
X471176Y154156D01*
X471112Y154071D01*
X471052Y153983D01*
X470995Y153893D01*
X470941Y153801D01*
X470890Y153707D01*
X470843Y153611D01*
X470800Y153513D01*
X470760Y153414D01*
X470723Y153314D01*
X470691Y153213D01*
X470662Y153110D01*
X470637Y153006D01*
X470616Y152902D01*
X470598Y152796D01*
X470585Y152690D01*
X470575Y152584D01*
X470569Y152478D01*
X470567Y152371D01*
X473488Y155292D02*
X473609Y155290D01*
X473730Y155284D01*
X473850Y155274D01*
X473971Y155261D01*
X474090Y155243D01*
X474210Y155222D01*
X474328Y155197D01*
X474445Y155168D01*
X474562Y155135D01*
X474677Y155099D01*
X474791Y155058D01*
X474904Y155015D01*
X475016Y154967D01*
X475125Y154916D01*
X475233Y154861D01*
X475340Y154803D01*
X475444Y154742D01*
X475546Y154677D01*
X475646Y154609D01*
X475744Y154538D01*
X475840Y154464D01*
X475933Y154387D01*
X476023Y154306D01*
X476111Y154223D01*
X476196Y154137D01*
X476279Y154048D01*
X476358Y153957D01*
X476435Y153863D01*
X476508Y153767D01*
X476578Y153669D01*
X476645Y153568D01*
X476709Y153465D01*
X476770Y153360D01*
X476827Y153253D01*
X476880Y153145D01*
X476930Y153035D01*
X476976Y152923D01*
X477019Y152810D01*
X477058Y152695D01*
X471542Y150099D02*
X471463Y150177D01*
X471387Y150257D01*
X471314Y150340D01*
X471244Y150426D01*
X471177Y150513D01*
X471113Y150604D01*
X471053Y150696D01*
X470995Y150790D01*
X470941Y150887D01*
X470891Y150985D01*
X470844Y151085D01*
X470800Y151186D01*
X470760Y151289D01*
X470724Y151394D01*
X470692Y151499D01*
X470663Y151606D01*
X470638Y151713D01*
X470616Y151822D01*
X470599Y151931D01*
X470585Y152040D01*
X470576Y152150D01*
X470570Y152261D01*
X470568Y152371D01*
X471541Y150099D02*
X477058Y143608D01*
X470567Y143608D01*
X622146Y153099D02*
X625392Y153099D01*
X622146Y153100D02*
X622033Y153098D01*
X621920Y153092D01*
X621807Y153082D01*
X621694Y153068D01*
X621582Y153051D01*
X621471Y153029D01*
X621361Y153004D01*
X621251Y152974D01*
X621143Y152941D01*
X621036Y152904D01*
X620930Y152864D01*
X620826Y152819D01*
X620723Y152771D01*
X620622Y152720D01*
X620523Y152665D01*
X620426Y152607D01*
X620331Y152545D01*
X620238Y152480D01*
X620148Y152412D01*
X620060Y152341D01*
X619974Y152266D01*
X619891Y152189D01*
X619811Y152109D01*
X619734Y152026D01*
X619659Y151940D01*
X619588Y151852D01*
X619520Y151762D01*
X619455Y151669D01*
X619393Y151574D01*
X619335Y151477D01*
X619280Y151378D01*
X619229Y151277D01*
X619181Y151174D01*
X619136Y151070D01*
X619096Y150964D01*
X619059Y150857D01*
X619026Y150749D01*
X618996Y150639D01*
X618971Y150529D01*
X618949Y150418D01*
X618932Y150306D01*
X618918Y150193D01*
X618908Y150080D01*
X618902Y149967D01*
X618900Y149854D01*
X618902Y149741D01*
X618908Y149628D01*
X618918Y149515D01*
X618932Y149402D01*
X618949Y149290D01*
X618971Y149179D01*
X618996Y149069D01*
X619026Y148959D01*
X619059Y148851D01*
X619096Y148744D01*
X619136Y148638D01*
X619181Y148534D01*
X619229Y148431D01*
X619280Y148330D01*
X619335Y148231D01*
X619393Y148134D01*
X619455Y148039D01*
X619520Y147946D01*
X619588Y147856D01*
X619659Y147768D01*
X619734Y147682D01*
X619811Y147599D01*
X619891Y147519D01*
X619974Y147442D01*
X620060Y147367D01*
X620148Y147296D01*
X620238Y147228D01*
X620331Y147163D01*
X620426Y147101D01*
X620523Y147043D01*
X620622Y146988D01*
X620723Y146937D01*
X620826Y146889D01*
X620930Y146844D01*
X621036Y146804D01*
X621143Y146767D01*
X621251Y146734D01*
X621361Y146704D01*
X621471Y146679D01*
X621582Y146657D01*
X621694Y146640D01*
X621807Y146626D01*
X621920Y146616D01*
X622033Y146610D01*
X622146Y146608D01*
X625392Y146608D01*
X625392Y158292D01*
X622146Y158292D01*
X622045Y158290D01*
X621945Y158284D01*
X621845Y158274D01*
X621745Y158261D01*
X621646Y158243D01*
X621547Y158222D01*
X621450Y158197D01*
X621353Y158168D01*
X621258Y158135D01*
X621164Y158099D01*
X621072Y158059D01*
X620981Y158016D01*
X620892Y157969D01*
X620805Y157919D01*
X620719Y157865D01*
X620636Y157808D01*
X620556Y157748D01*
X620477Y157685D01*
X620401Y157618D01*
X620328Y157549D01*
X620258Y157477D01*
X620190Y157403D01*
X620125Y157326D01*
X620064Y157246D01*
X620005Y157164D01*
X619950Y157080D01*
X619898Y156994D01*
X619849Y156906D01*
X619804Y156816D01*
X619762Y156724D01*
X619724Y156631D01*
X619690Y156536D01*
X619659Y156441D01*
X619632Y156344D01*
X619609Y156246D01*
X619589Y156147D01*
X619574Y156047D01*
X619562Y155947D01*
X619554Y155847D01*
X619550Y155746D01*
X619550Y155646D01*
X619554Y155545D01*
X619562Y155445D01*
X619574Y155345D01*
X619589Y155245D01*
X619609Y155146D01*
X619632Y155048D01*
X619659Y154951D01*
X619690Y154856D01*
X619724Y154761D01*
X619762Y154668D01*
X619804Y154576D01*
X619849Y154486D01*
X619898Y154398D01*
X619950Y154312D01*
X620005Y154228D01*
X620064Y154146D01*
X620125Y154066D01*
X620190Y153989D01*
X620258Y153915D01*
X620328Y153843D01*
X620401Y153774D01*
X620477Y153707D01*
X620556Y153644D01*
X620636Y153584D01*
X620719Y153527D01*
X620805Y153473D01*
X620892Y153423D01*
X620981Y153376D01*
X621072Y153333D01*
X621164Y153293D01*
X621258Y153257D01*
X621353Y153224D01*
X621450Y153195D01*
X621547Y153170D01*
X621646Y153149D01*
X621745Y153131D01*
X621845Y153118D01*
X621945Y153108D01*
X622045Y153102D01*
X622146Y153100D01*
X611949Y146608D02*
X609353Y146608D01*
X611949Y146608D02*
X612048Y146610D01*
X612148Y146616D01*
X612247Y146625D01*
X612345Y146638D01*
X612443Y146655D01*
X612541Y146676D01*
X612637Y146701D01*
X612732Y146729D01*
X612826Y146761D01*
X612919Y146796D01*
X613011Y146835D01*
X613101Y146878D01*
X613189Y146923D01*
X613276Y146973D01*
X613360Y147025D01*
X613443Y147081D01*
X613523Y147139D01*
X613601Y147201D01*
X613676Y147266D01*
X613749Y147334D01*
X613819Y147404D01*
X613887Y147477D01*
X613952Y147552D01*
X614014Y147630D01*
X614072Y147710D01*
X614128Y147793D01*
X614180Y147877D01*
X614230Y147964D01*
X614275Y148052D01*
X614318Y148142D01*
X614357Y148234D01*
X614392Y148327D01*
X614424Y148421D01*
X614452Y148516D01*
X614477Y148612D01*
X614498Y148710D01*
X614515Y148808D01*
X614528Y148906D01*
X614537Y149005D01*
X614543Y149105D01*
X614545Y149204D01*
X614546Y149204D02*
X614546Y155696D01*
X614545Y155696D02*
X614543Y155795D01*
X614537Y155895D01*
X614528Y155994D01*
X614515Y156092D01*
X614498Y156190D01*
X614477Y156288D01*
X614452Y156384D01*
X614424Y156479D01*
X614392Y156573D01*
X614357Y156666D01*
X614318Y156758D01*
X614275Y156848D01*
X614230Y156936D01*
X614180Y157023D01*
X614128Y157107D01*
X614072Y157190D01*
X614014Y157270D01*
X613952Y157348D01*
X613887Y157423D01*
X613819Y157496D01*
X613749Y157566D01*
X613676Y157634D01*
X613601Y157699D01*
X613523Y157761D01*
X613443Y157819D01*
X613360Y157875D01*
X613276Y157927D01*
X613189Y157977D01*
X613101Y158022D01*
X613011Y158065D01*
X612919Y158104D01*
X612826Y158139D01*
X612732Y158171D01*
X612637Y158199D01*
X612541Y158224D01*
X612443Y158245D01*
X612345Y158262D01*
X612247Y158275D01*
X612148Y158284D01*
X612048Y158290D01*
X611949Y158292D01*
X609353Y158292D01*
X601417Y158292D02*
X601310Y158290D01*
X601204Y158284D01*
X601098Y158274D01*
X600992Y158261D01*
X600886Y158243D01*
X600782Y158222D01*
X600678Y158197D01*
X600575Y158168D01*
X600474Y158136D01*
X600374Y158099D01*
X600275Y158059D01*
X600177Y158016D01*
X600081Y157969D01*
X599987Y157918D01*
X599895Y157864D01*
X599805Y157807D01*
X599717Y157747D01*
X599632Y157683D01*
X599549Y157616D01*
X599468Y157546D01*
X599390Y157474D01*
X599314Y157398D01*
X599242Y157320D01*
X599172Y157239D01*
X599105Y157156D01*
X599041Y157071D01*
X598981Y156983D01*
X598924Y156893D01*
X598870Y156801D01*
X598819Y156707D01*
X598772Y156611D01*
X598729Y156513D01*
X598689Y156414D01*
X598652Y156314D01*
X598620Y156213D01*
X598591Y156110D01*
X598566Y156006D01*
X598545Y155902D01*
X598527Y155796D01*
X598514Y155690D01*
X598504Y155584D01*
X598498Y155478D01*
X598496Y155371D01*
X601417Y158292D02*
X601538Y158290D01*
X601659Y158284D01*
X601779Y158274D01*
X601900Y158261D01*
X602019Y158243D01*
X602139Y158222D01*
X602257Y158197D01*
X602374Y158168D01*
X602491Y158135D01*
X602606Y158099D01*
X602720Y158058D01*
X602833Y158015D01*
X602945Y157967D01*
X603054Y157916D01*
X603162Y157861D01*
X603269Y157803D01*
X603373Y157742D01*
X603475Y157677D01*
X603575Y157609D01*
X603673Y157538D01*
X603769Y157464D01*
X603862Y157387D01*
X603952Y157306D01*
X604040Y157223D01*
X604125Y157137D01*
X604208Y157048D01*
X604287Y156957D01*
X604364Y156863D01*
X604437Y156767D01*
X604507Y156669D01*
X604574Y156568D01*
X604638Y156465D01*
X604699Y156360D01*
X604756Y156253D01*
X604809Y156145D01*
X604859Y156035D01*
X604905Y155923D01*
X604948Y155810D01*
X604987Y155695D01*
X599471Y153099D02*
X599392Y153177D01*
X599316Y153257D01*
X599243Y153340D01*
X599173Y153426D01*
X599106Y153513D01*
X599042Y153604D01*
X598982Y153696D01*
X598924Y153790D01*
X598870Y153887D01*
X598820Y153985D01*
X598773Y154085D01*
X598729Y154186D01*
X598689Y154289D01*
X598653Y154394D01*
X598621Y154499D01*
X598592Y154606D01*
X598567Y154713D01*
X598545Y154822D01*
X598528Y154931D01*
X598514Y155040D01*
X598505Y155150D01*
X598499Y155261D01*
X598497Y155371D01*
X599470Y153099D02*
X604987Y146608D01*
X598496Y146608D01*
X698646Y155099D02*
X701892Y155099D01*
X698646Y155100D02*
X698533Y155098D01*
X698420Y155092D01*
X698307Y155082D01*
X698194Y155068D01*
X698082Y155051D01*
X697971Y155029D01*
X697861Y155004D01*
X697751Y154974D01*
X697643Y154941D01*
X697536Y154904D01*
X697430Y154864D01*
X697326Y154819D01*
X697223Y154771D01*
X697122Y154720D01*
X697023Y154665D01*
X696926Y154607D01*
X696831Y154545D01*
X696738Y154480D01*
X696648Y154412D01*
X696560Y154341D01*
X696474Y154266D01*
X696391Y154189D01*
X696311Y154109D01*
X696234Y154026D01*
X696159Y153940D01*
X696088Y153852D01*
X696020Y153762D01*
X695955Y153669D01*
X695893Y153574D01*
X695835Y153477D01*
X695780Y153378D01*
X695729Y153277D01*
X695681Y153174D01*
X695636Y153070D01*
X695596Y152964D01*
X695559Y152857D01*
X695526Y152749D01*
X695496Y152639D01*
X695471Y152529D01*
X695449Y152418D01*
X695432Y152306D01*
X695418Y152193D01*
X695408Y152080D01*
X695402Y151967D01*
X695400Y151854D01*
X695402Y151741D01*
X695408Y151628D01*
X695418Y151515D01*
X695432Y151402D01*
X695449Y151290D01*
X695471Y151179D01*
X695496Y151069D01*
X695526Y150959D01*
X695559Y150851D01*
X695596Y150744D01*
X695636Y150638D01*
X695681Y150534D01*
X695729Y150431D01*
X695780Y150330D01*
X695835Y150231D01*
X695893Y150134D01*
X695955Y150039D01*
X696020Y149946D01*
X696088Y149856D01*
X696159Y149768D01*
X696234Y149682D01*
X696311Y149599D01*
X696391Y149519D01*
X696474Y149442D01*
X696560Y149367D01*
X696648Y149296D01*
X696738Y149228D01*
X696831Y149163D01*
X696926Y149101D01*
X697023Y149043D01*
X697122Y148988D01*
X697223Y148937D01*
X697326Y148889D01*
X697430Y148844D01*
X697536Y148804D01*
X697643Y148767D01*
X697751Y148734D01*
X697861Y148704D01*
X697971Y148679D01*
X698082Y148657D01*
X698194Y148640D01*
X698307Y148626D01*
X698420Y148616D01*
X698533Y148610D01*
X698646Y148608D01*
X701892Y148608D01*
X701892Y160292D01*
X698646Y160292D01*
X698545Y160290D01*
X698445Y160284D01*
X698345Y160274D01*
X698245Y160261D01*
X698146Y160243D01*
X698047Y160222D01*
X697950Y160197D01*
X697853Y160168D01*
X697758Y160135D01*
X697664Y160099D01*
X697572Y160059D01*
X697481Y160016D01*
X697392Y159969D01*
X697305Y159919D01*
X697219Y159865D01*
X697136Y159808D01*
X697056Y159748D01*
X696977Y159685D01*
X696901Y159618D01*
X696828Y159549D01*
X696758Y159477D01*
X696690Y159403D01*
X696625Y159326D01*
X696564Y159246D01*
X696505Y159164D01*
X696450Y159080D01*
X696398Y158994D01*
X696349Y158906D01*
X696304Y158816D01*
X696262Y158724D01*
X696224Y158631D01*
X696190Y158536D01*
X696159Y158441D01*
X696132Y158344D01*
X696109Y158246D01*
X696089Y158147D01*
X696074Y158047D01*
X696062Y157947D01*
X696054Y157847D01*
X696050Y157746D01*
X696050Y157646D01*
X696054Y157545D01*
X696062Y157445D01*
X696074Y157345D01*
X696089Y157245D01*
X696109Y157146D01*
X696132Y157048D01*
X696159Y156951D01*
X696190Y156856D01*
X696224Y156761D01*
X696262Y156668D01*
X696304Y156576D01*
X696349Y156486D01*
X696398Y156398D01*
X696450Y156312D01*
X696505Y156228D01*
X696564Y156146D01*
X696625Y156066D01*
X696690Y155989D01*
X696758Y155915D01*
X696828Y155843D01*
X696901Y155774D01*
X696977Y155707D01*
X697056Y155644D01*
X697136Y155584D01*
X697219Y155527D01*
X697305Y155473D01*
X697392Y155423D01*
X697481Y155376D01*
X697572Y155333D01*
X697664Y155293D01*
X697758Y155257D01*
X697853Y155224D01*
X697950Y155195D01*
X698047Y155170D01*
X698146Y155149D01*
X698245Y155131D01*
X698345Y155118D01*
X698445Y155108D01*
X698545Y155102D01*
X698646Y155100D01*
X690899Y153152D02*
X683110Y153152D01*
X674488Y160292D02*
X674381Y160290D01*
X674275Y160284D01*
X674169Y160274D01*
X674063Y160261D01*
X673957Y160243D01*
X673853Y160222D01*
X673749Y160197D01*
X673646Y160168D01*
X673545Y160136D01*
X673445Y160099D01*
X673346Y160059D01*
X673248Y160016D01*
X673152Y159969D01*
X673058Y159918D01*
X672966Y159864D01*
X672876Y159807D01*
X672788Y159747D01*
X672703Y159683D01*
X672620Y159616D01*
X672539Y159546D01*
X672461Y159474D01*
X672385Y159398D01*
X672313Y159320D01*
X672243Y159239D01*
X672176Y159156D01*
X672112Y159071D01*
X672052Y158983D01*
X671995Y158893D01*
X671941Y158801D01*
X671890Y158707D01*
X671843Y158611D01*
X671800Y158513D01*
X671760Y158414D01*
X671723Y158314D01*
X671691Y158213D01*
X671662Y158110D01*
X671637Y158006D01*
X671616Y157902D01*
X671598Y157796D01*
X671585Y157690D01*
X671575Y157584D01*
X671569Y157478D01*
X671567Y157371D01*
X674488Y160292D02*
X674609Y160290D01*
X674730Y160284D01*
X674850Y160274D01*
X674971Y160261D01*
X675090Y160243D01*
X675210Y160222D01*
X675328Y160197D01*
X675445Y160168D01*
X675562Y160135D01*
X675677Y160099D01*
X675791Y160058D01*
X675904Y160015D01*
X676016Y159967D01*
X676125Y159916D01*
X676233Y159861D01*
X676340Y159803D01*
X676444Y159742D01*
X676546Y159677D01*
X676646Y159609D01*
X676744Y159538D01*
X676840Y159464D01*
X676933Y159387D01*
X677023Y159306D01*
X677111Y159223D01*
X677196Y159137D01*
X677279Y159048D01*
X677358Y158957D01*
X677435Y158863D01*
X677508Y158767D01*
X677578Y158669D01*
X677645Y158568D01*
X677709Y158465D01*
X677770Y158360D01*
X677827Y158253D01*
X677880Y158145D01*
X677930Y158035D01*
X677976Y157923D01*
X678019Y157810D01*
X678058Y157695D01*
X672542Y155099D02*
X672463Y155177D01*
X672387Y155257D01*
X672314Y155340D01*
X672244Y155426D01*
X672177Y155513D01*
X672113Y155604D01*
X672053Y155696D01*
X671995Y155790D01*
X671941Y155887D01*
X671891Y155985D01*
X671844Y156085D01*
X671800Y156186D01*
X671760Y156289D01*
X671724Y156394D01*
X671692Y156499D01*
X671663Y156606D01*
X671638Y156713D01*
X671616Y156822D01*
X671599Y156931D01*
X671585Y157040D01*
X671576Y157150D01*
X671570Y157261D01*
X671568Y157371D01*
X672541Y155099D02*
X678058Y148608D01*
X671567Y148608D01*
M02*
