G04 EAGLE Gerber RS-274X export*
G75*
%MOMM*%
%FSLAX34Y34*%
%LPD*%
%INSilkscreen Top*%
%IPPOS*%
%AMOC8*
5,1,8,0,0,1.08239X$1,22.5*%
G01*
%ADD10C,0.127000*%
%ADD11C,0.254000*%
%ADD12C,0.101600*%


D10*
X221432Y185635D02*
X226008Y199365D01*
X230585Y185635D01*
X229441Y189068D02*
X222576Y189068D01*
X236350Y199365D02*
X242453Y199365D01*
X236350Y199365D02*
X236350Y185635D01*
X240164Y185635D01*
X240286Y185637D01*
X240408Y185643D01*
X240530Y185653D01*
X240652Y185666D01*
X240773Y185684D01*
X240893Y185705D01*
X241013Y185731D01*
X241131Y185760D01*
X241249Y185793D01*
X241366Y185829D01*
X241481Y185870D01*
X241595Y185914D01*
X241708Y185961D01*
X241819Y186013D01*
X241928Y186068D01*
X242036Y186126D01*
X242141Y186187D01*
X242245Y186253D01*
X242346Y186321D01*
X242445Y186392D01*
X242542Y186467D01*
X242636Y186545D01*
X242728Y186626D01*
X242817Y186709D01*
X242904Y186796D01*
X242987Y186885D01*
X243068Y186977D01*
X243146Y187071D01*
X243221Y187168D01*
X243292Y187267D01*
X243360Y187368D01*
X243426Y187472D01*
X243487Y187577D01*
X243545Y187685D01*
X243600Y187794D01*
X243652Y187905D01*
X243699Y188018D01*
X243743Y188132D01*
X243784Y188247D01*
X243820Y188364D01*
X243853Y188482D01*
X243882Y188600D01*
X243908Y188720D01*
X243929Y188840D01*
X243947Y188961D01*
X243960Y189083D01*
X243970Y189205D01*
X243976Y189327D01*
X243978Y189449D01*
X243976Y189571D01*
X243970Y189693D01*
X243960Y189815D01*
X243947Y189937D01*
X243929Y190058D01*
X243908Y190178D01*
X243882Y190298D01*
X243853Y190416D01*
X243820Y190534D01*
X243784Y190651D01*
X243743Y190766D01*
X243699Y190880D01*
X243652Y190993D01*
X243600Y191104D01*
X243545Y191213D01*
X243487Y191321D01*
X243426Y191426D01*
X243360Y191530D01*
X243292Y191631D01*
X243221Y191730D01*
X243146Y191827D01*
X243068Y191921D01*
X242987Y192013D01*
X242904Y192102D01*
X242817Y192189D01*
X242728Y192272D01*
X242636Y192353D01*
X242542Y192431D01*
X242445Y192506D01*
X242346Y192577D01*
X242245Y192645D01*
X242141Y192711D01*
X242036Y192772D01*
X241928Y192830D01*
X241819Y192885D01*
X241708Y192937D01*
X241595Y192984D01*
X241481Y193028D01*
X241366Y193069D01*
X241249Y193105D01*
X241131Y193138D01*
X241013Y193167D01*
X240893Y193193D01*
X240773Y193214D01*
X240652Y193232D01*
X240530Y193245D01*
X240408Y193255D01*
X240286Y193261D01*
X240164Y193263D01*
X236350Y193263D01*
X255601Y199365D02*
X255601Y202416D01*
X259415Y202416D02*
X259415Y199365D01*
X265150Y199365D02*
X265150Y185635D01*
X265150Y190974D02*
X272778Y199365D01*
X268201Y194026D02*
X272778Y185635D01*
X277857Y188686D02*
X277857Y191737D01*
X277859Y191846D01*
X277865Y191955D01*
X277874Y192063D01*
X277888Y192171D01*
X277905Y192279D01*
X277927Y192386D01*
X277952Y192492D01*
X277981Y192597D01*
X278013Y192701D01*
X278049Y192803D01*
X278089Y192905D01*
X278133Y193004D01*
X278180Y193103D01*
X278230Y193199D01*
X278284Y193294D01*
X278341Y193386D01*
X278402Y193477D01*
X278466Y193565D01*
X278532Y193651D01*
X278602Y193735D01*
X278675Y193816D01*
X278751Y193894D01*
X278829Y193970D01*
X278910Y194043D01*
X278994Y194113D01*
X279080Y194179D01*
X279168Y194243D01*
X279259Y194304D01*
X279351Y194361D01*
X279446Y194415D01*
X279542Y194465D01*
X279641Y194512D01*
X279740Y194556D01*
X279842Y194596D01*
X279944Y194632D01*
X280048Y194664D01*
X280153Y194693D01*
X280259Y194718D01*
X280366Y194740D01*
X280474Y194757D01*
X280582Y194771D01*
X280690Y194780D01*
X280799Y194786D01*
X280908Y194788D01*
X281017Y194786D01*
X281126Y194780D01*
X281234Y194771D01*
X281342Y194757D01*
X281450Y194740D01*
X281557Y194718D01*
X281663Y194693D01*
X281768Y194664D01*
X281872Y194632D01*
X281974Y194596D01*
X282076Y194556D01*
X282175Y194512D01*
X282274Y194465D01*
X282370Y194415D01*
X282465Y194361D01*
X282557Y194304D01*
X282648Y194243D01*
X282736Y194179D01*
X282822Y194113D01*
X282906Y194043D01*
X282987Y193970D01*
X283065Y193894D01*
X283141Y193816D01*
X283214Y193735D01*
X283284Y193651D01*
X283350Y193565D01*
X283414Y193477D01*
X283475Y193386D01*
X283532Y193294D01*
X283586Y193199D01*
X283636Y193103D01*
X283683Y193004D01*
X283727Y192905D01*
X283767Y192803D01*
X283803Y192701D01*
X283835Y192597D01*
X283864Y192492D01*
X283889Y192386D01*
X283911Y192279D01*
X283928Y192171D01*
X283942Y192063D01*
X283951Y191955D01*
X283957Y191846D01*
X283959Y191737D01*
X283959Y188686D01*
X283957Y188577D01*
X283951Y188468D01*
X283942Y188360D01*
X283928Y188252D01*
X283911Y188144D01*
X283889Y188037D01*
X283864Y187931D01*
X283835Y187826D01*
X283803Y187722D01*
X283767Y187620D01*
X283727Y187518D01*
X283683Y187419D01*
X283636Y187320D01*
X283586Y187224D01*
X283532Y187129D01*
X283475Y187037D01*
X283414Y186946D01*
X283350Y186858D01*
X283284Y186772D01*
X283214Y186688D01*
X283141Y186607D01*
X283065Y186529D01*
X282987Y186453D01*
X282906Y186380D01*
X282822Y186310D01*
X282736Y186244D01*
X282648Y186180D01*
X282557Y186119D01*
X282465Y186062D01*
X282370Y186008D01*
X282274Y185958D01*
X282175Y185911D01*
X282076Y185867D01*
X281974Y185827D01*
X281872Y185791D01*
X281768Y185759D01*
X281663Y185730D01*
X281557Y185705D01*
X281450Y185683D01*
X281342Y185666D01*
X281234Y185652D01*
X281126Y185643D01*
X281017Y185637D01*
X280908Y185635D01*
X280799Y185637D01*
X280690Y185643D01*
X280582Y185652D01*
X280474Y185666D01*
X280366Y185683D01*
X280259Y185705D01*
X280153Y185730D01*
X280048Y185759D01*
X279944Y185791D01*
X279842Y185827D01*
X279740Y185867D01*
X279641Y185911D01*
X279542Y185958D01*
X279446Y186008D01*
X279351Y186062D01*
X279259Y186119D01*
X279168Y186180D01*
X279080Y186244D01*
X278994Y186310D01*
X278910Y186380D01*
X278829Y186453D01*
X278751Y186529D01*
X278675Y186607D01*
X278602Y186688D01*
X278532Y186772D01*
X278466Y186858D01*
X278402Y186946D01*
X278341Y187037D01*
X278284Y187129D01*
X278230Y187224D01*
X278180Y187320D01*
X278133Y187419D01*
X278089Y187518D01*
X278049Y187620D01*
X278013Y187722D01*
X277981Y187826D01*
X277952Y187931D01*
X277927Y188037D01*
X277905Y188144D01*
X277888Y188252D01*
X277874Y188360D01*
X277865Y188468D01*
X277859Y188577D01*
X277857Y188686D01*
X290007Y185635D02*
X290007Y194788D01*
X290007Y190212D02*
X296109Y190212D01*
X296109Y194788D02*
X296109Y185635D01*
X303108Y185635D02*
X303108Y194788D01*
X303108Y185635D02*
X310735Y185635D01*
X310735Y182584D01*
X309210Y185635D02*
X309210Y194788D01*
X317495Y185635D02*
X321309Y185635D01*
X317495Y185635D02*
X317400Y185637D01*
X317306Y185643D01*
X317212Y185653D01*
X317118Y185666D01*
X317025Y185684D01*
X316933Y185705D01*
X316842Y185730D01*
X316752Y185759D01*
X316663Y185792D01*
X316576Y185828D01*
X316490Y185867D01*
X316406Y185911D01*
X316324Y185957D01*
X316244Y186008D01*
X316165Y186061D01*
X316090Y186117D01*
X316016Y186177D01*
X315945Y186240D01*
X315877Y186305D01*
X315812Y186373D01*
X315749Y186444D01*
X315689Y186518D01*
X315633Y186593D01*
X315580Y186672D01*
X315529Y186752D01*
X315483Y186834D01*
X315439Y186918D01*
X315400Y187004D01*
X315364Y187091D01*
X315331Y187180D01*
X315302Y187270D01*
X315277Y187361D01*
X315256Y187453D01*
X315238Y187546D01*
X315225Y187640D01*
X315215Y187734D01*
X315209Y187828D01*
X315207Y187923D01*
X315207Y191737D01*
X315209Y191846D01*
X315215Y191955D01*
X315224Y192063D01*
X315238Y192171D01*
X315255Y192279D01*
X315277Y192386D01*
X315302Y192492D01*
X315331Y192597D01*
X315363Y192701D01*
X315399Y192803D01*
X315439Y192905D01*
X315483Y193004D01*
X315530Y193103D01*
X315580Y193199D01*
X315634Y193294D01*
X315691Y193386D01*
X315752Y193477D01*
X315816Y193565D01*
X315882Y193651D01*
X315952Y193735D01*
X316025Y193816D01*
X316101Y193894D01*
X316179Y193970D01*
X316260Y194043D01*
X316344Y194113D01*
X316430Y194179D01*
X316518Y194243D01*
X316609Y194304D01*
X316701Y194361D01*
X316796Y194415D01*
X316892Y194465D01*
X316991Y194512D01*
X317090Y194556D01*
X317192Y194596D01*
X317294Y194632D01*
X317398Y194664D01*
X317503Y194693D01*
X317609Y194718D01*
X317716Y194740D01*
X317824Y194757D01*
X317932Y194771D01*
X318040Y194780D01*
X318149Y194786D01*
X318258Y194788D01*
X318367Y194786D01*
X318476Y194780D01*
X318584Y194771D01*
X318692Y194757D01*
X318800Y194740D01*
X318907Y194718D01*
X319013Y194693D01*
X319118Y194664D01*
X319222Y194632D01*
X319324Y194596D01*
X319426Y194556D01*
X319525Y194512D01*
X319624Y194465D01*
X319720Y194415D01*
X319815Y194361D01*
X319907Y194304D01*
X319998Y194243D01*
X320086Y194179D01*
X320172Y194113D01*
X320256Y194043D01*
X320337Y193970D01*
X320415Y193894D01*
X320491Y193816D01*
X320564Y193735D01*
X320634Y193651D01*
X320700Y193565D01*
X320764Y193477D01*
X320825Y193386D01*
X320882Y193294D01*
X320936Y193199D01*
X320986Y193103D01*
X321033Y193004D01*
X321077Y192905D01*
X321117Y192803D01*
X321153Y192701D01*
X321185Y192597D01*
X321214Y192492D01*
X321239Y192386D01*
X321261Y192279D01*
X321278Y192171D01*
X321292Y192063D01*
X321301Y191955D01*
X321307Y191846D01*
X321309Y191737D01*
X321309Y190212D01*
X315207Y190212D01*
X327429Y194788D02*
X327429Y181058D01*
X327429Y194788D02*
X331243Y194788D01*
X331338Y194786D01*
X331432Y194780D01*
X331526Y194770D01*
X331620Y194757D01*
X331713Y194739D01*
X331805Y194718D01*
X331896Y194693D01*
X331986Y194664D01*
X332075Y194631D01*
X332162Y194595D01*
X332248Y194556D01*
X332332Y194512D01*
X332414Y194466D01*
X332494Y194415D01*
X332572Y194362D01*
X332648Y194306D01*
X332722Y194246D01*
X332793Y194183D01*
X332861Y194118D01*
X332926Y194050D01*
X332989Y193979D01*
X333049Y193905D01*
X333105Y193830D01*
X333158Y193751D01*
X333209Y193671D01*
X333255Y193589D01*
X333299Y193505D01*
X333338Y193419D01*
X333374Y193332D01*
X333407Y193243D01*
X333436Y193153D01*
X333461Y193062D01*
X333482Y192970D01*
X333500Y192877D01*
X333513Y192783D01*
X333523Y192689D01*
X333529Y192595D01*
X333531Y192500D01*
X333531Y187923D01*
X333529Y187828D01*
X333523Y187734D01*
X333513Y187640D01*
X333500Y187546D01*
X333482Y187453D01*
X333461Y187361D01*
X333436Y187270D01*
X333407Y187180D01*
X333374Y187091D01*
X333338Y187004D01*
X333299Y186918D01*
X333255Y186834D01*
X333209Y186752D01*
X333158Y186672D01*
X333105Y186593D01*
X333049Y186518D01*
X332989Y186444D01*
X332926Y186373D01*
X332861Y186305D01*
X332793Y186240D01*
X332722Y186177D01*
X332648Y186117D01*
X332573Y186061D01*
X332494Y186008D01*
X332414Y185957D01*
X332332Y185911D01*
X332248Y185867D01*
X332162Y185828D01*
X332075Y185792D01*
X331986Y185759D01*
X331896Y185730D01*
X331805Y185705D01*
X331713Y185684D01*
X331620Y185666D01*
X331526Y185653D01*
X331432Y185643D01*
X331338Y185637D01*
X331243Y185635D01*
X327429Y185635D01*
X339507Y185635D02*
X339507Y194788D01*
X339507Y190212D02*
X345609Y190212D01*
X345609Y194788D02*
X345609Y185635D01*
X359444Y185635D02*
X359444Y199365D01*
X367072Y199365D02*
X359444Y185635D01*
X367072Y185635D02*
X367072Y199365D01*
X372494Y199365D02*
X380122Y199365D01*
X376308Y199365D02*
X376308Y185635D01*
X388105Y185635D02*
X391156Y185635D01*
X388105Y185635D02*
X387996Y185637D01*
X387887Y185643D01*
X387779Y185652D01*
X387671Y185666D01*
X387563Y185683D01*
X387456Y185705D01*
X387350Y185730D01*
X387245Y185759D01*
X387141Y185791D01*
X387039Y185827D01*
X386937Y185867D01*
X386838Y185911D01*
X386739Y185958D01*
X386643Y186008D01*
X386548Y186062D01*
X386456Y186119D01*
X386365Y186180D01*
X386277Y186244D01*
X386191Y186310D01*
X386107Y186380D01*
X386026Y186453D01*
X385948Y186529D01*
X385872Y186607D01*
X385799Y186688D01*
X385729Y186772D01*
X385663Y186858D01*
X385599Y186946D01*
X385538Y187037D01*
X385481Y187129D01*
X385427Y187224D01*
X385377Y187320D01*
X385330Y187419D01*
X385286Y187518D01*
X385246Y187620D01*
X385210Y187722D01*
X385178Y187826D01*
X385149Y187931D01*
X385124Y188037D01*
X385102Y188144D01*
X385085Y188252D01*
X385071Y188360D01*
X385062Y188468D01*
X385056Y188577D01*
X385054Y188686D01*
X385054Y196314D01*
X385056Y196423D01*
X385062Y196532D01*
X385071Y196640D01*
X385085Y196748D01*
X385102Y196856D01*
X385124Y196963D01*
X385149Y197069D01*
X385178Y197174D01*
X385210Y197277D01*
X385246Y197380D01*
X385286Y197482D01*
X385330Y197581D01*
X385377Y197680D01*
X385427Y197776D01*
X385481Y197871D01*
X385538Y197963D01*
X385599Y198054D01*
X385663Y198142D01*
X385729Y198228D01*
X385799Y198312D01*
X385872Y198393D01*
X385948Y198471D01*
X386026Y198547D01*
X386107Y198620D01*
X386191Y198690D01*
X386277Y198756D01*
X386365Y198820D01*
X386455Y198881D01*
X386548Y198938D01*
X386643Y198992D01*
X386739Y199042D01*
X386838Y199089D01*
X386937Y199133D01*
X387039Y199173D01*
X387141Y199209D01*
X387245Y199241D01*
X387350Y199270D01*
X387456Y199295D01*
X387563Y199317D01*
X387671Y199334D01*
X387779Y199348D01*
X387887Y199357D01*
X387996Y199363D01*
X388105Y199365D01*
X391156Y199365D01*
X395551Y199365D02*
X395551Y202416D01*
X399365Y202416D02*
X399365Y199365D01*
D11*
X418443Y9374D02*
X419374Y9374D01*
X419374Y6270D01*
X417512Y6270D01*
X417442Y6272D01*
X417373Y6278D01*
X417304Y6288D01*
X417236Y6301D01*
X417168Y6319D01*
X417102Y6340D01*
X417037Y6365D01*
X416973Y6393D01*
X416911Y6425D01*
X416851Y6460D01*
X416793Y6499D01*
X416738Y6541D01*
X416684Y6586D01*
X416634Y6634D01*
X416586Y6684D01*
X416541Y6738D01*
X416499Y6793D01*
X416460Y6851D01*
X416425Y6911D01*
X416393Y6973D01*
X416365Y7037D01*
X416340Y7102D01*
X416319Y7168D01*
X416301Y7236D01*
X416288Y7304D01*
X416278Y7373D01*
X416272Y7442D01*
X416270Y7512D01*
X416270Y10616D01*
X416272Y10686D01*
X416278Y10755D01*
X416288Y10824D01*
X416301Y10892D01*
X416319Y10960D01*
X416340Y11026D01*
X416365Y11091D01*
X416393Y11155D01*
X416425Y11217D01*
X416460Y11277D01*
X416499Y11335D01*
X416541Y11390D01*
X416586Y11444D01*
X416634Y11494D01*
X416684Y11542D01*
X416738Y11587D01*
X416793Y11629D01*
X416851Y11668D01*
X416911Y11703D01*
X416973Y11735D01*
X417037Y11763D01*
X417102Y11788D01*
X417168Y11809D01*
X417236Y11827D01*
X417304Y11840D01*
X417373Y11850D01*
X417442Y11856D01*
X417512Y11858D01*
X419374Y11858D01*
X424073Y11858D02*
X424073Y6270D01*
X427177Y6270D02*
X424073Y11858D01*
X427177Y11858D02*
X427177Y6270D01*
X431876Y6270D02*
X431876Y11858D01*
X433428Y11858D01*
X433504Y11856D01*
X433580Y11851D01*
X433656Y11841D01*
X433731Y11828D01*
X433805Y11811D01*
X433879Y11791D01*
X433951Y11767D01*
X434022Y11740D01*
X434092Y11709D01*
X434160Y11675D01*
X434226Y11637D01*
X434290Y11596D01*
X434353Y11553D01*
X434413Y11506D01*
X434470Y11456D01*
X434525Y11403D01*
X434578Y11348D01*
X434628Y11291D01*
X434675Y11231D01*
X434718Y11168D01*
X434759Y11104D01*
X434797Y11038D01*
X434831Y10970D01*
X434862Y10900D01*
X434889Y10829D01*
X434913Y10756D01*
X434933Y10683D01*
X434950Y10609D01*
X434963Y10534D01*
X434973Y10458D01*
X434978Y10382D01*
X434980Y10306D01*
X434980Y7822D01*
X434978Y7743D01*
X434972Y7665D01*
X434962Y7587D01*
X434948Y7510D01*
X434930Y7433D01*
X434909Y7357D01*
X434883Y7283D01*
X434854Y7210D01*
X434821Y7139D01*
X434785Y7069D01*
X434745Y7001D01*
X434702Y6935D01*
X434655Y6872D01*
X434606Y6811D01*
X434553Y6753D01*
X434497Y6697D01*
X434439Y6644D01*
X434378Y6595D01*
X434315Y6548D01*
X434249Y6505D01*
X434181Y6465D01*
X434112Y6429D01*
X434040Y6396D01*
X433967Y6367D01*
X433893Y6341D01*
X433817Y6320D01*
X433740Y6302D01*
X433663Y6288D01*
X433585Y6278D01*
X433507Y6272D01*
X433428Y6270D01*
X431876Y6270D01*
X461270Y9374D02*
X462822Y9374D01*
X462899Y9372D01*
X462977Y9366D01*
X463053Y9357D01*
X463130Y9343D01*
X463205Y9326D01*
X463279Y9305D01*
X463353Y9280D01*
X463425Y9252D01*
X463495Y9220D01*
X463564Y9185D01*
X463631Y9146D01*
X463696Y9104D01*
X463759Y9059D01*
X463820Y9011D01*
X463878Y8960D01*
X463933Y8906D01*
X463986Y8849D01*
X464035Y8790D01*
X464082Y8728D01*
X464126Y8664D01*
X464166Y8598D01*
X464203Y8530D01*
X464237Y8460D01*
X464267Y8389D01*
X464293Y8316D01*
X464316Y8242D01*
X464335Y8167D01*
X464350Y8092D01*
X464362Y8015D01*
X464370Y7938D01*
X464374Y7861D01*
X464374Y7783D01*
X464370Y7706D01*
X464362Y7629D01*
X464350Y7552D01*
X464335Y7477D01*
X464316Y7402D01*
X464293Y7328D01*
X464267Y7255D01*
X464237Y7184D01*
X464203Y7114D01*
X464166Y7046D01*
X464126Y6980D01*
X464082Y6916D01*
X464035Y6854D01*
X463986Y6795D01*
X463933Y6738D01*
X463878Y6684D01*
X463820Y6633D01*
X463759Y6585D01*
X463696Y6540D01*
X463631Y6498D01*
X463564Y6459D01*
X463495Y6424D01*
X463425Y6392D01*
X463353Y6364D01*
X463279Y6339D01*
X463205Y6318D01*
X463130Y6301D01*
X463053Y6287D01*
X462977Y6278D01*
X462899Y6272D01*
X462822Y6270D01*
X461270Y6270D01*
X461270Y11858D01*
X462822Y11858D01*
X462892Y11856D01*
X462961Y11850D01*
X463030Y11840D01*
X463098Y11827D01*
X463166Y11809D01*
X463232Y11788D01*
X463297Y11763D01*
X463361Y11735D01*
X463423Y11703D01*
X463483Y11668D01*
X463541Y11629D01*
X463596Y11587D01*
X463650Y11542D01*
X463700Y11494D01*
X463748Y11444D01*
X463793Y11390D01*
X463835Y11335D01*
X463874Y11277D01*
X463909Y11217D01*
X463941Y11155D01*
X463969Y11091D01*
X463994Y11026D01*
X464015Y10960D01*
X464033Y10892D01*
X464046Y10824D01*
X464056Y10755D01*
X464062Y10686D01*
X464064Y10616D01*
X464062Y10546D01*
X464056Y10477D01*
X464046Y10408D01*
X464033Y10340D01*
X464015Y10272D01*
X463994Y10206D01*
X463969Y10141D01*
X463941Y10077D01*
X463909Y10015D01*
X463874Y9955D01*
X463835Y9897D01*
X463793Y9842D01*
X463748Y9788D01*
X463700Y9738D01*
X463650Y9690D01*
X463596Y9645D01*
X463541Y9603D01*
X463483Y9564D01*
X463423Y9529D01*
X463361Y9497D01*
X463297Y9469D01*
X463232Y9444D01*
X463166Y9423D01*
X463098Y9405D01*
X463030Y9392D01*
X462961Y9382D01*
X462892Y9376D01*
X462822Y9374D01*
X468497Y11858D02*
X468497Y6270D01*
X470359Y8754D02*
X468497Y11858D01*
X470359Y8754D02*
X472222Y11858D01*
X472222Y6270D01*
X478473Y6270D02*
X478543Y6272D01*
X478612Y6278D01*
X478681Y6288D01*
X478749Y6301D01*
X478817Y6319D01*
X478883Y6340D01*
X478948Y6365D01*
X479012Y6393D01*
X479074Y6425D01*
X479134Y6460D01*
X479192Y6499D01*
X479247Y6541D01*
X479301Y6586D01*
X479351Y6634D01*
X479399Y6684D01*
X479444Y6738D01*
X479486Y6793D01*
X479525Y6851D01*
X479560Y6911D01*
X479592Y6973D01*
X479620Y7037D01*
X479645Y7102D01*
X479666Y7168D01*
X479684Y7236D01*
X479697Y7304D01*
X479707Y7373D01*
X479713Y7442D01*
X479715Y7512D01*
X478473Y6270D02*
X478374Y6272D01*
X478276Y6277D01*
X478178Y6287D01*
X478080Y6300D01*
X477983Y6316D01*
X477886Y6336D01*
X477791Y6360D01*
X477696Y6388D01*
X477602Y6419D01*
X477510Y6453D01*
X477419Y6491D01*
X477329Y6532D01*
X477241Y6577D01*
X477155Y6625D01*
X477071Y6676D01*
X476989Y6730D01*
X476908Y6788D01*
X476830Y6848D01*
X476755Y6911D01*
X476681Y6977D01*
X476611Y7046D01*
X476765Y10616D02*
X476767Y10686D01*
X476773Y10755D01*
X476783Y10824D01*
X476796Y10892D01*
X476814Y10960D01*
X476835Y11026D01*
X476860Y11091D01*
X476888Y11155D01*
X476920Y11217D01*
X476955Y11277D01*
X476994Y11335D01*
X477036Y11390D01*
X477081Y11444D01*
X477129Y11494D01*
X477179Y11542D01*
X477233Y11587D01*
X477288Y11629D01*
X477346Y11668D01*
X477406Y11703D01*
X477468Y11735D01*
X477532Y11763D01*
X477597Y11788D01*
X477663Y11809D01*
X477731Y11827D01*
X477799Y11840D01*
X477868Y11850D01*
X477937Y11856D01*
X478007Y11858D01*
X478101Y11856D01*
X478194Y11850D01*
X478287Y11841D01*
X478380Y11828D01*
X478472Y11811D01*
X478563Y11791D01*
X478654Y11766D01*
X478743Y11739D01*
X478831Y11707D01*
X478918Y11672D01*
X479004Y11634D01*
X479087Y11592D01*
X479169Y11547D01*
X479250Y11499D01*
X479328Y11447D01*
X479404Y11392D01*
X477386Y9530D02*
X477327Y9566D01*
X477271Y9606D01*
X477217Y9649D01*
X477165Y9694D01*
X477116Y9743D01*
X477070Y9794D01*
X477027Y9847D01*
X476986Y9903D01*
X476949Y9961D01*
X476914Y10021D01*
X476884Y10082D01*
X476856Y10145D01*
X476832Y10210D01*
X476812Y10276D01*
X476795Y10343D01*
X476782Y10410D01*
X476773Y10478D01*
X476767Y10547D01*
X476765Y10616D01*
X479093Y8598D02*
X479152Y8562D01*
X479208Y8522D01*
X479262Y8479D01*
X479314Y8434D01*
X479363Y8385D01*
X479409Y8334D01*
X479452Y8281D01*
X479493Y8225D01*
X479530Y8167D01*
X479565Y8107D01*
X479595Y8046D01*
X479623Y7983D01*
X479647Y7918D01*
X479667Y7852D01*
X479684Y7785D01*
X479697Y7718D01*
X479706Y7650D01*
X479712Y7581D01*
X479714Y7512D01*
X479093Y8598D02*
X477386Y9530D01*
X483858Y8443D02*
X487584Y8443D01*
X485721Y6580D02*
X485721Y10306D01*
X496270Y9374D02*
X497822Y9374D01*
X497899Y9372D01*
X497977Y9366D01*
X498053Y9357D01*
X498130Y9343D01*
X498205Y9326D01*
X498279Y9305D01*
X498353Y9280D01*
X498425Y9252D01*
X498495Y9220D01*
X498564Y9185D01*
X498631Y9146D01*
X498696Y9104D01*
X498759Y9059D01*
X498820Y9011D01*
X498878Y8960D01*
X498933Y8906D01*
X498986Y8849D01*
X499035Y8790D01*
X499082Y8728D01*
X499126Y8664D01*
X499166Y8598D01*
X499203Y8530D01*
X499237Y8460D01*
X499267Y8389D01*
X499293Y8316D01*
X499316Y8242D01*
X499335Y8167D01*
X499350Y8092D01*
X499362Y8015D01*
X499370Y7938D01*
X499374Y7861D01*
X499374Y7783D01*
X499370Y7706D01*
X499362Y7629D01*
X499350Y7552D01*
X499335Y7477D01*
X499316Y7402D01*
X499293Y7328D01*
X499267Y7255D01*
X499237Y7184D01*
X499203Y7114D01*
X499166Y7046D01*
X499126Y6980D01*
X499082Y6916D01*
X499035Y6854D01*
X498986Y6795D01*
X498933Y6738D01*
X498878Y6684D01*
X498820Y6633D01*
X498759Y6585D01*
X498696Y6540D01*
X498631Y6498D01*
X498564Y6459D01*
X498495Y6424D01*
X498425Y6392D01*
X498353Y6364D01*
X498279Y6339D01*
X498205Y6318D01*
X498130Y6301D01*
X498053Y6287D01*
X497977Y6278D01*
X497899Y6272D01*
X497822Y6270D01*
X496270Y6270D01*
X496270Y11858D01*
X497822Y11858D01*
X497892Y11856D01*
X497961Y11850D01*
X498030Y11840D01*
X498098Y11827D01*
X498166Y11809D01*
X498232Y11788D01*
X498297Y11763D01*
X498361Y11735D01*
X498423Y11703D01*
X498483Y11668D01*
X498541Y11629D01*
X498596Y11587D01*
X498650Y11542D01*
X498700Y11494D01*
X498748Y11444D01*
X498793Y11390D01*
X498835Y11335D01*
X498874Y11277D01*
X498909Y11217D01*
X498941Y11155D01*
X498969Y11091D01*
X498994Y11026D01*
X499015Y10960D01*
X499033Y10892D01*
X499046Y10824D01*
X499056Y10755D01*
X499062Y10686D01*
X499064Y10616D01*
X499062Y10546D01*
X499056Y10477D01*
X499046Y10408D01*
X499033Y10340D01*
X499015Y10272D01*
X498994Y10206D01*
X498969Y10141D01*
X498941Y10077D01*
X498909Y10015D01*
X498874Y9955D01*
X498835Y9897D01*
X498793Y9842D01*
X498748Y9788D01*
X498700Y9738D01*
X498650Y9690D01*
X498596Y9645D01*
X498541Y9603D01*
X498483Y9564D01*
X498423Y9529D01*
X498361Y9497D01*
X498297Y9469D01*
X498232Y9444D01*
X498166Y9423D01*
X498098Y9405D01*
X498030Y9392D01*
X497961Y9382D01*
X497892Y9376D01*
X497822Y9374D01*
X503497Y11858D02*
X503497Y6270D01*
X505359Y8754D02*
X503497Y11858D01*
X505359Y8754D02*
X507222Y11858D01*
X507222Y6270D01*
X513473Y6270D02*
X513543Y6272D01*
X513612Y6278D01*
X513681Y6288D01*
X513749Y6301D01*
X513817Y6319D01*
X513883Y6340D01*
X513948Y6365D01*
X514012Y6393D01*
X514074Y6425D01*
X514134Y6460D01*
X514192Y6499D01*
X514247Y6541D01*
X514301Y6586D01*
X514351Y6634D01*
X514399Y6684D01*
X514444Y6738D01*
X514486Y6793D01*
X514525Y6851D01*
X514560Y6911D01*
X514592Y6973D01*
X514620Y7037D01*
X514645Y7102D01*
X514666Y7168D01*
X514684Y7236D01*
X514697Y7304D01*
X514707Y7373D01*
X514713Y7442D01*
X514715Y7512D01*
X513473Y6270D02*
X513374Y6272D01*
X513276Y6277D01*
X513178Y6287D01*
X513080Y6300D01*
X512983Y6316D01*
X512886Y6336D01*
X512791Y6360D01*
X512696Y6388D01*
X512602Y6419D01*
X512510Y6453D01*
X512419Y6491D01*
X512329Y6532D01*
X512241Y6577D01*
X512155Y6625D01*
X512071Y6676D01*
X511989Y6730D01*
X511908Y6788D01*
X511830Y6848D01*
X511755Y6911D01*
X511681Y6977D01*
X511611Y7046D01*
X511765Y10616D02*
X511767Y10686D01*
X511773Y10755D01*
X511783Y10824D01*
X511796Y10892D01*
X511814Y10960D01*
X511835Y11026D01*
X511860Y11091D01*
X511888Y11155D01*
X511920Y11217D01*
X511955Y11277D01*
X511994Y11335D01*
X512036Y11390D01*
X512081Y11444D01*
X512129Y11494D01*
X512179Y11542D01*
X512233Y11587D01*
X512288Y11629D01*
X512346Y11668D01*
X512406Y11703D01*
X512468Y11735D01*
X512532Y11763D01*
X512597Y11788D01*
X512663Y11809D01*
X512731Y11827D01*
X512799Y11840D01*
X512868Y11850D01*
X512937Y11856D01*
X513007Y11858D01*
X513101Y11856D01*
X513194Y11850D01*
X513287Y11841D01*
X513380Y11828D01*
X513472Y11811D01*
X513563Y11791D01*
X513654Y11766D01*
X513743Y11739D01*
X513831Y11707D01*
X513918Y11672D01*
X514004Y11634D01*
X514087Y11592D01*
X514169Y11547D01*
X514250Y11499D01*
X514328Y11447D01*
X514404Y11392D01*
X512386Y9530D02*
X512327Y9566D01*
X512271Y9606D01*
X512217Y9649D01*
X512165Y9694D01*
X512116Y9743D01*
X512070Y9794D01*
X512027Y9847D01*
X511986Y9903D01*
X511949Y9961D01*
X511914Y10021D01*
X511884Y10082D01*
X511856Y10145D01*
X511832Y10210D01*
X511812Y10276D01*
X511795Y10343D01*
X511782Y10410D01*
X511773Y10478D01*
X511767Y10547D01*
X511765Y10616D01*
X514093Y8598D02*
X514152Y8562D01*
X514208Y8522D01*
X514262Y8479D01*
X514314Y8434D01*
X514363Y8385D01*
X514409Y8334D01*
X514452Y8281D01*
X514493Y8225D01*
X514530Y8167D01*
X514565Y8107D01*
X514595Y8046D01*
X514623Y7983D01*
X514647Y7918D01*
X514667Y7852D01*
X514684Y7785D01*
X514697Y7718D01*
X514706Y7650D01*
X514712Y7581D01*
X514714Y7512D01*
X514093Y8598D02*
X512386Y9530D01*
X520389Y11858D02*
X520462Y11856D01*
X520535Y11850D01*
X520608Y11841D01*
X520679Y11827D01*
X520751Y11810D01*
X520821Y11790D01*
X520890Y11765D01*
X520957Y11737D01*
X521023Y11706D01*
X521088Y11671D01*
X521150Y11633D01*
X521210Y11591D01*
X521268Y11547D01*
X521324Y11499D01*
X521377Y11449D01*
X521427Y11396D01*
X521475Y11340D01*
X521519Y11282D01*
X521561Y11222D01*
X521599Y11160D01*
X521634Y11095D01*
X521665Y11029D01*
X521693Y10962D01*
X521718Y10893D01*
X521738Y10823D01*
X521755Y10751D01*
X521769Y10680D01*
X521778Y10607D01*
X521784Y10534D01*
X521786Y10461D01*
X520389Y11858D02*
X520305Y11856D01*
X520222Y11850D01*
X520139Y11841D01*
X520057Y11827D01*
X519975Y11810D01*
X519894Y11788D01*
X519814Y11763D01*
X519736Y11735D01*
X519658Y11703D01*
X519583Y11667D01*
X519509Y11628D01*
X519437Y11585D01*
X519367Y11539D01*
X519300Y11490D01*
X519234Y11437D01*
X519172Y11382D01*
X519112Y11324D01*
X519054Y11263D01*
X519000Y11200D01*
X518948Y11134D01*
X518900Y11066D01*
X518855Y10995D01*
X518813Y10923D01*
X518775Y10848D01*
X518740Y10772D01*
X518709Y10695D01*
X518681Y10616D01*
X521319Y9375D02*
X521373Y9428D01*
X521424Y9485D01*
X521472Y9544D01*
X521517Y9605D01*
X521558Y9668D01*
X521597Y9734D01*
X521632Y9801D01*
X521664Y9870D01*
X521692Y9941D01*
X521716Y10012D01*
X521737Y10085D01*
X521754Y10159D01*
X521768Y10234D01*
X521777Y10309D01*
X521783Y10385D01*
X521785Y10461D01*
X521320Y9374D02*
X518681Y6270D01*
X521786Y6270D01*
X419374Y74374D02*
X418443Y74374D01*
X419374Y74374D02*
X419374Y71270D01*
X417512Y71270D01*
X417442Y71272D01*
X417373Y71278D01*
X417304Y71288D01*
X417236Y71301D01*
X417168Y71319D01*
X417102Y71340D01*
X417037Y71365D01*
X416973Y71393D01*
X416911Y71425D01*
X416851Y71460D01*
X416793Y71499D01*
X416738Y71541D01*
X416684Y71586D01*
X416634Y71634D01*
X416586Y71684D01*
X416541Y71738D01*
X416499Y71793D01*
X416460Y71851D01*
X416425Y71911D01*
X416393Y71973D01*
X416365Y72037D01*
X416340Y72102D01*
X416319Y72168D01*
X416301Y72236D01*
X416288Y72304D01*
X416278Y72373D01*
X416272Y72442D01*
X416270Y72512D01*
X416270Y75616D01*
X416272Y75686D01*
X416278Y75755D01*
X416288Y75824D01*
X416301Y75892D01*
X416319Y75960D01*
X416340Y76026D01*
X416365Y76091D01*
X416393Y76155D01*
X416425Y76217D01*
X416460Y76277D01*
X416499Y76335D01*
X416541Y76390D01*
X416586Y76444D01*
X416634Y76494D01*
X416684Y76542D01*
X416738Y76587D01*
X416793Y76629D01*
X416851Y76668D01*
X416911Y76703D01*
X416973Y76735D01*
X417037Y76763D01*
X417102Y76788D01*
X417168Y76809D01*
X417236Y76827D01*
X417304Y76840D01*
X417373Y76850D01*
X417442Y76856D01*
X417512Y76858D01*
X419374Y76858D01*
X424073Y76858D02*
X424073Y71270D01*
X427177Y71270D02*
X424073Y76858D01*
X427177Y76858D02*
X427177Y71270D01*
X431876Y71270D02*
X431876Y76858D01*
X433428Y76858D01*
X433504Y76856D01*
X433580Y76851D01*
X433656Y76841D01*
X433731Y76828D01*
X433805Y76811D01*
X433879Y76791D01*
X433951Y76767D01*
X434022Y76740D01*
X434092Y76709D01*
X434160Y76675D01*
X434226Y76637D01*
X434290Y76596D01*
X434353Y76553D01*
X434413Y76506D01*
X434470Y76456D01*
X434525Y76403D01*
X434578Y76348D01*
X434628Y76291D01*
X434675Y76231D01*
X434718Y76168D01*
X434759Y76104D01*
X434797Y76038D01*
X434831Y75970D01*
X434862Y75900D01*
X434889Y75829D01*
X434913Y75756D01*
X434933Y75683D01*
X434950Y75609D01*
X434963Y75534D01*
X434973Y75458D01*
X434978Y75382D01*
X434980Y75306D01*
X434980Y72822D01*
X434978Y72743D01*
X434972Y72665D01*
X434962Y72587D01*
X434948Y72510D01*
X434930Y72433D01*
X434909Y72357D01*
X434883Y72283D01*
X434854Y72210D01*
X434821Y72139D01*
X434785Y72069D01*
X434745Y72001D01*
X434702Y71935D01*
X434655Y71872D01*
X434606Y71811D01*
X434553Y71753D01*
X434497Y71697D01*
X434439Y71644D01*
X434378Y71595D01*
X434315Y71548D01*
X434249Y71505D01*
X434181Y71465D01*
X434112Y71429D01*
X434040Y71396D01*
X433967Y71367D01*
X433893Y71341D01*
X433817Y71320D01*
X433740Y71302D01*
X433663Y71288D01*
X433585Y71278D01*
X433507Y71272D01*
X433428Y71270D01*
X431876Y71270D01*
X446270Y71270D02*
X447822Y71270D01*
X447899Y71272D01*
X447977Y71278D01*
X448053Y71287D01*
X448130Y71301D01*
X448205Y71318D01*
X448279Y71339D01*
X448353Y71364D01*
X448425Y71392D01*
X448495Y71424D01*
X448564Y71459D01*
X448631Y71498D01*
X448696Y71540D01*
X448759Y71585D01*
X448820Y71633D01*
X448878Y71684D01*
X448933Y71738D01*
X448986Y71795D01*
X449035Y71854D01*
X449082Y71916D01*
X449126Y71980D01*
X449166Y72046D01*
X449203Y72114D01*
X449237Y72184D01*
X449267Y72255D01*
X449293Y72328D01*
X449316Y72402D01*
X449335Y72477D01*
X449350Y72552D01*
X449362Y72629D01*
X449370Y72706D01*
X449374Y72783D01*
X449374Y72861D01*
X449370Y72938D01*
X449362Y73015D01*
X449350Y73092D01*
X449335Y73167D01*
X449316Y73242D01*
X449293Y73316D01*
X449267Y73389D01*
X449237Y73460D01*
X449203Y73530D01*
X449166Y73598D01*
X449126Y73664D01*
X449082Y73728D01*
X449035Y73790D01*
X448986Y73849D01*
X448933Y73906D01*
X448878Y73960D01*
X448820Y74011D01*
X448759Y74059D01*
X448696Y74104D01*
X448631Y74146D01*
X448564Y74185D01*
X448495Y74220D01*
X448425Y74252D01*
X448353Y74280D01*
X448279Y74305D01*
X448205Y74326D01*
X448130Y74343D01*
X448053Y74357D01*
X447977Y74366D01*
X447899Y74372D01*
X447822Y74374D01*
X448133Y76858D02*
X446270Y76858D01*
X448133Y76858D02*
X448203Y76856D01*
X448272Y76850D01*
X448341Y76840D01*
X448409Y76827D01*
X448477Y76809D01*
X448543Y76788D01*
X448608Y76763D01*
X448672Y76735D01*
X448734Y76703D01*
X448794Y76668D01*
X448852Y76629D01*
X448907Y76587D01*
X448961Y76542D01*
X449011Y76494D01*
X449059Y76444D01*
X449104Y76390D01*
X449146Y76335D01*
X449185Y76277D01*
X449220Y76217D01*
X449252Y76155D01*
X449280Y76091D01*
X449305Y76026D01*
X449326Y75960D01*
X449344Y75892D01*
X449357Y75824D01*
X449367Y75755D01*
X449373Y75686D01*
X449375Y75616D01*
X449373Y75546D01*
X449367Y75477D01*
X449357Y75408D01*
X449344Y75340D01*
X449326Y75272D01*
X449305Y75206D01*
X449280Y75141D01*
X449252Y75077D01*
X449220Y75015D01*
X449185Y74955D01*
X449146Y74897D01*
X449104Y74842D01*
X449059Y74788D01*
X449011Y74738D01*
X448961Y74690D01*
X448907Y74645D01*
X448852Y74603D01*
X448794Y74564D01*
X448734Y74529D01*
X448672Y74497D01*
X448608Y74469D01*
X448543Y74444D01*
X448477Y74423D01*
X448409Y74405D01*
X448341Y74392D01*
X448272Y74382D01*
X448203Y74376D01*
X448133Y74374D01*
X446891Y74374D01*
X453275Y76858D02*
X455137Y71270D01*
X457000Y76858D01*
X460900Y71270D02*
X462453Y71270D01*
X462530Y71272D01*
X462608Y71278D01*
X462684Y71287D01*
X462761Y71301D01*
X462836Y71318D01*
X462910Y71339D01*
X462984Y71364D01*
X463056Y71392D01*
X463126Y71424D01*
X463195Y71459D01*
X463262Y71498D01*
X463327Y71540D01*
X463390Y71585D01*
X463451Y71633D01*
X463509Y71684D01*
X463564Y71738D01*
X463617Y71795D01*
X463666Y71854D01*
X463713Y71916D01*
X463757Y71980D01*
X463797Y72046D01*
X463834Y72114D01*
X463868Y72184D01*
X463898Y72255D01*
X463924Y72328D01*
X463947Y72402D01*
X463966Y72477D01*
X463981Y72552D01*
X463993Y72629D01*
X464001Y72706D01*
X464005Y72783D01*
X464005Y72861D01*
X464001Y72938D01*
X463993Y73015D01*
X463981Y73092D01*
X463966Y73167D01*
X463947Y73242D01*
X463924Y73316D01*
X463898Y73389D01*
X463868Y73460D01*
X463834Y73530D01*
X463797Y73598D01*
X463757Y73664D01*
X463713Y73728D01*
X463666Y73790D01*
X463617Y73849D01*
X463564Y73906D01*
X463509Y73960D01*
X463451Y74011D01*
X463390Y74059D01*
X463327Y74104D01*
X463262Y74146D01*
X463195Y74185D01*
X463126Y74220D01*
X463056Y74252D01*
X462984Y74280D01*
X462910Y74305D01*
X462836Y74326D01*
X462761Y74343D01*
X462684Y74357D01*
X462608Y74366D01*
X462530Y74372D01*
X462453Y74374D01*
X462763Y76858D02*
X460900Y76858D01*
X462763Y76858D02*
X462833Y76856D01*
X462902Y76850D01*
X462971Y76840D01*
X463039Y76827D01*
X463107Y76809D01*
X463173Y76788D01*
X463238Y76763D01*
X463302Y76735D01*
X463364Y76703D01*
X463424Y76668D01*
X463482Y76629D01*
X463537Y76587D01*
X463591Y76542D01*
X463641Y76494D01*
X463689Y76444D01*
X463734Y76390D01*
X463776Y76335D01*
X463815Y76277D01*
X463850Y76217D01*
X463882Y76155D01*
X463910Y76091D01*
X463935Y76026D01*
X463956Y75960D01*
X463974Y75892D01*
X463987Y75824D01*
X463997Y75755D01*
X464003Y75686D01*
X464005Y75616D01*
X464003Y75546D01*
X463997Y75477D01*
X463987Y75408D01*
X463974Y75340D01*
X463956Y75272D01*
X463935Y75206D01*
X463910Y75141D01*
X463882Y75077D01*
X463850Y75015D01*
X463815Y74955D01*
X463776Y74897D01*
X463734Y74842D01*
X463689Y74788D01*
X463641Y74738D01*
X463591Y74690D01*
X463537Y74645D01*
X463482Y74603D01*
X463424Y74564D01*
X463364Y74529D01*
X463302Y74497D01*
X463238Y74469D01*
X463173Y74444D01*
X463107Y74423D01*
X463039Y74405D01*
X462971Y74392D01*
X462902Y74382D01*
X462833Y74376D01*
X462763Y74374D01*
X461521Y74374D01*
X471270Y75616D02*
X472822Y76858D01*
X472822Y71270D01*
X471270Y71270D02*
X474374Y71270D01*
X479871Y71270D02*
X478629Y76858D01*
X481113Y74995D02*
X479871Y71270D01*
X482355Y71270D02*
X481113Y74995D01*
X483596Y76858D02*
X482355Y71270D01*
X496270Y74374D02*
X497822Y74374D01*
X497899Y74372D01*
X497977Y74366D01*
X498053Y74357D01*
X498130Y74343D01*
X498205Y74326D01*
X498279Y74305D01*
X498353Y74280D01*
X498425Y74252D01*
X498495Y74220D01*
X498564Y74185D01*
X498631Y74146D01*
X498696Y74104D01*
X498759Y74059D01*
X498820Y74011D01*
X498878Y73960D01*
X498933Y73906D01*
X498986Y73849D01*
X499035Y73790D01*
X499082Y73728D01*
X499126Y73664D01*
X499166Y73598D01*
X499203Y73530D01*
X499237Y73460D01*
X499267Y73389D01*
X499293Y73316D01*
X499316Y73242D01*
X499335Y73167D01*
X499350Y73092D01*
X499362Y73015D01*
X499370Y72938D01*
X499374Y72861D01*
X499374Y72783D01*
X499370Y72706D01*
X499362Y72629D01*
X499350Y72552D01*
X499335Y72477D01*
X499316Y72402D01*
X499293Y72328D01*
X499267Y72255D01*
X499237Y72184D01*
X499203Y72114D01*
X499166Y72046D01*
X499126Y71980D01*
X499082Y71916D01*
X499035Y71854D01*
X498986Y71795D01*
X498933Y71738D01*
X498878Y71684D01*
X498820Y71633D01*
X498759Y71585D01*
X498696Y71540D01*
X498631Y71498D01*
X498564Y71459D01*
X498495Y71424D01*
X498425Y71392D01*
X498353Y71364D01*
X498279Y71339D01*
X498205Y71318D01*
X498130Y71301D01*
X498053Y71287D01*
X497977Y71278D01*
X497899Y71272D01*
X497822Y71270D01*
X496270Y71270D01*
X496270Y76858D01*
X497822Y76858D01*
X497892Y76856D01*
X497961Y76850D01*
X498030Y76840D01*
X498098Y76827D01*
X498166Y76809D01*
X498232Y76788D01*
X498297Y76763D01*
X498361Y76735D01*
X498423Y76703D01*
X498483Y76668D01*
X498541Y76629D01*
X498596Y76587D01*
X498650Y76542D01*
X498700Y76494D01*
X498748Y76444D01*
X498793Y76390D01*
X498835Y76335D01*
X498874Y76277D01*
X498909Y76217D01*
X498941Y76155D01*
X498969Y76091D01*
X498994Y76026D01*
X499015Y75960D01*
X499033Y75892D01*
X499046Y75824D01*
X499056Y75755D01*
X499062Y75686D01*
X499064Y75616D01*
X499062Y75546D01*
X499056Y75477D01*
X499046Y75408D01*
X499033Y75340D01*
X499015Y75272D01*
X498994Y75206D01*
X498969Y75141D01*
X498941Y75077D01*
X498909Y75015D01*
X498874Y74955D01*
X498835Y74897D01*
X498793Y74842D01*
X498748Y74788D01*
X498700Y74738D01*
X498650Y74690D01*
X498596Y74645D01*
X498541Y74603D01*
X498483Y74564D01*
X498423Y74529D01*
X498361Y74497D01*
X498297Y74469D01*
X498232Y74444D01*
X498166Y74423D01*
X498098Y74405D01*
X498030Y74392D01*
X497961Y74382D01*
X497892Y74376D01*
X497822Y74374D01*
X503497Y76858D02*
X503497Y71270D01*
X505359Y73754D02*
X503497Y76858D01*
X505359Y73754D02*
X507222Y76858D01*
X507222Y71270D01*
X513473Y71270D02*
X513543Y71272D01*
X513612Y71278D01*
X513681Y71288D01*
X513749Y71301D01*
X513817Y71319D01*
X513883Y71340D01*
X513948Y71365D01*
X514012Y71393D01*
X514074Y71425D01*
X514134Y71460D01*
X514192Y71499D01*
X514247Y71541D01*
X514301Y71586D01*
X514351Y71634D01*
X514399Y71684D01*
X514444Y71738D01*
X514486Y71793D01*
X514525Y71851D01*
X514560Y71911D01*
X514592Y71973D01*
X514620Y72037D01*
X514645Y72102D01*
X514666Y72168D01*
X514684Y72236D01*
X514697Y72304D01*
X514707Y72373D01*
X514713Y72442D01*
X514715Y72512D01*
X513473Y71270D02*
X513374Y71272D01*
X513276Y71277D01*
X513178Y71287D01*
X513080Y71300D01*
X512983Y71316D01*
X512886Y71336D01*
X512791Y71360D01*
X512696Y71388D01*
X512602Y71419D01*
X512510Y71453D01*
X512419Y71491D01*
X512329Y71532D01*
X512241Y71577D01*
X512155Y71625D01*
X512071Y71676D01*
X511989Y71730D01*
X511908Y71788D01*
X511830Y71848D01*
X511755Y71911D01*
X511681Y71977D01*
X511611Y72046D01*
X511765Y75616D02*
X511767Y75686D01*
X511773Y75755D01*
X511783Y75824D01*
X511796Y75892D01*
X511814Y75960D01*
X511835Y76026D01*
X511860Y76091D01*
X511888Y76155D01*
X511920Y76217D01*
X511955Y76277D01*
X511994Y76335D01*
X512036Y76390D01*
X512081Y76444D01*
X512129Y76494D01*
X512179Y76542D01*
X512233Y76587D01*
X512288Y76629D01*
X512346Y76668D01*
X512406Y76703D01*
X512468Y76735D01*
X512532Y76763D01*
X512597Y76788D01*
X512663Y76809D01*
X512731Y76827D01*
X512799Y76840D01*
X512868Y76850D01*
X512937Y76856D01*
X513007Y76858D01*
X513101Y76856D01*
X513194Y76850D01*
X513287Y76841D01*
X513380Y76828D01*
X513472Y76811D01*
X513563Y76791D01*
X513654Y76766D01*
X513743Y76739D01*
X513831Y76707D01*
X513918Y76672D01*
X514004Y76634D01*
X514087Y76592D01*
X514169Y76547D01*
X514250Y76499D01*
X514328Y76447D01*
X514404Y76392D01*
X512386Y74530D02*
X512327Y74566D01*
X512271Y74606D01*
X512217Y74649D01*
X512165Y74694D01*
X512116Y74743D01*
X512070Y74794D01*
X512027Y74847D01*
X511986Y74903D01*
X511949Y74961D01*
X511914Y75021D01*
X511884Y75082D01*
X511856Y75145D01*
X511832Y75210D01*
X511812Y75276D01*
X511795Y75343D01*
X511782Y75410D01*
X511773Y75478D01*
X511767Y75547D01*
X511765Y75616D01*
X514093Y73598D02*
X514152Y73562D01*
X514208Y73522D01*
X514262Y73479D01*
X514314Y73434D01*
X514363Y73385D01*
X514409Y73334D01*
X514452Y73281D01*
X514493Y73225D01*
X514530Y73167D01*
X514565Y73107D01*
X514595Y73046D01*
X514623Y72983D01*
X514647Y72918D01*
X514667Y72852D01*
X514684Y72785D01*
X514697Y72718D01*
X514706Y72650D01*
X514712Y72581D01*
X514714Y72512D01*
X514093Y73598D02*
X512386Y74530D01*
X518681Y75616D02*
X520233Y76858D01*
X520233Y71270D01*
X518681Y71270D02*
X521786Y71270D01*
D10*
X221500Y108000D02*
X221500Y124000D01*
X221500Y108000D02*
X250500Y108000D01*
X250500Y124000D01*
X221500Y124000D01*
X107000Y185500D02*
X91000Y185500D01*
X91000Y156500D01*
X107000Y156500D01*
X107000Y185500D01*
X107000Y148500D02*
X91000Y148500D01*
X91000Y119500D01*
X107000Y119500D01*
X107000Y148500D01*
X140000Y161000D02*
X140000Y181000D01*
X140000Y161000D02*
X133000Y161000D01*
X133000Y181000D01*
X140000Y181000D01*
X140000Y144000D02*
X140000Y124000D01*
X133000Y124000D01*
X133000Y144000D01*
X140000Y144000D01*
X573500Y101000D02*
X573500Y85000D01*
X573500Y101000D02*
X544500Y101000D01*
X544500Y85000D01*
X573500Y85000D01*
X682000Y26500D02*
X698000Y26500D01*
X698000Y55500D01*
X682000Y55500D01*
X682000Y26500D01*
X682000Y63500D02*
X698000Y63500D01*
X698000Y92500D01*
X682000Y92500D01*
X682000Y63500D01*
X649000Y51000D02*
X649000Y31000D01*
X649000Y51000D02*
X656000Y51000D01*
X656000Y31000D01*
X649000Y31000D01*
X649000Y68000D02*
X649000Y88000D01*
X656000Y88000D01*
X656000Y68000D01*
X649000Y68000D01*
D11*
X517000Y65800D02*
X517000Y15000D01*
X497950Y15000D01*
X485250Y15000D01*
X472550Y15000D01*
X459850Y15000D01*
X447150Y15000D01*
X415400Y65800D02*
X517000Y65800D01*
X447150Y15000D02*
X428100Y15000D01*
X415400Y15000D01*
X415400Y65800D01*
D10*
X185000Y72250D02*
X141000Y72250D01*
X141000Y101750D01*
X185000Y101750D01*
X185000Y72250D01*
X608000Y143750D02*
X652000Y143750D01*
X652000Y114250D01*
X608000Y114250D01*
X608000Y143750D01*
D12*
X771858Y136565D02*
X783542Y136565D01*
X771858Y136565D02*
X771858Y139810D01*
X771860Y139923D01*
X771866Y140036D01*
X771876Y140149D01*
X771890Y140262D01*
X771907Y140374D01*
X771929Y140485D01*
X771954Y140595D01*
X771984Y140705D01*
X772017Y140813D01*
X772054Y140920D01*
X772094Y141026D01*
X772139Y141130D01*
X772187Y141233D01*
X772238Y141334D01*
X772293Y141433D01*
X772351Y141530D01*
X772413Y141625D01*
X772478Y141718D01*
X772546Y141808D01*
X772617Y141896D01*
X772692Y141982D01*
X772769Y142065D01*
X772849Y142145D01*
X772932Y142222D01*
X773018Y142297D01*
X773106Y142368D01*
X773196Y142436D01*
X773289Y142501D01*
X773384Y142563D01*
X773481Y142621D01*
X773580Y142676D01*
X773681Y142727D01*
X773784Y142775D01*
X773888Y142820D01*
X773994Y142860D01*
X774101Y142897D01*
X774209Y142930D01*
X774319Y142960D01*
X774429Y142985D01*
X774540Y143007D01*
X774652Y143024D01*
X774765Y143038D01*
X774878Y143048D01*
X774991Y143054D01*
X775104Y143056D01*
X775217Y143054D01*
X775330Y143048D01*
X775443Y143038D01*
X775556Y143024D01*
X775668Y143007D01*
X775779Y142985D01*
X775889Y142960D01*
X775999Y142930D01*
X776107Y142897D01*
X776214Y142860D01*
X776320Y142820D01*
X776424Y142775D01*
X776527Y142727D01*
X776628Y142676D01*
X776727Y142621D01*
X776824Y142563D01*
X776919Y142501D01*
X777012Y142436D01*
X777102Y142368D01*
X777190Y142297D01*
X777276Y142222D01*
X777359Y142145D01*
X777439Y142065D01*
X777516Y141982D01*
X777591Y141896D01*
X777662Y141808D01*
X777730Y141718D01*
X777795Y141625D01*
X777857Y141530D01*
X777915Y141433D01*
X777970Y141334D01*
X778021Y141233D01*
X778069Y141130D01*
X778114Y141026D01*
X778154Y140920D01*
X778191Y140813D01*
X778224Y140705D01*
X778254Y140595D01*
X778279Y140485D01*
X778301Y140374D01*
X778318Y140262D01*
X778332Y140149D01*
X778342Y140036D01*
X778348Y139923D01*
X778350Y139810D01*
X778349Y139810D02*
X778349Y136565D01*
X778349Y140459D02*
X783542Y143056D01*
X774454Y147921D02*
X771858Y151166D01*
X783542Y151166D01*
X783542Y147921D02*
X783542Y154412D01*
X778349Y161947D02*
X778349Y165842D01*
X778349Y161947D02*
X778347Y161848D01*
X778341Y161748D01*
X778332Y161649D01*
X778319Y161551D01*
X778302Y161453D01*
X778281Y161355D01*
X778256Y161259D01*
X778228Y161164D01*
X778196Y161070D01*
X778161Y160977D01*
X778122Y160885D01*
X778079Y160795D01*
X778034Y160707D01*
X777984Y160620D01*
X777932Y160536D01*
X777876Y160453D01*
X777818Y160373D01*
X777756Y160295D01*
X777691Y160220D01*
X777623Y160147D01*
X777553Y160077D01*
X777480Y160009D01*
X777405Y159944D01*
X777327Y159882D01*
X777247Y159824D01*
X777164Y159768D01*
X777080Y159716D01*
X776993Y159666D01*
X776905Y159621D01*
X776815Y159578D01*
X776723Y159539D01*
X776630Y159504D01*
X776536Y159472D01*
X776441Y159444D01*
X776345Y159419D01*
X776247Y159398D01*
X776149Y159381D01*
X776051Y159368D01*
X775952Y159359D01*
X775852Y159353D01*
X775753Y159351D01*
X775104Y159351D01*
X775104Y159350D02*
X774991Y159352D01*
X774878Y159358D01*
X774765Y159368D01*
X774652Y159382D01*
X774540Y159399D01*
X774429Y159421D01*
X774319Y159446D01*
X774209Y159476D01*
X774101Y159509D01*
X773994Y159546D01*
X773888Y159586D01*
X773784Y159631D01*
X773681Y159679D01*
X773580Y159730D01*
X773481Y159785D01*
X773384Y159843D01*
X773289Y159905D01*
X773196Y159970D01*
X773106Y160038D01*
X773018Y160109D01*
X772932Y160184D01*
X772849Y160261D01*
X772769Y160341D01*
X772692Y160424D01*
X772617Y160510D01*
X772546Y160598D01*
X772478Y160688D01*
X772413Y160781D01*
X772351Y160876D01*
X772293Y160973D01*
X772238Y161072D01*
X772187Y161173D01*
X772139Y161276D01*
X772094Y161380D01*
X772054Y161486D01*
X772017Y161593D01*
X771984Y161701D01*
X771954Y161811D01*
X771929Y161921D01*
X771907Y162032D01*
X771890Y162144D01*
X771876Y162257D01*
X771866Y162370D01*
X771860Y162483D01*
X771858Y162596D01*
X771860Y162709D01*
X771866Y162822D01*
X771876Y162935D01*
X771890Y163048D01*
X771907Y163160D01*
X771929Y163271D01*
X771954Y163381D01*
X771984Y163491D01*
X772017Y163599D01*
X772054Y163706D01*
X772094Y163812D01*
X772139Y163916D01*
X772187Y164019D01*
X772238Y164120D01*
X772293Y164219D01*
X772351Y164316D01*
X772413Y164411D01*
X772478Y164504D01*
X772546Y164594D01*
X772617Y164682D01*
X772692Y164768D01*
X772769Y164851D01*
X772849Y164931D01*
X772932Y165008D01*
X773018Y165083D01*
X773106Y165154D01*
X773196Y165222D01*
X773289Y165287D01*
X773384Y165349D01*
X773481Y165407D01*
X773580Y165462D01*
X773681Y165513D01*
X773784Y165561D01*
X773888Y165606D01*
X773994Y165646D01*
X774101Y165683D01*
X774209Y165716D01*
X774319Y165746D01*
X774429Y165771D01*
X774540Y165793D01*
X774652Y165810D01*
X774765Y165824D01*
X774878Y165834D01*
X774991Y165840D01*
X775104Y165842D01*
X778349Y165842D01*
X778492Y165840D01*
X778635Y165834D01*
X778778Y165824D01*
X778920Y165810D01*
X779062Y165793D01*
X779204Y165771D01*
X779345Y165746D01*
X779485Y165716D01*
X779624Y165683D01*
X779762Y165646D01*
X779899Y165605D01*
X780035Y165561D01*
X780170Y165512D01*
X780303Y165460D01*
X780435Y165405D01*
X780565Y165345D01*
X780694Y165282D01*
X780821Y165216D01*
X780946Y165146D01*
X781068Y165073D01*
X781189Y164996D01*
X781308Y164916D01*
X781424Y164833D01*
X781539Y164747D01*
X781650Y164658D01*
X781760Y164565D01*
X781866Y164470D01*
X781970Y164371D01*
X782071Y164270D01*
X782170Y164166D01*
X782265Y164060D01*
X782358Y163950D01*
X782447Y163839D01*
X782533Y163724D01*
X782616Y163608D01*
X782696Y163489D01*
X782773Y163368D01*
X782846Y163246D01*
X782916Y163121D01*
X782982Y162994D01*
X783045Y162865D01*
X783105Y162735D01*
X783160Y162603D01*
X783212Y162470D01*
X783261Y162335D01*
X783305Y162199D01*
X783346Y162062D01*
X783383Y161924D01*
X783416Y161785D01*
X783446Y161645D01*
X783471Y161504D01*
X783493Y161362D01*
X783510Y161220D01*
X783524Y161078D01*
X783534Y160935D01*
X783540Y160792D01*
X783542Y160649D01*
X758142Y114158D02*
X746458Y114158D01*
X746458Y117404D01*
X746460Y117517D01*
X746466Y117630D01*
X746476Y117743D01*
X746490Y117856D01*
X746507Y117968D01*
X746529Y118079D01*
X746554Y118189D01*
X746584Y118299D01*
X746617Y118407D01*
X746654Y118514D01*
X746694Y118620D01*
X746739Y118724D01*
X746787Y118827D01*
X746838Y118928D01*
X746893Y119027D01*
X746951Y119124D01*
X747013Y119219D01*
X747078Y119312D01*
X747146Y119402D01*
X747217Y119490D01*
X747292Y119576D01*
X747369Y119659D01*
X747449Y119739D01*
X747532Y119816D01*
X747618Y119891D01*
X747706Y119962D01*
X747796Y120030D01*
X747889Y120095D01*
X747984Y120157D01*
X748081Y120215D01*
X748180Y120270D01*
X748281Y120321D01*
X748384Y120369D01*
X748488Y120414D01*
X748594Y120454D01*
X748701Y120491D01*
X748809Y120524D01*
X748919Y120554D01*
X749029Y120579D01*
X749140Y120601D01*
X749252Y120618D01*
X749365Y120632D01*
X749478Y120642D01*
X749591Y120648D01*
X749704Y120650D01*
X749817Y120648D01*
X749930Y120642D01*
X750043Y120632D01*
X750156Y120618D01*
X750268Y120601D01*
X750379Y120579D01*
X750489Y120554D01*
X750599Y120524D01*
X750707Y120491D01*
X750814Y120454D01*
X750920Y120414D01*
X751024Y120369D01*
X751127Y120321D01*
X751228Y120270D01*
X751327Y120215D01*
X751424Y120157D01*
X751519Y120095D01*
X751612Y120030D01*
X751702Y119962D01*
X751790Y119891D01*
X751876Y119816D01*
X751959Y119739D01*
X752039Y119659D01*
X752116Y119576D01*
X752191Y119490D01*
X752262Y119402D01*
X752330Y119312D01*
X752395Y119219D01*
X752457Y119124D01*
X752515Y119027D01*
X752570Y118928D01*
X752621Y118827D01*
X752669Y118724D01*
X752714Y118620D01*
X752754Y118514D01*
X752791Y118407D01*
X752824Y118299D01*
X752854Y118189D01*
X752879Y118079D01*
X752901Y117968D01*
X752918Y117856D01*
X752932Y117743D01*
X752942Y117630D01*
X752948Y117517D01*
X752950Y117404D01*
X752949Y117404D02*
X752949Y114158D01*
X752949Y118053D02*
X758142Y120649D01*
X749379Y132005D02*
X749272Y132003D01*
X749166Y131997D01*
X749060Y131987D01*
X748954Y131974D01*
X748848Y131956D01*
X748744Y131935D01*
X748640Y131910D01*
X748537Y131881D01*
X748436Y131849D01*
X748336Y131812D01*
X748237Y131772D01*
X748139Y131729D01*
X748043Y131682D01*
X747949Y131631D01*
X747857Y131577D01*
X747767Y131520D01*
X747679Y131460D01*
X747594Y131396D01*
X747511Y131329D01*
X747430Y131259D01*
X747352Y131187D01*
X747276Y131111D01*
X747204Y131033D01*
X747134Y130952D01*
X747067Y130869D01*
X747003Y130784D01*
X746943Y130696D01*
X746886Y130606D01*
X746832Y130514D01*
X746781Y130420D01*
X746734Y130324D01*
X746691Y130226D01*
X746651Y130127D01*
X746614Y130027D01*
X746582Y129926D01*
X746553Y129823D01*
X746528Y129719D01*
X746507Y129615D01*
X746489Y129509D01*
X746476Y129403D01*
X746466Y129297D01*
X746460Y129191D01*
X746458Y129084D01*
X746460Y128963D01*
X746466Y128842D01*
X746476Y128722D01*
X746489Y128601D01*
X746507Y128482D01*
X746528Y128362D01*
X746553Y128244D01*
X746582Y128127D01*
X746615Y128010D01*
X746651Y127895D01*
X746692Y127781D01*
X746735Y127668D01*
X746783Y127556D01*
X746834Y127447D01*
X746889Y127339D01*
X746947Y127232D01*
X747008Y127128D01*
X747073Y127026D01*
X747141Y126926D01*
X747212Y126828D01*
X747286Y126732D01*
X747363Y126639D01*
X747444Y126549D01*
X747527Y126461D01*
X747613Y126376D01*
X747702Y126293D01*
X747793Y126214D01*
X747887Y126137D01*
X747983Y126064D01*
X748081Y125994D01*
X748182Y125927D01*
X748285Y125863D01*
X748390Y125803D01*
X748497Y125745D01*
X748605Y125692D01*
X748715Y125642D01*
X748827Y125596D01*
X748940Y125553D01*
X749055Y125514D01*
X751651Y131031D02*
X751573Y131110D01*
X751493Y131186D01*
X751410Y131259D01*
X751324Y131329D01*
X751237Y131396D01*
X751146Y131460D01*
X751054Y131520D01*
X750960Y131578D01*
X750863Y131632D01*
X750765Y131682D01*
X750665Y131729D01*
X750564Y131773D01*
X750461Y131813D01*
X750356Y131849D01*
X750251Y131881D01*
X750144Y131910D01*
X750037Y131935D01*
X749928Y131957D01*
X749819Y131974D01*
X749710Y131988D01*
X749600Y131997D01*
X749489Y132003D01*
X749379Y132005D01*
X751651Y131032D02*
X758142Y125514D01*
X758142Y132005D01*
X752300Y136944D02*
X752070Y136947D01*
X751840Y136955D01*
X751611Y136969D01*
X751382Y136988D01*
X751153Y137013D01*
X750925Y137043D01*
X750698Y137078D01*
X750472Y137119D01*
X750247Y137165D01*
X750023Y137217D01*
X749800Y137274D01*
X749579Y137336D01*
X749359Y137404D01*
X749141Y137477D01*
X748925Y137555D01*
X748711Y137638D01*
X748499Y137726D01*
X748288Y137819D01*
X748081Y137918D01*
X747991Y137951D01*
X747902Y137987D01*
X747814Y138027D01*
X747729Y138071D01*
X747645Y138118D01*
X747563Y138168D01*
X747483Y138222D01*
X747406Y138278D01*
X747330Y138338D01*
X747257Y138401D01*
X747187Y138466D01*
X747119Y138535D01*
X747055Y138606D01*
X746993Y138679D01*
X746934Y138755D01*
X746878Y138833D01*
X746825Y138914D01*
X746776Y138996D01*
X746730Y139080D01*
X746687Y139167D01*
X746648Y139254D01*
X746612Y139344D01*
X746580Y139434D01*
X746552Y139526D01*
X746527Y139619D01*
X746506Y139713D01*
X746489Y139807D01*
X746475Y139902D01*
X746466Y139998D01*
X746460Y140094D01*
X746458Y140190D01*
X746460Y140286D01*
X746466Y140382D01*
X746475Y140478D01*
X746489Y140573D01*
X746506Y140667D01*
X746527Y140761D01*
X746552Y140854D01*
X746580Y140946D01*
X746612Y141036D01*
X746648Y141126D01*
X746687Y141214D01*
X746730Y141300D01*
X746776Y141384D01*
X746825Y141466D01*
X746878Y141547D01*
X746934Y141625D01*
X746993Y141701D01*
X747055Y141774D01*
X747119Y141845D01*
X747187Y141914D01*
X747257Y141979D01*
X747330Y142042D01*
X747406Y142102D01*
X747483Y142158D01*
X747563Y142212D01*
X747645Y142262D01*
X747729Y142309D01*
X747814Y142353D01*
X747902Y142393D01*
X747991Y142429D01*
X748081Y142462D01*
X748288Y142561D01*
X748499Y142654D01*
X748711Y142742D01*
X748925Y142825D01*
X749141Y142903D01*
X749359Y142976D01*
X749579Y143044D01*
X749800Y143106D01*
X750023Y143163D01*
X750247Y143215D01*
X750472Y143261D01*
X750698Y143302D01*
X750925Y143337D01*
X751153Y143367D01*
X751382Y143392D01*
X751611Y143411D01*
X751840Y143425D01*
X752070Y143433D01*
X752300Y143436D01*
X752300Y136944D02*
X752530Y136947D01*
X752760Y136955D01*
X752989Y136969D01*
X753218Y136988D01*
X753447Y137013D01*
X753675Y137043D01*
X753902Y137078D01*
X754128Y137119D01*
X754353Y137165D01*
X754577Y137217D01*
X754800Y137274D01*
X755021Y137336D01*
X755241Y137404D01*
X755459Y137477D01*
X755675Y137555D01*
X755889Y137638D01*
X756101Y137726D01*
X756312Y137819D01*
X756519Y137918D01*
X756609Y137951D01*
X756698Y137987D01*
X756786Y138028D01*
X756871Y138071D01*
X756955Y138118D01*
X757037Y138168D01*
X757117Y138222D01*
X757194Y138278D01*
X757270Y138338D01*
X757343Y138401D01*
X757413Y138466D01*
X757481Y138535D01*
X757545Y138606D01*
X757607Y138679D01*
X757666Y138755D01*
X757722Y138833D01*
X757775Y138914D01*
X757824Y138996D01*
X757870Y139080D01*
X757913Y139167D01*
X757952Y139254D01*
X757988Y139344D01*
X758020Y139434D01*
X758048Y139526D01*
X758073Y139619D01*
X758094Y139713D01*
X758111Y139807D01*
X758125Y139902D01*
X758134Y139998D01*
X758140Y140094D01*
X758142Y140190D01*
X756519Y142462D02*
X756312Y142561D01*
X756101Y142654D01*
X755889Y142742D01*
X755675Y142825D01*
X755459Y142903D01*
X755241Y142976D01*
X755021Y143044D01*
X754800Y143106D01*
X754577Y143163D01*
X754353Y143215D01*
X754128Y143261D01*
X753902Y143302D01*
X753675Y143337D01*
X753447Y143367D01*
X753218Y143392D01*
X752989Y143411D01*
X752760Y143425D01*
X752530Y143433D01*
X752300Y143436D01*
X756519Y142462D02*
X756609Y142429D01*
X756698Y142393D01*
X756786Y142353D01*
X756871Y142309D01*
X756955Y142262D01*
X757037Y142212D01*
X757117Y142158D01*
X757194Y142102D01*
X757270Y142042D01*
X757343Y141979D01*
X757413Y141914D01*
X757481Y141845D01*
X757545Y141774D01*
X757607Y141701D01*
X757666Y141625D01*
X757722Y141547D01*
X757775Y141466D01*
X757824Y141384D01*
X757870Y141300D01*
X757913Y141213D01*
X757952Y141126D01*
X757988Y141036D01*
X758020Y140946D01*
X758048Y140854D01*
X758073Y140761D01*
X758094Y140667D01*
X758111Y140573D01*
X758125Y140478D01*
X758134Y140382D01*
X758140Y140286D01*
X758142Y140190D01*
X755546Y137593D02*
X749054Y142786D01*
M02*
