G04 EAGLE Gerber RS-274X export*
G75*
%MOMM*%
%FSLAX34Y34*%
%LPD*%
%INSilkscreen Top*%
%IPPOS*%
%AMOC8*
5,1,8,0,0,1.08239X$1,22.5*%
G01*
%ADD10C,0.254000*%
%ADD11C,0.127000*%
%ADD12R,0.250000X0.250000*%
%ADD13C,0.200000*%


D10*
X96174Y1719434D02*
X159814Y1655794D01*
X103246Y1599226D01*
X39606Y1662866D01*
X96174Y1719434D01*
X103246Y1160814D02*
X39606Y1097174D01*
X103246Y1160814D02*
X159814Y1104246D01*
X96174Y1040606D01*
X39606Y1097174D01*
X124456Y1182024D02*
X188096Y1245664D01*
X244664Y1189096D01*
X181024Y1125456D01*
X124456Y1182024D01*
X188096Y1514366D02*
X124456Y1578006D01*
X181024Y1634574D01*
X244664Y1570934D01*
X188096Y1514366D01*
X598226Y1104246D02*
X661866Y1040606D01*
X598226Y1104246D02*
X654794Y1160814D01*
X718434Y1097174D01*
X661866Y1040606D01*
X633574Y1182024D02*
X569934Y1245664D01*
X633574Y1182024D02*
X577006Y1125456D01*
X513366Y1189096D01*
X569934Y1245664D01*
X654794Y1599226D02*
X718434Y1662866D01*
X654794Y1599226D02*
X598226Y1655794D01*
X661866Y1719434D01*
X718434Y1662866D01*
X577006Y1634574D02*
X513366Y1570934D01*
X577006Y1634574D02*
X633574Y1578006D01*
X569934Y1514366D01*
X513366Y1570934D01*
X336520Y1422520D02*
X336520Y1337520D01*
X336520Y1422520D02*
X421520Y1422520D01*
X421520Y1337520D01*
X336520Y1337520D01*
D11*
X1036000Y1663000D02*
X1056000Y1663000D01*
X1056000Y1656000D01*
X1036000Y1656000D01*
X1036000Y1663000D01*
X952154Y1672315D02*
X950285Y1670819D01*
X952154Y1672315D02*
X952154Y1665585D01*
X950285Y1665585D02*
X954024Y1665585D01*
X957746Y1665585D02*
X957746Y1672315D01*
X960737Y1670072D02*
X957746Y1667828D01*
X959055Y1668763D02*
X960737Y1665585D01*
X963725Y1665585D02*
X965968Y1665585D01*
X966044Y1665587D01*
X966119Y1665593D01*
X966195Y1665602D01*
X966269Y1665616D01*
X966343Y1665633D01*
X966416Y1665654D01*
X966488Y1665678D01*
X966558Y1665706D01*
X966627Y1665738D01*
X966694Y1665773D01*
X966759Y1665811D01*
X966823Y1665853D01*
X966884Y1665898D01*
X966942Y1665946D01*
X966999Y1665997D01*
X967052Y1666050D01*
X967103Y1666107D01*
X967151Y1666165D01*
X967196Y1666226D01*
X967238Y1666290D01*
X967276Y1666355D01*
X967311Y1666422D01*
X967343Y1666491D01*
X967371Y1666561D01*
X967395Y1666633D01*
X967416Y1666706D01*
X967433Y1666780D01*
X967447Y1666854D01*
X967456Y1666930D01*
X967462Y1667005D01*
X967464Y1667081D01*
X967464Y1667828D01*
X967462Y1667904D01*
X967456Y1667979D01*
X967447Y1668055D01*
X967433Y1668129D01*
X967416Y1668203D01*
X967395Y1668276D01*
X967371Y1668348D01*
X967343Y1668418D01*
X967311Y1668487D01*
X967276Y1668554D01*
X967238Y1668619D01*
X967196Y1668683D01*
X967151Y1668744D01*
X967103Y1668802D01*
X967052Y1668859D01*
X966999Y1668912D01*
X966942Y1668963D01*
X966884Y1669011D01*
X966823Y1669056D01*
X966759Y1669098D01*
X966694Y1669136D01*
X966627Y1669171D01*
X966558Y1669203D01*
X966488Y1669231D01*
X966416Y1669255D01*
X966343Y1669276D01*
X966269Y1669293D01*
X966195Y1669307D01*
X966119Y1669316D01*
X966044Y1669322D01*
X965968Y1669324D01*
X963725Y1669324D01*
X963725Y1672315D01*
X967464Y1672315D01*
D12*
X981000Y1652750D03*
D11*
X1035285Y1633319D02*
X1037154Y1634815D01*
X1037154Y1628085D01*
X1035285Y1628085D02*
X1039024Y1628085D01*
X1042831Y1628085D02*
X1042831Y1634815D01*
X1045074Y1631076D01*
X1047318Y1634815D01*
X1047318Y1628085D01*
D13*
X907500Y2500D02*
X712500Y2500D01*
X712500Y202500D01*
X907500Y202500D01*
X907500Y2500D01*
D11*
X875000Y187500D02*
X745000Y187500D01*
X745000Y17500D01*
X875000Y17500D01*
X875000Y187500D01*
D13*
X912500Y2500D02*
X1107500Y2500D01*
X912500Y2500D02*
X912500Y202500D01*
X1107500Y202500D01*
X1107500Y2500D01*
D11*
X1075000Y187500D02*
X945000Y187500D01*
X945000Y17500D01*
X1075000Y17500D01*
X1075000Y187500D01*
D13*
X1112500Y2500D02*
X1307500Y2500D01*
X1112500Y2500D02*
X1112500Y202500D01*
X1307500Y202500D01*
X1307500Y2500D01*
D11*
X1275000Y187500D02*
X1145000Y187500D01*
X1145000Y17500D01*
X1275000Y17500D01*
X1275000Y187500D01*
D13*
X1312500Y407500D02*
X1507500Y407500D01*
X1507500Y207500D01*
X1312500Y207500D01*
X1312500Y407500D01*
D11*
X1345000Y222500D02*
X1475000Y222500D01*
X1475000Y392500D01*
X1345000Y392500D01*
X1345000Y222500D01*
D13*
X1307500Y407500D02*
X1112500Y407500D01*
X1307500Y407500D02*
X1307500Y207500D01*
X1112500Y207500D01*
X1112500Y407500D01*
D11*
X1145000Y222500D02*
X1275000Y222500D01*
X1275000Y392500D01*
X1145000Y392500D01*
X1145000Y222500D01*
D13*
X1107500Y407500D02*
X912500Y407500D01*
X1107500Y407500D02*
X1107500Y207500D01*
X912500Y207500D01*
X912500Y407500D01*
D11*
X945000Y222500D02*
X1075000Y222500D01*
X1075000Y392500D01*
X945000Y392500D01*
X945000Y222500D01*
D13*
X907500Y412500D02*
X712500Y412500D01*
X712500Y612500D01*
X907500Y612500D01*
X907500Y412500D01*
D11*
X875000Y597500D02*
X745000Y597500D01*
X745000Y427500D01*
X875000Y427500D01*
X875000Y597500D01*
D13*
X912500Y412500D02*
X1107500Y412500D01*
X912500Y412500D02*
X912500Y612500D01*
X1107500Y612500D01*
X1107500Y412500D01*
D11*
X1075000Y597500D02*
X945000Y597500D01*
X945000Y427500D01*
X1075000Y427500D01*
X1075000Y597500D01*
D13*
X1112500Y412500D02*
X1307500Y412500D01*
X1112500Y412500D02*
X1112500Y612500D01*
X1307500Y612500D01*
X1307500Y412500D01*
D11*
X1275000Y597500D02*
X1145000Y597500D01*
X1145000Y427500D01*
X1275000Y427500D01*
X1275000Y597500D01*
D13*
X1312500Y817500D02*
X1507500Y817500D01*
X1507500Y617500D01*
X1312500Y617500D01*
X1312500Y817500D01*
D11*
X1345000Y632500D02*
X1475000Y632500D01*
X1475000Y802500D01*
X1345000Y802500D01*
X1345000Y632500D01*
D13*
X1307500Y817500D02*
X1112500Y817500D01*
X1307500Y817500D02*
X1307500Y617500D01*
X1112500Y617500D01*
X1112500Y817500D01*
D11*
X1145000Y632500D02*
X1275000Y632500D01*
X1275000Y802500D01*
X1145000Y802500D01*
X1145000Y632500D01*
D13*
X1107500Y817500D02*
X912500Y817500D01*
X1107500Y817500D02*
X1107500Y617500D01*
X912500Y617500D01*
X912500Y817500D01*
D11*
X945000Y632500D02*
X1075000Y632500D01*
X1075000Y802500D01*
X945000Y802500D01*
X945000Y632500D01*
D13*
X907500Y817500D02*
X712500Y817500D01*
X907500Y817500D02*
X907500Y617500D01*
X712500Y617500D01*
X712500Y817500D01*
D11*
X745000Y632500D02*
X875000Y632500D01*
X875000Y802500D01*
X745000Y802500D01*
X745000Y632500D01*
D13*
X1312500Y412500D02*
X1507500Y412500D01*
X1312500Y412500D02*
X1312500Y612500D01*
X1507500Y612500D01*
X1507500Y412500D01*
D11*
X1475000Y597500D02*
X1345000Y597500D01*
X1345000Y427500D01*
X1475000Y427500D01*
X1475000Y597500D01*
D13*
X907500Y407500D02*
X712500Y407500D01*
X907500Y407500D02*
X907500Y207500D01*
X712500Y207500D01*
X712500Y407500D01*
D11*
X745000Y222500D02*
X875000Y222500D01*
X875000Y392500D01*
X745000Y392500D01*
X745000Y222500D01*
D13*
X1312500Y2500D02*
X1507500Y2500D01*
X1312500Y2500D02*
X1312500Y202500D01*
X1507500Y202500D01*
X1507500Y2500D01*
D11*
X1475000Y187500D02*
X1345000Y187500D01*
X1345000Y17500D01*
X1475000Y17500D01*
X1475000Y187500D01*
M02*
