G04 EAGLE Gerber RS-274X export*
G75*
%MOMM*%
%FSLAX34Y34*%
%LPD*%
%INSilkscreen Bottom*%
%IPPOS*%
%AMOC8*
5,1,8,0,0,1.08239X$1,22.5*%
G01*
%ADD10C,0.101600*%


D10*
X98892Y155099D02*
X95646Y155099D01*
X95646Y155100D02*
X95533Y155098D01*
X95420Y155092D01*
X95307Y155082D01*
X95194Y155068D01*
X95082Y155051D01*
X94971Y155029D01*
X94861Y155004D01*
X94751Y154974D01*
X94643Y154941D01*
X94536Y154904D01*
X94430Y154864D01*
X94326Y154819D01*
X94223Y154771D01*
X94122Y154720D01*
X94023Y154665D01*
X93926Y154607D01*
X93831Y154545D01*
X93738Y154480D01*
X93648Y154412D01*
X93560Y154341D01*
X93474Y154266D01*
X93391Y154189D01*
X93311Y154109D01*
X93234Y154026D01*
X93159Y153940D01*
X93088Y153852D01*
X93020Y153762D01*
X92955Y153669D01*
X92893Y153574D01*
X92835Y153477D01*
X92780Y153378D01*
X92729Y153277D01*
X92681Y153174D01*
X92636Y153070D01*
X92596Y152964D01*
X92559Y152857D01*
X92526Y152749D01*
X92496Y152639D01*
X92471Y152529D01*
X92449Y152418D01*
X92432Y152306D01*
X92418Y152193D01*
X92408Y152080D01*
X92402Y151967D01*
X92400Y151854D01*
X92402Y151741D01*
X92408Y151628D01*
X92418Y151515D01*
X92432Y151402D01*
X92449Y151290D01*
X92471Y151179D01*
X92496Y151069D01*
X92526Y150959D01*
X92559Y150851D01*
X92596Y150744D01*
X92636Y150638D01*
X92681Y150534D01*
X92729Y150431D01*
X92780Y150330D01*
X92835Y150231D01*
X92893Y150134D01*
X92955Y150039D01*
X93020Y149946D01*
X93088Y149856D01*
X93159Y149768D01*
X93234Y149682D01*
X93311Y149599D01*
X93391Y149519D01*
X93474Y149442D01*
X93560Y149367D01*
X93648Y149296D01*
X93738Y149228D01*
X93831Y149163D01*
X93926Y149101D01*
X94023Y149043D01*
X94122Y148988D01*
X94223Y148937D01*
X94326Y148889D01*
X94430Y148844D01*
X94536Y148804D01*
X94643Y148767D01*
X94751Y148734D01*
X94861Y148704D01*
X94971Y148679D01*
X95082Y148657D01*
X95194Y148640D01*
X95307Y148626D01*
X95420Y148616D01*
X95533Y148610D01*
X95646Y148608D01*
X98892Y148608D01*
X98892Y160292D01*
X95646Y160292D01*
X95545Y160290D01*
X95445Y160284D01*
X95345Y160274D01*
X95245Y160261D01*
X95146Y160243D01*
X95047Y160222D01*
X94950Y160197D01*
X94853Y160168D01*
X94758Y160135D01*
X94664Y160099D01*
X94572Y160059D01*
X94481Y160016D01*
X94392Y159969D01*
X94305Y159919D01*
X94219Y159865D01*
X94136Y159808D01*
X94056Y159748D01*
X93977Y159685D01*
X93901Y159618D01*
X93828Y159549D01*
X93758Y159477D01*
X93690Y159403D01*
X93625Y159326D01*
X93564Y159246D01*
X93505Y159164D01*
X93450Y159080D01*
X93398Y158994D01*
X93349Y158906D01*
X93304Y158816D01*
X93262Y158724D01*
X93224Y158631D01*
X93190Y158536D01*
X93159Y158441D01*
X93132Y158344D01*
X93109Y158246D01*
X93089Y158147D01*
X93074Y158047D01*
X93062Y157947D01*
X93054Y157847D01*
X93050Y157746D01*
X93050Y157646D01*
X93054Y157545D01*
X93062Y157445D01*
X93074Y157345D01*
X93089Y157245D01*
X93109Y157146D01*
X93132Y157048D01*
X93159Y156951D01*
X93190Y156856D01*
X93224Y156761D01*
X93262Y156668D01*
X93304Y156576D01*
X93349Y156486D01*
X93398Y156398D01*
X93450Y156312D01*
X93505Y156228D01*
X93564Y156146D01*
X93625Y156066D01*
X93690Y155989D01*
X93758Y155915D01*
X93828Y155843D01*
X93901Y155774D01*
X93977Y155707D01*
X94056Y155644D01*
X94136Y155584D01*
X94219Y155527D01*
X94305Y155473D01*
X94392Y155423D01*
X94481Y155376D01*
X94572Y155333D01*
X94664Y155293D01*
X94758Y155257D01*
X94853Y155224D01*
X94950Y155195D01*
X95047Y155170D01*
X95146Y155149D01*
X95245Y155131D01*
X95345Y155118D01*
X95445Y155108D01*
X95545Y155102D01*
X95646Y155100D01*
X87899Y153152D02*
X80110Y153152D01*
X84005Y157046D02*
X84005Y149257D01*
X75058Y157696D02*
X71813Y160292D01*
X71813Y148608D01*
X75058Y148608D02*
X68567Y148608D01*
X196646Y155099D02*
X199892Y155099D01*
X196646Y155100D02*
X196533Y155098D01*
X196420Y155092D01*
X196307Y155082D01*
X196194Y155068D01*
X196082Y155051D01*
X195971Y155029D01*
X195861Y155004D01*
X195751Y154974D01*
X195643Y154941D01*
X195536Y154904D01*
X195430Y154864D01*
X195326Y154819D01*
X195223Y154771D01*
X195122Y154720D01*
X195023Y154665D01*
X194926Y154607D01*
X194831Y154545D01*
X194738Y154480D01*
X194648Y154412D01*
X194560Y154341D01*
X194474Y154266D01*
X194391Y154189D01*
X194311Y154109D01*
X194234Y154026D01*
X194159Y153940D01*
X194088Y153852D01*
X194020Y153762D01*
X193955Y153669D01*
X193893Y153574D01*
X193835Y153477D01*
X193780Y153378D01*
X193729Y153277D01*
X193681Y153174D01*
X193636Y153070D01*
X193596Y152964D01*
X193559Y152857D01*
X193526Y152749D01*
X193496Y152639D01*
X193471Y152529D01*
X193449Y152418D01*
X193432Y152306D01*
X193418Y152193D01*
X193408Y152080D01*
X193402Y151967D01*
X193400Y151854D01*
X193402Y151741D01*
X193408Y151628D01*
X193418Y151515D01*
X193432Y151402D01*
X193449Y151290D01*
X193471Y151179D01*
X193496Y151069D01*
X193526Y150959D01*
X193559Y150851D01*
X193596Y150744D01*
X193636Y150638D01*
X193681Y150534D01*
X193729Y150431D01*
X193780Y150330D01*
X193835Y150231D01*
X193893Y150134D01*
X193955Y150039D01*
X194020Y149946D01*
X194088Y149856D01*
X194159Y149768D01*
X194234Y149682D01*
X194311Y149599D01*
X194391Y149519D01*
X194474Y149442D01*
X194560Y149367D01*
X194648Y149296D01*
X194738Y149228D01*
X194831Y149163D01*
X194926Y149101D01*
X195023Y149043D01*
X195122Y148988D01*
X195223Y148937D01*
X195326Y148889D01*
X195430Y148844D01*
X195536Y148804D01*
X195643Y148767D01*
X195751Y148734D01*
X195861Y148704D01*
X195971Y148679D01*
X196082Y148657D01*
X196194Y148640D01*
X196307Y148626D01*
X196420Y148616D01*
X196533Y148610D01*
X196646Y148608D01*
X199892Y148608D01*
X199892Y160292D01*
X196646Y160292D01*
X196545Y160290D01*
X196445Y160284D01*
X196345Y160274D01*
X196245Y160261D01*
X196146Y160243D01*
X196047Y160222D01*
X195950Y160197D01*
X195853Y160168D01*
X195758Y160135D01*
X195664Y160099D01*
X195572Y160059D01*
X195481Y160016D01*
X195392Y159969D01*
X195305Y159919D01*
X195219Y159865D01*
X195136Y159808D01*
X195056Y159748D01*
X194977Y159685D01*
X194901Y159618D01*
X194828Y159549D01*
X194758Y159477D01*
X194690Y159403D01*
X194625Y159326D01*
X194564Y159246D01*
X194505Y159164D01*
X194450Y159080D01*
X194398Y158994D01*
X194349Y158906D01*
X194304Y158816D01*
X194262Y158724D01*
X194224Y158631D01*
X194190Y158536D01*
X194159Y158441D01*
X194132Y158344D01*
X194109Y158246D01*
X194089Y158147D01*
X194074Y158047D01*
X194062Y157947D01*
X194054Y157847D01*
X194050Y157746D01*
X194050Y157646D01*
X194054Y157545D01*
X194062Y157445D01*
X194074Y157345D01*
X194089Y157245D01*
X194109Y157146D01*
X194132Y157048D01*
X194159Y156951D01*
X194190Y156856D01*
X194224Y156761D01*
X194262Y156668D01*
X194304Y156576D01*
X194349Y156486D01*
X194398Y156398D01*
X194450Y156312D01*
X194505Y156228D01*
X194564Y156146D01*
X194625Y156066D01*
X194690Y155989D01*
X194758Y155915D01*
X194828Y155843D01*
X194901Y155774D01*
X194977Y155707D01*
X195056Y155644D01*
X195136Y155584D01*
X195219Y155527D01*
X195305Y155473D01*
X195392Y155423D01*
X195481Y155376D01*
X195572Y155333D01*
X195664Y155293D01*
X195758Y155257D01*
X195853Y155224D01*
X195950Y155195D01*
X196047Y155170D01*
X196146Y155149D01*
X196245Y155131D01*
X196345Y155118D01*
X196445Y155108D01*
X196545Y155102D01*
X196646Y155100D01*
X186449Y148608D02*
X183853Y148608D01*
X186449Y148608D02*
X186548Y148610D01*
X186648Y148616D01*
X186747Y148625D01*
X186845Y148638D01*
X186943Y148655D01*
X187041Y148676D01*
X187137Y148701D01*
X187232Y148729D01*
X187326Y148761D01*
X187419Y148796D01*
X187511Y148835D01*
X187601Y148878D01*
X187689Y148923D01*
X187776Y148973D01*
X187860Y149025D01*
X187943Y149081D01*
X188023Y149139D01*
X188101Y149201D01*
X188176Y149266D01*
X188249Y149334D01*
X188319Y149404D01*
X188387Y149477D01*
X188452Y149552D01*
X188514Y149630D01*
X188572Y149710D01*
X188628Y149793D01*
X188680Y149877D01*
X188730Y149964D01*
X188775Y150052D01*
X188818Y150142D01*
X188857Y150234D01*
X188892Y150327D01*
X188924Y150421D01*
X188952Y150516D01*
X188977Y150612D01*
X188998Y150710D01*
X189015Y150808D01*
X189028Y150906D01*
X189037Y151005D01*
X189043Y151105D01*
X189045Y151204D01*
X189046Y151204D02*
X189046Y157696D01*
X189045Y157696D02*
X189043Y157795D01*
X189037Y157895D01*
X189028Y157994D01*
X189015Y158092D01*
X188998Y158190D01*
X188977Y158288D01*
X188952Y158384D01*
X188924Y158479D01*
X188892Y158573D01*
X188857Y158666D01*
X188818Y158758D01*
X188775Y158848D01*
X188730Y158936D01*
X188680Y159023D01*
X188628Y159107D01*
X188572Y159190D01*
X188514Y159270D01*
X188452Y159348D01*
X188387Y159423D01*
X188319Y159496D01*
X188249Y159566D01*
X188176Y159634D01*
X188101Y159699D01*
X188023Y159761D01*
X187943Y159819D01*
X187860Y159875D01*
X187776Y159927D01*
X187689Y159977D01*
X187601Y160022D01*
X187511Y160065D01*
X187419Y160104D01*
X187326Y160139D01*
X187232Y160171D01*
X187137Y160199D01*
X187041Y160224D01*
X186943Y160245D01*
X186845Y160262D01*
X186747Y160275D01*
X186648Y160284D01*
X186548Y160290D01*
X186449Y160292D01*
X183853Y160292D01*
X179487Y157696D02*
X176242Y160292D01*
X176242Y148608D01*
X179487Y148608D02*
X172996Y148608D01*
X297646Y155099D02*
X300892Y155099D01*
X297646Y155100D02*
X297533Y155098D01*
X297420Y155092D01*
X297307Y155082D01*
X297194Y155068D01*
X297082Y155051D01*
X296971Y155029D01*
X296861Y155004D01*
X296751Y154974D01*
X296643Y154941D01*
X296536Y154904D01*
X296430Y154864D01*
X296326Y154819D01*
X296223Y154771D01*
X296122Y154720D01*
X296023Y154665D01*
X295926Y154607D01*
X295831Y154545D01*
X295738Y154480D01*
X295648Y154412D01*
X295560Y154341D01*
X295474Y154266D01*
X295391Y154189D01*
X295311Y154109D01*
X295234Y154026D01*
X295159Y153940D01*
X295088Y153852D01*
X295020Y153762D01*
X294955Y153669D01*
X294893Y153574D01*
X294835Y153477D01*
X294780Y153378D01*
X294729Y153277D01*
X294681Y153174D01*
X294636Y153070D01*
X294596Y152964D01*
X294559Y152857D01*
X294526Y152749D01*
X294496Y152639D01*
X294471Y152529D01*
X294449Y152418D01*
X294432Y152306D01*
X294418Y152193D01*
X294408Y152080D01*
X294402Y151967D01*
X294400Y151854D01*
X294402Y151741D01*
X294408Y151628D01*
X294418Y151515D01*
X294432Y151402D01*
X294449Y151290D01*
X294471Y151179D01*
X294496Y151069D01*
X294526Y150959D01*
X294559Y150851D01*
X294596Y150744D01*
X294636Y150638D01*
X294681Y150534D01*
X294729Y150431D01*
X294780Y150330D01*
X294835Y150231D01*
X294893Y150134D01*
X294955Y150039D01*
X295020Y149946D01*
X295088Y149856D01*
X295159Y149768D01*
X295234Y149682D01*
X295311Y149599D01*
X295391Y149519D01*
X295474Y149442D01*
X295560Y149367D01*
X295648Y149296D01*
X295738Y149228D01*
X295831Y149163D01*
X295926Y149101D01*
X296023Y149043D01*
X296122Y148988D01*
X296223Y148937D01*
X296326Y148889D01*
X296430Y148844D01*
X296536Y148804D01*
X296643Y148767D01*
X296751Y148734D01*
X296861Y148704D01*
X296971Y148679D01*
X297082Y148657D01*
X297194Y148640D01*
X297307Y148626D01*
X297420Y148616D01*
X297533Y148610D01*
X297646Y148608D01*
X300892Y148608D01*
X300892Y160292D01*
X297646Y160292D01*
X297545Y160290D01*
X297445Y160284D01*
X297345Y160274D01*
X297245Y160261D01*
X297146Y160243D01*
X297047Y160222D01*
X296950Y160197D01*
X296853Y160168D01*
X296758Y160135D01*
X296664Y160099D01*
X296572Y160059D01*
X296481Y160016D01*
X296392Y159969D01*
X296305Y159919D01*
X296219Y159865D01*
X296136Y159808D01*
X296056Y159748D01*
X295977Y159685D01*
X295901Y159618D01*
X295828Y159549D01*
X295758Y159477D01*
X295690Y159403D01*
X295625Y159326D01*
X295564Y159246D01*
X295505Y159164D01*
X295450Y159080D01*
X295398Y158994D01*
X295349Y158906D01*
X295304Y158816D01*
X295262Y158724D01*
X295224Y158631D01*
X295190Y158536D01*
X295159Y158441D01*
X295132Y158344D01*
X295109Y158246D01*
X295089Y158147D01*
X295074Y158047D01*
X295062Y157947D01*
X295054Y157847D01*
X295050Y157746D01*
X295050Y157646D01*
X295054Y157545D01*
X295062Y157445D01*
X295074Y157345D01*
X295089Y157245D01*
X295109Y157146D01*
X295132Y157048D01*
X295159Y156951D01*
X295190Y156856D01*
X295224Y156761D01*
X295262Y156668D01*
X295304Y156576D01*
X295349Y156486D01*
X295398Y156398D01*
X295450Y156312D01*
X295505Y156228D01*
X295564Y156146D01*
X295625Y156066D01*
X295690Y155989D01*
X295758Y155915D01*
X295828Y155843D01*
X295901Y155774D01*
X295977Y155707D01*
X296056Y155644D01*
X296136Y155584D01*
X296219Y155527D01*
X296305Y155473D01*
X296392Y155423D01*
X296481Y155376D01*
X296572Y155333D01*
X296664Y155293D01*
X296758Y155257D01*
X296853Y155224D01*
X296950Y155195D01*
X297047Y155170D01*
X297146Y155149D01*
X297245Y155131D01*
X297345Y155118D01*
X297445Y155108D01*
X297545Y155102D01*
X297646Y155100D01*
X289899Y153152D02*
X282110Y153152D01*
X277058Y157696D02*
X273813Y160292D01*
X273813Y148608D01*
X277058Y148608D02*
X270567Y148608D01*
X497646Y150099D02*
X500892Y150099D01*
X497646Y150100D02*
X497533Y150098D01*
X497420Y150092D01*
X497307Y150082D01*
X497194Y150068D01*
X497082Y150051D01*
X496971Y150029D01*
X496861Y150004D01*
X496751Y149974D01*
X496643Y149941D01*
X496536Y149904D01*
X496430Y149864D01*
X496326Y149819D01*
X496223Y149771D01*
X496122Y149720D01*
X496023Y149665D01*
X495926Y149607D01*
X495831Y149545D01*
X495738Y149480D01*
X495648Y149412D01*
X495560Y149341D01*
X495474Y149266D01*
X495391Y149189D01*
X495311Y149109D01*
X495234Y149026D01*
X495159Y148940D01*
X495088Y148852D01*
X495020Y148762D01*
X494955Y148669D01*
X494893Y148574D01*
X494835Y148477D01*
X494780Y148378D01*
X494729Y148277D01*
X494681Y148174D01*
X494636Y148070D01*
X494596Y147964D01*
X494559Y147857D01*
X494526Y147749D01*
X494496Y147639D01*
X494471Y147529D01*
X494449Y147418D01*
X494432Y147306D01*
X494418Y147193D01*
X494408Y147080D01*
X494402Y146967D01*
X494400Y146854D01*
X494402Y146741D01*
X494408Y146628D01*
X494418Y146515D01*
X494432Y146402D01*
X494449Y146290D01*
X494471Y146179D01*
X494496Y146069D01*
X494526Y145959D01*
X494559Y145851D01*
X494596Y145744D01*
X494636Y145638D01*
X494681Y145534D01*
X494729Y145431D01*
X494780Y145330D01*
X494835Y145231D01*
X494893Y145134D01*
X494955Y145039D01*
X495020Y144946D01*
X495088Y144856D01*
X495159Y144768D01*
X495234Y144682D01*
X495311Y144599D01*
X495391Y144519D01*
X495474Y144442D01*
X495560Y144367D01*
X495648Y144296D01*
X495738Y144228D01*
X495831Y144163D01*
X495926Y144101D01*
X496023Y144043D01*
X496122Y143988D01*
X496223Y143937D01*
X496326Y143889D01*
X496430Y143844D01*
X496536Y143804D01*
X496643Y143767D01*
X496751Y143734D01*
X496861Y143704D01*
X496971Y143679D01*
X497082Y143657D01*
X497194Y143640D01*
X497307Y143626D01*
X497420Y143616D01*
X497533Y143610D01*
X497646Y143608D01*
X500892Y143608D01*
X500892Y155292D01*
X497646Y155292D01*
X497545Y155290D01*
X497445Y155284D01*
X497345Y155274D01*
X497245Y155261D01*
X497146Y155243D01*
X497047Y155222D01*
X496950Y155197D01*
X496853Y155168D01*
X496758Y155135D01*
X496664Y155099D01*
X496572Y155059D01*
X496481Y155016D01*
X496392Y154969D01*
X496305Y154919D01*
X496219Y154865D01*
X496136Y154808D01*
X496056Y154748D01*
X495977Y154685D01*
X495901Y154618D01*
X495828Y154549D01*
X495758Y154477D01*
X495690Y154403D01*
X495625Y154326D01*
X495564Y154246D01*
X495505Y154164D01*
X495450Y154080D01*
X495398Y153994D01*
X495349Y153906D01*
X495304Y153816D01*
X495262Y153724D01*
X495224Y153631D01*
X495190Y153536D01*
X495159Y153441D01*
X495132Y153344D01*
X495109Y153246D01*
X495089Y153147D01*
X495074Y153047D01*
X495062Y152947D01*
X495054Y152847D01*
X495050Y152746D01*
X495050Y152646D01*
X495054Y152545D01*
X495062Y152445D01*
X495074Y152345D01*
X495089Y152245D01*
X495109Y152146D01*
X495132Y152048D01*
X495159Y151951D01*
X495190Y151856D01*
X495224Y151761D01*
X495262Y151668D01*
X495304Y151576D01*
X495349Y151486D01*
X495398Y151398D01*
X495450Y151312D01*
X495505Y151228D01*
X495564Y151146D01*
X495625Y151066D01*
X495690Y150989D01*
X495758Y150915D01*
X495828Y150843D01*
X495901Y150774D01*
X495977Y150707D01*
X496056Y150644D01*
X496136Y150584D01*
X496219Y150527D01*
X496305Y150473D01*
X496392Y150423D01*
X496481Y150376D01*
X496572Y150333D01*
X496664Y150293D01*
X496758Y150257D01*
X496853Y150224D01*
X496950Y150195D01*
X497047Y150170D01*
X497146Y150149D01*
X497245Y150131D01*
X497345Y150118D01*
X497445Y150108D01*
X497545Y150102D01*
X497646Y150100D01*
X489899Y148152D02*
X482110Y148152D01*
X486005Y152046D02*
X486005Y144257D01*
X473488Y155292D02*
X473381Y155290D01*
X473275Y155284D01*
X473169Y155274D01*
X473063Y155261D01*
X472957Y155243D01*
X472853Y155222D01*
X472749Y155197D01*
X472646Y155168D01*
X472545Y155136D01*
X472445Y155099D01*
X472346Y155059D01*
X472248Y155016D01*
X472152Y154969D01*
X472058Y154918D01*
X471966Y154864D01*
X471876Y154807D01*
X471788Y154747D01*
X471703Y154683D01*
X471620Y154616D01*
X471539Y154546D01*
X471461Y154474D01*
X471385Y154398D01*
X471313Y154320D01*
X471243Y154239D01*
X471176Y154156D01*
X471112Y154071D01*
X471052Y153983D01*
X470995Y153893D01*
X470941Y153801D01*
X470890Y153707D01*
X470843Y153611D01*
X470800Y153513D01*
X470760Y153414D01*
X470723Y153314D01*
X470691Y153213D01*
X470662Y153110D01*
X470637Y153006D01*
X470616Y152902D01*
X470598Y152796D01*
X470585Y152690D01*
X470575Y152584D01*
X470569Y152478D01*
X470567Y152371D01*
X473488Y155292D02*
X473609Y155290D01*
X473730Y155284D01*
X473850Y155274D01*
X473971Y155261D01*
X474090Y155243D01*
X474210Y155222D01*
X474328Y155197D01*
X474445Y155168D01*
X474562Y155135D01*
X474677Y155099D01*
X474791Y155058D01*
X474904Y155015D01*
X475016Y154967D01*
X475125Y154916D01*
X475233Y154861D01*
X475340Y154803D01*
X475444Y154742D01*
X475546Y154677D01*
X475646Y154609D01*
X475744Y154538D01*
X475840Y154464D01*
X475933Y154387D01*
X476023Y154306D01*
X476111Y154223D01*
X476196Y154137D01*
X476279Y154048D01*
X476358Y153957D01*
X476435Y153863D01*
X476508Y153767D01*
X476578Y153669D01*
X476645Y153568D01*
X476709Y153465D01*
X476770Y153360D01*
X476827Y153253D01*
X476880Y153145D01*
X476930Y153035D01*
X476976Y152923D01*
X477019Y152810D01*
X477058Y152695D01*
X471542Y150099D02*
X471463Y150177D01*
X471387Y150257D01*
X471314Y150340D01*
X471244Y150426D01*
X471177Y150513D01*
X471113Y150604D01*
X471053Y150696D01*
X470995Y150790D01*
X470941Y150887D01*
X470891Y150985D01*
X470844Y151085D01*
X470800Y151186D01*
X470760Y151289D01*
X470724Y151394D01*
X470692Y151499D01*
X470663Y151606D01*
X470638Y151713D01*
X470616Y151822D01*
X470599Y151931D01*
X470585Y152040D01*
X470576Y152150D01*
X470570Y152261D01*
X470568Y152371D01*
X471541Y150099D02*
X477058Y143608D01*
X470567Y143608D01*
X599146Y155099D02*
X602392Y155099D01*
X599146Y155100D02*
X599033Y155098D01*
X598920Y155092D01*
X598807Y155082D01*
X598694Y155068D01*
X598582Y155051D01*
X598471Y155029D01*
X598361Y155004D01*
X598251Y154974D01*
X598143Y154941D01*
X598036Y154904D01*
X597930Y154864D01*
X597826Y154819D01*
X597723Y154771D01*
X597622Y154720D01*
X597523Y154665D01*
X597426Y154607D01*
X597331Y154545D01*
X597238Y154480D01*
X597148Y154412D01*
X597060Y154341D01*
X596974Y154266D01*
X596891Y154189D01*
X596811Y154109D01*
X596734Y154026D01*
X596659Y153940D01*
X596588Y153852D01*
X596520Y153762D01*
X596455Y153669D01*
X596393Y153574D01*
X596335Y153477D01*
X596280Y153378D01*
X596229Y153277D01*
X596181Y153174D01*
X596136Y153070D01*
X596096Y152964D01*
X596059Y152857D01*
X596026Y152749D01*
X595996Y152639D01*
X595971Y152529D01*
X595949Y152418D01*
X595932Y152306D01*
X595918Y152193D01*
X595908Y152080D01*
X595902Y151967D01*
X595900Y151854D01*
X595902Y151741D01*
X595908Y151628D01*
X595918Y151515D01*
X595932Y151402D01*
X595949Y151290D01*
X595971Y151179D01*
X595996Y151069D01*
X596026Y150959D01*
X596059Y150851D01*
X596096Y150744D01*
X596136Y150638D01*
X596181Y150534D01*
X596229Y150431D01*
X596280Y150330D01*
X596335Y150231D01*
X596393Y150134D01*
X596455Y150039D01*
X596520Y149946D01*
X596588Y149856D01*
X596659Y149768D01*
X596734Y149682D01*
X596811Y149599D01*
X596891Y149519D01*
X596974Y149442D01*
X597060Y149367D01*
X597148Y149296D01*
X597238Y149228D01*
X597331Y149163D01*
X597426Y149101D01*
X597523Y149043D01*
X597622Y148988D01*
X597723Y148937D01*
X597826Y148889D01*
X597930Y148844D01*
X598036Y148804D01*
X598143Y148767D01*
X598251Y148734D01*
X598361Y148704D01*
X598471Y148679D01*
X598582Y148657D01*
X598694Y148640D01*
X598807Y148626D01*
X598920Y148616D01*
X599033Y148610D01*
X599146Y148608D01*
X602392Y148608D01*
X602392Y160292D01*
X599146Y160292D01*
X599045Y160290D01*
X598945Y160284D01*
X598845Y160274D01*
X598745Y160261D01*
X598646Y160243D01*
X598547Y160222D01*
X598450Y160197D01*
X598353Y160168D01*
X598258Y160135D01*
X598164Y160099D01*
X598072Y160059D01*
X597981Y160016D01*
X597892Y159969D01*
X597805Y159919D01*
X597719Y159865D01*
X597636Y159808D01*
X597556Y159748D01*
X597477Y159685D01*
X597401Y159618D01*
X597328Y159549D01*
X597258Y159477D01*
X597190Y159403D01*
X597125Y159326D01*
X597064Y159246D01*
X597005Y159164D01*
X596950Y159080D01*
X596898Y158994D01*
X596849Y158906D01*
X596804Y158816D01*
X596762Y158724D01*
X596724Y158631D01*
X596690Y158536D01*
X596659Y158441D01*
X596632Y158344D01*
X596609Y158246D01*
X596589Y158147D01*
X596574Y158047D01*
X596562Y157947D01*
X596554Y157847D01*
X596550Y157746D01*
X596550Y157646D01*
X596554Y157545D01*
X596562Y157445D01*
X596574Y157345D01*
X596589Y157245D01*
X596609Y157146D01*
X596632Y157048D01*
X596659Y156951D01*
X596690Y156856D01*
X596724Y156761D01*
X596762Y156668D01*
X596804Y156576D01*
X596849Y156486D01*
X596898Y156398D01*
X596950Y156312D01*
X597005Y156228D01*
X597064Y156146D01*
X597125Y156066D01*
X597190Y155989D01*
X597258Y155915D01*
X597328Y155843D01*
X597401Y155774D01*
X597477Y155707D01*
X597556Y155644D01*
X597636Y155584D01*
X597719Y155527D01*
X597805Y155473D01*
X597892Y155423D01*
X597981Y155376D01*
X598072Y155333D01*
X598164Y155293D01*
X598258Y155257D01*
X598353Y155224D01*
X598450Y155195D01*
X598547Y155170D01*
X598646Y155149D01*
X598745Y155131D01*
X598845Y155118D01*
X598945Y155108D01*
X599045Y155102D01*
X599146Y155100D01*
X588949Y148608D02*
X586353Y148608D01*
X588949Y148608D02*
X589048Y148610D01*
X589148Y148616D01*
X589247Y148625D01*
X589345Y148638D01*
X589443Y148655D01*
X589541Y148676D01*
X589637Y148701D01*
X589732Y148729D01*
X589826Y148761D01*
X589919Y148796D01*
X590011Y148835D01*
X590101Y148878D01*
X590189Y148923D01*
X590276Y148973D01*
X590360Y149025D01*
X590443Y149081D01*
X590523Y149139D01*
X590601Y149201D01*
X590676Y149266D01*
X590749Y149334D01*
X590819Y149404D01*
X590887Y149477D01*
X590952Y149552D01*
X591014Y149630D01*
X591072Y149710D01*
X591128Y149793D01*
X591180Y149877D01*
X591230Y149964D01*
X591275Y150052D01*
X591318Y150142D01*
X591357Y150234D01*
X591392Y150327D01*
X591424Y150421D01*
X591452Y150516D01*
X591477Y150612D01*
X591498Y150710D01*
X591515Y150808D01*
X591528Y150906D01*
X591537Y151005D01*
X591543Y151105D01*
X591545Y151204D01*
X591546Y151204D02*
X591546Y157696D01*
X591545Y157696D02*
X591543Y157795D01*
X591537Y157895D01*
X591528Y157994D01*
X591515Y158092D01*
X591498Y158190D01*
X591477Y158288D01*
X591452Y158384D01*
X591424Y158479D01*
X591392Y158573D01*
X591357Y158666D01*
X591318Y158758D01*
X591275Y158848D01*
X591230Y158936D01*
X591180Y159023D01*
X591128Y159107D01*
X591072Y159190D01*
X591014Y159270D01*
X590952Y159348D01*
X590887Y159423D01*
X590819Y159496D01*
X590749Y159566D01*
X590676Y159634D01*
X590601Y159699D01*
X590523Y159761D01*
X590443Y159819D01*
X590360Y159875D01*
X590276Y159927D01*
X590189Y159977D01*
X590101Y160022D01*
X590011Y160065D01*
X589919Y160104D01*
X589826Y160139D01*
X589732Y160171D01*
X589637Y160199D01*
X589541Y160224D01*
X589443Y160245D01*
X589345Y160262D01*
X589247Y160275D01*
X589148Y160284D01*
X589048Y160290D01*
X588949Y160292D01*
X586353Y160292D01*
X578417Y160292D02*
X578310Y160290D01*
X578204Y160284D01*
X578098Y160274D01*
X577992Y160261D01*
X577886Y160243D01*
X577782Y160222D01*
X577678Y160197D01*
X577575Y160168D01*
X577474Y160136D01*
X577374Y160099D01*
X577275Y160059D01*
X577177Y160016D01*
X577081Y159969D01*
X576987Y159918D01*
X576895Y159864D01*
X576805Y159807D01*
X576717Y159747D01*
X576632Y159683D01*
X576549Y159616D01*
X576468Y159546D01*
X576390Y159474D01*
X576314Y159398D01*
X576242Y159320D01*
X576172Y159239D01*
X576105Y159156D01*
X576041Y159071D01*
X575981Y158983D01*
X575924Y158893D01*
X575870Y158801D01*
X575819Y158707D01*
X575772Y158611D01*
X575729Y158513D01*
X575689Y158414D01*
X575652Y158314D01*
X575620Y158213D01*
X575591Y158110D01*
X575566Y158006D01*
X575545Y157902D01*
X575527Y157796D01*
X575514Y157690D01*
X575504Y157584D01*
X575498Y157478D01*
X575496Y157371D01*
X578417Y160292D02*
X578538Y160290D01*
X578659Y160284D01*
X578779Y160274D01*
X578900Y160261D01*
X579019Y160243D01*
X579139Y160222D01*
X579257Y160197D01*
X579374Y160168D01*
X579491Y160135D01*
X579606Y160099D01*
X579720Y160058D01*
X579833Y160015D01*
X579945Y159967D01*
X580054Y159916D01*
X580162Y159861D01*
X580269Y159803D01*
X580373Y159742D01*
X580475Y159677D01*
X580575Y159609D01*
X580673Y159538D01*
X580769Y159464D01*
X580862Y159387D01*
X580952Y159306D01*
X581040Y159223D01*
X581125Y159137D01*
X581208Y159048D01*
X581287Y158957D01*
X581364Y158863D01*
X581437Y158767D01*
X581507Y158669D01*
X581574Y158568D01*
X581638Y158465D01*
X581699Y158360D01*
X581756Y158253D01*
X581809Y158145D01*
X581859Y158035D01*
X581905Y157923D01*
X581948Y157810D01*
X581987Y157695D01*
X576471Y155099D02*
X576392Y155177D01*
X576316Y155257D01*
X576243Y155340D01*
X576173Y155426D01*
X576106Y155513D01*
X576042Y155604D01*
X575982Y155696D01*
X575924Y155790D01*
X575870Y155887D01*
X575820Y155985D01*
X575773Y156085D01*
X575729Y156186D01*
X575689Y156289D01*
X575653Y156394D01*
X575621Y156499D01*
X575592Y156606D01*
X575567Y156713D01*
X575545Y156822D01*
X575528Y156931D01*
X575514Y157040D01*
X575505Y157150D01*
X575499Y157261D01*
X575497Y157371D01*
X576470Y155099D02*
X581987Y148608D01*
X575496Y148608D01*
X698646Y155099D02*
X701892Y155099D01*
X698646Y155100D02*
X698533Y155098D01*
X698420Y155092D01*
X698307Y155082D01*
X698194Y155068D01*
X698082Y155051D01*
X697971Y155029D01*
X697861Y155004D01*
X697751Y154974D01*
X697643Y154941D01*
X697536Y154904D01*
X697430Y154864D01*
X697326Y154819D01*
X697223Y154771D01*
X697122Y154720D01*
X697023Y154665D01*
X696926Y154607D01*
X696831Y154545D01*
X696738Y154480D01*
X696648Y154412D01*
X696560Y154341D01*
X696474Y154266D01*
X696391Y154189D01*
X696311Y154109D01*
X696234Y154026D01*
X696159Y153940D01*
X696088Y153852D01*
X696020Y153762D01*
X695955Y153669D01*
X695893Y153574D01*
X695835Y153477D01*
X695780Y153378D01*
X695729Y153277D01*
X695681Y153174D01*
X695636Y153070D01*
X695596Y152964D01*
X695559Y152857D01*
X695526Y152749D01*
X695496Y152639D01*
X695471Y152529D01*
X695449Y152418D01*
X695432Y152306D01*
X695418Y152193D01*
X695408Y152080D01*
X695402Y151967D01*
X695400Y151854D01*
X695402Y151741D01*
X695408Y151628D01*
X695418Y151515D01*
X695432Y151402D01*
X695449Y151290D01*
X695471Y151179D01*
X695496Y151069D01*
X695526Y150959D01*
X695559Y150851D01*
X695596Y150744D01*
X695636Y150638D01*
X695681Y150534D01*
X695729Y150431D01*
X695780Y150330D01*
X695835Y150231D01*
X695893Y150134D01*
X695955Y150039D01*
X696020Y149946D01*
X696088Y149856D01*
X696159Y149768D01*
X696234Y149682D01*
X696311Y149599D01*
X696391Y149519D01*
X696474Y149442D01*
X696560Y149367D01*
X696648Y149296D01*
X696738Y149228D01*
X696831Y149163D01*
X696926Y149101D01*
X697023Y149043D01*
X697122Y148988D01*
X697223Y148937D01*
X697326Y148889D01*
X697430Y148844D01*
X697536Y148804D01*
X697643Y148767D01*
X697751Y148734D01*
X697861Y148704D01*
X697971Y148679D01*
X698082Y148657D01*
X698194Y148640D01*
X698307Y148626D01*
X698420Y148616D01*
X698533Y148610D01*
X698646Y148608D01*
X701892Y148608D01*
X701892Y160292D01*
X698646Y160292D01*
X698545Y160290D01*
X698445Y160284D01*
X698345Y160274D01*
X698245Y160261D01*
X698146Y160243D01*
X698047Y160222D01*
X697950Y160197D01*
X697853Y160168D01*
X697758Y160135D01*
X697664Y160099D01*
X697572Y160059D01*
X697481Y160016D01*
X697392Y159969D01*
X697305Y159919D01*
X697219Y159865D01*
X697136Y159808D01*
X697056Y159748D01*
X696977Y159685D01*
X696901Y159618D01*
X696828Y159549D01*
X696758Y159477D01*
X696690Y159403D01*
X696625Y159326D01*
X696564Y159246D01*
X696505Y159164D01*
X696450Y159080D01*
X696398Y158994D01*
X696349Y158906D01*
X696304Y158816D01*
X696262Y158724D01*
X696224Y158631D01*
X696190Y158536D01*
X696159Y158441D01*
X696132Y158344D01*
X696109Y158246D01*
X696089Y158147D01*
X696074Y158047D01*
X696062Y157947D01*
X696054Y157847D01*
X696050Y157746D01*
X696050Y157646D01*
X696054Y157545D01*
X696062Y157445D01*
X696074Y157345D01*
X696089Y157245D01*
X696109Y157146D01*
X696132Y157048D01*
X696159Y156951D01*
X696190Y156856D01*
X696224Y156761D01*
X696262Y156668D01*
X696304Y156576D01*
X696349Y156486D01*
X696398Y156398D01*
X696450Y156312D01*
X696505Y156228D01*
X696564Y156146D01*
X696625Y156066D01*
X696690Y155989D01*
X696758Y155915D01*
X696828Y155843D01*
X696901Y155774D01*
X696977Y155707D01*
X697056Y155644D01*
X697136Y155584D01*
X697219Y155527D01*
X697305Y155473D01*
X697392Y155423D01*
X697481Y155376D01*
X697572Y155333D01*
X697664Y155293D01*
X697758Y155257D01*
X697853Y155224D01*
X697950Y155195D01*
X698047Y155170D01*
X698146Y155149D01*
X698245Y155131D01*
X698345Y155118D01*
X698445Y155108D01*
X698545Y155102D01*
X698646Y155100D01*
X690899Y153152D02*
X683110Y153152D01*
X674488Y160292D02*
X674381Y160290D01*
X674275Y160284D01*
X674169Y160274D01*
X674063Y160261D01*
X673957Y160243D01*
X673853Y160222D01*
X673749Y160197D01*
X673646Y160168D01*
X673545Y160136D01*
X673445Y160099D01*
X673346Y160059D01*
X673248Y160016D01*
X673152Y159969D01*
X673058Y159918D01*
X672966Y159864D01*
X672876Y159807D01*
X672788Y159747D01*
X672703Y159683D01*
X672620Y159616D01*
X672539Y159546D01*
X672461Y159474D01*
X672385Y159398D01*
X672313Y159320D01*
X672243Y159239D01*
X672176Y159156D01*
X672112Y159071D01*
X672052Y158983D01*
X671995Y158893D01*
X671941Y158801D01*
X671890Y158707D01*
X671843Y158611D01*
X671800Y158513D01*
X671760Y158414D01*
X671723Y158314D01*
X671691Y158213D01*
X671662Y158110D01*
X671637Y158006D01*
X671616Y157902D01*
X671598Y157796D01*
X671585Y157690D01*
X671575Y157584D01*
X671569Y157478D01*
X671567Y157371D01*
X674488Y160292D02*
X674609Y160290D01*
X674730Y160284D01*
X674850Y160274D01*
X674971Y160261D01*
X675090Y160243D01*
X675210Y160222D01*
X675328Y160197D01*
X675445Y160168D01*
X675562Y160135D01*
X675677Y160099D01*
X675791Y160058D01*
X675904Y160015D01*
X676016Y159967D01*
X676125Y159916D01*
X676233Y159861D01*
X676340Y159803D01*
X676444Y159742D01*
X676546Y159677D01*
X676646Y159609D01*
X676744Y159538D01*
X676840Y159464D01*
X676933Y159387D01*
X677023Y159306D01*
X677111Y159223D01*
X677196Y159137D01*
X677279Y159048D01*
X677358Y158957D01*
X677435Y158863D01*
X677508Y158767D01*
X677578Y158669D01*
X677645Y158568D01*
X677709Y158465D01*
X677770Y158360D01*
X677827Y158253D01*
X677880Y158145D01*
X677930Y158035D01*
X677976Y157923D01*
X678019Y157810D01*
X678058Y157695D01*
X672542Y155099D02*
X672463Y155177D01*
X672387Y155257D01*
X672314Y155340D01*
X672244Y155426D01*
X672177Y155513D01*
X672113Y155604D01*
X672053Y155696D01*
X671995Y155790D01*
X671941Y155887D01*
X671891Y155985D01*
X671844Y156085D01*
X671800Y156186D01*
X671760Y156289D01*
X671724Y156394D01*
X671692Y156499D01*
X671663Y156606D01*
X671638Y156713D01*
X671616Y156822D01*
X671599Y156931D01*
X671585Y157040D01*
X671576Y157150D01*
X671570Y157261D01*
X671568Y157371D01*
X672541Y155099D02*
X678058Y148608D01*
X671567Y148608D01*
M02*
