G04 EAGLE Gerber RS-274X export*
G75*
%MOMM*%
%FSLAX34Y34*%
%LPD*%
%INSolderpaste Top*%
%IPPOS*%
%AMOC8*
5,1,8,0,0,1.08239X$1,22.5*%
G01*
%ADD10R,8.000000X9.000000*%
%ADD11R,2.200000X0.600000*%
%ADD12R,1.500000X4.000000*%
%ADD13R,1.000000X1.100000*%
%ADD14R,0.800000X0.400000*%
%ADD15R,0.800000X1.050000*%
%ADD16R,2.500000X2.500000*%
%ADD17R,0.600000X2.200000*%
%ADD18R,1.100000X1.000000*%
%ADD19R,0.625000X0.775000*%
%ADD20R,0.560000X0.730000*%
%ADD21R,2.000000X4.000000*%
%ADD22R,0.800000X0.800000*%
%ADD23C,2.000000*%
%ADD24C,1.400000*%
%ADD25R,8.500000X8.500000*%
%ADD26R,1.800000X3.200000*%
%ADD27R,0.400000X0.900000*%
%ADD28C,0.070000*%
%ADD29R,1.800000X1.600000*%
%ADD30R,0.300000X1.200000*%
%ADD31R,1.600000X2.700000*%
%ADD32R,0.730000X0.560000*%
%ADD33R,2.700000X1.600000*%
%ADD34C,0.150000*%
%ADD35R,1.200000X3.500000*%
%ADD36R,0.910000X1.220000*%
%ADD37R,1.300000X0.600000*%
%ADD38R,1.800000X2.000000*%
%ADD39R,5.500000X1.500000*%
%ADD40R,0.600000X1.300000*%
%ADD41R,2.000000X1.800000*%
%ADD42R,3.500000X1.200000*%
%ADD43R,0.635000X1.270000*%
%ADD44C,0.300000*%
%ADD45R,4.000000X1.500000*%
%ADD46R,0.400000X0.800000*%
%ADD47R,1.050000X0.800000*%


D10*
G36*
X1030794Y775775D02*
X974225Y719206D01*
X910586Y782845D01*
X967155Y839414D01*
X1030794Y775775D01*
G37*
G36*
X1059085Y365654D02*
X1115654Y309085D01*
X1052015Y245446D01*
X995446Y302015D01*
X1059085Y365654D01*
G37*
G36*
X1469206Y224225D02*
X1525775Y280794D01*
X1589414Y217155D01*
X1532845Y160586D01*
X1469206Y224225D01*
G37*
G36*
X1384346Y309085D02*
X1440915Y365654D01*
X1504554Y302015D01*
X1447985Y245446D01*
X1384346Y309085D01*
G37*
G36*
X1115654Y690915D02*
X1059085Y634346D01*
X995446Y697985D01*
X1052015Y754554D01*
X1115654Y690915D01*
G37*
G36*
X1525775Y719206D02*
X1469206Y775775D01*
X1532845Y839414D01*
X1589414Y782845D01*
X1525775Y719206D01*
G37*
G36*
X1440915Y634346D02*
X1384346Y690915D01*
X1447985Y754554D01*
X1504554Y697985D01*
X1440915Y634346D01*
G37*
G36*
X974225Y280794D02*
X1030794Y224225D01*
X967155Y160586D01*
X910586Y217155D01*
X974225Y280794D01*
G37*
D11*
X1132000Y808350D03*
X1184000Y808350D03*
X1132000Y821050D03*
X1132000Y795650D03*
X1132000Y782950D03*
X1184000Y821050D03*
X1184000Y795650D03*
X1184000Y782950D03*
D12*
X1158000Y802000D03*
D13*
X1217500Y796000D03*
X1234500Y796000D03*
X1217500Y820000D03*
X1234500Y820000D03*
D14*
X1153000Y854250D03*
X1153000Y873750D03*
X1093000Y873750D03*
X1093000Y854250D03*
D15*
X1093000Y864000D03*
X1153000Y864000D03*
D16*
X1123000Y864000D03*
D17*
X1229650Y853000D03*
X1229650Y905000D03*
X1216950Y853000D03*
X1242350Y853000D03*
X1255050Y853000D03*
X1216950Y905000D03*
X1242350Y905000D03*
X1255050Y905000D03*
D18*
X1156000Y888500D03*
X1156000Y905500D03*
X1087000Y888500D03*
X1087000Y905500D03*
X1110000Y905500D03*
X1110000Y888500D03*
X1133000Y888500D03*
X1133000Y905500D03*
D13*
G36*
X1110363Y246414D02*
X1117434Y239343D01*
X1109657Y231566D01*
X1102586Y238637D01*
X1110363Y246414D01*
G37*
G36*
X1098343Y258434D02*
X1105414Y251363D01*
X1097637Y243586D01*
X1090566Y250657D01*
X1098343Y258434D01*
G37*
D19*
G36*
X1066183Y219435D02*
X1070602Y223854D01*
X1076081Y218375D01*
X1071662Y213956D01*
X1066183Y219435D01*
G37*
G36*
X1059817Y192565D02*
X1055398Y188146D01*
X1049919Y193625D01*
X1054338Y198044D01*
X1059817Y192565D01*
G37*
D20*
X918000Y602000D03*
X927500Y582000D03*
X908500Y582000D03*
D21*
X949000Y635000D03*
X989000Y635000D03*
D18*
X963000Y689500D03*
X963000Y672500D03*
D22*
X937000Y688500D03*
X937000Y673500D03*
D13*
X909500Y564000D03*
X926500Y564000D03*
D20*
X1525000Y504000D03*
X1534500Y484000D03*
X1515500Y484000D03*
D13*
X1516500Y532000D03*
X1533500Y532000D03*
D22*
X1516500Y556000D03*
X1531500Y556000D03*
D13*
X1516500Y466000D03*
X1533500Y466000D03*
D23*
X1379139Y670861D02*
X1372777Y677223D01*
X1420861Y629139D02*
X1427223Y622777D01*
D24*
X1400000Y650000D03*
D23*
X1079139Y629139D02*
X1072777Y622777D01*
X1120861Y670861D02*
X1127223Y677223D01*
D24*
X1100000Y650000D03*
D23*
X1420861Y370861D02*
X1427223Y377223D01*
X1379139Y329139D02*
X1372777Y322777D01*
D24*
X1400000Y350000D03*
D23*
X1127223Y322777D02*
X1120861Y329139D01*
X1079139Y370861D02*
X1072777Y377223D01*
D24*
X1100000Y350000D03*
D25*
X1250000Y500000D03*
D26*
X1449000Y808000D03*
X1393000Y808000D03*
D18*
X1391000Y838500D03*
X1391000Y855500D03*
X1451000Y838500D03*
X1451000Y855500D03*
X1412500Y847000D03*
X1429500Y847000D03*
D27*
X1411250Y871000D03*
X1417750Y871000D03*
X1424250Y871000D03*
X1430750Y871000D03*
X1430750Y897000D03*
X1424250Y897000D03*
X1417750Y897000D03*
X1411250Y897000D03*
D13*
X1250500Y796000D03*
X1267500Y796000D03*
X1250500Y820000D03*
X1267500Y820000D03*
D18*
X889000Y560500D03*
X889000Y577500D03*
X1497000Y462500D03*
X1497000Y479500D03*
D10*
G36*
X1870794Y775775D02*
X1814225Y719206D01*
X1750586Y782845D01*
X1807155Y839414D01*
X1870794Y775775D01*
G37*
G36*
X1814225Y280794D02*
X1870794Y224225D01*
X1807155Y160586D01*
X1750586Y217155D01*
X1814225Y280794D01*
G37*
G36*
X1899085Y365654D02*
X1955654Y309085D01*
X1892015Y245446D01*
X1835446Y302015D01*
X1899085Y365654D01*
G37*
G36*
X1955654Y690915D02*
X1899085Y634346D01*
X1835446Y697985D01*
X1892015Y754554D01*
X1955654Y690915D01*
G37*
G36*
X2309206Y224225D02*
X2365775Y280794D01*
X2429414Y217155D01*
X2372845Y160586D01*
X2309206Y224225D01*
G37*
G36*
X2224346Y309085D02*
X2280915Y365654D01*
X2344554Y302015D01*
X2287985Y245446D01*
X2224346Y309085D01*
G37*
G36*
X2365775Y719206D02*
X2309206Y775775D01*
X2372845Y839414D01*
X2429414Y782845D01*
X2365775Y719206D01*
G37*
G36*
X2280915Y634346D02*
X2224346Y690915D01*
X2287985Y754554D01*
X2344554Y697985D01*
X2280915Y634346D01*
G37*
D11*
X1985000Y792350D03*
X2037000Y792350D03*
X1985000Y805050D03*
X1985000Y779650D03*
X1985000Y766950D03*
X2037000Y805050D03*
X2037000Y779650D03*
X2037000Y766950D03*
D12*
X2011000Y786000D03*
D13*
X2072500Y781000D03*
X2089500Y781000D03*
X2072500Y805000D03*
X2089500Y805000D03*
D14*
X2010000Y840250D03*
X2010000Y859750D03*
X1950000Y859750D03*
X1950000Y840250D03*
D15*
X1950000Y850000D03*
X2010000Y850000D03*
D16*
X1980000Y850000D03*
D17*
X2085650Y838000D03*
X2085650Y890000D03*
X2072950Y838000D03*
X2098350Y838000D03*
X2111050Y838000D03*
X2072950Y890000D03*
X2098350Y890000D03*
X2111050Y890000D03*
D18*
X2016000Y877500D03*
X2016000Y894500D03*
X1944000Y877500D03*
X1944000Y894500D03*
X1968000Y894500D03*
X1968000Y877500D03*
X1992000Y877500D03*
X1992000Y894500D03*
D13*
G36*
X1961363Y241414D02*
X1968434Y234343D01*
X1960657Y226566D01*
X1953586Y233637D01*
X1961363Y241414D01*
G37*
G36*
X1949343Y253434D02*
X1956414Y246363D01*
X1948637Y238586D01*
X1941566Y245657D01*
X1949343Y253434D01*
G37*
D19*
G36*
X1914183Y213435D02*
X1918602Y217854D01*
X1924081Y212375D01*
X1919662Y207956D01*
X1914183Y213435D01*
G37*
G36*
X1907817Y186565D02*
X1903398Y182146D01*
X1897919Y187625D01*
X1902338Y192044D01*
X1907817Y186565D01*
G37*
D20*
X1751000Y615000D03*
X1760500Y595000D03*
X1741500Y595000D03*
D21*
X1780000Y645000D03*
X1820000Y645000D03*
D18*
X1794000Y700500D03*
X1794000Y683500D03*
D22*
X1768000Y699500D03*
X1768000Y684500D03*
D13*
X1742500Y574000D03*
X1759500Y574000D03*
D20*
X2350000Y517000D03*
X2359500Y497000D03*
X2340500Y497000D03*
D13*
X2341500Y537000D03*
X2358500Y537000D03*
D22*
X2342500Y565000D03*
X2357500Y565000D03*
D13*
X2341500Y476000D03*
X2358500Y476000D03*
D23*
X1919139Y629139D02*
X1912777Y622777D01*
X1960861Y670861D02*
X1967223Y677223D01*
D24*
X1940000Y650000D03*
D23*
X1960861Y329139D02*
X1967223Y322777D01*
X1919139Y370861D02*
X1912777Y377223D01*
D24*
X1940000Y350000D03*
D23*
X2219139Y670861D02*
X2212777Y677223D01*
X2260861Y629139D02*
X2267223Y622777D01*
D24*
X2240000Y650000D03*
D23*
X2267223Y377223D02*
X2260861Y370861D01*
X2219139Y329139D02*
X2212777Y322777D01*
D24*
X2240000Y350000D03*
D26*
X2279000Y812000D03*
X2223000Y812000D03*
D18*
X2221000Y843500D03*
X2221000Y860500D03*
X2281000Y843500D03*
X2281000Y860500D03*
X2242500Y852000D03*
X2259500Y852000D03*
D27*
X2241250Y874000D03*
X2247750Y874000D03*
X2254250Y874000D03*
X2260750Y874000D03*
X2260750Y900000D03*
X2254250Y900000D03*
X2247750Y900000D03*
X2241250Y900000D03*
D13*
X2106500Y781000D03*
X2123500Y781000D03*
X2106500Y805000D03*
X2123500Y805000D03*
D25*
X2090000Y500000D03*
D18*
X1723000Y570500D03*
X1723000Y587500D03*
X2322000Y489500D03*
X2322000Y472500D03*
D10*
G36*
X190794Y1795775D02*
X134225Y1739206D01*
X70586Y1802845D01*
X127155Y1859414D01*
X190794Y1795775D01*
G37*
G36*
X219085Y1385654D02*
X275654Y1329085D01*
X212015Y1265446D01*
X155446Y1322015D01*
X219085Y1385654D01*
G37*
G36*
X629206Y1244225D02*
X685775Y1300794D01*
X749414Y1237155D01*
X692845Y1180586D01*
X629206Y1244225D01*
G37*
G36*
X544346Y1329085D02*
X600915Y1385654D01*
X664554Y1322015D01*
X607985Y1265446D01*
X544346Y1329085D01*
G37*
G36*
X275654Y1710915D02*
X219085Y1654346D01*
X155446Y1717985D01*
X212015Y1774554D01*
X275654Y1710915D01*
G37*
G36*
X685775Y1739206D02*
X629206Y1795775D01*
X692845Y1859414D01*
X749414Y1802845D01*
X685775Y1739206D01*
G37*
G36*
X600915Y1654346D02*
X544346Y1710915D01*
X607985Y1774554D01*
X664554Y1717985D01*
X600915Y1654346D01*
G37*
G36*
X134225Y1300794D02*
X190794Y1244225D01*
X127155Y1180586D01*
X70586Y1237155D01*
X134225Y1300794D01*
G37*
D11*
X292000Y1828350D03*
X344000Y1828350D03*
X292000Y1841050D03*
X292000Y1815650D03*
X292000Y1802950D03*
X344000Y1841050D03*
X344000Y1815650D03*
X344000Y1802950D03*
D12*
X318000Y1822000D03*
D13*
X377500Y1816000D03*
X394500Y1816000D03*
X377500Y1840000D03*
X394500Y1840000D03*
D14*
X313000Y1874250D03*
X313000Y1893750D03*
X253000Y1893750D03*
X253000Y1874250D03*
D15*
X253000Y1884000D03*
X313000Y1884000D03*
D16*
X283000Y1884000D03*
D17*
X389650Y1873000D03*
X389650Y1925000D03*
X376950Y1873000D03*
X402350Y1873000D03*
X415050Y1873000D03*
X376950Y1925000D03*
X402350Y1925000D03*
X415050Y1925000D03*
D18*
X316000Y1908500D03*
X316000Y1925500D03*
X247000Y1908500D03*
X247000Y1925500D03*
X270000Y1925500D03*
X270000Y1908500D03*
X293000Y1908500D03*
X293000Y1925500D03*
D13*
G36*
X270363Y1266414D02*
X277434Y1259343D01*
X269657Y1251566D01*
X262586Y1258637D01*
X270363Y1266414D01*
G37*
G36*
X258343Y1278434D02*
X265414Y1271363D01*
X257637Y1263586D01*
X250566Y1270657D01*
X258343Y1278434D01*
G37*
D19*
G36*
X226183Y1239435D02*
X230602Y1243854D01*
X236081Y1238375D01*
X231662Y1233956D01*
X226183Y1239435D01*
G37*
G36*
X219817Y1212565D02*
X215398Y1208146D01*
X209919Y1213625D01*
X214338Y1218044D01*
X219817Y1212565D01*
G37*
D20*
X78000Y1622000D03*
X87500Y1602000D03*
X68500Y1602000D03*
D21*
X109000Y1655000D03*
X149000Y1655000D03*
D18*
X123000Y1709500D03*
X123000Y1692500D03*
D22*
X97000Y1708500D03*
X97000Y1693500D03*
D13*
X69500Y1584000D03*
X86500Y1584000D03*
D20*
X685000Y1524000D03*
X694500Y1504000D03*
X675500Y1504000D03*
D13*
X676500Y1552000D03*
X693500Y1552000D03*
D22*
X676500Y1576000D03*
X691500Y1576000D03*
D13*
X676500Y1486000D03*
X693500Y1486000D03*
D23*
X539139Y1690861D02*
X532777Y1697223D01*
X580861Y1649139D02*
X587223Y1642777D01*
D24*
X560000Y1670000D03*
D23*
X239139Y1649139D02*
X232777Y1642777D01*
X280861Y1690861D02*
X287223Y1697223D01*
D24*
X260000Y1670000D03*
D23*
X580861Y1390861D02*
X587223Y1397223D01*
X539139Y1349139D02*
X532777Y1342777D01*
D24*
X560000Y1370000D03*
D23*
X287223Y1342777D02*
X280861Y1349139D01*
X239139Y1390861D02*
X232777Y1397223D01*
D24*
X260000Y1370000D03*
D25*
X410000Y1520000D03*
D26*
X609000Y1828000D03*
X553000Y1828000D03*
D18*
X551000Y1858500D03*
X551000Y1875500D03*
X611000Y1858500D03*
X611000Y1875500D03*
X572500Y1867000D03*
X589500Y1867000D03*
D27*
X571250Y1891000D03*
X577750Y1891000D03*
X584250Y1891000D03*
X590750Y1891000D03*
X590750Y1917000D03*
X584250Y1917000D03*
X577750Y1917000D03*
X571250Y1917000D03*
D13*
X410500Y1816000D03*
X427500Y1816000D03*
X410500Y1840000D03*
X427500Y1840000D03*
D18*
X49000Y1580500D03*
X49000Y1597500D03*
X657000Y1482500D03*
X657000Y1499500D03*
D28*
X1416450Y1373700D02*
X1416450Y1359700D01*
X1416450Y1373700D02*
X1418550Y1373700D01*
X1418550Y1359700D01*
X1416450Y1359700D01*
X1416450Y1360365D02*
X1418550Y1360365D01*
X1418550Y1361030D02*
X1416450Y1361030D01*
X1416450Y1361695D02*
X1418550Y1361695D01*
X1418550Y1362360D02*
X1416450Y1362360D01*
X1416450Y1363025D02*
X1418550Y1363025D01*
X1418550Y1363690D02*
X1416450Y1363690D01*
X1416450Y1364355D02*
X1418550Y1364355D01*
X1418550Y1365020D02*
X1416450Y1365020D01*
X1416450Y1365685D02*
X1418550Y1365685D01*
X1418550Y1366350D02*
X1416450Y1366350D01*
X1416450Y1367015D02*
X1418550Y1367015D01*
X1418550Y1367680D02*
X1416450Y1367680D01*
X1416450Y1368345D02*
X1418550Y1368345D01*
X1418550Y1369010D02*
X1416450Y1369010D01*
X1416450Y1369675D02*
X1418550Y1369675D01*
X1418550Y1370340D02*
X1416450Y1370340D01*
X1416450Y1371005D02*
X1418550Y1371005D01*
X1418550Y1371670D02*
X1416450Y1371670D01*
X1416450Y1372335D02*
X1418550Y1372335D01*
X1418550Y1373000D02*
X1416450Y1373000D01*
X1416450Y1373665D02*
X1418550Y1373665D01*
X1411450Y1373700D02*
X1411450Y1359700D01*
X1411450Y1373700D02*
X1413550Y1373700D01*
X1413550Y1359700D01*
X1411450Y1359700D01*
X1411450Y1360365D02*
X1413550Y1360365D01*
X1413550Y1361030D02*
X1411450Y1361030D01*
X1411450Y1361695D02*
X1413550Y1361695D01*
X1413550Y1362360D02*
X1411450Y1362360D01*
X1411450Y1363025D02*
X1413550Y1363025D01*
X1413550Y1363690D02*
X1411450Y1363690D01*
X1411450Y1364355D02*
X1413550Y1364355D01*
X1413550Y1365020D02*
X1411450Y1365020D01*
X1411450Y1365685D02*
X1413550Y1365685D01*
X1413550Y1366350D02*
X1411450Y1366350D01*
X1411450Y1367015D02*
X1413550Y1367015D01*
X1413550Y1367680D02*
X1411450Y1367680D01*
X1411450Y1368345D02*
X1413550Y1368345D01*
X1413550Y1369010D02*
X1411450Y1369010D01*
X1411450Y1369675D02*
X1413550Y1369675D01*
X1413550Y1370340D02*
X1411450Y1370340D01*
X1411450Y1371005D02*
X1413550Y1371005D01*
X1413550Y1371670D02*
X1411450Y1371670D01*
X1411450Y1372335D02*
X1413550Y1372335D01*
X1413550Y1373000D02*
X1411450Y1373000D01*
X1411450Y1373665D02*
X1413550Y1373665D01*
X1406450Y1373700D02*
X1406450Y1359700D01*
X1406450Y1373700D02*
X1408550Y1373700D01*
X1408550Y1359700D01*
X1406450Y1359700D01*
X1406450Y1360365D02*
X1408550Y1360365D01*
X1408550Y1361030D02*
X1406450Y1361030D01*
X1406450Y1361695D02*
X1408550Y1361695D01*
X1408550Y1362360D02*
X1406450Y1362360D01*
X1406450Y1363025D02*
X1408550Y1363025D01*
X1408550Y1363690D02*
X1406450Y1363690D01*
X1406450Y1364355D02*
X1408550Y1364355D01*
X1408550Y1365020D02*
X1406450Y1365020D01*
X1406450Y1365685D02*
X1408550Y1365685D01*
X1408550Y1366350D02*
X1406450Y1366350D01*
X1406450Y1367015D02*
X1408550Y1367015D01*
X1408550Y1367680D02*
X1406450Y1367680D01*
X1406450Y1368345D02*
X1408550Y1368345D01*
X1408550Y1369010D02*
X1406450Y1369010D01*
X1406450Y1369675D02*
X1408550Y1369675D01*
X1408550Y1370340D02*
X1406450Y1370340D01*
X1406450Y1371005D02*
X1408550Y1371005D01*
X1408550Y1371670D02*
X1406450Y1371670D01*
X1406450Y1372335D02*
X1408550Y1372335D01*
X1408550Y1373000D02*
X1406450Y1373000D01*
X1406450Y1373665D02*
X1408550Y1373665D01*
X1401450Y1373700D02*
X1401450Y1359700D01*
X1401450Y1373700D02*
X1403550Y1373700D01*
X1403550Y1359700D01*
X1401450Y1359700D01*
X1401450Y1360365D02*
X1403550Y1360365D01*
X1403550Y1361030D02*
X1401450Y1361030D01*
X1401450Y1361695D02*
X1403550Y1361695D01*
X1403550Y1362360D02*
X1401450Y1362360D01*
X1401450Y1363025D02*
X1403550Y1363025D01*
X1403550Y1363690D02*
X1401450Y1363690D01*
X1401450Y1364355D02*
X1403550Y1364355D01*
X1403550Y1365020D02*
X1401450Y1365020D01*
X1401450Y1365685D02*
X1403550Y1365685D01*
X1403550Y1366350D02*
X1401450Y1366350D01*
X1401450Y1367015D02*
X1403550Y1367015D01*
X1403550Y1367680D02*
X1401450Y1367680D01*
X1401450Y1368345D02*
X1403550Y1368345D01*
X1403550Y1369010D02*
X1401450Y1369010D01*
X1401450Y1369675D02*
X1403550Y1369675D01*
X1403550Y1370340D02*
X1401450Y1370340D01*
X1401450Y1371005D02*
X1403550Y1371005D01*
X1403550Y1371670D02*
X1401450Y1371670D01*
X1401450Y1372335D02*
X1403550Y1372335D01*
X1403550Y1373000D02*
X1401450Y1373000D01*
X1401450Y1373665D02*
X1403550Y1373665D01*
X1396450Y1373700D02*
X1396450Y1359700D01*
X1396450Y1373700D02*
X1398550Y1373700D01*
X1398550Y1359700D01*
X1396450Y1359700D01*
X1396450Y1360365D02*
X1398550Y1360365D01*
X1398550Y1361030D02*
X1396450Y1361030D01*
X1396450Y1361695D02*
X1398550Y1361695D01*
X1398550Y1362360D02*
X1396450Y1362360D01*
X1396450Y1363025D02*
X1398550Y1363025D01*
X1398550Y1363690D02*
X1396450Y1363690D01*
X1396450Y1364355D02*
X1398550Y1364355D01*
X1398550Y1365020D02*
X1396450Y1365020D01*
X1396450Y1365685D02*
X1398550Y1365685D01*
X1398550Y1366350D02*
X1396450Y1366350D01*
X1396450Y1367015D02*
X1398550Y1367015D01*
X1398550Y1367680D02*
X1396450Y1367680D01*
X1396450Y1368345D02*
X1398550Y1368345D01*
X1398550Y1369010D02*
X1396450Y1369010D01*
X1396450Y1369675D02*
X1398550Y1369675D01*
X1398550Y1370340D02*
X1396450Y1370340D01*
X1396450Y1371005D02*
X1398550Y1371005D01*
X1398550Y1371670D02*
X1396450Y1371670D01*
X1396450Y1372335D02*
X1398550Y1372335D01*
X1398550Y1373000D02*
X1396450Y1373000D01*
X1396450Y1373665D02*
X1398550Y1373665D01*
X1391450Y1373700D02*
X1391450Y1359700D01*
X1391450Y1373700D02*
X1393550Y1373700D01*
X1393550Y1359700D01*
X1391450Y1359700D01*
X1391450Y1360365D02*
X1393550Y1360365D01*
X1393550Y1361030D02*
X1391450Y1361030D01*
X1391450Y1361695D02*
X1393550Y1361695D01*
X1393550Y1362360D02*
X1391450Y1362360D01*
X1391450Y1363025D02*
X1393550Y1363025D01*
X1393550Y1363690D02*
X1391450Y1363690D01*
X1391450Y1364355D02*
X1393550Y1364355D01*
X1393550Y1365020D02*
X1391450Y1365020D01*
X1391450Y1365685D02*
X1393550Y1365685D01*
X1393550Y1366350D02*
X1391450Y1366350D01*
X1391450Y1367015D02*
X1393550Y1367015D01*
X1393550Y1367680D02*
X1391450Y1367680D01*
X1391450Y1368345D02*
X1393550Y1368345D01*
X1393550Y1369010D02*
X1391450Y1369010D01*
X1391450Y1369675D02*
X1393550Y1369675D01*
X1393550Y1370340D02*
X1391450Y1370340D01*
X1391450Y1371005D02*
X1393550Y1371005D01*
X1393550Y1371670D02*
X1391450Y1371670D01*
X1391450Y1372335D02*
X1393550Y1372335D01*
X1393550Y1373000D02*
X1391450Y1373000D01*
X1391450Y1373665D02*
X1393550Y1373665D01*
X1386450Y1373700D02*
X1386450Y1359700D01*
X1386450Y1373700D02*
X1388550Y1373700D01*
X1388550Y1359700D01*
X1386450Y1359700D01*
X1386450Y1360365D02*
X1388550Y1360365D01*
X1388550Y1361030D02*
X1386450Y1361030D01*
X1386450Y1361695D02*
X1388550Y1361695D01*
X1388550Y1362360D02*
X1386450Y1362360D01*
X1386450Y1363025D02*
X1388550Y1363025D01*
X1388550Y1363690D02*
X1386450Y1363690D01*
X1386450Y1364355D02*
X1388550Y1364355D01*
X1388550Y1365020D02*
X1386450Y1365020D01*
X1386450Y1365685D02*
X1388550Y1365685D01*
X1388550Y1366350D02*
X1386450Y1366350D01*
X1386450Y1367015D02*
X1388550Y1367015D01*
X1388550Y1367680D02*
X1386450Y1367680D01*
X1386450Y1368345D02*
X1388550Y1368345D01*
X1388550Y1369010D02*
X1386450Y1369010D01*
X1386450Y1369675D02*
X1388550Y1369675D01*
X1388550Y1370340D02*
X1386450Y1370340D01*
X1386450Y1371005D02*
X1388550Y1371005D01*
X1388550Y1371670D02*
X1386450Y1371670D01*
X1386450Y1372335D02*
X1388550Y1372335D01*
X1388550Y1373000D02*
X1386450Y1373000D01*
X1386450Y1373665D02*
X1388550Y1373665D01*
X1381450Y1373700D02*
X1381450Y1359700D01*
X1381450Y1373700D02*
X1383550Y1373700D01*
X1383550Y1359700D01*
X1381450Y1359700D01*
X1381450Y1360365D02*
X1383550Y1360365D01*
X1383550Y1361030D02*
X1381450Y1361030D01*
X1381450Y1361695D02*
X1383550Y1361695D01*
X1383550Y1362360D02*
X1381450Y1362360D01*
X1381450Y1363025D02*
X1383550Y1363025D01*
X1383550Y1363690D02*
X1381450Y1363690D01*
X1381450Y1364355D02*
X1383550Y1364355D01*
X1383550Y1365020D02*
X1381450Y1365020D01*
X1381450Y1365685D02*
X1383550Y1365685D01*
X1383550Y1366350D02*
X1381450Y1366350D01*
X1381450Y1367015D02*
X1383550Y1367015D01*
X1383550Y1367680D02*
X1381450Y1367680D01*
X1381450Y1368345D02*
X1383550Y1368345D01*
X1383550Y1369010D02*
X1381450Y1369010D01*
X1381450Y1369675D02*
X1383550Y1369675D01*
X1383550Y1370340D02*
X1381450Y1370340D01*
X1381450Y1371005D02*
X1383550Y1371005D01*
X1383550Y1371670D02*
X1381450Y1371670D01*
X1381450Y1372335D02*
X1383550Y1372335D01*
X1383550Y1373000D02*
X1381450Y1373000D01*
X1381450Y1373665D02*
X1383550Y1373665D01*
X1376450Y1373700D02*
X1376450Y1359700D01*
X1376450Y1373700D02*
X1378550Y1373700D01*
X1378550Y1359700D01*
X1376450Y1359700D01*
X1376450Y1360365D02*
X1378550Y1360365D01*
X1378550Y1361030D02*
X1376450Y1361030D01*
X1376450Y1361695D02*
X1378550Y1361695D01*
X1378550Y1362360D02*
X1376450Y1362360D01*
X1376450Y1363025D02*
X1378550Y1363025D01*
X1378550Y1363690D02*
X1376450Y1363690D01*
X1376450Y1364355D02*
X1378550Y1364355D01*
X1378550Y1365020D02*
X1376450Y1365020D01*
X1376450Y1365685D02*
X1378550Y1365685D01*
X1378550Y1366350D02*
X1376450Y1366350D01*
X1376450Y1367015D02*
X1378550Y1367015D01*
X1378550Y1367680D02*
X1376450Y1367680D01*
X1376450Y1368345D02*
X1378550Y1368345D01*
X1378550Y1369010D02*
X1376450Y1369010D01*
X1376450Y1369675D02*
X1378550Y1369675D01*
X1378550Y1370340D02*
X1376450Y1370340D01*
X1376450Y1371005D02*
X1378550Y1371005D01*
X1378550Y1371670D02*
X1376450Y1371670D01*
X1376450Y1372335D02*
X1378550Y1372335D01*
X1378550Y1373000D02*
X1376450Y1373000D01*
X1376450Y1373665D02*
X1378550Y1373665D01*
X1371450Y1373700D02*
X1371450Y1359700D01*
X1371450Y1373700D02*
X1373550Y1373700D01*
X1373550Y1359700D01*
X1371450Y1359700D01*
X1371450Y1360365D02*
X1373550Y1360365D01*
X1373550Y1361030D02*
X1371450Y1361030D01*
X1371450Y1361695D02*
X1373550Y1361695D01*
X1373550Y1362360D02*
X1371450Y1362360D01*
X1371450Y1363025D02*
X1373550Y1363025D01*
X1373550Y1363690D02*
X1371450Y1363690D01*
X1371450Y1364355D02*
X1373550Y1364355D01*
X1373550Y1365020D02*
X1371450Y1365020D01*
X1371450Y1365685D02*
X1373550Y1365685D01*
X1373550Y1366350D02*
X1371450Y1366350D01*
X1371450Y1367015D02*
X1373550Y1367015D01*
X1373550Y1367680D02*
X1371450Y1367680D01*
X1371450Y1368345D02*
X1373550Y1368345D01*
X1373550Y1369010D02*
X1371450Y1369010D01*
X1371450Y1369675D02*
X1373550Y1369675D01*
X1373550Y1370340D02*
X1371450Y1370340D01*
X1371450Y1371005D02*
X1373550Y1371005D01*
X1373550Y1371670D02*
X1371450Y1371670D01*
X1371450Y1372335D02*
X1373550Y1372335D01*
X1373550Y1373000D02*
X1371450Y1373000D01*
X1371450Y1373665D02*
X1373550Y1373665D01*
X1366450Y1373700D02*
X1366450Y1359700D01*
X1366450Y1373700D02*
X1368550Y1373700D01*
X1368550Y1359700D01*
X1366450Y1359700D01*
X1366450Y1360365D02*
X1368550Y1360365D01*
X1368550Y1361030D02*
X1366450Y1361030D01*
X1366450Y1361695D02*
X1368550Y1361695D01*
X1368550Y1362360D02*
X1366450Y1362360D01*
X1366450Y1363025D02*
X1368550Y1363025D01*
X1368550Y1363690D02*
X1366450Y1363690D01*
X1366450Y1364355D02*
X1368550Y1364355D01*
X1368550Y1365020D02*
X1366450Y1365020D01*
X1366450Y1365685D02*
X1368550Y1365685D01*
X1368550Y1366350D02*
X1366450Y1366350D01*
X1366450Y1367015D02*
X1368550Y1367015D01*
X1368550Y1367680D02*
X1366450Y1367680D01*
X1366450Y1368345D02*
X1368550Y1368345D01*
X1368550Y1369010D02*
X1366450Y1369010D01*
X1366450Y1369675D02*
X1368550Y1369675D01*
X1368550Y1370340D02*
X1366450Y1370340D01*
X1366450Y1371005D02*
X1368550Y1371005D01*
X1368550Y1371670D02*
X1366450Y1371670D01*
X1366450Y1372335D02*
X1368550Y1372335D01*
X1368550Y1373000D02*
X1366450Y1373000D01*
X1366450Y1373665D02*
X1368550Y1373665D01*
X1361450Y1373700D02*
X1361450Y1359700D01*
X1361450Y1373700D02*
X1363550Y1373700D01*
X1363550Y1359700D01*
X1361450Y1359700D01*
X1361450Y1360365D02*
X1363550Y1360365D01*
X1363550Y1361030D02*
X1361450Y1361030D01*
X1361450Y1361695D02*
X1363550Y1361695D01*
X1363550Y1362360D02*
X1361450Y1362360D01*
X1361450Y1363025D02*
X1363550Y1363025D01*
X1363550Y1363690D02*
X1361450Y1363690D01*
X1361450Y1364355D02*
X1363550Y1364355D01*
X1363550Y1365020D02*
X1361450Y1365020D01*
X1361450Y1365685D02*
X1363550Y1365685D01*
X1363550Y1366350D02*
X1361450Y1366350D01*
X1361450Y1367015D02*
X1363550Y1367015D01*
X1363550Y1367680D02*
X1361450Y1367680D01*
X1361450Y1368345D02*
X1363550Y1368345D01*
X1363550Y1369010D02*
X1361450Y1369010D01*
X1361450Y1369675D02*
X1363550Y1369675D01*
X1363550Y1370340D02*
X1361450Y1370340D01*
X1361450Y1371005D02*
X1363550Y1371005D01*
X1363550Y1371670D02*
X1361450Y1371670D01*
X1361450Y1372335D02*
X1363550Y1372335D01*
X1363550Y1373000D02*
X1361450Y1373000D01*
X1361450Y1373665D02*
X1363550Y1373665D01*
X1356450Y1373700D02*
X1356450Y1359700D01*
X1356450Y1373700D02*
X1358550Y1373700D01*
X1358550Y1359700D01*
X1356450Y1359700D01*
X1356450Y1360365D02*
X1358550Y1360365D01*
X1358550Y1361030D02*
X1356450Y1361030D01*
X1356450Y1361695D02*
X1358550Y1361695D01*
X1358550Y1362360D02*
X1356450Y1362360D01*
X1356450Y1363025D02*
X1358550Y1363025D01*
X1358550Y1363690D02*
X1356450Y1363690D01*
X1356450Y1364355D02*
X1358550Y1364355D01*
X1358550Y1365020D02*
X1356450Y1365020D01*
X1356450Y1365685D02*
X1358550Y1365685D01*
X1358550Y1366350D02*
X1356450Y1366350D01*
X1356450Y1367015D02*
X1358550Y1367015D01*
X1358550Y1367680D02*
X1356450Y1367680D01*
X1356450Y1368345D02*
X1358550Y1368345D01*
X1358550Y1369010D02*
X1356450Y1369010D01*
X1356450Y1369675D02*
X1358550Y1369675D01*
X1358550Y1370340D02*
X1356450Y1370340D01*
X1356450Y1371005D02*
X1358550Y1371005D01*
X1358550Y1371670D02*
X1356450Y1371670D01*
X1356450Y1372335D02*
X1358550Y1372335D01*
X1358550Y1373000D02*
X1356450Y1373000D01*
X1356450Y1373665D02*
X1358550Y1373665D01*
X1351450Y1373700D02*
X1351450Y1359700D01*
X1351450Y1373700D02*
X1353550Y1373700D01*
X1353550Y1359700D01*
X1351450Y1359700D01*
X1351450Y1360365D02*
X1353550Y1360365D01*
X1353550Y1361030D02*
X1351450Y1361030D01*
X1351450Y1361695D02*
X1353550Y1361695D01*
X1353550Y1362360D02*
X1351450Y1362360D01*
X1351450Y1363025D02*
X1353550Y1363025D01*
X1353550Y1363690D02*
X1351450Y1363690D01*
X1351450Y1364355D02*
X1353550Y1364355D01*
X1353550Y1365020D02*
X1351450Y1365020D01*
X1351450Y1365685D02*
X1353550Y1365685D01*
X1353550Y1366350D02*
X1351450Y1366350D01*
X1351450Y1367015D02*
X1353550Y1367015D01*
X1353550Y1367680D02*
X1351450Y1367680D01*
X1351450Y1368345D02*
X1353550Y1368345D01*
X1353550Y1369010D02*
X1351450Y1369010D01*
X1351450Y1369675D02*
X1353550Y1369675D01*
X1353550Y1370340D02*
X1351450Y1370340D01*
X1351450Y1371005D02*
X1353550Y1371005D01*
X1353550Y1371670D02*
X1351450Y1371670D01*
X1351450Y1372335D02*
X1353550Y1372335D01*
X1353550Y1373000D02*
X1351450Y1373000D01*
X1351450Y1373665D02*
X1353550Y1373665D01*
X1346450Y1373700D02*
X1346450Y1359700D01*
X1346450Y1373700D02*
X1348550Y1373700D01*
X1348550Y1359700D01*
X1346450Y1359700D01*
X1346450Y1360365D02*
X1348550Y1360365D01*
X1348550Y1361030D02*
X1346450Y1361030D01*
X1346450Y1361695D02*
X1348550Y1361695D01*
X1348550Y1362360D02*
X1346450Y1362360D01*
X1346450Y1363025D02*
X1348550Y1363025D01*
X1348550Y1363690D02*
X1346450Y1363690D01*
X1346450Y1364355D02*
X1348550Y1364355D01*
X1348550Y1365020D02*
X1346450Y1365020D01*
X1346450Y1365685D02*
X1348550Y1365685D01*
X1348550Y1366350D02*
X1346450Y1366350D01*
X1346450Y1367015D02*
X1348550Y1367015D01*
X1348550Y1367680D02*
X1346450Y1367680D01*
X1346450Y1368345D02*
X1348550Y1368345D01*
X1348550Y1369010D02*
X1346450Y1369010D01*
X1346450Y1369675D02*
X1348550Y1369675D01*
X1348550Y1370340D02*
X1346450Y1370340D01*
X1346450Y1371005D02*
X1348550Y1371005D01*
X1348550Y1371670D02*
X1346450Y1371670D01*
X1346450Y1372335D02*
X1348550Y1372335D01*
X1348550Y1373000D02*
X1346450Y1373000D01*
X1346450Y1373665D02*
X1348550Y1373665D01*
X1341450Y1373700D02*
X1341450Y1359700D01*
X1341450Y1373700D02*
X1343550Y1373700D01*
X1343550Y1359700D01*
X1341450Y1359700D01*
X1341450Y1360365D02*
X1343550Y1360365D01*
X1343550Y1361030D02*
X1341450Y1361030D01*
X1341450Y1361695D02*
X1343550Y1361695D01*
X1343550Y1362360D02*
X1341450Y1362360D01*
X1341450Y1363025D02*
X1343550Y1363025D01*
X1343550Y1363690D02*
X1341450Y1363690D01*
X1341450Y1364355D02*
X1343550Y1364355D01*
X1343550Y1365020D02*
X1341450Y1365020D01*
X1341450Y1365685D02*
X1343550Y1365685D01*
X1343550Y1366350D02*
X1341450Y1366350D01*
X1341450Y1367015D02*
X1343550Y1367015D01*
X1343550Y1367680D02*
X1341450Y1367680D01*
X1341450Y1368345D02*
X1343550Y1368345D01*
X1343550Y1369010D02*
X1341450Y1369010D01*
X1341450Y1369675D02*
X1343550Y1369675D01*
X1343550Y1370340D02*
X1341450Y1370340D01*
X1341450Y1371005D02*
X1343550Y1371005D01*
X1343550Y1371670D02*
X1341450Y1371670D01*
X1341450Y1372335D02*
X1343550Y1372335D01*
X1343550Y1373000D02*
X1341450Y1373000D01*
X1341450Y1373665D02*
X1343550Y1373665D01*
X1341450Y1260300D02*
X1341450Y1246300D01*
X1341450Y1260300D02*
X1343550Y1260300D01*
X1343550Y1246300D01*
X1341450Y1246300D01*
X1341450Y1246965D02*
X1343550Y1246965D01*
X1343550Y1247630D02*
X1341450Y1247630D01*
X1341450Y1248295D02*
X1343550Y1248295D01*
X1343550Y1248960D02*
X1341450Y1248960D01*
X1341450Y1249625D02*
X1343550Y1249625D01*
X1343550Y1250290D02*
X1341450Y1250290D01*
X1341450Y1250955D02*
X1343550Y1250955D01*
X1343550Y1251620D02*
X1341450Y1251620D01*
X1341450Y1252285D02*
X1343550Y1252285D01*
X1343550Y1252950D02*
X1341450Y1252950D01*
X1341450Y1253615D02*
X1343550Y1253615D01*
X1343550Y1254280D02*
X1341450Y1254280D01*
X1341450Y1254945D02*
X1343550Y1254945D01*
X1343550Y1255610D02*
X1341450Y1255610D01*
X1341450Y1256275D02*
X1343550Y1256275D01*
X1343550Y1256940D02*
X1341450Y1256940D01*
X1341450Y1257605D02*
X1343550Y1257605D01*
X1343550Y1258270D02*
X1341450Y1258270D01*
X1341450Y1258935D02*
X1343550Y1258935D01*
X1343550Y1259600D02*
X1341450Y1259600D01*
X1341450Y1260265D02*
X1343550Y1260265D01*
X1346450Y1260300D02*
X1346450Y1246300D01*
X1346450Y1260300D02*
X1348550Y1260300D01*
X1348550Y1246300D01*
X1346450Y1246300D01*
X1346450Y1246965D02*
X1348550Y1246965D01*
X1348550Y1247630D02*
X1346450Y1247630D01*
X1346450Y1248295D02*
X1348550Y1248295D01*
X1348550Y1248960D02*
X1346450Y1248960D01*
X1346450Y1249625D02*
X1348550Y1249625D01*
X1348550Y1250290D02*
X1346450Y1250290D01*
X1346450Y1250955D02*
X1348550Y1250955D01*
X1348550Y1251620D02*
X1346450Y1251620D01*
X1346450Y1252285D02*
X1348550Y1252285D01*
X1348550Y1252950D02*
X1346450Y1252950D01*
X1346450Y1253615D02*
X1348550Y1253615D01*
X1348550Y1254280D02*
X1346450Y1254280D01*
X1346450Y1254945D02*
X1348550Y1254945D01*
X1348550Y1255610D02*
X1346450Y1255610D01*
X1346450Y1256275D02*
X1348550Y1256275D01*
X1348550Y1256940D02*
X1346450Y1256940D01*
X1346450Y1257605D02*
X1348550Y1257605D01*
X1348550Y1258270D02*
X1346450Y1258270D01*
X1346450Y1258935D02*
X1348550Y1258935D01*
X1348550Y1259600D02*
X1346450Y1259600D01*
X1346450Y1260265D02*
X1348550Y1260265D01*
X1351450Y1260300D02*
X1351450Y1246300D01*
X1351450Y1260300D02*
X1353550Y1260300D01*
X1353550Y1246300D01*
X1351450Y1246300D01*
X1351450Y1246965D02*
X1353550Y1246965D01*
X1353550Y1247630D02*
X1351450Y1247630D01*
X1351450Y1248295D02*
X1353550Y1248295D01*
X1353550Y1248960D02*
X1351450Y1248960D01*
X1351450Y1249625D02*
X1353550Y1249625D01*
X1353550Y1250290D02*
X1351450Y1250290D01*
X1351450Y1250955D02*
X1353550Y1250955D01*
X1353550Y1251620D02*
X1351450Y1251620D01*
X1351450Y1252285D02*
X1353550Y1252285D01*
X1353550Y1252950D02*
X1351450Y1252950D01*
X1351450Y1253615D02*
X1353550Y1253615D01*
X1353550Y1254280D02*
X1351450Y1254280D01*
X1351450Y1254945D02*
X1353550Y1254945D01*
X1353550Y1255610D02*
X1351450Y1255610D01*
X1351450Y1256275D02*
X1353550Y1256275D01*
X1353550Y1256940D02*
X1351450Y1256940D01*
X1351450Y1257605D02*
X1353550Y1257605D01*
X1353550Y1258270D02*
X1351450Y1258270D01*
X1351450Y1258935D02*
X1353550Y1258935D01*
X1353550Y1259600D02*
X1351450Y1259600D01*
X1351450Y1260265D02*
X1353550Y1260265D01*
X1356450Y1260300D02*
X1356450Y1246300D01*
X1356450Y1260300D02*
X1358550Y1260300D01*
X1358550Y1246300D01*
X1356450Y1246300D01*
X1356450Y1246965D02*
X1358550Y1246965D01*
X1358550Y1247630D02*
X1356450Y1247630D01*
X1356450Y1248295D02*
X1358550Y1248295D01*
X1358550Y1248960D02*
X1356450Y1248960D01*
X1356450Y1249625D02*
X1358550Y1249625D01*
X1358550Y1250290D02*
X1356450Y1250290D01*
X1356450Y1250955D02*
X1358550Y1250955D01*
X1358550Y1251620D02*
X1356450Y1251620D01*
X1356450Y1252285D02*
X1358550Y1252285D01*
X1358550Y1252950D02*
X1356450Y1252950D01*
X1356450Y1253615D02*
X1358550Y1253615D01*
X1358550Y1254280D02*
X1356450Y1254280D01*
X1356450Y1254945D02*
X1358550Y1254945D01*
X1358550Y1255610D02*
X1356450Y1255610D01*
X1356450Y1256275D02*
X1358550Y1256275D01*
X1358550Y1256940D02*
X1356450Y1256940D01*
X1356450Y1257605D02*
X1358550Y1257605D01*
X1358550Y1258270D02*
X1356450Y1258270D01*
X1356450Y1258935D02*
X1358550Y1258935D01*
X1358550Y1259600D02*
X1356450Y1259600D01*
X1356450Y1260265D02*
X1358550Y1260265D01*
X1361450Y1260300D02*
X1361450Y1246300D01*
X1361450Y1260300D02*
X1363550Y1260300D01*
X1363550Y1246300D01*
X1361450Y1246300D01*
X1361450Y1246965D02*
X1363550Y1246965D01*
X1363550Y1247630D02*
X1361450Y1247630D01*
X1361450Y1248295D02*
X1363550Y1248295D01*
X1363550Y1248960D02*
X1361450Y1248960D01*
X1361450Y1249625D02*
X1363550Y1249625D01*
X1363550Y1250290D02*
X1361450Y1250290D01*
X1361450Y1250955D02*
X1363550Y1250955D01*
X1363550Y1251620D02*
X1361450Y1251620D01*
X1361450Y1252285D02*
X1363550Y1252285D01*
X1363550Y1252950D02*
X1361450Y1252950D01*
X1361450Y1253615D02*
X1363550Y1253615D01*
X1363550Y1254280D02*
X1361450Y1254280D01*
X1361450Y1254945D02*
X1363550Y1254945D01*
X1363550Y1255610D02*
X1361450Y1255610D01*
X1361450Y1256275D02*
X1363550Y1256275D01*
X1363550Y1256940D02*
X1361450Y1256940D01*
X1361450Y1257605D02*
X1363550Y1257605D01*
X1363550Y1258270D02*
X1361450Y1258270D01*
X1361450Y1258935D02*
X1363550Y1258935D01*
X1363550Y1259600D02*
X1361450Y1259600D01*
X1361450Y1260265D02*
X1363550Y1260265D01*
X1366450Y1260300D02*
X1366450Y1246300D01*
X1366450Y1260300D02*
X1368550Y1260300D01*
X1368550Y1246300D01*
X1366450Y1246300D01*
X1366450Y1246965D02*
X1368550Y1246965D01*
X1368550Y1247630D02*
X1366450Y1247630D01*
X1366450Y1248295D02*
X1368550Y1248295D01*
X1368550Y1248960D02*
X1366450Y1248960D01*
X1366450Y1249625D02*
X1368550Y1249625D01*
X1368550Y1250290D02*
X1366450Y1250290D01*
X1366450Y1250955D02*
X1368550Y1250955D01*
X1368550Y1251620D02*
X1366450Y1251620D01*
X1366450Y1252285D02*
X1368550Y1252285D01*
X1368550Y1252950D02*
X1366450Y1252950D01*
X1366450Y1253615D02*
X1368550Y1253615D01*
X1368550Y1254280D02*
X1366450Y1254280D01*
X1366450Y1254945D02*
X1368550Y1254945D01*
X1368550Y1255610D02*
X1366450Y1255610D01*
X1366450Y1256275D02*
X1368550Y1256275D01*
X1368550Y1256940D02*
X1366450Y1256940D01*
X1366450Y1257605D02*
X1368550Y1257605D01*
X1368550Y1258270D02*
X1366450Y1258270D01*
X1366450Y1258935D02*
X1368550Y1258935D01*
X1368550Y1259600D02*
X1366450Y1259600D01*
X1366450Y1260265D02*
X1368550Y1260265D01*
X1371450Y1260300D02*
X1371450Y1246300D01*
X1371450Y1260300D02*
X1373550Y1260300D01*
X1373550Y1246300D01*
X1371450Y1246300D01*
X1371450Y1246965D02*
X1373550Y1246965D01*
X1373550Y1247630D02*
X1371450Y1247630D01*
X1371450Y1248295D02*
X1373550Y1248295D01*
X1373550Y1248960D02*
X1371450Y1248960D01*
X1371450Y1249625D02*
X1373550Y1249625D01*
X1373550Y1250290D02*
X1371450Y1250290D01*
X1371450Y1250955D02*
X1373550Y1250955D01*
X1373550Y1251620D02*
X1371450Y1251620D01*
X1371450Y1252285D02*
X1373550Y1252285D01*
X1373550Y1252950D02*
X1371450Y1252950D01*
X1371450Y1253615D02*
X1373550Y1253615D01*
X1373550Y1254280D02*
X1371450Y1254280D01*
X1371450Y1254945D02*
X1373550Y1254945D01*
X1373550Y1255610D02*
X1371450Y1255610D01*
X1371450Y1256275D02*
X1373550Y1256275D01*
X1373550Y1256940D02*
X1371450Y1256940D01*
X1371450Y1257605D02*
X1373550Y1257605D01*
X1373550Y1258270D02*
X1371450Y1258270D01*
X1371450Y1258935D02*
X1373550Y1258935D01*
X1373550Y1259600D02*
X1371450Y1259600D01*
X1371450Y1260265D02*
X1373550Y1260265D01*
X1376450Y1260300D02*
X1376450Y1246300D01*
X1376450Y1260300D02*
X1378550Y1260300D01*
X1378550Y1246300D01*
X1376450Y1246300D01*
X1376450Y1246965D02*
X1378550Y1246965D01*
X1378550Y1247630D02*
X1376450Y1247630D01*
X1376450Y1248295D02*
X1378550Y1248295D01*
X1378550Y1248960D02*
X1376450Y1248960D01*
X1376450Y1249625D02*
X1378550Y1249625D01*
X1378550Y1250290D02*
X1376450Y1250290D01*
X1376450Y1250955D02*
X1378550Y1250955D01*
X1378550Y1251620D02*
X1376450Y1251620D01*
X1376450Y1252285D02*
X1378550Y1252285D01*
X1378550Y1252950D02*
X1376450Y1252950D01*
X1376450Y1253615D02*
X1378550Y1253615D01*
X1378550Y1254280D02*
X1376450Y1254280D01*
X1376450Y1254945D02*
X1378550Y1254945D01*
X1378550Y1255610D02*
X1376450Y1255610D01*
X1376450Y1256275D02*
X1378550Y1256275D01*
X1378550Y1256940D02*
X1376450Y1256940D01*
X1376450Y1257605D02*
X1378550Y1257605D01*
X1378550Y1258270D02*
X1376450Y1258270D01*
X1376450Y1258935D02*
X1378550Y1258935D01*
X1378550Y1259600D02*
X1376450Y1259600D01*
X1376450Y1260265D02*
X1378550Y1260265D01*
X1381450Y1260300D02*
X1381450Y1246300D01*
X1381450Y1260300D02*
X1383550Y1260300D01*
X1383550Y1246300D01*
X1381450Y1246300D01*
X1381450Y1246965D02*
X1383550Y1246965D01*
X1383550Y1247630D02*
X1381450Y1247630D01*
X1381450Y1248295D02*
X1383550Y1248295D01*
X1383550Y1248960D02*
X1381450Y1248960D01*
X1381450Y1249625D02*
X1383550Y1249625D01*
X1383550Y1250290D02*
X1381450Y1250290D01*
X1381450Y1250955D02*
X1383550Y1250955D01*
X1383550Y1251620D02*
X1381450Y1251620D01*
X1381450Y1252285D02*
X1383550Y1252285D01*
X1383550Y1252950D02*
X1381450Y1252950D01*
X1381450Y1253615D02*
X1383550Y1253615D01*
X1383550Y1254280D02*
X1381450Y1254280D01*
X1381450Y1254945D02*
X1383550Y1254945D01*
X1383550Y1255610D02*
X1381450Y1255610D01*
X1381450Y1256275D02*
X1383550Y1256275D01*
X1383550Y1256940D02*
X1381450Y1256940D01*
X1381450Y1257605D02*
X1383550Y1257605D01*
X1383550Y1258270D02*
X1381450Y1258270D01*
X1381450Y1258935D02*
X1383550Y1258935D01*
X1383550Y1259600D02*
X1381450Y1259600D01*
X1381450Y1260265D02*
X1383550Y1260265D01*
X1386450Y1260300D02*
X1386450Y1246300D01*
X1386450Y1260300D02*
X1388550Y1260300D01*
X1388550Y1246300D01*
X1386450Y1246300D01*
X1386450Y1246965D02*
X1388550Y1246965D01*
X1388550Y1247630D02*
X1386450Y1247630D01*
X1386450Y1248295D02*
X1388550Y1248295D01*
X1388550Y1248960D02*
X1386450Y1248960D01*
X1386450Y1249625D02*
X1388550Y1249625D01*
X1388550Y1250290D02*
X1386450Y1250290D01*
X1386450Y1250955D02*
X1388550Y1250955D01*
X1388550Y1251620D02*
X1386450Y1251620D01*
X1386450Y1252285D02*
X1388550Y1252285D01*
X1388550Y1252950D02*
X1386450Y1252950D01*
X1386450Y1253615D02*
X1388550Y1253615D01*
X1388550Y1254280D02*
X1386450Y1254280D01*
X1386450Y1254945D02*
X1388550Y1254945D01*
X1388550Y1255610D02*
X1386450Y1255610D01*
X1386450Y1256275D02*
X1388550Y1256275D01*
X1388550Y1256940D02*
X1386450Y1256940D01*
X1386450Y1257605D02*
X1388550Y1257605D01*
X1388550Y1258270D02*
X1386450Y1258270D01*
X1386450Y1258935D02*
X1388550Y1258935D01*
X1388550Y1259600D02*
X1386450Y1259600D01*
X1386450Y1260265D02*
X1388550Y1260265D01*
X1391450Y1260300D02*
X1391450Y1246300D01*
X1391450Y1260300D02*
X1393550Y1260300D01*
X1393550Y1246300D01*
X1391450Y1246300D01*
X1391450Y1246965D02*
X1393550Y1246965D01*
X1393550Y1247630D02*
X1391450Y1247630D01*
X1391450Y1248295D02*
X1393550Y1248295D01*
X1393550Y1248960D02*
X1391450Y1248960D01*
X1391450Y1249625D02*
X1393550Y1249625D01*
X1393550Y1250290D02*
X1391450Y1250290D01*
X1391450Y1250955D02*
X1393550Y1250955D01*
X1393550Y1251620D02*
X1391450Y1251620D01*
X1391450Y1252285D02*
X1393550Y1252285D01*
X1393550Y1252950D02*
X1391450Y1252950D01*
X1391450Y1253615D02*
X1393550Y1253615D01*
X1393550Y1254280D02*
X1391450Y1254280D01*
X1391450Y1254945D02*
X1393550Y1254945D01*
X1393550Y1255610D02*
X1391450Y1255610D01*
X1391450Y1256275D02*
X1393550Y1256275D01*
X1393550Y1256940D02*
X1391450Y1256940D01*
X1391450Y1257605D02*
X1393550Y1257605D01*
X1393550Y1258270D02*
X1391450Y1258270D01*
X1391450Y1258935D02*
X1393550Y1258935D01*
X1393550Y1259600D02*
X1391450Y1259600D01*
X1391450Y1260265D02*
X1393550Y1260265D01*
X1396450Y1260300D02*
X1396450Y1246300D01*
X1396450Y1260300D02*
X1398550Y1260300D01*
X1398550Y1246300D01*
X1396450Y1246300D01*
X1396450Y1246965D02*
X1398550Y1246965D01*
X1398550Y1247630D02*
X1396450Y1247630D01*
X1396450Y1248295D02*
X1398550Y1248295D01*
X1398550Y1248960D02*
X1396450Y1248960D01*
X1396450Y1249625D02*
X1398550Y1249625D01*
X1398550Y1250290D02*
X1396450Y1250290D01*
X1396450Y1250955D02*
X1398550Y1250955D01*
X1398550Y1251620D02*
X1396450Y1251620D01*
X1396450Y1252285D02*
X1398550Y1252285D01*
X1398550Y1252950D02*
X1396450Y1252950D01*
X1396450Y1253615D02*
X1398550Y1253615D01*
X1398550Y1254280D02*
X1396450Y1254280D01*
X1396450Y1254945D02*
X1398550Y1254945D01*
X1398550Y1255610D02*
X1396450Y1255610D01*
X1396450Y1256275D02*
X1398550Y1256275D01*
X1398550Y1256940D02*
X1396450Y1256940D01*
X1396450Y1257605D02*
X1398550Y1257605D01*
X1398550Y1258270D02*
X1396450Y1258270D01*
X1396450Y1258935D02*
X1398550Y1258935D01*
X1398550Y1259600D02*
X1396450Y1259600D01*
X1396450Y1260265D02*
X1398550Y1260265D01*
X1401450Y1260300D02*
X1401450Y1246300D01*
X1401450Y1260300D02*
X1403550Y1260300D01*
X1403550Y1246300D01*
X1401450Y1246300D01*
X1401450Y1246965D02*
X1403550Y1246965D01*
X1403550Y1247630D02*
X1401450Y1247630D01*
X1401450Y1248295D02*
X1403550Y1248295D01*
X1403550Y1248960D02*
X1401450Y1248960D01*
X1401450Y1249625D02*
X1403550Y1249625D01*
X1403550Y1250290D02*
X1401450Y1250290D01*
X1401450Y1250955D02*
X1403550Y1250955D01*
X1403550Y1251620D02*
X1401450Y1251620D01*
X1401450Y1252285D02*
X1403550Y1252285D01*
X1403550Y1252950D02*
X1401450Y1252950D01*
X1401450Y1253615D02*
X1403550Y1253615D01*
X1403550Y1254280D02*
X1401450Y1254280D01*
X1401450Y1254945D02*
X1403550Y1254945D01*
X1403550Y1255610D02*
X1401450Y1255610D01*
X1401450Y1256275D02*
X1403550Y1256275D01*
X1403550Y1256940D02*
X1401450Y1256940D01*
X1401450Y1257605D02*
X1403550Y1257605D01*
X1403550Y1258270D02*
X1401450Y1258270D01*
X1401450Y1258935D02*
X1403550Y1258935D01*
X1403550Y1259600D02*
X1401450Y1259600D01*
X1401450Y1260265D02*
X1403550Y1260265D01*
X1406450Y1260300D02*
X1406450Y1246300D01*
X1406450Y1260300D02*
X1408550Y1260300D01*
X1408550Y1246300D01*
X1406450Y1246300D01*
X1406450Y1246965D02*
X1408550Y1246965D01*
X1408550Y1247630D02*
X1406450Y1247630D01*
X1406450Y1248295D02*
X1408550Y1248295D01*
X1408550Y1248960D02*
X1406450Y1248960D01*
X1406450Y1249625D02*
X1408550Y1249625D01*
X1408550Y1250290D02*
X1406450Y1250290D01*
X1406450Y1250955D02*
X1408550Y1250955D01*
X1408550Y1251620D02*
X1406450Y1251620D01*
X1406450Y1252285D02*
X1408550Y1252285D01*
X1408550Y1252950D02*
X1406450Y1252950D01*
X1406450Y1253615D02*
X1408550Y1253615D01*
X1408550Y1254280D02*
X1406450Y1254280D01*
X1406450Y1254945D02*
X1408550Y1254945D01*
X1408550Y1255610D02*
X1406450Y1255610D01*
X1406450Y1256275D02*
X1408550Y1256275D01*
X1408550Y1256940D02*
X1406450Y1256940D01*
X1406450Y1257605D02*
X1408550Y1257605D01*
X1408550Y1258270D02*
X1406450Y1258270D01*
X1406450Y1258935D02*
X1408550Y1258935D01*
X1408550Y1259600D02*
X1406450Y1259600D01*
X1406450Y1260265D02*
X1408550Y1260265D01*
X1411450Y1260300D02*
X1411450Y1246300D01*
X1411450Y1260300D02*
X1413550Y1260300D01*
X1413550Y1246300D01*
X1411450Y1246300D01*
X1411450Y1246965D02*
X1413550Y1246965D01*
X1413550Y1247630D02*
X1411450Y1247630D01*
X1411450Y1248295D02*
X1413550Y1248295D01*
X1413550Y1248960D02*
X1411450Y1248960D01*
X1411450Y1249625D02*
X1413550Y1249625D01*
X1413550Y1250290D02*
X1411450Y1250290D01*
X1411450Y1250955D02*
X1413550Y1250955D01*
X1413550Y1251620D02*
X1411450Y1251620D01*
X1411450Y1252285D02*
X1413550Y1252285D01*
X1413550Y1252950D02*
X1411450Y1252950D01*
X1411450Y1253615D02*
X1413550Y1253615D01*
X1413550Y1254280D02*
X1411450Y1254280D01*
X1411450Y1254945D02*
X1413550Y1254945D01*
X1413550Y1255610D02*
X1411450Y1255610D01*
X1411450Y1256275D02*
X1413550Y1256275D01*
X1413550Y1256940D02*
X1411450Y1256940D01*
X1411450Y1257605D02*
X1413550Y1257605D01*
X1413550Y1258270D02*
X1411450Y1258270D01*
X1411450Y1258935D02*
X1413550Y1258935D01*
X1413550Y1259600D02*
X1411450Y1259600D01*
X1411450Y1260265D02*
X1413550Y1260265D01*
X1416450Y1260300D02*
X1416450Y1246300D01*
X1416450Y1260300D02*
X1418550Y1260300D01*
X1418550Y1246300D01*
X1416450Y1246300D01*
X1416450Y1246965D02*
X1418550Y1246965D01*
X1418550Y1247630D02*
X1416450Y1247630D01*
X1416450Y1248295D02*
X1418550Y1248295D01*
X1418550Y1248960D02*
X1416450Y1248960D01*
X1416450Y1249625D02*
X1418550Y1249625D01*
X1418550Y1250290D02*
X1416450Y1250290D01*
X1416450Y1250955D02*
X1418550Y1250955D01*
X1418550Y1251620D02*
X1416450Y1251620D01*
X1416450Y1252285D02*
X1418550Y1252285D01*
X1418550Y1252950D02*
X1416450Y1252950D01*
X1416450Y1253615D02*
X1418550Y1253615D01*
X1418550Y1254280D02*
X1416450Y1254280D01*
X1416450Y1254945D02*
X1418550Y1254945D01*
X1418550Y1255610D02*
X1416450Y1255610D01*
X1416450Y1256275D02*
X1418550Y1256275D01*
X1418550Y1256940D02*
X1416450Y1256940D01*
X1416450Y1257605D02*
X1418550Y1257605D01*
X1418550Y1258270D02*
X1416450Y1258270D01*
X1416450Y1258935D02*
X1418550Y1258935D01*
X1418550Y1259600D02*
X1416450Y1259600D01*
X1416450Y1260265D02*
X1418550Y1260265D01*
X1429700Y1273550D02*
X1443700Y1273550D01*
X1443700Y1271450D01*
X1429700Y1271450D01*
X1429700Y1273550D01*
X1429700Y1272115D02*
X1443700Y1272115D01*
X1443700Y1272780D02*
X1429700Y1272780D01*
X1429700Y1273445D02*
X1443700Y1273445D01*
X1443700Y1278550D02*
X1429700Y1278550D01*
X1443700Y1278550D02*
X1443700Y1276450D01*
X1429700Y1276450D01*
X1429700Y1278550D01*
X1429700Y1277115D02*
X1443700Y1277115D01*
X1443700Y1277780D02*
X1429700Y1277780D01*
X1429700Y1278445D02*
X1443700Y1278445D01*
X1443700Y1283550D02*
X1429700Y1283550D01*
X1443700Y1283550D02*
X1443700Y1281450D01*
X1429700Y1281450D01*
X1429700Y1283550D01*
X1429700Y1282115D02*
X1443700Y1282115D01*
X1443700Y1282780D02*
X1429700Y1282780D01*
X1429700Y1283445D02*
X1443700Y1283445D01*
X1443700Y1288550D02*
X1429700Y1288550D01*
X1443700Y1288550D02*
X1443700Y1286450D01*
X1429700Y1286450D01*
X1429700Y1288550D01*
X1429700Y1287115D02*
X1443700Y1287115D01*
X1443700Y1287780D02*
X1429700Y1287780D01*
X1429700Y1288445D02*
X1443700Y1288445D01*
X1443700Y1293550D02*
X1429700Y1293550D01*
X1443700Y1293550D02*
X1443700Y1291450D01*
X1429700Y1291450D01*
X1429700Y1293550D01*
X1429700Y1292115D02*
X1443700Y1292115D01*
X1443700Y1292780D02*
X1429700Y1292780D01*
X1429700Y1293445D02*
X1443700Y1293445D01*
X1443700Y1298550D02*
X1429700Y1298550D01*
X1443700Y1298550D02*
X1443700Y1296450D01*
X1429700Y1296450D01*
X1429700Y1298550D01*
X1429700Y1297115D02*
X1443700Y1297115D01*
X1443700Y1297780D02*
X1429700Y1297780D01*
X1429700Y1298445D02*
X1443700Y1298445D01*
X1443700Y1303550D02*
X1429700Y1303550D01*
X1443700Y1303550D02*
X1443700Y1301450D01*
X1429700Y1301450D01*
X1429700Y1303550D01*
X1429700Y1302115D02*
X1443700Y1302115D01*
X1443700Y1302780D02*
X1429700Y1302780D01*
X1429700Y1303445D02*
X1443700Y1303445D01*
X1443700Y1308550D02*
X1429700Y1308550D01*
X1443700Y1308550D02*
X1443700Y1306450D01*
X1429700Y1306450D01*
X1429700Y1308550D01*
X1429700Y1307115D02*
X1443700Y1307115D01*
X1443700Y1307780D02*
X1429700Y1307780D01*
X1429700Y1308445D02*
X1443700Y1308445D01*
X1443700Y1313550D02*
X1429700Y1313550D01*
X1443700Y1313550D02*
X1443700Y1311450D01*
X1429700Y1311450D01*
X1429700Y1313550D01*
X1429700Y1312115D02*
X1443700Y1312115D01*
X1443700Y1312780D02*
X1429700Y1312780D01*
X1429700Y1313445D02*
X1443700Y1313445D01*
X1443700Y1318550D02*
X1429700Y1318550D01*
X1443700Y1318550D02*
X1443700Y1316450D01*
X1429700Y1316450D01*
X1429700Y1318550D01*
X1429700Y1317115D02*
X1443700Y1317115D01*
X1443700Y1317780D02*
X1429700Y1317780D01*
X1429700Y1318445D02*
X1443700Y1318445D01*
X1443700Y1323550D02*
X1429700Y1323550D01*
X1443700Y1323550D02*
X1443700Y1321450D01*
X1429700Y1321450D01*
X1429700Y1323550D01*
X1429700Y1322115D02*
X1443700Y1322115D01*
X1443700Y1322780D02*
X1429700Y1322780D01*
X1429700Y1323445D02*
X1443700Y1323445D01*
X1443700Y1328550D02*
X1429700Y1328550D01*
X1443700Y1328550D02*
X1443700Y1326450D01*
X1429700Y1326450D01*
X1429700Y1328550D01*
X1429700Y1327115D02*
X1443700Y1327115D01*
X1443700Y1327780D02*
X1429700Y1327780D01*
X1429700Y1328445D02*
X1443700Y1328445D01*
X1443700Y1333550D02*
X1429700Y1333550D01*
X1443700Y1333550D02*
X1443700Y1331450D01*
X1429700Y1331450D01*
X1429700Y1333550D01*
X1429700Y1332115D02*
X1443700Y1332115D01*
X1443700Y1332780D02*
X1429700Y1332780D01*
X1429700Y1333445D02*
X1443700Y1333445D01*
X1443700Y1338550D02*
X1429700Y1338550D01*
X1443700Y1338550D02*
X1443700Y1336450D01*
X1429700Y1336450D01*
X1429700Y1338550D01*
X1429700Y1337115D02*
X1443700Y1337115D01*
X1443700Y1337780D02*
X1429700Y1337780D01*
X1429700Y1338445D02*
X1443700Y1338445D01*
X1443700Y1343550D02*
X1429700Y1343550D01*
X1443700Y1343550D02*
X1443700Y1341450D01*
X1429700Y1341450D01*
X1429700Y1343550D01*
X1429700Y1342115D02*
X1443700Y1342115D01*
X1443700Y1342780D02*
X1429700Y1342780D01*
X1429700Y1343445D02*
X1443700Y1343445D01*
X1443700Y1348550D02*
X1429700Y1348550D01*
X1443700Y1348550D02*
X1443700Y1346450D01*
X1429700Y1346450D01*
X1429700Y1348550D01*
X1429700Y1347115D02*
X1443700Y1347115D01*
X1443700Y1347780D02*
X1429700Y1347780D01*
X1429700Y1348445D02*
X1443700Y1348445D01*
X1330300Y1348550D02*
X1316300Y1348550D01*
X1330300Y1348550D02*
X1330300Y1346450D01*
X1316300Y1346450D01*
X1316300Y1348550D01*
X1316300Y1347115D02*
X1330300Y1347115D01*
X1330300Y1347780D02*
X1316300Y1347780D01*
X1316300Y1348445D02*
X1330300Y1348445D01*
X1330300Y1343550D02*
X1316300Y1343550D01*
X1330300Y1343550D02*
X1330300Y1341450D01*
X1316300Y1341450D01*
X1316300Y1343550D01*
X1316300Y1342115D02*
X1330300Y1342115D01*
X1330300Y1342780D02*
X1316300Y1342780D01*
X1316300Y1343445D02*
X1330300Y1343445D01*
X1330300Y1338550D02*
X1316300Y1338550D01*
X1330300Y1338550D02*
X1330300Y1336450D01*
X1316300Y1336450D01*
X1316300Y1338550D01*
X1316300Y1337115D02*
X1330300Y1337115D01*
X1330300Y1337780D02*
X1316300Y1337780D01*
X1316300Y1338445D02*
X1330300Y1338445D01*
X1330300Y1333550D02*
X1316300Y1333550D01*
X1330300Y1333550D02*
X1330300Y1331450D01*
X1316300Y1331450D01*
X1316300Y1333550D01*
X1316300Y1332115D02*
X1330300Y1332115D01*
X1330300Y1332780D02*
X1316300Y1332780D01*
X1316300Y1333445D02*
X1330300Y1333445D01*
X1330300Y1328550D02*
X1316300Y1328550D01*
X1330300Y1328550D02*
X1330300Y1326450D01*
X1316300Y1326450D01*
X1316300Y1328550D01*
X1316300Y1327115D02*
X1330300Y1327115D01*
X1330300Y1327780D02*
X1316300Y1327780D01*
X1316300Y1328445D02*
X1330300Y1328445D01*
X1330300Y1323550D02*
X1316300Y1323550D01*
X1330300Y1323550D02*
X1330300Y1321450D01*
X1316300Y1321450D01*
X1316300Y1323550D01*
X1316300Y1322115D02*
X1330300Y1322115D01*
X1330300Y1322780D02*
X1316300Y1322780D01*
X1316300Y1323445D02*
X1330300Y1323445D01*
X1330300Y1318550D02*
X1316300Y1318550D01*
X1330300Y1318550D02*
X1330300Y1316450D01*
X1316300Y1316450D01*
X1316300Y1318550D01*
X1316300Y1317115D02*
X1330300Y1317115D01*
X1330300Y1317780D02*
X1316300Y1317780D01*
X1316300Y1318445D02*
X1330300Y1318445D01*
X1330300Y1313550D02*
X1316300Y1313550D01*
X1330300Y1313550D02*
X1330300Y1311450D01*
X1316300Y1311450D01*
X1316300Y1313550D01*
X1316300Y1312115D02*
X1330300Y1312115D01*
X1330300Y1312780D02*
X1316300Y1312780D01*
X1316300Y1313445D02*
X1330300Y1313445D01*
X1330300Y1308550D02*
X1316300Y1308550D01*
X1330300Y1308550D02*
X1330300Y1306450D01*
X1316300Y1306450D01*
X1316300Y1308550D01*
X1316300Y1307115D02*
X1330300Y1307115D01*
X1330300Y1307780D02*
X1316300Y1307780D01*
X1316300Y1308445D02*
X1330300Y1308445D01*
X1330300Y1303550D02*
X1316300Y1303550D01*
X1330300Y1303550D02*
X1330300Y1301450D01*
X1316300Y1301450D01*
X1316300Y1303550D01*
X1316300Y1302115D02*
X1330300Y1302115D01*
X1330300Y1302780D02*
X1316300Y1302780D01*
X1316300Y1303445D02*
X1330300Y1303445D01*
X1330300Y1298550D02*
X1316300Y1298550D01*
X1330300Y1298550D02*
X1330300Y1296450D01*
X1316300Y1296450D01*
X1316300Y1298550D01*
X1316300Y1297115D02*
X1330300Y1297115D01*
X1330300Y1297780D02*
X1316300Y1297780D01*
X1316300Y1298445D02*
X1330300Y1298445D01*
X1330300Y1293550D02*
X1316300Y1293550D01*
X1330300Y1293550D02*
X1330300Y1291450D01*
X1316300Y1291450D01*
X1316300Y1293550D01*
X1316300Y1292115D02*
X1330300Y1292115D01*
X1330300Y1292780D02*
X1316300Y1292780D01*
X1316300Y1293445D02*
X1330300Y1293445D01*
X1330300Y1288550D02*
X1316300Y1288550D01*
X1330300Y1288550D02*
X1330300Y1286450D01*
X1316300Y1286450D01*
X1316300Y1288550D01*
X1316300Y1287115D02*
X1330300Y1287115D01*
X1330300Y1287780D02*
X1316300Y1287780D01*
X1316300Y1288445D02*
X1330300Y1288445D01*
X1330300Y1283550D02*
X1316300Y1283550D01*
X1330300Y1283550D02*
X1330300Y1281450D01*
X1316300Y1281450D01*
X1316300Y1283550D01*
X1316300Y1282115D02*
X1330300Y1282115D01*
X1330300Y1282780D02*
X1316300Y1282780D01*
X1316300Y1283445D02*
X1330300Y1283445D01*
X1330300Y1278550D02*
X1316300Y1278550D01*
X1330300Y1278550D02*
X1330300Y1276450D01*
X1316300Y1276450D01*
X1316300Y1278550D01*
X1316300Y1277115D02*
X1330300Y1277115D01*
X1330300Y1277780D02*
X1316300Y1277780D01*
X1316300Y1278445D02*
X1330300Y1278445D01*
X1330300Y1273550D02*
X1316300Y1273550D01*
X1330300Y1273550D02*
X1330300Y1271450D01*
X1316300Y1271450D01*
X1316300Y1273550D01*
X1316300Y1272115D02*
X1330300Y1272115D01*
X1330300Y1272780D02*
X1316300Y1272780D01*
X1316300Y1273445D02*
X1330300Y1273445D01*
D18*
X1478000Y1198500D03*
X1478000Y1181500D03*
X1375000Y1198500D03*
X1375000Y1181500D03*
X1309000Y1198500D03*
X1309000Y1181500D03*
X1330000Y1198500D03*
X1330000Y1181500D03*
X1415000Y1181500D03*
X1415000Y1198500D03*
D22*
X1355000Y1197500D03*
X1355000Y1182500D03*
X1395000Y1197500D03*
X1395000Y1182500D03*
D18*
X1363500Y1393000D03*
X1346500Y1393000D03*
X1281500Y1280000D03*
X1298500Y1280000D03*
X1423500Y1395000D03*
X1406500Y1395000D03*
X1416500Y1232000D03*
X1433500Y1232000D03*
D13*
X1465000Y1343500D03*
X1465000Y1326500D03*
D29*
X1315000Y1149000D03*
X1315000Y1121000D03*
D18*
X1363500Y1415000D03*
X1346500Y1415000D03*
X1281500Y1258000D03*
X1298500Y1258000D03*
D30*
X1508250Y1277500D03*
X1481750Y1277500D03*
X1481750Y1260500D03*
X1508250Y1260500D03*
D13*
X1465000Y1292500D03*
X1465000Y1275500D03*
D18*
X1486500Y1295000D03*
X1503500Y1295000D03*
X1436000Y1181500D03*
X1436000Y1198500D03*
X1457000Y1181500D03*
X1457000Y1198500D03*
D31*
X1589000Y1660000D03*
X1561000Y1660000D03*
D32*
X1540000Y1660000D03*
X1520000Y1650500D03*
X1520000Y1669500D03*
D13*
X1486500Y1649000D03*
X1503500Y1649000D03*
X1486500Y1671000D03*
X1503500Y1671000D03*
D32*
X1540000Y1500000D03*
X1520000Y1490500D03*
X1520000Y1509500D03*
D13*
X1486500Y1489000D03*
X1503500Y1489000D03*
X1486500Y1511000D03*
X1503500Y1511000D03*
D31*
X1589000Y1500000D03*
X1561000Y1500000D03*
D32*
X1115000Y1185000D03*
X1135000Y1194500D03*
X1135000Y1175500D03*
D18*
X1153000Y1176500D03*
X1153000Y1193500D03*
X1175000Y1193500D03*
X1175000Y1176500D03*
D32*
X1115000Y1145000D03*
X1135000Y1154500D03*
X1135000Y1135500D03*
D18*
X1153000Y1136500D03*
X1153000Y1153500D03*
X1175000Y1153500D03*
X1175000Y1136500D03*
D31*
X1066000Y1145000D03*
X1094000Y1145000D03*
D32*
X1115000Y1295000D03*
X1135000Y1304500D03*
X1135000Y1285500D03*
D18*
X1153000Y1286500D03*
X1153000Y1303500D03*
X1180000Y1303500D03*
X1180000Y1286500D03*
D31*
X1066000Y1295000D03*
X1094000Y1295000D03*
D20*
X1380000Y1510000D03*
X1389500Y1490000D03*
X1370500Y1490000D03*
D13*
X1371500Y1472000D03*
X1388500Y1472000D03*
X1388500Y1450000D03*
X1371500Y1450000D03*
D33*
X1380000Y1559000D03*
X1380000Y1531000D03*
D31*
X1066000Y1185000D03*
X1094000Y1185000D03*
D33*
X1350000Y1149000D03*
X1350000Y1121000D03*
D34*
X1228400Y1576800D02*
X1210200Y1576800D01*
X1210200Y1581300D01*
X1228400Y1581300D01*
X1228400Y1576800D01*
X1228400Y1578225D02*
X1210200Y1578225D01*
X1210200Y1579650D02*
X1228400Y1579650D01*
X1228400Y1581075D02*
X1210200Y1581075D01*
X1210200Y1564100D02*
X1228400Y1564100D01*
X1210200Y1564100D02*
X1210200Y1568600D01*
X1228400Y1568600D01*
X1228400Y1564100D01*
X1228400Y1565525D02*
X1210200Y1565525D01*
X1210200Y1566950D02*
X1228400Y1566950D01*
X1228400Y1568375D02*
X1210200Y1568375D01*
X1210200Y1551400D02*
X1228400Y1551400D01*
X1210200Y1551400D02*
X1210200Y1555900D01*
X1228400Y1555900D01*
X1228400Y1551400D01*
X1228400Y1552825D02*
X1210200Y1552825D01*
X1210200Y1554250D02*
X1228400Y1554250D01*
X1228400Y1555675D02*
X1210200Y1555675D01*
X1210200Y1538700D02*
X1228400Y1538700D01*
X1210200Y1538700D02*
X1210200Y1543200D01*
X1228400Y1543200D01*
X1228400Y1538700D01*
X1228400Y1540125D02*
X1210200Y1540125D01*
X1210200Y1541550D02*
X1228400Y1541550D01*
X1228400Y1542975D02*
X1210200Y1542975D01*
X1259600Y1538700D02*
X1277800Y1538700D01*
X1259600Y1538700D02*
X1259600Y1543200D01*
X1277800Y1543200D01*
X1277800Y1538700D01*
X1277800Y1540125D02*
X1259600Y1540125D01*
X1259600Y1541550D02*
X1277800Y1541550D01*
X1277800Y1542975D02*
X1259600Y1542975D01*
X1259600Y1551400D02*
X1277800Y1551400D01*
X1259600Y1551400D02*
X1259600Y1555900D01*
X1277800Y1555900D01*
X1277800Y1551400D01*
X1277800Y1552825D02*
X1259600Y1552825D01*
X1259600Y1554250D02*
X1277800Y1554250D01*
X1277800Y1555675D02*
X1259600Y1555675D01*
X1259600Y1564100D02*
X1277800Y1564100D01*
X1259600Y1564100D02*
X1259600Y1568600D01*
X1277800Y1568600D01*
X1277800Y1564100D01*
X1277800Y1565525D02*
X1259600Y1565525D01*
X1259600Y1566950D02*
X1277800Y1566950D01*
X1277800Y1568375D02*
X1259600Y1568375D01*
X1259600Y1576800D02*
X1277800Y1576800D01*
X1259600Y1576800D02*
X1259600Y1581300D01*
X1277800Y1581300D01*
X1277800Y1576800D01*
X1277800Y1578225D02*
X1259600Y1578225D01*
X1259600Y1579650D02*
X1277800Y1579650D01*
X1277800Y1581075D02*
X1259600Y1581075D01*
D13*
X1244000Y1496500D03*
X1244000Y1513500D03*
D18*
X1269000Y1496500D03*
X1269000Y1513500D03*
D35*
X1329000Y1517000D03*
X1329000Y1574000D03*
D18*
X1219000Y1496500D03*
X1219000Y1513500D03*
D33*
X1154000Y1474000D03*
X1154000Y1446000D03*
X1264000Y1441000D03*
X1264000Y1469000D03*
D36*
X1026350Y1550000D03*
X993650Y1550000D03*
X993650Y1520000D03*
X1026350Y1520000D03*
X1026350Y1490000D03*
X993650Y1490000D03*
X993650Y1460000D03*
X1026350Y1460000D03*
X1026350Y1430000D03*
X993650Y1430000D03*
D13*
X951500Y1430000D03*
X968500Y1430000D03*
X951500Y1452000D03*
X968500Y1452000D03*
X951500Y1474000D03*
X968500Y1474000D03*
X951500Y1496000D03*
X968500Y1496000D03*
X951500Y1518000D03*
X968500Y1518000D03*
X951500Y1540000D03*
X968500Y1540000D03*
X951500Y1562000D03*
X968500Y1562000D03*
D18*
X1059000Y1481500D03*
X1059000Y1498500D03*
D13*
X1084000Y1481500D03*
X1084000Y1498500D03*
D37*
X968500Y1170000D03*
X968500Y1180000D03*
X968500Y1190000D03*
X968500Y1200000D03*
X968500Y1210000D03*
X968500Y1220000D03*
X968500Y1230000D03*
X968500Y1240000D03*
X968500Y1250000D03*
X968500Y1260000D03*
X968500Y1270000D03*
X968500Y1280000D03*
X968500Y1290000D03*
X968500Y1300000D03*
X968500Y1310000D03*
D38*
X992000Y1328000D03*
X992000Y1152000D03*
D39*
X1097000Y1672000D03*
X1097000Y1622000D03*
D13*
X1061500Y1268000D03*
X1078500Y1268000D03*
X1061500Y1240000D03*
X1078500Y1240000D03*
X1061500Y1212000D03*
X1078500Y1212000D03*
X1101500Y1268000D03*
X1118500Y1268000D03*
X1101500Y1240000D03*
X1118500Y1240000D03*
X1101500Y1212000D03*
X1118500Y1212000D03*
X1141500Y1212000D03*
X1158500Y1212000D03*
X1141500Y1240000D03*
X1158500Y1240000D03*
X1141500Y1268000D03*
X1158500Y1268000D03*
D32*
X1115000Y1335000D03*
X1135000Y1344500D03*
X1135000Y1325500D03*
D18*
X1153000Y1326500D03*
X1153000Y1343500D03*
X1180000Y1343500D03*
X1180000Y1326500D03*
D31*
X1066000Y1335000D03*
X1094000Y1335000D03*
D32*
X1115000Y1075000D03*
X1135000Y1084500D03*
X1135000Y1065500D03*
D18*
X1153000Y1066500D03*
X1153000Y1083500D03*
X1175000Y1083500D03*
X1175000Y1066500D03*
D32*
X1115000Y1110000D03*
X1135000Y1119500D03*
X1135000Y1100500D03*
D18*
X1153000Y1101500D03*
X1153000Y1118500D03*
X1175000Y1118500D03*
X1175000Y1101500D03*
D20*
X1450000Y1510000D03*
X1459500Y1490000D03*
X1440500Y1490000D03*
D13*
X1441500Y1472000D03*
X1458500Y1472000D03*
X1458500Y1450000D03*
X1441500Y1450000D03*
X1423500Y1472000D03*
X1406500Y1472000D03*
X1406500Y1450000D03*
X1423500Y1450000D03*
D40*
X1365000Y1081500D03*
X1375000Y1081500D03*
X1385000Y1081500D03*
X1395000Y1081500D03*
X1405000Y1081500D03*
X1415000Y1081500D03*
X1425000Y1081500D03*
X1435000Y1081500D03*
X1445000Y1081500D03*
X1455000Y1081500D03*
X1465000Y1081500D03*
X1475000Y1081500D03*
X1485000Y1081500D03*
X1495000Y1081500D03*
X1505000Y1081500D03*
D41*
X1523000Y1058000D03*
X1347000Y1058000D03*
D42*
X1016500Y1095000D03*
X1073500Y1095000D03*
X1267500Y1097000D03*
X1210500Y1097000D03*
D43*
X1535500Y1372000D03*
X1545000Y1372000D03*
X1554500Y1372000D03*
X1554500Y1398000D03*
X1535500Y1398000D03*
D44*
X1522500Y1361500D02*
X1522500Y1340500D01*
X1519500Y1340500D01*
X1519500Y1361500D01*
X1522500Y1361500D01*
X1522500Y1343350D02*
X1519500Y1343350D01*
X1519500Y1346200D02*
X1522500Y1346200D01*
X1522500Y1349050D02*
X1519500Y1349050D01*
X1519500Y1351900D02*
X1522500Y1351900D01*
X1522500Y1354750D02*
X1519500Y1354750D01*
X1519500Y1357600D02*
X1522500Y1357600D01*
X1522500Y1360450D02*
X1519500Y1360450D01*
X1522500Y1329500D02*
X1522500Y1308500D01*
X1519500Y1308500D01*
X1519500Y1329500D01*
X1522500Y1329500D01*
X1522500Y1311350D02*
X1519500Y1311350D01*
X1519500Y1314200D02*
X1522500Y1314200D01*
X1522500Y1317050D02*
X1519500Y1317050D01*
X1519500Y1319900D02*
X1522500Y1319900D01*
X1522500Y1322750D02*
X1519500Y1322750D01*
X1519500Y1325600D02*
X1522500Y1325600D01*
X1522500Y1328450D02*
X1519500Y1328450D01*
X1570500Y1340500D02*
X1570500Y1361500D01*
X1570500Y1340500D02*
X1567500Y1340500D01*
X1567500Y1361500D01*
X1570500Y1361500D01*
X1570500Y1343350D02*
X1567500Y1343350D01*
X1567500Y1346200D02*
X1570500Y1346200D01*
X1570500Y1349050D02*
X1567500Y1349050D01*
X1567500Y1351900D02*
X1570500Y1351900D01*
X1570500Y1354750D02*
X1567500Y1354750D01*
X1567500Y1357600D02*
X1570500Y1357600D01*
X1570500Y1360450D02*
X1567500Y1360450D01*
X1570500Y1329500D02*
X1570500Y1308500D01*
X1567500Y1308500D01*
X1567500Y1329500D01*
X1570500Y1329500D01*
X1570500Y1311350D02*
X1567500Y1311350D01*
X1567500Y1314200D02*
X1570500Y1314200D01*
X1570500Y1317050D02*
X1567500Y1317050D01*
X1567500Y1319900D02*
X1570500Y1319900D01*
X1570500Y1322750D02*
X1567500Y1322750D01*
X1567500Y1325600D02*
X1570500Y1325600D01*
X1570500Y1328450D02*
X1567500Y1328450D01*
D13*
X1556500Y1447000D03*
X1573500Y1447000D03*
X1556500Y1473000D03*
X1573500Y1473000D03*
D10*
G36*
X190794Y775775D02*
X134225Y719206D01*
X70586Y782845D01*
X127155Y839414D01*
X190794Y775775D01*
G37*
G36*
X134225Y280794D02*
X190794Y224225D01*
X127155Y160586D01*
X70586Y217155D01*
X134225Y280794D01*
G37*
G36*
X219085Y365654D02*
X275654Y309085D01*
X212015Y245446D01*
X155446Y302015D01*
X219085Y365654D01*
G37*
G36*
X275654Y690915D02*
X219085Y634346D01*
X155446Y697985D01*
X212015Y754554D01*
X275654Y690915D01*
G37*
G36*
X629206Y224225D02*
X685775Y280794D01*
X749414Y217155D01*
X692845Y160586D01*
X629206Y224225D01*
G37*
G36*
X544346Y309085D02*
X600915Y365654D01*
X664554Y302015D01*
X607985Y245446D01*
X544346Y309085D01*
G37*
G36*
X685775Y719206D02*
X629206Y775775D01*
X692845Y839414D01*
X749414Y782845D01*
X685775Y719206D01*
G37*
G36*
X600915Y634346D02*
X544346Y690915D01*
X607985Y754554D01*
X664554Y697985D01*
X600915Y634346D01*
G37*
D17*
X659350Y503000D03*
X659350Y451000D03*
X672050Y503000D03*
X646650Y503000D03*
X633950Y503000D03*
X672050Y451000D03*
X646650Y451000D03*
X633950Y451000D03*
D45*
X653000Y477000D03*
D13*
X677500Y553000D03*
X660500Y553000D03*
X677500Y577000D03*
X660500Y577000D03*
D46*
X706250Y612000D03*
X725750Y612000D03*
X725750Y672000D03*
X706250Y672000D03*
D47*
X716000Y672000D03*
X716000Y612000D03*
D16*
X716000Y642000D03*
D17*
X666650Y603000D03*
X666650Y655000D03*
X653950Y603000D03*
X679350Y603000D03*
X692050Y603000D03*
X653950Y655000D03*
X679350Y655000D03*
X692050Y655000D03*
D13*
X739500Y603000D03*
X756500Y603000D03*
X739500Y681000D03*
X756500Y681000D03*
X756500Y659000D03*
X739500Y659000D03*
X739500Y625000D03*
X756500Y625000D03*
X187500Y819000D03*
X204500Y819000D03*
D19*
G36*
X225565Y775183D02*
X221146Y779602D01*
X226625Y785081D01*
X231044Y780662D01*
X225565Y775183D01*
G37*
G36*
X252435Y768817D02*
X256854Y764398D01*
X251375Y758919D01*
X246956Y763338D01*
X252435Y768817D01*
G37*
D20*
X64000Y691000D03*
X73500Y671000D03*
X54500Y671000D03*
D21*
X105000Y633000D03*
X145000Y633000D03*
D13*
X115500Y679000D03*
X132500Y679000D03*
D22*
X95000Y685500D03*
X95000Y670500D03*
D13*
X55500Y650000D03*
X72500Y650000D03*
D32*
X158000Y341000D03*
X138000Y331500D03*
X138000Y350500D03*
D18*
X117000Y384500D03*
X117000Y367500D03*
D22*
X95000Y368500D03*
X95000Y383500D03*
D18*
X117000Y349500D03*
X117000Y332500D03*
D25*
X410000Y500000D03*
D23*
X539139Y670861D02*
X532777Y677223D01*
X580861Y629139D02*
X587223Y622777D01*
D24*
X560000Y650000D03*
D23*
X280861Y329139D02*
X287223Y322777D01*
X239139Y370861D02*
X232777Y377223D01*
D24*
X260000Y350000D03*
D23*
X232777Y622777D02*
X239139Y629139D01*
X280861Y670861D02*
X287223Y677223D01*
D24*
X260000Y650000D03*
D23*
X580861Y370861D02*
X587223Y377223D01*
X539139Y329139D02*
X532777Y322777D01*
D24*
X560000Y350000D03*
D20*
X428000Y852000D03*
X418500Y872000D03*
X437500Y872000D03*
D13*
X470500Y871000D03*
X453500Y871000D03*
D20*
X428000Y742000D03*
X418500Y762000D03*
X437500Y762000D03*
D13*
X453500Y761000D03*
X470500Y761000D03*
D20*
X428000Y632000D03*
X418500Y652000D03*
X437500Y652000D03*
D13*
X470500Y651000D03*
X453500Y651000D03*
D20*
X448000Y412000D03*
X438500Y432000D03*
X457500Y432000D03*
D13*
X495500Y425000D03*
X478500Y425000D03*
D20*
X428000Y302000D03*
X418500Y322000D03*
X437500Y322000D03*
D13*
X453500Y321000D03*
X470500Y321000D03*
D20*
X428000Y192000D03*
X418500Y212000D03*
X437500Y212000D03*
D13*
X470500Y211000D03*
X453500Y211000D03*
X470500Y782000D03*
X453500Y782000D03*
D22*
X420500Y782000D03*
X435500Y782000D03*
D13*
X470500Y892000D03*
X453500Y892000D03*
D22*
X420500Y892000D03*
X435500Y892000D03*
D13*
X470500Y672000D03*
X453500Y672000D03*
D22*
X420500Y672000D03*
X435500Y672000D03*
D13*
X495500Y446000D03*
X478500Y446000D03*
D22*
X521000Y443500D03*
X521000Y428500D03*
D13*
X470500Y342000D03*
X453500Y342000D03*
D22*
X420500Y342000D03*
X435500Y342000D03*
D13*
X470500Y232000D03*
X453500Y232000D03*
D22*
X420500Y232000D03*
X435500Y232000D03*
D26*
X199000Y187000D03*
X255000Y187000D03*
D18*
X257000Y158500D03*
X257000Y141500D03*
X197000Y158500D03*
X197000Y141500D03*
X235500Y155000D03*
X218500Y155000D03*
D27*
X235750Y131000D03*
X229250Y131000D03*
X222750Y131000D03*
X216250Y131000D03*
X216250Y105000D03*
X222750Y105000D03*
X229250Y105000D03*
X235750Y105000D03*
D13*
X642500Y553000D03*
X625500Y553000D03*
X642500Y577000D03*
X625500Y577000D03*
X563500Y211000D03*
X580500Y211000D03*
X548500Y771000D03*
X565500Y771000D03*
X548500Y813000D03*
X565500Y813000D03*
X548500Y792000D03*
X565500Y792000D03*
X563500Y232000D03*
X580500Y232000D03*
X563500Y190000D03*
X580500Y190000D03*
X72500Y628000D03*
X55500Y628000D03*
D18*
X95000Y349500D03*
X95000Y332500D03*
M02*
