G04 EAGLE Gerber RS-274X export*
G75*
%MOMM*%
%FSLAX34Y34*%
%LPD*%
%INSoldermask Bottom*%
%IPPOS*%
%AMOC8*
5,1,8,0,0,1.08239X$1,22.5*%
G01*
%ADD10C,4.703200*%
%ADD11C,5.203200*%
%ADD12C,2.703200*%
%ADD13C,3.703200*%
%ADD14C,7.203200*%
%ADD15P,1.869504X8X67.500000*%
%ADD16C,7.219200*%
%ADD17P,1.869504X8X157.500000*%
%ADD18P,1.869504X8X247.500000*%
%ADD19P,1.869504X8X337.500000*%
%ADD20R,1.727200X1.727200*%
%ADD21P,1.869504X8X112.500000*%
%ADD22C,2.503200*%
%ADD23C,2.203200*%
%ADD24C,1.603200*%
%ADD25P,1.869504X8X22.500000*%
%ADD26P,1.869504X8X292.500000*%
%ADD27C,1.425200*%
%ADD28R,1.425200X1.425200*%
%ADD29C,1.703200*%
%ADD30P,1.852186X8X22.500000*%
%ADD31P,1.852186X8X202.500000*%
%ADD32C,1.409600*%
%ADD33C,1.059600*%
%ADD34C,0.959600*%
%ADD35C,1.309600*%
%ADD36C,1.209600*%
%ADD37C,1.478200*%
%ADD38C,1.009600*%
%ADD39C,1.553200*%


D10*
X950000Y40000D03*
X1550000Y40000D03*
X1550000Y960000D03*
X950000Y960000D03*
X1790000Y40000D03*
X2390000Y40000D03*
X2390000Y960000D03*
X1790000Y960000D03*
D11*
X1790000Y330000D03*
D10*
X110000Y1060000D03*
X710000Y1060000D03*
X710000Y1980000D03*
X110000Y1980000D03*
D12*
X900000Y1040000D03*
X1590000Y1040000D03*
X1590000Y1910000D03*
X900000Y1910000D03*
D13*
X1405000Y1130000D03*
D14*
X1505000Y1130000D03*
D13*
X1605000Y1780000D03*
D14*
X1505000Y1780000D03*
D10*
X110000Y40000D03*
X710000Y40000D03*
X710000Y960000D03*
X110000Y960000D03*
D15*
X974226Y733348D03*
X924728Y782846D03*
X1016652Y775774D03*
X967154Y825272D03*
D16*
X970690Y779310D03*
D17*
X1101512Y309086D03*
X1052014Y259588D03*
X1059086Y351512D03*
X1009588Y302014D03*
D16*
X1055550Y305550D03*
D18*
X1525774Y266652D03*
X1575272Y217154D03*
X1483348Y224226D03*
X1532846Y174728D03*
D16*
X1529310Y220690D03*
D18*
X1440914Y351512D03*
X1490412Y302014D03*
X1398488Y309086D03*
X1447986Y259588D03*
D16*
X1444450Y305550D03*
D15*
X1059086Y648488D03*
X1009588Y697986D03*
X1101512Y690914D03*
X1052014Y740412D03*
D16*
X1055550Y694450D03*
D19*
X1483348Y775774D03*
X1532846Y825272D03*
X1525774Y733348D03*
X1575272Y782846D03*
D16*
X1529310Y779310D03*
D19*
X1398488Y690914D03*
X1447986Y740412D03*
X1440914Y648488D03*
X1490412Y697986D03*
D16*
X1444450Y694450D03*
D17*
X1016652Y224226D03*
X967154Y174728D03*
X974226Y266652D03*
X924728Y217154D03*
D16*
X970690Y220690D03*
D20*
X1033000Y987500D03*
D21*
X1058400Y987500D03*
X1083800Y987500D03*
X1109200Y987500D03*
X1134600Y987500D03*
X1160000Y987500D03*
X1185400Y987500D03*
X1210800Y987500D03*
X1236200Y987500D03*
X1261600Y987500D03*
X1287000Y987500D03*
D22*
X1063000Y206000D03*
D23*
X1400000Y650000D03*
D24*
X1375251Y674749D03*
X1424749Y625251D03*
D23*
X1100000Y650000D03*
D24*
X1075251Y625251D03*
X1124749Y674749D03*
D23*
X1400000Y350000D03*
D24*
X1424749Y374749D03*
X1375251Y325251D03*
D23*
X1100000Y350000D03*
D24*
X1124749Y325251D03*
X1075251Y374749D03*
D25*
X1217500Y467500D03*
X1217500Y532500D03*
X1282500Y467500D03*
X1282500Y532500D03*
D16*
X1250000Y500000D03*
D15*
X1814226Y733348D03*
X1764728Y782846D03*
X1856652Y775774D03*
X1807154Y825272D03*
D16*
X1810690Y779310D03*
D17*
X1856652Y224226D03*
X1807154Y174728D03*
X1814226Y266652D03*
X1764728Y217154D03*
D16*
X1810690Y220690D03*
D17*
X1941512Y309086D03*
X1892014Y259588D03*
X1899086Y351512D03*
X1849588Y302014D03*
D16*
X1895550Y305550D03*
D15*
X1899086Y648488D03*
X1849588Y697986D03*
X1941512Y690914D03*
X1892014Y740412D03*
D16*
X1895550Y694450D03*
D18*
X2365774Y266652D03*
X2415272Y217154D03*
X2323348Y224226D03*
X2372846Y174728D03*
D16*
X2369310Y220690D03*
D18*
X2280914Y351512D03*
X2330412Y302014D03*
X2238488Y309086D03*
X2287986Y259588D03*
D16*
X2284450Y305550D03*
D19*
X2323348Y775774D03*
X2372846Y825272D03*
X2365774Y733348D03*
X2415272Y782846D03*
D16*
X2369310Y779310D03*
D19*
X2238488Y690914D03*
X2287986Y740412D03*
X2280914Y648488D03*
X2330412Y697986D03*
D16*
X2284450Y694450D03*
D20*
X2026500Y12500D03*
D21*
X2051900Y12500D03*
X2077300Y12500D03*
X2102700Y12500D03*
X2128100Y12500D03*
X2153500Y12500D03*
D20*
X1924900Y987500D03*
D21*
X1950300Y987500D03*
X1975700Y987500D03*
X2001100Y987500D03*
X2026500Y987500D03*
X2051900Y987500D03*
X2077300Y987500D03*
X2102700Y987500D03*
X2128100Y987500D03*
X2153500Y987500D03*
X2178900Y987500D03*
X2204300Y987500D03*
X2229700Y987500D03*
X2255100Y987500D03*
D22*
X1911000Y200000D03*
D23*
X1940000Y650000D03*
D24*
X1915251Y625251D03*
X1964749Y674749D03*
D23*
X1940000Y350000D03*
D24*
X1964749Y325251D03*
X1915251Y374749D03*
D23*
X2240000Y650000D03*
D24*
X2215251Y674749D03*
X2264749Y625251D03*
D23*
X2240000Y350000D03*
D24*
X2264749Y374749D03*
X2215251Y325251D03*
D25*
X2057500Y467500D03*
X2057500Y532500D03*
X2122500Y467500D03*
X2122500Y532500D03*
D16*
X2090000Y500000D03*
D15*
X134226Y1753348D03*
X84728Y1802846D03*
X176652Y1795774D03*
X127154Y1845272D03*
D16*
X130690Y1799310D03*
D17*
X261512Y1329086D03*
X212014Y1279588D03*
X219086Y1371512D03*
X169588Y1322014D03*
D16*
X215550Y1325550D03*
D18*
X685774Y1286652D03*
X735272Y1237154D03*
X643348Y1244226D03*
X692846Y1194728D03*
D16*
X689310Y1240690D03*
D18*
X600914Y1371512D03*
X650412Y1322014D03*
X558488Y1329086D03*
X607986Y1279588D03*
D16*
X604450Y1325550D03*
D15*
X219086Y1668488D03*
X169588Y1717986D03*
X261512Y1710914D03*
X212014Y1760412D03*
D16*
X215550Y1714450D03*
D19*
X643348Y1795774D03*
X692846Y1845272D03*
X685774Y1753348D03*
X735272Y1802846D03*
D16*
X689310Y1799310D03*
D19*
X558488Y1710914D03*
X607986Y1760412D03*
X600914Y1668488D03*
X650412Y1717986D03*
D16*
X604450Y1714450D03*
D17*
X176652Y1244226D03*
X127154Y1194728D03*
X134226Y1286652D03*
X84728Y1237154D03*
D16*
X130690Y1240690D03*
D20*
X193000Y2007500D03*
D21*
X218400Y2007500D03*
X243800Y2007500D03*
X269200Y2007500D03*
X294600Y2007500D03*
X320000Y2007500D03*
X345400Y2007500D03*
X370800Y2007500D03*
X396200Y2007500D03*
X421600Y2007500D03*
X447000Y2007500D03*
D22*
X223000Y1226000D03*
D23*
X560000Y1670000D03*
D24*
X535251Y1694749D03*
X584749Y1645251D03*
D23*
X260000Y1670000D03*
D24*
X235251Y1645251D03*
X284749Y1694749D03*
D23*
X560000Y1370000D03*
D24*
X584749Y1394749D03*
X535251Y1345251D03*
D23*
X260000Y1370000D03*
D24*
X284749Y1345251D03*
X235251Y1394749D03*
D25*
X377500Y1487500D03*
X377500Y1552500D03*
X442500Y1487500D03*
X442500Y1552500D03*
D16*
X410000Y1520000D03*
D26*
X1617500Y1523300D03*
X1617500Y1497900D03*
X1617500Y1472500D03*
X1617500Y1447100D03*
X1617300Y1711200D03*
X1617300Y1685800D03*
X1617300Y1660400D03*
X1617300Y1635000D03*
X1617300Y1609600D03*
X1617300Y1584200D03*
X1617300Y1558800D03*
D27*
X1177000Y1563000D03*
X1159000Y1545000D03*
D28*
X1141000Y1563000D03*
D29*
X1064500Y1457700D03*
X1084000Y1445000D03*
X1064500Y1432300D03*
D30*
X1224000Y1470000D03*
D31*
X1194000Y1470000D03*
X1194000Y1440000D03*
D30*
X1224000Y1440000D03*
X1224000Y1410000D03*
D31*
X1194000Y1410000D03*
X1194000Y1380000D03*
D30*
X1224000Y1380000D03*
D29*
X1264000Y1390000D03*
X1264000Y1410000D03*
D25*
X872500Y1715000D03*
X907500Y1715000D03*
D29*
X1064500Y1547700D03*
X1084000Y1535000D03*
X1064500Y1522300D03*
D20*
X1132300Y1037000D03*
D21*
X1157700Y1037000D03*
D20*
X1232300Y1037000D03*
D21*
X1257700Y1037000D03*
D20*
X1032300Y1037000D03*
D21*
X1057700Y1037000D03*
D20*
X1502300Y1913000D03*
D21*
X1527700Y1913000D03*
D20*
X1402300Y1913000D03*
D21*
X1427700Y1913000D03*
D20*
X1206900Y1826000D03*
D25*
X1206900Y1851400D03*
X1232300Y1826000D03*
X1232300Y1851400D03*
X1257700Y1826000D03*
X1257700Y1851400D03*
X1283100Y1826000D03*
X1283100Y1851400D03*
X1308500Y1826000D03*
X1308500Y1851400D03*
D15*
X134226Y733348D03*
X84728Y782846D03*
X176652Y775774D03*
X127154Y825272D03*
D16*
X130690Y779310D03*
D17*
X176652Y224226D03*
X127154Y174728D03*
X134226Y266652D03*
X84728Y217154D03*
D16*
X130690Y220690D03*
D17*
X261512Y309086D03*
X212014Y259588D03*
X219086Y351512D03*
X169588Y302014D03*
D16*
X215550Y305550D03*
D15*
X219086Y648488D03*
X169588Y697986D03*
X261512Y690914D03*
X212014Y740412D03*
D16*
X215550Y694450D03*
D18*
X685774Y266652D03*
X735272Y217154D03*
X643348Y224226D03*
X692846Y174728D03*
D16*
X689310Y220690D03*
D18*
X600914Y351512D03*
X650412Y302014D03*
X558488Y309086D03*
X607986Y259588D03*
D16*
X604450Y305550D03*
D19*
X643348Y775774D03*
X692846Y825272D03*
X685774Y733348D03*
X735272Y782846D03*
D16*
X689310Y779310D03*
D19*
X558488Y690914D03*
X607986Y740412D03*
X600914Y648488D03*
X650412Y697986D03*
D16*
X604450Y694450D03*
D20*
X295700Y832500D03*
D25*
X295700Y807100D03*
X321100Y832500D03*
X321100Y807100D03*
X346500Y832500D03*
X346500Y807100D03*
X371900Y832500D03*
X371900Y807100D03*
X397300Y832500D03*
X397300Y807100D03*
X422700Y832500D03*
X422700Y807100D03*
X448100Y832500D03*
X448100Y807100D03*
X473500Y832500D03*
X473500Y807100D03*
X498900Y832500D03*
X498900Y807100D03*
X524300Y832500D03*
X524300Y807100D03*
D20*
X295700Y722500D03*
D25*
X295700Y697100D03*
X321100Y722500D03*
X321100Y697100D03*
X346500Y722500D03*
X346500Y697100D03*
X371900Y722500D03*
X371900Y697100D03*
X397300Y722500D03*
X397300Y697100D03*
X422700Y722500D03*
X422700Y697100D03*
X448100Y722500D03*
X448100Y697100D03*
X473500Y722500D03*
X473500Y697100D03*
X498900Y722500D03*
X498900Y697100D03*
X524300Y722500D03*
X524300Y697100D03*
D20*
X295700Y612500D03*
D25*
X295700Y587100D03*
X321100Y612500D03*
X321100Y587100D03*
X346500Y612500D03*
X346500Y587100D03*
X371900Y612500D03*
X371900Y587100D03*
X397300Y612500D03*
X397300Y587100D03*
X422700Y612500D03*
X422700Y587100D03*
X448100Y612500D03*
X448100Y587100D03*
X473500Y612500D03*
X473500Y587100D03*
X498900Y612500D03*
X498900Y587100D03*
X524300Y612500D03*
X524300Y587100D03*
D20*
X295700Y392500D03*
D25*
X295700Y367100D03*
X321100Y392500D03*
X321100Y367100D03*
X346500Y392500D03*
X346500Y367100D03*
X371900Y392500D03*
X371900Y367100D03*
X397300Y392500D03*
X397300Y367100D03*
X422700Y392500D03*
X422700Y367100D03*
X448100Y392500D03*
X448100Y367100D03*
X473500Y392500D03*
X473500Y367100D03*
X498900Y392500D03*
X498900Y367100D03*
X524300Y392500D03*
X524300Y367100D03*
D20*
X295700Y282500D03*
D25*
X295700Y257100D03*
X321100Y282500D03*
X321100Y257100D03*
X346500Y282500D03*
X346500Y257100D03*
X371900Y282500D03*
X371900Y257100D03*
X397300Y282500D03*
X397300Y257100D03*
X422700Y282500D03*
X422700Y257100D03*
X448100Y282500D03*
X448100Y257100D03*
X473500Y282500D03*
X473500Y257100D03*
X498900Y282500D03*
X498900Y257100D03*
X524300Y282500D03*
X524300Y257100D03*
D20*
X295700Y172500D03*
D25*
X295700Y147100D03*
X321100Y172500D03*
X321100Y147100D03*
X346500Y172500D03*
X346500Y147100D03*
X371900Y172500D03*
X371900Y147100D03*
X397300Y172500D03*
X397300Y147100D03*
X422700Y172500D03*
X422700Y147100D03*
X448100Y172500D03*
X448100Y147100D03*
X473500Y172500D03*
X473500Y147100D03*
X498900Y172500D03*
X498900Y147100D03*
X524300Y172500D03*
X524300Y147100D03*
D20*
X168700Y987500D03*
D21*
X194100Y987500D03*
X219500Y987500D03*
X244900Y987500D03*
X270300Y987500D03*
X295700Y987500D03*
X321100Y987500D03*
X346500Y987500D03*
X371900Y987500D03*
X397300Y987500D03*
X422700Y987500D03*
X448100Y987500D03*
X473500Y987500D03*
X498900Y987500D03*
X524300Y987500D03*
X549700Y987500D03*
X575100Y987500D03*
X600500Y987500D03*
X625900Y987500D03*
X651300Y987500D03*
D22*
X239000Y772000D03*
D25*
X377500Y467500D03*
X377500Y532500D03*
X442500Y467500D03*
X442500Y532500D03*
D16*
X410000Y500000D03*
D23*
X560000Y650000D03*
D24*
X535251Y674749D03*
X584749Y625251D03*
D23*
X260000Y350000D03*
D24*
X284749Y325251D03*
X235251Y374749D03*
D23*
X260000Y650000D03*
D24*
X235251Y625251D03*
X284749Y674749D03*
D23*
X560000Y350000D03*
D24*
X584749Y374749D03*
X535251Y325251D03*
D20*
X321100Y12500D03*
D21*
X346500Y12500D03*
X371900Y12500D03*
X397300Y12500D03*
X422700Y12500D03*
X448100Y12500D03*
X473500Y12500D03*
X498900Y12500D03*
D32*
X1550968Y477000D03*
X1581000Y477000D03*
D33*
X1120000Y261000D03*
X1057000Y612000D03*
X1114000Y788000D03*
X1208500Y953000D03*
X1030500Y640500D03*
X937500Y662500D03*
D34*
X1132500Y772500D03*
X1194000Y952500D03*
X1072000Y782500D03*
X1153500Y707000D03*
D35*
X1231000Y574000D03*
D36*
X1133537Y918563D03*
D37*
X1374000Y831000D03*
D34*
X1499500Y492500D03*
X1250000Y942500D03*
X896000Y591000D03*
D29*
X1442000Y398000D03*
X1456000Y515000D03*
X1193000Y417000D03*
X1171000Y558000D03*
X1363000Y654000D03*
X921000Y69000D03*
X921000Y11000D03*
X979000Y11000D03*
X979000Y69000D03*
X1521000Y69000D03*
X1521000Y11000D03*
X1579000Y11000D03*
X1579000Y69000D03*
X921000Y989000D03*
X921000Y931000D03*
X979000Y931000D03*
X979000Y989000D03*
X1521000Y989000D03*
X1521000Y931000D03*
X1579000Y931000D03*
X1579000Y989000D03*
D34*
X1412629Y920629D03*
X1421000Y911000D03*
D36*
X1216000Y925000D03*
D32*
X1036000Y210000D03*
D38*
X1386700Y871000D03*
X1444000Y871000D03*
X1227402Y959402D03*
X1352667Y870667D03*
D34*
X2155800Y943800D03*
X1890600Y605800D03*
D38*
X1966000Y776000D03*
X2033098Y818098D03*
X1972973Y245029D03*
D34*
X2077200Y740400D03*
X1928000Y412000D03*
X1942000Y427000D03*
X2018000Y746200D03*
D39*
X1980000Y908000D03*
X2014300Y909968D03*
X2171000Y788000D03*
X1987000Y309000D03*
X2055000Y673000D03*
D34*
X2281650Y472800D03*
X1959450Y942000D03*
X2073000Y936000D03*
X2122000Y822000D03*
X1742400Y624000D03*
D39*
X2037000Y429000D03*
X2155000Y573000D03*
X2160000Y541800D03*
X2039000Y582000D03*
D34*
X2261000Y911000D03*
X2269000Y919000D03*
X2272000Y874000D03*
X2207000Y877000D03*
X2161902Y877000D03*
D39*
X1867000Y195000D03*
X2090000Y569000D03*
D38*
X1936000Y970000D03*
X2009800Y658000D03*
X2049000Y616000D03*
D34*
X2188000Y423000D03*
X2194000Y404000D03*
X2035200Y731800D03*
X2091200Y739400D03*
D29*
X1761000Y69000D03*
X1761000Y11000D03*
X1819000Y11000D03*
X1819000Y69000D03*
X2361000Y69000D03*
X2361000Y11000D03*
X2419000Y11000D03*
X2419000Y69000D03*
X1761000Y989000D03*
X1761000Y931000D03*
X1819000Y931000D03*
X1819000Y989000D03*
X2361000Y989000D03*
X2361000Y931000D03*
X2419000Y931000D03*
X2419000Y989000D03*
D32*
X710968Y1497000D03*
X741000Y1497000D03*
D33*
X280000Y1281000D03*
X215000Y1629000D03*
X274000Y1808000D03*
X368500Y1973000D03*
X190500Y1660500D03*
X97500Y1682500D03*
D34*
X292500Y1792500D03*
X354000Y1972500D03*
X232000Y1802500D03*
X313500Y1727000D03*
D35*
X391000Y1594000D03*
D36*
X293537Y1938563D03*
D37*
X534000Y1851000D03*
D34*
X663500Y1512500D03*
X410000Y1962500D03*
X55000Y1610000D03*
D29*
X602000Y1418000D03*
X616000Y1535000D03*
X353000Y1437000D03*
X331000Y1578000D03*
X523000Y1674000D03*
X81000Y1089000D03*
X81000Y1031000D03*
X139000Y1031000D03*
X139000Y1089000D03*
X681000Y1089000D03*
X681000Y1031000D03*
X739000Y1031000D03*
X739000Y1089000D03*
X81000Y2009000D03*
X81000Y1951000D03*
X139000Y1951000D03*
X139000Y2009000D03*
X681000Y2009000D03*
X681000Y1951000D03*
X739000Y1951000D03*
X739000Y2009000D03*
D34*
X572629Y1940629D03*
X581000Y1931000D03*
D36*
X376000Y1945000D03*
D32*
X196000Y1230000D03*
D38*
X546700Y1891000D03*
X604000Y1891000D03*
X387402Y1979402D03*
X512667Y1890667D03*
D34*
X570000Y1929000D03*
D36*
X1493000Y1274000D03*
D34*
X1476218Y1332567D03*
D36*
X1402674Y1238674D03*
X1330000Y1135000D03*
X1124000Y1303000D03*
X1217000Y1217000D03*
X1123000Y1195000D03*
X1123000Y1154000D03*
X1124318Y1325532D03*
X1405123Y1100123D03*
X1426069Y1166069D03*
X1378500Y1404000D03*
X1365000Y1505000D03*
X1420000Y1485000D03*
X1437000Y1395000D03*
X1503000Y1475000D03*
X1090000Y1400000D03*
X1100000Y1470000D03*
X1219680Y1711167D03*
D34*
X1415880Y1350120D03*
X1405218Y1284692D03*
X1355205Y1276432D03*
X1425000Y1048000D03*
X1434814Y1069000D03*
X1465000Y1069000D03*
X1478000Y1210000D03*
D36*
X1330000Y1169000D03*
X1378000Y1168000D03*
D34*
X1170000Y1268000D03*
X1170000Y1240000D03*
X1170000Y1212000D03*
X1188000Y1208000D03*
X1495000Y1307718D03*
X1495218Y1244000D03*
X1399000Y1485000D03*
X1415000Y1461000D03*
X1223000Y1311000D03*
X1259000Y1347000D03*
X1319000Y1369000D03*
X1190000Y1145000D03*
X1190000Y1175282D03*
X1216210Y1203790D03*
X1165718Y1303718D03*
X1164823Y1335000D03*
X1492000Y1457000D03*
X1477282Y1605000D03*
X1399000Y1605000D03*
X1346432Y1220000D03*
X1361000Y1220000D03*
X1285000Y1341394D03*
X1408506Y1330494D03*
X1277734Y1319266D03*
X1416286Y1340000D03*
X1295815Y1308185D03*
X1440000Y1355000D03*
X1285000Y1326548D03*
X1397000Y1349000D03*
X1293793Y1333830D03*
X1386851Y1347149D03*
X1370000Y1276432D03*
X1325992Y1247517D03*
X1402000Y1270000D03*
X1326000Y1237000D03*
X1072000Y1498500D03*
X1380000Y1235000D03*
X1354000Y1348568D03*
X1355000Y1380000D03*
X1294000Y1348676D03*
X1372000Y1349676D03*
X1315000Y1258000D03*
X1342734Y1294564D03*
X1326000Y1258000D03*
X1342000Y1284000D03*
X1395000Y1380000D03*
X1419568Y1320000D03*
D38*
X1251047Y1572350D03*
X1286000Y1560000D03*
D36*
X1123000Y1430000D03*
X1330000Y1475000D03*
X1330000Y1490000D03*
X1255000Y1740000D03*
X1150000Y1735000D03*
X920000Y1390000D03*
X950000Y1390000D03*
X920000Y1375000D03*
X950000Y1375000D03*
X935000Y1635000D03*
X1115000Y1590000D03*
X1301468Y1805000D03*
X1405000Y1067000D03*
D34*
X1015000Y1430000D03*
X950000Y1415000D03*
X1289000Y1232000D03*
X1425000Y1380000D03*
X1359000Y1291000D03*
X1369000Y1287000D03*
X1476218Y1345000D03*
X1521000Y1375000D03*
D36*
X408000Y762000D03*
X408000Y652000D03*
X408000Y852000D03*
X428000Y432000D03*
X408000Y322000D03*
X408000Y212000D03*
D34*
X419000Y118000D03*
X434000Y118000D03*
X533500Y480000D03*
X555250Y480000D03*
D36*
X284200Y861500D03*
D34*
X534000Y490500D03*
X555250Y490960D03*
X524150Y545250D03*
D37*
X567000Y560000D03*
D34*
X738000Y642000D03*
X644000Y628000D03*
D36*
X525000Y350000D03*
X533500Y560500D03*
X260000Y400000D03*
X284700Y565000D03*
X325000Y950000D03*
X390000Y934000D03*
X100000Y400000D03*
X237000Y187000D03*
D34*
X490000Y535250D03*
D36*
X522020Y854792D03*
D34*
X482355Y557355D03*
X238016Y92984D03*
X395000Y122230D03*
D36*
X297100Y415000D03*
X282000Y415000D03*
D34*
X595000Y190000D03*
X595000Y211000D03*
X595000Y232000D03*
X578000Y771000D03*
X578000Y792000D03*
X578000Y813000D03*
X437163Y569837D03*
D36*
X256200Y861500D03*
X80000Y330000D03*
D34*
X555000Y953250D03*
X514270Y953250D03*
X360000Y976250D03*
X613000Y577000D03*
X44650Y671000D03*
X719030Y691030D03*
X654000Y675000D03*
X710530Y699530D03*
X679000Y678780D03*
D29*
X81000Y69000D03*
X81000Y11000D03*
X139000Y11000D03*
X139000Y69000D03*
X681000Y69000D03*
X681000Y11000D03*
X739000Y11000D03*
X739000Y69000D03*
X81000Y989000D03*
X81000Y931000D03*
X139000Y931000D03*
X139000Y989000D03*
X681000Y989000D03*
X681000Y931000D03*
X739000Y931000D03*
X739000Y989000D03*
D36*
X382000Y952500D03*
X395500Y918000D03*
X455500Y952500D03*
X445000Y855000D03*
D34*
X475000Y565000D03*
M02*
