G04 EAGLE Gerber RS-274X export*
G75*
%MOMM*%
%FSLAX34Y34*%
%LPD*%
%INSoldermask Top*%
%IPPOS*%
%AMOC8*
5,1,8,0,0,1.08239X$1,22.5*%
G01*
%ADD10R,1.503200X1.503200*%
%ADD11C,1.503200*%
%ADD12R,0.803200X0.803200*%
%ADD13R,1.203200X1.303200*%
%ADD14R,1.303200X1.203200*%
%ADD15R,0.933200X0.763200*%
%ADD16R,2.003200X3.403200*%
%ADD17R,1.727200X1.727200*%
%ADD18P,1.869504X8X202.500000*%
%ADD19R,1.003200X0.603200*%
%ADD20R,1.003200X1.253200*%
%ADD21R,2.403200X0.803200*%
%ADD22R,1.803200X2.003200*%
%ADD23R,2.903200X1.803200*%
%ADD24R,1.253200X0.603200*%
%ADD25R,2.943200X4.953200*%
%ADD26C,1.053200*%
%ADD27R,3.603200X1.203200*%
%ADD28R,2.503200X1.853200*%
%ADD29R,1.003200X1.003200*%
%ADD30R,0.813200X1.803200*%
%ADD31R,3.413200X2.823200*%
%ADD32R,5.803200X3.303200*%
%ADD33R,2.003200X1.803200*%
%ADD34R,0.603200X1.403200*%
%ADD35R,3.003200X1.603200*%
%ADD36R,0.603200X1.253200*%
%ADD37R,4.953200X2.943200*%
%ADD38P,1.869504X8X292.500000*%
%ADD39P,1.869504X8X112.500000*%
%ADD40R,1.853200X2.503200*%
%ADD41R,1.803200X2.903200*%
%ADD42P,2.309387X8X112.500000*%
%ADD43C,2.203200*%
%ADD44C,2.133600*%
%ADD45C,2.203200*%
%ADD46C,0.209022*%
%ADD47R,0.653200X1.253200*%
%ADD48R,7.763200X3.253200*%
%ADD49R,2.403200X1.703200*%
%ADD50R,3.703200X1.403200*%
%ADD51R,1.473200X0.838200*%
%ADD52P,1.410571X8X202.500000*%
%ADD53R,3.003200X4.003200*%
%ADD54C,1.403200*%
%ADD55C,1.303200*%
%ADD56R,2.203200X2.203200*%
%ADD57R,2.453200X2.453200*%
%ADD58C,1.203200*%


D10*
G36*
X371035Y21966D02*
X360406Y11337D01*
X349777Y21966D01*
X360406Y32595D01*
X371035Y21966D01*
G37*
D11*
X371720Y33280D03*
X383034Y44594D03*
D10*
G36*
X621965Y188034D02*
X632594Y198663D01*
X643223Y188034D01*
X632594Y177405D01*
X621965Y188034D01*
G37*
D11*
X621280Y176720D03*
X609966Y165406D03*
D10*
G36*
X166035Y21966D02*
X155406Y11337D01*
X144777Y21966D01*
X155406Y32595D01*
X166035Y21966D01*
G37*
D11*
X166720Y33280D03*
X178034Y44594D03*
D10*
G36*
X408965Y188034D02*
X419594Y198663D01*
X430223Y188034D01*
X419594Y177405D01*
X408965Y188034D01*
G37*
D11*
X408280Y176720D03*
X396966Y165406D03*
D12*
X226500Y103000D03*
X236000Y103000D03*
X245500Y103000D03*
X245500Y129000D03*
X236000Y129000D03*
X226500Y129000D03*
X86000Y180500D03*
X86000Y171000D03*
X86000Y161500D03*
X112000Y161500D03*
X112000Y171000D03*
X112000Y180500D03*
X86000Y143500D03*
X86000Y134000D03*
X86000Y124500D03*
X112000Y124500D03*
X112000Y134000D03*
X112000Y143500D03*
D13*
X242500Y77000D03*
X225500Y77000D03*
D14*
X188000Y162500D03*
X188000Y179500D03*
X188000Y125500D03*
X188000Y142500D03*
X165000Y162500D03*
X165000Y179500D03*
X165000Y125500D03*
X165000Y142500D03*
X45000Y162500D03*
X45000Y179500D03*
X45000Y124500D03*
X45000Y141500D03*
D15*
X146000Y171000D03*
X126000Y161500D03*
X126000Y180500D03*
X146000Y134000D03*
X126000Y124500D03*
X126000Y143500D03*
D14*
X242500Y146000D03*
X225500Y146000D03*
X242500Y171000D03*
X225500Y171000D03*
D13*
X68000Y179500D03*
X68000Y162500D03*
X68000Y141500D03*
X68000Y124500D03*
D16*
X110000Y87000D03*
X54000Y87000D03*
D12*
X568500Y105000D03*
X559000Y105000D03*
X549500Y105000D03*
X549500Y79000D03*
X559000Y79000D03*
X568500Y79000D03*
X703000Y31500D03*
X703000Y41000D03*
X703000Y50500D03*
X677000Y50500D03*
X677000Y41000D03*
X677000Y31500D03*
X703000Y68500D03*
X703000Y78000D03*
X703000Y87500D03*
X677000Y87500D03*
X677000Y78000D03*
X677000Y68500D03*
D13*
X551500Y134000D03*
X568500Y134000D03*
D14*
X601000Y49500D03*
X601000Y32500D03*
X601000Y86500D03*
X601000Y69500D03*
X624000Y49500D03*
X624000Y32500D03*
X624000Y86500D03*
X624000Y69500D03*
X744000Y49500D03*
X744000Y32500D03*
X744000Y86500D03*
X744000Y69500D03*
D15*
X643000Y41000D03*
X663000Y50500D03*
X663000Y31500D03*
X643000Y78000D03*
X663000Y87500D03*
X663000Y68500D03*
D14*
X551500Y61000D03*
X568500Y61000D03*
X551500Y36000D03*
X568500Y36000D03*
D13*
X721000Y32500D03*
X721000Y49500D03*
X721000Y69500D03*
X721000Y86500D03*
D16*
X686000Y124000D03*
X742000Y124000D03*
D17*
X504300Y53100D03*
D18*
X504300Y27700D03*
X478900Y53100D03*
X478900Y27700D03*
X453500Y53100D03*
X453500Y27700D03*
X428100Y53100D03*
X428100Y27700D03*
D13*
X259500Y103000D03*
X276500Y103000D03*
X259500Y77000D03*
X276500Y77000D03*
X533500Y132000D03*
X516500Y132000D03*
X533500Y106000D03*
X516500Y106000D03*
D19*
X193000Y77250D03*
X193000Y96750D03*
X133000Y96750D03*
X133000Y77250D03*
D20*
X133000Y87000D03*
X193000Y87000D03*
D19*
X600000Y138750D03*
X600000Y119250D03*
X660000Y119250D03*
X660000Y138750D03*
D20*
X660000Y129000D03*
X600000Y129000D03*
D21*
X54000Y43350D03*
X106000Y43350D03*
X54000Y56050D03*
X54000Y30650D03*
X54000Y17950D03*
X106000Y56050D03*
X106000Y30650D03*
X106000Y17950D03*
D13*
X228500Y46000D03*
X211500Y46000D03*
X228500Y20000D03*
X211500Y20000D03*
X268500Y20000D03*
X251500Y20000D03*
X251500Y45000D03*
X268500Y45000D03*
D21*
X734000Y163650D03*
X682000Y163650D03*
X734000Y150950D03*
X734000Y176350D03*
X734000Y189050D03*
X682000Y150950D03*
X682000Y176350D03*
X682000Y189050D03*
D13*
X549500Y165000D03*
X566500Y165000D03*
X549500Y190000D03*
X566500Y190000D03*
X514500Y190000D03*
X531500Y190000D03*
X531500Y165000D03*
X514500Y165000D03*
D14*
X20000Y41500D03*
X20000Y58500D03*
X20000Y98500D03*
X20000Y81500D03*
X765000Y168500D03*
X765000Y151500D03*
X765000Y111500D03*
X765000Y128500D03*
X49900Y756800D03*
X66900Y756800D03*
X206400Y673600D03*
X223400Y673600D03*
D22*
X103800Y829300D03*
X131800Y829300D03*
D23*
X137800Y720500D03*
X137800Y692500D03*
X137900Y761800D03*
X137900Y789800D03*
D14*
X66900Y730200D03*
X49900Y730200D03*
D22*
X103600Y658300D03*
X131600Y658300D03*
D13*
X38100Y822600D03*
X55100Y822600D03*
X38700Y658800D03*
X55700Y658800D03*
X223400Y650400D03*
X206400Y650400D03*
X224400Y831700D03*
X207400Y831700D03*
D24*
X229650Y698350D03*
X229650Y704850D03*
X229650Y711350D03*
X229650Y717850D03*
X229650Y724350D03*
X229650Y730850D03*
X229650Y737350D03*
X229650Y743850D03*
X229650Y750350D03*
X229650Y756850D03*
X229650Y763350D03*
X229650Y769850D03*
X229650Y776350D03*
X229650Y782850D03*
X174150Y782850D03*
X174150Y776350D03*
X174150Y769850D03*
X174150Y763350D03*
X174150Y756850D03*
X174150Y750350D03*
X174150Y743850D03*
X174150Y737350D03*
X174150Y730850D03*
X174150Y724350D03*
X174150Y717850D03*
X174150Y711350D03*
X174150Y704850D03*
X174150Y698350D03*
D25*
X201900Y740600D03*
D26*
X191900Y720600D03*
X191900Y730600D03*
X191900Y740600D03*
X191900Y750600D03*
X191900Y760600D03*
X201900Y760600D03*
X201900Y750600D03*
X201900Y740600D03*
X201900Y730600D03*
X201900Y720600D03*
X211900Y720600D03*
X211900Y730600D03*
X211900Y740600D03*
X211900Y750600D03*
X211900Y760600D03*
D27*
X98900Y713300D03*
X98900Y692300D03*
D28*
X97300Y768100D03*
X97300Y801100D03*
D13*
X224500Y808000D03*
X207500Y808000D03*
D14*
X248000Y653500D03*
X248000Y670500D03*
D29*
X257000Y704500D03*
X257000Y719500D03*
D14*
X253000Y828600D03*
X253000Y811600D03*
D29*
X260000Y794500D03*
X260000Y779500D03*
D30*
X390950Y675000D03*
X403650Y675000D03*
X416350Y675000D03*
X429050Y675000D03*
X429050Y729000D03*
X416350Y729000D03*
X403650Y729000D03*
X390950Y729000D03*
D31*
X410000Y702000D03*
D26*
X401000Y711000D03*
X410000Y711000D03*
X419000Y711000D03*
X401000Y702000D03*
X410000Y702000D03*
X419000Y702000D03*
X401000Y693000D03*
X410000Y693000D03*
X419000Y693000D03*
D13*
X359000Y697500D03*
X359000Y714500D03*
D14*
X433000Y778500D03*
X433000Y761500D03*
D32*
X382000Y449000D03*
X382000Y550000D03*
D33*
X464000Y481000D03*
X464000Y509000D03*
D13*
X451500Y672000D03*
X468500Y672000D03*
D14*
X466000Y560500D03*
X466000Y577500D03*
X359000Y737500D03*
X359000Y754500D03*
X335000Y737500D03*
X335000Y754500D03*
D13*
X456000Y720500D03*
X456000Y703500D03*
D33*
X410000Y786000D03*
X410000Y758000D03*
D14*
X480000Y720500D03*
X480000Y703500D03*
D34*
X70200Y507700D03*
X76700Y507700D03*
X83200Y507700D03*
X89700Y507700D03*
X89700Y533700D03*
X83200Y533700D03*
X76700Y533700D03*
X70200Y533700D03*
D14*
X138500Y560000D03*
X121500Y560000D03*
D13*
X45500Y509100D03*
X45500Y526100D03*
D14*
X48000Y480500D03*
X48000Y463500D03*
D22*
X100500Y475800D03*
X72500Y475800D03*
D14*
X93400Y451100D03*
X76400Y451100D03*
D13*
X68500Y560000D03*
X51500Y560000D03*
D14*
X70000Y581500D03*
X70000Y598500D03*
D13*
X40000Y598500D03*
X40000Y581500D03*
D35*
X222000Y496000D03*
X222000Y540000D03*
D22*
X169600Y473300D03*
X197600Y473300D03*
X169900Y448600D03*
X197900Y448600D03*
D36*
X742250Y627750D03*
X735750Y627750D03*
X729250Y627750D03*
X722750Y627750D03*
X716250Y627750D03*
X709750Y627750D03*
X703250Y627750D03*
X696750Y627750D03*
X690250Y627750D03*
X683750Y627750D03*
X677250Y627750D03*
X670750Y627750D03*
X664250Y627750D03*
X657750Y627750D03*
X657750Y572250D03*
X664250Y572250D03*
X670750Y572250D03*
X677250Y572250D03*
X683750Y572250D03*
X690250Y572250D03*
X696750Y572250D03*
X703250Y572250D03*
X709750Y572250D03*
X716250Y572250D03*
X722750Y572250D03*
X729250Y572250D03*
X735750Y572250D03*
X742250Y572250D03*
D37*
X700000Y600000D03*
D26*
X720000Y590000D03*
X710000Y590000D03*
X700000Y590000D03*
X690000Y590000D03*
X680000Y590000D03*
X680000Y600000D03*
X690000Y600000D03*
X700000Y600000D03*
X710000Y600000D03*
X720000Y600000D03*
X720000Y610000D03*
X710000Y610000D03*
X700000Y610000D03*
X690000Y610000D03*
X680000Y610000D03*
D17*
X882700Y640000D03*
D38*
X857300Y640000D03*
D17*
X882700Y600000D03*
D38*
X857300Y600000D03*
D17*
X882700Y560000D03*
D38*
X857300Y560000D03*
D14*
X828500Y584700D03*
X828500Y567700D03*
X550000Y618500D03*
X550000Y601500D03*
D13*
X524900Y601700D03*
X524900Y618700D03*
D17*
X527300Y569000D03*
D39*
X552700Y569000D03*
X578100Y569000D03*
D17*
X675400Y710000D03*
D38*
X650000Y710000D03*
X624600Y710000D03*
D13*
X648500Y740000D03*
X631500Y740000D03*
D14*
X740000Y688500D03*
X740000Y671500D03*
D13*
X764400Y671500D03*
X764400Y688500D03*
D17*
X804600Y680000D03*
D39*
X830000Y680000D03*
X855400Y680000D03*
D13*
X606100Y603200D03*
X606100Y620200D03*
D17*
X575400Y750000D03*
D38*
X550000Y750000D03*
X524600Y750000D03*
D13*
X578400Y716700D03*
X561400Y716700D03*
D14*
X795300Y652100D03*
X795300Y635100D03*
D17*
X577800Y659300D03*
D38*
X552400Y659300D03*
X527000Y659300D03*
D14*
X561200Y692600D03*
X578200Y692600D03*
D13*
X795400Y601600D03*
X795400Y618600D03*
X820000Y601500D03*
X820000Y618500D03*
D14*
X820000Y652100D03*
X820000Y635100D03*
D17*
X674500Y755100D03*
D39*
X699900Y755100D03*
X725300Y755100D03*
D13*
X701500Y720000D03*
X718500Y720000D03*
D17*
X825400Y780000D03*
D38*
X800000Y780000D03*
X774600Y780000D03*
D13*
X818500Y750000D03*
X801500Y750000D03*
D17*
X764600Y720000D03*
D39*
X790000Y720000D03*
X815400Y720000D03*
D14*
X778500Y750000D03*
X761500Y750000D03*
X630000Y620200D03*
X630000Y603200D03*
X770900Y618600D03*
X770900Y601600D03*
D13*
X684500Y463900D03*
X684500Y446900D03*
X711100Y463400D03*
X711100Y446400D03*
D40*
X642000Y495000D03*
X675000Y495000D03*
X762000Y496000D03*
X729000Y496000D03*
D13*
X650000Y441500D03*
X650000Y458500D03*
D14*
X624900Y458600D03*
X624900Y441600D03*
D13*
X750000Y441500D03*
X750000Y458500D03*
D14*
X775700Y458400D03*
X775700Y441400D03*
D33*
X612900Y530500D03*
X612900Y502500D03*
X586500Y530300D03*
X586500Y502300D03*
X786400Y531200D03*
X786400Y503200D03*
X814800Y531200D03*
X814800Y503200D03*
X560100Y530300D03*
X560100Y502300D03*
X843000Y531500D03*
X843000Y503500D03*
D17*
X855200Y719200D03*
X524600Y700000D03*
D13*
X279000Y727700D03*
X279000Y710700D03*
X279000Y752700D03*
X279000Y769700D03*
D41*
X750600Y536400D03*
X722600Y536400D03*
X648500Y535900D03*
X676500Y535900D03*
D42*
X139400Y385400D03*
X79400Y385400D03*
D43*
X80000Y335700D03*
X140000Y335700D03*
X67700Y284500D03*
X153100Y284500D03*
D42*
X382400Y385300D03*
X297000Y385300D03*
D43*
X299700Y335200D03*
X379700Y335200D03*
X287300Y284500D03*
X392700Y284500D03*
D42*
X587700Y384500D03*
X532300Y384500D03*
D43*
X530000Y335000D03*
X590000Y335000D03*
X527300Y284500D03*
X592700Y284500D03*
D44*
X812748Y385000D02*
X832052Y385000D01*
X746652Y385000D02*
X727348Y385000D01*
D45*
X740000Y335500D02*
X750000Y335500D01*
X810000Y335500D02*
X820000Y335500D01*
X750600Y284500D02*
X740600Y284500D01*
X810600Y284500D02*
X820600Y284500D01*
D17*
X419700Y385300D03*
X259700Y335200D03*
X250000Y284500D03*
X259700Y385300D03*
X419700Y335200D03*
X430000Y284500D03*
X625400Y384500D03*
X490500Y335000D03*
X490200Y284500D03*
X495400Y384500D03*
X630500Y335000D03*
X630200Y284500D03*
X859700Y385000D03*
X700000Y335500D03*
X690600Y284500D03*
X699700Y385000D03*
X860000Y335500D03*
X870600Y284500D03*
X179400Y385400D03*
X40000Y335700D03*
X30400Y284500D03*
X39400Y385400D03*
X180000Y335700D03*
X190400Y284500D03*
D46*
X224579Y1057779D02*
X224579Y1068221D01*
X229021Y1068221D01*
X229021Y1057779D01*
X224579Y1057779D01*
X224579Y1059764D02*
X229021Y1059764D01*
X229021Y1061749D02*
X224579Y1061749D01*
X224579Y1063734D02*
X229021Y1063734D01*
X229021Y1065719D02*
X224579Y1065719D01*
X224579Y1067704D02*
X229021Y1067704D01*
D47*
X220300Y1063000D03*
X213800Y1063000D03*
X207300Y1063000D03*
X200800Y1063000D03*
X194300Y1063000D03*
X187800Y1063000D03*
X181300Y1063000D03*
X174800Y1063000D03*
X168300Y1063000D03*
X161800Y1063000D03*
X155300Y1063000D03*
X148800Y1063000D03*
X142300Y1063000D03*
D48*
X184550Y1035250D03*
D46*
X140079Y1012721D02*
X140079Y1002279D01*
X140079Y1012721D02*
X144521Y1012721D01*
X144521Y1002279D01*
X140079Y1002279D01*
X140079Y1004264D02*
X144521Y1004264D01*
X144521Y1006249D02*
X140079Y1006249D01*
X140079Y1008234D02*
X144521Y1008234D01*
X144521Y1010219D02*
X140079Y1010219D01*
X140079Y1012204D02*
X144521Y1012204D01*
D47*
X220300Y1007500D03*
X213800Y1007500D03*
X207300Y1007500D03*
X200800Y1007500D03*
X194300Y1007500D03*
X187800Y1007500D03*
X181300Y1007500D03*
X174800Y1007500D03*
X168300Y1007500D03*
X161800Y1007500D03*
X155300Y1007500D03*
X148800Y1007500D03*
X226800Y1007500D03*
D26*
X214550Y1028250D03*
X199550Y1028250D03*
X184550Y1028250D03*
X169550Y1028250D03*
X154550Y1028250D03*
X154550Y1042250D03*
X169550Y1042250D03*
X184550Y1042250D03*
X199550Y1042250D03*
X214550Y1042250D03*
D13*
X230000Y936500D03*
X230000Y953500D03*
X230000Y1133500D03*
X230000Y1116500D03*
D14*
X116000Y902500D03*
X116000Y885500D03*
X110000Y1043500D03*
X110000Y1026500D03*
X91000Y885500D03*
X91000Y902500D03*
X85000Y936500D03*
X85000Y953500D03*
X85000Y1066500D03*
X85000Y1083500D03*
X65000Y1111500D03*
X65000Y1128500D03*
D49*
X325000Y1067000D03*
X325000Y1003000D03*
D14*
X90000Y1111500D03*
X90000Y1128500D03*
D13*
X60000Y1083500D03*
X60000Y1066500D03*
D33*
X55000Y969000D03*
X55000Y941000D03*
D13*
X85000Y1043500D03*
X85000Y1026500D03*
D50*
X188500Y1120000D03*
X131500Y1120000D03*
X188500Y950000D03*
X131500Y950000D03*
D46*
X670521Y966779D02*
X670521Y977221D01*
X670521Y966779D02*
X666079Y966779D01*
X666079Y977221D01*
X670521Y977221D01*
X670521Y968764D02*
X666079Y968764D01*
X666079Y970749D02*
X670521Y970749D01*
X670521Y972734D02*
X666079Y972734D01*
X666079Y974719D02*
X670521Y974719D01*
X670521Y976704D02*
X666079Y976704D01*
D47*
X674800Y972000D03*
X681300Y972000D03*
X687800Y972000D03*
X694300Y972000D03*
X700800Y972000D03*
X707300Y972000D03*
X713800Y972000D03*
X720300Y972000D03*
X726800Y972000D03*
X733300Y972000D03*
X739800Y972000D03*
X746300Y972000D03*
X752800Y972000D03*
D48*
X710550Y999750D03*
D46*
X755021Y1022279D02*
X755021Y1032721D01*
X755021Y1022279D02*
X750579Y1022279D01*
X750579Y1032721D01*
X755021Y1032721D01*
X755021Y1024264D02*
X750579Y1024264D01*
X750579Y1026249D02*
X755021Y1026249D01*
X755021Y1028234D02*
X750579Y1028234D01*
X750579Y1030219D02*
X755021Y1030219D01*
X755021Y1032204D02*
X750579Y1032204D01*
D47*
X674800Y1027500D03*
X681300Y1027500D03*
X687800Y1027500D03*
X694300Y1027500D03*
X700800Y1027500D03*
X707300Y1027500D03*
X713800Y1027500D03*
X720300Y1027500D03*
X726800Y1027500D03*
X733300Y1027500D03*
X739800Y1027500D03*
X746300Y1027500D03*
X668300Y1027500D03*
D26*
X680550Y1006750D03*
X695550Y1006750D03*
X710550Y1006750D03*
X725550Y1006750D03*
X740550Y1006750D03*
X740550Y992750D03*
X725550Y992750D03*
X710550Y992750D03*
X695550Y992750D03*
X680550Y992750D03*
D13*
X670000Y1098500D03*
X670000Y1081500D03*
X665000Y901500D03*
X665000Y918500D03*
D14*
X810000Y1098500D03*
X810000Y1081500D03*
X810000Y963500D03*
X810000Y946500D03*
D49*
X570000Y968000D03*
X570000Y1032000D03*
D13*
X835000Y946500D03*
X835000Y963500D03*
D33*
X840000Y1066000D03*
X840000Y1094000D03*
D50*
X706500Y915000D03*
X763500Y915000D03*
X706500Y1085000D03*
X763500Y1085000D03*
D13*
X785000Y1018500D03*
X785000Y1001500D03*
D33*
X810000Y1019000D03*
X810000Y991000D03*
D51*
X421000Y1052000D03*
X421000Y1042500D03*
X421000Y1033000D03*
X447000Y1033000D03*
X447000Y1052000D03*
D13*
X58500Y1040000D03*
X41500Y1040000D03*
D29*
X42500Y1015000D03*
X57500Y1015000D03*
D13*
X836500Y995000D03*
X853500Y995000D03*
D29*
X852500Y1020000D03*
X837500Y1020000D03*
D52*
X875400Y905000D03*
X850000Y905000D03*
X824600Y905000D03*
D51*
X475000Y1039500D03*
X475000Y1030000D03*
X475000Y1020500D03*
X501000Y1020500D03*
X501000Y1039500D03*
D14*
X410000Y1121500D03*
X410000Y1138500D03*
X490000Y1121500D03*
X490000Y1138500D03*
X401000Y937500D03*
X401000Y954500D03*
X427000Y954500D03*
X427000Y937500D03*
X467000Y937500D03*
X467000Y954500D03*
X492000Y954500D03*
X492000Y937500D03*
X467000Y989500D03*
X467000Y972500D03*
X492000Y989500D03*
X492000Y972500D03*
X427000Y989500D03*
X427000Y972500D03*
X401000Y989500D03*
X401000Y972500D03*
D29*
X384000Y1123500D03*
X384000Y1138500D03*
X516000Y1123500D03*
X516000Y1138500D03*
D53*
X399000Y610000D03*
X325000Y610000D03*
D26*
X489000Y177000D03*
X313000Y35859D03*
X430000Y85000D03*
X420000Y155000D03*
X490000Y165000D03*
X305000Y45000D03*
X416000Y85000D03*
D11*
X35000Y110000D03*
X503000Y115000D03*
X418911Y122911D03*
D54*
X203818Y137000D03*
D26*
X206000Y160000D03*
X242518Y159000D03*
X124000Y56000D03*
X194000Y25000D03*
X228000Y90000D03*
X240000Y91000D03*
X200000Y42000D03*
X589230Y41230D03*
X553000Y48982D03*
X664000Y152000D03*
X647000Y160000D03*
X586000Y162482D03*
X555518Y120518D03*
X542000Y119000D03*
X578000Y170000D03*
D11*
X643000Y59200D03*
D55*
X180000Y87000D03*
X630000Y129000D03*
D26*
X253000Y90000D03*
D11*
X276018Y125000D03*
D54*
X711000Y120000D03*
D26*
X305000Y70000D03*
X20000Y70000D03*
X765000Y140000D03*
X690000Y50000D03*
X642000Y24602D03*
X193236Y59105D03*
X145000Y65000D03*
X155000Y101518D03*
X263000Y115818D03*
X648000Y140000D03*
X590000Y174518D03*
X529500Y119000D03*
X205000Y180000D03*
X150000Y185000D03*
X100000Y185000D03*
X18318Y145000D03*
X35000Y55000D03*
X225000Y63000D03*
X753000Y159000D03*
X552000Y150000D03*
X475000Y185000D03*
X521674Y92674D03*
X146234Y677766D03*
X137000Y677700D03*
X128000Y677800D03*
X129200Y805100D03*
X138200Y805100D03*
X147200Y804900D03*
X147000Y834518D03*
X147000Y825000D03*
D56*
X164000Y823000D03*
D26*
X147000Y667000D03*
X147000Y658000D03*
X147000Y649306D03*
X236000Y835500D03*
X235000Y648000D03*
D57*
X29772Y792772D03*
X31000Y695000D03*
X463772Y537228D03*
X458772Y782228D03*
D26*
X24300Y564100D03*
X35600Y564300D03*
X24100Y552800D03*
X35400Y552900D03*
X21700Y527200D03*
X30900Y527200D03*
X21600Y517900D03*
X30700Y517800D03*
X21400Y508400D03*
X30800Y508200D03*
X101700Y507200D03*
X111700Y507200D03*
X121700Y507200D03*
X131700Y507200D03*
X141700Y507200D03*
X151700Y507200D03*
X111700Y497200D03*
X121700Y497200D03*
X131700Y497200D03*
X141700Y497200D03*
X151700Y497200D03*
X121700Y487200D03*
X131700Y487200D03*
X141700Y487200D03*
X121700Y477200D03*
X131700Y477200D03*
X141700Y477200D03*
D57*
X113928Y446228D03*
X143828Y446428D03*
D26*
X279000Y740200D03*
X620000Y740000D03*
X531000Y589000D03*
X781000Y670500D03*
D56*
X747100Y781200D03*
X620900Y578000D03*
X789500Y572800D03*
D26*
X38000Y940000D03*
X858000Y1095000D03*
X836500Y978000D03*
X408000Y1026000D03*
X68000Y1053000D03*
X448000Y928000D03*
D57*
X432772Y895772D03*
X632772Y1134772D03*
X463772Y1088772D03*
D26*
X162500Y787600D03*
D56*
X74000Y825000D03*
D26*
X163000Y693000D03*
D56*
X77000Y671000D03*
D26*
X162100Y740400D03*
X244000Y734000D03*
X230866Y795066D03*
X37700Y724600D03*
X157800Y730100D03*
X151100Y742900D03*
X36600Y763400D03*
X244800Y710800D03*
X39000Y646000D03*
X41000Y837000D03*
X220000Y792000D03*
X217000Y819650D03*
X241306Y753824D03*
X160000Y760000D03*
D57*
X28045Y743500D03*
D26*
X243206Y770900D03*
X264000Y769000D03*
D57*
X462772Y450228D03*
D26*
X405000Y660000D03*
X372000Y733000D03*
D57*
X384772Y760228D03*
D26*
X443000Y708000D03*
X421000Y660000D03*
X79500Y546100D03*
X61900Y459700D03*
D57*
X35528Y441828D03*
D26*
X110000Y600000D03*
X214900Y481400D03*
D57*
X229928Y456628D03*
D26*
X701200Y648800D03*
X705794Y545100D03*
X780000Y630000D03*
X694306Y545852D03*
X620000Y630000D03*
X610000Y730000D03*
X560000Y550000D03*
D56*
X609000Y757000D03*
D26*
X676744Y639800D03*
X780400Y649000D03*
X725156Y640400D03*
X836500Y653200D03*
X726268Y667400D03*
X642500Y614600D03*
X610000Y440000D03*
X755000Y616200D03*
X790000Y440000D03*
D56*
X569000Y467000D03*
D26*
X654206Y560000D03*
D56*
X829000Y467000D03*
D26*
X746294Y560000D03*
X670000Y440000D03*
X688000Y556206D03*
X730000Y440000D03*
X712300Y556906D03*
X238976Y691024D03*
X279100Y698400D03*
X241406Y787900D03*
X278900Y781900D03*
X182000Y963000D03*
X196000Y963000D03*
X700000Y928000D03*
X714000Y928000D03*
X743000Y888000D03*
X148000Y923000D03*
X169300Y990000D03*
D58*
X401000Y924000D03*
D57*
X400772Y884772D03*
D26*
X133306Y1009026D03*
X110000Y1015000D03*
X104000Y960000D03*
X130200Y1075094D03*
X114528Y1065128D03*
X184800Y1107300D03*
X195200Y1107100D03*
X700000Y1072000D03*
X711000Y1072000D03*
X728900Y1044800D03*
X151000Y1144000D03*
D57*
X667772Y1146772D03*
D26*
X167874Y1081274D03*
X236000Y1071000D03*
X157458Y987842D03*
X236000Y1007000D03*
X507000Y973000D03*
X386000Y973000D03*
X727394Y952300D03*
X627000Y1007000D03*
X739492Y1046408D03*
X660000Y1037000D03*
X525000Y1001000D03*
X460034Y1034466D03*
X739000Y951400D03*
X765000Y991000D03*
D57*
X494772Y1078772D03*
D26*
X157208Y1083008D03*
X128000Y1057700D03*
M02*
