G04 EAGLE Gerber RS-274X export*
G75*
%MOMM*%
%FSLAX34Y34*%
%LPD*%
%INSoldermask Top*%
%IPPOS*%
%AMOC8*
5,1,8,0,0,1.08239X$1,22.5*%
G01*
%ADD10R,1.403200X1.403200*%
%ADD11C,1.403200*%
%ADD12R,0.803200X0.803200*%
%ADD13R,1.203200X1.303200*%
%ADD14R,1.303200X1.203200*%
%ADD15R,0.933200X0.763200*%
%ADD16R,2.003200X3.403200*%
%ADD17R,1.727200X1.727200*%
%ADD18P,1.869504X8X202.500000*%
%ADD19R,1.003200X0.603200*%
%ADD20R,1.003200X1.253200*%
%ADD21R,2.403200X0.803200*%
%ADD22C,0.959600*%
%ADD23C,1.409600*%
%ADD24C,1.309600*%
%ADD25C,1.209600*%


D10*
G36*
X371035Y22673D02*
X361113Y12751D01*
X351191Y22673D01*
X361113Y32595D01*
X371035Y22673D01*
G37*
D11*
X371720Y33280D03*
X382327Y43887D03*
D10*
G36*
X621965Y187327D02*
X631887Y197249D01*
X641809Y187327D01*
X631887Y177405D01*
X621965Y187327D01*
G37*
D11*
X621280Y176720D03*
X610673Y166113D03*
D10*
G36*
X166035Y22673D02*
X156113Y12751D01*
X146191Y22673D01*
X156113Y32595D01*
X166035Y22673D01*
G37*
D11*
X166720Y33280D03*
X177327Y43887D03*
D10*
G36*
X408965Y187327D02*
X418887Y197249D01*
X428809Y187327D01*
X418887Y177405D01*
X408965Y187327D01*
G37*
D11*
X408280Y176720D03*
X397673Y166113D03*
D12*
X226500Y103000D03*
X236000Y103000D03*
X245500Y103000D03*
X245500Y129000D03*
X236000Y129000D03*
X226500Y129000D03*
X86000Y180500D03*
X86000Y171000D03*
X86000Y161500D03*
X112000Y161500D03*
X112000Y171000D03*
X112000Y180500D03*
X86000Y143500D03*
X86000Y134000D03*
X86000Y124500D03*
X112000Y124500D03*
X112000Y134000D03*
X112000Y143500D03*
D13*
X242500Y77000D03*
X225500Y77000D03*
D14*
X188000Y162500D03*
X188000Y179500D03*
X188000Y125500D03*
X188000Y142500D03*
X165000Y162500D03*
X165000Y179500D03*
X165000Y125500D03*
X165000Y142500D03*
X45000Y162500D03*
X45000Y179500D03*
X45000Y124500D03*
X45000Y141500D03*
D15*
X146000Y171000D03*
X126000Y161500D03*
X126000Y180500D03*
X146000Y134000D03*
X126000Y124500D03*
X126000Y143500D03*
D14*
X242500Y148000D03*
X225500Y148000D03*
X242500Y171000D03*
X225500Y171000D03*
D13*
X68000Y179500D03*
X68000Y162500D03*
X68000Y141500D03*
X68000Y124500D03*
D16*
X110000Y87000D03*
X54000Y87000D03*
D12*
X568500Y106000D03*
X559000Y106000D03*
X549500Y106000D03*
X549500Y80000D03*
X559000Y80000D03*
X568500Y80000D03*
X703000Y31500D03*
X703000Y41000D03*
X703000Y50500D03*
X677000Y50500D03*
X677000Y41000D03*
X677000Y31500D03*
X703000Y68500D03*
X703000Y78000D03*
X703000Y87500D03*
X677000Y87500D03*
X677000Y78000D03*
X677000Y68500D03*
D13*
X551500Y132000D03*
X568500Y132000D03*
D14*
X601000Y49500D03*
X601000Y32500D03*
X601000Y86500D03*
X601000Y69500D03*
X624000Y49500D03*
X624000Y32500D03*
X624000Y86500D03*
X624000Y69500D03*
X744000Y49500D03*
X744000Y32500D03*
X744000Y86500D03*
X744000Y69500D03*
D15*
X643000Y41000D03*
X663000Y50500D03*
X663000Y31500D03*
X643000Y78000D03*
X663000Y87500D03*
X663000Y68500D03*
D14*
X551500Y61000D03*
X568500Y61000D03*
X551500Y36000D03*
X568500Y36000D03*
D13*
X721000Y32500D03*
X721000Y49500D03*
X721000Y69500D03*
X721000Y86500D03*
D16*
X686000Y124000D03*
X742000Y124000D03*
D17*
X504300Y53100D03*
D18*
X504300Y27700D03*
X478900Y53100D03*
X478900Y27700D03*
X453500Y53100D03*
X453500Y27700D03*
X428100Y53100D03*
X428100Y27700D03*
D13*
X259500Y103000D03*
X276500Y103000D03*
X259500Y77000D03*
X276500Y77000D03*
X533500Y132000D03*
X516500Y132000D03*
X533500Y106000D03*
X516500Y106000D03*
D19*
X193000Y77250D03*
X193000Y96750D03*
X133000Y96750D03*
X133000Y77250D03*
D20*
X133000Y87000D03*
X193000Y87000D03*
D19*
X600000Y138750D03*
X600000Y119250D03*
X660000Y119250D03*
X660000Y138750D03*
D20*
X660000Y129000D03*
X600000Y129000D03*
D21*
X54000Y43350D03*
X106000Y43350D03*
X54000Y56050D03*
X54000Y30650D03*
X54000Y17950D03*
X106000Y56050D03*
X106000Y30650D03*
X106000Y17950D03*
D13*
X228500Y46000D03*
X211500Y46000D03*
X228500Y20000D03*
X211500Y20000D03*
X268500Y20000D03*
X251500Y20000D03*
X251500Y45000D03*
X268500Y45000D03*
D21*
X734000Y163650D03*
X682000Y163650D03*
X734000Y150950D03*
X734000Y176350D03*
X734000Y189050D03*
X682000Y150950D03*
X682000Y176350D03*
X682000Y189050D03*
D13*
X549500Y165000D03*
X566500Y165000D03*
X549500Y190000D03*
X566500Y190000D03*
X514500Y190000D03*
X531500Y190000D03*
X531500Y165000D03*
X514500Y165000D03*
D14*
X20000Y41500D03*
X20000Y58500D03*
X20000Y98500D03*
X20000Y81500D03*
X765000Y168500D03*
X765000Y151500D03*
X765000Y111500D03*
X765000Y128500D03*
D22*
X489000Y177000D03*
X313000Y35859D03*
X428000Y85000D03*
X420000Y155000D03*
X490000Y165000D03*
X305000Y45000D03*
X416000Y85000D03*
D23*
X35000Y110000D03*
X503000Y115000D03*
X419911Y124911D03*
D24*
X203818Y137000D03*
D22*
X200000Y160000D03*
X244518Y160000D03*
X124000Y56000D03*
X194000Y29000D03*
X233000Y91000D03*
X244000Y90000D03*
X200000Y45000D03*
X589230Y41230D03*
X553000Y48982D03*
X664000Y152000D03*
X648000Y160000D03*
X588000Y156482D03*
X556518Y120518D03*
X546000Y119000D03*
X578000Y165000D03*
D23*
X643000Y59200D03*
D25*
X180000Y87000D03*
X630000Y129000D03*
D22*
X255000Y89000D03*
D23*
X276018Y125000D03*
D24*
X711000Y120000D03*
D22*
X305000Y70000D03*
X20000Y70000D03*
X765000Y140000D03*
X690000Y50000D03*
X640000Y22602D03*
X187236Y61105D03*
X145000Y65000D03*
X155000Y104518D03*
X263000Y116818D03*
X648000Y140000D03*
X588000Y170518D03*
X528500Y120000D03*
X205000Y180000D03*
X150000Y185000D03*
X100000Y185000D03*
X19318Y145000D03*
X35000Y55000D03*
X225000Y63000D03*
X753000Y159000D03*
X555000Y150000D03*
X475000Y185000D03*
X521674Y92674D03*
M02*
