G04 EAGLE Gerber RS-274X export*
G75*
%MOMM*%
%FSLAX34Y34*%
%LPD*%
%INSoldermask Bottom*%
%IPPOS*%
%AMOC8*
5,1,8,0,0,1.08239X$1,22.5*%
G01*
%ADD10R,5.203200X5.203200*%
%ADD11R,1.403200X1.403200*%
%ADD12C,1.403200*%
%ADD13R,1.727200X1.727200*%
%ADD14P,1.869504X8X202.500000*%
%ADD15C,0.959600*%
%ADD16C,1.409600*%
%ADD17C,1.309600*%
%ADD18C,1.209600*%


D10*
X90000Y120000D03*
X190000Y120000D03*
X295000Y120000D03*
D11*
G36*
X371035Y22673D02*
X361113Y12751D01*
X351191Y22673D01*
X361113Y32595D01*
X371035Y22673D01*
G37*
D12*
X371720Y33280D03*
X382327Y43887D03*
D11*
G36*
X621965Y187327D02*
X631887Y197249D01*
X641809Y187327D01*
X631887Y177405D01*
X621965Y187327D01*
G37*
D12*
X621280Y176720D03*
X610673Y166113D03*
D11*
G36*
X166035Y22673D02*
X156113Y12751D01*
X146191Y22673D01*
X156113Y32595D01*
X166035Y22673D01*
G37*
D12*
X166720Y33280D03*
X177327Y43887D03*
D11*
G36*
X408965Y187327D02*
X418887Y197249D01*
X428809Y187327D01*
X418887Y177405D01*
X408965Y187327D01*
G37*
D12*
X408280Y176720D03*
X397673Y166113D03*
D10*
X485000Y115000D03*
X587500Y120000D03*
X690000Y120000D03*
D13*
X504300Y53100D03*
D14*
X504300Y27700D03*
X478900Y53100D03*
X478900Y27700D03*
X453500Y53100D03*
X453500Y27700D03*
X428100Y53100D03*
X428100Y27700D03*
D15*
X489000Y177000D03*
X313000Y35859D03*
X428000Y85000D03*
X420000Y155000D03*
X490000Y165000D03*
X305000Y45000D03*
X416000Y85000D03*
D16*
X35000Y110000D03*
X503000Y115000D03*
X419911Y124911D03*
D17*
X203818Y137000D03*
D15*
X200000Y160000D03*
X244518Y160000D03*
X124000Y56000D03*
X194000Y29000D03*
X233000Y91000D03*
X244000Y90000D03*
X200000Y45000D03*
X589230Y41230D03*
X553000Y48982D03*
X664000Y152000D03*
X648000Y160000D03*
X588000Y156482D03*
X556518Y120518D03*
X546000Y119000D03*
X578000Y165000D03*
D16*
X643000Y59200D03*
D18*
X180000Y87000D03*
X630000Y129000D03*
D15*
X255000Y89000D03*
D16*
X276018Y125000D03*
D17*
X711000Y120000D03*
D15*
X305000Y70000D03*
X20000Y70000D03*
X765000Y140000D03*
X690000Y50000D03*
X640000Y22602D03*
X187236Y61105D03*
X145000Y65000D03*
X155000Y104518D03*
X263000Y116818D03*
X648000Y140000D03*
X588000Y170518D03*
X528500Y120000D03*
X205000Y180000D03*
X150000Y185000D03*
X100000Y185000D03*
X19318Y145000D03*
X35000Y55000D03*
X225000Y63000D03*
X753000Y159000D03*
X555000Y150000D03*
X475000Y185000D03*
X521674Y92674D03*
M02*
