G04 EAGLE Gerber RS-274X export*
G75*
%MOMM*%
%FSLAX34Y34*%
%LPD*%
%INSoldermask Top*%
%IPPOS*%
%AMOC8*
5,1,8,0,0,1.08239X$1,22.5*%
G01*
%ADD10C,4.703200*%
%ADD11R,12.000000X17.000000*%
%ADD12C,5.203200*%
%ADD13C,2.703200*%
%ADD14C,3.703200*%
%ADD15C,7.203200*%
%ADD16P,1.869504X8X67.500000*%
%ADD17R,8.203200X9.203200*%
%ADD18C,7.219200*%
%ADD19P,1.869504X8X157.500000*%
%ADD20P,1.869504X8X247.500000*%
%ADD21P,1.869504X8X337.500000*%
%ADD22R,1.727200X1.727200*%
%ADD23P,1.869504X8X112.500000*%
%ADD24R,2.403200X0.803200*%
%ADD25R,1.703200X4.203200*%
%ADD26R,1.203200X1.303200*%
%ADD27R,1.003200X0.603200*%
%ADD28R,1.003200X1.253200*%
%ADD29R,2.703200X2.703200*%
%ADD30R,0.803200X2.403200*%
%ADD31R,1.303200X1.203200*%
%ADD32R,0.675000X1.100000*%
%ADD33C,2.503200*%
%ADD34R,0.763200X0.933200*%
%ADD35R,2.203200X4.203200*%
%ADD36R,1.003200X1.003200*%
%ADD37C,2.203200*%
%ADD38C,1.603200*%
%ADD39P,1.869504X8X22.500000*%
%ADD40R,8.703200X8.703200*%
%ADD41R,2.003200X3.403200*%
%ADD42R,0.603200X1.103200*%
%ADD43P,1.869504X8X292.500000*%
%ADD44C,0.275422*%
%ADD45R,2.003200X1.803200*%
%ADD46R,0.503200X1.403200*%
%ADD47R,1.803200X2.903200*%
%ADD48R,0.933200X0.763200*%
%ADD49R,2.903200X1.803200*%
%ADD50C,0.353406*%
%ADD51C,1.425200*%
%ADD52R,1.425200X1.425200*%
%ADD53R,1.403200X3.703200*%
%ADD54C,1.703200*%
%ADD55P,1.852186X8X22.500000*%
%ADD56P,1.852186X8X202.500000*%
%ADD57R,1.113200X1.423200*%
%ADD58R,1.503200X0.803200*%
%ADD59R,2.003200X2.203200*%
%ADD60R,5.703200X1.703200*%
%ADD61R,0.803200X1.503200*%
%ADD62R,2.203200X2.003200*%
%ADD63R,3.703200X1.403200*%
%ADD64R,0.838200X1.473200*%
%ADD65C,0.506016*%
%ADD66R,4.203200X1.703200*%
%ADD67R,0.603200X1.003200*%
%ADD68R,1.253200X1.003200*%
%ADD69C,1.409600*%
%ADD70C,1.059600*%
%ADD71C,0.959600*%
%ADD72C,1.309600*%
%ADD73C,1.209600*%
%ADD74C,1.478200*%
%ADD75C,1.009600*%
%ADD76C,1.553200*%


D10*
X950000Y40000D03*
X1550000Y40000D03*
X1550000Y960000D03*
X950000Y960000D03*
D11*
X963280Y459620D03*
D10*
X1790000Y40000D03*
X2390000Y40000D03*
X2390000Y960000D03*
X1790000Y960000D03*
D11*
X1803280Y459620D03*
D12*
X1790000Y330000D03*
D10*
X110000Y1060000D03*
X710000Y1060000D03*
X710000Y1980000D03*
X110000Y1980000D03*
D11*
X123280Y1479620D03*
D13*
X900000Y1040000D03*
X1590000Y1040000D03*
X1590000Y1910000D03*
X900000Y1910000D03*
D14*
X1405000Y1130000D03*
D15*
X1505000Y1130000D03*
D14*
X1605000Y1780000D03*
D15*
X1505000Y1780000D03*
D10*
X110000Y40000D03*
X710000Y40000D03*
X710000Y960000D03*
X110000Y960000D03*
D11*
X118280Y498620D03*
D16*
X974226Y733348D03*
X924728Y782846D03*
X1016652Y775774D03*
X967154Y825272D03*
D17*
G36*
X1032230Y775775D02*
X974225Y717770D01*
X909150Y782845D01*
X967155Y840850D01*
X1032230Y775775D01*
G37*
D18*
X970690Y779310D03*
D19*
X1101512Y309086D03*
X1052014Y259588D03*
X1059086Y351512D03*
X1009588Y302014D03*
D17*
G36*
X1059085Y367090D02*
X1117090Y309085D01*
X1052015Y244010D01*
X994010Y302015D01*
X1059085Y367090D01*
G37*
D18*
X1055550Y305550D03*
D20*
X1525774Y266652D03*
X1575272Y217154D03*
X1483348Y224226D03*
X1532846Y174728D03*
D17*
G36*
X1467770Y224225D02*
X1525775Y282230D01*
X1590850Y217155D01*
X1532845Y159150D01*
X1467770Y224225D01*
G37*
D18*
X1529310Y220690D03*
D20*
X1440914Y351512D03*
X1490412Y302014D03*
X1398488Y309086D03*
X1447986Y259588D03*
D17*
G36*
X1382910Y309085D02*
X1440915Y367090D01*
X1505990Y302015D01*
X1447985Y244010D01*
X1382910Y309085D01*
G37*
D18*
X1444450Y305550D03*
D16*
X1059086Y648488D03*
X1009588Y697986D03*
X1101512Y690914D03*
X1052014Y740412D03*
D17*
G36*
X1117090Y690915D02*
X1059085Y632910D01*
X994010Y697985D01*
X1052015Y755990D01*
X1117090Y690915D01*
G37*
D18*
X1055550Y694450D03*
D21*
X1483348Y775774D03*
X1532846Y825272D03*
X1525774Y733348D03*
X1575272Y782846D03*
D17*
G36*
X1525775Y717770D02*
X1467770Y775775D01*
X1532845Y840850D01*
X1590850Y782845D01*
X1525775Y717770D01*
G37*
D18*
X1529310Y779310D03*
D21*
X1398488Y690914D03*
X1447986Y740412D03*
X1440914Y648488D03*
X1490412Y697986D03*
D17*
G36*
X1440915Y632910D02*
X1382910Y690915D01*
X1447985Y755990D01*
X1505990Y697985D01*
X1440915Y632910D01*
G37*
D18*
X1444450Y694450D03*
D19*
X1016652Y224226D03*
X967154Y174728D03*
X974226Y266652D03*
X924728Y217154D03*
D17*
G36*
X974225Y282230D02*
X1032230Y224225D01*
X967155Y159150D01*
X909150Y217155D01*
X974225Y282230D01*
G37*
D18*
X970690Y220690D03*
D22*
X1033000Y987500D03*
D23*
X1058400Y987500D03*
X1083800Y987500D03*
X1109200Y987500D03*
X1134600Y987500D03*
X1160000Y987500D03*
X1185400Y987500D03*
X1210800Y987500D03*
X1236200Y987500D03*
X1261600Y987500D03*
X1287000Y987500D03*
D24*
X1132000Y808350D03*
X1184000Y808350D03*
X1132000Y821050D03*
X1132000Y795650D03*
X1132000Y782950D03*
X1184000Y821050D03*
X1184000Y795650D03*
X1184000Y782950D03*
D25*
X1158000Y802000D03*
D26*
X1217500Y796000D03*
X1234500Y796000D03*
X1217500Y820000D03*
X1234500Y820000D03*
D27*
X1153000Y854250D03*
X1153000Y873750D03*
X1093000Y873750D03*
X1093000Y854250D03*
D28*
X1093000Y864000D03*
X1153000Y864000D03*
D29*
X1123000Y864000D03*
D30*
X1229650Y853000D03*
X1229650Y905000D03*
X1216950Y853000D03*
X1242350Y853000D03*
X1255050Y853000D03*
X1216950Y905000D03*
X1242350Y905000D03*
X1255050Y905000D03*
D31*
X1156000Y888500D03*
X1156000Y905500D03*
X1087000Y888500D03*
X1087000Y905500D03*
X1110000Y905500D03*
X1110000Y888500D03*
X1133000Y888500D03*
X1133000Y905500D03*
D26*
G36*
X1110363Y247851D02*
X1118871Y239343D01*
X1109657Y230129D01*
X1101149Y238637D01*
X1110363Y247851D01*
G37*
G36*
X1098343Y259871D02*
X1106851Y251363D01*
X1097637Y242149D01*
X1089129Y250657D01*
X1098343Y259871D01*
G37*
D32*
G36*
X1064768Y220495D02*
X1069541Y225268D01*
X1077318Y217491D01*
X1072545Y212718D01*
X1064768Y220495D01*
G37*
G36*
X1061232Y191505D02*
X1056459Y186732D01*
X1048682Y194509D01*
X1053455Y199282D01*
X1061232Y191505D01*
G37*
D33*
X1063000Y206000D03*
D34*
X918000Y602000D03*
X927500Y582000D03*
X908500Y582000D03*
D35*
X949000Y635000D03*
X989000Y635000D03*
D31*
X963000Y689500D03*
X963000Y672500D03*
D36*
X937000Y688500D03*
X937000Y673500D03*
D26*
X909500Y564000D03*
X926500Y564000D03*
D34*
X1525000Y504000D03*
X1534500Y484000D03*
X1515500Y484000D03*
D26*
X1516500Y532000D03*
X1533500Y532000D03*
D36*
X1516500Y556000D03*
X1531500Y556000D03*
D26*
X1516500Y466000D03*
X1533500Y466000D03*
D37*
X1379139Y670861D02*
X1372777Y677223D01*
X1420861Y629139D02*
X1427223Y622777D01*
D38*
X1400000Y650000D03*
D37*
X1079139Y629139D02*
X1072777Y622777D01*
X1120861Y670861D02*
X1127223Y677223D01*
D38*
X1100000Y650000D03*
D37*
X1420861Y370861D02*
X1427223Y377223D01*
X1379139Y329139D02*
X1372777Y322777D01*
D38*
X1400000Y350000D03*
D37*
X1127223Y322777D02*
X1120861Y329139D01*
X1079139Y370861D02*
X1072777Y377223D01*
D38*
X1100000Y350000D03*
D39*
X1217500Y467500D03*
X1217500Y532500D03*
X1282500Y467500D03*
X1282500Y532500D03*
D40*
X1250000Y500000D03*
D18*
X1250000Y500000D03*
D41*
X1449000Y808000D03*
X1393000Y808000D03*
D31*
X1391000Y838500D03*
X1391000Y855500D03*
X1451000Y838500D03*
X1451000Y855500D03*
X1412500Y847000D03*
X1429500Y847000D03*
D42*
X1411250Y871000D03*
X1417750Y871000D03*
X1424250Y871000D03*
X1430750Y871000D03*
X1430750Y897000D03*
X1424250Y897000D03*
X1417750Y897000D03*
X1411250Y897000D03*
D26*
X1250500Y796000D03*
X1267500Y796000D03*
X1250500Y820000D03*
X1267500Y820000D03*
D31*
X889000Y560500D03*
X889000Y577500D03*
X1497000Y462500D03*
X1497000Y479500D03*
D16*
X1814226Y733348D03*
X1764728Y782846D03*
X1856652Y775774D03*
X1807154Y825272D03*
D17*
G36*
X1872230Y775775D02*
X1814225Y717770D01*
X1749150Y782845D01*
X1807155Y840850D01*
X1872230Y775775D01*
G37*
D18*
X1810690Y779310D03*
D19*
X1856652Y224226D03*
X1807154Y174728D03*
X1814226Y266652D03*
X1764728Y217154D03*
D17*
G36*
X1814225Y282230D02*
X1872230Y224225D01*
X1807155Y159150D01*
X1749150Y217155D01*
X1814225Y282230D01*
G37*
D18*
X1810690Y220690D03*
D19*
X1941512Y309086D03*
X1892014Y259588D03*
X1899086Y351512D03*
X1849588Y302014D03*
D17*
G36*
X1899085Y367090D02*
X1957090Y309085D01*
X1892015Y244010D01*
X1834010Y302015D01*
X1899085Y367090D01*
G37*
D18*
X1895550Y305550D03*
D16*
X1899086Y648488D03*
X1849588Y697986D03*
X1941512Y690914D03*
X1892014Y740412D03*
D17*
G36*
X1957090Y690915D02*
X1899085Y632910D01*
X1834010Y697985D01*
X1892015Y755990D01*
X1957090Y690915D01*
G37*
D18*
X1895550Y694450D03*
D20*
X2365774Y266652D03*
X2415272Y217154D03*
X2323348Y224226D03*
X2372846Y174728D03*
D17*
G36*
X2307770Y224225D02*
X2365775Y282230D01*
X2430850Y217155D01*
X2372845Y159150D01*
X2307770Y224225D01*
G37*
D18*
X2369310Y220690D03*
D20*
X2280914Y351512D03*
X2330412Y302014D03*
X2238488Y309086D03*
X2287986Y259588D03*
D17*
G36*
X2222910Y309085D02*
X2280915Y367090D01*
X2345990Y302015D01*
X2287985Y244010D01*
X2222910Y309085D01*
G37*
D18*
X2284450Y305550D03*
D21*
X2323348Y775774D03*
X2372846Y825272D03*
X2365774Y733348D03*
X2415272Y782846D03*
D17*
G36*
X2365775Y717770D02*
X2307770Y775775D01*
X2372845Y840850D01*
X2430850Y782845D01*
X2365775Y717770D01*
G37*
D18*
X2369310Y779310D03*
D21*
X2238488Y690914D03*
X2287986Y740412D03*
X2280914Y648488D03*
X2330412Y697986D03*
D17*
G36*
X2280915Y632910D02*
X2222910Y690915D01*
X2287985Y755990D01*
X2345990Y697985D01*
X2280915Y632910D01*
G37*
D18*
X2284450Y694450D03*
D22*
X2026500Y12500D03*
D23*
X2051900Y12500D03*
X2077300Y12500D03*
X2102700Y12500D03*
X2128100Y12500D03*
X2153500Y12500D03*
D22*
X1924900Y987500D03*
D23*
X1950300Y987500D03*
X1975700Y987500D03*
X2001100Y987500D03*
X2026500Y987500D03*
X2051900Y987500D03*
X2077300Y987500D03*
X2102700Y987500D03*
X2128100Y987500D03*
X2153500Y987500D03*
X2178900Y987500D03*
X2204300Y987500D03*
X2229700Y987500D03*
X2255100Y987500D03*
D24*
X1985000Y792350D03*
X2037000Y792350D03*
X1985000Y805050D03*
X1985000Y779650D03*
X1985000Y766950D03*
X2037000Y805050D03*
X2037000Y779650D03*
X2037000Y766950D03*
D25*
X2011000Y786000D03*
D26*
X2072500Y781000D03*
X2089500Y781000D03*
X2072500Y805000D03*
X2089500Y805000D03*
D27*
X2010000Y840250D03*
X2010000Y859750D03*
X1950000Y859750D03*
X1950000Y840250D03*
D28*
X1950000Y850000D03*
X2010000Y850000D03*
D29*
X1980000Y850000D03*
D30*
X2085650Y838000D03*
X2085650Y890000D03*
X2072950Y838000D03*
X2098350Y838000D03*
X2111050Y838000D03*
X2072950Y890000D03*
X2098350Y890000D03*
X2111050Y890000D03*
D31*
X2016000Y877500D03*
X2016000Y894500D03*
X1944000Y877500D03*
X1944000Y894500D03*
X1968000Y894500D03*
X1968000Y877500D03*
X1992000Y877500D03*
X1992000Y894500D03*
D26*
G36*
X1961363Y242851D02*
X1969871Y234343D01*
X1960657Y225129D01*
X1952149Y233637D01*
X1961363Y242851D01*
G37*
G36*
X1949343Y254871D02*
X1957851Y246363D01*
X1948637Y237149D01*
X1940129Y245657D01*
X1949343Y254871D01*
G37*
D32*
G36*
X1912768Y214495D02*
X1917541Y219268D01*
X1925318Y211491D01*
X1920545Y206718D01*
X1912768Y214495D01*
G37*
G36*
X1909232Y185505D02*
X1904459Y180732D01*
X1896682Y188509D01*
X1901455Y193282D01*
X1909232Y185505D01*
G37*
D33*
X1911000Y200000D03*
D34*
X1751000Y615000D03*
X1760500Y595000D03*
X1741500Y595000D03*
D35*
X1780000Y645000D03*
X1820000Y645000D03*
D31*
X1794000Y700500D03*
X1794000Y683500D03*
D36*
X1768000Y699500D03*
X1768000Y684500D03*
D26*
X1742500Y574000D03*
X1759500Y574000D03*
D34*
X2350000Y517000D03*
X2359500Y497000D03*
X2340500Y497000D03*
D26*
X2341500Y537000D03*
X2358500Y537000D03*
D36*
X2342500Y565000D03*
X2357500Y565000D03*
D26*
X2341500Y476000D03*
X2358500Y476000D03*
D37*
X1919139Y629139D02*
X1912777Y622777D01*
X1960861Y670861D02*
X1967223Y677223D01*
D38*
X1940000Y650000D03*
D37*
X1960861Y329139D02*
X1967223Y322777D01*
X1919139Y370861D02*
X1912777Y377223D01*
D38*
X1940000Y350000D03*
D37*
X2219139Y670861D02*
X2212777Y677223D01*
X2260861Y629139D02*
X2267223Y622777D01*
D38*
X2240000Y650000D03*
D37*
X2267223Y377223D02*
X2260861Y370861D01*
X2219139Y329139D02*
X2212777Y322777D01*
D38*
X2240000Y350000D03*
D41*
X2279000Y812000D03*
X2223000Y812000D03*
D31*
X2221000Y843500D03*
X2221000Y860500D03*
X2281000Y843500D03*
X2281000Y860500D03*
X2242500Y852000D03*
X2259500Y852000D03*
D42*
X2241250Y874000D03*
X2247750Y874000D03*
X2254250Y874000D03*
X2260750Y874000D03*
X2260750Y900000D03*
X2254250Y900000D03*
X2247750Y900000D03*
X2241250Y900000D03*
D26*
X2106500Y781000D03*
X2123500Y781000D03*
X2106500Y805000D03*
X2123500Y805000D03*
D39*
X2057500Y467500D03*
X2057500Y532500D03*
X2122500Y467500D03*
X2122500Y532500D03*
D40*
X2090000Y500000D03*
D18*
X2090000Y500000D03*
D31*
X1723000Y570500D03*
X1723000Y587500D03*
X2322000Y489500D03*
X2322000Y472500D03*
D16*
X134226Y1753348D03*
X84728Y1802846D03*
X176652Y1795774D03*
X127154Y1845272D03*
D17*
G36*
X192230Y1795775D02*
X134225Y1737770D01*
X69150Y1802845D01*
X127155Y1860850D01*
X192230Y1795775D01*
G37*
D18*
X130690Y1799310D03*
D19*
X261512Y1329086D03*
X212014Y1279588D03*
X219086Y1371512D03*
X169588Y1322014D03*
D17*
G36*
X219085Y1387090D02*
X277090Y1329085D01*
X212015Y1264010D01*
X154010Y1322015D01*
X219085Y1387090D01*
G37*
D18*
X215550Y1325550D03*
D20*
X685774Y1286652D03*
X735272Y1237154D03*
X643348Y1244226D03*
X692846Y1194728D03*
D17*
G36*
X627770Y1244225D02*
X685775Y1302230D01*
X750850Y1237155D01*
X692845Y1179150D01*
X627770Y1244225D01*
G37*
D18*
X689310Y1240690D03*
D20*
X600914Y1371512D03*
X650412Y1322014D03*
X558488Y1329086D03*
X607986Y1279588D03*
D17*
G36*
X542910Y1329085D02*
X600915Y1387090D01*
X665990Y1322015D01*
X607985Y1264010D01*
X542910Y1329085D01*
G37*
D18*
X604450Y1325550D03*
D16*
X219086Y1668488D03*
X169588Y1717986D03*
X261512Y1710914D03*
X212014Y1760412D03*
D17*
G36*
X277090Y1710915D02*
X219085Y1652910D01*
X154010Y1717985D01*
X212015Y1775990D01*
X277090Y1710915D01*
G37*
D18*
X215550Y1714450D03*
D21*
X643348Y1795774D03*
X692846Y1845272D03*
X685774Y1753348D03*
X735272Y1802846D03*
D17*
G36*
X685775Y1737770D02*
X627770Y1795775D01*
X692845Y1860850D01*
X750850Y1802845D01*
X685775Y1737770D01*
G37*
D18*
X689310Y1799310D03*
D21*
X558488Y1710914D03*
X607986Y1760412D03*
X600914Y1668488D03*
X650412Y1717986D03*
D17*
G36*
X600915Y1652910D02*
X542910Y1710915D01*
X607985Y1775990D01*
X665990Y1717985D01*
X600915Y1652910D01*
G37*
D18*
X604450Y1714450D03*
D19*
X176652Y1244226D03*
X127154Y1194728D03*
X134226Y1286652D03*
X84728Y1237154D03*
D17*
G36*
X134225Y1302230D02*
X192230Y1244225D01*
X127155Y1179150D01*
X69150Y1237155D01*
X134225Y1302230D01*
G37*
D18*
X130690Y1240690D03*
D22*
X193000Y2007500D03*
D23*
X218400Y2007500D03*
X243800Y2007500D03*
X269200Y2007500D03*
X294600Y2007500D03*
X320000Y2007500D03*
X345400Y2007500D03*
X370800Y2007500D03*
X396200Y2007500D03*
X421600Y2007500D03*
X447000Y2007500D03*
D24*
X292000Y1828350D03*
X344000Y1828350D03*
X292000Y1841050D03*
X292000Y1815650D03*
X292000Y1802950D03*
X344000Y1841050D03*
X344000Y1815650D03*
X344000Y1802950D03*
D25*
X318000Y1822000D03*
D26*
X377500Y1816000D03*
X394500Y1816000D03*
X377500Y1840000D03*
X394500Y1840000D03*
D27*
X313000Y1874250D03*
X313000Y1893750D03*
X253000Y1893750D03*
X253000Y1874250D03*
D28*
X253000Y1884000D03*
X313000Y1884000D03*
D29*
X283000Y1884000D03*
D30*
X389650Y1873000D03*
X389650Y1925000D03*
X376950Y1873000D03*
X402350Y1873000D03*
X415050Y1873000D03*
X376950Y1925000D03*
X402350Y1925000D03*
X415050Y1925000D03*
D31*
X316000Y1908500D03*
X316000Y1925500D03*
X247000Y1908500D03*
X247000Y1925500D03*
X270000Y1925500D03*
X270000Y1908500D03*
X293000Y1908500D03*
X293000Y1925500D03*
D26*
G36*
X270363Y1267851D02*
X278871Y1259343D01*
X269657Y1250129D01*
X261149Y1258637D01*
X270363Y1267851D01*
G37*
G36*
X258343Y1279871D02*
X266851Y1271363D01*
X257637Y1262149D01*
X249129Y1270657D01*
X258343Y1279871D01*
G37*
D32*
G36*
X224768Y1240495D02*
X229541Y1245268D01*
X237318Y1237491D01*
X232545Y1232718D01*
X224768Y1240495D01*
G37*
G36*
X221232Y1211505D02*
X216459Y1206732D01*
X208682Y1214509D01*
X213455Y1219282D01*
X221232Y1211505D01*
G37*
D33*
X223000Y1226000D03*
D34*
X78000Y1622000D03*
X87500Y1602000D03*
X68500Y1602000D03*
D35*
X109000Y1655000D03*
X149000Y1655000D03*
D31*
X123000Y1709500D03*
X123000Y1692500D03*
D36*
X97000Y1708500D03*
X97000Y1693500D03*
D26*
X69500Y1584000D03*
X86500Y1584000D03*
D34*
X685000Y1524000D03*
X694500Y1504000D03*
X675500Y1504000D03*
D26*
X676500Y1552000D03*
X693500Y1552000D03*
D36*
X676500Y1576000D03*
X691500Y1576000D03*
D26*
X676500Y1486000D03*
X693500Y1486000D03*
D37*
X539139Y1690861D02*
X532777Y1697223D01*
X580861Y1649139D02*
X587223Y1642777D01*
D38*
X560000Y1670000D03*
D37*
X239139Y1649139D02*
X232777Y1642777D01*
X280861Y1690861D02*
X287223Y1697223D01*
D38*
X260000Y1670000D03*
D37*
X580861Y1390861D02*
X587223Y1397223D01*
X539139Y1349139D02*
X532777Y1342777D01*
D38*
X560000Y1370000D03*
D37*
X287223Y1342777D02*
X280861Y1349139D01*
X239139Y1390861D02*
X232777Y1397223D01*
D38*
X260000Y1370000D03*
D39*
X377500Y1487500D03*
X377500Y1552500D03*
X442500Y1487500D03*
X442500Y1552500D03*
D40*
X410000Y1520000D03*
D18*
X410000Y1520000D03*
D41*
X609000Y1828000D03*
X553000Y1828000D03*
D31*
X551000Y1858500D03*
X551000Y1875500D03*
X611000Y1858500D03*
X611000Y1875500D03*
X572500Y1867000D03*
X589500Y1867000D03*
D42*
X571250Y1891000D03*
X577750Y1891000D03*
X584250Y1891000D03*
X590750Y1891000D03*
X590750Y1917000D03*
X584250Y1917000D03*
X577750Y1917000D03*
X571250Y1917000D03*
D26*
X410500Y1816000D03*
X427500Y1816000D03*
X410500Y1840000D03*
X427500Y1840000D03*
D31*
X49000Y1580500D03*
X49000Y1597500D03*
X657000Y1482500D03*
X657000Y1499500D03*
D43*
X1617500Y1523300D03*
X1617500Y1497900D03*
X1617500Y1472500D03*
X1617500Y1447100D03*
D44*
X1416461Y1373689D02*
X1416461Y1359711D01*
X1416461Y1373689D02*
X1418539Y1373689D01*
X1418539Y1359711D01*
X1416461Y1359711D01*
X1416461Y1362327D02*
X1418539Y1362327D01*
X1418539Y1364943D02*
X1416461Y1364943D01*
X1416461Y1367559D02*
X1418539Y1367559D01*
X1418539Y1370175D02*
X1416461Y1370175D01*
X1416461Y1372791D02*
X1418539Y1372791D01*
X1411461Y1373689D02*
X1411461Y1359711D01*
X1411461Y1373689D02*
X1413539Y1373689D01*
X1413539Y1359711D01*
X1411461Y1359711D01*
X1411461Y1362327D02*
X1413539Y1362327D01*
X1413539Y1364943D02*
X1411461Y1364943D01*
X1411461Y1367559D02*
X1413539Y1367559D01*
X1413539Y1370175D02*
X1411461Y1370175D01*
X1411461Y1372791D02*
X1413539Y1372791D01*
X1406461Y1373689D02*
X1406461Y1359711D01*
X1406461Y1373689D02*
X1408539Y1373689D01*
X1408539Y1359711D01*
X1406461Y1359711D01*
X1406461Y1362327D02*
X1408539Y1362327D01*
X1408539Y1364943D02*
X1406461Y1364943D01*
X1406461Y1367559D02*
X1408539Y1367559D01*
X1408539Y1370175D02*
X1406461Y1370175D01*
X1406461Y1372791D02*
X1408539Y1372791D01*
X1401461Y1373689D02*
X1401461Y1359711D01*
X1401461Y1373689D02*
X1403539Y1373689D01*
X1403539Y1359711D01*
X1401461Y1359711D01*
X1401461Y1362327D02*
X1403539Y1362327D01*
X1403539Y1364943D02*
X1401461Y1364943D01*
X1401461Y1367559D02*
X1403539Y1367559D01*
X1403539Y1370175D02*
X1401461Y1370175D01*
X1401461Y1372791D02*
X1403539Y1372791D01*
X1396461Y1373689D02*
X1396461Y1359711D01*
X1396461Y1373689D02*
X1398539Y1373689D01*
X1398539Y1359711D01*
X1396461Y1359711D01*
X1396461Y1362327D02*
X1398539Y1362327D01*
X1398539Y1364943D02*
X1396461Y1364943D01*
X1396461Y1367559D02*
X1398539Y1367559D01*
X1398539Y1370175D02*
X1396461Y1370175D01*
X1396461Y1372791D02*
X1398539Y1372791D01*
X1391461Y1373689D02*
X1391461Y1359711D01*
X1391461Y1373689D02*
X1393539Y1373689D01*
X1393539Y1359711D01*
X1391461Y1359711D01*
X1391461Y1362327D02*
X1393539Y1362327D01*
X1393539Y1364943D02*
X1391461Y1364943D01*
X1391461Y1367559D02*
X1393539Y1367559D01*
X1393539Y1370175D02*
X1391461Y1370175D01*
X1391461Y1372791D02*
X1393539Y1372791D01*
X1386461Y1373689D02*
X1386461Y1359711D01*
X1386461Y1373689D02*
X1388539Y1373689D01*
X1388539Y1359711D01*
X1386461Y1359711D01*
X1386461Y1362327D02*
X1388539Y1362327D01*
X1388539Y1364943D02*
X1386461Y1364943D01*
X1386461Y1367559D02*
X1388539Y1367559D01*
X1388539Y1370175D02*
X1386461Y1370175D01*
X1386461Y1372791D02*
X1388539Y1372791D01*
X1381461Y1373689D02*
X1381461Y1359711D01*
X1381461Y1373689D02*
X1383539Y1373689D01*
X1383539Y1359711D01*
X1381461Y1359711D01*
X1381461Y1362327D02*
X1383539Y1362327D01*
X1383539Y1364943D02*
X1381461Y1364943D01*
X1381461Y1367559D02*
X1383539Y1367559D01*
X1383539Y1370175D02*
X1381461Y1370175D01*
X1381461Y1372791D02*
X1383539Y1372791D01*
X1376461Y1373689D02*
X1376461Y1359711D01*
X1376461Y1373689D02*
X1378539Y1373689D01*
X1378539Y1359711D01*
X1376461Y1359711D01*
X1376461Y1362327D02*
X1378539Y1362327D01*
X1378539Y1364943D02*
X1376461Y1364943D01*
X1376461Y1367559D02*
X1378539Y1367559D01*
X1378539Y1370175D02*
X1376461Y1370175D01*
X1376461Y1372791D02*
X1378539Y1372791D01*
X1371461Y1373689D02*
X1371461Y1359711D01*
X1371461Y1373689D02*
X1373539Y1373689D01*
X1373539Y1359711D01*
X1371461Y1359711D01*
X1371461Y1362327D02*
X1373539Y1362327D01*
X1373539Y1364943D02*
X1371461Y1364943D01*
X1371461Y1367559D02*
X1373539Y1367559D01*
X1373539Y1370175D02*
X1371461Y1370175D01*
X1371461Y1372791D02*
X1373539Y1372791D01*
X1366461Y1373689D02*
X1366461Y1359711D01*
X1366461Y1373689D02*
X1368539Y1373689D01*
X1368539Y1359711D01*
X1366461Y1359711D01*
X1366461Y1362327D02*
X1368539Y1362327D01*
X1368539Y1364943D02*
X1366461Y1364943D01*
X1366461Y1367559D02*
X1368539Y1367559D01*
X1368539Y1370175D02*
X1366461Y1370175D01*
X1366461Y1372791D02*
X1368539Y1372791D01*
X1361461Y1373689D02*
X1361461Y1359711D01*
X1361461Y1373689D02*
X1363539Y1373689D01*
X1363539Y1359711D01*
X1361461Y1359711D01*
X1361461Y1362327D02*
X1363539Y1362327D01*
X1363539Y1364943D02*
X1361461Y1364943D01*
X1361461Y1367559D02*
X1363539Y1367559D01*
X1363539Y1370175D02*
X1361461Y1370175D01*
X1361461Y1372791D02*
X1363539Y1372791D01*
X1356461Y1373689D02*
X1356461Y1359711D01*
X1356461Y1373689D02*
X1358539Y1373689D01*
X1358539Y1359711D01*
X1356461Y1359711D01*
X1356461Y1362327D02*
X1358539Y1362327D01*
X1358539Y1364943D02*
X1356461Y1364943D01*
X1356461Y1367559D02*
X1358539Y1367559D01*
X1358539Y1370175D02*
X1356461Y1370175D01*
X1356461Y1372791D02*
X1358539Y1372791D01*
X1351461Y1373689D02*
X1351461Y1359711D01*
X1351461Y1373689D02*
X1353539Y1373689D01*
X1353539Y1359711D01*
X1351461Y1359711D01*
X1351461Y1362327D02*
X1353539Y1362327D01*
X1353539Y1364943D02*
X1351461Y1364943D01*
X1351461Y1367559D02*
X1353539Y1367559D01*
X1353539Y1370175D02*
X1351461Y1370175D01*
X1351461Y1372791D02*
X1353539Y1372791D01*
X1346461Y1373689D02*
X1346461Y1359711D01*
X1346461Y1373689D02*
X1348539Y1373689D01*
X1348539Y1359711D01*
X1346461Y1359711D01*
X1346461Y1362327D02*
X1348539Y1362327D01*
X1348539Y1364943D02*
X1346461Y1364943D01*
X1346461Y1367559D02*
X1348539Y1367559D01*
X1348539Y1370175D02*
X1346461Y1370175D01*
X1346461Y1372791D02*
X1348539Y1372791D01*
X1341461Y1373689D02*
X1341461Y1359711D01*
X1341461Y1373689D02*
X1343539Y1373689D01*
X1343539Y1359711D01*
X1341461Y1359711D01*
X1341461Y1362327D02*
X1343539Y1362327D01*
X1343539Y1364943D02*
X1341461Y1364943D01*
X1341461Y1367559D02*
X1343539Y1367559D01*
X1343539Y1370175D02*
X1341461Y1370175D01*
X1341461Y1372791D02*
X1343539Y1372791D01*
X1341461Y1260289D02*
X1341461Y1246311D01*
X1341461Y1260289D02*
X1343539Y1260289D01*
X1343539Y1246311D01*
X1341461Y1246311D01*
X1341461Y1248927D02*
X1343539Y1248927D01*
X1343539Y1251543D02*
X1341461Y1251543D01*
X1341461Y1254159D02*
X1343539Y1254159D01*
X1343539Y1256775D02*
X1341461Y1256775D01*
X1341461Y1259391D02*
X1343539Y1259391D01*
X1346461Y1260289D02*
X1346461Y1246311D01*
X1346461Y1260289D02*
X1348539Y1260289D01*
X1348539Y1246311D01*
X1346461Y1246311D01*
X1346461Y1248927D02*
X1348539Y1248927D01*
X1348539Y1251543D02*
X1346461Y1251543D01*
X1346461Y1254159D02*
X1348539Y1254159D01*
X1348539Y1256775D02*
X1346461Y1256775D01*
X1346461Y1259391D02*
X1348539Y1259391D01*
X1351461Y1260289D02*
X1351461Y1246311D01*
X1351461Y1260289D02*
X1353539Y1260289D01*
X1353539Y1246311D01*
X1351461Y1246311D01*
X1351461Y1248927D02*
X1353539Y1248927D01*
X1353539Y1251543D02*
X1351461Y1251543D01*
X1351461Y1254159D02*
X1353539Y1254159D01*
X1353539Y1256775D02*
X1351461Y1256775D01*
X1351461Y1259391D02*
X1353539Y1259391D01*
X1356461Y1260289D02*
X1356461Y1246311D01*
X1356461Y1260289D02*
X1358539Y1260289D01*
X1358539Y1246311D01*
X1356461Y1246311D01*
X1356461Y1248927D02*
X1358539Y1248927D01*
X1358539Y1251543D02*
X1356461Y1251543D01*
X1356461Y1254159D02*
X1358539Y1254159D01*
X1358539Y1256775D02*
X1356461Y1256775D01*
X1356461Y1259391D02*
X1358539Y1259391D01*
X1361461Y1260289D02*
X1361461Y1246311D01*
X1361461Y1260289D02*
X1363539Y1260289D01*
X1363539Y1246311D01*
X1361461Y1246311D01*
X1361461Y1248927D02*
X1363539Y1248927D01*
X1363539Y1251543D02*
X1361461Y1251543D01*
X1361461Y1254159D02*
X1363539Y1254159D01*
X1363539Y1256775D02*
X1361461Y1256775D01*
X1361461Y1259391D02*
X1363539Y1259391D01*
X1366461Y1260289D02*
X1366461Y1246311D01*
X1366461Y1260289D02*
X1368539Y1260289D01*
X1368539Y1246311D01*
X1366461Y1246311D01*
X1366461Y1248927D02*
X1368539Y1248927D01*
X1368539Y1251543D02*
X1366461Y1251543D01*
X1366461Y1254159D02*
X1368539Y1254159D01*
X1368539Y1256775D02*
X1366461Y1256775D01*
X1366461Y1259391D02*
X1368539Y1259391D01*
X1371461Y1260289D02*
X1371461Y1246311D01*
X1371461Y1260289D02*
X1373539Y1260289D01*
X1373539Y1246311D01*
X1371461Y1246311D01*
X1371461Y1248927D02*
X1373539Y1248927D01*
X1373539Y1251543D02*
X1371461Y1251543D01*
X1371461Y1254159D02*
X1373539Y1254159D01*
X1373539Y1256775D02*
X1371461Y1256775D01*
X1371461Y1259391D02*
X1373539Y1259391D01*
X1376461Y1260289D02*
X1376461Y1246311D01*
X1376461Y1260289D02*
X1378539Y1260289D01*
X1378539Y1246311D01*
X1376461Y1246311D01*
X1376461Y1248927D02*
X1378539Y1248927D01*
X1378539Y1251543D02*
X1376461Y1251543D01*
X1376461Y1254159D02*
X1378539Y1254159D01*
X1378539Y1256775D02*
X1376461Y1256775D01*
X1376461Y1259391D02*
X1378539Y1259391D01*
X1381461Y1260289D02*
X1381461Y1246311D01*
X1381461Y1260289D02*
X1383539Y1260289D01*
X1383539Y1246311D01*
X1381461Y1246311D01*
X1381461Y1248927D02*
X1383539Y1248927D01*
X1383539Y1251543D02*
X1381461Y1251543D01*
X1381461Y1254159D02*
X1383539Y1254159D01*
X1383539Y1256775D02*
X1381461Y1256775D01*
X1381461Y1259391D02*
X1383539Y1259391D01*
X1386461Y1260289D02*
X1386461Y1246311D01*
X1386461Y1260289D02*
X1388539Y1260289D01*
X1388539Y1246311D01*
X1386461Y1246311D01*
X1386461Y1248927D02*
X1388539Y1248927D01*
X1388539Y1251543D02*
X1386461Y1251543D01*
X1386461Y1254159D02*
X1388539Y1254159D01*
X1388539Y1256775D02*
X1386461Y1256775D01*
X1386461Y1259391D02*
X1388539Y1259391D01*
X1391461Y1260289D02*
X1391461Y1246311D01*
X1391461Y1260289D02*
X1393539Y1260289D01*
X1393539Y1246311D01*
X1391461Y1246311D01*
X1391461Y1248927D02*
X1393539Y1248927D01*
X1393539Y1251543D02*
X1391461Y1251543D01*
X1391461Y1254159D02*
X1393539Y1254159D01*
X1393539Y1256775D02*
X1391461Y1256775D01*
X1391461Y1259391D02*
X1393539Y1259391D01*
X1396461Y1260289D02*
X1396461Y1246311D01*
X1396461Y1260289D02*
X1398539Y1260289D01*
X1398539Y1246311D01*
X1396461Y1246311D01*
X1396461Y1248927D02*
X1398539Y1248927D01*
X1398539Y1251543D02*
X1396461Y1251543D01*
X1396461Y1254159D02*
X1398539Y1254159D01*
X1398539Y1256775D02*
X1396461Y1256775D01*
X1396461Y1259391D02*
X1398539Y1259391D01*
X1401461Y1260289D02*
X1401461Y1246311D01*
X1401461Y1260289D02*
X1403539Y1260289D01*
X1403539Y1246311D01*
X1401461Y1246311D01*
X1401461Y1248927D02*
X1403539Y1248927D01*
X1403539Y1251543D02*
X1401461Y1251543D01*
X1401461Y1254159D02*
X1403539Y1254159D01*
X1403539Y1256775D02*
X1401461Y1256775D01*
X1401461Y1259391D02*
X1403539Y1259391D01*
X1406461Y1260289D02*
X1406461Y1246311D01*
X1406461Y1260289D02*
X1408539Y1260289D01*
X1408539Y1246311D01*
X1406461Y1246311D01*
X1406461Y1248927D02*
X1408539Y1248927D01*
X1408539Y1251543D02*
X1406461Y1251543D01*
X1406461Y1254159D02*
X1408539Y1254159D01*
X1408539Y1256775D02*
X1406461Y1256775D01*
X1406461Y1259391D02*
X1408539Y1259391D01*
X1411461Y1260289D02*
X1411461Y1246311D01*
X1411461Y1260289D02*
X1413539Y1260289D01*
X1413539Y1246311D01*
X1411461Y1246311D01*
X1411461Y1248927D02*
X1413539Y1248927D01*
X1413539Y1251543D02*
X1411461Y1251543D01*
X1411461Y1254159D02*
X1413539Y1254159D01*
X1413539Y1256775D02*
X1411461Y1256775D01*
X1411461Y1259391D02*
X1413539Y1259391D01*
X1416461Y1260289D02*
X1416461Y1246311D01*
X1416461Y1260289D02*
X1418539Y1260289D01*
X1418539Y1246311D01*
X1416461Y1246311D01*
X1416461Y1248927D02*
X1418539Y1248927D01*
X1418539Y1251543D02*
X1416461Y1251543D01*
X1416461Y1254159D02*
X1418539Y1254159D01*
X1418539Y1256775D02*
X1416461Y1256775D01*
X1416461Y1259391D02*
X1418539Y1259391D01*
X1429711Y1273539D02*
X1443689Y1273539D01*
X1443689Y1271461D01*
X1429711Y1271461D01*
X1429711Y1273539D01*
X1429711Y1278539D02*
X1443689Y1278539D01*
X1443689Y1276461D01*
X1429711Y1276461D01*
X1429711Y1278539D01*
X1429711Y1283539D02*
X1443689Y1283539D01*
X1443689Y1281461D01*
X1429711Y1281461D01*
X1429711Y1283539D01*
X1429711Y1288539D02*
X1443689Y1288539D01*
X1443689Y1286461D01*
X1429711Y1286461D01*
X1429711Y1288539D01*
X1429711Y1293539D02*
X1443689Y1293539D01*
X1443689Y1291461D01*
X1429711Y1291461D01*
X1429711Y1293539D01*
X1429711Y1298539D02*
X1443689Y1298539D01*
X1443689Y1296461D01*
X1429711Y1296461D01*
X1429711Y1298539D01*
X1429711Y1303539D02*
X1443689Y1303539D01*
X1443689Y1301461D01*
X1429711Y1301461D01*
X1429711Y1303539D01*
X1429711Y1308539D02*
X1443689Y1308539D01*
X1443689Y1306461D01*
X1429711Y1306461D01*
X1429711Y1308539D01*
X1429711Y1313539D02*
X1443689Y1313539D01*
X1443689Y1311461D01*
X1429711Y1311461D01*
X1429711Y1313539D01*
X1429711Y1318539D02*
X1443689Y1318539D01*
X1443689Y1316461D01*
X1429711Y1316461D01*
X1429711Y1318539D01*
X1429711Y1323539D02*
X1443689Y1323539D01*
X1443689Y1321461D01*
X1429711Y1321461D01*
X1429711Y1323539D01*
X1429711Y1328539D02*
X1443689Y1328539D01*
X1443689Y1326461D01*
X1429711Y1326461D01*
X1429711Y1328539D01*
X1429711Y1333539D02*
X1443689Y1333539D01*
X1443689Y1331461D01*
X1429711Y1331461D01*
X1429711Y1333539D01*
X1429711Y1338539D02*
X1443689Y1338539D01*
X1443689Y1336461D01*
X1429711Y1336461D01*
X1429711Y1338539D01*
X1429711Y1343539D02*
X1443689Y1343539D01*
X1443689Y1341461D01*
X1429711Y1341461D01*
X1429711Y1343539D01*
X1429711Y1348539D02*
X1443689Y1348539D01*
X1443689Y1346461D01*
X1429711Y1346461D01*
X1429711Y1348539D01*
X1330289Y1348539D02*
X1316311Y1348539D01*
X1330289Y1348539D02*
X1330289Y1346461D01*
X1316311Y1346461D01*
X1316311Y1348539D01*
X1316311Y1343539D02*
X1330289Y1343539D01*
X1330289Y1341461D01*
X1316311Y1341461D01*
X1316311Y1343539D01*
X1316311Y1338539D02*
X1330289Y1338539D01*
X1330289Y1336461D01*
X1316311Y1336461D01*
X1316311Y1338539D01*
X1316311Y1333539D02*
X1330289Y1333539D01*
X1330289Y1331461D01*
X1316311Y1331461D01*
X1316311Y1333539D01*
X1316311Y1328539D02*
X1330289Y1328539D01*
X1330289Y1326461D01*
X1316311Y1326461D01*
X1316311Y1328539D01*
X1316311Y1323539D02*
X1330289Y1323539D01*
X1330289Y1321461D01*
X1316311Y1321461D01*
X1316311Y1323539D01*
X1316311Y1318539D02*
X1330289Y1318539D01*
X1330289Y1316461D01*
X1316311Y1316461D01*
X1316311Y1318539D01*
X1316311Y1313539D02*
X1330289Y1313539D01*
X1330289Y1311461D01*
X1316311Y1311461D01*
X1316311Y1313539D01*
X1316311Y1308539D02*
X1330289Y1308539D01*
X1330289Y1306461D01*
X1316311Y1306461D01*
X1316311Y1308539D01*
X1316311Y1303539D02*
X1330289Y1303539D01*
X1330289Y1301461D01*
X1316311Y1301461D01*
X1316311Y1303539D01*
X1316311Y1298539D02*
X1330289Y1298539D01*
X1330289Y1296461D01*
X1316311Y1296461D01*
X1316311Y1298539D01*
X1316311Y1293539D02*
X1330289Y1293539D01*
X1330289Y1291461D01*
X1316311Y1291461D01*
X1316311Y1293539D01*
X1316311Y1288539D02*
X1330289Y1288539D01*
X1330289Y1286461D01*
X1316311Y1286461D01*
X1316311Y1288539D01*
X1316311Y1283539D02*
X1330289Y1283539D01*
X1330289Y1281461D01*
X1316311Y1281461D01*
X1316311Y1283539D01*
X1316311Y1278539D02*
X1330289Y1278539D01*
X1330289Y1276461D01*
X1316311Y1276461D01*
X1316311Y1278539D01*
X1316311Y1273539D02*
X1330289Y1273539D01*
X1330289Y1271461D01*
X1316311Y1271461D01*
X1316311Y1273539D01*
D31*
X1478000Y1198500D03*
X1478000Y1181500D03*
X1375000Y1198500D03*
X1375000Y1181500D03*
X1309000Y1198500D03*
X1309000Y1181500D03*
X1330000Y1198500D03*
X1330000Y1181500D03*
X1415000Y1181500D03*
X1415000Y1198500D03*
D36*
X1355000Y1197500D03*
X1355000Y1182500D03*
X1395000Y1197500D03*
X1395000Y1182500D03*
D31*
X1363500Y1393000D03*
X1346500Y1393000D03*
X1281500Y1280000D03*
X1298500Y1280000D03*
X1423500Y1395000D03*
X1406500Y1395000D03*
X1416500Y1232000D03*
X1433500Y1232000D03*
D26*
X1465000Y1343500D03*
X1465000Y1326500D03*
D45*
X1315000Y1149000D03*
X1315000Y1121000D03*
D31*
X1363500Y1415000D03*
X1346500Y1415000D03*
X1281500Y1258000D03*
X1298500Y1258000D03*
D46*
X1508250Y1277500D03*
X1481750Y1277500D03*
X1481750Y1260500D03*
X1508250Y1260500D03*
D26*
X1465000Y1292500D03*
X1465000Y1275500D03*
D31*
X1486500Y1295000D03*
X1503500Y1295000D03*
X1436000Y1181500D03*
X1436000Y1198500D03*
X1457000Y1181500D03*
X1457000Y1198500D03*
D43*
X1617300Y1711200D03*
X1617300Y1685800D03*
X1617300Y1660400D03*
X1617300Y1635000D03*
X1617300Y1609600D03*
X1617300Y1584200D03*
X1617300Y1558800D03*
D47*
X1589000Y1660000D03*
X1561000Y1660000D03*
D48*
X1540000Y1660000D03*
X1520000Y1650500D03*
X1520000Y1669500D03*
D26*
X1486500Y1649000D03*
X1503500Y1649000D03*
X1486500Y1671000D03*
X1503500Y1671000D03*
D48*
X1540000Y1500000D03*
X1520000Y1490500D03*
X1520000Y1509500D03*
D26*
X1486500Y1489000D03*
X1503500Y1489000D03*
X1486500Y1511000D03*
X1503500Y1511000D03*
D47*
X1589000Y1500000D03*
X1561000Y1500000D03*
D48*
X1115000Y1185000D03*
X1135000Y1194500D03*
X1135000Y1175500D03*
D31*
X1153000Y1176500D03*
X1153000Y1193500D03*
X1175000Y1193500D03*
X1175000Y1176500D03*
D48*
X1115000Y1145000D03*
X1135000Y1154500D03*
X1135000Y1135500D03*
D31*
X1153000Y1136500D03*
X1153000Y1153500D03*
X1175000Y1153500D03*
X1175000Y1136500D03*
D47*
X1066000Y1145000D03*
X1094000Y1145000D03*
D48*
X1115000Y1295000D03*
X1135000Y1304500D03*
X1135000Y1285500D03*
D31*
X1153000Y1286500D03*
X1153000Y1303500D03*
X1180000Y1303500D03*
X1180000Y1286500D03*
D47*
X1066000Y1295000D03*
X1094000Y1295000D03*
D34*
X1380000Y1510000D03*
X1389500Y1490000D03*
X1370500Y1490000D03*
D26*
X1371500Y1472000D03*
X1388500Y1472000D03*
X1388500Y1450000D03*
X1371500Y1450000D03*
D49*
X1380000Y1559000D03*
X1380000Y1531000D03*
D47*
X1066000Y1185000D03*
X1094000Y1185000D03*
D49*
X1350000Y1149000D03*
X1350000Y1121000D03*
D50*
X1228399Y1576801D02*
X1210201Y1576801D01*
X1210201Y1581299D01*
X1228399Y1581299D01*
X1228399Y1576801D01*
X1228399Y1580158D02*
X1210201Y1580158D01*
X1210201Y1564101D02*
X1228399Y1564101D01*
X1210201Y1564101D02*
X1210201Y1568599D01*
X1228399Y1568599D01*
X1228399Y1564101D01*
X1228399Y1567458D02*
X1210201Y1567458D01*
X1210201Y1551401D02*
X1228399Y1551401D01*
X1210201Y1551401D02*
X1210201Y1555899D01*
X1228399Y1555899D01*
X1228399Y1551401D01*
X1228399Y1554758D02*
X1210201Y1554758D01*
X1210201Y1538701D02*
X1228399Y1538701D01*
X1210201Y1538701D02*
X1210201Y1543199D01*
X1228399Y1543199D01*
X1228399Y1538701D01*
X1228399Y1542058D02*
X1210201Y1542058D01*
X1259601Y1538701D02*
X1277799Y1538701D01*
X1259601Y1538701D02*
X1259601Y1543199D01*
X1277799Y1543199D01*
X1277799Y1538701D01*
X1277799Y1542058D02*
X1259601Y1542058D01*
X1259601Y1551401D02*
X1277799Y1551401D01*
X1259601Y1551401D02*
X1259601Y1555899D01*
X1277799Y1555899D01*
X1277799Y1551401D01*
X1277799Y1554758D02*
X1259601Y1554758D01*
X1259601Y1564101D02*
X1277799Y1564101D01*
X1259601Y1564101D02*
X1259601Y1568599D01*
X1277799Y1568599D01*
X1277799Y1564101D01*
X1277799Y1567458D02*
X1259601Y1567458D01*
X1259601Y1576801D02*
X1277799Y1576801D01*
X1259601Y1576801D02*
X1259601Y1581299D01*
X1277799Y1581299D01*
X1277799Y1576801D01*
X1277799Y1580158D02*
X1259601Y1580158D01*
D26*
X1244000Y1496500D03*
X1244000Y1513500D03*
D31*
X1269000Y1496500D03*
X1269000Y1513500D03*
D51*
X1177000Y1563000D03*
X1159000Y1545000D03*
D52*
X1141000Y1563000D03*
D53*
X1329000Y1517000D03*
X1329000Y1574000D03*
D31*
X1219000Y1496500D03*
X1219000Y1513500D03*
D54*
X1064500Y1457700D03*
X1084000Y1445000D03*
X1064500Y1432300D03*
D55*
X1224000Y1470000D03*
D56*
X1194000Y1470000D03*
X1194000Y1440000D03*
D55*
X1224000Y1440000D03*
X1224000Y1410000D03*
D56*
X1194000Y1410000D03*
X1194000Y1380000D03*
D55*
X1224000Y1380000D03*
D49*
X1154000Y1474000D03*
X1154000Y1446000D03*
X1264000Y1441000D03*
X1264000Y1469000D03*
D54*
X1264000Y1390000D03*
X1264000Y1410000D03*
D57*
X1026350Y1550000D03*
X993650Y1550000D03*
X993650Y1520000D03*
X1026350Y1520000D03*
X1026350Y1490000D03*
X993650Y1490000D03*
X993650Y1460000D03*
X1026350Y1460000D03*
X1026350Y1430000D03*
X993650Y1430000D03*
D26*
X951500Y1430000D03*
X968500Y1430000D03*
X951500Y1452000D03*
X968500Y1452000D03*
X951500Y1474000D03*
X968500Y1474000D03*
X951500Y1496000D03*
X968500Y1496000D03*
X951500Y1518000D03*
X968500Y1518000D03*
X951500Y1540000D03*
X968500Y1540000D03*
D39*
X872500Y1715000D03*
X907500Y1715000D03*
D26*
X951500Y1562000D03*
X968500Y1562000D03*
D54*
X1064500Y1547700D03*
X1084000Y1535000D03*
X1064500Y1522300D03*
D31*
X1059000Y1481500D03*
X1059000Y1498500D03*
D26*
X1084000Y1481500D03*
X1084000Y1498500D03*
D58*
X968500Y1170000D03*
X968500Y1180000D03*
X968500Y1190000D03*
X968500Y1200000D03*
X968500Y1210000D03*
X968500Y1220000D03*
X968500Y1230000D03*
X968500Y1240000D03*
X968500Y1250000D03*
X968500Y1260000D03*
X968500Y1270000D03*
X968500Y1280000D03*
X968500Y1290000D03*
X968500Y1300000D03*
X968500Y1310000D03*
D59*
X992000Y1328000D03*
X992000Y1152000D03*
D60*
X1097000Y1672000D03*
X1097000Y1622000D03*
D26*
X1061500Y1268000D03*
X1078500Y1268000D03*
X1061500Y1240000D03*
X1078500Y1240000D03*
X1061500Y1212000D03*
X1078500Y1212000D03*
X1101500Y1268000D03*
X1118500Y1268000D03*
X1101500Y1240000D03*
X1118500Y1240000D03*
X1101500Y1212000D03*
X1118500Y1212000D03*
X1141500Y1212000D03*
X1158500Y1212000D03*
X1141500Y1240000D03*
X1158500Y1240000D03*
X1141500Y1268000D03*
X1158500Y1268000D03*
D48*
X1115000Y1335000D03*
X1135000Y1344500D03*
X1135000Y1325500D03*
D31*
X1153000Y1326500D03*
X1153000Y1343500D03*
X1180000Y1343500D03*
X1180000Y1326500D03*
D47*
X1066000Y1335000D03*
X1094000Y1335000D03*
D22*
X1132300Y1037000D03*
D23*
X1157700Y1037000D03*
D22*
X1232300Y1037000D03*
D23*
X1257700Y1037000D03*
D22*
X1032300Y1037000D03*
D23*
X1057700Y1037000D03*
D22*
X1502300Y1913000D03*
D23*
X1527700Y1913000D03*
D22*
X1402300Y1913000D03*
D23*
X1427700Y1913000D03*
D48*
X1115000Y1075000D03*
X1135000Y1084500D03*
X1135000Y1065500D03*
D31*
X1153000Y1066500D03*
X1153000Y1083500D03*
X1175000Y1083500D03*
X1175000Y1066500D03*
D48*
X1115000Y1110000D03*
X1135000Y1119500D03*
X1135000Y1100500D03*
D31*
X1153000Y1101500D03*
X1153000Y1118500D03*
X1175000Y1118500D03*
X1175000Y1101500D03*
D34*
X1450000Y1510000D03*
X1459500Y1490000D03*
X1440500Y1490000D03*
D26*
X1441500Y1472000D03*
X1458500Y1472000D03*
X1458500Y1450000D03*
X1441500Y1450000D03*
X1423500Y1472000D03*
X1406500Y1472000D03*
X1406500Y1450000D03*
X1423500Y1450000D03*
D22*
X1206900Y1826000D03*
D39*
X1206900Y1851400D03*
X1232300Y1826000D03*
X1232300Y1851400D03*
X1257700Y1826000D03*
X1257700Y1851400D03*
X1283100Y1826000D03*
X1283100Y1851400D03*
X1308500Y1826000D03*
X1308500Y1851400D03*
D61*
X1365000Y1081500D03*
X1375000Y1081500D03*
X1385000Y1081500D03*
X1395000Y1081500D03*
X1405000Y1081500D03*
X1415000Y1081500D03*
X1425000Y1081500D03*
X1435000Y1081500D03*
X1445000Y1081500D03*
X1455000Y1081500D03*
X1465000Y1081500D03*
X1475000Y1081500D03*
X1485000Y1081500D03*
X1495000Y1081500D03*
X1505000Y1081500D03*
D62*
X1523000Y1058000D03*
X1347000Y1058000D03*
D63*
X1016500Y1095000D03*
X1073500Y1095000D03*
X1267500Y1097000D03*
X1210500Y1097000D03*
D64*
X1535500Y1372000D03*
X1545000Y1372000D03*
X1554500Y1372000D03*
X1554500Y1398000D03*
X1535500Y1398000D03*
D65*
X1522486Y1361486D02*
X1522486Y1340514D01*
X1519514Y1340514D01*
X1519514Y1361486D01*
X1522486Y1361486D01*
X1522486Y1345321D02*
X1519514Y1345321D01*
X1519514Y1350128D02*
X1522486Y1350128D01*
X1522486Y1354935D02*
X1519514Y1354935D01*
X1519514Y1359742D02*
X1522486Y1359742D01*
X1522486Y1329486D02*
X1522486Y1308514D01*
X1519514Y1308514D01*
X1519514Y1329486D01*
X1522486Y1329486D01*
X1522486Y1313321D02*
X1519514Y1313321D01*
X1519514Y1318128D02*
X1522486Y1318128D01*
X1522486Y1322935D02*
X1519514Y1322935D01*
X1519514Y1327742D02*
X1522486Y1327742D01*
X1570486Y1340514D02*
X1570486Y1361486D01*
X1570486Y1340514D02*
X1567514Y1340514D01*
X1567514Y1361486D01*
X1570486Y1361486D01*
X1570486Y1345321D02*
X1567514Y1345321D01*
X1567514Y1350128D02*
X1570486Y1350128D01*
X1570486Y1354935D02*
X1567514Y1354935D01*
X1567514Y1359742D02*
X1570486Y1359742D01*
X1570486Y1329486D02*
X1570486Y1308514D01*
X1567514Y1308514D01*
X1567514Y1329486D01*
X1570486Y1329486D01*
X1570486Y1313321D02*
X1567514Y1313321D01*
X1567514Y1318128D02*
X1570486Y1318128D01*
X1570486Y1322935D02*
X1567514Y1322935D01*
X1567514Y1327742D02*
X1570486Y1327742D01*
D26*
X1556500Y1447000D03*
X1573500Y1447000D03*
X1556500Y1473000D03*
X1573500Y1473000D03*
D16*
X134226Y733348D03*
X84728Y782846D03*
X176652Y775774D03*
X127154Y825272D03*
D17*
G36*
X192230Y775775D02*
X134225Y717770D01*
X69150Y782845D01*
X127155Y840850D01*
X192230Y775775D01*
G37*
D18*
X130690Y779310D03*
D19*
X176652Y224226D03*
X127154Y174728D03*
X134226Y266652D03*
X84728Y217154D03*
D17*
G36*
X134225Y282230D02*
X192230Y224225D01*
X127155Y159150D01*
X69150Y217155D01*
X134225Y282230D01*
G37*
D18*
X130690Y220690D03*
D19*
X261512Y309086D03*
X212014Y259588D03*
X219086Y351512D03*
X169588Y302014D03*
D17*
G36*
X219085Y367090D02*
X277090Y309085D01*
X212015Y244010D01*
X154010Y302015D01*
X219085Y367090D01*
G37*
D18*
X215550Y305550D03*
D16*
X219086Y648488D03*
X169588Y697986D03*
X261512Y690914D03*
X212014Y740412D03*
D17*
G36*
X277090Y690915D02*
X219085Y632910D01*
X154010Y697985D01*
X212015Y755990D01*
X277090Y690915D01*
G37*
D18*
X215550Y694450D03*
D20*
X685774Y266652D03*
X735272Y217154D03*
X643348Y224226D03*
X692846Y174728D03*
D17*
G36*
X627770Y224225D02*
X685775Y282230D01*
X750850Y217155D01*
X692845Y159150D01*
X627770Y224225D01*
G37*
D18*
X689310Y220690D03*
D20*
X600914Y351512D03*
X650412Y302014D03*
X558488Y309086D03*
X607986Y259588D03*
D17*
G36*
X542910Y309085D02*
X600915Y367090D01*
X665990Y302015D01*
X607985Y244010D01*
X542910Y309085D01*
G37*
D18*
X604450Y305550D03*
D21*
X643348Y775774D03*
X692846Y825272D03*
X685774Y733348D03*
X735272Y782846D03*
D17*
G36*
X685775Y717770D02*
X627770Y775775D01*
X692845Y840850D01*
X750850Y782845D01*
X685775Y717770D01*
G37*
D18*
X689310Y779310D03*
D21*
X558488Y690914D03*
X607986Y740412D03*
X600914Y648488D03*
X650412Y697986D03*
D17*
G36*
X600915Y632910D02*
X542910Y690915D01*
X607985Y755990D01*
X665990Y697985D01*
X600915Y632910D01*
G37*
D18*
X604450Y694450D03*
D30*
X659350Y503000D03*
X659350Y451000D03*
X672050Y503000D03*
X646650Y503000D03*
X633950Y503000D03*
X672050Y451000D03*
X646650Y451000D03*
X633950Y451000D03*
D66*
X653000Y477000D03*
D22*
X295700Y832500D03*
D39*
X295700Y807100D03*
X321100Y832500D03*
X321100Y807100D03*
X346500Y832500D03*
X346500Y807100D03*
X371900Y832500D03*
X371900Y807100D03*
X397300Y832500D03*
X397300Y807100D03*
X422700Y832500D03*
X422700Y807100D03*
X448100Y832500D03*
X448100Y807100D03*
X473500Y832500D03*
X473500Y807100D03*
X498900Y832500D03*
X498900Y807100D03*
X524300Y832500D03*
X524300Y807100D03*
D22*
X295700Y722500D03*
D39*
X295700Y697100D03*
X321100Y722500D03*
X321100Y697100D03*
X346500Y722500D03*
X346500Y697100D03*
X371900Y722500D03*
X371900Y697100D03*
X397300Y722500D03*
X397300Y697100D03*
X422700Y722500D03*
X422700Y697100D03*
X448100Y722500D03*
X448100Y697100D03*
X473500Y722500D03*
X473500Y697100D03*
X498900Y722500D03*
X498900Y697100D03*
X524300Y722500D03*
X524300Y697100D03*
D22*
X295700Y612500D03*
D39*
X295700Y587100D03*
X321100Y612500D03*
X321100Y587100D03*
X346500Y612500D03*
X346500Y587100D03*
X371900Y612500D03*
X371900Y587100D03*
X397300Y612500D03*
X397300Y587100D03*
X422700Y612500D03*
X422700Y587100D03*
X448100Y612500D03*
X448100Y587100D03*
X473500Y612500D03*
X473500Y587100D03*
X498900Y612500D03*
X498900Y587100D03*
X524300Y612500D03*
X524300Y587100D03*
D22*
X295700Y392500D03*
D39*
X295700Y367100D03*
X321100Y392500D03*
X321100Y367100D03*
X346500Y392500D03*
X346500Y367100D03*
X371900Y392500D03*
X371900Y367100D03*
X397300Y392500D03*
X397300Y367100D03*
X422700Y392500D03*
X422700Y367100D03*
X448100Y392500D03*
X448100Y367100D03*
X473500Y392500D03*
X473500Y367100D03*
X498900Y392500D03*
X498900Y367100D03*
X524300Y392500D03*
X524300Y367100D03*
D22*
X295700Y282500D03*
D39*
X295700Y257100D03*
X321100Y282500D03*
X321100Y257100D03*
X346500Y282500D03*
X346500Y257100D03*
X371900Y282500D03*
X371900Y257100D03*
X397300Y282500D03*
X397300Y257100D03*
X422700Y282500D03*
X422700Y257100D03*
X448100Y282500D03*
X448100Y257100D03*
X473500Y282500D03*
X473500Y257100D03*
X498900Y282500D03*
X498900Y257100D03*
X524300Y282500D03*
X524300Y257100D03*
D22*
X295700Y172500D03*
D39*
X295700Y147100D03*
X321100Y172500D03*
X321100Y147100D03*
X346500Y172500D03*
X346500Y147100D03*
X371900Y172500D03*
X371900Y147100D03*
X397300Y172500D03*
X397300Y147100D03*
X422700Y172500D03*
X422700Y147100D03*
X448100Y172500D03*
X448100Y147100D03*
X473500Y172500D03*
X473500Y147100D03*
X498900Y172500D03*
X498900Y147100D03*
X524300Y172500D03*
X524300Y147100D03*
D22*
X168700Y987500D03*
D23*
X194100Y987500D03*
X219500Y987500D03*
X244900Y987500D03*
X270300Y987500D03*
X295700Y987500D03*
X321100Y987500D03*
X346500Y987500D03*
X371900Y987500D03*
X397300Y987500D03*
X422700Y987500D03*
X448100Y987500D03*
X473500Y987500D03*
X498900Y987500D03*
X524300Y987500D03*
X549700Y987500D03*
X575100Y987500D03*
X600500Y987500D03*
X625900Y987500D03*
X651300Y987500D03*
D26*
X677500Y553000D03*
X660500Y553000D03*
X677500Y577000D03*
X660500Y577000D03*
D67*
X706250Y612000D03*
X725750Y612000D03*
X725750Y672000D03*
X706250Y672000D03*
D68*
X716000Y672000D03*
X716000Y612000D03*
D29*
X716000Y642000D03*
D30*
X666650Y603000D03*
X666650Y655000D03*
X653950Y603000D03*
X679350Y603000D03*
X692050Y603000D03*
X653950Y655000D03*
X679350Y655000D03*
X692050Y655000D03*
D26*
X739500Y603000D03*
X756500Y603000D03*
X739500Y681000D03*
X756500Y681000D03*
X756500Y659000D03*
X739500Y659000D03*
X739500Y625000D03*
X756500Y625000D03*
X187500Y819000D03*
X204500Y819000D03*
D32*
G36*
X224505Y773768D02*
X219732Y778541D01*
X227509Y786318D01*
X232282Y781545D01*
X224505Y773768D01*
G37*
G36*
X253495Y770232D02*
X258268Y765459D01*
X250491Y757682D01*
X245718Y762455D01*
X253495Y770232D01*
G37*
D33*
X239000Y772000D03*
D34*
X64000Y691000D03*
X73500Y671000D03*
X54500Y671000D03*
D35*
X105000Y633000D03*
X145000Y633000D03*
D26*
X115500Y679000D03*
X132500Y679000D03*
D36*
X95000Y685500D03*
X95000Y670500D03*
D26*
X55500Y650000D03*
X72500Y650000D03*
D48*
X158000Y341000D03*
X138000Y331500D03*
X138000Y350500D03*
D31*
X117000Y384500D03*
X117000Y367500D03*
D36*
X95000Y368500D03*
X95000Y383500D03*
D31*
X117000Y349500D03*
X117000Y332500D03*
D39*
X377500Y467500D03*
X377500Y532500D03*
X442500Y467500D03*
X442500Y532500D03*
D40*
X410000Y500000D03*
D18*
X410000Y500000D03*
D37*
X539139Y670861D02*
X532777Y677223D01*
X580861Y629139D02*
X587223Y622777D01*
D38*
X560000Y650000D03*
D37*
X280861Y329139D02*
X287223Y322777D01*
X239139Y370861D02*
X232777Y377223D01*
D38*
X260000Y350000D03*
D37*
X232777Y622777D02*
X239139Y629139D01*
X280861Y670861D02*
X287223Y677223D01*
D38*
X260000Y650000D03*
D37*
X580861Y370861D02*
X587223Y377223D01*
X539139Y329139D02*
X532777Y322777D01*
D38*
X560000Y350000D03*
D22*
X321100Y12500D03*
D23*
X346500Y12500D03*
X371900Y12500D03*
X397300Y12500D03*
X422700Y12500D03*
X448100Y12500D03*
X473500Y12500D03*
X498900Y12500D03*
D34*
X428000Y852000D03*
X418500Y872000D03*
X437500Y872000D03*
D26*
X470500Y871000D03*
X453500Y871000D03*
D34*
X428000Y742000D03*
X418500Y762000D03*
X437500Y762000D03*
D26*
X453500Y761000D03*
X470500Y761000D03*
D34*
X428000Y632000D03*
X418500Y652000D03*
X437500Y652000D03*
D26*
X470500Y651000D03*
X453500Y651000D03*
D34*
X448000Y412000D03*
X438500Y432000D03*
X457500Y432000D03*
D26*
X495500Y425000D03*
X478500Y425000D03*
D34*
X428000Y302000D03*
X418500Y322000D03*
X437500Y322000D03*
D26*
X453500Y321000D03*
X470500Y321000D03*
D34*
X428000Y192000D03*
X418500Y212000D03*
X437500Y212000D03*
D26*
X470500Y211000D03*
X453500Y211000D03*
X470500Y782000D03*
X453500Y782000D03*
D36*
X420500Y782000D03*
X435500Y782000D03*
D26*
X470500Y892000D03*
X453500Y892000D03*
D36*
X420500Y892000D03*
X435500Y892000D03*
D26*
X470500Y672000D03*
X453500Y672000D03*
D36*
X420500Y672000D03*
X435500Y672000D03*
D26*
X495500Y446000D03*
X478500Y446000D03*
D36*
X521000Y443500D03*
X521000Y428500D03*
D26*
X470500Y342000D03*
X453500Y342000D03*
D36*
X420500Y342000D03*
X435500Y342000D03*
D26*
X470500Y232000D03*
X453500Y232000D03*
D36*
X420500Y232000D03*
X435500Y232000D03*
D41*
X199000Y187000D03*
X255000Y187000D03*
D31*
X257000Y158500D03*
X257000Y141500D03*
X197000Y158500D03*
X197000Y141500D03*
X235500Y155000D03*
X218500Y155000D03*
D42*
X235750Y131000D03*
X229250Y131000D03*
X222750Y131000D03*
X216250Y131000D03*
X216250Y105000D03*
X222750Y105000D03*
X229250Y105000D03*
X235750Y105000D03*
D26*
X642500Y553000D03*
X625500Y553000D03*
X642500Y577000D03*
X625500Y577000D03*
X563500Y211000D03*
X580500Y211000D03*
X548500Y771000D03*
X565500Y771000D03*
X548500Y813000D03*
X565500Y813000D03*
X548500Y792000D03*
X565500Y792000D03*
X563500Y232000D03*
X580500Y232000D03*
X563500Y190000D03*
X580500Y190000D03*
X72500Y628000D03*
X55500Y628000D03*
D31*
X95000Y349500D03*
X95000Y332500D03*
D69*
X1550968Y477000D03*
X1581000Y477000D03*
D70*
X1120000Y261000D03*
X1057000Y612000D03*
X1114000Y788000D03*
X1208500Y953000D03*
X1030500Y640500D03*
X937500Y662500D03*
D71*
X1132500Y772500D03*
X1194000Y952500D03*
X1072000Y782500D03*
X1153500Y707000D03*
D72*
X1231000Y574000D03*
D73*
X1133537Y918563D03*
D74*
X1374000Y831000D03*
D71*
X1499500Y492500D03*
X1250000Y942500D03*
X896000Y591000D03*
D54*
X1442000Y398000D03*
X1456000Y515000D03*
X1193000Y417000D03*
X1171000Y558000D03*
X1363000Y654000D03*
X921000Y69000D03*
X921000Y11000D03*
X979000Y11000D03*
X979000Y69000D03*
X1521000Y69000D03*
X1521000Y11000D03*
X1579000Y11000D03*
X1579000Y69000D03*
X921000Y989000D03*
X921000Y931000D03*
X979000Y931000D03*
X979000Y989000D03*
X1521000Y989000D03*
X1521000Y931000D03*
X1579000Y931000D03*
X1579000Y989000D03*
D71*
X1412629Y920629D03*
X1421000Y911000D03*
D73*
X1216000Y925000D03*
D69*
X1036000Y210000D03*
D75*
X1386700Y871000D03*
X1444000Y871000D03*
X1227402Y959402D03*
X1352667Y870667D03*
D71*
X2155800Y943800D03*
X1890600Y605800D03*
D75*
X1966000Y776000D03*
X2033098Y818098D03*
X1972973Y245029D03*
D71*
X2077200Y740400D03*
X1928000Y412000D03*
X1942000Y427000D03*
X2018000Y746200D03*
D76*
X1980000Y908000D03*
X2014300Y909968D03*
X2171000Y788000D03*
X1987000Y309000D03*
X2055000Y673000D03*
D71*
X2281650Y472800D03*
X1959450Y942000D03*
X2073000Y936000D03*
X2122000Y822000D03*
X1742400Y624000D03*
D76*
X2037000Y429000D03*
X2155000Y573000D03*
X2160000Y541800D03*
X2039000Y582000D03*
D71*
X2261000Y911000D03*
X2269000Y919000D03*
X2272000Y874000D03*
X2207000Y877000D03*
X2161902Y877000D03*
D76*
X1867000Y195000D03*
X2090000Y569000D03*
D75*
X1936000Y970000D03*
X2009800Y658000D03*
X2049000Y616000D03*
D71*
X2188000Y423000D03*
X2194000Y404000D03*
X2035200Y731800D03*
X2091200Y739400D03*
D54*
X1761000Y69000D03*
X1761000Y11000D03*
X1819000Y11000D03*
X1819000Y69000D03*
X2361000Y69000D03*
X2361000Y11000D03*
X2419000Y11000D03*
X2419000Y69000D03*
X1761000Y989000D03*
X1761000Y931000D03*
X1819000Y931000D03*
X1819000Y989000D03*
X2361000Y989000D03*
X2361000Y931000D03*
X2419000Y931000D03*
X2419000Y989000D03*
D69*
X710968Y1497000D03*
X741000Y1497000D03*
D70*
X280000Y1281000D03*
X215000Y1629000D03*
X274000Y1808000D03*
X368500Y1973000D03*
X190500Y1660500D03*
X97500Y1682500D03*
D71*
X292500Y1792500D03*
X354000Y1972500D03*
X232000Y1802500D03*
X313500Y1727000D03*
D72*
X391000Y1594000D03*
D73*
X293537Y1938563D03*
D74*
X534000Y1851000D03*
D71*
X663500Y1512500D03*
X410000Y1962500D03*
X55000Y1610000D03*
D54*
X602000Y1418000D03*
X616000Y1535000D03*
X353000Y1437000D03*
X331000Y1578000D03*
X523000Y1674000D03*
X81000Y1089000D03*
X81000Y1031000D03*
X139000Y1031000D03*
X139000Y1089000D03*
X681000Y1089000D03*
X681000Y1031000D03*
X739000Y1031000D03*
X739000Y1089000D03*
X81000Y2009000D03*
X81000Y1951000D03*
X139000Y1951000D03*
X139000Y2009000D03*
X681000Y2009000D03*
X681000Y1951000D03*
X739000Y1951000D03*
X739000Y2009000D03*
D71*
X572629Y1940629D03*
X581000Y1931000D03*
D73*
X376000Y1945000D03*
D69*
X196000Y1230000D03*
D75*
X546700Y1891000D03*
X604000Y1891000D03*
X387402Y1979402D03*
X512667Y1890667D03*
D71*
X570000Y1929000D03*
D73*
X1493000Y1274000D03*
D71*
X1476218Y1332567D03*
D73*
X1402674Y1238674D03*
X1330000Y1135000D03*
X1124000Y1303000D03*
X1217000Y1217000D03*
X1123000Y1195000D03*
X1123000Y1154000D03*
X1124318Y1325532D03*
X1405123Y1100123D03*
X1426069Y1166069D03*
X1378500Y1404000D03*
X1365000Y1505000D03*
X1420000Y1485000D03*
X1437000Y1395000D03*
X1503000Y1475000D03*
X1090000Y1400000D03*
X1100000Y1470000D03*
X1219680Y1711167D03*
D71*
X1415880Y1350120D03*
X1405218Y1284692D03*
X1355205Y1276432D03*
X1425000Y1048000D03*
X1434814Y1069000D03*
X1465000Y1069000D03*
X1478000Y1210000D03*
D73*
X1330000Y1169000D03*
X1378000Y1168000D03*
D71*
X1170000Y1268000D03*
X1170000Y1240000D03*
X1170000Y1212000D03*
X1188000Y1208000D03*
X1495000Y1307718D03*
X1495218Y1244000D03*
X1399000Y1485000D03*
X1415000Y1461000D03*
X1223000Y1311000D03*
X1259000Y1347000D03*
X1319000Y1369000D03*
X1190000Y1145000D03*
X1190000Y1175282D03*
X1216210Y1203790D03*
X1165718Y1303718D03*
X1164823Y1335000D03*
X1492000Y1457000D03*
X1477282Y1605000D03*
X1399000Y1605000D03*
X1346432Y1220000D03*
X1361000Y1220000D03*
X1285000Y1341394D03*
X1408506Y1330494D03*
X1277734Y1319266D03*
X1416286Y1340000D03*
X1295815Y1308185D03*
X1440000Y1355000D03*
X1285000Y1326548D03*
X1397000Y1349000D03*
X1293793Y1333830D03*
X1386851Y1347149D03*
X1370000Y1276432D03*
X1325992Y1247517D03*
X1402000Y1270000D03*
X1326000Y1237000D03*
X1072000Y1498500D03*
X1380000Y1235000D03*
X1354000Y1348568D03*
X1355000Y1380000D03*
X1294000Y1348676D03*
X1372000Y1349676D03*
X1315000Y1258000D03*
X1342734Y1294564D03*
X1326000Y1258000D03*
X1342000Y1284000D03*
X1395000Y1380000D03*
X1419568Y1320000D03*
D75*
X1251047Y1572350D03*
X1286000Y1560000D03*
D73*
X1123000Y1430000D03*
X1330000Y1475000D03*
X1330000Y1490000D03*
X1255000Y1740000D03*
X1150000Y1735000D03*
X920000Y1390000D03*
X950000Y1390000D03*
X920000Y1375000D03*
X950000Y1375000D03*
X935000Y1635000D03*
X1115000Y1590000D03*
X1301468Y1805000D03*
X1405000Y1067000D03*
D71*
X1015000Y1430000D03*
X950000Y1415000D03*
X1289000Y1232000D03*
X1425000Y1380000D03*
X1359000Y1291000D03*
X1369000Y1287000D03*
X1476218Y1345000D03*
X1521000Y1375000D03*
D73*
X408000Y762000D03*
X408000Y652000D03*
X408000Y852000D03*
X428000Y432000D03*
X408000Y322000D03*
X408000Y212000D03*
D71*
X419000Y118000D03*
X434000Y118000D03*
X533500Y480000D03*
X555250Y480000D03*
D73*
X284200Y861500D03*
D71*
X534000Y490500D03*
X555250Y490960D03*
X524150Y545250D03*
D74*
X567000Y560000D03*
D71*
X738000Y642000D03*
X644000Y628000D03*
D73*
X525000Y350000D03*
X533500Y560500D03*
X260000Y400000D03*
X284700Y565000D03*
X325000Y950000D03*
X390000Y934000D03*
X100000Y400000D03*
X237000Y187000D03*
D71*
X490000Y535250D03*
D73*
X522020Y854792D03*
D71*
X482355Y557355D03*
X238016Y92984D03*
X395000Y122230D03*
D73*
X297100Y415000D03*
X282000Y415000D03*
D71*
X595000Y190000D03*
X595000Y211000D03*
X595000Y232000D03*
X578000Y771000D03*
X578000Y792000D03*
X578000Y813000D03*
X437163Y569837D03*
D73*
X256200Y861500D03*
X80000Y330000D03*
D71*
X555000Y953250D03*
X514270Y953250D03*
X360000Y976250D03*
X613000Y577000D03*
X44650Y671000D03*
X719030Y691030D03*
X654000Y675000D03*
X710530Y699530D03*
X679000Y678780D03*
D54*
X81000Y69000D03*
X81000Y11000D03*
X139000Y11000D03*
X139000Y69000D03*
X681000Y69000D03*
X681000Y11000D03*
X739000Y11000D03*
X739000Y69000D03*
X81000Y989000D03*
X81000Y931000D03*
X139000Y931000D03*
X139000Y989000D03*
X681000Y989000D03*
X681000Y931000D03*
X739000Y931000D03*
X739000Y989000D03*
D73*
X382000Y952500D03*
X395500Y918000D03*
X455500Y952500D03*
X445000Y855000D03*
D71*
X475000Y565000D03*
M02*
