G04 EAGLE Gerber RS-274X export*
G75*
%MOMM*%
%FSLAX34Y34*%
%LPD*%
%INSolderpaste Bottom*%
%IPPOS*%
%AMOC8*
5,1,8,0,0,1.08239X$1,22.5*%
G01*
%ADD10C,2.000000*%
%ADD11C,1.400000*%
%ADD12R,1.400000X1.400000*%
%ADD13C,2.500000*%
%ADD14C,2.000000*%
%ADD15R,1.000000X1.100000*%
%ADD16R,0.800000X0.800000*%
%ADD17R,2.700000X1.600000*%


D10*
X1116000Y1649000D03*
D11*
X1081000Y1649000D03*
X1151000Y1649000D03*
D12*
X769000Y680000D03*
X731000Y680000D03*
D13*
X910000Y112500D02*
X910000Y92500D01*
X877500Y167500D02*
X877500Y187500D01*
X1110000Y112500D02*
X1110000Y92500D01*
X1077500Y167500D02*
X1077500Y187500D01*
X1310000Y112500D02*
X1310000Y92500D01*
X1277500Y167500D02*
X1277500Y187500D01*
X1310000Y297500D02*
X1310000Y317500D01*
X1342500Y242500D02*
X1342500Y222500D01*
X1110000Y297500D02*
X1110000Y317500D01*
X1142500Y242500D02*
X1142500Y222500D01*
X910000Y297500D02*
X910000Y317500D01*
X942500Y242500D02*
X942500Y222500D01*
X910000Y502500D02*
X910000Y522500D01*
X877500Y577500D02*
X877500Y597500D01*
X1110000Y522500D02*
X1110000Y502500D01*
X1077500Y577500D02*
X1077500Y597500D01*
X1310000Y522500D02*
X1310000Y502500D01*
X1277500Y577500D02*
X1277500Y597500D01*
X1310000Y707500D02*
X1310000Y727500D01*
X1342500Y652500D02*
X1342500Y632500D01*
X1110000Y707500D02*
X1110000Y727500D01*
X1142500Y652500D02*
X1142500Y632500D01*
X910000Y707500D02*
X910000Y727500D01*
X942500Y652500D02*
X942500Y632500D01*
D14*
X790000Y717500D02*
X730000Y717500D01*
D13*
X742500Y652500D02*
X742500Y632500D01*
D14*
X1430000Y512500D02*
X1490000Y512500D01*
D13*
X1477500Y577500D02*
X1477500Y597500D01*
D14*
X790000Y307500D02*
X730000Y307500D01*
D13*
X742500Y242500D02*
X742500Y222500D01*
D14*
X1430000Y102500D02*
X1490000Y102500D01*
D13*
X1477500Y167500D02*
X1477500Y187500D01*
D15*
X1058500Y30000D03*
X1041500Y30000D03*
D16*
X1012500Y15000D03*
X1027500Y15000D03*
D12*
X791000Y770000D03*
X829000Y770000D03*
X991000Y770000D03*
X1029000Y770000D03*
X1191000Y770000D03*
X1229000Y770000D03*
X1391000Y770000D03*
X1429000Y770000D03*
X1479000Y460000D03*
X1441000Y460000D03*
X1379000Y460000D03*
X1341000Y460000D03*
X879000Y460000D03*
X841000Y460000D03*
X779000Y460000D03*
X741000Y460000D03*
X741000Y360000D03*
X779000Y360000D03*
X841000Y360000D03*
X879000Y360000D03*
X1341000Y360000D03*
X1379000Y360000D03*
X1441000Y360000D03*
X1479000Y360000D03*
X1429000Y50000D03*
X1391000Y50000D03*
X1229000Y50000D03*
X1191000Y50000D03*
X1009000Y50000D03*
X971000Y50000D03*
X829000Y50000D03*
X791000Y50000D03*
D10*
X1110000Y680000D03*
D11*
X1075000Y680000D03*
X1145000Y680000D03*
D17*
X1087500Y59000D03*
X1087500Y31000D03*
M02*
