G04 EAGLE Gerber RS-274X export*
G75*
%MOMM*%
%FSLAX34Y34*%
%LPD*%
%INSoldermask Bottom*%
%IPPOS*%
%AMOC8*
5,1,8,0,0,1.08239X$1,22.5*%
G01*
%ADD10C,1.053200*%
%ADD11R,1.727200X1.727200*%
%ADD12P,1.869504X8X292.500000*%
%ADD13P,1.869504X8X112.500000*%
%ADD14P,2.309387X8X112.500000*%
%ADD15C,2.203200*%
%ADD16C,2.203200*%
%ADD17C,2.133600*%
%ADD18P,1.410571X8X202.500000*%
%ADD19R,5.203200X5.203200*%
%ADD20R,1.503200X1.503200*%
%ADD21C,1.503200*%
%ADD22P,1.869504X8X202.500000*%
%ADD23R,2.203200X2.203200*%
%ADD24R,2.453200X2.453200*%
%ADD25C,1.203200*%
%ADD26C,1.403200*%
%ADD27C,1.303200*%


D10*
X191900Y720600D03*
X191900Y730600D03*
X191900Y740600D03*
X191900Y750600D03*
X191900Y760600D03*
X201900Y760600D03*
X201900Y750600D03*
X201900Y740600D03*
X201900Y730600D03*
X201900Y720600D03*
X211900Y720600D03*
X211900Y730600D03*
X211900Y740600D03*
X211900Y750600D03*
X211900Y760600D03*
X401000Y711000D03*
X410000Y711000D03*
X419000Y711000D03*
X401000Y702000D03*
X410000Y702000D03*
X419000Y702000D03*
X401000Y693000D03*
X410000Y693000D03*
X419000Y693000D03*
X720000Y590000D03*
X710000Y590000D03*
X700000Y590000D03*
X690000Y590000D03*
X680000Y590000D03*
X680000Y600000D03*
X690000Y600000D03*
X700000Y600000D03*
X710000Y600000D03*
X720000Y600000D03*
X720000Y610000D03*
X710000Y610000D03*
X700000Y610000D03*
X690000Y610000D03*
X680000Y610000D03*
D11*
X882700Y640000D03*
D12*
X857300Y640000D03*
D11*
X882700Y600000D03*
D12*
X857300Y600000D03*
D11*
X882700Y560000D03*
D12*
X857300Y560000D03*
D11*
X527300Y569000D03*
D13*
X552700Y569000D03*
X578100Y569000D03*
D11*
X675400Y710000D03*
D12*
X650000Y710000D03*
X624600Y710000D03*
D11*
X804600Y680000D03*
D13*
X830000Y680000D03*
X855400Y680000D03*
D11*
X575400Y750000D03*
D12*
X550000Y750000D03*
X524600Y750000D03*
D11*
X577800Y659300D03*
D12*
X552400Y659300D03*
X527000Y659300D03*
D11*
X674500Y755100D03*
D13*
X699900Y755100D03*
X725300Y755100D03*
D11*
X825400Y780000D03*
D12*
X800000Y780000D03*
X774600Y780000D03*
D11*
X764600Y720000D03*
D13*
X790000Y720000D03*
X815400Y720000D03*
D11*
X855200Y719200D03*
X524600Y700000D03*
D14*
X139400Y385400D03*
X79400Y385400D03*
D15*
X104400Y385400D02*
X114400Y385400D01*
X115000Y335700D02*
X105000Y335700D01*
X105400Y284500D02*
X115400Y284500D01*
D14*
X382400Y385300D03*
X297000Y385300D03*
D15*
X334700Y385300D02*
X344700Y385300D01*
X344700Y335200D02*
X334700Y335200D01*
X335000Y284500D02*
X345000Y284500D01*
D14*
X587700Y384500D03*
X532300Y384500D03*
D16*
X560000Y384500D03*
X560000Y335000D03*
X560000Y284500D03*
D17*
X812748Y385000D02*
X832052Y385000D01*
X746652Y385000D02*
X727348Y385000D01*
D16*
X779700Y385000D03*
X780000Y335500D03*
X780600Y284500D03*
D11*
X419700Y385300D03*
X259700Y335200D03*
X250000Y284500D03*
X259700Y385300D03*
X419700Y335200D03*
X430000Y284500D03*
X625400Y384500D03*
X490500Y335000D03*
X490200Y284500D03*
X495400Y384500D03*
X630500Y335000D03*
X630200Y284500D03*
X859700Y385000D03*
X700000Y335500D03*
X690600Y284500D03*
X699700Y385000D03*
X860000Y335500D03*
X870600Y284500D03*
X179400Y385400D03*
X40000Y335700D03*
X30400Y284500D03*
X39400Y385400D03*
X180000Y335700D03*
X190400Y284500D03*
D10*
X214550Y1028250D03*
X199550Y1028250D03*
X184550Y1028250D03*
X169550Y1028250D03*
X154550Y1028250D03*
X154550Y1042250D03*
X169550Y1042250D03*
X184550Y1042250D03*
X199550Y1042250D03*
X214550Y1042250D03*
X680550Y1006750D03*
X695550Y1006750D03*
X710550Y1006750D03*
X725550Y1006750D03*
X740550Y1006750D03*
X740550Y992750D03*
X725550Y992750D03*
X710550Y992750D03*
X695550Y992750D03*
X680550Y992750D03*
D18*
X875400Y905000D03*
X850000Y905000D03*
X824600Y905000D03*
D19*
X90000Y120000D03*
X190000Y120000D03*
X295000Y120000D03*
D20*
G36*
X371035Y21966D02*
X360406Y11337D01*
X349777Y21966D01*
X360406Y32595D01*
X371035Y21966D01*
G37*
D21*
X371720Y33280D03*
X383034Y44594D03*
D20*
G36*
X621965Y188034D02*
X632594Y198663D01*
X643223Y188034D01*
X632594Y177405D01*
X621965Y188034D01*
G37*
D21*
X621280Y176720D03*
X609966Y165406D03*
D20*
G36*
X166035Y21966D02*
X155406Y11337D01*
X144777Y21966D01*
X155406Y32595D01*
X166035Y21966D01*
G37*
D21*
X166720Y33280D03*
X178034Y44594D03*
D20*
G36*
X408965Y188034D02*
X419594Y198663D01*
X430223Y188034D01*
X419594Y177405D01*
X408965Y188034D01*
G37*
D21*
X408280Y176720D03*
X396966Y165406D03*
D19*
X485000Y115000D03*
X587500Y120000D03*
X690000Y120000D03*
D11*
X504300Y53100D03*
D22*
X504300Y27700D03*
X478900Y53100D03*
X478900Y27700D03*
X453500Y53100D03*
X453500Y27700D03*
X428100Y53100D03*
X428100Y27700D03*
D10*
X146234Y677766D03*
X137000Y677700D03*
X128000Y677800D03*
X129200Y805100D03*
X138200Y805100D03*
X147200Y804900D03*
X147000Y834518D03*
X147000Y825000D03*
D23*
X164000Y823000D03*
D10*
X147000Y667000D03*
X147000Y658000D03*
X147000Y649306D03*
X236000Y835500D03*
X235000Y648000D03*
D24*
X29772Y792772D03*
X31000Y695000D03*
X463772Y537228D03*
X458772Y782228D03*
D10*
X24300Y564100D03*
X35600Y564300D03*
X24100Y552800D03*
X35400Y552900D03*
X21700Y527200D03*
X30900Y527200D03*
X21600Y517900D03*
X30700Y517800D03*
X21400Y508400D03*
X30800Y508200D03*
X101700Y507200D03*
X111700Y507200D03*
X121700Y507200D03*
X131700Y507200D03*
X141700Y507200D03*
X151700Y507200D03*
X111700Y497200D03*
X121700Y497200D03*
X131700Y497200D03*
X141700Y497200D03*
X151700Y497200D03*
X121700Y487200D03*
X131700Y487200D03*
X141700Y487200D03*
X121700Y477200D03*
X131700Y477200D03*
X141700Y477200D03*
D24*
X113928Y446228D03*
X143828Y446428D03*
D10*
X279000Y740200D03*
X620000Y740000D03*
X531000Y589000D03*
X781000Y670500D03*
D23*
X747100Y781200D03*
X620900Y578000D03*
X789500Y572800D03*
D10*
X38000Y940000D03*
X858000Y1095000D03*
X836500Y978000D03*
X408000Y1026000D03*
X68000Y1053000D03*
X448000Y928000D03*
D24*
X432772Y895772D03*
X632772Y1134772D03*
X463772Y1088772D03*
D10*
X162500Y787600D03*
D23*
X74000Y825000D03*
D10*
X163000Y693000D03*
D23*
X77000Y671000D03*
D10*
X162100Y740400D03*
X244000Y734000D03*
X230866Y795066D03*
X37700Y724600D03*
X157800Y730100D03*
X151100Y742900D03*
X36600Y763400D03*
X244800Y710800D03*
X39000Y646000D03*
X41000Y837000D03*
X220000Y792000D03*
X217000Y819650D03*
X241306Y753824D03*
X160000Y760000D03*
D24*
X28045Y743500D03*
D10*
X243206Y770900D03*
X264000Y769000D03*
D24*
X462772Y450228D03*
D10*
X405000Y660000D03*
X373000Y739000D03*
D24*
X384772Y760228D03*
D10*
X443000Y708000D03*
X421000Y660000D03*
X79500Y546100D03*
X61900Y459700D03*
D24*
X35528Y441828D03*
D10*
X110000Y600000D03*
X214900Y481400D03*
D24*
X229928Y456628D03*
D10*
X701200Y648800D03*
X705794Y545100D03*
X780000Y630000D03*
X694306Y545852D03*
X620000Y630000D03*
X610000Y730000D03*
X560000Y550000D03*
D23*
X609000Y757000D03*
D10*
X676744Y639800D03*
X780400Y649000D03*
X725156Y640400D03*
X836500Y653200D03*
X726268Y667400D03*
X642500Y614600D03*
X610000Y440000D03*
X755000Y616200D03*
X790000Y440000D03*
D23*
X569000Y467000D03*
D10*
X654206Y560000D03*
D23*
X829000Y467000D03*
D10*
X746294Y560000D03*
X670000Y440000D03*
X688000Y556206D03*
X730000Y440000D03*
X712300Y556906D03*
X238976Y691024D03*
X279100Y698400D03*
X241406Y787900D03*
X278900Y781900D03*
X182000Y963000D03*
X196000Y963000D03*
X700000Y928000D03*
X714000Y928000D03*
X743000Y888000D03*
X148000Y923000D03*
X169300Y990000D03*
D25*
X401000Y924000D03*
D24*
X400772Y884772D03*
D10*
X133306Y1009026D03*
X110000Y1015000D03*
X104000Y960000D03*
X130200Y1075094D03*
X114528Y1065128D03*
X184800Y1107300D03*
X195200Y1107100D03*
X700000Y1072000D03*
X711000Y1072000D03*
X728900Y1044800D03*
X151000Y1144000D03*
D24*
X667772Y1146772D03*
D10*
X167874Y1081274D03*
X236000Y1071000D03*
X157458Y987842D03*
X236000Y1007000D03*
X507000Y973000D03*
X386000Y973000D03*
X727394Y952300D03*
X627000Y1007000D03*
X739492Y1046408D03*
X660000Y1037000D03*
X525000Y1001000D03*
X460034Y1034466D03*
X739000Y951400D03*
X765000Y991000D03*
D24*
X494772Y1078772D03*
D10*
X157208Y1083008D03*
X128000Y1057700D03*
X489000Y177000D03*
X313000Y35859D03*
X430000Y85000D03*
X420000Y155000D03*
X490000Y165000D03*
X305000Y45000D03*
X416000Y85000D03*
D21*
X35000Y110000D03*
X503000Y115000D03*
X418911Y122911D03*
D26*
X203818Y137000D03*
D10*
X200000Y160000D03*
X242518Y159000D03*
X124000Y56000D03*
X194000Y25000D03*
X228000Y90000D03*
X240000Y91000D03*
X200000Y42000D03*
X589230Y41230D03*
X553000Y48982D03*
X664000Y152000D03*
X647000Y160000D03*
X588000Y160482D03*
X555518Y120518D03*
X542000Y119000D03*
X578000Y167000D03*
D21*
X643000Y59200D03*
D27*
X180000Y87000D03*
X630000Y129000D03*
D10*
X253000Y90000D03*
D21*
X276018Y125000D03*
D26*
X711000Y120000D03*
D10*
X305000Y70000D03*
X20000Y70000D03*
X765000Y140000D03*
X690000Y50000D03*
X642000Y24602D03*
X193236Y59105D03*
X145000Y65000D03*
X648000Y140000D03*
X588000Y173518D03*
X205000Y180000D03*
X150000Y185000D03*
X100000Y185000D03*
X18318Y145000D03*
X35000Y55000D03*
X225000Y63000D03*
X753000Y159000D03*
X552000Y150000D03*
X475000Y185000D03*
X521674Y92674D03*
M02*
