G04 EAGLE Gerber RS-274X export*
G75*
%MOMM*%
%FSLAX34Y34*%
%LPD*%
%INSolderpaste Top*%
%IPPOS*%
%AMOC8*
5,1,8,0,0,1.08239X$1,22.5*%
G01*
%ADD10R,0.600000X0.600000*%
%ADD11R,1.000000X1.100000*%
%ADD12R,1.100000X1.000000*%
%ADD13R,0.730000X0.560000*%
%ADD14R,1.800000X3.200000*%
%ADD15R,0.800000X0.400000*%
%ADD16R,0.800000X1.050000*%
%ADD17R,2.200000X0.600000*%
%ADD18R,1.600000X1.800000*%
%ADD19R,2.700000X1.600000*%
%ADD20R,1.050000X0.400000*%
%ADD21R,2.740000X4.750000*%
%ADD22R,3.400000X1.000000*%
%ADD23R,2.300000X1.650000*%
%ADD24R,0.800000X0.800000*%
%ADD25R,0.610000X1.600000*%
%ADD26R,3.210000X2.620000*%
%ADD27R,5.600000X3.100000*%
%ADD28R,1.800000X1.600000*%
%ADD29R,0.400000X1.200000*%
%ADD30R,2.800000X1.400000*%
%ADD31R,0.400000X1.050000*%
%ADD32R,4.750000X2.740000*%
%ADD33R,1.650000X2.300000*%
%ADD34R,1.600000X2.700000*%
%ADD35C,2.000000*%
%ADD36C,2.000000*%
%ADD37C,0.009000*%
%ADD38R,0.450000X1.050000*%
%ADD39R,7.560000X3.050000*%
%ADD40R,2.200000X1.500000*%
%ADD41R,3.500000X1.200000*%
%ADD42R,1.270000X0.635000*%
%ADD43R,2.800000X3.800000*%


D10*
X226500Y103000D03*
X236000Y103000D03*
X245500Y103000D03*
X245500Y129000D03*
X236000Y129000D03*
X226500Y129000D03*
X86000Y180500D03*
X86000Y171000D03*
X86000Y161500D03*
X112000Y161500D03*
X112000Y171000D03*
X112000Y180500D03*
X86000Y143500D03*
X86000Y134000D03*
X86000Y124500D03*
X112000Y124500D03*
X112000Y134000D03*
X112000Y143500D03*
D11*
X242500Y77000D03*
X225500Y77000D03*
D12*
X188000Y162500D03*
X188000Y179500D03*
X188000Y125500D03*
X188000Y142500D03*
X165000Y162500D03*
X165000Y179500D03*
X165000Y125500D03*
X165000Y142500D03*
X45000Y162500D03*
X45000Y179500D03*
X45000Y124500D03*
X45000Y141500D03*
D13*
X146000Y171000D03*
X126000Y161500D03*
X126000Y180500D03*
X146000Y134000D03*
X126000Y124500D03*
X126000Y143500D03*
D12*
X242500Y146000D03*
X225500Y146000D03*
X242500Y171000D03*
X225500Y171000D03*
D11*
X68000Y179500D03*
X68000Y162500D03*
X68000Y141500D03*
X68000Y124500D03*
D14*
X110000Y87000D03*
X54000Y87000D03*
D10*
X568500Y105000D03*
X559000Y105000D03*
X549500Y105000D03*
X549500Y79000D03*
X559000Y79000D03*
X568500Y79000D03*
X703000Y31500D03*
X703000Y41000D03*
X703000Y50500D03*
X677000Y50500D03*
X677000Y41000D03*
X677000Y31500D03*
X703000Y68500D03*
X703000Y78000D03*
X703000Y87500D03*
X677000Y87500D03*
X677000Y78000D03*
X677000Y68500D03*
D11*
X551500Y134000D03*
X568500Y134000D03*
D12*
X601000Y49500D03*
X601000Y32500D03*
X601000Y86500D03*
X601000Y69500D03*
X624000Y49500D03*
X624000Y32500D03*
X624000Y86500D03*
X624000Y69500D03*
X744000Y49500D03*
X744000Y32500D03*
X744000Y86500D03*
X744000Y69500D03*
D13*
X643000Y41000D03*
X663000Y50500D03*
X663000Y31500D03*
X643000Y78000D03*
X663000Y87500D03*
X663000Y68500D03*
D12*
X551500Y61000D03*
X568500Y61000D03*
X551500Y36000D03*
X568500Y36000D03*
D11*
X721000Y32500D03*
X721000Y49500D03*
X721000Y69500D03*
X721000Y86500D03*
D14*
X686000Y124000D03*
X742000Y124000D03*
D11*
X259500Y103000D03*
X276500Y103000D03*
X259500Y77000D03*
X276500Y77000D03*
X533500Y132000D03*
X516500Y132000D03*
X533500Y106000D03*
X516500Y106000D03*
D15*
X193000Y77250D03*
X193000Y96750D03*
X133000Y96750D03*
X133000Y77250D03*
D16*
X133000Y87000D03*
X193000Y87000D03*
D15*
X600000Y138750D03*
X600000Y119250D03*
X660000Y119250D03*
X660000Y138750D03*
D16*
X660000Y129000D03*
X600000Y129000D03*
D17*
X54000Y43350D03*
X106000Y43350D03*
X54000Y56050D03*
X54000Y30650D03*
X54000Y17950D03*
X106000Y56050D03*
X106000Y30650D03*
X106000Y17950D03*
D11*
X228500Y46000D03*
X211500Y46000D03*
X228500Y20000D03*
X211500Y20000D03*
X268500Y20000D03*
X251500Y20000D03*
X251500Y45000D03*
X268500Y45000D03*
D17*
X734000Y163650D03*
X682000Y163650D03*
X734000Y150950D03*
X734000Y176350D03*
X734000Y189050D03*
X682000Y150950D03*
X682000Y176350D03*
X682000Y189050D03*
D11*
X549500Y165000D03*
X566500Y165000D03*
X549500Y190000D03*
X566500Y190000D03*
X514500Y190000D03*
X531500Y190000D03*
X531500Y165000D03*
X514500Y165000D03*
D12*
X20000Y41500D03*
X20000Y58500D03*
X20000Y98500D03*
X20000Y81500D03*
X765000Y168500D03*
X765000Y151500D03*
X765000Y111500D03*
X765000Y128500D03*
X49900Y756800D03*
X66900Y756800D03*
X206400Y673600D03*
X223400Y673600D03*
D18*
X103800Y829300D03*
X131800Y829300D03*
D19*
X137800Y720500D03*
X137800Y692500D03*
X137900Y761800D03*
X137900Y789800D03*
D12*
X66900Y730200D03*
X49900Y730200D03*
D18*
X103600Y658300D03*
X131600Y658300D03*
D11*
X38100Y822600D03*
X55100Y822600D03*
X38700Y658800D03*
X55700Y658800D03*
X223400Y650400D03*
X206400Y650400D03*
X224400Y831700D03*
X207400Y831700D03*
D20*
X229650Y698350D03*
X229650Y704850D03*
X229650Y711350D03*
X229650Y717850D03*
X229650Y724350D03*
X229650Y730850D03*
X229650Y737350D03*
X229650Y743850D03*
X229650Y750350D03*
X229650Y756850D03*
X229650Y763350D03*
X229650Y769850D03*
X229650Y776350D03*
X229650Y782850D03*
X174150Y782850D03*
X174150Y776350D03*
X174150Y769850D03*
X174150Y763350D03*
X174150Y756850D03*
X174150Y750350D03*
X174150Y743850D03*
X174150Y737350D03*
X174150Y730850D03*
X174150Y724350D03*
X174150Y717850D03*
X174150Y711350D03*
X174150Y704850D03*
X174150Y698350D03*
D21*
X201900Y740600D03*
D22*
X98900Y713300D03*
X98900Y692300D03*
D23*
X97300Y768100D03*
X97300Y801100D03*
D11*
X224500Y808000D03*
X207500Y808000D03*
D12*
X248000Y653500D03*
X248000Y670500D03*
D24*
X257000Y704500D03*
X257000Y719500D03*
D12*
X253000Y828600D03*
X253000Y811600D03*
D24*
X260000Y794500D03*
X260000Y779500D03*
D25*
X390950Y675000D03*
X403650Y675000D03*
X416350Y675000D03*
X429050Y675000D03*
X429050Y729000D03*
X416350Y729000D03*
X403650Y729000D03*
X390950Y729000D03*
D26*
X410000Y702000D03*
D11*
X359000Y697500D03*
X359000Y714500D03*
D12*
X433000Y778500D03*
X433000Y761500D03*
D27*
X382000Y449000D03*
X382000Y550000D03*
D28*
X464000Y481000D03*
X464000Y509000D03*
D11*
X451500Y672000D03*
X468500Y672000D03*
D12*
X466000Y560500D03*
X466000Y577500D03*
X359000Y737500D03*
X359000Y754500D03*
X335000Y737500D03*
X335000Y754500D03*
D11*
X456000Y720500D03*
X456000Y703500D03*
D28*
X410000Y786000D03*
X410000Y758000D03*
D12*
X480000Y720500D03*
X480000Y703500D03*
D29*
X70200Y507700D03*
X76700Y507700D03*
X83200Y507700D03*
X89700Y507700D03*
X89700Y533700D03*
X83200Y533700D03*
X76700Y533700D03*
X70200Y533700D03*
D12*
X138500Y560000D03*
X121500Y560000D03*
D11*
X45500Y509100D03*
X45500Y526100D03*
D12*
X48000Y480500D03*
X48000Y463500D03*
D18*
X100500Y475800D03*
X72500Y475800D03*
D12*
X93400Y451100D03*
X76400Y451100D03*
D11*
X68500Y560000D03*
X51500Y560000D03*
D12*
X70000Y581500D03*
X70000Y598500D03*
D11*
X40000Y598500D03*
X40000Y581500D03*
D30*
X222000Y496000D03*
X222000Y540000D03*
D18*
X169600Y473300D03*
X197600Y473300D03*
X169900Y448600D03*
X197900Y448600D03*
D31*
X742250Y627750D03*
X735750Y627750D03*
X729250Y627750D03*
X722750Y627750D03*
X716250Y627750D03*
X709750Y627750D03*
X703250Y627750D03*
X696750Y627750D03*
X690250Y627750D03*
X683750Y627750D03*
X677250Y627750D03*
X670750Y627750D03*
X664250Y627750D03*
X657750Y627750D03*
X657750Y572250D03*
X664250Y572250D03*
X670750Y572250D03*
X677250Y572250D03*
X683750Y572250D03*
X690250Y572250D03*
X696750Y572250D03*
X703250Y572250D03*
X709750Y572250D03*
X716250Y572250D03*
X722750Y572250D03*
X729250Y572250D03*
X735750Y572250D03*
X742250Y572250D03*
D32*
X700000Y600000D03*
D12*
X828500Y584700D03*
X828500Y567700D03*
X550000Y618500D03*
X550000Y601500D03*
D11*
X524900Y601700D03*
X524900Y618700D03*
X648500Y740000D03*
X631500Y740000D03*
D12*
X740000Y688500D03*
X740000Y671500D03*
D11*
X764400Y671500D03*
X764400Y688500D03*
X606100Y603200D03*
X606100Y620200D03*
X578400Y716700D03*
X561400Y716700D03*
D12*
X795300Y652100D03*
X795300Y635100D03*
X561200Y692600D03*
X578200Y692600D03*
D11*
X795400Y601600D03*
X795400Y618600D03*
X820000Y601500D03*
X820000Y618500D03*
D12*
X820000Y652100D03*
X820000Y635100D03*
D11*
X701500Y720000D03*
X718500Y720000D03*
X818500Y750000D03*
X801500Y750000D03*
D12*
X778500Y750000D03*
X761500Y750000D03*
X630000Y620200D03*
X630000Y603200D03*
X770900Y618600D03*
X770900Y601600D03*
D11*
X684500Y463900D03*
X684500Y446900D03*
X711100Y463400D03*
X711100Y446400D03*
D33*
X642000Y495000D03*
X675000Y495000D03*
X762000Y496000D03*
X729000Y496000D03*
D11*
X650000Y441500D03*
X650000Y458500D03*
D12*
X624900Y458600D03*
X624900Y441600D03*
D11*
X750000Y441500D03*
X750000Y458500D03*
D12*
X775700Y458400D03*
X775700Y441400D03*
D28*
X612900Y530500D03*
X612900Y502500D03*
X586500Y530300D03*
X586500Y502300D03*
X786400Y531200D03*
X786400Y503200D03*
X814800Y531200D03*
X814800Y503200D03*
X560100Y530300D03*
X560100Y502300D03*
X843000Y531500D03*
X843000Y503500D03*
D11*
X279000Y727700D03*
X279000Y710700D03*
X279000Y752700D03*
X279000Y769700D03*
D34*
X750600Y536400D03*
X722600Y536400D03*
X648500Y535900D03*
X676500Y535900D03*
D35*
X80000Y335700D03*
X140000Y335700D03*
X67700Y284500D03*
X153100Y284500D03*
X299700Y335200D03*
X379700Y335200D03*
X287300Y284500D03*
X392700Y284500D03*
X530000Y335000D03*
X590000Y335000D03*
X527300Y284500D03*
X592700Y284500D03*
D36*
X740000Y335500D02*
X750000Y335500D01*
X810000Y335500D02*
X820000Y335500D01*
X750600Y284500D02*
X740600Y284500D01*
X810600Y284500D02*
X820600Y284500D01*
D37*
X224595Y1057795D02*
X224595Y1068205D01*
X229005Y1068205D01*
X229005Y1057795D01*
X224595Y1057795D01*
X224595Y1057880D02*
X229005Y1057880D01*
X229005Y1057965D02*
X224595Y1057965D01*
X224595Y1058050D02*
X229005Y1058050D01*
X229005Y1058135D02*
X224595Y1058135D01*
X224595Y1058220D02*
X229005Y1058220D01*
X229005Y1058305D02*
X224595Y1058305D01*
X224595Y1058390D02*
X229005Y1058390D01*
X229005Y1058475D02*
X224595Y1058475D01*
X224595Y1058560D02*
X229005Y1058560D01*
X229005Y1058645D02*
X224595Y1058645D01*
X224595Y1058730D02*
X229005Y1058730D01*
X229005Y1058815D02*
X224595Y1058815D01*
X224595Y1058900D02*
X229005Y1058900D01*
X229005Y1058985D02*
X224595Y1058985D01*
X224595Y1059070D02*
X229005Y1059070D01*
X229005Y1059155D02*
X224595Y1059155D01*
X224595Y1059240D02*
X229005Y1059240D01*
X229005Y1059325D02*
X224595Y1059325D01*
X224595Y1059410D02*
X229005Y1059410D01*
X229005Y1059495D02*
X224595Y1059495D01*
X224595Y1059580D02*
X229005Y1059580D01*
X229005Y1059665D02*
X224595Y1059665D01*
X224595Y1059750D02*
X229005Y1059750D01*
X229005Y1059835D02*
X224595Y1059835D01*
X224595Y1059920D02*
X229005Y1059920D01*
X229005Y1060005D02*
X224595Y1060005D01*
X224595Y1060090D02*
X229005Y1060090D01*
X229005Y1060175D02*
X224595Y1060175D01*
X224595Y1060260D02*
X229005Y1060260D01*
X229005Y1060345D02*
X224595Y1060345D01*
X224595Y1060430D02*
X229005Y1060430D01*
X229005Y1060515D02*
X224595Y1060515D01*
X224595Y1060600D02*
X229005Y1060600D01*
X229005Y1060685D02*
X224595Y1060685D01*
X224595Y1060770D02*
X229005Y1060770D01*
X229005Y1060855D02*
X224595Y1060855D01*
X224595Y1060940D02*
X229005Y1060940D01*
X229005Y1061025D02*
X224595Y1061025D01*
X224595Y1061110D02*
X229005Y1061110D01*
X229005Y1061195D02*
X224595Y1061195D01*
X224595Y1061280D02*
X229005Y1061280D01*
X229005Y1061365D02*
X224595Y1061365D01*
X224595Y1061450D02*
X229005Y1061450D01*
X229005Y1061535D02*
X224595Y1061535D01*
X224595Y1061620D02*
X229005Y1061620D01*
X229005Y1061705D02*
X224595Y1061705D01*
X224595Y1061790D02*
X229005Y1061790D01*
X229005Y1061875D02*
X224595Y1061875D01*
X224595Y1061960D02*
X229005Y1061960D01*
X229005Y1062045D02*
X224595Y1062045D01*
X224595Y1062130D02*
X229005Y1062130D01*
X229005Y1062215D02*
X224595Y1062215D01*
X224595Y1062300D02*
X229005Y1062300D01*
X229005Y1062385D02*
X224595Y1062385D01*
X224595Y1062470D02*
X229005Y1062470D01*
X229005Y1062555D02*
X224595Y1062555D01*
X224595Y1062640D02*
X229005Y1062640D01*
X229005Y1062725D02*
X224595Y1062725D01*
X224595Y1062810D02*
X229005Y1062810D01*
X229005Y1062895D02*
X224595Y1062895D01*
X224595Y1062980D02*
X229005Y1062980D01*
X229005Y1063065D02*
X224595Y1063065D01*
X224595Y1063150D02*
X229005Y1063150D01*
X229005Y1063235D02*
X224595Y1063235D01*
X224595Y1063320D02*
X229005Y1063320D01*
X229005Y1063405D02*
X224595Y1063405D01*
X224595Y1063490D02*
X229005Y1063490D01*
X229005Y1063575D02*
X224595Y1063575D01*
X224595Y1063660D02*
X229005Y1063660D01*
X229005Y1063745D02*
X224595Y1063745D01*
X224595Y1063830D02*
X229005Y1063830D01*
X229005Y1063915D02*
X224595Y1063915D01*
X224595Y1064000D02*
X229005Y1064000D01*
X229005Y1064085D02*
X224595Y1064085D01*
X224595Y1064170D02*
X229005Y1064170D01*
X229005Y1064255D02*
X224595Y1064255D01*
X224595Y1064340D02*
X229005Y1064340D01*
X229005Y1064425D02*
X224595Y1064425D01*
X224595Y1064510D02*
X229005Y1064510D01*
X229005Y1064595D02*
X224595Y1064595D01*
X224595Y1064680D02*
X229005Y1064680D01*
X229005Y1064765D02*
X224595Y1064765D01*
X224595Y1064850D02*
X229005Y1064850D01*
X229005Y1064935D02*
X224595Y1064935D01*
X224595Y1065020D02*
X229005Y1065020D01*
X229005Y1065105D02*
X224595Y1065105D01*
X224595Y1065190D02*
X229005Y1065190D01*
X229005Y1065275D02*
X224595Y1065275D01*
X224595Y1065360D02*
X229005Y1065360D01*
X229005Y1065445D02*
X224595Y1065445D01*
X224595Y1065530D02*
X229005Y1065530D01*
X229005Y1065615D02*
X224595Y1065615D01*
X224595Y1065700D02*
X229005Y1065700D01*
X229005Y1065785D02*
X224595Y1065785D01*
X224595Y1065870D02*
X229005Y1065870D01*
X229005Y1065955D02*
X224595Y1065955D01*
X224595Y1066040D02*
X229005Y1066040D01*
X229005Y1066125D02*
X224595Y1066125D01*
X224595Y1066210D02*
X229005Y1066210D01*
X229005Y1066295D02*
X224595Y1066295D01*
X224595Y1066380D02*
X229005Y1066380D01*
X229005Y1066465D02*
X224595Y1066465D01*
X224595Y1066550D02*
X229005Y1066550D01*
X229005Y1066635D02*
X224595Y1066635D01*
X224595Y1066720D02*
X229005Y1066720D01*
X229005Y1066805D02*
X224595Y1066805D01*
X224595Y1066890D02*
X229005Y1066890D01*
X229005Y1066975D02*
X224595Y1066975D01*
X224595Y1067060D02*
X229005Y1067060D01*
X229005Y1067145D02*
X224595Y1067145D01*
X224595Y1067230D02*
X229005Y1067230D01*
X229005Y1067315D02*
X224595Y1067315D01*
X224595Y1067400D02*
X229005Y1067400D01*
X229005Y1067485D02*
X224595Y1067485D01*
X224595Y1067570D02*
X229005Y1067570D01*
X229005Y1067655D02*
X224595Y1067655D01*
X224595Y1067740D02*
X229005Y1067740D01*
X229005Y1067825D02*
X224595Y1067825D01*
X224595Y1067910D02*
X229005Y1067910D01*
X229005Y1067995D02*
X224595Y1067995D01*
X224595Y1068080D02*
X229005Y1068080D01*
X229005Y1068165D02*
X224595Y1068165D01*
D38*
X220300Y1063000D03*
X213800Y1063000D03*
X207300Y1063000D03*
X200800Y1063000D03*
X194300Y1063000D03*
X187800Y1063000D03*
X181300Y1063000D03*
X174800Y1063000D03*
X168300Y1063000D03*
X161800Y1063000D03*
X155300Y1063000D03*
X148800Y1063000D03*
X142300Y1063000D03*
D39*
X184550Y1035250D03*
D37*
X140095Y1012705D02*
X140095Y1002295D01*
X140095Y1012705D02*
X144505Y1012705D01*
X144505Y1002295D01*
X140095Y1002295D01*
X140095Y1002380D02*
X144505Y1002380D01*
X144505Y1002465D02*
X140095Y1002465D01*
X140095Y1002550D02*
X144505Y1002550D01*
X144505Y1002635D02*
X140095Y1002635D01*
X140095Y1002720D02*
X144505Y1002720D01*
X144505Y1002805D02*
X140095Y1002805D01*
X140095Y1002890D02*
X144505Y1002890D01*
X144505Y1002975D02*
X140095Y1002975D01*
X140095Y1003060D02*
X144505Y1003060D01*
X144505Y1003145D02*
X140095Y1003145D01*
X140095Y1003230D02*
X144505Y1003230D01*
X144505Y1003315D02*
X140095Y1003315D01*
X140095Y1003400D02*
X144505Y1003400D01*
X144505Y1003485D02*
X140095Y1003485D01*
X140095Y1003570D02*
X144505Y1003570D01*
X144505Y1003655D02*
X140095Y1003655D01*
X140095Y1003740D02*
X144505Y1003740D01*
X144505Y1003825D02*
X140095Y1003825D01*
X140095Y1003910D02*
X144505Y1003910D01*
X144505Y1003995D02*
X140095Y1003995D01*
X140095Y1004080D02*
X144505Y1004080D01*
X144505Y1004165D02*
X140095Y1004165D01*
X140095Y1004250D02*
X144505Y1004250D01*
X144505Y1004335D02*
X140095Y1004335D01*
X140095Y1004420D02*
X144505Y1004420D01*
X144505Y1004505D02*
X140095Y1004505D01*
X140095Y1004590D02*
X144505Y1004590D01*
X144505Y1004675D02*
X140095Y1004675D01*
X140095Y1004760D02*
X144505Y1004760D01*
X144505Y1004845D02*
X140095Y1004845D01*
X140095Y1004930D02*
X144505Y1004930D01*
X144505Y1005015D02*
X140095Y1005015D01*
X140095Y1005100D02*
X144505Y1005100D01*
X144505Y1005185D02*
X140095Y1005185D01*
X140095Y1005270D02*
X144505Y1005270D01*
X144505Y1005355D02*
X140095Y1005355D01*
X140095Y1005440D02*
X144505Y1005440D01*
X144505Y1005525D02*
X140095Y1005525D01*
X140095Y1005610D02*
X144505Y1005610D01*
X144505Y1005695D02*
X140095Y1005695D01*
X140095Y1005780D02*
X144505Y1005780D01*
X144505Y1005865D02*
X140095Y1005865D01*
X140095Y1005950D02*
X144505Y1005950D01*
X144505Y1006035D02*
X140095Y1006035D01*
X140095Y1006120D02*
X144505Y1006120D01*
X144505Y1006205D02*
X140095Y1006205D01*
X140095Y1006290D02*
X144505Y1006290D01*
X144505Y1006375D02*
X140095Y1006375D01*
X140095Y1006460D02*
X144505Y1006460D01*
X144505Y1006545D02*
X140095Y1006545D01*
X140095Y1006630D02*
X144505Y1006630D01*
X144505Y1006715D02*
X140095Y1006715D01*
X140095Y1006800D02*
X144505Y1006800D01*
X144505Y1006885D02*
X140095Y1006885D01*
X140095Y1006970D02*
X144505Y1006970D01*
X144505Y1007055D02*
X140095Y1007055D01*
X140095Y1007140D02*
X144505Y1007140D01*
X144505Y1007225D02*
X140095Y1007225D01*
X140095Y1007310D02*
X144505Y1007310D01*
X144505Y1007395D02*
X140095Y1007395D01*
X140095Y1007480D02*
X144505Y1007480D01*
X144505Y1007565D02*
X140095Y1007565D01*
X140095Y1007650D02*
X144505Y1007650D01*
X144505Y1007735D02*
X140095Y1007735D01*
X140095Y1007820D02*
X144505Y1007820D01*
X144505Y1007905D02*
X140095Y1007905D01*
X140095Y1007990D02*
X144505Y1007990D01*
X144505Y1008075D02*
X140095Y1008075D01*
X140095Y1008160D02*
X144505Y1008160D01*
X144505Y1008245D02*
X140095Y1008245D01*
X140095Y1008330D02*
X144505Y1008330D01*
X144505Y1008415D02*
X140095Y1008415D01*
X140095Y1008500D02*
X144505Y1008500D01*
X144505Y1008585D02*
X140095Y1008585D01*
X140095Y1008670D02*
X144505Y1008670D01*
X144505Y1008755D02*
X140095Y1008755D01*
X140095Y1008840D02*
X144505Y1008840D01*
X144505Y1008925D02*
X140095Y1008925D01*
X140095Y1009010D02*
X144505Y1009010D01*
X144505Y1009095D02*
X140095Y1009095D01*
X140095Y1009180D02*
X144505Y1009180D01*
X144505Y1009265D02*
X140095Y1009265D01*
X140095Y1009350D02*
X144505Y1009350D01*
X144505Y1009435D02*
X140095Y1009435D01*
X140095Y1009520D02*
X144505Y1009520D01*
X144505Y1009605D02*
X140095Y1009605D01*
X140095Y1009690D02*
X144505Y1009690D01*
X144505Y1009775D02*
X140095Y1009775D01*
X140095Y1009860D02*
X144505Y1009860D01*
X144505Y1009945D02*
X140095Y1009945D01*
X140095Y1010030D02*
X144505Y1010030D01*
X144505Y1010115D02*
X140095Y1010115D01*
X140095Y1010200D02*
X144505Y1010200D01*
X144505Y1010285D02*
X140095Y1010285D01*
X140095Y1010370D02*
X144505Y1010370D01*
X144505Y1010455D02*
X140095Y1010455D01*
X140095Y1010540D02*
X144505Y1010540D01*
X144505Y1010625D02*
X140095Y1010625D01*
X140095Y1010710D02*
X144505Y1010710D01*
X144505Y1010795D02*
X140095Y1010795D01*
X140095Y1010880D02*
X144505Y1010880D01*
X144505Y1010965D02*
X140095Y1010965D01*
X140095Y1011050D02*
X144505Y1011050D01*
X144505Y1011135D02*
X140095Y1011135D01*
X140095Y1011220D02*
X144505Y1011220D01*
X144505Y1011305D02*
X140095Y1011305D01*
X140095Y1011390D02*
X144505Y1011390D01*
X144505Y1011475D02*
X140095Y1011475D01*
X140095Y1011560D02*
X144505Y1011560D01*
X144505Y1011645D02*
X140095Y1011645D01*
X140095Y1011730D02*
X144505Y1011730D01*
X144505Y1011815D02*
X140095Y1011815D01*
X140095Y1011900D02*
X144505Y1011900D01*
X144505Y1011985D02*
X140095Y1011985D01*
X140095Y1012070D02*
X144505Y1012070D01*
X144505Y1012155D02*
X140095Y1012155D01*
X140095Y1012240D02*
X144505Y1012240D01*
X144505Y1012325D02*
X140095Y1012325D01*
X140095Y1012410D02*
X144505Y1012410D01*
X144505Y1012495D02*
X140095Y1012495D01*
X140095Y1012580D02*
X144505Y1012580D01*
X144505Y1012665D02*
X140095Y1012665D01*
D38*
X220300Y1007500D03*
X213800Y1007500D03*
X207300Y1007500D03*
X200800Y1007500D03*
X194300Y1007500D03*
X187800Y1007500D03*
X181300Y1007500D03*
X174800Y1007500D03*
X168300Y1007500D03*
X161800Y1007500D03*
X155300Y1007500D03*
X148800Y1007500D03*
X226800Y1007500D03*
D11*
X230000Y936500D03*
X230000Y953500D03*
X230000Y1133500D03*
X230000Y1116500D03*
D12*
X116000Y902500D03*
X116000Y885500D03*
X110000Y1043500D03*
X110000Y1026500D03*
X91000Y885500D03*
X91000Y902500D03*
X85000Y936500D03*
X85000Y953500D03*
X85000Y1066500D03*
X85000Y1083500D03*
X65000Y1111500D03*
X65000Y1128500D03*
D40*
X325000Y1067000D03*
X325000Y1003000D03*
D12*
X90000Y1111500D03*
X90000Y1128500D03*
D11*
X60000Y1083500D03*
X60000Y1066500D03*
D28*
X55000Y969000D03*
X55000Y941000D03*
D11*
X85000Y1043500D03*
X85000Y1026500D03*
D41*
X188500Y1120000D03*
X131500Y1120000D03*
X188500Y950000D03*
X131500Y950000D03*
D37*
X670505Y966795D02*
X670505Y977205D01*
X670505Y966795D02*
X666095Y966795D01*
X666095Y977205D01*
X670505Y977205D01*
X670505Y966880D02*
X666095Y966880D01*
X666095Y966965D02*
X670505Y966965D01*
X670505Y967050D02*
X666095Y967050D01*
X666095Y967135D02*
X670505Y967135D01*
X670505Y967220D02*
X666095Y967220D01*
X666095Y967305D02*
X670505Y967305D01*
X670505Y967390D02*
X666095Y967390D01*
X666095Y967475D02*
X670505Y967475D01*
X670505Y967560D02*
X666095Y967560D01*
X666095Y967645D02*
X670505Y967645D01*
X670505Y967730D02*
X666095Y967730D01*
X666095Y967815D02*
X670505Y967815D01*
X670505Y967900D02*
X666095Y967900D01*
X666095Y967985D02*
X670505Y967985D01*
X670505Y968070D02*
X666095Y968070D01*
X666095Y968155D02*
X670505Y968155D01*
X670505Y968240D02*
X666095Y968240D01*
X666095Y968325D02*
X670505Y968325D01*
X670505Y968410D02*
X666095Y968410D01*
X666095Y968495D02*
X670505Y968495D01*
X670505Y968580D02*
X666095Y968580D01*
X666095Y968665D02*
X670505Y968665D01*
X670505Y968750D02*
X666095Y968750D01*
X666095Y968835D02*
X670505Y968835D01*
X670505Y968920D02*
X666095Y968920D01*
X666095Y969005D02*
X670505Y969005D01*
X670505Y969090D02*
X666095Y969090D01*
X666095Y969175D02*
X670505Y969175D01*
X670505Y969260D02*
X666095Y969260D01*
X666095Y969345D02*
X670505Y969345D01*
X670505Y969430D02*
X666095Y969430D01*
X666095Y969515D02*
X670505Y969515D01*
X670505Y969600D02*
X666095Y969600D01*
X666095Y969685D02*
X670505Y969685D01*
X670505Y969770D02*
X666095Y969770D01*
X666095Y969855D02*
X670505Y969855D01*
X670505Y969940D02*
X666095Y969940D01*
X666095Y970025D02*
X670505Y970025D01*
X670505Y970110D02*
X666095Y970110D01*
X666095Y970195D02*
X670505Y970195D01*
X670505Y970280D02*
X666095Y970280D01*
X666095Y970365D02*
X670505Y970365D01*
X670505Y970450D02*
X666095Y970450D01*
X666095Y970535D02*
X670505Y970535D01*
X670505Y970620D02*
X666095Y970620D01*
X666095Y970705D02*
X670505Y970705D01*
X670505Y970790D02*
X666095Y970790D01*
X666095Y970875D02*
X670505Y970875D01*
X670505Y970960D02*
X666095Y970960D01*
X666095Y971045D02*
X670505Y971045D01*
X670505Y971130D02*
X666095Y971130D01*
X666095Y971215D02*
X670505Y971215D01*
X670505Y971300D02*
X666095Y971300D01*
X666095Y971385D02*
X670505Y971385D01*
X670505Y971470D02*
X666095Y971470D01*
X666095Y971555D02*
X670505Y971555D01*
X670505Y971640D02*
X666095Y971640D01*
X666095Y971725D02*
X670505Y971725D01*
X670505Y971810D02*
X666095Y971810D01*
X666095Y971895D02*
X670505Y971895D01*
X670505Y971980D02*
X666095Y971980D01*
X666095Y972065D02*
X670505Y972065D01*
X670505Y972150D02*
X666095Y972150D01*
X666095Y972235D02*
X670505Y972235D01*
X670505Y972320D02*
X666095Y972320D01*
X666095Y972405D02*
X670505Y972405D01*
X670505Y972490D02*
X666095Y972490D01*
X666095Y972575D02*
X670505Y972575D01*
X670505Y972660D02*
X666095Y972660D01*
X666095Y972745D02*
X670505Y972745D01*
X670505Y972830D02*
X666095Y972830D01*
X666095Y972915D02*
X670505Y972915D01*
X670505Y973000D02*
X666095Y973000D01*
X666095Y973085D02*
X670505Y973085D01*
X670505Y973170D02*
X666095Y973170D01*
X666095Y973255D02*
X670505Y973255D01*
X670505Y973340D02*
X666095Y973340D01*
X666095Y973425D02*
X670505Y973425D01*
X670505Y973510D02*
X666095Y973510D01*
X666095Y973595D02*
X670505Y973595D01*
X670505Y973680D02*
X666095Y973680D01*
X666095Y973765D02*
X670505Y973765D01*
X670505Y973850D02*
X666095Y973850D01*
X666095Y973935D02*
X670505Y973935D01*
X670505Y974020D02*
X666095Y974020D01*
X666095Y974105D02*
X670505Y974105D01*
X670505Y974190D02*
X666095Y974190D01*
X666095Y974275D02*
X670505Y974275D01*
X670505Y974360D02*
X666095Y974360D01*
X666095Y974445D02*
X670505Y974445D01*
X670505Y974530D02*
X666095Y974530D01*
X666095Y974615D02*
X670505Y974615D01*
X670505Y974700D02*
X666095Y974700D01*
X666095Y974785D02*
X670505Y974785D01*
X670505Y974870D02*
X666095Y974870D01*
X666095Y974955D02*
X670505Y974955D01*
X670505Y975040D02*
X666095Y975040D01*
X666095Y975125D02*
X670505Y975125D01*
X670505Y975210D02*
X666095Y975210D01*
X666095Y975295D02*
X670505Y975295D01*
X670505Y975380D02*
X666095Y975380D01*
X666095Y975465D02*
X670505Y975465D01*
X670505Y975550D02*
X666095Y975550D01*
X666095Y975635D02*
X670505Y975635D01*
X670505Y975720D02*
X666095Y975720D01*
X666095Y975805D02*
X670505Y975805D01*
X670505Y975890D02*
X666095Y975890D01*
X666095Y975975D02*
X670505Y975975D01*
X670505Y976060D02*
X666095Y976060D01*
X666095Y976145D02*
X670505Y976145D01*
X670505Y976230D02*
X666095Y976230D01*
X666095Y976315D02*
X670505Y976315D01*
X670505Y976400D02*
X666095Y976400D01*
X666095Y976485D02*
X670505Y976485D01*
X670505Y976570D02*
X666095Y976570D01*
X666095Y976655D02*
X670505Y976655D01*
X670505Y976740D02*
X666095Y976740D01*
X666095Y976825D02*
X670505Y976825D01*
X670505Y976910D02*
X666095Y976910D01*
X666095Y976995D02*
X670505Y976995D01*
X670505Y977080D02*
X666095Y977080D01*
X666095Y977165D02*
X670505Y977165D01*
D38*
X674800Y972000D03*
X681300Y972000D03*
X687800Y972000D03*
X694300Y972000D03*
X700800Y972000D03*
X707300Y972000D03*
X713800Y972000D03*
X720300Y972000D03*
X726800Y972000D03*
X733300Y972000D03*
X739800Y972000D03*
X746300Y972000D03*
X752800Y972000D03*
D39*
X710550Y999750D03*
D37*
X755005Y1022295D02*
X755005Y1032705D01*
X755005Y1022295D02*
X750595Y1022295D01*
X750595Y1032705D01*
X755005Y1032705D01*
X755005Y1022380D02*
X750595Y1022380D01*
X750595Y1022465D02*
X755005Y1022465D01*
X755005Y1022550D02*
X750595Y1022550D01*
X750595Y1022635D02*
X755005Y1022635D01*
X755005Y1022720D02*
X750595Y1022720D01*
X750595Y1022805D02*
X755005Y1022805D01*
X755005Y1022890D02*
X750595Y1022890D01*
X750595Y1022975D02*
X755005Y1022975D01*
X755005Y1023060D02*
X750595Y1023060D01*
X750595Y1023145D02*
X755005Y1023145D01*
X755005Y1023230D02*
X750595Y1023230D01*
X750595Y1023315D02*
X755005Y1023315D01*
X755005Y1023400D02*
X750595Y1023400D01*
X750595Y1023485D02*
X755005Y1023485D01*
X755005Y1023570D02*
X750595Y1023570D01*
X750595Y1023655D02*
X755005Y1023655D01*
X755005Y1023740D02*
X750595Y1023740D01*
X750595Y1023825D02*
X755005Y1023825D01*
X755005Y1023910D02*
X750595Y1023910D01*
X750595Y1023995D02*
X755005Y1023995D01*
X755005Y1024080D02*
X750595Y1024080D01*
X750595Y1024165D02*
X755005Y1024165D01*
X755005Y1024250D02*
X750595Y1024250D01*
X750595Y1024335D02*
X755005Y1024335D01*
X755005Y1024420D02*
X750595Y1024420D01*
X750595Y1024505D02*
X755005Y1024505D01*
X755005Y1024590D02*
X750595Y1024590D01*
X750595Y1024675D02*
X755005Y1024675D01*
X755005Y1024760D02*
X750595Y1024760D01*
X750595Y1024845D02*
X755005Y1024845D01*
X755005Y1024930D02*
X750595Y1024930D01*
X750595Y1025015D02*
X755005Y1025015D01*
X755005Y1025100D02*
X750595Y1025100D01*
X750595Y1025185D02*
X755005Y1025185D01*
X755005Y1025270D02*
X750595Y1025270D01*
X750595Y1025355D02*
X755005Y1025355D01*
X755005Y1025440D02*
X750595Y1025440D01*
X750595Y1025525D02*
X755005Y1025525D01*
X755005Y1025610D02*
X750595Y1025610D01*
X750595Y1025695D02*
X755005Y1025695D01*
X755005Y1025780D02*
X750595Y1025780D01*
X750595Y1025865D02*
X755005Y1025865D01*
X755005Y1025950D02*
X750595Y1025950D01*
X750595Y1026035D02*
X755005Y1026035D01*
X755005Y1026120D02*
X750595Y1026120D01*
X750595Y1026205D02*
X755005Y1026205D01*
X755005Y1026290D02*
X750595Y1026290D01*
X750595Y1026375D02*
X755005Y1026375D01*
X755005Y1026460D02*
X750595Y1026460D01*
X750595Y1026545D02*
X755005Y1026545D01*
X755005Y1026630D02*
X750595Y1026630D01*
X750595Y1026715D02*
X755005Y1026715D01*
X755005Y1026800D02*
X750595Y1026800D01*
X750595Y1026885D02*
X755005Y1026885D01*
X755005Y1026970D02*
X750595Y1026970D01*
X750595Y1027055D02*
X755005Y1027055D01*
X755005Y1027140D02*
X750595Y1027140D01*
X750595Y1027225D02*
X755005Y1027225D01*
X755005Y1027310D02*
X750595Y1027310D01*
X750595Y1027395D02*
X755005Y1027395D01*
X755005Y1027480D02*
X750595Y1027480D01*
X750595Y1027565D02*
X755005Y1027565D01*
X755005Y1027650D02*
X750595Y1027650D01*
X750595Y1027735D02*
X755005Y1027735D01*
X755005Y1027820D02*
X750595Y1027820D01*
X750595Y1027905D02*
X755005Y1027905D01*
X755005Y1027990D02*
X750595Y1027990D01*
X750595Y1028075D02*
X755005Y1028075D01*
X755005Y1028160D02*
X750595Y1028160D01*
X750595Y1028245D02*
X755005Y1028245D01*
X755005Y1028330D02*
X750595Y1028330D01*
X750595Y1028415D02*
X755005Y1028415D01*
X755005Y1028500D02*
X750595Y1028500D01*
X750595Y1028585D02*
X755005Y1028585D01*
X755005Y1028670D02*
X750595Y1028670D01*
X750595Y1028755D02*
X755005Y1028755D01*
X755005Y1028840D02*
X750595Y1028840D01*
X750595Y1028925D02*
X755005Y1028925D01*
X755005Y1029010D02*
X750595Y1029010D01*
X750595Y1029095D02*
X755005Y1029095D01*
X755005Y1029180D02*
X750595Y1029180D01*
X750595Y1029265D02*
X755005Y1029265D01*
X755005Y1029350D02*
X750595Y1029350D01*
X750595Y1029435D02*
X755005Y1029435D01*
X755005Y1029520D02*
X750595Y1029520D01*
X750595Y1029605D02*
X755005Y1029605D01*
X755005Y1029690D02*
X750595Y1029690D01*
X750595Y1029775D02*
X755005Y1029775D01*
X755005Y1029860D02*
X750595Y1029860D01*
X750595Y1029945D02*
X755005Y1029945D01*
X755005Y1030030D02*
X750595Y1030030D01*
X750595Y1030115D02*
X755005Y1030115D01*
X755005Y1030200D02*
X750595Y1030200D01*
X750595Y1030285D02*
X755005Y1030285D01*
X755005Y1030370D02*
X750595Y1030370D01*
X750595Y1030455D02*
X755005Y1030455D01*
X755005Y1030540D02*
X750595Y1030540D01*
X750595Y1030625D02*
X755005Y1030625D01*
X755005Y1030710D02*
X750595Y1030710D01*
X750595Y1030795D02*
X755005Y1030795D01*
X755005Y1030880D02*
X750595Y1030880D01*
X750595Y1030965D02*
X755005Y1030965D01*
X755005Y1031050D02*
X750595Y1031050D01*
X750595Y1031135D02*
X755005Y1031135D01*
X755005Y1031220D02*
X750595Y1031220D01*
X750595Y1031305D02*
X755005Y1031305D01*
X755005Y1031390D02*
X750595Y1031390D01*
X750595Y1031475D02*
X755005Y1031475D01*
X755005Y1031560D02*
X750595Y1031560D01*
X750595Y1031645D02*
X755005Y1031645D01*
X755005Y1031730D02*
X750595Y1031730D01*
X750595Y1031815D02*
X755005Y1031815D01*
X755005Y1031900D02*
X750595Y1031900D01*
X750595Y1031985D02*
X755005Y1031985D01*
X755005Y1032070D02*
X750595Y1032070D01*
X750595Y1032155D02*
X755005Y1032155D01*
X755005Y1032240D02*
X750595Y1032240D01*
X750595Y1032325D02*
X755005Y1032325D01*
X755005Y1032410D02*
X750595Y1032410D01*
X750595Y1032495D02*
X755005Y1032495D01*
X755005Y1032580D02*
X750595Y1032580D01*
X750595Y1032665D02*
X755005Y1032665D01*
D38*
X674800Y1027500D03*
X681300Y1027500D03*
X687800Y1027500D03*
X694300Y1027500D03*
X700800Y1027500D03*
X707300Y1027500D03*
X713800Y1027500D03*
X720300Y1027500D03*
X726800Y1027500D03*
X733300Y1027500D03*
X739800Y1027500D03*
X746300Y1027500D03*
X668300Y1027500D03*
D11*
X670000Y1098500D03*
X670000Y1081500D03*
X665000Y901500D03*
X665000Y918500D03*
D12*
X810000Y1098500D03*
X810000Y1081500D03*
X810000Y963500D03*
X810000Y946500D03*
D40*
X570000Y968000D03*
X570000Y1032000D03*
D11*
X835000Y946500D03*
X835000Y963500D03*
D28*
X840000Y1066000D03*
X840000Y1094000D03*
D41*
X706500Y915000D03*
X763500Y915000D03*
X706500Y1085000D03*
X763500Y1085000D03*
D11*
X785000Y1018500D03*
X785000Y1001500D03*
D28*
X810000Y1019000D03*
X810000Y991000D03*
D42*
X421000Y1052000D03*
X421000Y1042500D03*
X421000Y1033000D03*
X447000Y1033000D03*
X447000Y1052000D03*
D11*
X58500Y1040000D03*
X41500Y1040000D03*
D24*
X42500Y1015000D03*
X57500Y1015000D03*
D11*
X836500Y995000D03*
X853500Y995000D03*
D24*
X852500Y1020000D03*
X837500Y1020000D03*
D42*
X475000Y1039500D03*
X475000Y1030000D03*
X475000Y1020500D03*
X501000Y1020500D03*
X501000Y1039500D03*
D12*
X410000Y1121500D03*
X410000Y1138500D03*
X490000Y1121500D03*
X490000Y1138500D03*
X401000Y937500D03*
X401000Y954500D03*
X427000Y954500D03*
X427000Y937500D03*
X467000Y937500D03*
X467000Y954500D03*
X492000Y954500D03*
X492000Y937500D03*
X467000Y989500D03*
X467000Y972500D03*
X492000Y989500D03*
X492000Y972500D03*
X427000Y989500D03*
X427000Y972500D03*
X401000Y989500D03*
X401000Y972500D03*
D24*
X384000Y1123500D03*
X384000Y1138500D03*
X516000Y1123500D03*
X516000Y1138500D03*
D43*
X399000Y610000D03*
X325000Y610000D03*
M02*
