G04 EAGLE Gerber RS-274X export*
G75*
%MOMM*%
%FSLAX34Y34*%
%LPD*%
%INSoldermask Bottom*%
%IPPOS*%
%AMOC8*
5,1,8,0,0,1.08239X$1,22.5*%
G01*
%ADD10C,2.703200*%
%ADD11P,1.869504X8X247.500000*%
%ADD12C,7.219200*%
%ADD13P,1.869504X8X337.500000*%
%ADD14P,1.869504X8X67.500000*%
%ADD15P,1.869504X8X157.500000*%
%ADD16P,1.869504X8X22.500000*%
%ADD17R,1.711200X1.711200*%
%ADD18P,1.852186X8X67.500000*%
%ADD19P,1.852186X8X247.500000*%
%ADD20P,1.852186X8X157.500000*%
%ADD21P,1.852186X8X337.500000*%
%ADD22C,1.727200*%
%ADD23C,2.203200*%
%ADD24C,1.603200*%
%ADD25C,1.203200*%
%ADD26R,1.711200X1.711200*%
%ADD27P,1.852186X8X22.500000*%
%ADD28R,1.603200X1.603200*%
%ADD29C,2.703200*%
%ADD30C,2.203200*%
%ADD31C,1.879600*%
%ADD32R,1.203200X1.303200*%
%ADD33R,1.003200X1.003200*%
%ADD34R,2.903200X1.803200*%
%ADD35C,0.959600*%
%ADD36C,1.009600*%
%ADD37C,1.703200*%


D10*
X40000Y40000D03*
X640000Y40000D03*
X640000Y960000D03*
X40000Y960000D03*
D11*
X96174Y1705292D03*
X145672Y1655794D03*
X53748Y1662866D03*
X103246Y1613368D03*
D12*
X99710Y1659330D03*
D13*
X53748Y1097174D03*
X103246Y1146672D03*
X96174Y1054748D03*
X145672Y1104246D03*
D12*
X99710Y1100710D03*
D13*
X138598Y1182024D03*
X188096Y1231522D03*
X181024Y1139598D03*
X230522Y1189096D03*
D12*
X184560Y1185560D03*
D14*
X188096Y1528508D03*
X138598Y1578006D03*
X230522Y1570934D03*
X181024Y1620432D03*
D12*
X184560Y1574470D03*
D14*
X661866Y1054748D03*
X612368Y1104246D03*
X704292Y1097174D03*
X654794Y1146672D03*
D12*
X658330Y1100710D03*
D11*
X569934Y1231522D03*
X619432Y1182024D03*
X527508Y1189096D03*
X577006Y1139598D03*
D12*
X573470Y1185560D03*
D15*
X704292Y1662866D03*
X654794Y1613368D03*
X661866Y1705292D03*
X612368Y1655794D03*
D12*
X658330Y1659330D03*
D13*
X527508Y1570934D03*
X577006Y1620432D03*
X569934Y1528508D03*
X619432Y1578006D03*
D12*
X573470Y1574470D03*
D16*
X346520Y1347520D03*
X346520Y1412520D03*
X411520Y1347520D03*
X411520Y1412520D03*
D12*
X379020Y1380020D03*
D17*
G36*
X802848Y1661866D02*
X790748Y1649766D01*
X778648Y1661866D01*
X790748Y1673966D01*
X802848Y1661866D01*
G37*
D18*
X840246Y1612368D03*
X882672Y1654794D03*
D17*
G36*
X955422Y1569934D02*
X967522Y1582034D01*
X979622Y1569934D01*
X967522Y1557834D01*
X955422Y1569934D01*
G37*
D19*
X918024Y1619432D03*
X875598Y1577006D03*
D17*
G36*
X1391794Y1624468D02*
X1403894Y1612368D01*
X1391794Y1600268D01*
X1379694Y1612368D01*
X1391794Y1624468D01*
G37*
D20*
X1441292Y1661866D03*
X1349368Y1654794D03*
D17*
G36*
X1314006Y1607332D02*
X1301906Y1619432D01*
X1314006Y1631532D01*
X1326106Y1619432D01*
X1314006Y1607332D01*
G37*
D21*
X1264508Y1569934D03*
X1356432Y1577006D03*
D17*
G36*
X840246Y1133572D02*
X828146Y1145672D01*
X840246Y1157772D01*
X852346Y1145672D01*
X840246Y1133572D01*
G37*
D21*
X790748Y1096174D03*
X882672Y1103246D03*
X875598Y1181024D03*
X967522Y1188096D03*
X918024Y1138598D03*
D17*
G36*
X1429192Y1096174D02*
X1441292Y1108274D01*
X1453392Y1096174D01*
X1441292Y1084074D01*
X1429192Y1096174D01*
G37*
D19*
X1391794Y1145672D03*
X1349368Y1103246D03*
D17*
G36*
X1276608Y1188096D02*
X1264508Y1175996D01*
X1252408Y1188096D01*
X1264508Y1200196D01*
X1276608Y1188096D01*
G37*
D18*
X1314006Y1138598D03*
X1356432Y1181024D03*
D22*
X1102300Y1271380D02*
X1102300Y1286620D01*
X1127700Y1286620D02*
X1127700Y1271380D01*
D23*
X1116000Y1649000D03*
D24*
X1081000Y1649000D03*
X1151000Y1649000D03*
D25*
X1081000Y1649000D03*
X1116000Y1649000D03*
X1151000Y1649000D03*
D26*
X1083520Y1346520D03*
D27*
X1083520Y1411520D03*
X1148520Y1346520D03*
X1148520Y1411520D03*
D28*
X769000Y680000D03*
X731000Y680000D03*
D29*
X910000Y112500D02*
X910000Y92500D01*
X877500Y167500D02*
X877500Y187500D01*
X1110000Y112500D02*
X1110000Y92500D01*
X1077500Y167500D02*
X1077500Y187500D01*
X1310000Y112500D02*
X1310000Y92500D01*
X1277500Y167500D02*
X1277500Y187500D01*
X1310000Y297500D02*
X1310000Y317500D01*
X1342500Y242500D02*
X1342500Y222500D01*
X1110000Y297500D02*
X1110000Y317500D01*
X1142500Y242500D02*
X1142500Y222500D01*
X910000Y297500D02*
X910000Y317500D01*
X942500Y242500D02*
X942500Y222500D01*
X910000Y502500D02*
X910000Y522500D01*
X877500Y577500D02*
X877500Y597500D01*
X1110000Y522500D02*
X1110000Y502500D01*
X1077500Y577500D02*
X1077500Y597500D01*
X1310000Y522500D02*
X1310000Y502500D01*
X1277500Y577500D02*
X1277500Y597500D01*
X1310000Y707500D02*
X1310000Y727500D01*
X1342500Y652500D02*
X1342500Y632500D01*
X1110000Y707500D02*
X1110000Y727500D01*
X1142500Y652500D02*
X1142500Y632500D01*
X910000Y707500D02*
X910000Y727500D01*
X942500Y652500D02*
X942500Y632500D01*
D30*
X790000Y717500D02*
X730000Y717500D01*
D29*
X742500Y652500D02*
X742500Y632500D01*
D30*
X1430000Y512500D02*
X1490000Y512500D01*
D29*
X1477500Y577500D02*
X1477500Y597500D01*
D30*
X790000Y307500D02*
X730000Y307500D01*
D29*
X742500Y242500D02*
X742500Y222500D01*
D30*
X1430000Y102500D02*
X1490000Y102500D01*
D29*
X1477500Y167500D02*
X1477500Y187500D01*
D31*
X935000Y781618D02*
X935000Y798382D01*
X910000Y798382D02*
X910000Y781618D01*
X885000Y781618D02*
X885000Y798382D01*
D32*
X1058500Y30000D03*
X1041500Y30000D03*
D33*
X1012500Y15000D03*
X1027500Y15000D03*
D22*
X1151700Y22380D02*
X1151700Y37620D01*
X1126300Y37620D02*
X1126300Y22380D01*
D28*
X791000Y770000D03*
X829000Y770000D03*
X991000Y770000D03*
X1029000Y770000D03*
X1191000Y770000D03*
X1229000Y770000D03*
X1391000Y770000D03*
X1429000Y770000D03*
X1479000Y460000D03*
X1441000Y460000D03*
X1379000Y460000D03*
X1341000Y460000D03*
X879000Y460000D03*
X841000Y460000D03*
X779000Y460000D03*
X741000Y460000D03*
X741000Y360000D03*
X779000Y360000D03*
X841000Y360000D03*
X879000Y360000D03*
X1341000Y360000D03*
X1379000Y360000D03*
X1441000Y360000D03*
X1479000Y360000D03*
X1429000Y50000D03*
X1391000Y50000D03*
X1229000Y50000D03*
X1191000Y50000D03*
X1009000Y50000D03*
X971000Y50000D03*
X829000Y50000D03*
X791000Y50000D03*
D23*
X1110000Y680000D03*
D24*
X1075000Y680000D03*
X1145000Y680000D03*
D25*
X1075000Y680000D03*
X1110000Y680000D03*
X1145000Y680000D03*
D34*
X1087500Y59000D03*
X1087500Y31000D03*
D17*
G36*
X76326Y733348D02*
X64226Y721248D01*
X52126Y733348D01*
X64226Y745448D01*
X76326Y733348D01*
G37*
D18*
X14728Y782846D03*
X106652Y775774D03*
X57154Y825272D03*
D17*
G36*
X106652Y236326D02*
X118752Y224226D01*
X106652Y212126D01*
X94552Y224226D01*
X106652Y236326D01*
G37*
D20*
X57154Y174728D03*
X64226Y266652D03*
X14728Y217154D03*
D17*
G36*
X191512Y321186D02*
X203612Y309086D01*
X191512Y296986D01*
X179412Y309086D01*
X191512Y321186D01*
G37*
D20*
X142014Y259588D03*
X149086Y351512D03*
X99588Y302014D03*
D17*
G36*
X161186Y648488D02*
X149086Y636388D01*
X136986Y648488D01*
X149086Y660588D01*
X161186Y648488D01*
G37*
D18*
X99588Y697986D03*
X191512Y690914D03*
X142014Y740412D03*
D17*
G36*
X603674Y266652D02*
X615774Y278752D01*
X627874Y266652D01*
X615774Y254552D01*
X603674Y266652D01*
G37*
D19*
X665272Y217154D03*
X573348Y224226D03*
X622846Y174728D03*
D17*
G36*
X518814Y351512D02*
X530914Y363612D01*
X543014Y351512D01*
X530914Y339412D01*
X518814Y351512D01*
G37*
D19*
X580412Y302014D03*
X488488Y309086D03*
X537986Y259588D03*
D17*
G36*
X573348Y763674D02*
X561248Y775774D01*
X573348Y787874D01*
X585448Y775774D01*
X573348Y763674D01*
G37*
D21*
X622846Y825272D03*
X615774Y733348D03*
X665272Y782846D03*
D17*
G36*
X488488Y678814D02*
X476388Y690914D01*
X488488Y703014D01*
X500588Y690914D01*
X488488Y678814D01*
G37*
D21*
X537986Y740412D03*
X530914Y648488D03*
X580412Y697986D03*
D26*
X307500Y467500D03*
D27*
X307500Y532500D03*
X372500Y467500D03*
X372500Y532500D03*
D35*
X795000Y85000D03*
D36*
X730000Y480000D03*
X720000Y660000D03*
D35*
X970000Y85000D03*
X1170000Y85000D03*
X1370000Y85000D03*
X1460000Y290000D03*
X1250000Y290000D03*
X1050000Y290000D03*
X850000Y290000D03*
X760000Y495000D03*
X970000Y495000D03*
X1170000Y495000D03*
X1370000Y495000D03*
X1460000Y700000D03*
X1250000Y700000D03*
X1050000Y700000D03*
X850000Y700000D03*
D37*
X11000Y69000D03*
X11000Y11000D03*
X69000Y11000D03*
X69000Y69000D03*
X611000Y69000D03*
X611000Y11000D03*
X669000Y11000D03*
X669000Y69000D03*
X611000Y989000D03*
X611000Y931000D03*
X669000Y931000D03*
X669000Y989000D03*
X11000Y989000D03*
X11000Y931000D03*
X69000Y931000D03*
X69000Y989000D03*
M02*
